%TF.GenerationSoftware,KiCad,Pcbnew,(6.0.1)*%
%TF.CreationDate,2022-01-24T11:38:00+08:00*%
%TF.ProjectId,ST-Link_v2-1,53542d4c-696e-46b5-9f76-322d312e6b69,rev?*%
%TF.SameCoordinates,Original*%
%TF.FileFunction,Legend,Bot*%
%TF.FilePolarity,Positive*%
%FSLAX46Y46*%
G04 Gerber Fmt 4.6, Leading zero omitted, Abs format (unit mm)*
G04 Created by KiCad (PCBNEW (6.0.1)) date 2022-01-24 11:38:00*
%MOMM*%
%LPD*%
G01*
G04 APERTURE LIST*
G04 Aperture macros list*
%AMRoundRect*
0 Rectangle with rounded corners*
0 $1 Rounding radius*
0 $2 $3 $4 $5 $6 $7 $8 $9 X,Y pos of 4 corners*
0 Add a 4 corners polygon primitive as box body*
4,1,4,$2,$3,$4,$5,$6,$7,$8,$9,$2,$3,0*
0 Add four circle primitives for the rounded corners*
1,1,$1+$1,$2,$3*
1,1,$1+$1,$4,$5*
1,1,$1+$1,$6,$7*
1,1,$1+$1,$8,$9*
0 Add four rect primitives between the rounded corners*
20,1,$1+$1,$2,$3,$4,$5,0*
20,1,$1+$1,$4,$5,$6,$7,0*
20,1,$1+$1,$6,$7,$8,$9,0*
20,1,$1+$1,$8,$9,$2,$3,0*%
G04 Aperture macros list end*
%ADD10C,0.127000*%
%ADD11C,0.120000*%
%ADD12C,1.500000*%
%ADD13R,1.850000X0.300000*%
%ADD14R,1.250000X0.300000*%
%ADD15R,1.850000X1.180000*%
%ADD16RoundRect,0.200000X0.275000X-0.200000X0.275000X0.200000X-0.275000X0.200000X-0.275000X-0.200000X0*%
%ADD17RoundRect,0.225000X0.250000X-0.225000X0.250000X0.225000X-0.250000X0.225000X-0.250000X-0.225000X0*%
%ADD18RoundRect,0.225000X-0.250000X0.225000X-0.250000X-0.225000X0.250000X-0.225000X0.250000X0.225000X0*%
%ADD19RoundRect,0.225000X0.225000X0.250000X-0.225000X0.250000X-0.225000X-0.250000X0.225000X-0.250000X0*%
%ADD20RoundRect,0.200000X-0.275000X0.200000X-0.275000X-0.200000X0.275000X-0.200000X0.275000X0.200000X0*%
%ADD21RoundRect,0.200000X0.200000X0.275000X-0.200000X0.275000X-0.200000X-0.275000X0.200000X-0.275000X0*%
%ADD22RoundRect,0.200000X-0.200000X-0.275000X0.200000X-0.275000X0.200000X0.275000X-0.200000X0.275000X0*%
G04 APERTURE END LIST*
D10*
X169907857Y-113483571D02*
X169798999Y-113519857D01*
X169762714Y-113556142D01*
X169726428Y-113628714D01*
X169726428Y-113737571D01*
X169762714Y-113810142D01*
X169798999Y-113846428D01*
X169871571Y-113882714D01*
X170161857Y-113882714D01*
X170161857Y-113120714D01*
X169907857Y-113120714D01*
X169835285Y-113157000D01*
X169798999Y-113193285D01*
X169762714Y-113265857D01*
X169762714Y-113338428D01*
X169798999Y-113411000D01*
X169835285Y-113447285D01*
X169907857Y-113483571D01*
X170161857Y-113483571D01*
X169472428Y-113374714D02*
X169290999Y-113882714D01*
X169109571Y-113374714D02*
X169290999Y-113882714D01*
X169363571Y-114064142D01*
X169399857Y-114100428D01*
X169472428Y-114136714D01*
X168274999Y-113846428D02*
X168166142Y-113882714D01*
X167984714Y-113882714D01*
X167912142Y-113846428D01*
X167875857Y-113810142D01*
X167839571Y-113737571D01*
X167839571Y-113665000D01*
X167875857Y-113592428D01*
X167912142Y-113556142D01*
X167984714Y-113519857D01*
X168129857Y-113483571D01*
X168202428Y-113447285D01*
X168238714Y-113411000D01*
X168274999Y-113338428D01*
X168274999Y-113265857D01*
X168238714Y-113193285D01*
X168202428Y-113157000D01*
X168129857Y-113120714D01*
X167948428Y-113120714D01*
X167839571Y-113157000D01*
X167186428Y-113882714D02*
X167186428Y-113483571D01*
X167222714Y-113411000D01*
X167295285Y-113374714D01*
X167440428Y-113374714D01*
X167512999Y-113411000D01*
X167186428Y-113846428D02*
X167258999Y-113882714D01*
X167440428Y-113882714D01*
X167512999Y-113846428D01*
X167549285Y-113773857D01*
X167549285Y-113701285D01*
X167512999Y-113628714D01*
X167440428Y-113592428D01*
X167258999Y-113592428D01*
X167186428Y-113556142D01*
X166823571Y-113882714D02*
X166823571Y-113374714D01*
X166823571Y-113447285D02*
X166787285Y-113411000D01*
X166714714Y-113374714D01*
X166605857Y-113374714D01*
X166533285Y-113411000D01*
X166496999Y-113483571D01*
X166496999Y-113882714D01*
X166496999Y-113483571D02*
X166460714Y-113411000D01*
X166388142Y-113374714D01*
X166279285Y-113374714D01*
X166206714Y-113411000D01*
X166170428Y-113483571D01*
X166170428Y-113882714D01*
X165843857Y-113846428D02*
X165771285Y-113882714D01*
X165626142Y-113882714D01*
X165553571Y-113846428D01*
X165517285Y-113773857D01*
X165517285Y-113737571D01*
X165553571Y-113665000D01*
X165626142Y-113628714D01*
X165734999Y-113628714D01*
X165807571Y-113592428D01*
X165843857Y-113519857D01*
X165843857Y-113483571D01*
X165807571Y-113411000D01*
X165734999Y-113374714D01*
X165626142Y-113374714D01*
X165553571Y-113411000D01*
X165081857Y-113882714D02*
X165154428Y-113846428D01*
X165190714Y-113810142D01*
X165226999Y-113737571D01*
X165226999Y-113519857D01*
X165190714Y-113447285D01*
X165154428Y-113411000D01*
X165081857Y-113374714D01*
X164972999Y-113374714D01*
X164900428Y-113411000D01*
X164864142Y-113447285D01*
X164827857Y-113519857D01*
X164827857Y-113737571D01*
X164864142Y-113810142D01*
X164900428Y-113846428D01*
X164972999Y-113882714D01*
X165081857Y-113882714D01*
X164501285Y-113374714D02*
X164501285Y-113882714D01*
X164501285Y-113447285D02*
X164464999Y-113411000D01*
X164392428Y-113374714D01*
X164283571Y-113374714D01*
X164210999Y-113411000D01*
X164174714Y-113483571D01*
X164174714Y-113882714D01*
X163303857Y-113120714D02*
X163122428Y-113882714D01*
X162977285Y-113338428D01*
X162832142Y-113882714D01*
X162650714Y-113120714D01*
X162033857Y-113374714D02*
X162033857Y-113882714D01*
X162360428Y-113374714D02*
X162360428Y-113773857D01*
X162324142Y-113846428D01*
X162251571Y-113882714D01*
X162142714Y-113882714D01*
X162070142Y-113846428D01*
X162033857Y-113810142D01*
X170198142Y-111687428D02*
X170089285Y-111723714D01*
X169907857Y-111723714D01*
X169835285Y-111687428D01*
X169799000Y-111651142D01*
X169762714Y-111578571D01*
X169762714Y-111506000D01*
X169799000Y-111433428D01*
X169835285Y-111397142D01*
X169907857Y-111360857D01*
X170053000Y-111324571D01*
X170125571Y-111288285D01*
X170161857Y-111252000D01*
X170198142Y-111179428D01*
X170198142Y-111106857D01*
X170161857Y-111034285D01*
X170125571Y-110998000D01*
X170053000Y-110961714D01*
X169871571Y-110961714D01*
X169762714Y-110998000D01*
X169545000Y-110961714D02*
X169109571Y-110961714D01*
X169327285Y-111723714D02*
X169327285Y-110961714D01*
X168855571Y-111433428D02*
X168275000Y-111433428D01*
X167549285Y-111723714D02*
X167912142Y-111723714D01*
X167912142Y-110961714D01*
X167295285Y-111723714D02*
X167295285Y-111215714D01*
X167295285Y-110961714D02*
X167331571Y-110998000D01*
X167295285Y-111034285D01*
X167259000Y-110998000D01*
X167295285Y-110961714D01*
X167295285Y-111034285D01*
X166932428Y-111215714D02*
X166932428Y-111723714D01*
X166932428Y-111288285D02*
X166896142Y-111252000D01*
X166823571Y-111215714D01*
X166714714Y-111215714D01*
X166642142Y-111252000D01*
X166605857Y-111324571D01*
X166605857Y-111723714D01*
X166243000Y-111723714D02*
X166243000Y-110961714D01*
X166170428Y-111433428D02*
X165952714Y-111723714D01*
X165952714Y-111215714D02*
X166243000Y-111506000D01*
X165626142Y-111433428D02*
X165045571Y-111433428D01*
X164791571Y-110961714D02*
X164537571Y-111723714D01*
X164283571Y-110961714D01*
X164065857Y-111034285D02*
X164029571Y-110998000D01*
X163957000Y-110961714D01*
X163775571Y-110961714D01*
X163703000Y-110998000D01*
X163666714Y-111034285D01*
X163630428Y-111106857D01*
X163630428Y-111179428D01*
X163666714Y-111288285D01*
X164102142Y-111723714D01*
X163630428Y-111723714D01*
X163303857Y-111651142D02*
X163267571Y-111687428D01*
X163303857Y-111723714D01*
X163340142Y-111687428D01*
X163303857Y-111651142D01*
X163303857Y-111723714D01*
X162541857Y-111723714D02*
X162977285Y-111723714D01*
X162759571Y-111723714D02*
X162759571Y-110961714D01*
X162832142Y-111070571D01*
X162904714Y-111143142D01*
X162977285Y-111179428D01*
X161743571Y-110961714D02*
X161489571Y-111723714D01*
X161235571Y-110961714D01*
X161017857Y-111034285D02*
X160981571Y-110998000D01*
X160909000Y-110961714D01*
X160727571Y-110961714D01*
X160655000Y-110998000D01*
X160618714Y-111034285D01*
X160582428Y-111106857D01*
X160582428Y-111179428D01*
X160618714Y-111288285D01*
X161054142Y-111723714D01*
X160582428Y-111723714D01*
X160255857Y-111651142D02*
X160219571Y-111687428D01*
X160255857Y-111723714D01*
X160292142Y-111687428D01*
X160255857Y-111651142D01*
X160255857Y-111723714D01*
X159965571Y-110961714D02*
X159493857Y-110961714D01*
X159747857Y-111252000D01*
X159639000Y-111252000D01*
X159566428Y-111288285D01*
X159530142Y-111324571D01*
X159493857Y-111397142D01*
X159493857Y-111578571D01*
X159530142Y-111651142D01*
X159566428Y-111687428D01*
X159639000Y-111723714D01*
X159856714Y-111723714D01*
X159929285Y-111687428D01*
X159965571Y-111651142D01*
X170198142Y-112050285D02*
X170161857Y-112014000D01*
X170089285Y-111977714D01*
X169907857Y-111977714D01*
X169835285Y-112014000D01*
X169799000Y-112050285D01*
X169762714Y-112122857D01*
X169762714Y-112195428D01*
X169799000Y-112304285D01*
X170234428Y-112739714D01*
X169762714Y-112739714D01*
X169291000Y-111977714D02*
X169218428Y-111977714D01*
X169145857Y-112014000D01*
X169109571Y-112050285D01*
X169073285Y-112122857D01*
X169037000Y-112268000D01*
X169037000Y-112449428D01*
X169073285Y-112594571D01*
X169109571Y-112667142D01*
X169145857Y-112703428D01*
X169218428Y-112739714D01*
X169291000Y-112739714D01*
X169363571Y-112703428D01*
X169399857Y-112667142D01*
X169436142Y-112594571D01*
X169472428Y-112449428D01*
X169472428Y-112268000D01*
X169436142Y-112122857D01*
X169399857Y-112050285D01*
X169363571Y-112014000D01*
X169291000Y-111977714D01*
X168746714Y-112050285D02*
X168710428Y-112014000D01*
X168637857Y-111977714D01*
X168456428Y-111977714D01*
X168383857Y-112014000D01*
X168347571Y-112050285D01*
X168311285Y-112122857D01*
X168311285Y-112195428D01*
X168347571Y-112304285D01*
X168783000Y-112739714D01*
X168311285Y-112739714D01*
X168021000Y-112050285D02*
X167984714Y-112014000D01*
X167912142Y-111977714D01*
X167730714Y-111977714D01*
X167658142Y-112014000D01*
X167621857Y-112050285D01*
X167585571Y-112122857D01*
X167585571Y-112195428D01*
X167621857Y-112304285D01*
X168057285Y-112739714D01*
X167585571Y-112739714D01*
X166714714Y-111941428D02*
X167367857Y-112921142D01*
X166061571Y-112739714D02*
X166497000Y-112739714D01*
X166279285Y-112739714D02*
X166279285Y-111977714D01*
X166351857Y-112086571D01*
X166424428Y-112159142D01*
X166497000Y-112195428D01*
X165190714Y-111941428D02*
X165843857Y-112921142D01*
X164973000Y-112050285D02*
X164936714Y-112014000D01*
X164864142Y-111977714D01*
X164682714Y-111977714D01*
X164610142Y-112014000D01*
X164573857Y-112050285D01*
X164537571Y-112122857D01*
X164537571Y-112195428D01*
X164573857Y-112304285D01*
X165009285Y-112739714D01*
X164537571Y-112739714D01*
X164283571Y-111977714D02*
X163811857Y-111977714D01*
X164065857Y-112268000D01*
X163957000Y-112268000D01*
X163884428Y-112304285D01*
X163848142Y-112340571D01*
X163811857Y-112413142D01*
X163811857Y-112594571D01*
X163848142Y-112667142D01*
X163884428Y-112703428D01*
X163957000Y-112739714D01*
X164174714Y-112739714D01*
X164247285Y-112703428D01*
X164283571Y-112667142D01*
%TO.C,R16*%
X144870714Y-108094142D02*
X144507857Y-107840142D01*
X144870714Y-107658714D02*
X144108714Y-107658714D01*
X144108714Y-107949000D01*
X144145000Y-108021571D01*
X144181285Y-108057857D01*
X144253857Y-108094142D01*
X144362714Y-108094142D01*
X144435285Y-108057857D01*
X144471571Y-108021571D01*
X144507857Y-107949000D01*
X144507857Y-107658714D01*
X144870714Y-108819857D02*
X144870714Y-108384428D01*
X144870714Y-108602142D02*
X144108714Y-108602142D01*
X144217571Y-108529571D01*
X144290142Y-108457000D01*
X144326428Y-108384428D01*
X144108714Y-109473000D02*
X144108714Y-109327857D01*
X144145000Y-109255285D01*
X144181285Y-109219000D01*
X144290142Y-109146428D01*
X144435285Y-109110142D01*
X144725571Y-109110142D01*
X144798142Y-109146428D01*
X144834428Y-109182714D01*
X144870714Y-109255285D01*
X144870714Y-109400428D01*
X144834428Y-109473000D01*
X144798142Y-109509285D01*
X144725571Y-109545571D01*
X144544142Y-109545571D01*
X144471571Y-109509285D01*
X144435285Y-109473000D01*
X144399000Y-109400428D01*
X144399000Y-109255285D01*
X144435285Y-109182714D01*
X144471571Y-109146428D01*
X144544142Y-109110142D01*
%TO.C,C6*%
X155466142Y-101727000D02*
X155502428Y-101690714D01*
X155538714Y-101581857D01*
X155538714Y-101509285D01*
X155502428Y-101400428D01*
X155429857Y-101327857D01*
X155357285Y-101291571D01*
X155212142Y-101255285D01*
X155103285Y-101255285D01*
X154958142Y-101291571D01*
X154885571Y-101327857D01*
X154813000Y-101400428D01*
X154776714Y-101509285D01*
X154776714Y-101581857D01*
X154813000Y-101690714D01*
X154849285Y-101727000D01*
X154776714Y-102380142D02*
X154776714Y-102235000D01*
X154813000Y-102162428D01*
X154849285Y-102126142D01*
X154958142Y-102053571D01*
X155103285Y-102017285D01*
X155393571Y-102017285D01*
X155466142Y-102053571D01*
X155502428Y-102089857D01*
X155538714Y-102162428D01*
X155538714Y-102307571D01*
X155502428Y-102380142D01*
X155466142Y-102416428D01*
X155393571Y-102452714D01*
X155212142Y-102452714D01*
X155139571Y-102416428D01*
X155103285Y-102380142D01*
X155067000Y-102307571D01*
X155067000Y-102162428D01*
X155103285Y-102089857D01*
X155139571Y-102053571D01*
X155212142Y-102017285D01*
%TO.C,R14*%
X161253714Y-101999142D02*
X160890857Y-101745142D01*
X161253714Y-101563714D02*
X160491714Y-101563714D01*
X160491714Y-101854000D01*
X160528000Y-101926571D01*
X160564285Y-101962857D01*
X160636857Y-101999142D01*
X160745714Y-101999142D01*
X160818285Y-101962857D01*
X160854571Y-101926571D01*
X160890857Y-101854000D01*
X160890857Y-101563714D01*
X161253714Y-102724857D02*
X161253714Y-102289428D01*
X161253714Y-102507142D02*
X160491714Y-102507142D01*
X160600571Y-102434571D01*
X160673142Y-102362000D01*
X160709428Y-102289428D01*
X160745714Y-103378000D02*
X161253714Y-103378000D01*
X160455428Y-103196571D02*
X160999714Y-103015142D01*
X160999714Y-103486857D01*
%TO.C,C8*%
X144163142Y-111887000D02*
X144199428Y-111850714D01*
X144235714Y-111741857D01*
X144235714Y-111669285D01*
X144199428Y-111560428D01*
X144126857Y-111487857D01*
X144054285Y-111451571D01*
X143909142Y-111415285D01*
X143800285Y-111415285D01*
X143655142Y-111451571D01*
X143582571Y-111487857D01*
X143510000Y-111560428D01*
X143473714Y-111669285D01*
X143473714Y-111741857D01*
X143510000Y-111850714D01*
X143546285Y-111887000D01*
X143800285Y-112322428D02*
X143764000Y-112249857D01*
X143727714Y-112213571D01*
X143655142Y-112177285D01*
X143618857Y-112177285D01*
X143546285Y-112213571D01*
X143510000Y-112249857D01*
X143473714Y-112322428D01*
X143473714Y-112467571D01*
X143510000Y-112540142D01*
X143546285Y-112576428D01*
X143618857Y-112612714D01*
X143655142Y-112612714D01*
X143727714Y-112576428D01*
X143764000Y-112540142D01*
X143800285Y-112467571D01*
X143800285Y-112322428D01*
X143836571Y-112249857D01*
X143872857Y-112213571D01*
X143945428Y-112177285D01*
X144090571Y-112177285D01*
X144163142Y-112213571D01*
X144199428Y-112249857D01*
X144235714Y-112322428D01*
X144235714Y-112467571D01*
X144199428Y-112540142D01*
X144163142Y-112576428D01*
X144090571Y-112612714D01*
X143945428Y-112612714D01*
X143872857Y-112576428D01*
X143836571Y-112540142D01*
X143800285Y-112467571D01*
%TO.C,C4*%
X150749000Y-102253142D02*
X150785285Y-102289428D01*
X150894142Y-102325714D01*
X150966714Y-102325714D01*
X151075571Y-102289428D01*
X151148142Y-102216857D01*
X151184428Y-102144285D01*
X151220714Y-101999142D01*
X151220714Y-101890285D01*
X151184428Y-101745142D01*
X151148142Y-101672571D01*
X151075571Y-101600000D01*
X150966714Y-101563714D01*
X150894142Y-101563714D01*
X150785285Y-101600000D01*
X150749000Y-101636285D01*
X150095857Y-101817714D02*
X150095857Y-102325714D01*
X150277285Y-101527428D02*
X150458714Y-102071714D01*
X149987000Y-102071714D01*
%TO.C,R3*%
X149950714Y-111887000D02*
X149587857Y-111633000D01*
X149950714Y-111451571D02*
X149188714Y-111451571D01*
X149188714Y-111741857D01*
X149225000Y-111814428D01*
X149261285Y-111850714D01*
X149333857Y-111887000D01*
X149442714Y-111887000D01*
X149515285Y-111850714D01*
X149551571Y-111814428D01*
X149587857Y-111741857D01*
X149587857Y-111451571D01*
X149188714Y-112141000D02*
X149188714Y-112612714D01*
X149479000Y-112358714D01*
X149479000Y-112467571D01*
X149515285Y-112540142D01*
X149551571Y-112576428D01*
X149624142Y-112612714D01*
X149805571Y-112612714D01*
X149878142Y-112576428D01*
X149914428Y-112540142D01*
X149950714Y-112467571D01*
X149950714Y-112249857D01*
X149914428Y-112177285D01*
X149878142Y-112141000D01*
%TO.C,R19*%
X151982714Y-109365142D02*
X151619857Y-109111142D01*
X151982714Y-108929714D02*
X151220714Y-108929714D01*
X151220714Y-109220000D01*
X151257000Y-109292571D01*
X151293285Y-109328857D01*
X151365857Y-109365142D01*
X151474714Y-109365142D01*
X151547285Y-109328857D01*
X151583571Y-109292571D01*
X151619857Y-109220000D01*
X151619857Y-108929714D01*
X151982714Y-110090857D02*
X151982714Y-109655428D01*
X151982714Y-109873142D02*
X151220714Y-109873142D01*
X151329571Y-109800571D01*
X151402142Y-109728000D01*
X151438428Y-109655428D01*
X151982714Y-110453714D02*
X151982714Y-110598857D01*
X151946428Y-110671428D01*
X151910142Y-110707714D01*
X151801285Y-110780285D01*
X151656142Y-110816571D01*
X151365857Y-110816571D01*
X151293285Y-110780285D01*
X151257000Y-110744000D01*
X151220714Y-110671428D01*
X151220714Y-110526285D01*
X151257000Y-110453714D01*
X151293285Y-110417428D01*
X151365857Y-110381142D01*
X151547285Y-110381142D01*
X151619857Y-110417428D01*
X151656142Y-110453714D01*
X151692428Y-110526285D01*
X151692428Y-110671428D01*
X151656142Y-110744000D01*
X151619857Y-110780285D01*
X151547285Y-110816571D01*
%TO.C,C2*%
X165372142Y-108331000D02*
X165408428Y-108294714D01*
X165444714Y-108185857D01*
X165444714Y-108113285D01*
X165408428Y-108004428D01*
X165335857Y-107931857D01*
X165263285Y-107895571D01*
X165118142Y-107859285D01*
X165009285Y-107859285D01*
X164864142Y-107895571D01*
X164791571Y-107931857D01*
X164719000Y-108004428D01*
X164682714Y-108113285D01*
X164682714Y-108185857D01*
X164719000Y-108294714D01*
X164755285Y-108331000D01*
X164755285Y-108621285D02*
X164719000Y-108657571D01*
X164682714Y-108730142D01*
X164682714Y-108911571D01*
X164719000Y-108984142D01*
X164755285Y-109020428D01*
X164827857Y-109056714D01*
X164900428Y-109056714D01*
X165009285Y-109020428D01*
X165444714Y-108585000D01*
X165444714Y-109056714D01*
%TO.C,R1*%
X157029714Y-106553000D02*
X156666857Y-106299000D01*
X157029714Y-106117571D02*
X156267714Y-106117571D01*
X156267714Y-106407857D01*
X156304000Y-106480428D01*
X156340285Y-106516714D01*
X156412857Y-106553000D01*
X156521714Y-106553000D01*
X156594285Y-106516714D01*
X156630571Y-106480428D01*
X156666857Y-106407857D01*
X156666857Y-106117571D01*
X157029714Y-107278714D02*
X157029714Y-106843285D01*
X157029714Y-107061000D02*
X156267714Y-107061000D01*
X156376571Y-106988428D01*
X156449142Y-106915857D01*
X156485428Y-106843285D01*
%TO.C,R9*%
X158369000Y-110580714D02*
X158623000Y-110217857D01*
X158804428Y-110580714D02*
X158804428Y-109818714D01*
X158514142Y-109818714D01*
X158441571Y-109855000D01*
X158405285Y-109891285D01*
X158369000Y-109963857D01*
X158369000Y-110072714D01*
X158405285Y-110145285D01*
X158441571Y-110181571D01*
X158514142Y-110217857D01*
X158804428Y-110217857D01*
X158006142Y-110580714D02*
X157861000Y-110580714D01*
X157788428Y-110544428D01*
X157752142Y-110508142D01*
X157679571Y-110399285D01*
X157643285Y-110254142D01*
X157643285Y-109963857D01*
X157679571Y-109891285D01*
X157715857Y-109855000D01*
X157788428Y-109818714D01*
X157933571Y-109818714D01*
X158006142Y-109855000D01*
X158042428Y-109891285D01*
X158078714Y-109963857D01*
X158078714Y-110145285D01*
X158042428Y-110217857D01*
X158006142Y-110254142D01*
X157933571Y-110290428D01*
X157788428Y-110290428D01*
X157715857Y-110254142D01*
X157679571Y-110217857D01*
X157643285Y-110145285D01*
%TO.C,C1*%
X161181142Y-106553000D02*
X161217428Y-106516714D01*
X161253714Y-106407857D01*
X161253714Y-106335285D01*
X161217428Y-106226428D01*
X161144857Y-106153857D01*
X161072285Y-106117571D01*
X160927142Y-106081285D01*
X160818285Y-106081285D01*
X160673142Y-106117571D01*
X160600571Y-106153857D01*
X160528000Y-106226428D01*
X160491714Y-106335285D01*
X160491714Y-106407857D01*
X160528000Y-106516714D01*
X160564285Y-106553000D01*
X161253714Y-107278714D02*
X161253714Y-106843285D01*
X161253714Y-107061000D02*
X160491714Y-107061000D01*
X160600571Y-106988428D01*
X160673142Y-106915857D01*
X160709428Y-106843285D01*
%TO.C,C3*%
X165372142Y-105283000D02*
X165408428Y-105246714D01*
X165444714Y-105137857D01*
X165444714Y-105065285D01*
X165408428Y-104956428D01*
X165335857Y-104883857D01*
X165263285Y-104847571D01*
X165118142Y-104811285D01*
X165009285Y-104811285D01*
X164864142Y-104847571D01*
X164791571Y-104883857D01*
X164719000Y-104956428D01*
X164682714Y-105065285D01*
X164682714Y-105137857D01*
X164719000Y-105246714D01*
X164755285Y-105283000D01*
X164682714Y-105537000D02*
X164682714Y-106008714D01*
X164973000Y-105754714D01*
X164973000Y-105863571D01*
X165009285Y-105936142D01*
X165045571Y-105972428D01*
X165118142Y-106008714D01*
X165299571Y-106008714D01*
X165372142Y-105972428D01*
X165408428Y-105936142D01*
X165444714Y-105863571D01*
X165444714Y-105645857D01*
X165408428Y-105573285D01*
X165372142Y-105537000D01*
%TO.C,R4*%
X151130000Y-113247714D02*
X151384000Y-112884857D01*
X151565428Y-113247714D02*
X151565428Y-112485714D01*
X151275142Y-112485714D01*
X151202571Y-112522000D01*
X151166285Y-112558285D01*
X151130000Y-112630857D01*
X151130000Y-112739714D01*
X151166285Y-112812285D01*
X151202571Y-112848571D01*
X151275142Y-112884857D01*
X151565428Y-112884857D01*
X150476857Y-112739714D02*
X150476857Y-113247714D01*
X150658285Y-112449428D02*
X150839714Y-112993714D01*
X150368000Y-112993714D01*
%TO.C,R6*%
X154014714Y-110363000D02*
X153651857Y-110109000D01*
X154014714Y-109927571D02*
X153252714Y-109927571D01*
X153252714Y-110217857D01*
X153289000Y-110290428D01*
X153325285Y-110326714D01*
X153397857Y-110363000D01*
X153506714Y-110363000D01*
X153579285Y-110326714D01*
X153615571Y-110290428D01*
X153651857Y-110217857D01*
X153651857Y-109927571D01*
X153252714Y-111016142D02*
X153252714Y-110871000D01*
X153289000Y-110798428D01*
X153325285Y-110762142D01*
X153434142Y-110689571D01*
X153579285Y-110653285D01*
X153869571Y-110653285D01*
X153942142Y-110689571D01*
X153978428Y-110725857D01*
X154014714Y-110798428D01*
X154014714Y-110943571D01*
X153978428Y-111016142D01*
X153942142Y-111052428D01*
X153869571Y-111088714D01*
X153688142Y-111088714D01*
X153615571Y-111052428D01*
X153579285Y-111016142D01*
X153543000Y-110943571D01*
X153543000Y-110798428D01*
X153579285Y-110725857D01*
X153615571Y-110689571D01*
X153688142Y-110653285D01*
%TO.C,R15*%
X157189714Y-102888142D02*
X156826857Y-102634142D01*
X157189714Y-102452714D02*
X156427714Y-102452714D01*
X156427714Y-102743000D01*
X156464000Y-102815571D01*
X156500285Y-102851857D01*
X156572857Y-102888142D01*
X156681714Y-102888142D01*
X156754285Y-102851857D01*
X156790571Y-102815571D01*
X156826857Y-102743000D01*
X156826857Y-102452714D01*
X157189714Y-103613857D02*
X157189714Y-103178428D01*
X157189714Y-103396142D02*
X156427714Y-103396142D01*
X156536571Y-103323571D01*
X156609142Y-103251000D01*
X156645428Y-103178428D01*
X156427714Y-104303285D02*
X156427714Y-103940428D01*
X156790571Y-103904142D01*
X156754285Y-103940428D01*
X156718000Y-104013000D01*
X156718000Y-104194428D01*
X156754285Y-104267000D01*
X156790571Y-104303285D01*
X156863142Y-104339571D01*
X157044571Y-104339571D01*
X157117142Y-104303285D01*
X157153428Y-104267000D01*
X157189714Y-104194428D01*
X157189714Y-104013000D01*
X157153428Y-103940428D01*
X157117142Y-103904142D01*
%TO.C,R7*%
X153670000Y-102325714D02*
X153924000Y-101962857D01*
X154105428Y-102325714D02*
X154105428Y-101563714D01*
X153815142Y-101563714D01*
X153742571Y-101600000D01*
X153706285Y-101636285D01*
X153670000Y-101708857D01*
X153670000Y-101817714D01*
X153706285Y-101890285D01*
X153742571Y-101926571D01*
X153815142Y-101962857D01*
X154105428Y-101962857D01*
X153416000Y-101563714D02*
X152908000Y-101563714D01*
X153234571Y-102325714D01*
%TO.C,C7*%
X147592142Y-106172000D02*
X147628428Y-106135714D01*
X147664714Y-106026857D01*
X147664714Y-105954285D01*
X147628428Y-105845428D01*
X147555857Y-105772857D01*
X147483285Y-105736571D01*
X147338142Y-105700285D01*
X147229285Y-105700285D01*
X147084142Y-105736571D01*
X147011571Y-105772857D01*
X146939000Y-105845428D01*
X146902714Y-105954285D01*
X146902714Y-106026857D01*
X146939000Y-106135714D01*
X146975285Y-106172000D01*
X146902714Y-106426000D02*
X146902714Y-106934000D01*
X147664714Y-106607428D01*
%TO.C,R20*%
X150458714Y-109365142D02*
X150095857Y-109111142D01*
X150458714Y-108929714D02*
X149696714Y-108929714D01*
X149696714Y-109220000D01*
X149733000Y-109292571D01*
X149769285Y-109328857D01*
X149841857Y-109365142D01*
X149950714Y-109365142D01*
X150023285Y-109328857D01*
X150059571Y-109292571D01*
X150095857Y-109220000D01*
X150095857Y-108929714D01*
X149769285Y-109655428D02*
X149733000Y-109691714D01*
X149696714Y-109764285D01*
X149696714Y-109945714D01*
X149733000Y-110018285D01*
X149769285Y-110054571D01*
X149841857Y-110090857D01*
X149914428Y-110090857D01*
X150023285Y-110054571D01*
X150458714Y-109619142D01*
X150458714Y-110090857D01*
X149696714Y-110562571D02*
X149696714Y-110635142D01*
X149733000Y-110707714D01*
X149769285Y-110744000D01*
X149841857Y-110780285D01*
X149987000Y-110816571D01*
X150168428Y-110816571D01*
X150313571Y-110780285D01*
X150386142Y-110744000D01*
X150422428Y-110707714D01*
X150458714Y-110635142D01*
X150458714Y-110562571D01*
X150422428Y-110490000D01*
X150386142Y-110453714D01*
X150313571Y-110417428D01*
X150168428Y-110381142D01*
X149987000Y-110381142D01*
X149841857Y-110417428D01*
X149769285Y-110453714D01*
X149733000Y-110490000D01*
X149696714Y-110562571D01*
%TO.C,R2*%
X144870714Y-104013000D02*
X144507857Y-103759000D01*
X144870714Y-103577571D02*
X144108714Y-103577571D01*
X144108714Y-103867857D01*
X144145000Y-103940428D01*
X144181285Y-103976714D01*
X144253857Y-104013000D01*
X144362714Y-104013000D01*
X144435285Y-103976714D01*
X144471571Y-103940428D01*
X144507857Y-103867857D01*
X144507857Y-103577571D01*
X144181285Y-104303285D02*
X144145000Y-104339571D01*
X144108714Y-104412142D01*
X144108714Y-104593571D01*
X144145000Y-104666142D01*
X144181285Y-104702428D01*
X144253857Y-104738714D01*
X144326428Y-104738714D01*
X144435285Y-104702428D01*
X144870714Y-104267000D01*
X144870714Y-104738714D01*
%TO.C,R5*%
X158750000Y-113247714D02*
X159004000Y-112884857D01*
X159185428Y-113247714D02*
X159185428Y-112485714D01*
X158895142Y-112485714D01*
X158822571Y-112522000D01*
X158786285Y-112558285D01*
X158750000Y-112630857D01*
X158750000Y-112739714D01*
X158786285Y-112812285D01*
X158822571Y-112848571D01*
X158895142Y-112884857D01*
X159185428Y-112884857D01*
X158060571Y-112485714D02*
X158423428Y-112485714D01*
X158459714Y-112848571D01*
X158423428Y-112812285D01*
X158350857Y-112776000D01*
X158169428Y-112776000D01*
X158096857Y-112812285D01*
X158060571Y-112848571D01*
X158024285Y-112921142D01*
X158024285Y-113102571D01*
X158060571Y-113175142D01*
X158096857Y-113211428D01*
X158169428Y-113247714D01*
X158350857Y-113247714D01*
X158423428Y-113211428D01*
X158459714Y-113175142D01*
%TO.C,C9*%
X146812000Y-114191142D02*
X146848285Y-114227428D01*
X146957142Y-114263714D01*
X147029714Y-114263714D01*
X147138571Y-114227428D01*
X147211142Y-114154857D01*
X147247428Y-114082285D01*
X147283714Y-113937142D01*
X147283714Y-113828285D01*
X147247428Y-113683142D01*
X147211142Y-113610571D01*
X147138571Y-113538000D01*
X147029714Y-113501714D01*
X146957142Y-113501714D01*
X146848285Y-113538000D01*
X146812000Y-113574285D01*
X146449142Y-114263714D02*
X146304000Y-114263714D01*
X146231428Y-114227428D01*
X146195142Y-114191142D01*
X146122571Y-114082285D01*
X146086285Y-113937142D01*
X146086285Y-113646857D01*
X146122571Y-113574285D01*
X146158857Y-113538000D01*
X146231428Y-113501714D01*
X146376571Y-113501714D01*
X146449142Y-113538000D01*
X146485428Y-113574285D01*
X146521714Y-113646857D01*
X146521714Y-113828285D01*
X146485428Y-113900857D01*
X146449142Y-113937142D01*
X146376571Y-113973428D01*
X146231428Y-113973428D01*
X146158857Y-113937142D01*
X146122571Y-113900857D01*
X146086285Y-113828285D01*
%TO.C,C5*%
X155466142Y-110363000D02*
X155502428Y-110326714D01*
X155538714Y-110217857D01*
X155538714Y-110145285D01*
X155502428Y-110036428D01*
X155429857Y-109963857D01*
X155357285Y-109927571D01*
X155212142Y-109891285D01*
X155103285Y-109891285D01*
X154958142Y-109927571D01*
X154885571Y-109963857D01*
X154813000Y-110036428D01*
X154776714Y-110145285D01*
X154776714Y-110217857D01*
X154813000Y-110326714D01*
X154849285Y-110363000D01*
X154776714Y-111052428D02*
X154776714Y-110689571D01*
X155139571Y-110653285D01*
X155103285Y-110689571D01*
X155067000Y-110762142D01*
X155067000Y-110943571D01*
X155103285Y-111016142D01*
X155139571Y-111052428D01*
X155212142Y-111088714D01*
X155393571Y-111088714D01*
X155466142Y-111052428D01*
X155502428Y-111016142D01*
X155538714Y-110943571D01*
X155538714Y-110762142D01*
X155502428Y-110689571D01*
X155466142Y-110653285D01*
D11*
%TO.C,R16*%
X146318500Y-108821258D02*
X146318500Y-108346742D01*
X145273500Y-108821258D02*
X145273500Y-108346742D01*
%TO.C,C6*%
X155704000Y-104280580D02*
X155704000Y-103999420D01*
X154684000Y-104280580D02*
X154684000Y-103999420D01*
%TO.C,R14*%
X159116500Y-103869258D02*
X159116500Y-103394742D01*
X160161500Y-103869258D02*
X160161500Y-103394742D01*
%TO.C,C8*%
X144651000Y-111873420D02*
X144651000Y-112154580D01*
X145671000Y-111873420D02*
X145671000Y-112154580D01*
%TO.C,C4*%
X150000580Y-102830000D02*
X149719420Y-102830000D01*
X150000580Y-103850000D02*
X149719420Y-103850000D01*
%TO.C,R3*%
X147686500Y-111776742D02*
X147686500Y-112251258D01*
X148731500Y-111776742D02*
X148731500Y-112251258D01*
%TO.C,R19*%
X152160500Y-107425258D02*
X152160500Y-106950742D01*
X151115500Y-107425258D02*
X151115500Y-106950742D01*
%TO.C,C2*%
X164213000Y-108598580D02*
X164213000Y-108317420D01*
X163193000Y-108598580D02*
X163193000Y-108317420D01*
%TO.C,R1*%
X157592500Y-106442742D02*
X157592500Y-106917258D01*
X158637500Y-106442742D02*
X158637500Y-106917258D01*
%TO.C,R9*%
X157717258Y-109488500D02*
X157242742Y-109488500D01*
X157717258Y-108443500D02*
X157242742Y-108443500D01*
%TO.C,C1*%
X160149000Y-106539420D02*
X160149000Y-106820580D01*
X159129000Y-106539420D02*
X159129000Y-106820580D01*
%TO.C,C3*%
X163193000Y-105269420D02*
X163193000Y-105550580D01*
X164213000Y-105269420D02*
X164213000Y-105550580D01*
%TO.C,R4*%
X153526258Y-113425500D02*
X153051742Y-113425500D01*
X153526258Y-112380500D02*
X153051742Y-112380500D01*
%TO.C,R6*%
X153147500Y-108441258D02*
X153147500Y-107966742D01*
X154192500Y-108441258D02*
X154192500Y-107966742D01*
%TO.C,R15*%
X157592500Y-103394742D02*
X157592500Y-103869258D01*
X158637500Y-103394742D02*
X158637500Y-103869258D01*
%TO.C,R7*%
X152670742Y-103862500D02*
X153145258Y-103862500D01*
X152670742Y-102817500D02*
X153145258Y-102817500D01*
%TO.C,C7*%
X146810000Y-108724580D02*
X146810000Y-108443420D01*
X147830000Y-108724580D02*
X147830000Y-108443420D01*
%TO.C,R20*%
X150636500Y-107425258D02*
X150636500Y-106950742D01*
X149591500Y-107425258D02*
X149591500Y-106950742D01*
%TO.C,R2*%
X145273500Y-103902742D02*
X145273500Y-104377258D01*
X146318500Y-103902742D02*
X146318500Y-104377258D01*
%TO.C,R5*%
X156099742Y-113425500D02*
X156574258Y-113425500D01*
X156099742Y-112380500D02*
X156574258Y-112380500D01*
%TO.C,C9*%
X147195000Y-111873420D02*
X147195000Y-112154580D01*
X146175000Y-111873420D02*
X146175000Y-112154580D01*
%TO.C,C5*%
X155704000Y-108344580D02*
X155704000Y-108063420D01*
X154684000Y-108344580D02*
X154684000Y-108063420D01*
%TD*%
%LPC*%
D12*
%TO.C,Y1*%
X161417000Y-104521000D03*
X161417000Y-109401000D03*
%TD*%
D13*
%TO.C,P1*%
X141097000Y-104438000D03*
D14*
X141097000Y-104938000D03*
X141097000Y-105438000D03*
X141097000Y-105938000D03*
X141097000Y-106438000D03*
X141097000Y-106938000D03*
X141097000Y-107438000D03*
X141097000Y-107938000D03*
X141097000Y-108438000D03*
X141097000Y-108938000D03*
X141097000Y-109438000D03*
D13*
X141097000Y-109938000D03*
D15*
X141097000Y-110998000D03*
X141097000Y-103378000D03*
%TD*%
D16*
%TO.C,R16*%
X145796000Y-109409000D03*
X145796000Y-107759000D03*
%TD*%
D17*
%TO.C,C6*%
X155194000Y-104915000D03*
X155194000Y-103365000D03*
%TD*%
D16*
%TO.C,R14*%
X159639000Y-104457000D03*
X159639000Y-102807000D03*
%TD*%
D18*
%TO.C,C8*%
X145161000Y-111239000D03*
X145161000Y-112789000D03*
%TD*%
D19*
%TO.C,C4*%
X150635000Y-103340000D03*
X149085000Y-103340000D03*
%TD*%
D20*
%TO.C,R3*%
X148209000Y-111189000D03*
X148209000Y-112839000D03*
%TD*%
D16*
%TO.C,R19*%
X151638000Y-108013000D03*
X151638000Y-106363000D03*
%TD*%
D17*
%TO.C,C2*%
X163703000Y-109233000D03*
X163703000Y-107683000D03*
%TD*%
D20*
%TO.C,R1*%
X158115000Y-105855000D03*
X158115000Y-107505000D03*
%TD*%
D21*
%TO.C,R9*%
X158305000Y-108966000D03*
X156655000Y-108966000D03*
%TD*%
D18*
%TO.C,C1*%
X159639000Y-105905000D03*
X159639000Y-107455000D03*
%TD*%
%TO.C,C3*%
X163703000Y-104635000D03*
X163703000Y-106185000D03*
%TD*%
D21*
%TO.C,R4*%
X154114000Y-112903000D03*
X152464000Y-112903000D03*
%TD*%
D16*
%TO.C,R6*%
X153670000Y-109029000D03*
X153670000Y-107379000D03*
%TD*%
D20*
%TO.C,R15*%
X158115000Y-102807000D03*
X158115000Y-104457000D03*
%TD*%
D22*
%TO.C,R7*%
X152083000Y-103340000D03*
X153733000Y-103340000D03*
%TD*%
D17*
%TO.C,C7*%
X147320000Y-109359000D03*
X147320000Y-107809000D03*
%TD*%
D16*
%TO.C,R20*%
X150114000Y-108013000D03*
X150114000Y-106363000D03*
%TD*%
D20*
%TO.C,R2*%
X145796000Y-103315000D03*
X145796000Y-104965000D03*
%TD*%
D22*
%TO.C,R5*%
X157162000Y-112903000D03*
X155512000Y-112903000D03*
%TD*%
D18*
%TO.C,C9*%
X146685000Y-111239000D03*
X146685000Y-112789000D03*
%TD*%
D17*
%TO.C,C5*%
X155194000Y-108979000D03*
X155194000Y-107429000D03*
%TD*%
M02*
