%TF.GenerationSoftware,KiCad,Pcbnew,(6.0.1)*%
%TF.CreationDate,2022-01-24T11:38:00+08:00*%
%TF.ProjectId,ST-Link_v2-1,53542d4c-696e-46b5-9f76-322d312e6b69,rev?*%
%TF.SameCoordinates,Original*%
%TF.FileFunction,Paste,Bot*%
%TF.FilePolarity,Positive*%
%FSLAX46Y46*%
G04 Gerber Fmt 4.6, Leading zero omitted, Abs format (unit mm)*
G04 Created by KiCad (PCBNEW (6.0.1)) date 2022-01-24 11:38:00*
%MOMM*%
%LPD*%
G01*
G04 APERTURE LIST*
G04 Aperture macros list*
%AMRoundRect*
0 Rectangle with rounded corners*
0 $1 Rounding radius*
0 $2 $3 $4 $5 $6 $7 $8 $9 X,Y pos of 4 corners*
0 Add a 4 corners polygon primitive as box body*
4,1,4,$2,$3,$4,$5,$6,$7,$8,$9,$2,$3,0*
0 Add four circle primitives for the rounded corners*
1,1,$1+$1,$2,$3*
1,1,$1+$1,$4,$5*
1,1,$1+$1,$6,$7*
1,1,$1+$1,$8,$9*
0 Add four rect primitives between the rounded corners*
20,1,$1+$1,$2,$3,$4,$5,0*
20,1,$1+$1,$4,$5,$6,$7,0*
20,1,$1+$1,$6,$7,$8,$9,0*
20,1,$1+$1,$8,$9,$2,$3,0*%
G04 Aperture macros list end*
%ADD10R,1.850000X0.300000*%
%ADD11R,1.250000X0.300000*%
%ADD12R,1.850000X1.180000*%
%ADD13RoundRect,0.200000X0.275000X-0.200000X0.275000X0.200000X-0.275000X0.200000X-0.275000X-0.200000X0*%
%ADD14RoundRect,0.225000X0.250000X-0.225000X0.250000X0.225000X-0.250000X0.225000X-0.250000X-0.225000X0*%
%ADD15RoundRect,0.225000X-0.250000X0.225000X-0.250000X-0.225000X0.250000X-0.225000X0.250000X0.225000X0*%
%ADD16RoundRect,0.225000X0.225000X0.250000X-0.225000X0.250000X-0.225000X-0.250000X0.225000X-0.250000X0*%
%ADD17RoundRect,0.200000X-0.275000X0.200000X-0.275000X-0.200000X0.275000X-0.200000X0.275000X0.200000X0*%
%ADD18RoundRect,0.200000X0.200000X0.275000X-0.200000X0.275000X-0.200000X-0.275000X0.200000X-0.275000X0*%
%ADD19RoundRect,0.200000X-0.200000X-0.275000X0.200000X-0.275000X0.200000X0.275000X-0.200000X0.275000X0*%
G04 APERTURE END LIST*
D10*
%TO.C,P1*%
X141097000Y-104438000D03*
D11*
X141097000Y-104938000D03*
X141097000Y-105438000D03*
X141097000Y-105938000D03*
X141097000Y-106438000D03*
X141097000Y-106938000D03*
X141097000Y-107438000D03*
X141097000Y-107938000D03*
X141097000Y-108438000D03*
X141097000Y-108938000D03*
X141097000Y-109438000D03*
D10*
X141097000Y-109938000D03*
D12*
X141097000Y-110998000D03*
X141097000Y-103378000D03*
%TD*%
D13*
%TO.C,R16*%
X145796000Y-109409000D03*
X145796000Y-107759000D03*
%TD*%
D14*
%TO.C,C6*%
X155194000Y-104915000D03*
X155194000Y-103365000D03*
%TD*%
D13*
%TO.C,R14*%
X159639000Y-104457000D03*
X159639000Y-102807000D03*
%TD*%
D15*
%TO.C,C8*%
X145161000Y-111239000D03*
X145161000Y-112789000D03*
%TD*%
D16*
%TO.C,C4*%
X150635000Y-103340000D03*
X149085000Y-103340000D03*
%TD*%
D17*
%TO.C,R3*%
X148209000Y-111189000D03*
X148209000Y-112839000D03*
%TD*%
D13*
%TO.C,R19*%
X151638000Y-108013000D03*
X151638000Y-106363000D03*
%TD*%
D14*
%TO.C,C2*%
X163703000Y-109233000D03*
X163703000Y-107683000D03*
%TD*%
D17*
%TO.C,R1*%
X158115000Y-105855000D03*
X158115000Y-107505000D03*
%TD*%
D18*
%TO.C,R9*%
X158305000Y-108966000D03*
X156655000Y-108966000D03*
%TD*%
D15*
%TO.C,C1*%
X159639000Y-105905000D03*
X159639000Y-107455000D03*
%TD*%
%TO.C,C3*%
X163703000Y-104635000D03*
X163703000Y-106185000D03*
%TD*%
D18*
%TO.C,R4*%
X154114000Y-112903000D03*
X152464000Y-112903000D03*
%TD*%
D13*
%TO.C,R6*%
X153670000Y-109029000D03*
X153670000Y-107379000D03*
%TD*%
D17*
%TO.C,R15*%
X158115000Y-102807000D03*
X158115000Y-104457000D03*
%TD*%
D19*
%TO.C,R7*%
X152083000Y-103340000D03*
X153733000Y-103340000D03*
%TD*%
D14*
%TO.C,C7*%
X147320000Y-109359000D03*
X147320000Y-107809000D03*
%TD*%
D13*
%TO.C,R20*%
X150114000Y-108013000D03*
X150114000Y-106363000D03*
%TD*%
D17*
%TO.C,R2*%
X145796000Y-103315000D03*
X145796000Y-104965000D03*
%TD*%
D19*
%TO.C,R5*%
X157162000Y-112903000D03*
X155512000Y-112903000D03*
%TD*%
D15*
%TO.C,C9*%
X146685000Y-111239000D03*
X146685000Y-112789000D03*
%TD*%
D14*
%TO.C,C5*%
X155194000Y-108979000D03*
X155194000Y-107429000D03*
%TD*%
M02*
