%TF.GenerationSoftware,KiCad,Pcbnew,(6.0.1)*%
%TF.CreationDate,2022-01-24T11:38:00+08:00*%
%TF.ProjectId,ST-Link_v2-1,53542d4c-696e-46b5-9f76-322d312e6b69,rev?*%
%TF.SameCoordinates,Original*%
%TF.FileFunction,Copper,L1,Top*%
%TF.FilePolarity,Positive*%
%FSLAX46Y46*%
G04 Gerber Fmt 4.6, Leading zero omitted, Abs format (unit mm)*
G04 Created by KiCad (PCBNEW (6.0.1)) date 2022-01-24 11:38:00*
%MOMM*%
%LPD*%
G01*
G04 APERTURE LIST*
G04 Aperture macros list*
%AMRoundRect*
0 Rectangle with rounded corners*
0 $1 Rounding radius*
0 $2 $3 $4 $5 $6 $7 $8 $9 X,Y pos of 4 corners*
0 Add a 4 corners polygon primitive as box body*
4,1,4,$2,$3,$4,$5,$6,$7,$8,$9,$2,$3,0*
0 Add four circle primitives for the rounded corners*
1,1,$1+$1,$2,$3*
1,1,$1+$1,$4,$5*
1,1,$1+$1,$6,$7*
1,1,$1+$1,$8,$9*
0 Add four rect primitives between the rounded corners*
20,1,$1+$1,$2,$3,$4,$5,0*
20,1,$1+$1,$4,$5,$6,$7,0*
20,1,$1+$1,$6,$7,$8,$9,0*
20,1,$1+$1,$8,$9,$2,$3,0*%
G04 Aperture macros list end*
%TA.AperFunction,SMDPad,CuDef*%
%ADD10RoundRect,0.218750X0.218750X0.256250X-0.218750X0.256250X-0.218750X-0.256250X0.218750X-0.256250X0*%
%TD*%
%TA.AperFunction,SMDPad,CuDef*%
%ADD11RoundRect,0.075000X0.662500X0.075000X-0.662500X0.075000X-0.662500X-0.075000X0.662500X-0.075000X0*%
%TD*%
%TA.AperFunction,SMDPad,CuDef*%
%ADD12RoundRect,0.075000X0.075000X0.662500X-0.075000X0.662500X-0.075000X-0.662500X0.075000X-0.662500X0*%
%TD*%
%TA.AperFunction,SMDPad,CuDef*%
%ADD13RoundRect,0.218750X0.256250X-0.218750X0.256250X0.218750X-0.256250X0.218750X-0.256250X-0.218750X0*%
%TD*%
%TA.AperFunction,SMDPad,CuDef*%
%ADD14RoundRect,0.150000X0.700000X-0.150000X0.700000X0.150000X-0.700000X0.150000X-0.700000X-0.150000X0*%
%TD*%
%TA.AperFunction,SMDPad,CuDef*%
%ADD15RoundRect,0.250000X1.100000X-0.250000X1.100000X0.250000X-1.100000X0.250000X-1.100000X-0.250000X0*%
%TD*%
%TA.AperFunction,SMDPad,CuDef*%
%ADD16RoundRect,0.218750X-0.218750X-0.256250X0.218750X-0.256250X0.218750X0.256250X-0.218750X0.256250X0*%
%TD*%
%TA.AperFunction,SMDPad,CuDef*%
%ADD17RoundRect,0.200000X-0.200000X-0.275000X0.200000X-0.275000X0.200000X0.275000X-0.200000X0.275000X0*%
%TD*%
%TA.AperFunction,SMDPad,CuDef*%
%ADD18RoundRect,0.200000X0.200000X0.275000X-0.200000X0.275000X-0.200000X-0.275000X0.200000X-0.275000X0*%
%TD*%
%TA.AperFunction,ComponentPad*%
%ADD19C,1.500000*%
%TD*%
%TA.AperFunction,SMDPad,CuDef*%
%ADD20R,1.850000X0.300000*%
%TD*%
%TA.AperFunction,SMDPad,CuDef*%
%ADD21R,1.250000X0.300000*%
%TD*%
%TA.AperFunction,SMDPad,CuDef*%
%ADD22R,1.850000X1.180000*%
%TD*%
%TA.AperFunction,SMDPad,CuDef*%
%ADD23R,1.060000X0.650000*%
%TD*%
%TA.AperFunction,ViaPad*%
%ADD24C,0.508000*%
%TD*%
%TA.AperFunction,Conductor*%
%ADD25C,0.254000*%
%TD*%
%TA.AperFunction,Conductor*%
%ADD26C,0.508000*%
%TD*%
G04 APERTURE END LIST*
D10*
%TO.P,ST,1,K*%
%TO.N,GND*%
X145821500Y-103378000D03*
%TO.P,ST,2,A*%
%TO.N,Net-(D5-Pad2)*%
X144246500Y-103378000D03*
%TD*%
D11*
%TO.P,U1,1,VBAT*%
%TO.N,+3V3*%
X156943500Y-109049000D03*
%TO.P,U1,2,PC13*%
%TO.N,Net-(R9-Pad1)*%
X156943500Y-108549000D03*
%TO.P,U1,3,PC14*%
%TO.N,unconnected-(U1-Pad3)*%
X156943500Y-108049000D03*
%TO.P,U1,4,PC15*%
%TO.N,unconnected-(U1-Pad4)*%
X156943500Y-107549000D03*
%TO.P,U1,5,PD0*%
%TO.N,Net-(C2-Pad1)*%
X156943500Y-107049000D03*
%TO.P,U1,6,PD1*%
%TO.N,Net-(C3-Pad1)*%
X156943500Y-106549000D03*
%TO.P,U1,7,NRST*%
%TO.N,/NRST*%
X156943500Y-106049000D03*
%TO.P,U1,8,VSSA*%
%TO.N,GND*%
X156943500Y-105549000D03*
%TO.P,U1,9,VDDA*%
%TO.N,+3V3*%
X156943500Y-105049000D03*
%TO.P,U1,10,PA0*%
%TO.N,Net-(R14-Pad1)*%
X156943500Y-104549000D03*
%TO.P,U1,11,PA1*%
%TO.N,unconnected-(U1-Pad11)*%
X156943500Y-104049000D03*
%TO.P,U1,12,PA2*%
%TO.N,/TXD*%
X156943500Y-103549000D03*
D12*
%TO.P,U1,13,PA3*%
%TO.N,/RXD*%
X155531000Y-102136500D03*
%TO.P,U1,14,PA4*%
%TO.N,unconnected-(U1-Pad14)*%
X155031000Y-102136500D03*
%TO.P,U1,15,PA5*%
%TO.N,/JTCK*%
X154531000Y-102136500D03*
%TO.P,U1,16,PA6*%
%TO.N,unconnected-(U1-Pad16)*%
X154031000Y-102136500D03*
%TO.P,U1,17,PA7*%
%TO.N,unconnected-(U1-Pad17)*%
X153531000Y-102136500D03*
%TO.P,U1,18,PB0*%
%TO.N,unconnected-(U1-Pad18)*%
X153031000Y-102136500D03*
%TO.P,U1,19,PB1*%
%TO.N,unconnected-(U1-Pad19)*%
X152531000Y-102136500D03*
%TO.P,U1,20,PB2/BOOT1*%
%TO.N,Net-(R7-Pad1)*%
X152031000Y-102136500D03*
%TO.P,U1,21,PB10*%
%TO.N,GND*%
X151531000Y-102136500D03*
%TO.P,U1,22,PB11*%
%TO.N,unconnected-(U1-Pad22)*%
X151031000Y-102136500D03*
%TO.P,U1,23,VSS*%
%TO.N,GND*%
X150531000Y-102136500D03*
%TO.P,U1,24,VDD*%
%TO.N,+3V3*%
X150031000Y-102136500D03*
D11*
%TO.P,U1,25,PB12*%
%TO.N,Net-(R2-Pad1)*%
X148618500Y-103549000D03*
%TO.P,U1,26,PB13*%
%TO.N,/JTCK*%
X148618500Y-104049000D03*
%TO.P,U1,27,PB14*%
%TO.N,/JTMS*%
X148618500Y-104549000D03*
%TO.P,U1,28,PB15*%
%TO.N,unconnected-(U1-Pad28)*%
X148618500Y-105049000D03*
%TO.P,U1,29,PA8*%
%TO.N,unconnected-(U1-Pad29)*%
X148618500Y-105549000D03*
%TO.P,U1,30,PA9*%
%TO.N,/LED_STLINK*%
X148618500Y-106049000D03*
%TO.P,U1,31,PA10*%
%TO.N,unconnected-(U1-Pad31)*%
X148618500Y-106549000D03*
%TO.P,U1,32,PA11*%
%TO.N,/D-*%
X148618500Y-107049000D03*
%TO.P,U1,33,PA12*%
%TO.N,/D+*%
X148618500Y-107549000D03*
%TO.P,U1,34,PA13*%
%TO.N,/ST_SWDIO*%
X148618500Y-108049000D03*
%TO.P,U1,35,VSS*%
%TO.N,GND*%
X148618500Y-108549000D03*
%TO.P,U1,36,VDD*%
%TO.N,+3V3*%
X148618500Y-109049000D03*
D12*
%TO.P,U1,37,PA14*%
%TO.N,/ST_SWCLK*%
X150031000Y-110461500D03*
%TO.P,U1,38,PA15*%
%TO.N,unconnected-(U1-Pad38)*%
X150531000Y-110461500D03*
%TO.P,U1,39,PB3*%
%TO.N,+3V3*%
X151031000Y-110461500D03*
%TO.P,U1,40,PB4*%
%TO.N,unconnected-(U1-Pad40)*%
X151531000Y-110461500D03*
%TO.P,U1,41,PB5*%
%TO.N,unconnected-(U1-Pad41)*%
X152031000Y-110461500D03*
%TO.P,U1,42,PB6*%
%TO.N,unconnected-(U1-Pad42)*%
X152531000Y-110461500D03*
%TO.P,U1,43,PB7*%
%TO.N,unconnected-(U1-Pad43)*%
X153031000Y-110461500D03*
%TO.P,U1,44,BOOT0*%
%TO.N,Net-(R6-Pad1)*%
X153531000Y-110461500D03*
%TO.P,U1,45,PB8*%
%TO.N,unconnected-(U1-Pad45)*%
X154031000Y-110461500D03*
%TO.P,U1,46,PB9*%
%TO.N,unconnected-(U1-Pad46)*%
X154531000Y-110461500D03*
%TO.P,U1,47,VSS*%
%TO.N,GND*%
X155031000Y-110461500D03*
%TO.P,U1,48,VDD*%
%TO.N,+3V3*%
X155531000Y-110461500D03*
%TD*%
D10*
%TO.P,Rx,1,K*%
%TO.N,Net-(D3-Pad1)*%
X157124500Y-112903000D03*
%TO.P,Rx,2,A*%
%TO.N,+3V3*%
X155549500Y-112903000D03*
%TD*%
D13*
%TO.P,3.3,1,K*%
%TO.N,Net-(D1-Pad1)*%
X148209000Y-112801500D03*
%TO.P,3.3,2,A*%
%TO.N,+3V3*%
X148209000Y-111226500D03*
%TD*%
D14*
%TO.P,J1,1,Pin_1*%
%TO.N,+5V*%
X165790000Y-110186000D03*
%TO.P,J1,2,Pin_2*%
%TO.N,/JTCK*%
X165790000Y-108936000D03*
%TO.P,J1,3,Pin_3*%
%TO.N,/JTMS*%
X165790000Y-107686000D03*
%TO.P,J1,4,Pin_4*%
%TO.N,/TXD*%
X165790000Y-106436000D03*
%TO.P,J1,5,Pin_5*%
%TO.N,/RXD*%
X165790000Y-105186000D03*
%TO.P,J1,6,Pin_6*%
%TO.N,GND*%
X165790000Y-103936000D03*
D15*
%TO.P,J1,MP*%
%TO.N,N/C*%
X168990000Y-102086000D03*
X168990000Y-112036000D03*
%TD*%
D16*
%TO.P,Tx,2,A*%
%TO.N,+3V3*%
X154076500Y-112903000D03*
%TO.P,Tx,1,K*%
%TO.N,Net-(D2-Pad1)*%
X152501500Y-112903000D03*
%TD*%
D17*
%TO.P,R11,1*%
%TO.N,Net-(D5-Pad2)*%
X144209000Y-104902000D03*
%TO.P,R11,2*%
%TO.N,/LED_STLINK*%
X145859000Y-104902000D03*
%TD*%
D18*
%TO.P,R17,1*%
%TO.N,/D-*%
X145859000Y-106426000D03*
%TO.P,R17,2*%
%TO.N,Net-(P1-PadA7)*%
X144209000Y-106426000D03*
%TD*%
D19*
%TO.P,Y1,1,1*%
%TO.N,Net-(C3-Pad1)*%
X161417000Y-104521000D03*
%TO.P,Y1,2,2*%
%TO.N,Net-(C2-Pad1)*%
X161417000Y-109401000D03*
%TD*%
D17*
%TO.P,R22,1*%
%TO.N,Net-(P1-PadA5)*%
X144209000Y-109474000D03*
%TO.P,R22,2*%
%TO.N,GND*%
X145859000Y-109474000D03*
%TD*%
D18*
%TO.P,R18,1*%
%TO.N,/D+*%
X145859000Y-107950000D03*
%TO.P,R18,2*%
%TO.N,Net-(P1-PadA6)*%
X144209000Y-107950000D03*
%TD*%
D20*
%TO.P,P1,A1,GND*%
%TO.N,GND*%
X141097000Y-109938000D03*
D21*
%TO.P,P1,A2*%
%TO.N,N/C*%
X141097000Y-109438000D03*
%TO.P,P1,A3*%
X141097000Y-108938000D03*
%TO.P,P1,A4,VBUS*%
%TO.N,+5V*%
X141097000Y-108438000D03*
%TO.P,P1,A5,CC*%
%TO.N,Net-(P1-PadA5)*%
X141097000Y-107938000D03*
%TO.P,P1,A6,D+*%
%TO.N,Net-(P1-PadA6)*%
X141097000Y-107438000D03*
%TO.P,P1,A7,D-*%
%TO.N,Net-(P1-PadA7)*%
X141097000Y-106938000D03*
%TO.P,P1,A8*%
%TO.N,N/C*%
X141097000Y-106438000D03*
%TO.P,P1,A9,VBUS*%
%TO.N,+5V*%
X141097000Y-105938000D03*
%TO.P,P1,A10*%
%TO.N,N/C*%
X141097000Y-105438000D03*
%TO.P,P1,A11*%
X141097000Y-104938000D03*
D20*
%TO.P,P1,A12,GND*%
%TO.N,GND*%
X141097000Y-104438000D03*
D22*
%TO.P,P1,S1,SHIELD*%
X141097000Y-110998000D03*
%TO.P,P1,S2*%
%TO.N,N/C*%
X141097000Y-103378000D03*
%TD*%
D23*
%TO.P,U2,1,IN*%
%TO.N,+5V*%
X144339000Y-111226500D03*
%TO.P,U2,2,GND*%
%TO.N,GND*%
X144339000Y-112176500D03*
%TO.P,U2,3,EN*%
%TO.N,+5V*%
X144339000Y-113126500D03*
%TO.P,U2,4,NC*%
%TO.N,unconnected-(U2-Pad4)*%
X146539000Y-113126500D03*
%TO.P,U2,5,OUT*%
%TO.N,+3V3*%
X146539000Y-111226500D03*
%TD*%
D24*
%TO.N,GND*%
X160020000Y-112903000D03*
X167132000Y-112903000D03*
X165100000Y-112903000D03*
X165100000Y-101600000D03*
X162560000Y-105410000D03*
%TO.N,Net-(D2-Pad1)*%
X152527000Y-112903000D03*
%TO.N,Net-(D3-Pad1)*%
X157099000Y-112903000D03*
%TO.N,GND*%
X155194000Y-107442000D03*
X153670000Y-107442000D03*
%TO.N,/NRST*%
X158115000Y-105855000D03*
%TO.N,GND*%
X170180000Y-109220000D03*
X140970000Y-113030000D03*
X170180000Y-106680000D03*
X162560000Y-107950000D03*
X142240000Y-101600000D03*
X162560000Y-102870000D03*
X144272000Y-112141000D03*
X147320000Y-101600000D03*
X167640000Y-104140000D03*
X170180000Y-104140000D03*
X144780000Y-101600000D03*
X156337000Y-101600000D03*
X153670000Y-104648000D03*
%TO.N,+3V3*%
X155194000Y-104902000D03*
X150622000Y-103378000D03*
X147320000Y-109347000D03*
X155194000Y-108966000D03*
X146558000Y-111252000D03*
%TO.N,+5V*%
X145161000Y-111252000D03*
X143002000Y-105283000D03*
X143002000Y-110109000D03*
%TO.N,Net-(D1-Pad1)*%
X148209000Y-112776000D03*
%TO.N,/RXD*%
X167259000Y-105156000D03*
%TO.N,/TXD*%
X167259000Y-106426000D03*
%TO.N,/JTMS*%
X150114000Y-105537000D03*
X167386000Y-107696000D03*
X147193000Y-104521000D03*
%TO.N,/JTCK*%
X151638000Y-105537000D03*
X167132000Y-108966000D03*
%TO.N,Net-(R2-Pad1)*%
X147193000Y-103505000D03*
%TO.N,Net-(R6-Pad1)*%
X153670000Y-108966000D03*
%TO.N,Net-(R7-Pad1)*%
X152019000Y-103378000D03*
%TO.N,Net-(R9-Pad1)*%
X158369000Y-108966000D03*
%TO.N,Net-(R14-Pad1)*%
X158115000Y-104457000D03*
%TO.N,/D+*%
X145859000Y-107823000D03*
%TO.N,/ST_SWCLK*%
X150355193Y-109281221D03*
%TO.N,/ST_SWDIO*%
X150114000Y-108077000D03*
%TD*%
D25*
%TO.N,/RXD*%
X162874441Y-101020481D02*
X164536520Y-102682560D01*
X159705551Y-101020489D02*
X159705561Y-101020480D01*
X164536520Y-104846520D02*
X164876000Y-105186000D01*
X155900511Y-101020489D02*
X159705551Y-101020489D01*
X164876000Y-105186000D02*
X165790000Y-105186000D01*
X155531000Y-101390000D02*
X155900511Y-101020489D01*
X159705561Y-101020480D02*
X162874441Y-101020481D01*
X155531000Y-102136500D02*
X155531000Y-101390000D01*
X164536520Y-102682560D02*
X164536520Y-104846520D01*
%TO.N,/TXD*%
X164084000Y-102870000D02*
X164084000Y-106045000D01*
X162687000Y-101473000D02*
X164084000Y-102870000D01*
X164084000Y-106045000D02*
X164465000Y-106426000D01*
X159893000Y-101473000D02*
X162687000Y-101473000D01*
X165780000Y-106426000D02*
X165790000Y-106436000D01*
X157817000Y-103549000D02*
X159893000Y-101473000D01*
X156943500Y-103549000D02*
X157817000Y-103549000D01*
X164465000Y-106426000D02*
X165780000Y-106426000D01*
D26*
%TO.N,+5V*%
X165023000Y-110186000D02*
X165790000Y-110186000D01*
X161304989Y-113904011D02*
X165023000Y-110186000D01*
X142976500Y-113258500D02*
X143622011Y-113904011D01*
X143622011Y-113904011D02*
X161304989Y-113904011D01*
D25*
%TO.N,Net-(R9-Pad1)*%
X157952000Y-108549000D02*
X156943500Y-108549000D01*
X158369000Y-108966000D02*
X157952000Y-108549000D01*
%TO.N,Net-(R6-Pad1)*%
X153531000Y-109105000D02*
X153531000Y-110461500D01*
X153670000Y-108966000D02*
X153531000Y-109105000D01*
%TO.N,+3V3*%
X155277000Y-109049000D02*
X155531000Y-109049000D01*
X155194000Y-108966000D02*
X155277000Y-109049000D01*
%TO.N,/NRST*%
X157921000Y-106049000D02*
X158115000Y-105855000D01*
X156943500Y-106049000D02*
X157921000Y-106049000D01*
%TO.N,Net-(C2-Pad1)*%
X161417000Y-109401000D02*
X159065000Y-107049000D01*
X159065000Y-107049000D02*
X156943500Y-107049000D01*
%TO.N,Net-(C3-Pad1)*%
X159389000Y-106549000D02*
X161417000Y-104521000D01*
X156943500Y-106549000D02*
X159389000Y-106549000D01*
%TO.N,+3V3*%
X154813000Y-112903000D02*
X155531000Y-112903000D01*
X149313480Y-111594480D02*
X151091480Y-111594480D01*
X150622000Y-103378000D02*
X150468580Y-103378000D01*
X147618000Y-109049000D02*
X147320000Y-109347000D01*
X155531000Y-110461500D02*
X155531000Y-109049000D01*
X148945500Y-111226500D02*
X149313480Y-111594480D01*
X148618500Y-109049000D02*
X147618000Y-109049000D01*
X154076500Y-112903000D02*
X154813000Y-112903000D01*
X156943500Y-105049000D02*
X155341000Y-105049000D01*
X151091480Y-111594480D02*
X154139480Y-111594480D01*
X150468580Y-103378000D02*
X150031000Y-102940420D01*
X155341000Y-105049000D02*
X155194000Y-104902000D01*
X146558000Y-111252000D02*
X148183500Y-111252000D01*
X156943500Y-109049000D02*
X155531000Y-109049000D01*
X154813000Y-112268000D02*
X154813000Y-112903000D01*
X154139480Y-111594480D02*
X154813000Y-112268000D01*
X148183500Y-111252000D02*
X148209000Y-111226500D01*
X151031000Y-110461500D02*
X151031000Y-111534000D01*
X151031000Y-111534000D02*
X151091480Y-111594480D01*
X148209000Y-111226500D02*
X148945500Y-111226500D01*
X150031000Y-102940420D02*
X150031000Y-102136500D01*
D26*
%TO.N,+5V*%
X144339000Y-113126500D02*
X143108500Y-113126500D01*
D25*
X141961040Y-108438000D02*
X142976500Y-109453460D01*
D26*
X142976500Y-111226500D02*
X142976500Y-109633066D01*
D25*
X142347000Y-105938000D02*
X143002000Y-105283000D01*
D26*
X142976500Y-111226500D02*
X142976500Y-113258500D01*
D25*
X142976500Y-109453460D02*
X142976500Y-109633066D01*
X141097000Y-105938000D02*
X142347000Y-105938000D01*
D26*
X144339000Y-111226500D02*
X145135500Y-111226500D01*
X145135500Y-111226500D02*
X145161000Y-111252000D01*
D25*
X141097000Y-108438000D02*
X141961040Y-108438000D01*
D26*
X142976500Y-111226500D02*
X144339000Y-111226500D01*
D25*
X143108500Y-113126500D02*
X142976500Y-113258500D01*
%TO.N,Net-(D5-Pad2)*%
X144209000Y-104902000D02*
X144209000Y-103415500D01*
X144209000Y-103415500D02*
X144246500Y-103378000D01*
%TO.N,/RXD*%
X165820000Y-105156000D02*
X165790000Y-105186000D01*
X167259000Y-105156000D02*
X165820000Y-105156000D01*
%TO.N,/TXD*%
X165800000Y-106426000D02*
X165790000Y-106436000D01*
X167259000Y-106426000D02*
X165800000Y-106426000D01*
%TO.N,/JTMS*%
X167386000Y-107696000D02*
X167376000Y-107686000D01*
X147193000Y-104521000D02*
X147221000Y-104549000D01*
X150114000Y-105240580D02*
X149422420Y-104549000D01*
X149422420Y-104549000D02*
X148618500Y-104549000D01*
X150114000Y-105537000D02*
X150114000Y-105240580D01*
X147221000Y-104549000D02*
X148618500Y-104549000D01*
X167376000Y-107686000D02*
X165790000Y-107686000D01*
%TO.N,/JTCK*%
X154531000Y-102940420D02*
X153046071Y-104425349D01*
X151638000Y-105537000D02*
X151638000Y-104456698D01*
X153046071Y-104425349D02*
X151669349Y-104425349D01*
X154531000Y-102136500D02*
X154531000Y-102940420D01*
X149646960Y-104049000D02*
X150023308Y-104425349D01*
X148618500Y-104049000D02*
X149646960Y-104049000D01*
X151638000Y-104456698D02*
X151669349Y-104425349D01*
X167102000Y-108936000D02*
X167132000Y-108966000D01*
X165790000Y-108936000D02*
X167102000Y-108936000D01*
X151669349Y-104425349D02*
X150902188Y-104425349D01*
X150023308Y-104425349D02*
X150902188Y-104425349D01*
%TO.N,Net-(P1-PadA7)*%
X141097000Y-106938000D02*
X142617000Y-106938000D01*
X142617000Y-106938000D02*
X143129000Y-106426000D01*
X143129000Y-106426000D02*
X144209000Y-106426000D01*
%TO.N,Net-(P1-PadA6)*%
X144209000Y-107950000D02*
X143129000Y-107950000D01*
X143129000Y-107950000D02*
X142617000Y-107438000D01*
X142617000Y-107438000D02*
X141097000Y-107438000D01*
%TO.N,Net-(P1-PadA5)*%
X142101000Y-107938000D02*
X143637000Y-109474000D01*
X141097000Y-107938000D02*
X142101000Y-107938000D01*
X143637000Y-109474000D02*
X144209000Y-109474000D01*
%TO.N,Net-(R2-Pad1)*%
X147193000Y-103505000D02*
X147237000Y-103549000D01*
X147237000Y-103549000D02*
X148618500Y-103549000D01*
%TO.N,Net-(R7-Pad1)*%
X152019000Y-103378000D02*
X152031000Y-103366000D01*
X152031000Y-103366000D02*
X152031000Y-102136500D01*
%TO.N,/LED_STLINK*%
X148618500Y-106049000D02*
X147705000Y-106049000D01*
X147705000Y-106049000D02*
X146558000Y-104902000D01*
X146558000Y-104902000D02*
X145859000Y-104902000D01*
%TO.N,Net-(R14-Pad1)*%
X156943500Y-104549000D02*
X158023000Y-104549000D01*
X158023000Y-104549000D02*
X158115000Y-104457000D01*
%TO.N,/D+*%
X146558000Y-107950000D02*
X146959000Y-107549000D01*
X146959000Y-107549000D02*
X148618500Y-107549000D01*
X145859000Y-107950000D02*
X146558000Y-107950000D01*
%TO.N,/D-*%
X147054000Y-107049000D02*
X146431000Y-106426000D01*
X146431000Y-106426000D02*
X145859000Y-106426000D01*
X148618500Y-107049000D02*
X147054000Y-107049000D01*
%TO.N,/ST_SWCLK*%
X150355193Y-109281221D02*
X150031000Y-109605414D01*
X150031000Y-109605414D02*
X150031000Y-110461500D01*
%TO.N,/ST_SWDIO*%
X150086000Y-108049000D02*
X148618500Y-108049000D01*
X150114000Y-108077000D02*
X150086000Y-108049000D01*
%TD*%
%TA.AperFunction,Conductor*%
%TO.N,GND*%
G36*
X142084647Y-109046737D02*
G01*
X142131826Y-109076466D01*
X142488443Y-109433083D01*
X142522469Y-109495395D01*
X142520112Y-109546227D01*
X142522868Y-109546764D01*
X142521495Y-109553807D01*
X142519329Y-109560657D01*
X142518800Y-109567378D01*
X142518800Y-111159624D01*
X142517433Y-111171579D01*
X142517923Y-111171618D01*
X142517184Y-111181007D01*
X142515057Y-111190184D01*
X142515722Y-111199580D01*
X142515722Y-111199583D01*
X142518485Y-111238602D01*
X142518800Y-111247501D01*
X142518800Y-113223852D01*
X142517927Y-113238662D01*
X142513858Y-113273040D01*
X142515550Y-113282304D01*
X142515550Y-113282307D01*
X142524575Y-113331724D01*
X142525225Y-113335626D01*
X142534092Y-113394602D01*
X142537267Y-113401214D01*
X142538585Y-113408431D01*
X142542927Y-113416789D01*
X142542927Y-113416790D01*
X142566085Y-113461371D01*
X142567854Y-113464912D01*
X142582419Y-113495243D01*
X142593669Y-113518672D01*
X142598575Y-113523979D01*
X142598717Y-113524189D01*
X142602030Y-113530568D01*
X142606409Y-113535694D01*
X142644270Y-113573555D01*
X142647699Y-113577121D01*
X142680701Y-113612823D01*
X142680704Y-113612825D01*
X142687094Y-113619738D01*
X142693531Y-113623477D01*
X142699868Y-113629153D01*
X143079420Y-114008705D01*
X143113446Y-114071017D01*
X143108381Y-114141832D01*
X143065834Y-114198668D01*
X142999314Y-114223479D01*
X142990325Y-114223800D01*
X141261391Y-114223800D01*
X141243449Y-114221763D01*
X141238192Y-114221754D01*
X141224364Y-114218574D01*
X141210523Y-114221706D01*
X141206564Y-114221699D01*
X141195308Y-114221175D01*
X141120871Y-114214366D01*
X141064966Y-114209252D01*
X141042390Y-114205087D01*
X140899729Y-114165040D01*
X140878284Y-114156848D01*
X140745260Y-114091583D01*
X140725657Y-114079636D01*
X140632183Y-114010249D01*
X140606676Y-113991314D01*
X140589569Y-113976011D01*
X140488588Y-113867569D01*
X140474545Y-113849421D01*
X140394917Y-113724459D01*
X140384395Y-113704057D01*
X140350238Y-113619738D01*
X140328760Y-113566719D01*
X140322116Y-113544747D01*
X140295667Y-113415885D01*
X140293849Y-113404323D01*
X140293615Y-113402192D01*
X140295241Y-113388091D01*
X140291325Y-113376798D01*
X140291108Y-113372983D01*
X140276993Y-109910947D01*
X140296717Y-109842745D01*
X140350183Y-109796034D01*
X140420415Y-109785643D01*
X140427577Y-109786854D01*
X140451936Y-109791700D01*
X141742064Y-109791700D01*
X141801480Y-109779881D01*
X141834839Y-109757592D01*
X141858545Y-109741752D01*
X141868860Y-109734860D01*
X141898094Y-109691107D01*
X141906987Y-109677798D01*
X141906987Y-109677797D01*
X141913881Y-109667480D01*
X141925700Y-109608064D01*
X141925700Y-109267936D01*
X141914689Y-109212582D01*
X141914689Y-109163421D01*
X141919152Y-109140982D01*
X141952058Y-109078072D01*
X142013752Y-109042939D01*
X142084647Y-109046737D01*
G37*
%TD.AperFunction*%
%TA.AperFunction,Conductor*%
G36*
X168807601Y-100935908D02*
G01*
X169634551Y-100937252D01*
X169652906Y-100939350D01*
X169657808Y-100939359D01*
X169671636Y-100942538D01*
X169685473Y-100939407D01*
X169690770Y-100939416D01*
X169701518Y-100939894D01*
X169824218Y-100950630D01*
X169845838Y-100954442D01*
X169982783Y-100991136D01*
X170003422Y-100998648D01*
X170131910Y-101058563D01*
X170150930Y-101069545D01*
X170267065Y-101150863D01*
X170283890Y-101164981D01*
X170293258Y-101174349D01*
X170327284Y-101236661D01*
X170322219Y-101307476D01*
X170279672Y-101364312D01*
X170213152Y-101389123D01*
X170180023Y-101386723D01*
X170175975Y-101385302D01*
X170144217Y-101382300D01*
X168990779Y-101382300D01*
X167835784Y-101382301D01*
X167832836Y-101382580D01*
X167832827Y-101382580D01*
X167811675Y-101384579D01*
X167811674Y-101384579D01*
X167804025Y-101385302D01*
X167796779Y-101387847D01*
X167796777Y-101387847D01*
X167752772Y-101403301D01*
X167675302Y-101430506D01*
X167667732Y-101436098D01*
X167667729Y-101436099D01*
X167628077Y-101465387D01*
X167565562Y-101511562D01*
X167559970Y-101519133D01*
X167490099Y-101613729D01*
X167490098Y-101613732D01*
X167484506Y-101621302D01*
X167439302Y-101750025D01*
X167436300Y-101781783D01*
X167436301Y-102390216D01*
X167439302Y-102421975D01*
X167441847Y-102429221D01*
X167441847Y-102429223D01*
X167445109Y-102438512D01*
X167484506Y-102550698D01*
X167490098Y-102558268D01*
X167490099Y-102558271D01*
X167532913Y-102616235D01*
X167565562Y-102660438D01*
X167573133Y-102666030D01*
X167667729Y-102735901D01*
X167667732Y-102735902D01*
X167675302Y-102741494D01*
X167804025Y-102786698D01*
X167811671Y-102787421D01*
X167811672Y-102787421D01*
X167818217Y-102788040D01*
X167835783Y-102789700D01*
X168989221Y-102789700D01*
X170144216Y-102789699D01*
X170147164Y-102789420D01*
X170147173Y-102789420D01*
X170168325Y-102787421D01*
X170168326Y-102787421D01*
X170175975Y-102786698D01*
X170183221Y-102784153D01*
X170183223Y-102784153D01*
X170246678Y-102761869D01*
X170304698Y-102741494D01*
X170404615Y-102667693D01*
X170471295Y-102643310D01*
X170540570Y-102658847D01*
X170590449Y-102709370D01*
X170605473Y-102769934D01*
X170545255Y-111273546D01*
X170545003Y-111309184D01*
X170524519Y-111377162D01*
X170470535Y-111423273D01*
X170400192Y-111432879D01*
X170344146Y-111409643D01*
X170312271Y-111386099D01*
X170312268Y-111386098D01*
X170304698Y-111380506D01*
X170175975Y-111335302D01*
X170168329Y-111334579D01*
X170168328Y-111334579D01*
X170161783Y-111333960D01*
X170144217Y-111332300D01*
X168990779Y-111332300D01*
X167835784Y-111332301D01*
X167832836Y-111332580D01*
X167832827Y-111332580D01*
X167811675Y-111334579D01*
X167811674Y-111334579D01*
X167804025Y-111335302D01*
X167796779Y-111337847D01*
X167796777Y-111337847D01*
X167763791Y-111349431D01*
X167675302Y-111380506D01*
X167667732Y-111386098D01*
X167667729Y-111386099D01*
X167604395Y-111432879D01*
X167565562Y-111461562D01*
X167559970Y-111469133D01*
X167490099Y-111563729D01*
X167490098Y-111563732D01*
X167484506Y-111571302D01*
X167439302Y-111700025D01*
X167438579Y-111707671D01*
X167438579Y-111707672D01*
X167438394Y-111709634D01*
X167436300Y-111731783D01*
X167436301Y-112340216D01*
X167439302Y-112371975D01*
X167441847Y-112379221D01*
X167441847Y-112379223D01*
X167445047Y-112388334D01*
X167484506Y-112500698D01*
X167490098Y-112508268D01*
X167490099Y-112508271D01*
X167524212Y-112554455D01*
X167565562Y-112610438D01*
X167573133Y-112616030D01*
X167667729Y-112685901D01*
X167667732Y-112685902D01*
X167675302Y-112691494D01*
X167804025Y-112736698D01*
X167811671Y-112737421D01*
X167811672Y-112737421D01*
X167818217Y-112738040D01*
X167835783Y-112739700D01*
X168989221Y-112739700D01*
X170144216Y-112739699D01*
X170147164Y-112739420D01*
X170147173Y-112739420D01*
X170168325Y-112737421D01*
X170168326Y-112737421D01*
X170175975Y-112736698D01*
X170183221Y-112734153D01*
X170183223Y-112734153D01*
X170227228Y-112718699D01*
X170304698Y-112691494D01*
X170312268Y-112685903D01*
X170312275Y-112685899D01*
X170333786Y-112670010D01*
X170400464Y-112645627D01*
X170469740Y-112661164D01*
X170519618Y-112711687D01*
X170534642Y-112772253D01*
X170531285Y-113246348D01*
X170528984Y-113266000D01*
X170528977Y-113269806D01*
X170525797Y-113283636D01*
X170528929Y-113297477D01*
X170528920Y-113302768D01*
X170528441Y-113313519D01*
X170521319Y-113394912D01*
X170517706Y-113436210D01*
X170513893Y-113457838D01*
X170477199Y-113594783D01*
X170469687Y-113615422D01*
X170409772Y-113743910D01*
X170398790Y-113762930D01*
X170317472Y-113879065D01*
X170303354Y-113895890D01*
X170203113Y-113996131D01*
X170186288Y-114010249D01*
X170070153Y-114091567D01*
X170051133Y-114102549D01*
X169922645Y-114162464D01*
X169902006Y-114169976D01*
X169765061Y-114206670D01*
X169743432Y-114210483D01*
X169650958Y-114218574D01*
X169621231Y-114221175D01*
X169620019Y-114221281D01*
X169608814Y-114221761D01*
X169605418Y-114221755D01*
X169591587Y-114218574D01*
X169577746Y-114221706D01*
X169573228Y-114221698D01*
X169554414Y-114223800D01*
X161936675Y-114223800D01*
X161868554Y-114203798D01*
X161822061Y-114150142D01*
X161811957Y-114079868D01*
X161841451Y-114015288D01*
X161847580Y-114008705D01*
X165129680Y-110726605D01*
X165191992Y-110692579D01*
X165218775Y-110689700D01*
X166413416Y-110689699D01*
X166523526Y-110689699D01*
X166528084Y-110689028D01*
X166528086Y-110689028D01*
X166583356Y-110680893D01*
X166593045Y-110679467D01*
X166698744Y-110627571D01*
X166781934Y-110544235D01*
X166833646Y-110438445D01*
X166843700Y-110369527D01*
X166843699Y-110002474D01*
X166833467Y-109932955D01*
X166781571Y-109827256D01*
X166698235Y-109744066D01*
X166592445Y-109692354D01*
X166582768Y-109690942D01*
X166582767Y-109690942D01*
X166562743Y-109688021D01*
X166546591Y-109685665D01*
X166482071Y-109656040D01*
X166443810Y-109596235D01*
X166443956Y-109525239D01*
X166482462Y-109465591D01*
X166546431Y-109436328D01*
X166583357Y-109430893D01*
X166583358Y-109430893D01*
X166593045Y-109429467D01*
X166698744Y-109377571D01*
X166715771Y-109360514D01*
X166778053Y-109326434D01*
X166848874Y-109331437D01*
X166874764Y-109344644D01*
X166925455Y-109378387D01*
X166932929Y-109383362D01*
X166993469Y-109402276D01*
X167049501Y-109419782D01*
X167049502Y-109419782D01*
X167058070Y-109422459D01*
X167122505Y-109423640D01*
X167180178Y-109424697D01*
X167180181Y-109424697D01*
X167189154Y-109424861D01*
X167230547Y-109413576D01*
X167306982Y-109392738D01*
X167306985Y-109392737D01*
X167315644Y-109390376D01*
X167323296Y-109385678D01*
X167419719Y-109326475D01*
X167419722Y-109326472D01*
X167427371Y-109321776D01*
X167453946Y-109292417D01*
X167503174Y-109238030D01*
X167515353Y-109224575D01*
X167521164Y-109212582D01*
X167568604Y-109114664D01*
X167568604Y-109114663D01*
X167572517Y-109106587D01*
X167594269Y-108977298D01*
X167594407Y-108966000D01*
X167583408Y-108889194D01*
X167577094Y-108845104D01*
X167577093Y-108845101D01*
X167575821Y-108836218D01*
X167570975Y-108825559D01*
X167525273Y-108725043D01*
X167525271Y-108725040D01*
X167521556Y-108716869D01*
X167435975Y-108617547D01*
X167385851Y-108585058D01*
X167333489Y-108551118D01*
X167333487Y-108551117D01*
X167325958Y-108546237D01*
X167200348Y-108508672D01*
X167191372Y-108508617D01*
X167191371Y-108508617D01*
X167136959Y-108508285D01*
X167069244Y-108507871D01*
X166943185Y-108543899D01*
X166917566Y-108560063D01*
X166908751Y-108565625D01*
X166840466Y-108585058D01*
X166772514Y-108564488D01*
X166752500Y-108548235D01*
X166705607Y-108501424D01*
X166705603Y-108501421D01*
X166698235Y-108494066D01*
X166686272Y-108488218D01*
X166636889Y-108464079D01*
X166592445Y-108442354D01*
X166582768Y-108440942D01*
X166582767Y-108440942D01*
X166567769Y-108438754D01*
X166546591Y-108435665D01*
X166482071Y-108406040D01*
X166443810Y-108346235D01*
X166443956Y-108275239D01*
X166482462Y-108215591D01*
X166546431Y-108186328D01*
X166583357Y-108180893D01*
X166583358Y-108180893D01*
X166593045Y-108179467D01*
X166698744Y-108127571D01*
X166744375Y-108081860D01*
X166772504Y-108053682D01*
X166834786Y-108019603D01*
X166861677Y-108016700D01*
X167004729Y-108016700D01*
X167072850Y-108036702D01*
X167077205Y-108040016D01*
X167077791Y-108040713D01*
X167080427Y-108042468D01*
X167080434Y-108042473D01*
X167125067Y-108072183D01*
X167186929Y-108113362D01*
X167247101Y-108132161D01*
X167303501Y-108149782D01*
X167303502Y-108149782D01*
X167312070Y-108152459D01*
X167376505Y-108153640D01*
X167434178Y-108154697D01*
X167434181Y-108154697D01*
X167443154Y-108154861D01*
X167484547Y-108143576D01*
X167560982Y-108122738D01*
X167560985Y-108122737D01*
X167569644Y-108120376D01*
X167577296Y-108115678D01*
X167673719Y-108056475D01*
X167673722Y-108056472D01*
X167681371Y-108051776D01*
X167695016Y-108036702D01*
X167763328Y-107961231D01*
X167769353Y-107954575D01*
X167778201Y-107936314D01*
X167822604Y-107844664D01*
X167822604Y-107844663D01*
X167826517Y-107836587D01*
X167848269Y-107707298D01*
X167848407Y-107696000D01*
X167837369Y-107618926D01*
X167831094Y-107575104D01*
X167831093Y-107575101D01*
X167829821Y-107566218D01*
X167800838Y-107502473D01*
X167779273Y-107455043D01*
X167779271Y-107455040D01*
X167775556Y-107446869D01*
X167689975Y-107347547D01*
X167671077Y-107335298D01*
X167587489Y-107281118D01*
X167587487Y-107281117D01*
X167579958Y-107276237D01*
X167454348Y-107238672D01*
X167445372Y-107238617D01*
X167445371Y-107238617D01*
X167390959Y-107238285D01*
X167323244Y-107237871D01*
X167197185Y-107273899D01*
X167134567Y-107313408D01*
X167098979Y-107335862D01*
X167031744Y-107355300D01*
X166861791Y-107355300D01*
X166793670Y-107335298D01*
X166772774Y-107318474D01*
X166705604Y-107251422D01*
X166698235Y-107244066D01*
X166592445Y-107192354D01*
X166582768Y-107190942D01*
X166582767Y-107190942D01*
X166562599Y-107188000D01*
X166546591Y-107185665D01*
X166482071Y-107156040D01*
X166443810Y-107096235D01*
X166443956Y-107025239D01*
X166482462Y-106965591D01*
X166546431Y-106936328D01*
X166583357Y-106930893D01*
X166583358Y-106930893D01*
X166593045Y-106929467D01*
X166698744Y-106877571D01*
X166781934Y-106794235D01*
X166784780Y-106797076D01*
X166824802Y-106765674D01*
X166871502Y-106756700D01*
X166891638Y-106756700D01*
X166961457Y-106777813D01*
X167059929Y-106843362D01*
X167145832Y-106870200D01*
X167176501Y-106879782D01*
X167176502Y-106879782D01*
X167185070Y-106882459D01*
X167249505Y-106883640D01*
X167307178Y-106884697D01*
X167307181Y-106884697D01*
X167316154Y-106884861D01*
X167390651Y-106864551D01*
X167433982Y-106852738D01*
X167433985Y-106852737D01*
X167442644Y-106850376D01*
X167454068Y-106843362D01*
X167546719Y-106786475D01*
X167546722Y-106786472D01*
X167554371Y-106781776D01*
X167562653Y-106772627D01*
X167629889Y-106698345D01*
X167642353Y-106684575D01*
X167647093Y-106674793D01*
X167695604Y-106574664D01*
X167695604Y-106574663D01*
X167699517Y-106566587D01*
X167721269Y-106437298D01*
X167721407Y-106426000D01*
X167712537Y-106364060D01*
X167704094Y-106305104D01*
X167704093Y-106305101D01*
X167702821Y-106296218D01*
X167697535Y-106284592D01*
X167652273Y-106185043D01*
X167652271Y-106185040D01*
X167648556Y-106176869D01*
X167574977Y-106091476D01*
X167568836Y-106084349D01*
X167562975Y-106077547D01*
X167490479Y-106030557D01*
X167460489Y-106011118D01*
X167460487Y-106011117D01*
X167452958Y-106006237D01*
X167327348Y-105968672D01*
X167318372Y-105968617D01*
X167318371Y-105968617D01*
X167263959Y-105968285D01*
X167196244Y-105967871D01*
X167070185Y-106003899D01*
X167062598Y-106008686D01*
X167062596Y-106008687D01*
X166983814Y-106058395D01*
X166959305Y-106073859D01*
X166957720Y-106071348D01*
X166906526Y-106094174D01*
X166889716Y-106095300D01*
X166851773Y-106095300D01*
X166783652Y-106075298D01*
X166762756Y-106058474D01*
X166741607Y-106037362D01*
X166698235Y-105994066D01*
X166592445Y-105942354D01*
X166582768Y-105940942D01*
X166582767Y-105940942D01*
X166567769Y-105938754D01*
X166546591Y-105935665D01*
X166482071Y-105906040D01*
X166443810Y-105846235D01*
X166443956Y-105775239D01*
X166482462Y-105715591D01*
X166546431Y-105686328D01*
X166583357Y-105680893D01*
X166583358Y-105680893D01*
X166593045Y-105679467D01*
X166698744Y-105627571D01*
X166760480Y-105565727D01*
X166774576Y-105551606D01*
X166781934Y-105544235D01*
X166784884Y-105538200D01*
X166839033Y-105495688D01*
X166885768Y-105486700D01*
X166891638Y-105486700D01*
X166961457Y-105507813D01*
X167059929Y-105573362D01*
X167138393Y-105597876D01*
X167176501Y-105609782D01*
X167176502Y-105609782D01*
X167185070Y-105612459D01*
X167249505Y-105613640D01*
X167307178Y-105614697D01*
X167307181Y-105614697D01*
X167316154Y-105614861D01*
X167366526Y-105601128D01*
X167433982Y-105582738D01*
X167433985Y-105582737D01*
X167442644Y-105580376D01*
X167458900Y-105570395D01*
X167546719Y-105516475D01*
X167546722Y-105516472D01*
X167554371Y-105511776D01*
X167562443Y-105502859D01*
X167616408Y-105443239D01*
X167642353Y-105414575D01*
X167648107Y-105402700D01*
X167695604Y-105304664D01*
X167695604Y-105304663D01*
X167699517Y-105296587D01*
X167721269Y-105167298D01*
X167721407Y-105156000D01*
X167710246Y-105078066D01*
X167704094Y-105035104D01*
X167704093Y-105035101D01*
X167702821Y-105026218D01*
X167690927Y-105000058D01*
X167652273Y-104915043D01*
X167652271Y-104915040D01*
X167648556Y-104906869D01*
X167577302Y-104824174D01*
X167568836Y-104814349D01*
X167562975Y-104807547D01*
X167513806Y-104775677D01*
X167460489Y-104741118D01*
X167460487Y-104741117D01*
X167452958Y-104736237D01*
X167327348Y-104698672D01*
X167318372Y-104698617D01*
X167318371Y-104698617D01*
X167263959Y-104698285D01*
X167196244Y-104697871D01*
X167070185Y-104733899D01*
X167062598Y-104738686D01*
X167062596Y-104738687D01*
X167006434Y-104774123D01*
X166959305Y-104803859D01*
X166957720Y-104801348D01*
X166906526Y-104824174D01*
X166889716Y-104825300D01*
X166831738Y-104825300D01*
X166763617Y-104805298D01*
X166742721Y-104788474D01*
X166705604Y-104751422D01*
X166698235Y-104744066D01*
X166684930Y-104737562D01*
X166653566Y-104722231D01*
X166592445Y-104692354D01*
X166582770Y-104690943D01*
X166582768Y-104690942D01*
X166528054Y-104682960D01*
X166528048Y-104682960D01*
X166523527Y-104682300D01*
X165792876Y-104682300D01*
X165056474Y-104682301D01*
X165011566Y-104688911D01*
X164941261Y-104679042D01*
X164887450Y-104632729D01*
X164867220Y-104564254D01*
X164867220Y-102702509D01*
X164867699Y-102691528D01*
X164870084Y-102664269D01*
X164870084Y-102664268D01*
X164871044Y-102653293D01*
X164861111Y-102616221D01*
X164858735Y-102605503D01*
X164857081Y-102596119D01*
X164855209Y-102585507D01*
X164853985Y-102578563D01*
X164853985Y-102578562D01*
X164852071Y-102567709D01*
X164846560Y-102558164D01*
X164845289Y-102554671D01*
X164843714Y-102551293D01*
X164840860Y-102540644D01*
X164834536Y-102531613D01*
X164834535Y-102531610D01*
X164818847Y-102509205D01*
X164812941Y-102499935D01*
X164799270Y-102476256D01*
X164799269Y-102476255D01*
X164793759Y-102466711D01*
X164764360Y-102442043D01*
X164756258Y-102434617D01*
X163464106Y-101142465D01*
X163430080Y-101080153D01*
X163435145Y-101009338D01*
X163477692Y-100952502D01*
X163544212Y-100927691D01*
X163553394Y-100927370D01*
X168807601Y-100935908D01*
G37*
%TD.AperFunction*%
%TA.AperFunction,Conductor*%
G36*
X145746129Y-111416449D02*
G01*
X145793270Y-111469536D01*
X145805300Y-111523266D01*
X145805300Y-111571564D01*
X145817119Y-111630980D01*
X145862140Y-111698360D01*
X145890639Y-111717402D01*
X145916597Y-111734746D01*
X145929520Y-111743381D01*
X145988936Y-111755200D01*
X147089064Y-111755200D01*
X147148480Y-111743381D01*
X147161404Y-111734746D01*
X147187361Y-111717402D01*
X147215860Y-111698360D01*
X147222752Y-111688045D01*
X147222754Y-111688043D01*
X147255723Y-111638700D01*
X147310199Y-111593171D01*
X147360489Y-111582700D01*
X147471444Y-111582700D01*
X147539565Y-111602702D01*
X147583711Y-111651497D01*
X147606720Y-111696655D01*
X147701345Y-111791280D01*
X147820578Y-111852032D01*
X147830367Y-111853582D01*
X147830369Y-111853583D01*
X147853403Y-111857231D01*
X147919502Y-111867700D01*
X148498498Y-111867700D01*
X148564597Y-111857231D01*
X148587631Y-111853583D01*
X148587633Y-111853582D01*
X148597422Y-111852032D01*
X148716655Y-111791280D01*
X148790533Y-111717402D01*
X148852846Y-111683377D01*
X148923661Y-111688443D01*
X148968723Y-111717403D01*
X149065532Y-111814212D01*
X149072958Y-111822316D01*
X149090543Y-111843273D01*
X149090546Y-111843276D01*
X149097631Y-111851719D01*
X149107178Y-111857231D01*
X149130863Y-111870906D01*
X149140119Y-111876802D01*
X149171563Y-111898820D01*
X149182215Y-111901674D01*
X149185594Y-111903250D01*
X149189083Y-111904520D01*
X149198629Y-111910031D01*
X149236425Y-111916696D01*
X149247141Y-111919071D01*
X149284213Y-111929004D01*
X149295188Y-111928044D01*
X149295189Y-111928044D01*
X149322448Y-111925659D01*
X149333429Y-111925180D01*
X151034972Y-111925180D01*
X151045957Y-111925660D01*
X151051564Y-111926151D01*
X151062213Y-111929004D01*
X151099605Y-111925733D01*
X151100448Y-111925659D01*
X151111429Y-111925180D01*
X153950310Y-111925180D01*
X154018431Y-111945182D01*
X154039405Y-111962085D01*
X154086525Y-112009205D01*
X154120551Y-112071517D01*
X154115486Y-112142332D01*
X154072939Y-112199168D01*
X154006419Y-112223979D01*
X153997430Y-112224300D01*
X153824502Y-112224300D01*
X153764155Y-112233858D01*
X153735369Y-112238417D01*
X153735367Y-112238418D01*
X153725578Y-112239968D01*
X153606345Y-112300720D01*
X153511720Y-112395345D01*
X153450968Y-112514578D01*
X153435300Y-112613502D01*
X153435300Y-113192498D01*
X153449908Y-113284728D01*
X153450968Y-113291422D01*
X153449628Y-113291634D01*
X153451361Y-113352344D01*
X153414698Y-113413141D01*
X153350985Y-113444466D01*
X153329501Y-113446311D01*
X153248499Y-113446311D01*
X153180378Y-113426309D01*
X153133885Y-113372653D01*
X153123781Y-113302379D01*
X153125739Y-113293960D01*
X153127032Y-113291422D01*
X153129944Y-113273040D01*
X153137734Y-113223852D01*
X153142700Y-113192498D01*
X153142700Y-112613502D01*
X153127032Y-112514578D01*
X153066280Y-112395345D01*
X152971655Y-112300720D01*
X152852422Y-112239968D01*
X152842633Y-112238418D01*
X152842631Y-112238417D01*
X152813845Y-112233858D01*
X152753498Y-112224300D01*
X152249502Y-112224300D01*
X152189155Y-112233858D01*
X152160369Y-112238417D01*
X152160367Y-112238418D01*
X152150578Y-112239968D01*
X152031345Y-112300720D01*
X151936720Y-112395345D01*
X151875968Y-112514578D01*
X151860300Y-112613502D01*
X151860300Y-113192498D01*
X151874908Y-113284728D01*
X151875968Y-113291422D01*
X151874628Y-113291634D01*
X151876361Y-113352344D01*
X151839698Y-113413141D01*
X151775985Y-113444466D01*
X151754501Y-113446311D01*
X148927902Y-113446311D01*
X148859781Y-113426309D01*
X148813288Y-113372653D01*
X148803184Y-113302379D01*
X148815635Y-113263108D01*
X148867531Y-113161255D01*
X148872032Y-113152422D01*
X148887700Y-113053498D01*
X148887700Y-112549502D01*
X148872032Y-112450578D01*
X148811280Y-112331345D01*
X148716655Y-112236720D01*
X148597422Y-112175968D01*
X148587633Y-112174418D01*
X148587631Y-112174417D01*
X148558845Y-112169858D01*
X148498498Y-112160300D01*
X147919502Y-112160300D01*
X147859155Y-112169858D01*
X147830369Y-112174417D01*
X147830367Y-112174418D01*
X147820578Y-112175968D01*
X147701345Y-112236720D01*
X147606720Y-112331345D01*
X147545968Y-112450578D01*
X147530300Y-112549502D01*
X147530300Y-113053498D01*
X147545968Y-113152422D01*
X147550469Y-113161255D01*
X147602365Y-113263108D01*
X147615469Y-113332885D01*
X147588769Y-113398670D01*
X147530741Y-113439576D01*
X147490098Y-113446311D01*
X147398700Y-113446311D01*
X147330579Y-113426309D01*
X147284086Y-113372653D01*
X147272700Y-113320311D01*
X147272700Y-112781436D01*
X147260881Y-112722020D01*
X147215860Y-112654640D01*
X147148480Y-112609619D01*
X147089064Y-112597800D01*
X145988936Y-112597800D01*
X145929520Y-112609619D01*
X145862140Y-112654640D01*
X145817119Y-112722020D01*
X145805300Y-112781436D01*
X145805300Y-113320311D01*
X145785298Y-113388432D01*
X145731642Y-113434925D01*
X145679300Y-113446311D01*
X145198700Y-113446311D01*
X145130579Y-113426309D01*
X145084086Y-113372653D01*
X145072700Y-113320311D01*
X145072700Y-112781436D01*
X145060881Y-112722020D01*
X145015860Y-112654640D01*
X144948480Y-112609619D01*
X144889064Y-112597800D01*
X143788936Y-112597800D01*
X143729520Y-112609619D01*
X143719203Y-112616513D01*
X143719202Y-112616513D01*
X143672727Y-112647566D01*
X143602726Y-112668800D01*
X143560200Y-112668800D01*
X143492079Y-112648798D01*
X143445586Y-112595142D01*
X143434200Y-112542800D01*
X143434200Y-111810200D01*
X143454202Y-111742079D01*
X143507858Y-111695586D01*
X143560200Y-111684200D01*
X143602726Y-111684200D01*
X143672727Y-111705434D01*
X143716597Y-111734746D01*
X143729520Y-111743381D01*
X143788936Y-111755200D01*
X144889064Y-111755200D01*
X144948480Y-111743381D01*
X144958801Y-111736485D01*
X144977902Y-111723723D01*
X145045654Y-111702508D01*
X145067809Y-111704403D01*
X145074267Y-111706671D01*
X145082365Y-111706989D01*
X145087070Y-111708459D01*
X145131181Y-111709267D01*
X145147049Y-111709558D01*
X145149688Y-111709634D01*
X145193635Y-111711361D01*
X145211793Y-111712074D01*
X145216483Y-111710830D01*
X145218154Y-111710861D01*
X145280895Y-111693756D01*
X145281676Y-111693547D01*
X145335720Y-111679217D01*
X145335726Y-111679214D01*
X145344828Y-111676801D01*
X145352816Y-111671819D01*
X145352821Y-111671817D01*
X145400102Y-111642329D01*
X145400851Y-111641866D01*
X145451483Y-111610778D01*
X145451486Y-111610775D01*
X145456371Y-111607776D01*
X145457495Y-111606535D01*
X145461610Y-111603968D01*
X145467781Y-111596857D01*
X145467783Y-111596855D01*
X145502349Y-111557022D01*
X145504097Y-111555050D01*
X145525615Y-111531277D01*
X145544353Y-111510575D01*
X145546502Y-111506140D01*
X145551814Y-111500018D01*
X145564060Y-111472318D01*
X145609897Y-111418103D01*
X145677770Y-111397275D01*
X145746129Y-111416449D01*
G37*
%TD.AperFunction*%
%TA.AperFunction,Conductor*%
G36*
X141190245Y-100890977D02*
G01*
X141192154Y-100891146D01*
X141205655Y-100895506D01*
X141229123Y-100892291D01*
X141246426Y-100891125D01*
X148383034Y-100902721D01*
X155235480Y-100913855D01*
X155303568Y-100933968D01*
X155349974Y-100987699D01*
X155359963Y-101057989D01*
X155330365Y-101122522D01*
X155324370Y-101128950D01*
X155311268Y-101142052D01*
X155303166Y-101149477D01*
X155284690Y-101164981D01*
X155276289Y-101172030D01*
X155211249Y-101200495D01*
X155171269Y-101197708D01*
X155171226Y-101198077D01*
X155163294Y-101197152D01*
X155163290Y-101197152D01*
X155161141Y-101196901D01*
X155151047Y-101195724D01*
X155151042Y-101195724D01*
X155147408Y-101195300D01*
X154914592Y-101195300D01*
X154910904Y-101195739D01*
X154910900Y-101195739D01*
X154899678Y-101197074D01*
X154899675Y-101197075D01*
X154890293Y-101198191D01*
X154881654Y-101202028D01*
X154881655Y-101202028D01*
X154832174Y-101224006D01*
X154761798Y-101233378D01*
X154730080Y-101224095D01*
X154679894Y-101201909D01*
X154671226Y-101198077D01*
X154655696Y-101196266D01*
X154651047Y-101195724D01*
X154651042Y-101195724D01*
X154647408Y-101195300D01*
X154414592Y-101195300D01*
X154410904Y-101195739D01*
X154410900Y-101195739D01*
X154399678Y-101197074D01*
X154399675Y-101197075D01*
X154390293Y-101198191D01*
X154381654Y-101202028D01*
X154381655Y-101202028D01*
X154332174Y-101224006D01*
X154261798Y-101233378D01*
X154230080Y-101224095D01*
X154179894Y-101201909D01*
X154171226Y-101198077D01*
X154155696Y-101196266D01*
X154151047Y-101195724D01*
X154151042Y-101195724D01*
X154147408Y-101195300D01*
X153914592Y-101195300D01*
X153910904Y-101195739D01*
X153910900Y-101195739D01*
X153899678Y-101197074D01*
X153899675Y-101197075D01*
X153890293Y-101198191D01*
X153881654Y-101202028D01*
X153881655Y-101202028D01*
X153832174Y-101224006D01*
X153761798Y-101233378D01*
X153730080Y-101224095D01*
X153679894Y-101201909D01*
X153671226Y-101198077D01*
X153655696Y-101196266D01*
X153651047Y-101195724D01*
X153651042Y-101195724D01*
X153647408Y-101195300D01*
X153414592Y-101195300D01*
X153410904Y-101195739D01*
X153410900Y-101195739D01*
X153399678Y-101197074D01*
X153399675Y-101197075D01*
X153390293Y-101198191D01*
X153381654Y-101202028D01*
X153381655Y-101202028D01*
X153332174Y-101224006D01*
X153261798Y-101233378D01*
X153230080Y-101224095D01*
X153179894Y-101201909D01*
X153171226Y-101198077D01*
X153155696Y-101196266D01*
X153151047Y-101195724D01*
X153151042Y-101195724D01*
X153147408Y-101195300D01*
X152914592Y-101195300D01*
X152910904Y-101195739D01*
X152910900Y-101195739D01*
X152899678Y-101197074D01*
X152899675Y-101197075D01*
X152890293Y-101198191D01*
X152881654Y-101202028D01*
X152881655Y-101202028D01*
X152832174Y-101224006D01*
X152761798Y-101233378D01*
X152730080Y-101224095D01*
X152679894Y-101201909D01*
X152671226Y-101198077D01*
X152655696Y-101196266D01*
X152651047Y-101195724D01*
X152651042Y-101195724D01*
X152647408Y-101195300D01*
X152414592Y-101195300D01*
X152410904Y-101195739D01*
X152410900Y-101195739D01*
X152399678Y-101197074D01*
X152399675Y-101197075D01*
X152390293Y-101198191D01*
X152381654Y-101202028D01*
X152381655Y-101202028D01*
X152332174Y-101224006D01*
X152261798Y-101233378D01*
X152230080Y-101224095D01*
X152179894Y-101201909D01*
X152171226Y-101198077D01*
X152155696Y-101196266D01*
X152151047Y-101195724D01*
X152151042Y-101195724D01*
X152147408Y-101195300D01*
X151914592Y-101195300D01*
X151910904Y-101195739D01*
X151910900Y-101195739D01*
X151899678Y-101197074D01*
X151899675Y-101197075D01*
X151890293Y-101198191D01*
X151881654Y-101202028D01*
X151881655Y-101202028D01*
X151806038Y-101235615D01*
X151806036Y-101235616D01*
X151795408Y-101240337D01*
X151722057Y-101313816D01*
X151680077Y-101408774D01*
X151677300Y-101432592D01*
X151677300Y-102840408D01*
X151680191Y-102864707D01*
X151689452Y-102885556D01*
X151700300Y-102936702D01*
X151700300Y-102999705D01*
X151680298Y-103067826D01*
X151668747Y-103083106D01*
X151632517Y-103124128D01*
X151576798Y-103242805D01*
X151575417Y-103251677D01*
X151558009Y-103363478D01*
X151558009Y-103363482D01*
X151556628Y-103372351D01*
X151557792Y-103381253D01*
X151557792Y-103381256D01*
X151564022Y-103428900D01*
X151573627Y-103502350D01*
X151626430Y-103622354D01*
X151710791Y-103722713D01*
X151718262Y-103727686D01*
X151718263Y-103727687D01*
X151738467Y-103741136D01*
X151819929Y-103795362D01*
X151909372Y-103823306D01*
X151936501Y-103831782D01*
X151936502Y-103831782D01*
X151945070Y-103834459D01*
X152009505Y-103835640D01*
X152067178Y-103836697D01*
X152067181Y-103836697D01*
X152076154Y-103836861D01*
X152144595Y-103818202D01*
X152193982Y-103804738D01*
X152193985Y-103804737D01*
X152202644Y-103802376D01*
X152214068Y-103795362D01*
X152306719Y-103738475D01*
X152306722Y-103738472D01*
X152314371Y-103733776D01*
X152320698Y-103726787D01*
X152396328Y-103643231D01*
X152402353Y-103636575D01*
X152413225Y-103614136D01*
X152455604Y-103526664D01*
X152455604Y-103526663D01*
X152459517Y-103518587D01*
X152481269Y-103389298D01*
X152481407Y-103378000D01*
X152462821Y-103248218D01*
X152459107Y-103240050D01*
X152458818Y-103239061D01*
X152458898Y-103168064D01*
X152497350Y-103108382D01*
X152561964Y-103078962D01*
X152579754Y-103077700D01*
X152647408Y-103077700D01*
X152651096Y-103077261D01*
X152651100Y-103077261D01*
X152662322Y-103075926D01*
X152662325Y-103075925D01*
X152671707Y-103074809D01*
X152706916Y-103059170D01*
X152729826Y-103048994D01*
X152800202Y-103039622D01*
X152831920Y-103048905D01*
X152875813Y-103068309D01*
X152890774Y-103074923D01*
X152906304Y-103076734D01*
X152910953Y-103077276D01*
X152910958Y-103077276D01*
X152914592Y-103077700D01*
X153147408Y-103077700D01*
X153151096Y-103077261D01*
X153151100Y-103077261D01*
X153162322Y-103075926D01*
X153162325Y-103075925D01*
X153171707Y-103074809D01*
X153206916Y-103059170D01*
X153229826Y-103048994D01*
X153300202Y-103039622D01*
X153331920Y-103048905D01*
X153375813Y-103068309D01*
X153390774Y-103074923D01*
X153406304Y-103076734D01*
X153410953Y-103077276D01*
X153410958Y-103077276D01*
X153414592Y-103077700D01*
X153621849Y-103077700D01*
X153689970Y-103097702D01*
X153736463Y-103151358D01*
X153746567Y-103221632D01*
X153717073Y-103286212D01*
X153710956Y-103292784D01*
X152945995Y-104057745D01*
X152883684Y-104091769D01*
X152856901Y-104094649D01*
X151689298Y-104094649D01*
X151678317Y-104094170D01*
X151677474Y-104094096D01*
X151640082Y-104090825D01*
X151629433Y-104093678D01*
X151623826Y-104094169D01*
X151612841Y-104094649D01*
X150212479Y-104094649D01*
X150144358Y-104074647D01*
X150123384Y-104057744D01*
X149894907Y-103829267D01*
X149887480Y-103821163D01*
X149862809Y-103791761D01*
X149834220Y-103775255D01*
X149829577Y-103772574D01*
X149820321Y-103766678D01*
X149788877Y-103744660D01*
X149778231Y-103741808D01*
X149774863Y-103740237D01*
X149771358Y-103738961D01*
X149761811Y-103733449D01*
X149750956Y-103731535D01*
X149750953Y-103731534D01*
X149724028Y-103726787D01*
X149713296Y-103724408D01*
X149686872Y-103717328D01*
X149676228Y-103714476D01*
X149671257Y-103714911D01*
X149608598Y-103690400D01*
X149566960Y-103632895D01*
X149559700Y-103590744D01*
X149559700Y-103432592D01*
X149556809Y-103408293D01*
X149536104Y-103361678D01*
X149519385Y-103324038D01*
X149519384Y-103324036D01*
X149514663Y-103313408D01*
X149441184Y-103240057D01*
X149346226Y-103198077D01*
X149330696Y-103196266D01*
X149326047Y-103195724D01*
X149326042Y-103195724D01*
X149322408Y-103195300D01*
X147914592Y-103195300D01*
X147910904Y-103195739D01*
X147910900Y-103195739D01*
X147899679Y-103197074D01*
X147899677Y-103197075D01*
X147890293Y-103198191D01*
X147869444Y-103207452D01*
X147818298Y-103218300D01*
X147607939Y-103218300D01*
X147539818Y-103198298D01*
X147512487Y-103174549D01*
X147502837Y-103163350D01*
X147502836Y-103163350D01*
X147496975Y-103156547D01*
X147459493Y-103132252D01*
X147394489Y-103090118D01*
X147394487Y-103090117D01*
X147386958Y-103085237D01*
X147261348Y-103047672D01*
X147252372Y-103047617D01*
X147252371Y-103047617D01*
X147197959Y-103047285D01*
X147130244Y-103046871D01*
X147004185Y-103082899D01*
X146996598Y-103087686D01*
X146996596Y-103087687D01*
X146968876Y-103105177D01*
X146893305Y-103152859D01*
X146806517Y-103251128D01*
X146750798Y-103369805D01*
X146746080Y-103400109D01*
X146732009Y-103490478D01*
X146732009Y-103490482D01*
X146730628Y-103499351D01*
X146731792Y-103508253D01*
X146731792Y-103508256D01*
X146738913Y-103562708D01*
X146747627Y-103629350D01*
X146800430Y-103749354D01*
X146830051Y-103784592D01*
X146873525Y-103836310D01*
X146884791Y-103849713D01*
X146892262Y-103854686D01*
X146892263Y-103854687D01*
X146973252Y-103908598D01*
X147018875Y-103962996D01*
X147027846Y-104033423D01*
X146997316Y-104097520D01*
X146970670Y-104120046D01*
X146893305Y-104168859D01*
X146806517Y-104267128D01*
X146802703Y-104275251D01*
X146802702Y-104275253D01*
X146791535Y-104299039D01*
X146750798Y-104385805D01*
X146747222Y-104408774D01*
X146738523Y-104464642D01*
X146708279Y-104528874D01*
X146648109Y-104566559D01*
X146603040Y-104570777D01*
X146597912Y-104570328D01*
X146587267Y-104567476D01*
X146576292Y-104568436D01*
X146576290Y-104568436D01*
X146570921Y-104568906D01*
X146501316Y-104554916D01*
X146447673Y-104500588D01*
X146394171Y-104395585D01*
X146389671Y-104386753D01*
X146299247Y-104296329D01*
X146185305Y-104238273D01*
X146175515Y-104236722D01*
X146175514Y-104236722D01*
X146142037Y-104231420D01*
X146090770Y-104223300D01*
X145627230Y-104223300D01*
X145575963Y-104231420D01*
X145542486Y-104236722D01*
X145542485Y-104236722D01*
X145532695Y-104238273D01*
X145418753Y-104296329D01*
X145328329Y-104386753D01*
X145270273Y-104500695D01*
X145268722Y-104510485D01*
X145268722Y-104510486D01*
X145267612Y-104517494D01*
X145255300Y-104595230D01*
X145255300Y-105208770D01*
X145262625Y-105255015D01*
X145267245Y-105284184D01*
X145270273Y-105303305D01*
X145328329Y-105417247D01*
X145418753Y-105507671D01*
X145427585Y-105512171D01*
X145505230Y-105551733D01*
X145556845Y-105600481D01*
X145573911Y-105669396D01*
X145551010Y-105736598D01*
X145505230Y-105776267D01*
X145418753Y-105820329D01*
X145328329Y-105910753D01*
X145270273Y-106024695D01*
X145255300Y-106119230D01*
X145255300Y-106732770D01*
X145262434Y-106777813D01*
X145268137Y-106813816D01*
X145270273Y-106827305D01*
X145328329Y-106941247D01*
X145418753Y-107031671D01*
X145427585Y-107036171D01*
X145505230Y-107075733D01*
X145556845Y-107124481D01*
X145573911Y-107193396D01*
X145551010Y-107260598D01*
X145505230Y-107300267D01*
X145418753Y-107344329D01*
X145328329Y-107434753D01*
X145270273Y-107548695D01*
X145268722Y-107558485D01*
X145268722Y-107558486D01*
X145266090Y-107575104D01*
X145255300Y-107643230D01*
X145255300Y-108256770D01*
X145259544Y-108283564D01*
X145267782Y-108335575D01*
X145270273Y-108351305D01*
X145328329Y-108465247D01*
X145418753Y-108555671D01*
X145532695Y-108613727D01*
X145542485Y-108615278D01*
X145542486Y-108615278D01*
X145556813Y-108617547D01*
X145627230Y-108628700D01*
X146090770Y-108628700D01*
X146161187Y-108617547D01*
X146175514Y-108615278D01*
X146175515Y-108615278D01*
X146185305Y-108613727D01*
X146299247Y-108555671D01*
X146389671Y-108465247D01*
X146404744Y-108435665D01*
X146447673Y-108351412D01*
X146496421Y-108299797D01*
X146570921Y-108283094D01*
X146576290Y-108283564D01*
X146576292Y-108283564D01*
X146587267Y-108284524D01*
X146624339Y-108274591D01*
X146635053Y-108272216D01*
X146650900Y-108269422D01*
X146661997Y-108267465D01*
X146661998Y-108267465D01*
X146672851Y-108265551D01*
X146682396Y-108260040D01*
X146685889Y-108258769D01*
X146689267Y-108257194D01*
X146699916Y-108254340D01*
X146708947Y-108248016D01*
X146708950Y-108248015D01*
X146731355Y-108232327D01*
X146740624Y-108226422D01*
X146755926Y-108217587D01*
X146773849Y-108207239D01*
X146798517Y-108177841D01*
X146805943Y-108169737D01*
X147059077Y-107916604D01*
X147121389Y-107882579D01*
X147148172Y-107879700D01*
X147551300Y-107879700D01*
X147619421Y-107899702D01*
X147665914Y-107953358D01*
X147677300Y-108005700D01*
X147677300Y-108165408D01*
X147677739Y-108169096D01*
X147677739Y-108169100D01*
X147678973Y-108179467D01*
X147680191Y-108189707D01*
X147690426Y-108212750D01*
X147717264Y-108273170D01*
X147722337Y-108284592D01*
X147730568Y-108292809D01*
X147730569Y-108292810D01*
X147737975Y-108300203D01*
X147795816Y-108357943D01*
X147890774Y-108399923D01*
X147906304Y-108401734D01*
X147910953Y-108402276D01*
X147910958Y-108402276D01*
X147914592Y-108402700D01*
X149322408Y-108402700D01*
X149326096Y-108402261D01*
X149326100Y-108402261D01*
X149337321Y-108400926D01*
X149337323Y-108400925D01*
X149346707Y-108399809D01*
X149367556Y-108390548D01*
X149418702Y-108379700D01*
X149712597Y-108379700D01*
X149780718Y-108399702D01*
X149796581Y-108411771D01*
X149800014Y-108414840D01*
X149805791Y-108421713D01*
X149914929Y-108494362D01*
X149989197Y-108517565D01*
X150031501Y-108530782D01*
X150031502Y-108530782D01*
X150040070Y-108533459D01*
X150104505Y-108534640D01*
X150162178Y-108535697D01*
X150162181Y-108535697D01*
X150171154Y-108535861D01*
X150227520Y-108520494D01*
X150288982Y-108503738D01*
X150288985Y-108503737D01*
X150297644Y-108501376D01*
X150306734Y-108495795D01*
X150401719Y-108437475D01*
X150401722Y-108437472D01*
X150409371Y-108432776D01*
X150422578Y-108418186D01*
X150472830Y-108362668D01*
X150497353Y-108335575D01*
X150504336Y-108321163D01*
X150550604Y-108225664D01*
X150550604Y-108225663D01*
X150554517Y-108217587D01*
X150576269Y-108088298D01*
X150576407Y-108077000D01*
X150568187Y-108019603D01*
X150559094Y-107956104D01*
X150559093Y-107956101D01*
X150557821Y-107947218D01*
X150549700Y-107929356D01*
X150507273Y-107836043D01*
X150507271Y-107836040D01*
X150503556Y-107827869D01*
X150417975Y-107728547D01*
X150392588Y-107712092D01*
X150315489Y-107662118D01*
X150315487Y-107662117D01*
X150307958Y-107657237D01*
X150182348Y-107619672D01*
X150173372Y-107619617D01*
X150173371Y-107619617D01*
X150118959Y-107619285D01*
X150051244Y-107618871D01*
X149925185Y-107654899D01*
X149855506Y-107698863D01*
X149788273Y-107718300D01*
X149685700Y-107718300D01*
X149617579Y-107698298D01*
X149571086Y-107644642D01*
X149559700Y-107592300D01*
X149559700Y-107432592D01*
X149559123Y-107427742D01*
X149557926Y-107417678D01*
X149557925Y-107417675D01*
X149556809Y-107408293D01*
X149530994Y-107350174D01*
X149521622Y-107279798D01*
X149530905Y-107248080D01*
X149553091Y-107197894D01*
X149556923Y-107189226D01*
X149559700Y-107165408D01*
X149559700Y-106932592D01*
X149556809Y-106908293D01*
X149532133Y-106852738D01*
X149530994Y-106850174D01*
X149521622Y-106779798D01*
X149530905Y-106748080D01*
X149553091Y-106697894D01*
X149556923Y-106689226D01*
X149559700Y-106665408D01*
X149559700Y-106432592D01*
X149558343Y-106421183D01*
X149557926Y-106417678D01*
X149557925Y-106417675D01*
X149556809Y-106408293D01*
X149537162Y-106364060D01*
X149530994Y-106350174D01*
X149521622Y-106279798D01*
X149530905Y-106248080D01*
X149553091Y-106197894D01*
X149556923Y-106189226D01*
X149559700Y-106165408D01*
X149559700Y-105934666D01*
X149579702Y-105866545D01*
X149633358Y-105820052D01*
X149703632Y-105809948D01*
X149768212Y-105839442D01*
X149782151Y-105853590D01*
X149787422Y-105859860D01*
X149805791Y-105881713D01*
X149813262Y-105886686D01*
X149813263Y-105886687D01*
X149829470Y-105897475D01*
X149914929Y-105954362D01*
X149966065Y-105970338D01*
X150031501Y-105990782D01*
X150031502Y-105990782D01*
X150040070Y-105993459D01*
X150104505Y-105994640D01*
X150162178Y-105995697D01*
X150162181Y-105995697D01*
X150171154Y-105995861D01*
X150212547Y-105984576D01*
X150288982Y-105963738D01*
X150288985Y-105963737D01*
X150297644Y-105961376D01*
X150309068Y-105954362D01*
X150401719Y-105897475D01*
X150401722Y-105897472D01*
X150409371Y-105892776D01*
X150428999Y-105871092D01*
X150474947Y-105820329D01*
X150497353Y-105795575D01*
X150505934Y-105777865D01*
X150550604Y-105685664D01*
X150550604Y-105685663D01*
X150554517Y-105677587D01*
X150576269Y-105548298D01*
X150576407Y-105537000D01*
X150570491Y-105495688D01*
X150559094Y-105416104D01*
X150559093Y-105416101D01*
X150557821Y-105407218D01*
X150553142Y-105396926D01*
X150515168Y-105313408D01*
X150503556Y-105287869D01*
X150472256Y-105251544D01*
X150446005Y-105201912D01*
X150438591Y-105174241D01*
X150436215Y-105163523D01*
X150436197Y-105163418D01*
X150429551Y-105125729D01*
X150424040Y-105116184D01*
X150422769Y-105112691D01*
X150421194Y-105109313D01*
X150418340Y-105098664D01*
X150412016Y-105089633D01*
X150412015Y-105089630D01*
X150396327Y-105067225D01*
X150390422Y-105057956D01*
X150378841Y-105037898D01*
X150371239Y-105024731D01*
X150362796Y-105017647D01*
X150362794Y-105017644D01*
X150341836Y-105000058D01*
X150333732Y-104992632D01*
X150312244Y-104971144D01*
X150278218Y-104908832D01*
X150283283Y-104838017D01*
X150325830Y-104781181D01*
X150392350Y-104756370D01*
X150401339Y-104756049D01*
X151181300Y-104756049D01*
X151249421Y-104776051D01*
X151295914Y-104829707D01*
X151307300Y-104882049D01*
X151307300Y-105172292D01*
X151287298Y-105240413D01*
X151275748Y-105255692D01*
X151251517Y-105283128D01*
X151247703Y-105291251D01*
X151247702Y-105291253D01*
X151237109Y-105313816D01*
X151195798Y-105401805D01*
X151191598Y-105428783D01*
X151177009Y-105522478D01*
X151177009Y-105522482D01*
X151175628Y-105531351D01*
X151176792Y-105540253D01*
X151176792Y-105540256D01*
X151182039Y-105580376D01*
X151192627Y-105661350D01*
X151245430Y-105781354D01*
X151294258Y-105839442D01*
X151311422Y-105859860D01*
X151329791Y-105881713D01*
X151337262Y-105886686D01*
X151337263Y-105886687D01*
X151353470Y-105897475D01*
X151438929Y-105954362D01*
X151490065Y-105970338D01*
X151555501Y-105990782D01*
X151555502Y-105990782D01*
X151564070Y-105993459D01*
X151628505Y-105994640D01*
X151686178Y-105995697D01*
X151686181Y-105995697D01*
X151695154Y-105995861D01*
X151736547Y-105984576D01*
X151812982Y-105963738D01*
X151812985Y-105963737D01*
X151821644Y-105961376D01*
X151833068Y-105954362D01*
X151925719Y-105897475D01*
X151925722Y-105897472D01*
X151933371Y-105892776D01*
X151952999Y-105871092D01*
X151998947Y-105820329D01*
X152021353Y-105795575D01*
X152029934Y-105777865D01*
X152074604Y-105685664D01*
X152074604Y-105685663D01*
X152078517Y-105677587D01*
X152100269Y-105548298D01*
X152100407Y-105537000D01*
X152094491Y-105495688D01*
X152083094Y-105416104D01*
X152083093Y-105416101D01*
X152081821Y-105407218D01*
X152077456Y-105397617D01*
X152031273Y-105296043D01*
X152031271Y-105296040D01*
X152027556Y-105287869D01*
X152021697Y-105281070D01*
X152021695Y-105281066D01*
X151999247Y-105255015D01*
X151969933Y-105190353D01*
X151968700Y-105172767D01*
X151968700Y-104882049D01*
X151988702Y-104813928D01*
X152042358Y-104767435D01*
X152094700Y-104756049D01*
X153026122Y-104756049D01*
X153037103Y-104756528D01*
X153064362Y-104758913D01*
X153064363Y-104758913D01*
X153075338Y-104759873D01*
X153112410Y-104749940D01*
X153123124Y-104747565D01*
X153142967Y-104744066D01*
X153150068Y-104742814D01*
X153150069Y-104742814D01*
X153160922Y-104740900D01*
X153170467Y-104735389D01*
X153173960Y-104734118D01*
X153177338Y-104732543D01*
X153187987Y-104729689D01*
X153197018Y-104723365D01*
X153197021Y-104723364D01*
X153219426Y-104707676D01*
X153228695Y-104701771D01*
X153234876Y-104698202D01*
X153261920Y-104682588D01*
X153269004Y-104674145D01*
X153269007Y-104674143D01*
X153286593Y-104653185D01*
X153294019Y-104645081D01*
X154750738Y-103188363D01*
X154758841Y-103180937D01*
X154779797Y-103163353D01*
X154779800Y-103163350D01*
X154788239Y-103156269D01*
X154797495Y-103140237D01*
X154848874Y-103091245D01*
X154913401Y-103077561D01*
X154914592Y-103077700D01*
X155147408Y-103077700D01*
X155151096Y-103077261D01*
X155151100Y-103077261D01*
X155162322Y-103075926D01*
X155162325Y-103075925D01*
X155171707Y-103074809D01*
X155206916Y-103059170D01*
X155229826Y-103048994D01*
X155300202Y-103039622D01*
X155331920Y-103048905D01*
X155375813Y-103068309D01*
X155390774Y-103074923D01*
X155406304Y-103076734D01*
X155410953Y-103077276D01*
X155410958Y-103077276D01*
X155414592Y-103077700D01*
X155647408Y-103077700D01*
X155651096Y-103077261D01*
X155651100Y-103077261D01*
X155662322Y-103075926D01*
X155662325Y-103075925D01*
X155671707Y-103074809D01*
X155706916Y-103059170D01*
X155755962Y-103037385D01*
X155755964Y-103037384D01*
X155766592Y-103032663D01*
X155839943Y-102959184D01*
X155881923Y-102864226D01*
X155884700Y-102840408D01*
X155884700Y-101556170D01*
X155904702Y-101488049D01*
X155921605Y-101467075D01*
X156000586Y-101388094D01*
X156062898Y-101354068D01*
X156089681Y-101351189D01*
X159242941Y-101351189D01*
X159311062Y-101371191D01*
X159357555Y-101424847D01*
X159367659Y-101495121D01*
X159338165Y-101559701D01*
X159332036Y-101566284D01*
X157739737Y-103158583D01*
X157677425Y-103192609D01*
X157647408Y-103194957D01*
X157647408Y-103195300D01*
X156239592Y-103195300D01*
X156235904Y-103195739D01*
X156235900Y-103195739D01*
X156224678Y-103197074D01*
X156224675Y-103197075D01*
X156215293Y-103198191D01*
X156206654Y-103202028D01*
X156206655Y-103202028D01*
X156131038Y-103235615D01*
X156131036Y-103235616D01*
X156120408Y-103240337D01*
X156112191Y-103248568D01*
X156112190Y-103248569D01*
X156103670Y-103257104D01*
X156047057Y-103313816D01*
X156005077Y-103408774D01*
X156002300Y-103432592D01*
X156002300Y-103665408D01*
X156005191Y-103689707D01*
X156009028Y-103698345D01*
X156031006Y-103747826D01*
X156040378Y-103818202D01*
X156031095Y-103849920D01*
X156012198Y-103892666D01*
X156005077Y-103908774D01*
X156002300Y-103932592D01*
X156002300Y-104165408D01*
X156002739Y-104169096D01*
X156002739Y-104169100D01*
X156003049Y-104171700D01*
X156005191Y-104189707D01*
X156013258Y-104207869D01*
X156031006Y-104247826D01*
X156040378Y-104318202D01*
X156031095Y-104349920D01*
X156015231Y-104385805D01*
X156005077Y-104408774D01*
X156002300Y-104432592D01*
X156002300Y-104592300D01*
X155982298Y-104660421D01*
X155928642Y-104706914D01*
X155876300Y-104718300D01*
X155692873Y-104718300D01*
X155624752Y-104698298D01*
X155587015Y-104660477D01*
X155583556Y-104652869D01*
X155497975Y-104553547D01*
X155459910Y-104528874D01*
X155395489Y-104487118D01*
X155395487Y-104487117D01*
X155387958Y-104482237D01*
X155262348Y-104444672D01*
X155253372Y-104444617D01*
X155253371Y-104444617D01*
X155198959Y-104444285D01*
X155131244Y-104443871D01*
X155005185Y-104479899D01*
X154997598Y-104484686D01*
X154997596Y-104484687D01*
X154972395Y-104500588D01*
X154894305Y-104549859D01*
X154807517Y-104648128D01*
X154803703Y-104656251D01*
X154803702Y-104656253D01*
X154782332Y-104701771D01*
X154751798Y-104766805D01*
X154749560Y-104781181D01*
X154733009Y-104887478D01*
X154733009Y-104887482D01*
X154731628Y-104896351D01*
X154732792Y-104905253D01*
X154732792Y-104905256D01*
X154737512Y-104941349D01*
X154748627Y-105026350D01*
X154801430Y-105146354D01*
X154829556Y-105179814D01*
X154877731Y-105237124D01*
X154885791Y-105246713D01*
X154994929Y-105319362D01*
X155120070Y-105358459D01*
X155173865Y-105359445D01*
X155199016Y-105359906D01*
X155226081Y-105364934D01*
X155226149Y-105364551D01*
X155263953Y-105371217D01*
X155274682Y-105373596D01*
X155297464Y-105379700D01*
X155311733Y-105383523D01*
X155322709Y-105382563D01*
X155322710Y-105382563D01*
X155349960Y-105380179D01*
X155360940Y-105379700D01*
X156143420Y-105379700D01*
X156194368Y-105390460D01*
X156201648Y-105393678D01*
X156215774Y-105399923D01*
X156230844Y-105401680D01*
X156235953Y-105402276D01*
X156235958Y-105402276D01*
X156239592Y-105402700D01*
X157626863Y-105402700D01*
X157694984Y-105422702D01*
X157741477Y-105476358D01*
X157751581Y-105546632D01*
X157732765Y-105596318D01*
X157728517Y-105601128D01*
X157719563Y-105620200D01*
X157718319Y-105622849D01*
X157671262Y-105676011D01*
X157604264Y-105695300D01*
X156239592Y-105695300D01*
X156235904Y-105695739D01*
X156235900Y-105695739D01*
X156224678Y-105697074D01*
X156224675Y-105697075D01*
X156215293Y-105698191D01*
X156192039Y-105708520D01*
X156131038Y-105735615D01*
X156131036Y-105735616D01*
X156120408Y-105740337D01*
X156047057Y-105813816D01*
X156005077Y-105908774D01*
X156002300Y-105932592D01*
X156002300Y-106165408D01*
X156002739Y-106169096D01*
X156002739Y-106169100D01*
X156003704Y-106177206D01*
X156005191Y-106189707D01*
X156009028Y-106198345D01*
X156031006Y-106247826D01*
X156040378Y-106318202D01*
X156031095Y-106349920D01*
X156011299Y-106394700D01*
X156005077Y-106408774D01*
X156003630Y-106421183D01*
X156003069Y-106426000D01*
X156002300Y-106432592D01*
X156002300Y-106665408D01*
X156002739Y-106669096D01*
X156002739Y-106669100D01*
X156003620Y-106676499D01*
X156005191Y-106689707D01*
X156009028Y-106698345D01*
X156031006Y-106747826D01*
X156040378Y-106818202D01*
X156031095Y-106849920D01*
X156009108Y-106899655D01*
X156005077Y-106908774D01*
X156002300Y-106932592D01*
X156002300Y-107165408D01*
X156005191Y-107189707D01*
X156009028Y-107198345D01*
X156031006Y-107247826D01*
X156040378Y-107318202D01*
X156031095Y-107349920D01*
X156028717Y-107355300D01*
X156005077Y-107408774D01*
X156002300Y-107432592D01*
X156002300Y-107665408D01*
X156005191Y-107689707D01*
X156010145Y-107700860D01*
X156031006Y-107747826D01*
X156040378Y-107818202D01*
X156031095Y-107849920D01*
X156009108Y-107899655D01*
X156005077Y-107908774D01*
X156002300Y-107932592D01*
X156002300Y-108165408D01*
X156002739Y-108169096D01*
X156002739Y-108169100D01*
X156003973Y-108179467D01*
X156005191Y-108189707D01*
X156009028Y-108198345D01*
X156031006Y-108247826D01*
X156040378Y-108318202D01*
X156031095Y-108349920D01*
X156009088Y-108399702D01*
X156005077Y-108408774D01*
X156002300Y-108432592D01*
X156002300Y-108592300D01*
X155982298Y-108660421D01*
X155928642Y-108706914D01*
X155876300Y-108718300D01*
X155642543Y-108718300D01*
X155574422Y-108698298D01*
X155547090Y-108674548D01*
X155503836Y-108624349D01*
X155497975Y-108617547D01*
X155447851Y-108585058D01*
X155395489Y-108551118D01*
X155395487Y-108551117D01*
X155387958Y-108546237D01*
X155262348Y-108508672D01*
X155253372Y-108508617D01*
X155253371Y-108508617D01*
X155198959Y-108508285D01*
X155131244Y-108507871D01*
X155005185Y-108543899D01*
X154997598Y-108548686D01*
X154997596Y-108548687D01*
X154939952Y-108585058D01*
X154894305Y-108613859D01*
X154807517Y-108712128D01*
X154803703Y-108720251D01*
X154803702Y-108720253D01*
X154788575Y-108752473D01*
X154751798Y-108830805D01*
X154745590Y-108870677D01*
X154733009Y-108951478D01*
X154733009Y-108951482D01*
X154731628Y-108960351D01*
X154732792Y-108969252D01*
X154732792Y-108969256D01*
X154737411Y-109004578D01*
X154748627Y-109090350D01*
X154801430Y-109210354D01*
X154824694Y-109238030D01*
X154872368Y-109294744D01*
X154885791Y-109310713D01*
X154893262Y-109315686D01*
X154893263Y-109315687D01*
X154909408Y-109326434D01*
X154994929Y-109383362D01*
X155111875Y-109419899D01*
X155170931Y-109459304D01*
X155199308Y-109524383D01*
X155200300Y-109540165D01*
X155200300Y-109661420D01*
X155189540Y-109712368D01*
X155180077Y-109733774D01*
X155178266Y-109749304D01*
X155177745Y-109753779D01*
X155177300Y-109757592D01*
X155177300Y-111165408D01*
X155180191Y-111189707D01*
X155184028Y-111198345D01*
X155217431Y-111273546D01*
X155222337Y-111284592D01*
X155295816Y-111357943D01*
X155390774Y-111399923D01*
X155406304Y-111401734D01*
X155410953Y-111402276D01*
X155410958Y-111402276D01*
X155414592Y-111402700D01*
X155647408Y-111402700D01*
X155651096Y-111402261D01*
X155651100Y-111402261D01*
X155662322Y-111400926D01*
X155662325Y-111400925D01*
X155671707Y-111399809D01*
X155722693Y-111377162D01*
X155755962Y-111362385D01*
X155755964Y-111362384D01*
X155766592Y-111357663D01*
X155786374Y-111337847D01*
X155807039Y-111317145D01*
X155839943Y-111284184D01*
X155881923Y-111189226D01*
X155884700Y-111165408D01*
X155884700Y-109757592D01*
X155884261Y-109753900D01*
X155882926Y-109742679D01*
X155882925Y-109742677D01*
X155881809Y-109733293D01*
X155872548Y-109712444D01*
X155861700Y-109661298D01*
X155861700Y-109505700D01*
X155881702Y-109437579D01*
X155935358Y-109391086D01*
X155987700Y-109379700D01*
X156143420Y-109379700D01*
X156194368Y-109390460D01*
X156201840Y-109393763D01*
X156215774Y-109399923D01*
X156231304Y-109401734D01*
X156235953Y-109402276D01*
X156235958Y-109402276D01*
X156239592Y-109402700D01*
X157647408Y-109402700D01*
X157651096Y-109402261D01*
X157651100Y-109402261D01*
X157662322Y-109400926D01*
X157662325Y-109400925D01*
X157671707Y-109399809D01*
X157720955Y-109377934D01*
X157755962Y-109362385D01*
X157755964Y-109362384D01*
X157766592Y-109357663D01*
X157779589Y-109344644D01*
X157813460Y-109310713D01*
X157839943Y-109284184D01*
X157839992Y-109284233D01*
X157888936Y-109244261D01*
X157959475Y-109236210D01*
X158023168Y-109267574D01*
X158034364Y-109279276D01*
X158055012Y-109303839D01*
X158055015Y-109303842D01*
X158060791Y-109310713D01*
X158068262Y-109315686D01*
X158068263Y-109315687D01*
X158084408Y-109326434D01*
X158169929Y-109383362D01*
X158230469Y-109402276D01*
X158286501Y-109419782D01*
X158286502Y-109419782D01*
X158295070Y-109422459D01*
X158359505Y-109423640D01*
X158417178Y-109424697D01*
X158417181Y-109424697D01*
X158426154Y-109424861D01*
X158467547Y-109413576D01*
X158543982Y-109392738D01*
X158543985Y-109392737D01*
X158552644Y-109390376D01*
X158560296Y-109385678D01*
X158656719Y-109326475D01*
X158656722Y-109326472D01*
X158664371Y-109321776D01*
X158690946Y-109292417D01*
X158740174Y-109238030D01*
X158752353Y-109224575D01*
X158758164Y-109212582D01*
X158805604Y-109114664D01*
X158805604Y-109114663D01*
X158809517Y-109106587D01*
X158831269Y-108977298D01*
X158831407Y-108966000D01*
X158820408Y-108889194D01*
X158814094Y-108845104D01*
X158814093Y-108845101D01*
X158812821Y-108836218D01*
X158807975Y-108825559D01*
X158762273Y-108725043D01*
X158762271Y-108725040D01*
X158758556Y-108716869D01*
X158672975Y-108617547D01*
X158622851Y-108585058D01*
X158570489Y-108551118D01*
X158570487Y-108551117D01*
X158562958Y-108546237D01*
X158437348Y-108508672D01*
X158428370Y-108508617D01*
X158419492Y-108507290D01*
X158419783Y-108505342D01*
X158362744Y-108488218D01*
X158342409Y-108471729D01*
X158199947Y-108329267D01*
X158192520Y-108321163D01*
X158167849Y-108291761D01*
X158134625Y-108272578D01*
X158125355Y-108266673D01*
X158102950Y-108250985D01*
X158102947Y-108250984D01*
X158093916Y-108244660D01*
X158083267Y-108241806D01*
X158079889Y-108240231D01*
X158076396Y-108238960D01*
X158066851Y-108233449D01*
X158055998Y-108231535D01*
X158055997Y-108231535D01*
X158042618Y-108229176D01*
X158029053Y-108226784D01*
X158018339Y-108224409D01*
X157981267Y-108214476D01*
X157981266Y-108214476D01*
X157982159Y-108211143D01*
X157933599Y-108192147D01*
X157891960Y-108134643D01*
X157884700Y-108092491D01*
X157884700Y-107932592D01*
X157881809Y-107908293D01*
X157866615Y-107874086D01*
X157855994Y-107850174D01*
X157846622Y-107779798D01*
X157855905Y-107748080D01*
X157878091Y-107697894D01*
X157881923Y-107689226D01*
X157884700Y-107665408D01*
X157884700Y-107505700D01*
X157904702Y-107437579D01*
X157958358Y-107391086D01*
X158010700Y-107379700D01*
X158875830Y-107379700D01*
X158943951Y-107399702D01*
X158964925Y-107416605D01*
X160490586Y-108942266D01*
X160524612Y-109004578D01*
X160521593Y-109069460D01*
X160479626Y-109201755D01*
X160458778Y-109387620D01*
X160463734Y-109446642D01*
X160473849Y-109567083D01*
X160474429Y-109573994D01*
X160476128Y-109579919D01*
X160524058Y-109747072D01*
X160525981Y-109753779D01*
X160557911Y-109815908D01*
X160605941Y-109909364D01*
X160611472Y-109920127D01*
X160727646Y-110066702D01*
X160732339Y-110070696D01*
X160732340Y-110070697D01*
X160828694Y-110152700D01*
X160870077Y-110187920D01*
X160875455Y-110190926D01*
X160875457Y-110190927D01*
X160951709Y-110233542D01*
X161033340Y-110279164D01*
X161211216Y-110336960D01*
X161396931Y-110359105D01*
X161403066Y-110358633D01*
X161403068Y-110358633D01*
X161577268Y-110345229D01*
X161577272Y-110345228D01*
X161583410Y-110344756D01*
X161763550Y-110294460D01*
X161930491Y-110210132D01*
X161955073Y-110190927D01*
X162073012Y-110098783D01*
X162073013Y-110098782D01*
X162077873Y-110094985D01*
X162200082Y-109953404D01*
X162292464Y-109790782D01*
X162351500Y-109613313D01*
X162374941Y-109427758D01*
X162375315Y-109401000D01*
X162357064Y-109214862D01*
X162303006Y-109035815D01*
X162215201Y-108870677D01*
X162180435Y-108828049D01*
X162100887Y-108730513D01*
X162100884Y-108730510D01*
X162096992Y-108725738D01*
X162087422Y-108717821D01*
X161957633Y-108610450D01*
X161957630Y-108610448D01*
X161952883Y-108606521D01*
X161788362Y-108517565D01*
X161646439Y-108473632D01*
X161615579Y-108464079D01*
X161615578Y-108464079D01*
X161609696Y-108462258D01*
X161603575Y-108461615D01*
X161603572Y-108461614D01*
X161429818Y-108443352D01*
X161429817Y-108443352D01*
X161423690Y-108442708D01*
X161307320Y-108453298D01*
X161243571Y-108459100D01*
X161243570Y-108459100D01*
X161237430Y-108459659D01*
X161081980Y-108505411D01*
X161010986Y-108505456D01*
X160957312Y-108473632D01*
X159523053Y-107039373D01*
X159489027Y-106977061D01*
X159494092Y-106906246D01*
X159539879Y-106847064D01*
X159562356Y-106831326D01*
X159571624Y-106825422D01*
X159584129Y-106818202D01*
X159604849Y-106806239D01*
X159611933Y-106797796D01*
X159611936Y-106797794D01*
X159629522Y-106776836D01*
X159636948Y-106768732D01*
X160958496Y-105447184D01*
X161020808Y-105413158D01*
X161086527Y-105416446D01*
X161143006Y-105434797D01*
X161211216Y-105456960D01*
X161396931Y-105479105D01*
X161403066Y-105478633D01*
X161403068Y-105478633D01*
X161577268Y-105465229D01*
X161577272Y-105465228D01*
X161583410Y-105464756D01*
X161763550Y-105414460D01*
X161930491Y-105330132D01*
X161953523Y-105312138D01*
X162073012Y-105218783D01*
X162073013Y-105218782D01*
X162077873Y-105214985D01*
X162200082Y-105073404D01*
X162203498Y-105067392D01*
X162267826Y-104954153D01*
X162292464Y-104910782D01*
X162351500Y-104733313D01*
X162374941Y-104547758D01*
X162375315Y-104521000D01*
X162357064Y-104334862D01*
X162303006Y-104155815D01*
X162215201Y-103990677D01*
X162200999Y-103973263D01*
X162100887Y-103850513D01*
X162100884Y-103850510D01*
X162096992Y-103845738D01*
X162086262Y-103836861D01*
X161957633Y-103730450D01*
X161957630Y-103730448D01*
X161952883Y-103726521D01*
X161788362Y-103637565D01*
X161688070Y-103606519D01*
X161615579Y-103584079D01*
X161615578Y-103584079D01*
X161609696Y-103582258D01*
X161603575Y-103581615D01*
X161603572Y-103581614D01*
X161429818Y-103563352D01*
X161429817Y-103563352D01*
X161423690Y-103562708D01*
X161307320Y-103573298D01*
X161243571Y-103579100D01*
X161243570Y-103579100D01*
X161237430Y-103579659D01*
X161231516Y-103581400D01*
X161231514Y-103581400D01*
X161188371Y-103594098D01*
X161058009Y-103632466D01*
X160892262Y-103719116D01*
X160746502Y-103836310D01*
X160626281Y-103979584D01*
X160536179Y-104143480D01*
X160534318Y-104149347D01*
X160534317Y-104149349D01*
X160517911Y-104201066D01*
X160479626Y-104321755D01*
X160458778Y-104507620D01*
X160463885Y-104568436D01*
X160471260Y-104656253D01*
X160474429Y-104693994D01*
X160521248Y-104857273D01*
X160520797Y-104928266D01*
X160489224Y-104981096D01*
X159288925Y-106181395D01*
X159226613Y-106215421D01*
X159199830Y-106218300D01*
X158648670Y-106218300D01*
X158580549Y-106198298D01*
X158534056Y-106144642D01*
X158523952Y-106074368D01*
X158535278Y-106037362D01*
X158551602Y-106003669D01*
X158551603Y-106003665D01*
X158555517Y-105995587D01*
X158577269Y-105866298D01*
X158577407Y-105855000D01*
X158567740Y-105787499D01*
X158560094Y-105734104D01*
X158560093Y-105734101D01*
X158558821Y-105725218D01*
X158548573Y-105702678D01*
X158508273Y-105614043D01*
X158508271Y-105614040D01*
X158504556Y-105605869D01*
X158432702Y-105522478D01*
X158424836Y-105513349D01*
X158418975Y-105506547D01*
X158376638Y-105479105D01*
X158316489Y-105440118D01*
X158316487Y-105440117D01*
X158308958Y-105435237D01*
X158183348Y-105397672D01*
X158174372Y-105397617D01*
X158174371Y-105397617D01*
X158119959Y-105397285D01*
X158052244Y-105396871D01*
X158010841Y-105408704D01*
X157939848Y-105408192D01*
X157880400Y-105369378D01*
X157851373Y-105304587D01*
X157860976Y-105236608D01*
X157871121Y-105213660D01*
X157881923Y-105189226D01*
X157884700Y-105165408D01*
X157884700Y-105034893D01*
X157904702Y-104966772D01*
X157958358Y-104920279D01*
X158030845Y-104910514D01*
X158032503Y-104910783D01*
X158041070Y-104913459D01*
X158103154Y-104914597D01*
X158163178Y-104915697D01*
X158163181Y-104915697D01*
X158172154Y-104915861D01*
X158231425Y-104899702D01*
X158289982Y-104883738D01*
X158289985Y-104883737D01*
X158298644Y-104881376D01*
X158306296Y-104876678D01*
X158402719Y-104817475D01*
X158402722Y-104817472D01*
X158410371Y-104812776D01*
X158418443Y-104803859D01*
X158467245Y-104749943D01*
X158498353Y-104715575D01*
X158506543Y-104698672D01*
X158551604Y-104605664D01*
X158551604Y-104605663D01*
X158555517Y-104597587D01*
X158577269Y-104468298D01*
X158577407Y-104457000D01*
X158566343Y-104379742D01*
X158560094Y-104336104D01*
X158560093Y-104336101D01*
X158558821Y-104327218D01*
X158553669Y-104315886D01*
X158508273Y-104216043D01*
X158508271Y-104216040D01*
X158504556Y-104207869D01*
X158428884Y-104120047D01*
X158424836Y-104115349D01*
X158418975Y-104108547D01*
X158391634Y-104090825D01*
X158316489Y-104042118D01*
X158316487Y-104042117D01*
X158308958Y-104037237D01*
X158183348Y-103999672D01*
X158174372Y-103999617D01*
X158174371Y-103999617D01*
X158140196Y-103999408D01*
X158072199Y-103978989D01*
X158026035Y-103925050D01*
X158016362Y-103854716D01*
X158044446Y-103792418D01*
X158044998Y-103791761D01*
X158057523Y-103776834D01*
X158064948Y-103768732D01*
X159993075Y-101840605D01*
X160055387Y-101806579D01*
X160082170Y-101803700D01*
X162497830Y-101803700D01*
X162565951Y-101823702D01*
X162586925Y-101840605D01*
X163716395Y-102970075D01*
X163750421Y-103032387D01*
X163753300Y-103059170D01*
X163753300Y-106025051D01*
X163752821Y-106036032D01*
X163750858Y-106058474D01*
X163749476Y-106074267D01*
X163759409Y-106111339D01*
X163761784Y-106122053D01*
X163768449Y-106159851D01*
X163773960Y-106169396D01*
X163775231Y-106172889D01*
X163776806Y-106176267D01*
X163779660Y-106186916D01*
X163785984Y-106195947D01*
X163785985Y-106195950D01*
X163801673Y-106218355D01*
X163807578Y-106227624D01*
X163826761Y-106260849D01*
X163835204Y-106267933D01*
X163835206Y-106267936D01*
X163856164Y-106285522D01*
X163864268Y-106292948D01*
X164217052Y-106645732D01*
X164224478Y-106653836D01*
X164242063Y-106674793D01*
X164242066Y-106674796D01*
X164249151Y-106683239D01*
X164258698Y-106688751D01*
X164282383Y-106702426D01*
X164291639Y-106708322D01*
X164323083Y-106730340D01*
X164333735Y-106733194D01*
X164337114Y-106734770D01*
X164340604Y-106736040D01*
X164350149Y-106741551D01*
X164361002Y-106743465D01*
X164361003Y-106743465D01*
X164387953Y-106748217D01*
X164398682Y-106750596D01*
X164421464Y-106756700D01*
X164435733Y-106760523D01*
X164446709Y-106759563D01*
X164446710Y-106759563D01*
X164473960Y-106757179D01*
X164484940Y-106756700D01*
X164708540Y-106756700D01*
X164776661Y-106776702D01*
X164797066Y-106796109D01*
X164798429Y-106794744D01*
X164868359Y-106864551D01*
X164881765Y-106877934D01*
X164891118Y-106882506D01*
X164893201Y-106883524D01*
X164987555Y-106929646D01*
X164997232Y-106931058D01*
X164997233Y-106931058D01*
X165006536Y-106932415D01*
X165033409Y-106936335D01*
X165097929Y-106965960D01*
X165136190Y-107025765D01*
X165136044Y-107096761D01*
X165097538Y-107156409D01*
X165033569Y-107185672D01*
X164996643Y-107191107D01*
X164996642Y-107191107D01*
X164986955Y-107192533D01*
X164881256Y-107244429D01*
X164854432Y-107271300D01*
X164811991Y-107313816D01*
X164798066Y-107327765D01*
X164746354Y-107433555D01*
X164744943Y-107443230D01*
X164744942Y-107443232D01*
X164738030Y-107490616D01*
X164736300Y-107502473D01*
X164736301Y-107869526D01*
X164746533Y-107939045D01*
X164798429Y-108044744D01*
X164881765Y-108127934D01*
X164987555Y-108179646D01*
X164997232Y-108181058D01*
X164997233Y-108181058D01*
X165012231Y-108183246D01*
X165033409Y-108186335D01*
X165097929Y-108215960D01*
X165136190Y-108275765D01*
X165136044Y-108346761D01*
X165097538Y-108406409D01*
X165033569Y-108435672D01*
X164996643Y-108441107D01*
X164996642Y-108441107D01*
X164986955Y-108442533D01*
X164881256Y-108494429D01*
X164798066Y-108577765D01*
X164746354Y-108683555D01*
X164744943Y-108693230D01*
X164744942Y-108693232D01*
X164737440Y-108744660D01*
X164736300Y-108752473D01*
X164736301Y-109119526D01*
X164746533Y-109189045D01*
X164798429Y-109294744D01*
X164881765Y-109377934D01*
X164987555Y-109429646D01*
X164997232Y-109431058D01*
X164997233Y-109431058D01*
X165011115Y-109433083D01*
X165033409Y-109436335D01*
X165097929Y-109465960D01*
X165136190Y-109525765D01*
X165136044Y-109596761D01*
X165097538Y-109656409D01*
X165033569Y-109685672D01*
X164996643Y-109691107D01*
X164996642Y-109691107D01*
X164986955Y-109692533D01*
X164881256Y-109744429D01*
X164880945Y-109743796D01*
X164872973Y-109747901D01*
X164873069Y-109748085D01*
X164820129Y-109775585D01*
X164816588Y-109777354D01*
X164771322Y-109799090D01*
X164771321Y-109799091D01*
X164762828Y-109803169D01*
X164757525Y-109808072D01*
X164757305Y-109808220D01*
X164750932Y-109811530D01*
X164745806Y-109815908D01*
X164707932Y-109853782D01*
X164704366Y-109857211D01*
X164661762Y-109896594D01*
X164658024Y-109903030D01*
X164652350Y-109909364D01*
X161152308Y-113409406D01*
X161089996Y-113443432D01*
X161063213Y-113446311D01*
X157871499Y-113446311D01*
X157803378Y-113426309D01*
X157756885Y-113372653D01*
X157746781Y-113302379D01*
X157748739Y-113293960D01*
X157750032Y-113291422D01*
X157752944Y-113273040D01*
X157760734Y-113223852D01*
X157765700Y-113192498D01*
X157765700Y-112613502D01*
X157750032Y-112514578D01*
X157689280Y-112395345D01*
X157594655Y-112300720D01*
X157475422Y-112239968D01*
X157465633Y-112238418D01*
X157465631Y-112238417D01*
X157436845Y-112233858D01*
X157376498Y-112224300D01*
X156872502Y-112224300D01*
X156812155Y-112233858D01*
X156783369Y-112238417D01*
X156783367Y-112238418D01*
X156773578Y-112239968D01*
X156654345Y-112300720D01*
X156559720Y-112395345D01*
X156498968Y-112514578D01*
X156483300Y-112613502D01*
X156483300Y-113192498D01*
X156497908Y-113284728D01*
X156498968Y-113291422D01*
X156497628Y-113291634D01*
X156499361Y-113352344D01*
X156462698Y-113413141D01*
X156398985Y-113444466D01*
X156377501Y-113446311D01*
X156296499Y-113446311D01*
X156228378Y-113426309D01*
X156181885Y-113372653D01*
X156171781Y-113302379D01*
X156173739Y-113293960D01*
X156175032Y-113291422D01*
X156177944Y-113273040D01*
X156185734Y-113223852D01*
X156190700Y-113192498D01*
X156190700Y-112613502D01*
X156175032Y-112514578D01*
X156114280Y-112395345D01*
X156019655Y-112300720D01*
X155900422Y-112239968D01*
X155890633Y-112238418D01*
X155890631Y-112238417D01*
X155861845Y-112233858D01*
X155801498Y-112224300D01*
X155297502Y-112224300D01*
X155292609Y-112225075D01*
X155262906Y-112229779D01*
X155192495Y-112220679D01*
X155138181Y-112174956D01*
X155129289Y-112157332D01*
X155128551Y-112153149D01*
X155123038Y-112143601D01*
X155121767Y-112140108D01*
X155120194Y-112136735D01*
X155117340Y-112126084D01*
X155111016Y-112117053D01*
X155111015Y-112117050D01*
X155095327Y-112094645D01*
X155089422Y-112085376D01*
X155081420Y-112071517D01*
X155070239Y-112052151D01*
X155061796Y-112045067D01*
X155061794Y-112045064D01*
X155040836Y-112027478D01*
X155032732Y-112020052D01*
X154620406Y-111607726D01*
X154586380Y-111545414D01*
X154591445Y-111474599D01*
X154633992Y-111417763D01*
X154670315Y-111399975D01*
X154671707Y-111399809D01*
X154680342Y-111395974D01*
X154680344Y-111395973D01*
X154755962Y-111362385D01*
X154755964Y-111362384D01*
X154766592Y-111357663D01*
X154786374Y-111337847D01*
X154807039Y-111317145D01*
X154839943Y-111284184D01*
X154881923Y-111189226D01*
X154884700Y-111165408D01*
X154884700Y-109757592D01*
X154884261Y-109753900D01*
X154882926Y-109742678D01*
X154882925Y-109742675D01*
X154881809Y-109733293D01*
X154860654Y-109685665D01*
X154844385Y-109649038D01*
X154844384Y-109649036D01*
X154839663Y-109638408D01*
X154826596Y-109625363D01*
X154792527Y-109591354D01*
X154766184Y-109565057D01*
X154671226Y-109523077D01*
X154655696Y-109521266D01*
X154651047Y-109520724D01*
X154651042Y-109520724D01*
X154647408Y-109520300D01*
X154414592Y-109520300D01*
X154410904Y-109520739D01*
X154410900Y-109520739D01*
X154399678Y-109522074D01*
X154399675Y-109522075D01*
X154390293Y-109523191D01*
X154381654Y-109527028D01*
X154381655Y-109527028D01*
X154332174Y-109549006D01*
X154261798Y-109558378D01*
X154230080Y-109549095D01*
X154179894Y-109526909D01*
X154171226Y-109523077D01*
X154155696Y-109521266D01*
X154151047Y-109520724D01*
X154151042Y-109520724D01*
X154147408Y-109520300D01*
X154069676Y-109520300D01*
X154001555Y-109500298D01*
X153955062Y-109446642D01*
X153944958Y-109376368D01*
X153976261Y-109309745D01*
X153996252Y-109287659D01*
X154053353Y-109224575D01*
X154059164Y-109212582D01*
X154106604Y-109114664D01*
X154106604Y-109114663D01*
X154110517Y-109106587D01*
X154132269Y-108977298D01*
X154132407Y-108966000D01*
X154121408Y-108889194D01*
X154115094Y-108845104D01*
X154115093Y-108845101D01*
X154113821Y-108836218D01*
X154108975Y-108825559D01*
X154063273Y-108725043D01*
X154063271Y-108725040D01*
X154059556Y-108716869D01*
X153973975Y-108617547D01*
X153923851Y-108585058D01*
X153871489Y-108551118D01*
X153871487Y-108551117D01*
X153863958Y-108546237D01*
X153738348Y-108508672D01*
X153729372Y-108508617D01*
X153729371Y-108508617D01*
X153674959Y-108508285D01*
X153607244Y-108507871D01*
X153481185Y-108543899D01*
X153473598Y-108548686D01*
X153473596Y-108548687D01*
X153415952Y-108585058D01*
X153370305Y-108613859D01*
X153283517Y-108712128D01*
X153279703Y-108720251D01*
X153279702Y-108720253D01*
X153264575Y-108752473D01*
X153227798Y-108830805D01*
X153221590Y-108870677D01*
X153209009Y-108951478D01*
X153209009Y-108951482D01*
X153207628Y-108960351D01*
X153210471Y-108982092D01*
X153210689Y-108983756D01*
X153209840Y-109021959D01*
X153208786Y-109027935D01*
X153206410Y-109038656D01*
X153196476Y-109075733D01*
X153197436Y-109086708D01*
X153197436Y-109086709D01*
X153199821Y-109113968D01*
X153200300Y-109124949D01*
X153200300Y-109394300D01*
X153180298Y-109462421D01*
X153126642Y-109508914D01*
X153074300Y-109520300D01*
X152914592Y-109520300D01*
X152910904Y-109520739D01*
X152910900Y-109520739D01*
X152899678Y-109522074D01*
X152899675Y-109522075D01*
X152890293Y-109523191D01*
X152881654Y-109527028D01*
X152881655Y-109527028D01*
X152832174Y-109549006D01*
X152761798Y-109558378D01*
X152730080Y-109549095D01*
X152679894Y-109526909D01*
X152671226Y-109523077D01*
X152655696Y-109521266D01*
X152651047Y-109520724D01*
X152651042Y-109520724D01*
X152647408Y-109520300D01*
X152414592Y-109520300D01*
X152410904Y-109520739D01*
X152410900Y-109520739D01*
X152399678Y-109522074D01*
X152399675Y-109522075D01*
X152390293Y-109523191D01*
X152381654Y-109527028D01*
X152381655Y-109527028D01*
X152332174Y-109549006D01*
X152261798Y-109558378D01*
X152230080Y-109549095D01*
X152179894Y-109526909D01*
X152171226Y-109523077D01*
X152155696Y-109521266D01*
X152151047Y-109520724D01*
X152151042Y-109520724D01*
X152147408Y-109520300D01*
X151914592Y-109520300D01*
X151910904Y-109520739D01*
X151910900Y-109520739D01*
X151899678Y-109522074D01*
X151899675Y-109522075D01*
X151890293Y-109523191D01*
X151881654Y-109527028D01*
X151881655Y-109527028D01*
X151832174Y-109549006D01*
X151761798Y-109558378D01*
X151730080Y-109549095D01*
X151679894Y-109526909D01*
X151671226Y-109523077D01*
X151655696Y-109521266D01*
X151651047Y-109520724D01*
X151651042Y-109520724D01*
X151647408Y-109520300D01*
X151414592Y-109520300D01*
X151410904Y-109520739D01*
X151410900Y-109520739D01*
X151399678Y-109522074D01*
X151399675Y-109522075D01*
X151390293Y-109523191D01*
X151381654Y-109527028D01*
X151381655Y-109527028D01*
X151332174Y-109549006D01*
X151261798Y-109558378D01*
X151230080Y-109549095D01*
X151179894Y-109526909D01*
X151171226Y-109523077D01*
X151155696Y-109521266D01*
X151151047Y-109520724D01*
X151151042Y-109520724D01*
X151147408Y-109520300D01*
X150928109Y-109520300D01*
X150859988Y-109500298D01*
X150813495Y-109446642D01*
X150803855Y-109373395D01*
X150804329Y-109370578D01*
X150817462Y-109292519D01*
X150817600Y-109281221D01*
X150806495Y-109203678D01*
X150800287Y-109160325D01*
X150800286Y-109160322D01*
X150799014Y-109151439D01*
X150795300Y-109143270D01*
X150748466Y-109040264D01*
X150748464Y-109040261D01*
X150744749Y-109032090D01*
X150659168Y-108932768D01*
X150621408Y-108908293D01*
X150556682Y-108866339D01*
X150556680Y-108866338D01*
X150549151Y-108861458D01*
X150423541Y-108823893D01*
X150414565Y-108823838D01*
X150414564Y-108823838D01*
X150360152Y-108823506D01*
X150292437Y-108823092D01*
X150166378Y-108859120D01*
X150158791Y-108863907D01*
X150158789Y-108863908D01*
X150102134Y-108899655D01*
X150055498Y-108929080D01*
X149968710Y-109027349D01*
X149964896Y-109035472D01*
X149964895Y-109035474D01*
X149944895Y-109078072D01*
X149912991Y-109146026D01*
X149907802Y-109179356D01*
X149899084Y-109235345D01*
X149868840Y-109299577D01*
X149863679Y-109305055D01*
X149811268Y-109357466D01*
X149803164Y-109364892D01*
X149782206Y-109382478D01*
X149782204Y-109382481D01*
X149773761Y-109389565D01*
X149756315Y-109419782D01*
X149754578Y-109422790D01*
X149748673Y-109432059D01*
X149732985Y-109454464D01*
X149732984Y-109454467D01*
X149726660Y-109463498D01*
X149723806Y-109474147D01*
X149722231Y-109477525D01*
X149720960Y-109481018D01*
X149715449Y-109490563D01*
X149713535Y-109501416D01*
X149713535Y-109501417D01*
X149708785Y-109528357D01*
X149706409Y-109539075D01*
X149696476Y-109576147D01*
X149697436Y-109587122D01*
X149697436Y-109587123D01*
X149699821Y-109614382D01*
X149700300Y-109625363D01*
X149700300Y-109661420D01*
X149689540Y-109712368D01*
X149680077Y-109733774D01*
X149678266Y-109749304D01*
X149677745Y-109753779D01*
X149677300Y-109757592D01*
X149677300Y-111137780D01*
X149657298Y-111205901D01*
X149603642Y-111252394D01*
X149551300Y-111263780D01*
X149502650Y-111263780D01*
X149434529Y-111243778D01*
X149413555Y-111226875D01*
X149193448Y-111006768D01*
X149186022Y-110998664D01*
X149168436Y-110977706D01*
X149168433Y-110977704D01*
X149161349Y-110969261D01*
X149128125Y-110950078D01*
X149118855Y-110944173D01*
X149096450Y-110928485D01*
X149096447Y-110928484D01*
X149087416Y-110922160D01*
X149076767Y-110919306D01*
X149073389Y-110917731D01*
X149069896Y-110916460D01*
X149060351Y-110910949D01*
X149049498Y-110909035D01*
X149049497Y-110909035D01*
X149038400Y-110907078D01*
X149022553Y-110904284D01*
X149011839Y-110901909D01*
X148974767Y-110891976D01*
X148963790Y-110892936D01*
X148952804Y-110891975D01*
X148953042Y-110889249D01*
X148899482Y-110878488D01*
X148845831Y-110824155D01*
X148815782Y-110765180D01*
X148815780Y-110765177D01*
X148811280Y-110756345D01*
X148716655Y-110661720D01*
X148597422Y-110600968D01*
X148587633Y-110599418D01*
X148587631Y-110599417D01*
X148558845Y-110594858D01*
X148498498Y-110585300D01*
X147919502Y-110585300D01*
X147859155Y-110594858D01*
X147830369Y-110599417D01*
X147830367Y-110599418D01*
X147820578Y-110600968D01*
X147701345Y-110661720D01*
X147606720Y-110756345D01*
X147601063Y-110767447D01*
X147557725Y-110852503D01*
X147508977Y-110904118D01*
X147445458Y-110921300D01*
X147383574Y-110921300D01*
X147315453Y-110901298D01*
X147267165Y-110843517D01*
X147263302Y-110834190D01*
X147260881Y-110822020D01*
X147253405Y-110810830D01*
X147224417Y-110767447D01*
X147215860Y-110754640D01*
X147148480Y-110709619D01*
X147089064Y-110697800D01*
X145988936Y-110697800D01*
X145929520Y-110709619D01*
X145862140Y-110754640D01*
X145817119Y-110822020D01*
X145805300Y-110881436D01*
X145805300Y-110981605D01*
X145785298Y-111049726D01*
X145731642Y-111096219D01*
X145661368Y-111106323D01*
X145596788Y-111076829D01*
X145564601Y-111033758D01*
X145550556Y-111002869D01*
X145544691Y-110996063D01*
X145543254Y-110993816D01*
X145539718Y-110987696D01*
X145538775Y-110986296D01*
X145535469Y-110979932D01*
X145531091Y-110974805D01*
X145500312Y-110944026D01*
X145493954Y-110937178D01*
X145465360Y-110903993D01*
X145465353Y-110903985D01*
X145464975Y-110903547D01*
X145464872Y-110903480D01*
X145458417Y-110896696D01*
X145458191Y-110896483D01*
X145452356Y-110889082D01*
X145444605Y-110883725D01*
X145444603Y-110883723D01*
X145403290Y-110855170D01*
X145400069Y-110852868D01*
X145359674Y-110823032D01*
X145359670Y-110823030D01*
X145352091Y-110817432D01*
X145345171Y-110815002D01*
X145339135Y-110810830D01*
X145330155Y-110807990D01*
X145330153Y-110807989D01*
X145282264Y-110792844D01*
X145278509Y-110791591D01*
X145231121Y-110774949D01*
X145231119Y-110774949D01*
X145222233Y-110771828D01*
X145215011Y-110771544D01*
X145214758Y-110771495D01*
X145207909Y-110769329D01*
X145201188Y-110768800D01*
X145147636Y-110768800D01*
X145142690Y-110768703D01*
X145084707Y-110766425D01*
X145083806Y-110766664D01*
X145018314Y-110755043D01*
X145004385Y-110746973D01*
X144958799Y-110716513D01*
X144958796Y-110716512D01*
X144948480Y-110709619D01*
X144889064Y-110697800D01*
X143788936Y-110697800D01*
X143729520Y-110709619D01*
X143719203Y-110716513D01*
X143719202Y-110716513D01*
X143672727Y-110747566D01*
X143602726Y-110768800D01*
X143560200Y-110768800D01*
X143492079Y-110748798D01*
X143445586Y-110695142D01*
X143434200Y-110642800D01*
X143434200Y-110291081D01*
X143439782Y-110255233D01*
X143442517Y-110249587D01*
X143464269Y-110120298D01*
X143464407Y-110109000D01*
X143462100Y-110092891D01*
X143472242Y-110022623D01*
X143518765Y-109968993D01*
X143586897Y-109949029D01*
X143655007Y-109969069D01*
X143677372Y-109990204D01*
X143678329Y-109989247D01*
X143768753Y-110079671D01*
X143882695Y-110137727D01*
X143892485Y-110139278D01*
X143892486Y-110139278D01*
X143918963Y-110143471D01*
X143977230Y-110152700D01*
X144440770Y-110152700D01*
X144499037Y-110143471D01*
X144525514Y-110139278D01*
X144525515Y-110139278D01*
X144535305Y-110137727D01*
X144649247Y-110079671D01*
X144739671Y-109989247D01*
X144797727Y-109875305D01*
X144812700Y-109780770D01*
X144812700Y-109341351D01*
X146857628Y-109341351D01*
X146858792Y-109350253D01*
X146858792Y-109350256D01*
X146865342Y-109400344D01*
X146874627Y-109471350D01*
X146927430Y-109591354D01*
X146956018Y-109625363D01*
X147003879Y-109682300D01*
X147011791Y-109691713D01*
X147019262Y-109696686D01*
X147019263Y-109696687D01*
X147035470Y-109707475D01*
X147120929Y-109764362D01*
X147192921Y-109786854D01*
X147237501Y-109800782D01*
X147237502Y-109800782D01*
X147246070Y-109803459D01*
X147310505Y-109804640D01*
X147368178Y-109805697D01*
X147368181Y-109805697D01*
X147377154Y-109805861D01*
X147429096Y-109791700D01*
X147494982Y-109773738D01*
X147494985Y-109773737D01*
X147503644Y-109771376D01*
X147520032Y-109761314D01*
X147607719Y-109707475D01*
X147607722Y-109707472D01*
X147615371Y-109702776D01*
X147625934Y-109691107D01*
X147673634Y-109638408D01*
X147703353Y-109605575D01*
X147707624Y-109596761D01*
X147756604Y-109495664D01*
X147756604Y-109495663D01*
X147760517Y-109487587D01*
X147761013Y-109484640D01*
X147799094Y-109428321D01*
X147864345Y-109400344D01*
X147893951Y-109400294D01*
X147907727Y-109401900D01*
X147914592Y-109402700D01*
X149322408Y-109402700D01*
X149326096Y-109402261D01*
X149326100Y-109402261D01*
X149337322Y-109400926D01*
X149337325Y-109400925D01*
X149346707Y-109399809D01*
X149395955Y-109377934D01*
X149430962Y-109362385D01*
X149430964Y-109362384D01*
X149441592Y-109357663D01*
X149454589Y-109344644D01*
X149488460Y-109310713D01*
X149514943Y-109284184D01*
X149556923Y-109189226D01*
X149559700Y-109165408D01*
X149559700Y-108932592D01*
X149558785Y-108924899D01*
X149557926Y-108917678D01*
X149557925Y-108917675D01*
X149556809Y-108908293D01*
X149524795Y-108836218D01*
X149519385Y-108824038D01*
X149519384Y-108824036D01*
X149514663Y-108813408D01*
X149496524Y-108795300D01*
X149467846Y-108766673D01*
X149441184Y-108740057D01*
X149346226Y-108698077D01*
X149330696Y-108696266D01*
X149326047Y-108695724D01*
X149326042Y-108695724D01*
X149322408Y-108695300D01*
X147914592Y-108695300D01*
X147910904Y-108695739D01*
X147910900Y-108695739D01*
X147899679Y-108697074D01*
X147899677Y-108697075D01*
X147890293Y-108698191D01*
X147869444Y-108707452D01*
X147818298Y-108718300D01*
X147637949Y-108718300D01*
X147626968Y-108717821D01*
X147599709Y-108715436D01*
X147599708Y-108715436D01*
X147588733Y-108714476D01*
X147551661Y-108724409D01*
X147540947Y-108726784D01*
X147525100Y-108729578D01*
X147514003Y-108731535D01*
X147514002Y-108731535D01*
X147503149Y-108733449D01*
X147493604Y-108738960D01*
X147490111Y-108740231D01*
X147486733Y-108741806D01*
X147476084Y-108744660D01*
X147467053Y-108750984D01*
X147467050Y-108750985D01*
X147444645Y-108766673D01*
X147435375Y-108772579D01*
X147414558Y-108784598D01*
X147402151Y-108791761D01*
X147395068Y-108800202D01*
X147395067Y-108800203D01*
X147377483Y-108821159D01*
X147370057Y-108829262D01*
X147347350Y-108851969D01*
X147285038Y-108885995D01*
X147275026Y-108887050D01*
X147275116Y-108887707D01*
X147266220Y-108888926D01*
X147257244Y-108888871D01*
X147131185Y-108924899D01*
X147020305Y-108994859D01*
X146933517Y-109093128D01*
X146929703Y-109101251D01*
X146929702Y-109101253D01*
X146923406Y-109114664D01*
X146877798Y-109211805D01*
X146874133Y-109235345D01*
X146859009Y-109332478D01*
X146859009Y-109332482D01*
X146857628Y-109341351D01*
X144812700Y-109341351D01*
X144812700Y-109167230D01*
X144797727Y-109072695D01*
X144739671Y-108958753D01*
X144649247Y-108868329D01*
X144562770Y-108824267D01*
X144511155Y-108775519D01*
X144494089Y-108706604D01*
X144516990Y-108639402D01*
X144562770Y-108599733D01*
X144629711Y-108565625D01*
X144649247Y-108555671D01*
X144739671Y-108465247D01*
X144797727Y-108351305D01*
X144800219Y-108335575D01*
X144808456Y-108283564D01*
X144812700Y-108256770D01*
X144812700Y-107643230D01*
X144801910Y-107575104D01*
X144799278Y-107558486D01*
X144799278Y-107558485D01*
X144797727Y-107548695D01*
X144739671Y-107434753D01*
X144649247Y-107344329D01*
X144562770Y-107300267D01*
X144511155Y-107251519D01*
X144494089Y-107182604D01*
X144516990Y-107115402D01*
X144562770Y-107075733D01*
X144640415Y-107036171D01*
X144649247Y-107031671D01*
X144739671Y-106941247D01*
X144797727Y-106827305D01*
X144799864Y-106813816D01*
X144805566Y-106777813D01*
X144812700Y-106732770D01*
X144812700Y-106119230D01*
X144797727Y-106024695D01*
X144739671Y-105910753D01*
X144649247Y-105820329D01*
X144562770Y-105776267D01*
X144511155Y-105727519D01*
X144494089Y-105658604D01*
X144516990Y-105591402D01*
X144562770Y-105551733D01*
X144640415Y-105512171D01*
X144649247Y-105507671D01*
X144739671Y-105417247D01*
X144797727Y-105303305D01*
X144800756Y-105284184D01*
X144805375Y-105255015D01*
X144812700Y-105208770D01*
X144812700Y-104595230D01*
X144800388Y-104517494D01*
X144799278Y-104510486D01*
X144799278Y-104510485D01*
X144797727Y-104500695D01*
X144739671Y-104386753D01*
X144649247Y-104296329D01*
X144640414Y-104291828D01*
X144640412Y-104291827D01*
X144608498Y-104275566D01*
X144556882Y-104226818D01*
X144539700Y-104163299D01*
X144539700Y-104147656D01*
X144559702Y-104079535D01*
X144608497Y-104035389D01*
X144680168Y-103998871D01*
X144716655Y-103980280D01*
X144811280Y-103885655D01*
X144872032Y-103766422D01*
X144876085Y-103740836D01*
X144878955Y-103722713D01*
X144887700Y-103667498D01*
X144887700Y-103088502D01*
X144872032Y-102989578D01*
X144811280Y-102870345D01*
X144781343Y-102840408D01*
X149677300Y-102840408D01*
X149680191Y-102864707D01*
X149688265Y-102882883D01*
X149698634Y-102945014D01*
X149697436Y-102958706D01*
X149697436Y-102958710D01*
X149696476Y-102969687D01*
X149706409Y-103006759D01*
X149708784Y-103017473D01*
X149715449Y-103055271D01*
X149720960Y-103064816D01*
X149722231Y-103068309D01*
X149723806Y-103071687D01*
X149726660Y-103082336D01*
X149732984Y-103091367D01*
X149732985Y-103091370D01*
X149748673Y-103113775D01*
X149754578Y-103123044D01*
X149773761Y-103156269D01*
X149782200Y-103163350D01*
X149782203Y-103163353D01*
X149803159Y-103180937D01*
X149811263Y-103188363D01*
X150200284Y-103577385D01*
X150220470Y-103606894D01*
X150221073Y-103606519D01*
X150225814Y-103614135D01*
X150229430Y-103622354D01*
X150313791Y-103722713D01*
X150321262Y-103727686D01*
X150321263Y-103727687D01*
X150341467Y-103741136D01*
X150422929Y-103795362D01*
X150512372Y-103823306D01*
X150539501Y-103831782D01*
X150539502Y-103831782D01*
X150548070Y-103834459D01*
X150612505Y-103835640D01*
X150670178Y-103836697D01*
X150670181Y-103836697D01*
X150679154Y-103836861D01*
X150747595Y-103818202D01*
X150796982Y-103804738D01*
X150796985Y-103804737D01*
X150805644Y-103802376D01*
X150817068Y-103795362D01*
X150909719Y-103738475D01*
X150909722Y-103738472D01*
X150917371Y-103733776D01*
X150923698Y-103726787D01*
X150999328Y-103643231D01*
X151005353Y-103636575D01*
X151016225Y-103614136D01*
X151058604Y-103526664D01*
X151058604Y-103526663D01*
X151062517Y-103518587D01*
X151084269Y-103389298D01*
X151084407Y-103378000D01*
X151065821Y-103248218D01*
X151062105Y-103240046D01*
X151060880Y-103235855D01*
X151060961Y-103164859D01*
X151099413Y-103105177D01*
X151153939Y-103081113D01*
X151153202Y-103078432D01*
X151162321Y-103075926D01*
X151171707Y-103074809D01*
X151206916Y-103059170D01*
X151255962Y-103037385D01*
X151255964Y-103037384D01*
X151266592Y-103032663D01*
X151339943Y-102959184D01*
X151381923Y-102864226D01*
X151384700Y-102840408D01*
X151384700Y-101432592D01*
X151381809Y-101408293D01*
X151362274Y-101364312D01*
X151344385Y-101324038D01*
X151344384Y-101324036D01*
X151339663Y-101313408D01*
X151266184Y-101240057D01*
X151171226Y-101198077D01*
X151155696Y-101196266D01*
X151151047Y-101195724D01*
X151151042Y-101195724D01*
X151147408Y-101195300D01*
X150914592Y-101195300D01*
X150910904Y-101195739D01*
X150910900Y-101195739D01*
X150899678Y-101197074D01*
X150899675Y-101197075D01*
X150890293Y-101198191D01*
X150881654Y-101202028D01*
X150881655Y-101202028D01*
X150806038Y-101235615D01*
X150806036Y-101235616D01*
X150795408Y-101240337D01*
X150722057Y-101313816D01*
X150680077Y-101408774D01*
X150677300Y-101432592D01*
X150677300Y-102795067D01*
X150657298Y-102863188D01*
X150603642Y-102909681D01*
X150568399Y-102919901D01*
X150568218Y-102919926D01*
X150559244Y-102919871D01*
X150550870Y-102922264D01*
X150480796Y-102911712D01*
X150444808Y-102886547D01*
X150421606Y-102863346D01*
X150387580Y-102801035D01*
X150384700Y-102774249D01*
X150384700Y-101432592D01*
X150381809Y-101408293D01*
X150362274Y-101364312D01*
X150344385Y-101324038D01*
X150344384Y-101324036D01*
X150339663Y-101313408D01*
X150266184Y-101240057D01*
X150171226Y-101198077D01*
X150155696Y-101196266D01*
X150151047Y-101195724D01*
X150151042Y-101195724D01*
X150147408Y-101195300D01*
X149914592Y-101195300D01*
X149910904Y-101195739D01*
X149910900Y-101195739D01*
X149899678Y-101197074D01*
X149899675Y-101197075D01*
X149890293Y-101198191D01*
X149881654Y-101202028D01*
X149881655Y-101202028D01*
X149806038Y-101235615D01*
X149806036Y-101235616D01*
X149795408Y-101240337D01*
X149722057Y-101313816D01*
X149680077Y-101408774D01*
X149677300Y-101432592D01*
X149677300Y-102840408D01*
X144781343Y-102840408D01*
X144716655Y-102775720D01*
X144597422Y-102714968D01*
X144587633Y-102713418D01*
X144587631Y-102713417D01*
X144556711Y-102708520D01*
X144498498Y-102699300D01*
X143994502Y-102699300D01*
X143936289Y-102708520D01*
X143905369Y-102713417D01*
X143905367Y-102713418D01*
X143895578Y-102714968D01*
X143776345Y-102775720D01*
X143681720Y-102870345D01*
X143620968Y-102989578D01*
X143605300Y-103088502D01*
X143605300Y-103667498D01*
X143614045Y-103722713D01*
X143616916Y-103740836D01*
X143620968Y-103766422D01*
X143681720Y-103885655D01*
X143776345Y-103980280D01*
X143803657Y-103994196D01*
X143809502Y-103997174D01*
X143861118Y-104045921D01*
X143878300Y-104109441D01*
X143878300Y-104163299D01*
X143858298Y-104231420D01*
X143809502Y-104275566D01*
X143777588Y-104291827D01*
X143777586Y-104291828D01*
X143768753Y-104296329D01*
X143678329Y-104386753D01*
X143620273Y-104500695D01*
X143618722Y-104510485D01*
X143618722Y-104510486D01*
X143617612Y-104517494D01*
X143605300Y-104595230D01*
X143605300Y-104942674D01*
X143585298Y-105010795D01*
X143531642Y-105057288D01*
X143461368Y-105067392D01*
X143396788Y-105037898D01*
X143383847Y-105024922D01*
X143311836Y-104941349D01*
X143305975Y-104934547D01*
X143292895Y-104926069D01*
X143203489Y-104868118D01*
X143203487Y-104868117D01*
X143195958Y-104863237D01*
X143070348Y-104825672D01*
X143061372Y-104825617D01*
X143061371Y-104825617D01*
X143006959Y-104825285D01*
X142939244Y-104824871D01*
X142813185Y-104860899D01*
X142805598Y-104865686D01*
X142805596Y-104865687D01*
X142783387Y-104879700D01*
X142702305Y-104930859D01*
X142615517Y-105029128D01*
X142559798Y-105147805D01*
X142555680Y-105174255D01*
X142545891Y-105237124D01*
X142515647Y-105301356D01*
X142510486Y-105306834D01*
X142246925Y-105570395D01*
X142184613Y-105604421D01*
X142157830Y-105607300D01*
X142051700Y-105607300D01*
X141983579Y-105587298D01*
X141937086Y-105533642D01*
X141925700Y-105481300D01*
X141925700Y-105267936D01*
X141914689Y-105212582D01*
X141914689Y-105163418D01*
X141924493Y-105114131D01*
X141925700Y-105108064D01*
X141925700Y-104767936D01*
X141913881Y-104708520D01*
X141906803Y-104697926D01*
X141881743Y-104660421D01*
X141868860Y-104641140D01*
X141835574Y-104618899D01*
X141811798Y-104603013D01*
X141811797Y-104603013D01*
X141801480Y-104596119D01*
X141742064Y-104584300D01*
X140451936Y-104584300D01*
X140405390Y-104593559D01*
X140334678Y-104587232D01*
X140278610Y-104543678D01*
X140254810Y-104470493D01*
X140254782Y-104463438D01*
X140254180Y-104315886D01*
X140254108Y-104298213D01*
X140273832Y-104230012D01*
X140327298Y-104183301D01*
X140380107Y-104171700D01*
X142042064Y-104171700D01*
X142101480Y-104159881D01*
X142168860Y-104114860D01*
X142213881Y-104047480D01*
X142225700Y-103988064D01*
X142225700Y-102767936D01*
X142213881Y-102708520D01*
X142168860Y-102641140D01*
X142123629Y-102610918D01*
X142111798Y-102603013D01*
X142111797Y-102603013D01*
X142101480Y-102596119D01*
X142042064Y-102584300D01*
X140372607Y-102584300D01*
X140304486Y-102564298D01*
X140257993Y-102510642D01*
X140246608Y-102458814D01*
X140246525Y-102438512D01*
X140243964Y-101810462D01*
X140245846Y-101793581D01*
X140245857Y-101787416D01*
X140249037Y-101773587D01*
X140245905Y-101759746D01*
X140245912Y-101756046D01*
X140246446Y-101744683D01*
X140257722Y-101622555D01*
X140261963Y-101599779D01*
X140300055Y-101465387D01*
X140308396Y-101443772D01*
X140315771Y-101428900D01*
X140352877Y-101354068D01*
X140370448Y-101318633D01*
X140382605Y-101298911D01*
X140466521Y-101187247D01*
X140482083Y-101170085D01*
X140585020Y-101075677D01*
X140603460Y-101061654D01*
X140721950Y-100987683D01*
X140742646Y-100977273D01*
X140872676Y-100926249D01*
X140894930Y-100919805D01*
X141032100Y-100893451D01*
X141055158Y-100891190D01*
X141074965Y-100891078D01*
X141178446Y-100890490D01*
X141190245Y-100890977D01*
G37*
%TD.AperFunction*%
%TD*%
M02*
