M48
; DRILL file {KiCad (6.0.1)} date Mon Jan 24 11:38:02 2022
; FORMAT={-:-/ absolute / inch / decimal}
; #@! TF.CreationDate,2022-01-24T11:38:02+08:00
; #@! TF.GenerationSoftware,Kicad,Pcbnew,(6.0.1)
; #@! TF.FileFunction,Plated,1,2,PTH
FMAT,2
INCH
; #@! TA.AperFunction,Plated,PTH,ViaDrill
T1C0.0120
; #@! TA.AperFunction,Plated,PTH,ComponentDrill
T2C0.0315
%
G90
G05
T1
X5.55Y-4.45
X5.6Y-4.0
X5.63Y-4.145
X5.63Y-4.335
X5.68Y-4.415
X5.7Y-4.0
X5.715Y-4.38
X5.7425Y-4.245
X5.77Y-4.38
X5.795Y-4.075
X5.795Y-4.115
X5.8Y-4.0
X5.8Y-4.305
X5.835Y-4.44
X5.91Y-4.155
X5.91Y-4.255
X5.9195Y-4.3024
X5.93Y-4.07
X5.97Y-4.155
X5.985Y-4.07
X6.005Y-4.445
X6.05Y-4.12
X6.05Y-4.23
X6.05Y-4.29
X6.11Y-4.13
X6.11Y-4.23
X6.11Y-4.29
X6.155Y-4.0
X6.185Y-4.445
X6.225Y-4.1125
X6.225Y-4.1675
X6.235Y-4.29
X6.3Y-4.445
X6.4Y-4.05
X6.4Y-4.15
X6.4Y-4.25
X6.5Y-4.0
X6.5Y-4.445
X6.58Y-4.29
X6.58Y-4.445
X6.585Y-4.14
X6.585Y-4.19
X6.59Y-4.24
X6.6Y-4.1
X6.7Y-4.1
X6.7Y-4.2
X6.7Y-4.3
T2
X6.355Y-4.115
X6.355Y-4.3071
T0
M30
