%TF.GenerationSoftware,KiCad,Pcbnew,(6.0.1)*%
%TF.CreationDate,2022-01-24T11:38:00+08:00*%
%TF.ProjectId,ST-Link_v2-1,53542d4c-696e-46b5-9f76-322d312e6b69,rev?*%
%TF.SameCoordinates,Original*%
%TF.FileFunction,Copper,L2,Bot*%
%TF.FilePolarity,Positive*%
%FSLAX46Y46*%
G04 Gerber Fmt 4.6, Leading zero omitted, Abs format (unit mm)*
G04 Created by KiCad (PCBNEW (6.0.1)) date 2022-01-24 11:38:00*
%MOMM*%
%LPD*%
G01*
G04 APERTURE LIST*
G04 Aperture macros list*
%AMRoundRect*
0 Rectangle with rounded corners*
0 $1 Rounding radius*
0 $2 $3 $4 $5 $6 $7 $8 $9 X,Y pos of 4 corners*
0 Add a 4 corners polygon primitive as box body*
4,1,4,$2,$3,$4,$5,$6,$7,$8,$9,$2,$3,0*
0 Add four circle primitives for the rounded corners*
1,1,$1+$1,$2,$3*
1,1,$1+$1,$4,$5*
1,1,$1+$1,$6,$7*
1,1,$1+$1,$8,$9*
0 Add four rect primitives between the rounded corners*
20,1,$1+$1,$2,$3,$4,$5,0*
20,1,$1+$1,$4,$5,$6,$7,0*
20,1,$1+$1,$6,$7,$8,$9,0*
20,1,$1+$1,$8,$9,$2,$3,0*%
G04 Aperture macros list end*
%TA.AperFunction,ComponentPad*%
%ADD10C,1.500000*%
%TD*%
%TA.AperFunction,SMDPad,CuDef*%
%ADD11R,1.850000X0.300000*%
%TD*%
%TA.AperFunction,SMDPad,CuDef*%
%ADD12R,1.250000X0.300000*%
%TD*%
%TA.AperFunction,SMDPad,CuDef*%
%ADD13R,1.850000X1.180000*%
%TD*%
%TA.AperFunction,SMDPad,CuDef*%
%ADD14RoundRect,0.200000X0.275000X-0.200000X0.275000X0.200000X-0.275000X0.200000X-0.275000X-0.200000X0*%
%TD*%
%TA.AperFunction,SMDPad,CuDef*%
%ADD15RoundRect,0.225000X0.250000X-0.225000X0.250000X0.225000X-0.250000X0.225000X-0.250000X-0.225000X0*%
%TD*%
%TA.AperFunction,SMDPad,CuDef*%
%ADD16RoundRect,0.225000X-0.250000X0.225000X-0.250000X-0.225000X0.250000X-0.225000X0.250000X0.225000X0*%
%TD*%
%TA.AperFunction,SMDPad,CuDef*%
%ADD17RoundRect,0.225000X0.225000X0.250000X-0.225000X0.250000X-0.225000X-0.250000X0.225000X-0.250000X0*%
%TD*%
%TA.AperFunction,SMDPad,CuDef*%
%ADD18RoundRect,0.200000X-0.275000X0.200000X-0.275000X-0.200000X0.275000X-0.200000X0.275000X0.200000X0*%
%TD*%
%TA.AperFunction,SMDPad,CuDef*%
%ADD19RoundRect,0.200000X0.200000X0.275000X-0.200000X0.275000X-0.200000X-0.275000X0.200000X-0.275000X0*%
%TD*%
%TA.AperFunction,SMDPad,CuDef*%
%ADD20RoundRect,0.200000X-0.200000X-0.275000X0.200000X-0.275000X0.200000X0.275000X-0.200000X0.275000X0*%
%TD*%
%TA.AperFunction,ViaPad*%
%ADD21C,0.508000*%
%TD*%
%TA.AperFunction,Conductor*%
%ADD22C,0.254000*%
%TD*%
%TA.AperFunction,Conductor*%
%ADD23C,0.508000*%
%TD*%
G04 APERTURE END LIST*
D10*
%TO.P,Y1,1,1*%
%TO.N,Net-(C3-Pad1)*%
X161417000Y-104521000D03*
%TO.P,Y1,2,2*%
%TO.N,Net-(C2-Pad1)*%
X161417000Y-109401000D03*
%TD*%
D11*
%TO.P,P1,B1,GND*%
%TO.N,GND*%
X141097000Y-104438000D03*
D12*
%TO.P,P1,B2*%
%TO.N,N/C*%
X141097000Y-104938000D03*
%TO.P,P1,B3*%
X141097000Y-105438000D03*
%TO.P,P1,B4,VBUS*%
%TO.N,+5V*%
X141097000Y-105938000D03*
%TO.P,P1,B5,VCONN*%
%TO.N,unconnected-(P1-PadB5)*%
X141097000Y-106438000D03*
%TO.P,P1,B6*%
%TO.N,N/C*%
X141097000Y-106938000D03*
%TO.P,P1,B7*%
X141097000Y-107438000D03*
%TO.P,P1,B8*%
X141097000Y-107938000D03*
%TO.P,P1,B9,VBUS*%
%TO.N,+5V*%
X141097000Y-108438000D03*
%TO.P,P1,B10*%
%TO.N,N/C*%
X141097000Y-108938000D03*
%TO.P,P1,B11*%
X141097000Y-109438000D03*
D11*
%TO.P,P1,B12,GND*%
%TO.N,GND*%
X141097000Y-109938000D03*
D13*
%TO.P,P1,S3*%
%TO.N,N/C*%
X141097000Y-110998000D03*
%TO.P,P1,S4*%
X141097000Y-103378000D03*
%TD*%
D14*
%TO.P,R16,1*%
%TO.N,+3V3*%
X145796000Y-109409000D03*
%TO.P,R16,2*%
%TO.N,/D+*%
X145796000Y-107759000D03*
%TD*%
D15*
%TO.P,C6,1*%
%TO.N,+3V3*%
X155194000Y-104915000D03*
%TO.P,C6,2*%
%TO.N,GND*%
X155194000Y-103365000D03*
%TD*%
D14*
%TO.P,R14,1*%
%TO.N,Net-(R14-Pad1)*%
X159639000Y-104457000D03*
%TO.P,R14,2*%
%TO.N,+3V3*%
X159639000Y-102807000D03*
%TD*%
D16*
%TO.P,C8,1*%
%TO.N,+5V*%
X145161000Y-111239000D03*
%TO.P,C8,2*%
%TO.N,GND*%
X145161000Y-112789000D03*
%TD*%
D17*
%TO.P,C4,1*%
%TO.N,+3V3*%
X150635000Y-103340000D03*
%TO.P,C4,2*%
%TO.N,GND*%
X149085000Y-103340000D03*
%TD*%
D18*
%TO.P,R3,1*%
%TO.N,GND*%
X148209000Y-111189000D03*
%TO.P,R3,2*%
%TO.N,Net-(D1-Pad1)*%
X148209000Y-112839000D03*
%TD*%
D14*
%TO.P,R19,1*%
%TO.N,/ST_SWCLK*%
X151638000Y-108013000D03*
%TO.P,R19,2*%
%TO.N,/JTCK*%
X151638000Y-106363000D03*
%TD*%
D15*
%TO.P,C2,1*%
%TO.N,Net-(C2-Pad1)*%
X163703000Y-109233000D03*
%TO.P,C2,2*%
%TO.N,GND*%
X163703000Y-107683000D03*
%TD*%
D18*
%TO.P,R1,1*%
%TO.N,/NRST*%
X158115000Y-105855000D03*
%TO.P,R1,2*%
%TO.N,+3V3*%
X158115000Y-107505000D03*
%TD*%
D19*
%TO.P,R9,1*%
%TO.N,Net-(R9-Pad1)*%
X158305000Y-108966000D03*
%TO.P,R9,2*%
%TO.N,GND*%
X156655000Y-108966000D03*
%TD*%
D16*
%TO.P,C1,1*%
%TO.N,/NRST*%
X159639000Y-105905000D03*
%TO.P,C1,2*%
%TO.N,GND*%
X159639000Y-107455000D03*
%TD*%
%TO.P,C3,1*%
%TO.N,Net-(C3-Pad1)*%
X163703000Y-104635000D03*
%TO.P,C3,2*%
%TO.N,GND*%
X163703000Y-106185000D03*
%TD*%
D19*
%TO.P,R4,1*%
%TO.N,/TXD*%
X154114000Y-112903000D03*
%TO.P,R4,2*%
%TO.N,Net-(D2-Pad1)*%
X152464000Y-112903000D03*
%TD*%
D14*
%TO.P,R6,1*%
%TO.N,Net-(R6-Pad1)*%
X153670000Y-109029000D03*
%TO.P,R6,2*%
%TO.N,GND*%
X153670000Y-107379000D03*
%TD*%
D18*
%TO.P,R15,1*%
%TO.N,GND*%
X158115000Y-102807000D03*
%TO.P,R15,2*%
%TO.N,Net-(R14-Pad1)*%
X158115000Y-104457000D03*
%TD*%
D20*
%TO.P,R7,1*%
%TO.N,Net-(R7-Pad1)*%
X152083000Y-103340000D03*
%TO.P,R7,2*%
%TO.N,GND*%
X153733000Y-103340000D03*
%TD*%
D15*
%TO.P,C7,1*%
%TO.N,+3V3*%
X147320000Y-109359000D03*
%TO.P,C7,2*%
%TO.N,GND*%
X147320000Y-107809000D03*
%TD*%
D14*
%TO.P,R20,1*%
%TO.N,/ST_SWDIO*%
X150114000Y-108013000D03*
%TO.P,R20,2*%
%TO.N,/JTMS*%
X150114000Y-106363000D03*
%TD*%
D18*
%TO.P,R2,1*%
%TO.N,Net-(R2-Pad1)*%
X145796000Y-103315000D03*
%TO.P,R2,2*%
%TO.N,/JTMS*%
X145796000Y-104965000D03*
%TD*%
D20*
%TO.P,R5,2*%
%TO.N,Net-(D3-Pad1)*%
X157162000Y-112903000D03*
%TO.P,R5,1*%
%TO.N,/RXD*%
X155512000Y-112903000D03*
%TD*%
D16*
%TO.P,C9,1*%
%TO.N,+3V3*%
X146685000Y-111239000D03*
%TO.P,C9,2*%
%TO.N,GND*%
X146685000Y-112789000D03*
%TD*%
D15*
%TO.P,C5,1*%
%TO.N,+3V3*%
X155194000Y-108979000D03*
%TO.P,C5,2*%
%TO.N,GND*%
X155194000Y-107429000D03*
%TD*%
D21*
%TO.N,GND*%
X160020000Y-112903000D03*
X167132000Y-112903000D03*
X165100000Y-112903000D03*
X165100000Y-101600000D03*
X162560000Y-105410000D03*
%TO.N,Net-(D2-Pad1)*%
X152527000Y-112903000D03*
%TO.N,Net-(D3-Pad1)*%
X157099000Y-112903000D03*
%TO.N,GND*%
X155194000Y-107442000D03*
X153670000Y-107442000D03*
%TO.N,/NRST*%
X158115000Y-105855000D03*
%TO.N,GND*%
X170180000Y-109220000D03*
X140970000Y-113030000D03*
X170180000Y-106680000D03*
X162560000Y-107950000D03*
X142240000Y-101600000D03*
X162560000Y-102870000D03*
X144272000Y-112141000D03*
X147320000Y-101600000D03*
X167640000Y-104140000D03*
X170180000Y-104140000D03*
X144780000Y-101600000D03*
X156337000Y-101600000D03*
X153670000Y-104648000D03*
%TO.N,+3V3*%
X155194000Y-104902000D03*
X150622000Y-103378000D03*
X147320000Y-109347000D03*
X155194000Y-108966000D03*
X146558000Y-111252000D03*
%TO.N,+5V*%
X145161000Y-111252000D03*
X143002000Y-105283000D03*
X143002000Y-110109000D03*
%TO.N,Net-(D1-Pad1)*%
X148209000Y-112776000D03*
%TO.N,/RXD*%
X167259000Y-105156000D03*
%TO.N,/TXD*%
X167259000Y-106426000D03*
%TO.N,/JTMS*%
X150114000Y-105537000D03*
X167386000Y-107696000D03*
X147193000Y-104521000D03*
%TO.N,/JTCK*%
X151638000Y-105537000D03*
X167132000Y-108966000D03*
%TO.N,Net-(R2-Pad1)*%
X147193000Y-103505000D03*
%TO.N,Net-(R6-Pad1)*%
X153670000Y-108966000D03*
%TO.N,Net-(R7-Pad1)*%
X152019000Y-103378000D03*
%TO.N,Net-(R9-Pad1)*%
X158369000Y-108966000D03*
%TO.N,Net-(R14-Pad1)*%
X158115000Y-104457000D03*
%TO.N,/D+*%
X145859000Y-107823000D03*
%TO.N,/ST_SWCLK*%
X150355193Y-109281221D03*
%TO.N,/ST_SWDIO*%
X150114000Y-108077000D03*
%TD*%
D22*
%TO.N,/JTMS*%
X149313480Y-107163520D02*
X150114000Y-106363000D01*
X149313480Y-109059061D02*
X149313480Y-107163520D01*
X150115151Y-109860732D02*
X149313480Y-109059061D01*
X152019772Y-109860732D02*
X150115151Y-109860732D01*
X168131960Y-109734120D02*
X166796559Y-111069520D01*
X166796559Y-111069520D02*
X153228559Y-111069519D01*
X153228559Y-111069519D02*
X152019772Y-109860732D01*
X168131960Y-108060960D02*
X168131960Y-109734120D01*
X167386000Y-107696000D02*
X167767000Y-107696000D01*
X167767000Y-107696000D02*
X168131960Y-108060960D01*
%TO.N,+3V3*%
X155194000Y-104915000D02*
X155194000Y-105918000D01*
X155334967Y-106058967D02*
X157239967Y-106058967D01*
X152979520Y-106058967D02*
X155334967Y-106058967D01*
X156655000Y-107505000D02*
X157289000Y-107505000D01*
X155929480Y-108230520D02*
X156655000Y-107505000D01*
X155929480Y-108865520D02*
X155929480Y-108230520D01*
X155816000Y-108979000D02*
X155929480Y-108865520D01*
X155194000Y-108979000D02*
X155816000Y-108979000D01*
X157239967Y-106058967D02*
X157289000Y-106108000D01*
X157289000Y-102414803D02*
X157289000Y-106108000D01*
X157289000Y-106108000D02*
X157289000Y-107505000D01*
%TO.N,/RXD*%
X166584559Y-111974559D02*
X155868440Y-111974560D01*
X155868440Y-111974560D02*
X155512000Y-112331000D01*
X166584560Y-111974560D02*
X166584559Y-111974559D01*
X155512000Y-112331000D02*
X155512000Y-112903000D01*
%TO.N,/TXD*%
X154542960Y-111522040D02*
X154114000Y-111951000D01*
X166984002Y-111522038D02*
X166365042Y-111522040D01*
X168584479Y-109921561D02*
X166984002Y-111522038D01*
X154114000Y-111951000D02*
X154114000Y-112903000D01*
X168584480Y-107243480D02*
X168584479Y-109921561D01*
X167767000Y-106426000D02*
X168584480Y-107243480D01*
X166365042Y-111522040D02*
X154542960Y-111522040D01*
X167259000Y-106426000D02*
X167767000Y-106426000D01*
%TO.N,/RXD*%
X167171440Y-111974560D02*
X166584560Y-111974560D01*
X169037000Y-106553000D02*
X169036998Y-110109002D01*
X167640000Y-105156000D02*
X169037000Y-106553000D01*
X167259000Y-105156000D02*
X167640000Y-105156000D01*
X169036998Y-110109002D02*
X167171440Y-111974560D01*
%TO.N,/JTCK*%
X152337000Y-106363000D02*
X151638000Y-106363000D01*
X153416000Y-110617000D02*
X152527000Y-109728000D01*
X166609120Y-110617000D02*
X153416000Y-110617000D01*
X167640000Y-109586120D02*
X166609120Y-110617000D01*
X167640000Y-109220000D02*
X167640000Y-109586120D01*
X167386000Y-108966000D02*
X167640000Y-109220000D01*
X152527000Y-109728000D02*
X152527000Y-106553000D01*
X167132000Y-108966000D02*
X167386000Y-108966000D01*
X152527000Y-106553000D02*
X152337000Y-106363000D01*
%TO.N,/NRST*%
X159589000Y-105855000D02*
X159639000Y-105905000D01*
X158115000Y-105855000D02*
X159589000Y-105855000D01*
%TO.N,Net-(C2-Pad1)*%
X163703000Y-109233000D02*
X161585000Y-109233000D01*
X161585000Y-109233000D02*
X161417000Y-109401000D01*
%TO.N,Net-(C3-Pad1)*%
X161531000Y-104635000D02*
X161417000Y-104521000D01*
X163703000Y-104635000D02*
X161531000Y-104635000D01*
%TO.N,+3V3*%
X148645480Y-106185967D02*
X148645481Y-106867441D01*
X150622000Y-103378000D02*
X150622000Y-104140000D01*
X157722803Y-101981000D02*
X157289000Y-102414803D01*
X159385000Y-101981000D02*
X157722803Y-101981000D01*
X151822553Y-104902000D02*
X150622000Y-104902000D01*
X147320000Y-109347000D02*
X146431000Y-109347000D01*
X159639000Y-102807000D02*
X159639000Y-102235000D01*
X159639000Y-102235000D02*
X159385000Y-101981000D01*
X146558000Y-111252000D02*
X146558000Y-110363000D01*
X158115000Y-107505000D02*
X157289000Y-107505000D01*
X152979520Y-106058967D02*
X151822553Y-104902000D01*
X146558000Y-109474000D02*
X146431000Y-109347000D01*
X148645481Y-106867441D02*
X148645481Y-109672519D01*
X146431000Y-109347000D02*
X145858000Y-109347000D01*
X150622000Y-104140000D02*
X150622000Y-104902000D01*
X146558000Y-110363000D02*
X146558000Y-110109000D01*
X147955000Y-110363000D02*
X146558000Y-110363000D01*
X148645481Y-109672519D02*
X147955000Y-110363000D01*
X145858000Y-109347000D02*
X145796000Y-109409000D01*
X149929447Y-104902000D02*
X148645480Y-106185967D01*
X146558000Y-110109000D02*
X146558000Y-109474000D01*
X150622000Y-104902000D02*
X149929447Y-104902000D01*
D23*
%TO.N,+5V*%
X142240000Y-105918000D02*
X143002000Y-105918000D01*
X143002000Y-109474000D02*
X143002000Y-106593000D01*
D22*
X141966000Y-108438000D02*
X143002000Y-109474000D01*
D23*
X143002000Y-105918000D02*
X143002000Y-106593000D01*
D22*
X141097000Y-105938000D02*
X142220000Y-105938000D01*
X141097000Y-108438000D02*
X141966000Y-108438000D01*
D23*
X143002000Y-105283000D02*
X143002000Y-105918000D01*
D22*
X142220000Y-105938000D02*
X142240000Y-105918000D01*
D23*
X143002000Y-109474000D02*
X143002000Y-110109000D01*
D22*
%TO.N,/JTMS*%
X146749000Y-104965000D02*
X147193000Y-104521000D01*
X145796000Y-104965000D02*
X146749000Y-104965000D01*
X150114000Y-105537000D02*
X150114000Y-106363000D01*
%TO.N,/JTCK*%
X151638000Y-105537000D02*
X151638000Y-106363000D01*
%TO.N,Net-(R2-Pad1)*%
X147003000Y-103315000D02*
X145796000Y-103315000D01*
X147193000Y-103505000D02*
X147003000Y-103315000D01*
%TO.N,Net-(R14-Pad1)*%
X158115000Y-104457000D02*
X159639000Y-104457000D01*
%TO.N,/ST_SWCLK*%
X150355193Y-109281221D02*
X150941779Y-109281221D01*
X151638000Y-108585000D02*
X151638000Y-108013000D01*
X150941779Y-109281221D02*
X151638000Y-108585000D01*
%TD*%
%TA.AperFunction,Conductor*%
%TO.N,GND*%
G36*
X141190245Y-100890977D02*
G01*
X141192154Y-100891146D01*
X141205655Y-100895506D01*
X141229123Y-100892291D01*
X141246426Y-100891125D01*
X159850947Y-100921355D01*
X169634551Y-100937252D01*
X169652906Y-100939350D01*
X169657808Y-100939359D01*
X169671636Y-100942538D01*
X169685473Y-100939407D01*
X169690770Y-100939416D01*
X169701518Y-100939894D01*
X169824218Y-100950630D01*
X169845838Y-100954442D01*
X169982783Y-100991136D01*
X170003422Y-100998648D01*
X170131910Y-101058563D01*
X170150930Y-101069545D01*
X170267065Y-101150863D01*
X170283890Y-101164981D01*
X170384131Y-101265222D01*
X170398249Y-101282047D01*
X170479567Y-101398182D01*
X170490549Y-101417202D01*
X170550464Y-101545690D01*
X170557976Y-101566329D01*
X170594670Y-101703274D01*
X170598483Y-101724903D01*
X170609281Y-101848316D01*
X170609761Y-101859521D01*
X170609755Y-101862917D01*
X170606574Y-101876748D01*
X170609706Y-101890589D01*
X170609695Y-101896637D01*
X170611536Y-101913659D01*
X170531285Y-113246348D01*
X170528984Y-113266000D01*
X170528977Y-113269806D01*
X170525797Y-113283636D01*
X170528929Y-113297477D01*
X170528920Y-113302768D01*
X170528441Y-113313519D01*
X170524141Y-113362660D01*
X170517706Y-113436210D01*
X170513893Y-113457838D01*
X170477199Y-113594783D01*
X170469687Y-113615422D01*
X170409772Y-113743910D01*
X170398790Y-113762930D01*
X170317472Y-113879065D01*
X170303354Y-113895890D01*
X170203113Y-113996131D01*
X170186288Y-114010249D01*
X170070153Y-114091567D01*
X170051133Y-114102549D01*
X169922645Y-114162464D01*
X169902006Y-114169976D01*
X169765061Y-114206670D01*
X169743432Y-114210483D01*
X169650958Y-114218574D01*
X169621231Y-114221175D01*
X169620019Y-114221281D01*
X169608814Y-114221761D01*
X169605418Y-114221755D01*
X169591587Y-114218574D01*
X169577746Y-114221706D01*
X169573228Y-114221698D01*
X169554414Y-114223800D01*
X141261391Y-114223800D01*
X141243449Y-114221763D01*
X141238192Y-114221754D01*
X141224364Y-114218574D01*
X141210523Y-114221706D01*
X141206564Y-114221699D01*
X141195308Y-114221175D01*
X141120871Y-114214366D01*
X141064966Y-114209252D01*
X141042390Y-114205087D01*
X140899729Y-114165040D01*
X140878284Y-114156848D01*
X140745260Y-114091583D01*
X140725657Y-114079636D01*
X140632183Y-114010249D01*
X140606676Y-113991314D01*
X140589569Y-113976011D01*
X140488588Y-113867569D01*
X140474545Y-113849421D01*
X140394917Y-113724459D01*
X140384395Y-113704057D01*
X140361954Y-113648660D01*
X140328760Y-113566719D01*
X140322116Y-113544747D01*
X140315635Y-113513171D01*
X140295667Y-113415885D01*
X140293849Y-113404323D01*
X140293615Y-113402192D01*
X140295241Y-113388091D01*
X140291325Y-113376798D01*
X140291108Y-113372983D01*
X140289876Y-113070770D01*
X147530300Y-113070770D01*
X147545273Y-113165305D01*
X147603329Y-113279247D01*
X147693753Y-113369671D01*
X147807695Y-113427727D01*
X147817485Y-113429278D01*
X147817486Y-113429278D01*
X147842711Y-113433273D01*
X147902230Y-113442700D01*
X148515770Y-113442700D01*
X148575289Y-113433273D01*
X148600514Y-113429278D01*
X148600515Y-113429278D01*
X148610305Y-113427727D01*
X148724247Y-113369671D01*
X148814671Y-113279247D01*
X148850071Y-113209770D01*
X151860300Y-113209770D01*
X151867718Y-113256603D01*
X151872415Y-113286258D01*
X151875273Y-113304305D01*
X151933329Y-113418247D01*
X152023753Y-113508671D01*
X152137695Y-113566727D01*
X152147485Y-113568278D01*
X152147486Y-113568278D01*
X152173963Y-113572471D01*
X152232230Y-113581700D01*
X152695770Y-113581700D01*
X152754037Y-113572471D01*
X152780514Y-113568278D01*
X152780515Y-113568278D01*
X152790305Y-113566727D01*
X152904247Y-113508671D01*
X152994671Y-113418247D01*
X153052727Y-113304305D01*
X153055586Y-113286258D01*
X153060282Y-113256603D01*
X153067700Y-113209770D01*
X153067700Y-112596230D01*
X153052727Y-112501695D01*
X152994671Y-112387753D01*
X152904247Y-112297329D01*
X152790305Y-112239273D01*
X152780515Y-112237722D01*
X152780514Y-112237722D01*
X152743116Y-112231799D01*
X152695770Y-112224300D01*
X152232230Y-112224300D01*
X152184884Y-112231799D01*
X152147486Y-112237722D01*
X152147485Y-112237722D01*
X152137695Y-112239273D01*
X152023753Y-112297329D01*
X151933329Y-112387753D01*
X151875273Y-112501695D01*
X151860300Y-112596230D01*
X151860300Y-113209770D01*
X148850071Y-113209770D01*
X148872727Y-113165305D01*
X148887700Y-113070770D01*
X148887700Y-112607230D01*
X148872727Y-112512695D01*
X148814671Y-112398753D01*
X148724247Y-112308329D01*
X148610305Y-112250273D01*
X148600515Y-112248722D01*
X148600514Y-112248722D01*
X148569272Y-112243774D01*
X148515770Y-112235300D01*
X147902230Y-112235300D01*
X147848728Y-112243774D01*
X147817486Y-112248722D01*
X147817485Y-112248722D01*
X147807695Y-112250273D01*
X147693753Y-112308329D01*
X147603329Y-112398753D01*
X147545273Y-112512695D01*
X147530300Y-112607230D01*
X147530300Y-113070770D01*
X140289876Y-113070770D01*
X140285177Y-111918214D01*
X140304901Y-111850012D01*
X140358367Y-111803301D01*
X140411176Y-111791700D01*
X142042064Y-111791700D01*
X142101480Y-111779881D01*
X142168860Y-111734860D01*
X142213881Y-111667480D01*
X142225700Y-111608064D01*
X142225700Y-110962775D01*
X144482300Y-110962775D01*
X144482301Y-111515224D01*
X144485137Y-111545238D01*
X144487682Y-111552485D01*
X144524729Y-111657979D01*
X144527850Y-111666867D01*
X144604440Y-111770560D01*
X144708133Y-111847150D01*
X144717016Y-111850270D01*
X144717019Y-111850271D01*
X144822520Y-111887320D01*
X144822522Y-111887320D01*
X144829762Y-111889863D01*
X144837402Y-111890585D01*
X144837406Y-111890586D01*
X144851954Y-111891961D01*
X144859775Y-111892700D01*
X145160796Y-111892700D01*
X145462224Y-111892699D01*
X145465172Y-111892420D01*
X145465181Y-111892420D01*
X145484588Y-111890586D01*
X145484589Y-111890586D01*
X145492238Y-111889863D01*
X145540992Y-111872742D01*
X145604981Y-111850271D01*
X145604984Y-111850270D01*
X145613867Y-111847150D01*
X145717560Y-111770560D01*
X145794150Y-111666867D01*
X145797271Y-111657981D01*
X145797272Y-111657979D01*
X145804117Y-111638486D01*
X145845560Y-111580840D01*
X145911590Y-111554752D01*
X145981242Y-111568503D01*
X146032403Y-111617728D01*
X146041883Y-111638486D01*
X146048728Y-111657979D01*
X146048729Y-111657981D01*
X146051850Y-111666867D01*
X146128440Y-111770560D01*
X146232133Y-111847150D01*
X146241016Y-111850270D01*
X146241019Y-111850271D01*
X146346520Y-111887320D01*
X146346522Y-111887320D01*
X146353762Y-111889863D01*
X146361402Y-111890585D01*
X146361406Y-111890586D01*
X146375954Y-111891961D01*
X146383775Y-111892700D01*
X146684796Y-111892700D01*
X146986224Y-111892699D01*
X146989172Y-111892420D01*
X146989181Y-111892420D01*
X147008588Y-111890586D01*
X147008589Y-111890586D01*
X147016238Y-111889863D01*
X147064992Y-111872742D01*
X147128981Y-111850271D01*
X147128984Y-111850270D01*
X147137867Y-111847150D01*
X147241560Y-111770560D01*
X147318150Y-111666867D01*
X147321272Y-111657979D01*
X147358320Y-111552480D01*
X147358320Y-111552478D01*
X147360863Y-111545238D01*
X147361587Y-111537588D01*
X147362961Y-111523046D01*
X147363700Y-111515225D01*
X147363699Y-110962776D01*
X147360863Y-110932762D01*
X147358320Y-110925520D01*
X147358318Y-110925512D01*
X147335820Y-110861448D01*
X147332122Y-110790548D01*
X147367342Y-110728903D01*
X147430299Y-110696086D01*
X147454703Y-110693700D01*
X147935051Y-110693700D01*
X147946032Y-110694179D01*
X147973291Y-110696564D01*
X147973292Y-110696564D01*
X147984267Y-110697524D01*
X148021339Y-110687591D01*
X148032053Y-110685216D01*
X148047900Y-110682422D01*
X148058997Y-110680465D01*
X148058998Y-110680465D01*
X148069851Y-110678551D01*
X148079396Y-110673040D01*
X148082889Y-110671769D01*
X148086267Y-110670194D01*
X148096916Y-110667340D01*
X148105947Y-110661016D01*
X148105950Y-110661015D01*
X148128355Y-110645327D01*
X148137624Y-110639422D01*
X148146287Y-110634420D01*
X148170849Y-110620239D01*
X148195517Y-110590841D01*
X148202943Y-110582737D01*
X148865225Y-109920456D01*
X148873328Y-109913031D01*
X148894278Y-109895452D01*
X148894279Y-109895451D01*
X148902720Y-109888368D01*
X148921902Y-109855144D01*
X148927808Y-109845874D01*
X148943496Y-109823469D01*
X148943497Y-109823466D01*
X148949821Y-109814435D01*
X148952675Y-109803786D01*
X148954250Y-109800408D01*
X148955521Y-109796915D01*
X148961032Y-109787370D01*
X148967697Y-109749572D01*
X148970072Y-109738858D01*
X148980005Y-109701786D01*
X148977907Y-109677798D01*
X148976660Y-109663551D01*
X148976181Y-109652570D01*
X148976181Y-109493632D01*
X148996183Y-109425511D01*
X149049839Y-109379018D01*
X149120113Y-109368914D01*
X149184693Y-109398408D01*
X149191276Y-109404537D01*
X149867203Y-110080464D01*
X149874629Y-110088568D01*
X149892215Y-110109526D01*
X149892218Y-110109528D01*
X149899302Y-110117971D01*
X149929955Y-110135669D01*
X149932527Y-110137154D01*
X149941796Y-110143059D01*
X149964201Y-110158747D01*
X149964204Y-110158748D01*
X149973235Y-110165072D01*
X149983884Y-110167926D01*
X149987262Y-110169501D01*
X149990755Y-110170772D01*
X150000300Y-110176283D01*
X150011153Y-110178197D01*
X150011154Y-110178197D01*
X150022251Y-110180154D01*
X150038098Y-110182948D01*
X150048812Y-110185323D01*
X150085884Y-110195256D01*
X150096859Y-110194296D01*
X150096860Y-110194296D01*
X150124119Y-110191911D01*
X150135100Y-110191432D01*
X151830602Y-110191432D01*
X151898723Y-110211434D01*
X151919697Y-110228337D01*
X152980611Y-111289251D01*
X152988037Y-111297355D01*
X153005623Y-111318313D01*
X153005626Y-111318315D01*
X153012710Y-111326758D01*
X153044542Y-111345137D01*
X153045935Y-111345941D01*
X153055204Y-111351846D01*
X153077609Y-111367534D01*
X153077612Y-111367535D01*
X153086643Y-111373859D01*
X153097292Y-111376713D01*
X153100670Y-111378288D01*
X153104163Y-111379559D01*
X153113708Y-111385070D01*
X153124561Y-111386984D01*
X153124562Y-111386984D01*
X153135659Y-111388941D01*
X153151506Y-111391735D01*
X153162220Y-111394110D01*
X153199292Y-111404043D01*
X153210267Y-111403083D01*
X153210268Y-111403083D01*
X153237527Y-111400698D01*
X153248508Y-111400219D01*
X153892911Y-111400219D01*
X153961032Y-111420221D01*
X154007525Y-111473877D01*
X154017629Y-111544151D01*
X153988135Y-111608731D01*
X153982006Y-111615314D01*
X153894268Y-111703052D01*
X153886164Y-111710478D01*
X153865206Y-111728064D01*
X153865204Y-111728067D01*
X153856761Y-111735151D01*
X153840688Y-111762989D01*
X153837578Y-111768376D01*
X153831673Y-111777645D01*
X153815985Y-111800050D01*
X153815984Y-111800053D01*
X153809660Y-111809084D01*
X153806806Y-111819733D01*
X153805231Y-111823111D01*
X153803960Y-111826604D01*
X153798449Y-111836149D01*
X153796535Y-111847002D01*
X153796535Y-111847003D01*
X153791785Y-111873943D01*
X153789409Y-111884661D01*
X153779476Y-111921733D01*
X153780436Y-111932708D01*
X153780436Y-111932709D01*
X153782821Y-111959968D01*
X153783300Y-111970949D01*
X153783300Y-112164299D01*
X153763298Y-112232420D01*
X153714502Y-112276566D01*
X153682588Y-112292827D01*
X153682586Y-112292828D01*
X153673753Y-112297329D01*
X153583329Y-112387753D01*
X153525273Y-112501695D01*
X153510300Y-112596230D01*
X153510300Y-113209770D01*
X153517718Y-113256603D01*
X153522415Y-113286258D01*
X153525273Y-113304305D01*
X153583329Y-113418247D01*
X153673753Y-113508671D01*
X153787695Y-113566727D01*
X153797485Y-113568278D01*
X153797486Y-113568278D01*
X153823963Y-113572471D01*
X153882230Y-113581700D01*
X154345770Y-113581700D01*
X154404037Y-113572471D01*
X154430514Y-113568278D01*
X154430515Y-113568278D01*
X154440305Y-113566727D01*
X154554247Y-113508671D01*
X154644671Y-113418247D01*
X154654287Y-113399376D01*
X154700733Y-113308219D01*
X154749481Y-113256603D01*
X154818396Y-113239537D01*
X154885597Y-113262437D01*
X154925267Y-113308219D01*
X154971714Y-113399376D01*
X154981329Y-113418247D01*
X155071753Y-113508671D01*
X155185695Y-113566727D01*
X155195485Y-113568278D01*
X155195486Y-113568278D01*
X155221963Y-113572471D01*
X155280230Y-113581700D01*
X155743770Y-113581700D01*
X155802037Y-113572471D01*
X155828514Y-113568278D01*
X155828515Y-113568278D01*
X155838305Y-113566727D01*
X155952247Y-113508671D01*
X156042671Y-113418247D01*
X156100727Y-113304305D01*
X156103586Y-113286258D01*
X156108282Y-113256603D01*
X156115700Y-113209770D01*
X156115700Y-112596230D01*
X156100727Y-112501695D01*
X156093985Y-112488463D01*
X156080881Y-112418686D01*
X156107581Y-112352901D01*
X156165609Y-112311995D01*
X156206252Y-112305260D01*
X156467748Y-112305260D01*
X156535869Y-112325262D01*
X156582362Y-112378918D01*
X156592466Y-112449192D01*
X156580015Y-112488463D01*
X156573273Y-112501695D01*
X156558300Y-112596230D01*
X156558300Y-113209770D01*
X156565718Y-113256603D01*
X156570415Y-113286258D01*
X156573273Y-113304305D01*
X156631329Y-113418247D01*
X156721753Y-113508671D01*
X156835695Y-113566727D01*
X156845485Y-113568278D01*
X156845486Y-113568278D01*
X156871963Y-113572471D01*
X156930230Y-113581700D01*
X157393770Y-113581700D01*
X157452037Y-113572471D01*
X157478514Y-113568278D01*
X157478515Y-113568278D01*
X157488305Y-113566727D01*
X157602247Y-113508671D01*
X157692671Y-113418247D01*
X157750727Y-113304305D01*
X157753586Y-113286258D01*
X157758282Y-113256603D01*
X157765700Y-113209770D01*
X157765700Y-112596230D01*
X157750727Y-112501695D01*
X157743985Y-112488463D01*
X157730881Y-112418686D01*
X157757581Y-112352901D01*
X157815609Y-112311995D01*
X157856252Y-112305260D01*
X166093603Y-112305259D01*
X166528043Y-112305259D01*
X166539025Y-112305739D01*
X166544649Y-112306231D01*
X166555293Y-112309083D01*
X166566268Y-112308123D01*
X166566269Y-112308123D01*
X166593517Y-112305739D01*
X166604498Y-112305260D01*
X167151491Y-112305260D01*
X167162472Y-112305739D01*
X167189731Y-112308124D01*
X167189732Y-112308124D01*
X167200707Y-112309084D01*
X167237779Y-112299151D01*
X167248493Y-112296776D01*
X167270888Y-112292827D01*
X167275437Y-112292025D01*
X167275438Y-112292025D01*
X167286291Y-112290111D01*
X167295836Y-112284600D01*
X167299329Y-112283329D01*
X167302707Y-112281754D01*
X167313356Y-112278900D01*
X167322387Y-112272576D01*
X167322390Y-112272575D01*
X167344795Y-112256887D01*
X167354064Y-112250982D01*
X167366548Y-112243774D01*
X167387289Y-112231799D01*
X167394373Y-112223356D01*
X167394376Y-112223354D01*
X167411962Y-112202396D01*
X167419388Y-112194292D01*
X169256730Y-110356950D01*
X169264834Y-110349524D01*
X169285791Y-110331939D01*
X169285794Y-110331936D01*
X169294237Y-110324851D01*
X169313424Y-110291619D01*
X169319320Y-110282363D01*
X169341338Y-110250919D01*
X169344192Y-110240267D01*
X169345768Y-110236888D01*
X169347038Y-110233398D01*
X169352549Y-110223853D01*
X169354969Y-110210132D01*
X169359215Y-110186049D01*
X169361594Y-110175320D01*
X169368669Y-110148915D01*
X169368669Y-110148913D01*
X169371521Y-110138269D01*
X169370369Y-110125092D01*
X169368177Y-110100046D01*
X169367698Y-110089065D01*
X169367699Y-109212582D01*
X169367699Y-107459183D01*
X169367700Y-106572940D01*
X169368179Y-106561960D01*
X169370563Y-106534710D01*
X169370563Y-106534709D01*
X169371523Y-106523733D01*
X169361596Y-106486682D01*
X169359217Y-106475953D01*
X169354465Y-106449003D01*
X169354465Y-106449002D01*
X169352551Y-106438149D01*
X169347040Y-106428604D01*
X169345770Y-106425114D01*
X169344194Y-106421735D01*
X169341340Y-106411083D01*
X169319322Y-106379639D01*
X169313426Y-106370383D01*
X169299751Y-106346698D01*
X169294239Y-106337151D01*
X169285796Y-106330066D01*
X169285793Y-106330063D01*
X169264836Y-106312478D01*
X169256732Y-106305052D01*
X167887948Y-104936268D01*
X167880522Y-104928164D01*
X167862936Y-104907206D01*
X167862933Y-104907204D01*
X167855849Y-104898761D01*
X167822625Y-104879578D01*
X167813355Y-104873673D01*
X167790950Y-104857985D01*
X167790947Y-104857984D01*
X167781916Y-104851660D01*
X167771267Y-104848806D01*
X167767889Y-104847231D01*
X167764396Y-104845960D01*
X167754851Y-104840449D01*
X167743998Y-104838535D01*
X167743997Y-104838535D01*
X167732900Y-104836578D01*
X167717053Y-104833784D01*
X167706339Y-104831409D01*
X167669267Y-104821476D01*
X167658292Y-104822436D01*
X167658291Y-104822436D01*
X167637708Y-104824237D01*
X167568104Y-104810248D01*
X167558194Y-104804448D01*
X167460489Y-104741118D01*
X167460487Y-104741117D01*
X167452958Y-104736237D01*
X167327348Y-104698672D01*
X167318372Y-104698617D01*
X167318371Y-104698617D01*
X167263959Y-104698285D01*
X167196244Y-104697871D01*
X167070185Y-104733899D01*
X167062598Y-104738686D01*
X167062596Y-104738687D01*
X167006434Y-104774123D01*
X166959305Y-104803859D01*
X166872517Y-104902128D01*
X166868703Y-104910251D01*
X166868702Y-104910253D01*
X166854418Y-104940678D01*
X166816798Y-105020805D01*
X166809069Y-105070444D01*
X166798009Y-105141478D01*
X166798009Y-105141482D01*
X166796628Y-105150351D01*
X166797792Y-105159253D01*
X166797792Y-105159256D01*
X166802359Y-105194181D01*
X166813627Y-105280350D01*
X166866430Y-105400354D01*
X166950791Y-105500713D01*
X167059929Y-105573362D01*
X167118033Y-105591515D01*
X167176501Y-105609782D01*
X167176502Y-105609782D01*
X167185070Y-105612459D01*
X167249505Y-105613640D01*
X167307178Y-105614697D01*
X167307181Y-105614697D01*
X167316154Y-105614861D01*
X167375205Y-105598762D01*
X167433985Y-105582737D01*
X167433987Y-105582736D01*
X167442644Y-105580376D01*
X167450294Y-105575679D01*
X167453370Y-105573791D01*
X167456827Y-105572853D01*
X167458534Y-105572114D01*
X167458641Y-105572360D01*
X167521887Y-105555194D01*
X167589582Y-105576592D01*
X167608392Y-105592072D01*
X167894983Y-105878663D01*
X167929009Y-105940975D01*
X167923944Y-106011790D01*
X167881397Y-106068626D01*
X167814877Y-106093437D01*
X167803240Y-106093344D01*
X167796267Y-106091476D01*
X167758875Y-106094747D01*
X167758032Y-106094821D01*
X167747051Y-106095300D01*
X167627628Y-106095300D01*
X167559095Y-106075032D01*
X167460489Y-106011118D01*
X167460487Y-106011117D01*
X167452958Y-106006237D01*
X167327348Y-105968672D01*
X167318372Y-105968617D01*
X167318371Y-105968617D01*
X167263959Y-105968285D01*
X167196244Y-105967871D01*
X167070185Y-106003899D01*
X167062598Y-106008686D01*
X167062596Y-106008687D01*
X167031233Y-106028476D01*
X166959305Y-106073859D01*
X166953363Y-106080587D01*
X166942834Y-106092509D01*
X166872517Y-106172128D01*
X166868703Y-106180251D01*
X166868702Y-106180253D01*
X166859238Y-106200411D01*
X166816798Y-106290805D01*
X166813973Y-106308951D01*
X166798009Y-106411478D01*
X166798009Y-106411482D01*
X166796628Y-106420351D01*
X166797792Y-106429253D01*
X166797792Y-106429256D01*
X166802042Y-106461753D01*
X166813627Y-106550350D01*
X166866430Y-106670354D01*
X166950791Y-106770713D01*
X166958262Y-106775686D01*
X166958263Y-106775687D01*
X166970200Y-106783633D01*
X167059929Y-106843362D01*
X167149372Y-106871306D01*
X167176501Y-106879782D01*
X167176502Y-106879782D01*
X167185070Y-106882459D01*
X167249505Y-106883640D01*
X167307178Y-106884697D01*
X167307181Y-106884697D01*
X167316154Y-106884861D01*
X167357547Y-106873576D01*
X167433982Y-106852738D01*
X167433985Y-106852737D01*
X167442644Y-106850376D01*
X167461977Y-106838506D01*
X167532055Y-106795478D01*
X167600572Y-106776880D01*
X167668268Y-106798277D01*
X167687078Y-106813758D01*
X168078254Y-107204934D01*
X168112280Y-107267246D01*
X168107215Y-107338061D01*
X168064668Y-107394897D01*
X167998148Y-107419708D01*
X167928774Y-107404617D01*
X167918498Y-107398241D01*
X167917949Y-107397985D01*
X167908916Y-107391660D01*
X167898267Y-107388806D01*
X167894889Y-107387231D01*
X167891396Y-107385960D01*
X167881851Y-107380449D01*
X167870998Y-107378535D01*
X167870997Y-107378535D01*
X167859900Y-107376578D01*
X167844053Y-107373784D01*
X167833339Y-107371409D01*
X167796267Y-107361476D01*
X167785292Y-107362436D01*
X167785291Y-107362436D01*
X167764708Y-107364237D01*
X167695104Y-107350248D01*
X167685194Y-107344448D01*
X167587489Y-107281118D01*
X167587487Y-107281117D01*
X167579958Y-107276237D01*
X167454348Y-107238672D01*
X167445372Y-107238617D01*
X167445371Y-107238617D01*
X167390959Y-107238285D01*
X167323244Y-107237871D01*
X167197185Y-107273899D01*
X167189598Y-107278686D01*
X167189596Y-107278687D01*
X167185339Y-107281373D01*
X167086305Y-107343859D01*
X166999517Y-107442128D01*
X166995703Y-107450251D01*
X166995702Y-107450253D01*
X166977351Y-107489340D01*
X166943798Y-107560805D01*
X166942417Y-107569677D01*
X166925009Y-107681478D01*
X166925009Y-107681482D01*
X166923628Y-107690351D01*
X166924792Y-107699253D01*
X166924792Y-107699256D01*
X166926535Y-107712582D01*
X166940627Y-107820350D01*
X166993430Y-107940354D01*
X167077791Y-108040713D01*
X167085262Y-108045686D01*
X167085263Y-108045687D01*
X167102506Y-108057165D01*
X167186929Y-108113362D01*
X167276372Y-108141306D01*
X167303501Y-108149782D01*
X167303502Y-108149782D01*
X167312070Y-108152459D01*
X167376505Y-108153640D01*
X167434178Y-108154697D01*
X167434181Y-108154697D01*
X167443154Y-108154861D01*
X167497719Y-108139985D01*
X167560985Y-108122737D01*
X167560987Y-108122736D01*
X167569644Y-108120376D01*
X167577310Y-108115669D01*
X167580370Y-108113791D01*
X167583827Y-108112853D01*
X167585534Y-108112114D01*
X167585641Y-108112360D01*
X167648887Y-108095194D01*
X167716582Y-108116592D01*
X167735392Y-108132072D01*
X167764355Y-108161035D01*
X167798381Y-108223347D01*
X167801260Y-108250130D01*
X167801260Y-108608378D01*
X167781258Y-108676499D01*
X167727602Y-108722992D01*
X167657328Y-108733096D01*
X167602065Y-108708386D01*
X167601849Y-108708761D01*
X167598227Y-108706670D01*
X167568625Y-108689578D01*
X167559355Y-108683673D01*
X167536950Y-108667985D01*
X167536947Y-108667984D01*
X167527916Y-108661660D01*
X167517267Y-108658806D01*
X167513895Y-108657234D01*
X167510400Y-108655962D01*
X167500851Y-108650449D01*
X167489993Y-108648534D01*
X167479636Y-108644765D01*
X167480835Y-108641471D01*
X167439598Y-108621752D01*
X167435975Y-108617547D01*
X167425026Y-108610450D01*
X167333489Y-108551118D01*
X167333487Y-108551117D01*
X167325958Y-108546237D01*
X167200348Y-108508672D01*
X167191372Y-108508617D01*
X167191371Y-108508617D01*
X167136959Y-108508285D01*
X167069244Y-108507871D01*
X166943185Y-108543899D01*
X166935598Y-108548686D01*
X166935596Y-108548687D01*
X166886634Y-108579580D01*
X166832305Y-108613859D01*
X166745517Y-108712128D01*
X166741703Y-108720251D01*
X166741702Y-108720253D01*
X166733181Y-108738403D01*
X166689798Y-108830805D01*
X166683590Y-108870677D01*
X166671009Y-108951478D01*
X166671009Y-108951482D01*
X166669628Y-108960351D01*
X166670792Y-108969253D01*
X166670792Y-108969256D01*
X166675785Y-109007436D01*
X166686627Y-109090350D01*
X166739430Y-109210354D01*
X166823791Y-109310713D01*
X166831262Y-109315686D01*
X166831263Y-109315687D01*
X166840026Y-109321520D01*
X166932929Y-109383362D01*
X167058070Y-109422459D01*
X167058965Y-109422475D01*
X167119345Y-109451360D01*
X167156659Y-109511760D01*
X167155395Y-109582746D01*
X167124245Y-109634195D01*
X166509045Y-110249395D01*
X166446733Y-110283421D01*
X166419950Y-110286300D01*
X162187943Y-110286300D01*
X162119822Y-110266298D01*
X162073329Y-110212642D01*
X162063225Y-110142368D01*
X162092561Y-110077969D01*
X162196058Y-109958066D01*
X162196059Y-109958065D01*
X162200082Y-109953404D01*
X162207884Y-109939671D01*
X162242450Y-109878823D01*
X162292464Y-109790782D01*
X162314498Y-109724545D01*
X162339320Y-109649928D01*
X162379801Y-109591604D01*
X162445389Y-109564424D01*
X162458878Y-109563700D01*
X162946432Y-109563700D01*
X163014553Y-109583702D01*
X163061046Y-109637358D01*
X163065313Y-109647947D01*
X163069850Y-109660867D01*
X163075443Y-109668439D01*
X163075445Y-109668443D01*
X163127446Y-109738844D01*
X163146440Y-109764560D01*
X163250133Y-109841150D01*
X163259016Y-109844270D01*
X163259019Y-109844271D01*
X163364520Y-109881320D01*
X163364522Y-109881320D01*
X163371762Y-109883863D01*
X163379402Y-109884585D01*
X163379406Y-109884586D01*
X163393954Y-109885961D01*
X163401775Y-109886700D01*
X163702796Y-109886700D01*
X164004224Y-109886699D01*
X164007172Y-109886420D01*
X164007181Y-109886420D01*
X164026588Y-109884586D01*
X164026589Y-109884586D01*
X164034238Y-109883863D01*
X164049592Y-109878471D01*
X164146981Y-109844271D01*
X164146984Y-109844270D01*
X164155867Y-109841150D01*
X164259560Y-109764560D01*
X164336150Y-109660867D01*
X164339992Y-109649928D01*
X164376320Y-109546480D01*
X164376320Y-109546478D01*
X164378863Y-109539238D01*
X164379734Y-109530032D01*
X164381421Y-109512175D01*
X164381700Y-109509225D01*
X164381699Y-108956776D01*
X164381199Y-108951478D01*
X164379586Y-108934412D01*
X164379586Y-108934411D01*
X164378863Y-108926762D01*
X164363780Y-108883811D01*
X164339271Y-108814019D01*
X164339270Y-108814016D01*
X164336150Y-108805133D01*
X164259560Y-108701440D01*
X164155867Y-108624850D01*
X164146984Y-108621730D01*
X164146981Y-108621729D01*
X164041480Y-108584680D01*
X164041478Y-108584680D01*
X164034238Y-108582137D01*
X164026598Y-108581415D01*
X164026594Y-108581414D01*
X164012046Y-108580039D01*
X164004225Y-108579300D01*
X163703204Y-108579300D01*
X163401776Y-108579301D01*
X163398828Y-108579580D01*
X163398819Y-108579580D01*
X163379412Y-108581414D01*
X163379411Y-108581414D01*
X163371762Y-108582137D01*
X163364515Y-108584682D01*
X163259019Y-108621729D01*
X163259016Y-108621730D01*
X163250133Y-108624850D01*
X163146440Y-108701440D01*
X163140848Y-108709011D01*
X163075445Y-108797557D01*
X163075443Y-108797561D01*
X163069850Y-108805133D01*
X163065314Y-108818050D01*
X163062588Y-108821842D01*
X163062323Y-108822342D01*
X163062254Y-108822306D01*
X163023870Y-108875695D01*
X162957840Y-108901783D01*
X162946432Y-108902300D01*
X162300822Y-108902300D01*
X162232701Y-108882298D01*
X162203179Y-108855936D01*
X162100887Y-108730513D01*
X162100884Y-108730510D01*
X162096992Y-108725738D01*
X162090362Y-108720253D01*
X161957633Y-108610450D01*
X161957630Y-108610448D01*
X161952883Y-108606521D01*
X161788362Y-108517565D01*
X161609696Y-108462258D01*
X161603575Y-108461615D01*
X161603572Y-108461614D01*
X161429818Y-108443352D01*
X161429817Y-108443352D01*
X161423690Y-108442708D01*
X161307886Y-108453247D01*
X161243571Y-108459100D01*
X161243570Y-108459100D01*
X161237430Y-108459659D01*
X161231516Y-108461400D01*
X161231514Y-108461400D01*
X161228599Y-108462258D01*
X161058009Y-108512466D01*
X160892262Y-108599116D01*
X160746502Y-108716310D01*
X160626281Y-108859584D01*
X160536179Y-109023480D01*
X160534318Y-109029347D01*
X160534317Y-109029349D01*
X160529189Y-109045515D01*
X160479626Y-109201755D01*
X160458778Y-109387620D01*
X160461031Y-109414444D01*
X160473565Y-109563700D01*
X160474429Y-109573994D01*
X160476939Y-109582746D01*
X160523217Y-109744138D01*
X160525981Y-109753779D01*
X160528797Y-109759258D01*
X160606754Y-109910946D01*
X160611472Y-109920127D01*
X160727646Y-110066702D01*
X160732341Y-110070697D01*
X160734345Y-110072773D01*
X160767277Y-110135669D01*
X160760977Y-110206386D01*
X160717445Y-110262470D01*
X160643708Y-110286300D01*
X153605170Y-110286300D01*
X153537049Y-110266298D01*
X153516075Y-110249395D01*
X153047719Y-109781039D01*
X153013693Y-109718727D01*
X153018758Y-109647912D01*
X153061305Y-109591076D01*
X153127825Y-109566265D01*
X153194016Y-109579677D01*
X153217425Y-109591604D01*
X153268695Y-109617727D01*
X153278485Y-109619278D01*
X153278486Y-109619278D01*
X153301589Y-109622937D01*
X153363230Y-109632700D01*
X153976770Y-109632700D01*
X154038411Y-109622937D01*
X154061514Y-109619278D01*
X154061515Y-109619278D01*
X154071305Y-109617727D01*
X154185247Y-109559671D01*
X154275671Y-109469247D01*
X154290249Y-109440637D01*
X154323837Y-109374716D01*
X154372585Y-109323101D01*
X154441500Y-109306035D01*
X154508702Y-109328936D01*
X154554988Y-109390174D01*
X154560850Y-109406867D01*
X154637440Y-109510560D01*
X154741133Y-109587150D01*
X154750016Y-109590270D01*
X154750019Y-109590271D01*
X154855520Y-109627320D01*
X154855522Y-109627320D01*
X154862762Y-109629863D01*
X154870402Y-109630585D01*
X154870406Y-109630586D01*
X154884576Y-109631925D01*
X154892775Y-109632700D01*
X155193796Y-109632700D01*
X155495224Y-109632699D01*
X155498172Y-109632420D01*
X155498181Y-109632420D01*
X155517588Y-109630586D01*
X155517589Y-109630586D01*
X155525238Y-109629863D01*
X155555380Y-109619278D01*
X155637981Y-109590271D01*
X155637984Y-109590270D01*
X155646867Y-109587150D01*
X155750560Y-109510560D01*
X155778735Y-109472415D01*
X155821555Y-109414443D01*
X155821557Y-109414439D01*
X155827150Y-109406867D01*
X155838240Y-109375289D01*
X155879681Y-109317645D01*
X155914027Y-109298638D01*
X155919999Y-109296465D01*
X155930851Y-109294551D01*
X155940394Y-109289042D01*
X155943885Y-109287771D01*
X155947268Y-109286193D01*
X155957916Y-109283340D01*
X155966947Y-109277016D01*
X155966950Y-109277015D01*
X155989355Y-109261327D01*
X155998624Y-109255422D01*
X156000017Y-109254618D01*
X156031849Y-109236239D01*
X156038933Y-109227796D01*
X156038936Y-109227794D01*
X156056522Y-109206836D01*
X156063948Y-109198732D01*
X156149212Y-109113468D01*
X156157316Y-109106042D01*
X156178274Y-109088456D01*
X156178276Y-109088453D01*
X156186719Y-109081369D01*
X156205902Y-109048144D01*
X156211807Y-109038875D01*
X156227495Y-109016470D01*
X156227496Y-109016467D01*
X156233820Y-109007436D01*
X156236674Y-108996787D01*
X156238249Y-108993409D01*
X156239520Y-108989916D01*
X156245031Y-108980371D01*
X156251696Y-108942573D01*
X156254071Y-108931859D01*
X156264004Y-108894787D01*
X156262912Y-108882298D01*
X156260659Y-108856552D01*
X156260180Y-108845571D01*
X156260180Y-108419690D01*
X156280182Y-108351569D01*
X156297085Y-108330595D01*
X156755075Y-107872605D01*
X156817387Y-107838579D01*
X156844170Y-107835700D01*
X157376299Y-107835700D01*
X157444420Y-107855702D01*
X157488566Y-107904498D01*
X157504827Y-107936412D01*
X157509329Y-107945247D01*
X157599753Y-108035671D01*
X157713695Y-108093727D01*
X157723485Y-108095278D01*
X157723486Y-108095278D01*
X157749963Y-108099471D01*
X157808230Y-108108700D01*
X157833775Y-108108700D01*
X157901896Y-108128702D01*
X157948389Y-108182358D01*
X157958493Y-108252632D01*
X157928999Y-108317212D01*
X157890977Y-108346967D01*
X157873587Y-108355827D01*
X157873583Y-108355830D01*
X157864753Y-108360329D01*
X157774329Y-108450753D01*
X157716273Y-108564695D01*
X157714722Y-108574485D01*
X157714722Y-108574486D01*
X157711273Y-108596262D01*
X157701300Y-108659230D01*
X157701300Y-109272770D01*
X157716273Y-109367305D01*
X157774329Y-109481247D01*
X157864753Y-109571671D01*
X157978695Y-109629727D01*
X157988485Y-109631278D01*
X157988486Y-109631278D01*
X158013408Y-109635225D01*
X158073230Y-109644700D01*
X158536770Y-109644700D01*
X158596592Y-109635225D01*
X158621514Y-109631278D01*
X158621515Y-109631278D01*
X158631305Y-109629727D01*
X158745247Y-109571671D01*
X158835671Y-109481247D01*
X158893727Y-109367305D01*
X158908700Y-109272770D01*
X158908700Y-108659230D01*
X158898727Y-108596262D01*
X158895278Y-108574486D01*
X158895278Y-108574485D01*
X158893727Y-108564695D01*
X158835671Y-108450753D01*
X158745247Y-108360329D01*
X158631305Y-108302273D01*
X158621514Y-108300722D01*
X158621513Y-108300722D01*
X158614353Y-108299588D01*
X158550200Y-108269175D01*
X158512673Y-108208907D01*
X158513687Y-108137918D01*
X158552920Y-108078746D01*
X158576862Y-108062872D01*
X158621413Y-108040173D01*
X158621417Y-108040170D01*
X158630247Y-108035671D01*
X158720671Y-107945247D01*
X158778727Y-107831305D01*
X158793700Y-107736770D01*
X158793700Y-107273230D01*
X158781600Y-107196836D01*
X158780278Y-107188486D01*
X158780278Y-107188485D01*
X158778727Y-107178695D01*
X158720671Y-107064753D01*
X158630247Y-106974329D01*
X158516305Y-106916273D01*
X158506515Y-106914722D01*
X158506514Y-106914722D01*
X158464589Y-106908082D01*
X158421770Y-106901300D01*
X157808230Y-106901300D01*
X157765411Y-106908082D01*
X157695000Y-106898983D01*
X157640686Y-106853261D01*
X157619700Y-106783633D01*
X157619700Y-106576367D01*
X157639702Y-106508246D01*
X157693358Y-106461753D01*
X157765411Y-106451918D01*
X157808230Y-106458700D01*
X158421770Y-106458700D01*
X158482994Y-106449003D01*
X158506514Y-106445278D01*
X158506515Y-106445278D01*
X158516305Y-106443727D01*
X158630247Y-106385671D01*
X158720671Y-106295247D01*
X158725361Y-106286043D01*
X158741434Y-106254498D01*
X158790182Y-106202882D01*
X158853701Y-106185700D01*
X158864873Y-106185700D01*
X158932994Y-106205702D01*
X158979487Y-106259358D01*
X158983756Y-106269952D01*
X159002728Y-106323979D01*
X159002729Y-106323981D01*
X159005850Y-106332867D01*
X159082440Y-106436560D01*
X159186133Y-106513150D01*
X159195016Y-106516270D01*
X159195019Y-106516271D01*
X159300520Y-106553320D01*
X159300522Y-106553320D01*
X159307762Y-106555863D01*
X159315402Y-106556585D01*
X159315406Y-106556586D01*
X159329954Y-106557961D01*
X159337775Y-106558700D01*
X159638796Y-106558700D01*
X159940224Y-106558699D01*
X159943172Y-106558420D01*
X159943181Y-106558420D01*
X159962588Y-106556586D01*
X159962589Y-106556586D01*
X159970238Y-106555863D01*
X160011295Y-106541445D01*
X160082981Y-106516271D01*
X160082984Y-106516270D01*
X160091867Y-106513150D01*
X160195560Y-106436560D01*
X160272150Y-106332867D01*
X160275272Y-106323979D01*
X160312320Y-106218480D01*
X160312320Y-106218478D01*
X160314863Y-106211238D01*
X160315887Y-106200411D01*
X160317421Y-106184175D01*
X160317700Y-106181225D01*
X160317699Y-105628776D01*
X160314863Y-105598762D01*
X160295435Y-105543438D01*
X160275271Y-105486019D01*
X160275270Y-105486016D01*
X160272150Y-105477133D01*
X160195560Y-105373440D01*
X160091867Y-105296850D01*
X160082983Y-105293730D01*
X160082979Y-105293728D01*
X160044973Y-105280382D01*
X159987328Y-105238939D01*
X159961239Y-105172910D01*
X159974990Y-105103257D01*
X160024214Y-105052096D01*
X160037660Y-105046146D01*
X160040305Y-105045727D01*
X160154247Y-104987671D01*
X160244671Y-104897247D01*
X160272315Y-104842992D01*
X160283767Y-104820517D01*
X160332515Y-104768902D01*
X160401430Y-104751836D01*
X160468632Y-104774737D01*
X160512784Y-104830334D01*
X160517148Y-104842976D01*
X160525981Y-104873779D01*
X160555316Y-104930859D01*
X160608173Y-105033707D01*
X160611472Y-105040127D01*
X160727646Y-105186702D01*
X160732339Y-105190696D01*
X160732340Y-105190697D01*
X160860212Y-105299524D01*
X160870077Y-105307920D01*
X160875455Y-105310926D01*
X160875457Y-105310927D01*
X160916708Y-105333981D01*
X161033340Y-105399164D01*
X161211216Y-105456960D01*
X161396931Y-105479105D01*
X161403066Y-105478633D01*
X161403068Y-105478633D01*
X161577268Y-105465229D01*
X161577272Y-105465228D01*
X161583410Y-105464756D01*
X161763550Y-105414460D01*
X161930491Y-105330132D01*
X161954881Y-105311077D01*
X162073012Y-105218783D01*
X162073013Y-105218782D01*
X162077873Y-105214985D01*
X162164928Y-105114131D01*
X162196060Y-105078064D01*
X162196062Y-105078062D01*
X162200082Y-105073404D01*
X162225044Y-105029463D01*
X162276082Y-104980113D01*
X162334600Y-104965700D01*
X162946432Y-104965700D01*
X163014553Y-104985702D01*
X163061046Y-105039358D01*
X163065313Y-105049947D01*
X163069850Y-105062867D01*
X163075443Y-105070439D01*
X163075445Y-105070443D01*
X163125646Y-105138408D01*
X163146440Y-105166560D01*
X163250133Y-105243150D01*
X163259016Y-105246270D01*
X163259019Y-105246271D01*
X163364520Y-105283320D01*
X163364522Y-105283320D01*
X163371762Y-105285863D01*
X163379402Y-105286585D01*
X163379406Y-105286586D01*
X163393954Y-105287961D01*
X163401775Y-105288700D01*
X163702796Y-105288700D01*
X164004224Y-105288699D01*
X164007172Y-105288420D01*
X164007181Y-105288420D01*
X164026588Y-105286586D01*
X164026589Y-105286586D01*
X164034238Y-105285863D01*
X164081289Y-105269340D01*
X164146981Y-105246271D01*
X164146984Y-105246270D01*
X164155867Y-105243150D01*
X164259560Y-105166560D01*
X164336150Y-105062867D01*
X164340687Y-105049950D01*
X164376320Y-104948480D01*
X164376320Y-104948478D01*
X164378863Y-104941238D01*
X164379926Y-104929999D01*
X164381421Y-104914175D01*
X164381700Y-104911225D01*
X164381699Y-104358776D01*
X164378863Y-104328762D01*
X164368135Y-104298213D01*
X164339271Y-104216019D01*
X164339270Y-104216016D01*
X164336150Y-104207133D01*
X164259560Y-104103440D01*
X164155867Y-104026850D01*
X164146984Y-104023730D01*
X164146981Y-104023729D01*
X164041480Y-103986680D01*
X164041478Y-103986680D01*
X164034238Y-103984137D01*
X164026598Y-103983415D01*
X164026594Y-103983414D01*
X164010329Y-103981877D01*
X164004225Y-103981300D01*
X163703204Y-103981300D01*
X163401776Y-103981301D01*
X163398828Y-103981580D01*
X163398819Y-103981580D01*
X163379412Y-103983414D01*
X163379411Y-103983414D01*
X163371762Y-103984137D01*
X163364515Y-103986682D01*
X163259019Y-104023729D01*
X163259016Y-104023730D01*
X163250133Y-104026850D01*
X163146440Y-104103440D01*
X163140848Y-104111011D01*
X163075445Y-104199557D01*
X163075443Y-104199561D01*
X163069850Y-104207133D01*
X163065314Y-104220050D01*
X163062588Y-104223842D01*
X163062323Y-104224342D01*
X163062254Y-104224306D01*
X163023870Y-104277695D01*
X162957840Y-104303783D01*
X162946432Y-104304300D01*
X162441412Y-104304300D01*
X162373291Y-104284298D01*
X162326798Y-104230642D01*
X162320790Y-104214718D01*
X162304787Y-104161714D01*
X162303006Y-104155815D01*
X162215201Y-103990677D01*
X162196343Y-103967555D01*
X162100887Y-103850513D01*
X162100884Y-103850510D01*
X162096992Y-103845738D01*
X162091300Y-103841029D01*
X161957633Y-103730450D01*
X161957630Y-103730448D01*
X161952883Y-103726521D01*
X161788362Y-103637565D01*
X161609696Y-103582258D01*
X161603575Y-103581615D01*
X161603572Y-103581614D01*
X161429818Y-103563352D01*
X161429817Y-103563352D01*
X161423690Y-103562708D01*
X161307320Y-103573298D01*
X161243571Y-103579100D01*
X161243570Y-103579100D01*
X161237430Y-103579659D01*
X161231516Y-103581400D01*
X161231514Y-103581400D01*
X161228599Y-103582258D01*
X161058009Y-103632466D01*
X160892262Y-103719116D01*
X160887462Y-103722976D01*
X160887461Y-103722976D01*
X160883052Y-103726521D01*
X160746502Y-103836310D01*
X160626281Y-103979584D01*
X160536179Y-104143480D01*
X160535963Y-104144161D01*
X160491940Y-104197439D01*
X160424307Y-104219032D01*
X160355736Y-104200632D01*
X160307998Y-104148081D01*
X160303850Y-104137784D01*
X160302727Y-104130695D01*
X160296435Y-104118345D01*
X160249171Y-104025585D01*
X160244671Y-104016753D01*
X160154247Y-103926329D01*
X160040305Y-103868273D01*
X160030515Y-103866722D01*
X160030514Y-103866722D01*
X159988589Y-103860082D01*
X159945770Y-103853300D01*
X159332230Y-103853300D01*
X159289411Y-103860082D01*
X159247486Y-103866722D01*
X159247485Y-103866722D01*
X159237695Y-103868273D01*
X159123753Y-103926329D01*
X159033329Y-104016753D01*
X159028829Y-104025585D01*
X159028827Y-104025588D01*
X159012566Y-104057502D01*
X158963818Y-104109118D01*
X158900299Y-104126300D01*
X158853701Y-104126300D01*
X158785580Y-104106298D01*
X158741434Y-104057502D01*
X158725173Y-104025588D01*
X158725171Y-104025585D01*
X158720671Y-104016753D01*
X158630247Y-103926329D01*
X158516305Y-103868273D01*
X158506515Y-103866722D01*
X158506514Y-103866722D01*
X158464589Y-103860082D01*
X158421770Y-103853300D01*
X157808230Y-103853300D01*
X157765411Y-103860082D01*
X157695000Y-103850983D01*
X157640686Y-103805261D01*
X157619700Y-103735633D01*
X157619700Y-102603973D01*
X157639702Y-102535852D01*
X157656605Y-102514878D01*
X157822878Y-102348605D01*
X157885190Y-102314579D01*
X157911973Y-102311700D01*
X158858389Y-102311700D01*
X158926510Y-102331702D01*
X158973003Y-102385358D01*
X158983107Y-102455632D01*
X158978963Y-102473454D01*
X158975273Y-102480695D01*
X158960300Y-102575230D01*
X158960300Y-103038770D01*
X158975273Y-103133305D01*
X159033329Y-103247247D01*
X159123753Y-103337671D01*
X159237695Y-103395727D01*
X159247485Y-103397278D01*
X159247486Y-103397278D01*
X159273963Y-103401471D01*
X159332230Y-103410700D01*
X159945770Y-103410700D01*
X160004037Y-103401471D01*
X160030514Y-103397278D01*
X160030515Y-103397278D01*
X160040305Y-103395727D01*
X160154247Y-103337671D01*
X160244671Y-103247247D01*
X160302727Y-103133305D01*
X160317700Y-103038770D01*
X160317700Y-102575230D01*
X160302727Y-102480695D01*
X160244671Y-102366753D01*
X160154247Y-102276329D01*
X160040305Y-102218273D01*
X160036993Y-102217748D01*
X159981395Y-102179732D01*
X159963293Y-102140251D01*
X159960236Y-102141364D01*
X159956465Y-102131003D01*
X159954551Y-102120149D01*
X159949040Y-102110604D01*
X159947770Y-102107114D01*
X159946194Y-102103735D01*
X159943340Y-102093083D01*
X159921322Y-102061639D01*
X159915426Y-102052383D01*
X159901751Y-102028698D01*
X159896239Y-102019151D01*
X159887796Y-102012066D01*
X159887793Y-102012063D01*
X159866836Y-101994478D01*
X159858732Y-101987052D01*
X159632948Y-101761268D01*
X159625522Y-101753164D01*
X159607936Y-101732206D01*
X159607933Y-101732204D01*
X159600849Y-101723761D01*
X159567625Y-101704578D01*
X159558355Y-101698673D01*
X159535950Y-101682985D01*
X159535947Y-101682984D01*
X159526916Y-101676660D01*
X159516267Y-101673806D01*
X159512889Y-101672231D01*
X159509396Y-101670960D01*
X159499851Y-101665449D01*
X159488998Y-101663535D01*
X159488997Y-101663535D01*
X159477900Y-101661578D01*
X159462053Y-101658784D01*
X159451339Y-101656409D01*
X159414267Y-101646476D01*
X159403292Y-101647436D01*
X159403291Y-101647436D01*
X159376032Y-101649821D01*
X159365051Y-101650300D01*
X157742752Y-101650300D01*
X157731771Y-101649821D01*
X157704512Y-101647436D01*
X157704511Y-101647436D01*
X157693536Y-101646476D01*
X157656464Y-101656409D01*
X157645750Y-101658784D01*
X157629903Y-101661578D01*
X157618806Y-101663535D01*
X157618805Y-101663535D01*
X157607952Y-101665449D01*
X157598407Y-101670960D01*
X157594914Y-101672231D01*
X157591536Y-101673806D01*
X157580887Y-101676660D01*
X157571856Y-101682984D01*
X157571853Y-101682985D01*
X157549448Y-101698673D01*
X157540178Y-101704578D01*
X157506954Y-101723761D01*
X157499870Y-101732204D01*
X157499867Y-101732206D01*
X157482281Y-101753164D01*
X157474855Y-101761268D01*
X157069268Y-102166855D01*
X157061164Y-102174281D01*
X157040206Y-102191867D01*
X157040204Y-102191870D01*
X157031761Y-102198954D01*
X157018008Y-102222774D01*
X157012578Y-102232179D01*
X157006673Y-102241448D01*
X156990985Y-102263853D01*
X156990984Y-102263856D01*
X156984660Y-102272887D01*
X156981806Y-102283536D01*
X156980231Y-102286914D01*
X156978960Y-102290407D01*
X156973449Y-102299952D01*
X156971535Y-102310805D01*
X156971535Y-102310806D01*
X156966785Y-102337746D01*
X156964409Y-102348464D01*
X156954476Y-102385536D01*
X156955436Y-102396511D01*
X156955436Y-102396512D01*
X156957821Y-102423771D01*
X156958300Y-102434752D01*
X156958300Y-105602267D01*
X156938298Y-105670388D01*
X156884642Y-105716881D01*
X156832300Y-105728267D01*
X155751829Y-105728267D01*
X155683708Y-105708265D01*
X155637215Y-105654609D01*
X155627111Y-105584335D01*
X155656605Y-105519755D01*
X155676969Y-105500916D01*
X155719426Y-105469556D01*
X155750560Y-105446560D01*
X155827150Y-105342867D01*
X155831623Y-105330132D01*
X155867320Y-105228480D01*
X155867320Y-105228478D01*
X155869863Y-105221238D01*
X155870587Y-105213588D01*
X155872176Y-105196770D01*
X155872700Y-105191225D01*
X155872699Y-104638776D01*
X155872272Y-104634248D01*
X155870586Y-104616412D01*
X155870585Y-104616406D01*
X155869863Y-104608762D01*
X155855702Y-104568436D01*
X155830271Y-104496019D01*
X155830270Y-104496016D01*
X155827150Y-104487133D01*
X155750560Y-104383440D01*
X155646867Y-104306850D01*
X155637984Y-104303730D01*
X155637981Y-104303729D01*
X155532480Y-104266680D01*
X155532478Y-104266680D01*
X155525238Y-104264137D01*
X155517598Y-104263415D01*
X155517594Y-104263414D01*
X155503046Y-104262039D01*
X155495225Y-104261300D01*
X155194204Y-104261300D01*
X154892776Y-104261301D01*
X154889828Y-104261580D01*
X154889819Y-104261580D01*
X154870412Y-104263414D01*
X154870411Y-104263414D01*
X154862762Y-104264137D01*
X154855515Y-104266682D01*
X154750019Y-104303729D01*
X154750016Y-104303730D01*
X154741133Y-104306850D01*
X154637440Y-104383440D01*
X154560850Y-104487133D01*
X154557730Y-104496016D01*
X154557729Y-104496019D01*
X154522577Y-104596119D01*
X154518137Y-104608762D01*
X154517415Y-104616402D01*
X154517414Y-104616406D01*
X154516039Y-104630954D01*
X154515300Y-104638775D01*
X154515301Y-105191224D01*
X154518137Y-105221238D01*
X154520682Y-105228485D01*
X154556378Y-105330132D01*
X154560850Y-105342867D01*
X154637440Y-105446560D01*
X154668574Y-105469556D01*
X154711031Y-105500916D01*
X154753942Y-105557478D01*
X154759461Y-105628259D01*
X154725836Y-105690789D01*
X154663744Y-105725213D01*
X154636171Y-105728267D01*
X153168690Y-105728267D01*
X153100569Y-105708265D01*
X153079595Y-105691362D01*
X152070501Y-104682268D01*
X152063075Y-104674164D01*
X152045489Y-104653206D01*
X152045486Y-104653204D01*
X152038402Y-104644761D01*
X152005178Y-104625578D01*
X151995908Y-104619673D01*
X151973503Y-104603985D01*
X151973500Y-104603984D01*
X151964469Y-104597660D01*
X151953820Y-104594806D01*
X151950442Y-104593231D01*
X151946949Y-104591960D01*
X151937404Y-104586449D01*
X151926551Y-104584535D01*
X151926550Y-104584535D01*
X151915453Y-104582578D01*
X151899606Y-104579784D01*
X151888892Y-104577409D01*
X151851820Y-104567476D01*
X151840845Y-104568436D01*
X151840844Y-104568436D01*
X151813585Y-104570821D01*
X151802604Y-104571300D01*
X151078700Y-104571300D01*
X151010579Y-104551298D01*
X150964086Y-104497642D01*
X150952700Y-104445300D01*
X150952700Y-104101133D01*
X150972702Y-104033012D01*
X151026358Y-103986519D01*
X151036938Y-103982256D01*
X151062867Y-103973150D01*
X151070439Y-103967557D01*
X151070443Y-103967555D01*
X151158989Y-103902152D01*
X151166560Y-103896560D01*
X151243150Y-103792867D01*
X151246271Y-103783981D01*
X151246272Y-103783979D01*
X151259618Y-103745973D01*
X151301061Y-103688328D01*
X151367090Y-103662239D01*
X151436743Y-103675990D01*
X151487904Y-103725214D01*
X151493854Y-103738660D01*
X151494273Y-103741305D01*
X151552329Y-103855247D01*
X151642753Y-103945671D01*
X151756695Y-104003727D01*
X151766485Y-104005278D01*
X151766486Y-104005278D01*
X151792963Y-104009471D01*
X151851230Y-104018700D01*
X152314770Y-104018700D01*
X152373037Y-104009471D01*
X152399514Y-104005278D01*
X152399515Y-104005278D01*
X152409305Y-104003727D01*
X152523247Y-103945671D01*
X152613671Y-103855247D01*
X152671727Y-103741305D01*
X152673447Y-103730450D01*
X152682072Y-103675990D01*
X152686700Y-103646770D01*
X152686700Y-103033230D01*
X152671727Y-102938695D01*
X152613671Y-102824753D01*
X152523247Y-102734329D01*
X152409305Y-102676273D01*
X152399515Y-102674722D01*
X152399514Y-102674722D01*
X152373037Y-102670529D01*
X152314770Y-102661300D01*
X151851230Y-102661300D01*
X151792963Y-102670529D01*
X151766486Y-102674722D01*
X151766485Y-102674722D01*
X151756695Y-102676273D01*
X151642753Y-102734329D01*
X151552329Y-102824753D01*
X151494273Y-102938695D01*
X151493492Y-102938297D01*
X151458260Y-102989821D01*
X151392863Y-103017458D01*
X151322906Y-103005351D01*
X151270601Y-102957344D01*
X151259618Y-102934027D01*
X151246272Y-102896021D01*
X151246270Y-102896017D01*
X151243150Y-102887133D01*
X151166560Y-102783440D01*
X151062867Y-102706850D01*
X151053984Y-102703730D01*
X151053981Y-102703729D01*
X150948480Y-102666680D01*
X150948478Y-102666680D01*
X150941238Y-102664137D01*
X150933598Y-102663415D01*
X150933594Y-102663414D01*
X150919046Y-102662039D01*
X150911225Y-102661300D01*
X150635187Y-102661300D01*
X150358776Y-102661301D01*
X150355828Y-102661580D01*
X150355819Y-102661580D01*
X150336412Y-102663414D01*
X150336411Y-102663414D01*
X150328762Y-102664137D01*
X150321515Y-102666682D01*
X150216019Y-102703729D01*
X150216016Y-102703730D01*
X150207133Y-102706850D01*
X150103440Y-102783440D01*
X150026850Y-102887133D01*
X150023730Y-102896016D01*
X150023729Y-102896019D01*
X149987407Y-102999449D01*
X149984137Y-103008762D01*
X149983415Y-103016402D01*
X149983414Y-103016406D01*
X149983315Y-103017458D01*
X149981300Y-103038775D01*
X149981301Y-103641224D01*
X149984137Y-103671238D01*
X149986682Y-103678485D01*
X150023729Y-103783979D01*
X150026850Y-103792867D01*
X150103440Y-103896560D01*
X150111011Y-103902152D01*
X150199560Y-103967557D01*
X150199563Y-103967558D01*
X150207133Y-103973150D01*
X150216015Y-103976269D01*
X150224259Y-103980634D01*
X150275103Y-104030187D01*
X150291300Y-104091988D01*
X150291300Y-104445300D01*
X150271298Y-104513421D01*
X150217642Y-104559914D01*
X150165300Y-104571300D01*
X149949396Y-104571300D01*
X149938415Y-104570821D01*
X149911156Y-104568436D01*
X149911155Y-104568436D01*
X149900180Y-104567476D01*
X149863108Y-104577409D01*
X149852394Y-104579784D01*
X149836547Y-104582578D01*
X149825450Y-104584535D01*
X149825449Y-104584535D01*
X149814596Y-104586449D01*
X149805051Y-104591960D01*
X149801558Y-104593231D01*
X149798180Y-104594806D01*
X149787531Y-104597660D01*
X149778500Y-104603984D01*
X149778497Y-104603985D01*
X149756092Y-104619673D01*
X149746822Y-104625579D01*
X149724105Y-104638695D01*
X149713598Y-104644761D01*
X149706515Y-104653202D01*
X149706514Y-104653203D01*
X149688930Y-104674159D01*
X149681504Y-104682262D01*
X148425748Y-105938019D01*
X148417644Y-105945445D01*
X148396686Y-105963031D01*
X148396684Y-105963034D01*
X148388241Y-105970118D01*
X148370161Y-106001433D01*
X148369058Y-106003343D01*
X148363153Y-106012612D01*
X148347465Y-106035017D01*
X148347464Y-106035020D01*
X148341140Y-106044051D01*
X148338286Y-106054700D01*
X148336711Y-106058078D01*
X148335440Y-106061571D01*
X148329929Y-106071116D01*
X148328015Y-106081969D01*
X148328015Y-106081970D01*
X148323265Y-106108910D01*
X148320889Y-106119628D01*
X148310956Y-106156700D01*
X148311916Y-106167675D01*
X148311916Y-106167677D01*
X148314301Y-106194936D01*
X148314780Y-106205917D01*
X148314781Y-106838506D01*
X148314781Y-109483347D01*
X148294779Y-109551468D01*
X148277876Y-109572442D01*
X148213795Y-109636523D01*
X148151483Y-109670549D01*
X148080668Y-109665484D01*
X148023832Y-109622937D01*
X147999021Y-109556417D01*
X147998700Y-109547428D01*
X147998699Y-109085744D01*
X147998699Y-109082776D01*
X147998173Y-109077202D01*
X147996586Y-109060412D01*
X147996586Y-109060411D01*
X147995863Y-109052762D01*
X147990471Y-109037408D01*
X147956271Y-108940019D01*
X147956270Y-108940016D01*
X147953150Y-108931133D01*
X147876560Y-108827440D01*
X147772867Y-108750850D01*
X147763984Y-108747730D01*
X147763981Y-108747729D01*
X147658480Y-108710680D01*
X147658478Y-108710680D01*
X147651238Y-108708137D01*
X147643598Y-108707415D01*
X147643594Y-108707414D01*
X147629046Y-108706039D01*
X147621225Y-108705300D01*
X147320204Y-108705300D01*
X147018776Y-108705301D01*
X147015828Y-108705580D01*
X147015819Y-108705580D01*
X146996412Y-108707414D01*
X146996411Y-108707414D01*
X146988762Y-108708137D01*
X146981515Y-108710682D01*
X146876019Y-108747729D01*
X146876016Y-108747730D01*
X146867133Y-108750850D01*
X146763440Y-108827440D01*
X146750048Y-108845571D01*
X146692443Y-108923560D01*
X146692442Y-108923563D01*
X146686850Y-108931133D01*
X146683731Y-108940014D01*
X146679321Y-108948344D01*
X146676051Y-108946613D01*
X146645117Y-108989669D01*
X146579095Y-109015779D01*
X146567646Y-109016300D01*
X146498498Y-109016300D01*
X146430377Y-108996298D01*
X146402097Y-108969590D01*
X146401671Y-108968753D01*
X146311247Y-108878329D01*
X146197305Y-108820273D01*
X146187515Y-108818722D01*
X146187514Y-108818722D01*
X146157819Y-108814019D01*
X146102770Y-108805300D01*
X145489230Y-108805300D01*
X145434181Y-108814019D01*
X145404486Y-108818722D01*
X145404485Y-108818722D01*
X145394695Y-108820273D01*
X145280753Y-108878329D01*
X145190329Y-108968753D01*
X145132273Y-109082695D01*
X145130722Y-109092485D01*
X145130722Y-109092486D01*
X145128575Y-109106042D01*
X145117300Y-109177230D01*
X145117300Y-109640770D01*
X145121683Y-109668443D01*
X145128650Y-109712428D01*
X145132273Y-109735305D01*
X145190329Y-109849247D01*
X145280753Y-109939671D01*
X145394695Y-109997727D01*
X145404485Y-109999278D01*
X145404486Y-109999278D01*
X145430963Y-110003471D01*
X145489230Y-110012700D01*
X146101300Y-110012700D01*
X146169421Y-110032702D01*
X146215914Y-110086358D01*
X146227300Y-110138700D01*
X146227300Y-110570842D01*
X146207298Y-110638963D01*
X146176160Y-110672193D01*
X146128440Y-110707440D01*
X146051850Y-110811133D01*
X146048730Y-110820017D01*
X146048728Y-110820021D01*
X146041883Y-110839514D01*
X146000440Y-110897160D01*
X145934410Y-110923248D01*
X145864758Y-110909497D01*
X145813597Y-110860272D01*
X145804117Y-110839514D01*
X145797272Y-110820021D01*
X145797270Y-110820017D01*
X145794150Y-110811133D01*
X145717560Y-110707440D01*
X145613867Y-110630850D01*
X145604984Y-110627730D01*
X145604981Y-110627729D01*
X145499480Y-110590680D01*
X145499478Y-110590680D01*
X145492238Y-110588137D01*
X145484598Y-110587415D01*
X145484594Y-110587414D01*
X145470046Y-110586039D01*
X145462225Y-110585300D01*
X145161204Y-110585300D01*
X144859776Y-110585301D01*
X144856828Y-110585580D01*
X144856819Y-110585580D01*
X144837412Y-110587414D01*
X144837411Y-110587414D01*
X144829762Y-110588137D01*
X144822515Y-110590682D01*
X144717019Y-110627729D01*
X144717016Y-110627730D01*
X144708133Y-110630850D01*
X144604440Y-110707440D01*
X144527850Y-110811133D01*
X144524730Y-110820016D01*
X144524729Y-110820019D01*
X144493307Y-110909497D01*
X144485137Y-110932762D01*
X144484415Y-110940402D01*
X144484414Y-110940406D01*
X144483039Y-110954954D01*
X144482300Y-110962775D01*
X142225700Y-110962775D01*
X142225700Y-110387936D01*
X142213881Y-110328520D01*
X142168860Y-110261140D01*
X142114649Y-110224918D01*
X142111798Y-110223013D01*
X142111797Y-110223013D01*
X142101480Y-110216119D01*
X142042064Y-110204300D01*
X140403676Y-110204300D01*
X140335555Y-110184298D01*
X140289062Y-110130642D01*
X140277677Y-110078813D01*
X140277653Y-110072773D01*
X140276993Y-109910946D01*
X140296717Y-109842745D01*
X140350183Y-109796034D01*
X140420415Y-109785643D01*
X140427574Y-109786854D01*
X140430168Y-109787370D01*
X140451936Y-109791700D01*
X141742064Y-109791700D01*
X141801480Y-109779881D01*
X141868860Y-109734860D01*
X141913881Y-109667480D01*
X141925700Y-109608064D01*
X141925700Y-109267936D01*
X141914689Y-109212582D01*
X141914689Y-109163420D01*
X141919975Y-109136844D01*
X141952882Y-109073934D01*
X142014576Y-109038801D01*
X142085471Y-109042601D01*
X142132649Y-109072329D01*
X142507395Y-109447075D01*
X142541421Y-109509387D01*
X142544300Y-109536170D01*
X142544300Y-110063594D01*
X142542800Y-110082978D01*
X142541930Y-110088568D01*
X142539628Y-110103351D01*
X142540792Y-110112253D01*
X142540792Y-110112256D01*
X142543915Y-110136136D01*
X142544300Y-110139886D01*
X142544300Y-110143388D01*
X142544998Y-110148029D01*
X142548448Y-110170978D01*
X142548782Y-110173361D01*
X142556627Y-110233350D01*
X142558447Y-110237486D01*
X142559592Y-110245102D01*
X142581929Y-110291619D01*
X142585052Y-110298122D01*
X142586783Y-110301884D01*
X142609430Y-110353354D01*
X142613476Y-110358167D01*
X142613865Y-110358876D01*
X142615092Y-110360681D01*
X142619169Y-110369172D01*
X142625561Y-110376087D01*
X142625566Y-110376094D01*
X142656400Y-110409448D01*
X142660312Y-110413885D01*
X142693791Y-110453713D01*
X142701063Y-110458553D01*
X142704641Y-110462073D01*
X142706204Y-110463325D01*
X142712594Y-110470238D01*
X142720736Y-110474967D01*
X142756520Y-110495752D01*
X142763055Y-110499820D01*
X142795454Y-110521387D01*
X142795459Y-110521389D01*
X142802929Y-110526362D01*
X142811494Y-110529038D01*
X142819599Y-110532904D01*
X142819518Y-110533073D01*
X142823457Y-110534633D01*
X142831606Y-110539366D01*
X142840782Y-110541493D01*
X142840785Y-110541494D01*
X142877150Y-110549922D01*
X142886262Y-110552397D01*
X142928070Y-110565459D01*
X142937043Y-110565624D01*
X142945905Y-110567059D01*
X142945880Y-110567213D01*
X142951821Y-110567948D01*
X142956510Y-110568317D01*
X142965684Y-110570443D01*
X142975079Y-110569778D01*
X142975081Y-110569778D01*
X143008270Y-110567428D01*
X143019476Y-110567134D01*
X143050181Y-110567697D01*
X143050184Y-110567697D01*
X143059154Y-110567861D01*
X143067812Y-110565501D01*
X143069118Y-110565338D01*
X143091475Y-110561537D01*
X143102972Y-110560723D01*
X143139012Y-110546780D01*
X143151304Y-110542738D01*
X143185644Y-110533376D01*
X143193297Y-110528677D01*
X143193299Y-110528676D01*
X143196288Y-110526841D01*
X143216756Y-110516702D01*
X143222552Y-110514460D01*
X143231333Y-110511063D01*
X143258473Y-110489668D01*
X143270542Y-110481249D01*
X143289718Y-110469475D01*
X143297371Y-110464776D01*
X143303395Y-110458121D01*
X143303401Y-110458116D01*
X143308518Y-110452463D01*
X143323921Y-110438073D01*
X143339418Y-110425856D01*
X143356746Y-110400785D01*
X143366970Y-110387884D01*
X143385353Y-110367575D01*
X143389265Y-110359501D01*
X143389267Y-110359498D01*
X143394384Y-110348936D01*
X143404123Y-110332236D01*
X143412314Y-110320385D01*
X143412315Y-110320384D01*
X143417670Y-110312635D01*
X143420510Y-110303655D01*
X143420512Y-110303651D01*
X143425630Y-110287469D01*
X143432370Y-110270531D01*
X143436276Y-110262470D01*
X143442517Y-110249587D01*
X143446633Y-110225119D01*
X143450752Y-110208029D01*
X143457006Y-110188256D01*
X143457007Y-110188252D01*
X143459171Y-110181409D01*
X143459700Y-110174688D01*
X143459700Y-110157982D01*
X143461446Y-110137077D01*
X143461683Y-110135669D01*
X143464269Y-110120298D01*
X143464407Y-110109000D01*
X143460973Y-110085021D01*
X143459700Y-110067159D01*
X143459700Y-107990770D01*
X145117300Y-107990770D01*
X145132273Y-108085305D01*
X145190329Y-108199247D01*
X145280753Y-108289671D01*
X145394695Y-108347727D01*
X145404485Y-108349278D01*
X145404486Y-108349278D01*
X145418952Y-108351569D01*
X145489230Y-108362700D01*
X146102770Y-108362700D01*
X146173048Y-108351569D01*
X146187514Y-108349278D01*
X146187515Y-108349278D01*
X146197305Y-108347727D01*
X146311247Y-108289671D01*
X146401671Y-108199247D01*
X146459727Y-108085305D01*
X146474700Y-107990770D01*
X146474700Y-107527230D01*
X146459727Y-107432695D01*
X146401671Y-107318753D01*
X146311247Y-107228329D01*
X146197305Y-107170273D01*
X146187515Y-107168722D01*
X146187514Y-107168722D01*
X146161037Y-107164529D01*
X146102770Y-107155300D01*
X145489230Y-107155300D01*
X145430963Y-107164529D01*
X145404486Y-107168722D01*
X145404485Y-107168722D01*
X145394695Y-107170273D01*
X145280753Y-107228329D01*
X145190329Y-107318753D01*
X145132273Y-107432695D01*
X145117300Y-107527230D01*
X145117300Y-107990770D01*
X143459700Y-107990770D01*
X143459700Y-105984876D01*
X143461067Y-105972921D01*
X143460577Y-105972882D01*
X143461316Y-105963493D01*
X143463443Y-105954316D01*
X143462499Y-105940975D01*
X143460015Y-105905898D01*
X143459700Y-105896999D01*
X143459700Y-105331982D01*
X143461446Y-105311077D01*
X143463286Y-105300138D01*
X143464269Y-105294298D01*
X143464407Y-105283000D01*
X143459807Y-105250877D01*
X143459700Y-105249896D01*
X143459700Y-105248612D01*
X143458044Y-105237594D01*
X143455166Y-105218454D01*
X143455038Y-105217582D01*
X143455000Y-105217312D01*
X143452058Y-105196770D01*
X145117300Y-105196770D01*
X145124978Y-105245244D01*
X145130570Y-105280551D01*
X145132273Y-105291305D01*
X145190329Y-105405247D01*
X145280753Y-105495671D01*
X145394695Y-105553727D01*
X145404485Y-105555278D01*
X145404486Y-105555278D01*
X145430963Y-105559471D01*
X145489230Y-105568700D01*
X146102770Y-105568700D01*
X146161037Y-105559471D01*
X146187514Y-105555278D01*
X146187515Y-105555278D01*
X146197305Y-105553727D01*
X146311247Y-105495671D01*
X146401671Y-105405247D01*
X146407370Y-105394062D01*
X146422434Y-105364498D01*
X146471182Y-105312882D01*
X146534701Y-105295700D01*
X146729051Y-105295700D01*
X146740032Y-105296179D01*
X146767291Y-105298564D01*
X146767292Y-105298564D01*
X146778267Y-105299524D01*
X146815339Y-105289591D01*
X146826053Y-105287216D01*
X146841900Y-105284422D01*
X146852997Y-105282465D01*
X146852998Y-105282465D01*
X146863851Y-105280551D01*
X146873396Y-105275040D01*
X146876889Y-105273769D01*
X146880267Y-105272194D01*
X146890916Y-105269340D01*
X146899947Y-105263016D01*
X146899950Y-105263015D01*
X146922355Y-105247327D01*
X146931624Y-105241422D01*
X146933017Y-105240618D01*
X146964849Y-105222239D01*
X146971933Y-105213796D01*
X146971936Y-105213794D01*
X146989522Y-105192836D01*
X146996948Y-105184732D01*
X147165815Y-105015865D01*
X147228127Y-104981839D01*
X147239335Y-104979926D01*
X147241178Y-104979696D01*
X147250154Y-104979861D01*
X147302096Y-104965700D01*
X147367982Y-104947738D01*
X147367985Y-104947737D01*
X147376644Y-104945376D01*
X147384410Y-104940608D01*
X147480719Y-104881475D01*
X147480722Y-104881472D01*
X147488371Y-104876776D01*
X147496442Y-104867860D01*
X147558708Y-104799069D01*
X147576353Y-104779575D01*
X147584932Y-104761869D01*
X147629604Y-104669664D01*
X147629604Y-104669663D01*
X147633517Y-104661587D01*
X147655269Y-104532298D01*
X147655407Y-104521000D01*
X147642995Y-104434329D01*
X147638094Y-104400104D01*
X147638093Y-104400101D01*
X147636821Y-104391218D01*
X147633107Y-104383049D01*
X147586273Y-104280043D01*
X147586271Y-104280040D01*
X147582556Y-104271869D01*
X147496975Y-104172547D01*
X147489444Y-104167666D01*
X147489441Y-104167663D01*
X147425625Y-104126300D01*
X147413352Y-104118345D01*
X147367069Y-104064509D01*
X147357238Y-103994196D01*
X147386982Y-103929731D01*
X147415957Y-103905238D01*
X147480719Y-103865475D01*
X147480722Y-103865472D01*
X147488371Y-103860776D01*
X147494437Y-103854075D01*
X147570328Y-103770231D01*
X147576353Y-103763575D01*
X147584669Y-103746412D01*
X147629604Y-103653664D01*
X147629604Y-103653663D01*
X147633517Y-103645587D01*
X147655269Y-103516298D01*
X147655407Y-103505000D01*
X147650286Y-103469245D01*
X147638094Y-103384104D01*
X147638093Y-103384101D01*
X147636821Y-103375218D01*
X147633107Y-103367049D01*
X147586273Y-103264043D01*
X147586271Y-103264040D01*
X147582556Y-103255869D01*
X147496975Y-103156547D01*
X147446012Y-103123514D01*
X147394489Y-103090118D01*
X147394487Y-103090117D01*
X147386958Y-103085237D01*
X147261348Y-103047672D01*
X147252371Y-103047617D01*
X147252370Y-103047617D01*
X147236518Y-103047520D01*
X147165020Y-103024737D01*
X147144916Y-103010660D01*
X147134267Y-103007806D01*
X147130889Y-103006231D01*
X147127396Y-103004960D01*
X147117851Y-102999449D01*
X147106998Y-102997535D01*
X147106997Y-102997535D01*
X147095900Y-102995578D01*
X147080053Y-102992784D01*
X147069339Y-102990409D01*
X147032267Y-102980476D01*
X147021292Y-102981436D01*
X147021291Y-102981436D01*
X146994032Y-102983821D01*
X146983051Y-102984300D01*
X146534701Y-102984300D01*
X146466580Y-102964298D01*
X146422434Y-102915502D01*
X146406173Y-102883588D01*
X146406171Y-102883585D01*
X146401671Y-102874753D01*
X146311247Y-102784329D01*
X146197305Y-102726273D01*
X146187515Y-102724722D01*
X146187514Y-102724722D01*
X146161037Y-102720529D01*
X146102770Y-102711300D01*
X145489230Y-102711300D01*
X145430963Y-102720529D01*
X145404486Y-102724722D01*
X145404485Y-102724722D01*
X145394695Y-102726273D01*
X145280753Y-102784329D01*
X145190329Y-102874753D01*
X145132273Y-102988695D01*
X145130722Y-102998485D01*
X145130722Y-102998486D01*
X145129400Y-103006836D01*
X145117300Y-103083230D01*
X145117300Y-103546770D01*
X145132273Y-103641305D01*
X145190329Y-103755247D01*
X145280753Y-103845671D01*
X145394695Y-103903727D01*
X145404485Y-103905278D01*
X145404486Y-103905278D01*
X145425449Y-103908598D01*
X145489230Y-103918700D01*
X146102770Y-103918700D01*
X146166551Y-103908598D01*
X146187514Y-103905278D01*
X146187515Y-103905278D01*
X146197305Y-103903727D01*
X146311247Y-103845671D01*
X146401671Y-103755247D01*
X146406173Y-103746412D01*
X146422434Y-103714498D01*
X146471182Y-103662882D01*
X146534701Y-103645700D01*
X146672605Y-103645700D01*
X146740726Y-103665702D01*
X146787933Y-103720953D01*
X146800430Y-103749354D01*
X146806206Y-103756225D01*
X146873525Y-103836310D01*
X146884791Y-103849713D01*
X146892262Y-103854686D01*
X146892263Y-103854687D01*
X146973252Y-103908598D01*
X147018875Y-103962996D01*
X147027846Y-104033423D01*
X146997316Y-104097520D01*
X146970670Y-104120046D01*
X146893305Y-104168859D01*
X146887363Y-104175587D01*
X146865244Y-104200632D01*
X146806517Y-104267128D01*
X146802703Y-104275251D01*
X146802702Y-104275253D01*
X146789333Y-104303729D01*
X146750798Y-104385805D01*
X146749417Y-104394677D01*
X146736891Y-104475124D01*
X146706647Y-104539356D01*
X146701486Y-104544834D01*
X146648925Y-104597395D01*
X146586613Y-104631421D01*
X146559830Y-104634300D01*
X146534701Y-104634300D01*
X146466580Y-104614298D01*
X146422434Y-104565502D01*
X146406173Y-104533588D01*
X146406171Y-104533585D01*
X146401671Y-104524753D01*
X146311247Y-104434329D01*
X146197305Y-104376273D01*
X146187515Y-104374722D01*
X146187514Y-104374722D01*
X146161037Y-104370529D01*
X146102770Y-104361300D01*
X145489230Y-104361300D01*
X145430963Y-104370529D01*
X145404486Y-104374722D01*
X145404485Y-104374722D01*
X145394695Y-104376273D01*
X145280753Y-104434329D01*
X145190329Y-104524753D01*
X145132273Y-104638695D01*
X145130722Y-104648485D01*
X145130722Y-104648486D01*
X145128647Y-104661587D01*
X145117300Y-104733230D01*
X145117300Y-105196770D01*
X143452058Y-105196770D01*
X143445821Y-105153218D01*
X143445130Y-105151697D01*
X143444408Y-105146898D01*
X143417499Y-105090860D01*
X143416382Y-105088471D01*
X143397303Y-105046508D01*
X143391556Y-105033869D01*
X143388341Y-105030138D01*
X143384831Y-105022828D01*
X143345207Y-104979962D01*
X143342336Y-104976745D01*
X143305975Y-104934547D01*
X143300432Y-104930954D01*
X143299449Y-104929999D01*
X143297797Y-104928676D01*
X143291406Y-104921762D01*
X143244427Y-104894474D01*
X143239215Y-104891275D01*
X143195958Y-104863237D01*
X143187362Y-104860666D01*
X143187138Y-104860563D01*
X143182417Y-104858108D01*
X143180535Y-104857363D01*
X143172394Y-104852634D01*
X143163224Y-104850508D01*
X143163220Y-104850507D01*
X143130795Y-104842992D01*
X143123386Y-104841275D01*
X143115759Y-104839253D01*
X143070348Y-104825672D01*
X143061376Y-104825617D01*
X143052493Y-104824289D01*
X143052524Y-104824079D01*
X143047489Y-104823683D01*
X143038316Y-104821557D01*
X143028921Y-104822222D01*
X143028918Y-104822222D01*
X142992192Y-104824822D01*
X142982526Y-104825135D01*
X142956322Y-104824975D01*
X142939244Y-104824871D01*
X142930612Y-104827338D01*
X142921721Y-104828556D01*
X142921709Y-104828466D01*
X142913742Y-104829870D01*
X142910423Y-104830612D01*
X142901028Y-104831277D01*
X142892245Y-104834675D01*
X142892240Y-104834676D01*
X142861679Y-104846499D01*
X142850842Y-104850136D01*
X142821816Y-104858432D01*
X142821815Y-104858432D01*
X142813185Y-104860899D01*
X142805594Y-104865688D01*
X142805436Y-104865759D01*
X142783900Y-104876591D01*
X142772667Y-104880937D01*
X142765266Y-104886771D01*
X142765265Y-104886772D01*
X142742733Y-104904534D01*
X142731964Y-104912145D01*
X142716723Y-104921762D01*
X142702305Y-104930859D01*
X142696364Y-104937587D01*
X142696362Y-104937588D01*
X142693695Y-104940608D01*
X142677261Y-104956149D01*
X142664582Y-104966144D01*
X142659228Y-104973891D01*
X142659224Y-104973895D01*
X142645221Y-104994155D01*
X142636013Y-105005920D01*
X142630045Y-105012678D01*
X142615517Y-105029128D01*
X142611703Y-105037251D01*
X142608244Y-105044619D01*
X142597845Y-105062703D01*
X142586330Y-105079365D01*
X142583490Y-105088344D01*
X142583487Y-105088351D01*
X142577294Y-105107934D01*
X142571214Y-105123490D01*
X142559798Y-105147805D01*
X142558057Y-105158989D01*
X142556534Y-105168770D01*
X142552169Y-105187383D01*
X142547654Y-105201660D01*
X142544829Y-105210591D01*
X142544300Y-105217312D01*
X142544300Y-105237594D01*
X142542800Y-105256978D01*
X142541094Y-105267936D01*
X142539628Y-105277351D01*
X142540792Y-105286253D01*
X142540792Y-105286256D01*
X142543236Y-105304943D01*
X142544300Y-105321280D01*
X142544300Y-105334300D01*
X142524298Y-105402421D01*
X142470642Y-105448914D01*
X142418300Y-105460300D01*
X142205612Y-105460300D01*
X142200965Y-105460999D01*
X142200960Y-105460999D01*
X142113208Y-105474192D01*
X142113206Y-105474193D01*
X142103898Y-105475592D01*
X142095412Y-105479667D01*
X142088748Y-105481717D01*
X142017758Y-105482629D01*
X141957543Y-105445016D01*
X141927223Y-105380819D01*
X141925700Y-105361287D01*
X141925700Y-105267936D01*
X141914689Y-105212582D01*
X141914689Y-105163418D01*
X141924493Y-105114131D01*
X141925700Y-105108064D01*
X141925700Y-104767936D01*
X141913881Y-104708520D01*
X141906803Y-104697926D01*
X141875752Y-104651455D01*
X141868860Y-104641140D01*
X141801480Y-104596119D01*
X141742064Y-104584300D01*
X140451936Y-104584300D01*
X140405390Y-104593559D01*
X140334678Y-104587232D01*
X140278610Y-104543678D01*
X140254810Y-104470493D01*
X140254708Y-104445300D01*
X140254108Y-104298213D01*
X140273832Y-104230012D01*
X140327298Y-104183301D01*
X140380107Y-104171700D01*
X142042064Y-104171700D01*
X142101480Y-104159881D01*
X142168860Y-104114860D01*
X142213881Y-104047480D01*
X142225700Y-103988064D01*
X142225700Y-102767936D01*
X142213881Y-102708520D01*
X142168860Y-102641140D01*
X142101480Y-102596119D01*
X142042064Y-102584300D01*
X140372607Y-102584300D01*
X140304486Y-102564298D01*
X140257993Y-102510642D01*
X140246608Y-102458814D01*
X140246510Y-102434752D01*
X140243964Y-101810462D01*
X140245846Y-101793581D01*
X140245857Y-101787416D01*
X140249037Y-101773587D01*
X140245905Y-101759746D01*
X140245912Y-101756046D01*
X140246446Y-101744683D01*
X140248273Y-101724903D01*
X140257722Y-101622554D01*
X140261963Y-101599779D01*
X140300055Y-101465387D01*
X140308396Y-101443772D01*
X140331003Y-101398182D01*
X140370448Y-101318633D01*
X140382605Y-101298911D01*
X140466521Y-101187247D01*
X140482083Y-101170085D01*
X140585020Y-101075677D01*
X140603460Y-101061654D01*
X140721950Y-100987683D01*
X140742646Y-100977273D01*
X140872676Y-100926249D01*
X140894930Y-100919805D01*
X141032100Y-100893451D01*
X141055158Y-100891190D01*
X141074965Y-100891078D01*
X141178446Y-100890490D01*
X141190245Y-100890977D01*
G37*
%TD.AperFunction*%
%TA.AperFunction,Conductor*%
G36*
X156900421Y-106409669D02*
G01*
X156946914Y-106463325D01*
X156958300Y-106515667D01*
X156958300Y-107048300D01*
X156938298Y-107116421D01*
X156884642Y-107162914D01*
X156832300Y-107174300D01*
X156674949Y-107174300D01*
X156663968Y-107173821D01*
X156636709Y-107171436D01*
X156636708Y-107171436D01*
X156625733Y-107170476D01*
X156588661Y-107180409D01*
X156577947Y-107182784D01*
X156562100Y-107185578D01*
X156551003Y-107187535D01*
X156551002Y-107187535D01*
X156540149Y-107189449D01*
X156530604Y-107194960D01*
X156527111Y-107196231D01*
X156523733Y-107197806D01*
X156513084Y-107200660D01*
X156504053Y-107206984D01*
X156504050Y-107206985D01*
X156481645Y-107222673D01*
X156472375Y-107228578D01*
X156439151Y-107247761D01*
X156432067Y-107256204D01*
X156432064Y-107256206D01*
X156414478Y-107277164D01*
X156407052Y-107285268D01*
X155709748Y-107982572D01*
X155701644Y-107989998D01*
X155680686Y-108007584D01*
X155680684Y-108007587D01*
X155672241Y-108014671D01*
X155657518Y-108040171D01*
X155653058Y-108047896D01*
X155647153Y-108057165D01*
X155631465Y-108079570D01*
X155631464Y-108079573D01*
X155625140Y-108088604D01*
X155622286Y-108099253D01*
X155620711Y-108102631D01*
X155619440Y-108106124D01*
X155613929Y-108115669D01*
X155612015Y-108126522D01*
X155612015Y-108126523D01*
X155607265Y-108153463D01*
X155604889Y-108164181D01*
X155594956Y-108201253D01*
X155595808Y-108210996D01*
X155570225Y-108276399D01*
X155512721Y-108318039D01*
X155470567Y-108325300D01*
X154957500Y-108325301D01*
X154892776Y-108325301D01*
X154889828Y-108325580D01*
X154889819Y-108325580D01*
X154870412Y-108327414D01*
X154870411Y-108327414D01*
X154862762Y-108328137D01*
X154855515Y-108330682D01*
X154750019Y-108367729D01*
X154750016Y-108367730D01*
X154741133Y-108370850D01*
X154637440Y-108447440D01*
X154560850Y-108551133D01*
X154557730Y-108560017D01*
X154557726Y-108560025D01*
X154534196Y-108627029D01*
X154492753Y-108684674D01*
X154426723Y-108710762D01*
X154357071Y-108697011D01*
X154303047Y-108642482D01*
X154275671Y-108588753D01*
X154185247Y-108498329D01*
X154071305Y-108440273D01*
X154061515Y-108438722D01*
X154061514Y-108438722D01*
X154035037Y-108434529D01*
X153976770Y-108425300D01*
X153363230Y-108425300D01*
X153304963Y-108434529D01*
X153278486Y-108438722D01*
X153278485Y-108438722D01*
X153268695Y-108440273D01*
X153154753Y-108498329D01*
X153072795Y-108580287D01*
X153010483Y-108614313D01*
X152939668Y-108609248D01*
X152882832Y-108566701D01*
X152858021Y-108500181D01*
X152857700Y-108491192D01*
X152857700Y-106572949D01*
X152858179Y-106561968D01*
X152858713Y-106555863D01*
X152861524Y-106523733D01*
X152861109Y-106522183D01*
X152873952Y-106458269D01*
X152923350Y-106407275D01*
X152974508Y-106391368D01*
X152976321Y-106391209D01*
X152988481Y-106390146D01*
X152999458Y-106389667D01*
X156832300Y-106389667D01*
X156900421Y-106409669D01*
G37*
%TD.AperFunction*%
%TD*%
M02*
