%TF.GenerationSoftware,KiCad,Pcbnew,(6.0.1)*%
%TF.CreationDate,2022-01-24T11:38:00+08:00*%
%TF.ProjectId,ST-Link_v2-1,53542d4c-696e-46b5-9f76-322d312e6b69,rev?*%
%TF.SameCoordinates,Original*%
%TF.FileFunction,Legend,Top*%
%TF.FilePolarity,Positive*%
%FSLAX46Y46*%
G04 Gerber Fmt 4.6, Leading zero omitted, Abs format (unit mm)*
G04 Created by KiCad (PCBNEW (6.0.1)) date 2022-01-24 11:38:00*
%MOMM*%
%LPD*%
G01*
G04 APERTURE LIST*
G04 Aperture macros list*
%AMRoundRect*
0 Rectangle with rounded corners*
0 $1 Rounding radius*
0 $2 $3 $4 $5 $6 $7 $8 $9 X,Y pos of 4 corners*
0 Add a 4 corners polygon primitive as box body*
4,1,4,$2,$3,$4,$5,$6,$7,$8,$9,$2,$3,0*
0 Add four circle primitives for the rounded corners*
1,1,$1+$1,$2,$3*
1,1,$1+$1,$4,$5*
1,1,$1+$1,$6,$7*
1,1,$1+$1,$8,$9*
0 Add four rect primitives between the rounded corners*
20,1,$1+$1,$2,$3,$4,$5,0*
20,1,$1+$1,$4,$5,$6,$7,0*
20,1,$1+$1,$6,$7,$8,$9,0*
20,1,$1+$1,$8,$9,$2,$3,0*%
G04 Aperture macros list end*
%ADD10C,0.127000*%
%ADD11C,0.100000*%
%ADD12RoundRect,0.218750X0.218750X0.256250X-0.218750X0.256250X-0.218750X-0.256250X0.218750X-0.256250X0*%
%ADD13RoundRect,0.075000X0.662500X0.075000X-0.662500X0.075000X-0.662500X-0.075000X0.662500X-0.075000X0*%
%ADD14RoundRect,0.075000X0.075000X0.662500X-0.075000X0.662500X-0.075000X-0.662500X0.075000X-0.662500X0*%
%ADD15RoundRect,0.218750X0.256250X-0.218750X0.256250X0.218750X-0.256250X0.218750X-0.256250X-0.218750X0*%
%ADD16RoundRect,0.150000X0.700000X-0.150000X0.700000X0.150000X-0.700000X0.150000X-0.700000X-0.150000X0*%
%ADD17RoundRect,0.250000X1.100000X-0.250000X1.100000X0.250000X-1.100000X0.250000X-1.100000X-0.250000X0*%
%ADD18RoundRect,0.218750X-0.218750X-0.256250X0.218750X-0.256250X0.218750X0.256250X-0.218750X0.256250X0*%
%ADD19RoundRect,0.200000X-0.200000X-0.275000X0.200000X-0.275000X0.200000X0.275000X-0.200000X0.275000X0*%
%ADD20RoundRect,0.200000X0.200000X0.275000X-0.200000X0.275000X-0.200000X-0.275000X0.200000X-0.275000X0*%
%ADD21C,1.500000*%
%ADD22R,1.850000X0.300000*%
%ADD23R,1.250000X0.300000*%
%ADD24R,1.850000X1.180000*%
%ADD25R,1.060000X0.650000*%
G04 APERTURE END LIST*
D10*
X158060571Y-114009714D02*
X158060571Y-113247714D01*
X158060571Y-113610571D02*
X158496000Y-113610571D01*
X158496000Y-114009714D02*
X158496000Y-113247714D01*
X158858857Y-114009714D02*
X158858857Y-113247714D01*
X159294285Y-114009714D02*
X158967714Y-113574285D01*
X159294285Y-113247714D02*
X158858857Y-113683142D01*
X159620857Y-113247714D02*
X159620857Y-113864571D01*
X159657142Y-113937142D01*
X159693428Y-113973428D01*
X159766000Y-114009714D01*
X159911142Y-114009714D01*
X159983714Y-113973428D01*
X160020000Y-113937142D01*
X160056285Y-113864571D01*
X160056285Y-113247714D01*
X160382857Y-113973428D02*
X160491714Y-114009714D01*
X160673142Y-114009714D01*
X160745714Y-113973428D01*
X160782000Y-113937142D01*
X160818285Y-113864571D01*
X160818285Y-113792000D01*
X160782000Y-113719428D01*
X160745714Y-113683142D01*
X160673142Y-113646857D01*
X160528000Y-113610571D01*
X160455428Y-113574285D01*
X160419142Y-113538000D01*
X160382857Y-113465428D01*
X160382857Y-113392857D01*
X160419142Y-113320285D01*
X160455428Y-113284000D01*
X160528000Y-113247714D01*
X160709428Y-113247714D01*
X160818285Y-113284000D01*
X161036000Y-113247714D02*
X161471428Y-113247714D01*
X161253714Y-114009714D02*
X161253714Y-113247714D01*
X162741428Y-114009714D02*
X162487428Y-113646857D01*
X162306000Y-114009714D02*
X162306000Y-113247714D01*
X162596285Y-113247714D01*
X162668857Y-113284000D01*
X162705142Y-113320285D01*
X162741428Y-113392857D01*
X162741428Y-113501714D01*
X162705142Y-113574285D01*
X162668857Y-113610571D01*
X162596285Y-113646857D01*
X162306000Y-113646857D01*
X163176857Y-114009714D02*
X163104285Y-113973428D01*
X163068000Y-113937142D01*
X163031714Y-113864571D01*
X163031714Y-113646857D01*
X163068000Y-113574285D01*
X163104285Y-113538000D01*
X163176857Y-113501714D01*
X163285714Y-113501714D01*
X163358285Y-113538000D01*
X163394571Y-113574285D01*
X163430857Y-113646857D01*
X163430857Y-113864571D01*
X163394571Y-113937142D01*
X163358285Y-113973428D01*
X163285714Y-114009714D01*
X163176857Y-114009714D01*
X163757428Y-114009714D02*
X163757428Y-113247714D01*
X163757428Y-113538000D02*
X163830000Y-113501714D01*
X163975142Y-113501714D01*
X164047714Y-113538000D01*
X164084000Y-113574285D01*
X164120285Y-113646857D01*
X164120285Y-113864571D01*
X164084000Y-113937142D01*
X164047714Y-113973428D01*
X163975142Y-114009714D01*
X163830000Y-114009714D01*
X163757428Y-113973428D01*
X164555714Y-114009714D02*
X164483142Y-113973428D01*
X164446857Y-113937142D01*
X164410571Y-113864571D01*
X164410571Y-113646857D01*
X164446857Y-113574285D01*
X164483142Y-113538000D01*
X164555714Y-113501714D01*
X164664571Y-113501714D01*
X164737142Y-113538000D01*
X164773428Y-113574285D01*
X164809714Y-113646857D01*
X164809714Y-113864571D01*
X164773428Y-113937142D01*
X164737142Y-113973428D01*
X164664571Y-114009714D01*
X164555714Y-114009714D01*
X165027428Y-113501714D02*
X165317714Y-113501714D01*
X165136285Y-113247714D02*
X165136285Y-113900857D01*
X165172571Y-113973428D01*
X165245142Y-114009714D01*
X165317714Y-114009714D01*
X165571714Y-114009714D02*
X165571714Y-113501714D01*
X165571714Y-113247714D02*
X165535428Y-113284000D01*
X165571714Y-113320285D01*
X165608000Y-113284000D01*
X165571714Y-113247714D01*
X165571714Y-113320285D01*
X166261142Y-113973428D02*
X166188571Y-114009714D01*
X166043428Y-114009714D01*
X165970857Y-113973428D01*
X165934571Y-113937142D01*
X165898285Y-113864571D01*
X165898285Y-113646857D01*
X165934571Y-113574285D01*
X165970857Y-113538000D01*
X166043428Y-113501714D01*
X166188571Y-113501714D01*
X166261142Y-113538000D01*
X166551428Y-113973428D02*
X166624000Y-114009714D01*
X166769142Y-114009714D01*
X166841714Y-113973428D01*
X166878000Y-113900857D01*
X166878000Y-113864571D01*
X166841714Y-113792000D01*
X166769142Y-113755714D01*
X166660285Y-113755714D01*
X166587714Y-113719428D01*
X166551428Y-113646857D01*
X166551428Y-113610571D01*
X166587714Y-113538000D01*
X166660285Y-113501714D01*
X166769142Y-113501714D01*
X166841714Y-113538000D01*
X167676285Y-113247714D02*
X168111714Y-113247714D01*
X167894000Y-114009714D02*
X167894000Y-113247714D01*
X168656000Y-113973428D02*
X168583428Y-114009714D01*
X168438285Y-114009714D01*
X168365714Y-113973428D01*
X168329428Y-113900857D01*
X168329428Y-113610571D01*
X168365714Y-113538000D01*
X168438285Y-113501714D01*
X168583428Y-113501714D01*
X168656000Y-113538000D01*
X168692285Y-113610571D01*
X168692285Y-113683142D01*
X168329428Y-113755714D01*
X169345428Y-114009714D02*
X169345428Y-113610571D01*
X169309142Y-113538000D01*
X169236571Y-113501714D01*
X169091428Y-113501714D01*
X169018857Y-113538000D01*
X169345428Y-113973428D02*
X169272857Y-114009714D01*
X169091428Y-114009714D01*
X169018857Y-113973428D01*
X168982571Y-113900857D01*
X168982571Y-113828285D01*
X169018857Y-113755714D01*
X169091428Y-113719428D01*
X169272857Y-113719428D01*
X169345428Y-113683142D01*
X169708285Y-114009714D02*
X169708285Y-113501714D01*
X169708285Y-113574285D02*
X169744571Y-113538000D01*
X169817142Y-113501714D01*
X169926000Y-113501714D01*
X169998571Y-113538000D01*
X170034857Y-113610571D01*
X170034857Y-114009714D01*
X170034857Y-113610571D02*
X170071142Y-113538000D01*
X170143714Y-113501714D01*
X170252571Y-113501714D01*
X170325142Y-113538000D01*
X170361428Y-113610571D01*
X170361428Y-114009714D01*
%TO.C,ST*%
X142367000Y-103686428D02*
X142475857Y-103722714D01*
X142657285Y-103722714D01*
X142729857Y-103686428D01*
X142766142Y-103650142D01*
X142802428Y-103577571D01*
X142802428Y-103505000D01*
X142766142Y-103432428D01*
X142729857Y-103396142D01*
X142657285Y-103359857D01*
X142512142Y-103323571D01*
X142439571Y-103287285D01*
X142403285Y-103251000D01*
X142367000Y-103178428D01*
X142367000Y-103105857D01*
X142403285Y-103033285D01*
X142439571Y-102997000D01*
X142512142Y-102960714D01*
X142693571Y-102960714D01*
X142802428Y-102997000D01*
X143020142Y-102960714D02*
X143455571Y-102960714D01*
X143237857Y-103722714D02*
X143237857Y-102960714D01*
%TO.C,Rx*%
X158423428Y-112866714D02*
X158169428Y-112503857D01*
X157988000Y-112866714D02*
X157988000Y-112104714D01*
X158278285Y-112104714D01*
X158350857Y-112141000D01*
X158387142Y-112177285D01*
X158423428Y-112249857D01*
X158423428Y-112358714D01*
X158387142Y-112431285D01*
X158350857Y-112467571D01*
X158278285Y-112503857D01*
X157988000Y-112503857D01*
X158677428Y-112866714D02*
X159076571Y-112358714D01*
X158677428Y-112358714D02*
X159076571Y-112866714D01*
%TO.C,3.3*%
X149188714Y-113574285D02*
X149188714Y-113102571D01*
X149479000Y-113356571D01*
X149479000Y-113247714D01*
X149515285Y-113175142D01*
X149551571Y-113138857D01*
X149624142Y-113102571D01*
X149805571Y-113102571D01*
X149878142Y-113138857D01*
X149914428Y-113175142D01*
X149950714Y-113247714D01*
X149950714Y-113465428D01*
X149914428Y-113538000D01*
X149878142Y-113574285D01*
X149878142Y-112776000D02*
X149914428Y-112739714D01*
X149950714Y-112776000D01*
X149914428Y-112812285D01*
X149878142Y-112776000D01*
X149950714Y-112776000D01*
X149188714Y-112485714D02*
X149188714Y-112014000D01*
X149479000Y-112268000D01*
X149479000Y-112159142D01*
X149515285Y-112086571D01*
X149551571Y-112050285D01*
X149624142Y-112014000D01*
X149805571Y-112014000D01*
X149878142Y-112050285D01*
X149914428Y-112086571D01*
X149950714Y-112159142D01*
X149950714Y-112376857D01*
X149914428Y-112449428D01*
X149878142Y-112485714D01*
%TO.C,Tx*%
X150603857Y-111977714D02*
X151039285Y-111977714D01*
X150821571Y-112739714D02*
X150821571Y-111977714D01*
X151220714Y-112739714D02*
X151619857Y-112231714D01*
X151220714Y-112231714D02*
X151619857Y-112739714D01*
%TO.C,R11*%
X147410714Y-105391857D02*
X147047857Y-105645857D01*
X147410714Y-105827285D02*
X146648714Y-105827285D01*
X146648714Y-105537000D01*
X146685000Y-105464428D01*
X146721285Y-105428142D01*
X146793857Y-105391857D01*
X146902714Y-105391857D01*
X146975285Y-105428142D01*
X147011571Y-105464428D01*
X147047857Y-105537000D01*
X147047857Y-105827285D01*
X147410714Y-104666142D02*
X147410714Y-105101571D01*
X147410714Y-104883857D02*
X146648714Y-104883857D01*
X146757571Y-104956428D01*
X146830142Y-105029000D01*
X146866428Y-105101571D01*
X147410714Y-103940428D02*
X147410714Y-104375857D01*
X147410714Y-104158142D02*
X146648714Y-104158142D01*
X146757571Y-104230714D01*
X146830142Y-104303285D01*
X146866428Y-104375857D01*
%TO.C,R17*%
X143346714Y-106915857D02*
X142983857Y-107169857D01*
X143346714Y-107351285D02*
X142584714Y-107351285D01*
X142584714Y-107061000D01*
X142621000Y-106988428D01*
X142657285Y-106952142D01*
X142729857Y-106915857D01*
X142838714Y-106915857D01*
X142911285Y-106952142D01*
X142947571Y-106988428D01*
X142983857Y-107061000D01*
X142983857Y-107351285D01*
X143346714Y-106190142D02*
X143346714Y-106625571D01*
X143346714Y-106407857D02*
X142584714Y-106407857D01*
X142693571Y-106480428D01*
X142766142Y-106553000D01*
X142802428Y-106625571D01*
X142584714Y-105936142D02*
X142584714Y-105428142D01*
X143346714Y-105754714D01*
%TO.C,R22*%
X143346714Y-109201857D02*
X142983857Y-109455857D01*
X143346714Y-109637285D02*
X142584714Y-109637285D01*
X142584714Y-109347000D01*
X142621000Y-109274428D01*
X142657285Y-109238142D01*
X142729857Y-109201857D01*
X142838714Y-109201857D01*
X142911285Y-109238142D01*
X142947571Y-109274428D01*
X142983857Y-109347000D01*
X142983857Y-109637285D01*
X142657285Y-108911571D02*
X142621000Y-108875285D01*
X142584714Y-108802714D01*
X142584714Y-108621285D01*
X142621000Y-108548714D01*
X142657285Y-108512428D01*
X142729857Y-108476142D01*
X142802428Y-108476142D01*
X142911285Y-108512428D01*
X143346714Y-108947857D01*
X143346714Y-108476142D01*
X142657285Y-108185857D02*
X142621000Y-108149571D01*
X142584714Y-108077000D01*
X142584714Y-107895571D01*
X142621000Y-107823000D01*
X142657285Y-107786714D01*
X142729857Y-107750428D01*
X142802428Y-107750428D01*
X142911285Y-107786714D01*
X143346714Y-108222142D01*
X143346714Y-107750428D01*
%TO.C,R18*%
X147410714Y-108439857D02*
X147047857Y-108693857D01*
X147410714Y-108875285D02*
X146648714Y-108875285D01*
X146648714Y-108585000D01*
X146685000Y-108512428D01*
X146721285Y-108476142D01*
X146793857Y-108439857D01*
X146902714Y-108439857D01*
X146975285Y-108476142D01*
X147011571Y-108512428D01*
X147047857Y-108585000D01*
X147047857Y-108875285D01*
X147410714Y-107714142D02*
X147410714Y-108149571D01*
X147410714Y-107931857D02*
X146648714Y-107931857D01*
X146757571Y-108004428D01*
X146830142Y-108077000D01*
X146866428Y-108149571D01*
X146975285Y-107278714D02*
X146939000Y-107351285D01*
X146902714Y-107387571D01*
X146830142Y-107423857D01*
X146793857Y-107423857D01*
X146721285Y-107387571D01*
X146685000Y-107351285D01*
X146648714Y-107278714D01*
X146648714Y-107133571D01*
X146685000Y-107061000D01*
X146721285Y-107024714D01*
X146793857Y-106988428D01*
X146830142Y-106988428D01*
X146902714Y-107024714D01*
X146939000Y-107061000D01*
X146975285Y-107133571D01*
X146975285Y-107278714D01*
X147011571Y-107351285D01*
X147047857Y-107387571D01*
X147120428Y-107423857D01*
X147265571Y-107423857D01*
X147338142Y-107387571D01*
X147374428Y-107351285D01*
X147410714Y-107278714D01*
X147410714Y-107133571D01*
X147374428Y-107061000D01*
X147338142Y-107024714D01*
X147265571Y-106988428D01*
X147120428Y-106988428D01*
X147047857Y-107024714D01*
X147011571Y-107061000D01*
X146975285Y-107133571D01*
D11*
%TO.C,ST*%
X146519000Y-102643000D02*
X144234000Y-102643000D01*
X146519000Y-104113000D02*
X146519000Y-102643000D01*
X144234000Y-104113000D02*
X146519000Y-104113000D01*
%TO.C,U1*%
X149171000Y-109909000D02*
X149171000Y-109459000D01*
X155941000Y-102689000D02*
X156391000Y-102689000D01*
X155941000Y-109909000D02*
X156391000Y-109909000D01*
X156391000Y-102689000D02*
X156391000Y-103139000D01*
X149621000Y-109909000D02*
X149171000Y-109909000D01*
X156391000Y-109459000D02*
X157681000Y-109459000D01*
X156391000Y-109909000D02*
X156391000Y-109459000D01*
X149621000Y-102689000D02*
X149171000Y-102689000D01*
X149171000Y-102689000D02*
X149171000Y-103139000D01*
%TO.C,Rx*%
X157822000Y-112168000D02*
X155537000Y-112168000D01*
X155537000Y-113638000D02*
X157822000Y-113638000D01*
X157822000Y-113638000D02*
X157822000Y-112168000D01*
%TO.C,3.3*%
X147474000Y-111214000D02*
X147474000Y-113499000D01*
X147474000Y-113499000D02*
X148944000Y-113499000D01*
X148944000Y-113499000D02*
X148944000Y-111214000D01*
%TO.C,J1*%
X170200000Y-111276000D02*
X170200000Y-102846000D01*
X165930000Y-101576000D02*
X165930000Y-103376000D01*
X165930000Y-110746000D02*
X164940000Y-110746000D01*
X167380000Y-112546000D02*
X165930000Y-112546000D01*
X167380000Y-101576000D02*
X165930000Y-101576000D01*
X165930000Y-112546000D02*
X165930000Y-110746000D01*
%TO.C,Tx*%
X154089000Y-112168000D02*
X151804000Y-112168000D01*
X151804000Y-113638000D02*
X154089000Y-113638000D01*
X151804000Y-112168000D02*
X151804000Y-113638000D01*
%TO.C,R11*%
X144796742Y-104379500D02*
X145271258Y-104379500D01*
X144796742Y-105424500D02*
X145271258Y-105424500D01*
%TO.C,R17*%
X145271258Y-106948500D02*
X144796742Y-106948500D01*
X145271258Y-105903500D02*
X144796742Y-105903500D01*
%TO.C,Y1*%
X158892000Y-103761000D02*
X158892000Y-110161000D01*
X163942000Y-103761000D02*
X163942000Y-110161000D01*
X163942000Y-103761000D02*
G75*
G03*
X158892000Y-103761000I-2525000J0D01*
G01*
X158892000Y-110161000D02*
G75*
G03*
X163942000Y-110161000I2525000J0D01*
G01*
%TO.C,R22*%
X144796742Y-108951500D02*
X145271258Y-108951500D01*
X144796742Y-109996500D02*
X145271258Y-109996500D01*
%TO.C,R18*%
X145271258Y-107427500D02*
X144796742Y-107427500D01*
X145271258Y-108472500D02*
X144796742Y-108472500D01*
%TO.C,P1*%
X142697000Y-109938000D02*
G75*
G03*
X142697000Y-109938000I-100000J0D01*
G01*
%TO.C,U2*%
X146339000Y-110566500D02*
X143889000Y-110566500D01*
X144539000Y-113786500D02*
X146339000Y-113786500D01*
%TD*%
%LPC*%
D12*
%TO.C,ST*%
X145821500Y-103378000D03*
X144246500Y-103378000D03*
%TD*%
D13*
%TO.C,U1*%
X156943500Y-109049000D03*
X156943500Y-108549000D03*
X156943500Y-108049000D03*
X156943500Y-107549000D03*
X156943500Y-107049000D03*
X156943500Y-106549000D03*
X156943500Y-106049000D03*
X156943500Y-105549000D03*
X156943500Y-105049000D03*
X156943500Y-104549000D03*
X156943500Y-104049000D03*
X156943500Y-103549000D03*
D14*
X155531000Y-102136500D03*
X155031000Y-102136500D03*
X154531000Y-102136500D03*
X154031000Y-102136500D03*
X153531000Y-102136500D03*
X153031000Y-102136500D03*
X152531000Y-102136500D03*
X152031000Y-102136500D03*
X151531000Y-102136500D03*
X151031000Y-102136500D03*
X150531000Y-102136500D03*
X150031000Y-102136500D03*
D13*
X148618500Y-103549000D03*
X148618500Y-104049000D03*
X148618500Y-104549000D03*
X148618500Y-105049000D03*
X148618500Y-105549000D03*
X148618500Y-106049000D03*
X148618500Y-106549000D03*
X148618500Y-107049000D03*
X148618500Y-107549000D03*
X148618500Y-108049000D03*
X148618500Y-108549000D03*
X148618500Y-109049000D03*
D14*
X150031000Y-110461500D03*
X150531000Y-110461500D03*
X151031000Y-110461500D03*
X151531000Y-110461500D03*
X152031000Y-110461500D03*
X152531000Y-110461500D03*
X153031000Y-110461500D03*
X153531000Y-110461500D03*
X154031000Y-110461500D03*
X154531000Y-110461500D03*
X155031000Y-110461500D03*
X155531000Y-110461500D03*
%TD*%
D12*
%TO.C,Rx*%
X157124500Y-112903000D03*
X155549500Y-112903000D03*
%TD*%
D15*
%TO.C,3.3*%
X148209000Y-112801500D03*
X148209000Y-111226500D03*
%TD*%
D16*
%TO.C,J1*%
X165790000Y-110186000D03*
X165790000Y-108936000D03*
X165790000Y-107686000D03*
X165790000Y-106436000D03*
X165790000Y-105186000D03*
X165790000Y-103936000D03*
D17*
X168990000Y-102086000D03*
X168990000Y-112036000D03*
%TD*%
D18*
%TO.C,Tx*%
X154076500Y-112903000D03*
X152501500Y-112903000D03*
%TD*%
D19*
%TO.C,R11*%
X144209000Y-104902000D03*
X145859000Y-104902000D03*
%TD*%
D20*
%TO.C,R17*%
X145859000Y-106426000D03*
X144209000Y-106426000D03*
%TD*%
D21*
%TO.C,Y1*%
X161417000Y-104521000D03*
X161417000Y-109401000D03*
%TD*%
D19*
%TO.C,R22*%
X144209000Y-109474000D03*
X145859000Y-109474000D03*
%TD*%
D20*
%TO.C,R18*%
X145859000Y-107950000D03*
X144209000Y-107950000D03*
%TD*%
D22*
%TO.C,P1*%
X141097000Y-109938000D03*
D23*
X141097000Y-109438000D03*
X141097000Y-108938000D03*
X141097000Y-108438000D03*
X141097000Y-107938000D03*
X141097000Y-107438000D03*
X141097000Y-106938000D03*
X141097000Y-106438000D03*
X141097000Y-105938000D03*
X141097000Y-105438000D03*
X141097000Y-104938000D03*
D22*
X141097000Y-104438000D03*
D24*
X141097000Y-110998000D03*
X141097000Y-103378000D03*
%TD*%
D25*
%TO.C,U2*%
X144339000Y-111226500D03*
X144339000Y-112176500D03*
X144339000Y-113126500D03*
X146539000Y-113126500D03*
X146539000Y-111226500D03*
%TD*%
M02*
