%TF.GenerationSoftware,KiCad,Pcbnew,(5.1.10)-1*%
%TF.CreationDate,2021-12-27T10:27:14+08:00*%
%TF.ProjectId,ST-Link_v2-1,53542d4c-696e-46b5-9f76-322d312e6b69,rev?*%
%TF.SameCoordinates,Original*%
%TF.FileFunction,Copper,L2,Bot*%
%TF.FilePolarity,Positive*%
%FSLAX46Y46*%
G04 Gerber Fmt 4.6, Leading zero omitted, Abs format (unit mm)*
G04 Created by KiCad (PCBNEW (5.1.10)-1) date 2021-12-27 10:27:14*
%MOMM*%
%LPD*%
G01*
G04 APERTURE LIST*
%TA.AperFunction,SMDPad,CuDef*%
%ADD10R,1.850000X0.300000*%
%TD*%
%TA.AperFunction,SMDPad,CuDef*%
%ADD11R,1.250000X0.300000*%
%TD*%
%TA.AperFunction,SMDPad,CuDef*%
%ADD12R,1.850000X1.180000*%
%TD*%
%TA.AperFunction,SMDPad,CuDef*%
%ADD13R,1.200000X1.400000*%
%TD*%
%TA.AperFunction,ViaPad*%
%ADD14C,0.508000*%
%TD*%
%TA.AperFunction,Conductor*%
%ADD15C,0.254000*%
%TD*%
%TA.AperFunction,Conductor*%
%ADD16C,0.508000*%
%TD*%
%TA.AperFunction,Conductor*%
%ADD17C,0.100000*%
%TD*%
G04 APERTURE END LIST*
D10*
%TO.P,P1,B12*%
%TO.N,GND*%
X122682000Y-92793000D03*
D11*
%TO.P,P1,B11*%
%TO.N,N/C*%
X122682000Y-92293000D03*
%TO.P,P1,B10*%
X122682000Y-91793000D03*
%TO.P,P1,B9*%
%TO.N,+5V*%
X122682000Y-91293000D03*
%TO.P,P1,B8*%
%TO.N,N/C*%
X122682000Y-90793000D03*
%TO.P,P1,B7*%
X122682000Y-90293000D03*
%TO.P,P1,B6*%
X122682000Y-89793000D03*
%TO.P,P1,B5*%
%TO.N,Net-(P1-PadB5)*%
X122682000Y-89293000D03*
%TO.P,P1,B4*%
%TO.N,+5V*%
X122682000Y-88793000D03*
%TO.P,P1,B3*%
%TO.N,N/C*%
X122682000Y-88293000D03*
%TO.P,P1,B2*%
X122682000Y-87793000D03*
D10*
%TO.P,P1,B1*%
%TO.N,GND*%
X122682000Y-87293000D03*
D12*
%TO.P,P1,S3*%
%TO.N,N/C*%
X122682000Y-93853000D03*
%TO.P,P1,S4*%
X122682000Y-86233000D03*
%TD*%
D13*
%TO.P,Y1,4*%
%TO.N,GND*%
X142734000Y-90381000D03*
%TO.P,Y1,3*%
%TO.N,Net-(C3-Pad1)*%
X142734000Y-88181000D03*
%TO.P,Y1,2*%
%TO.N,GND*%
X141034000Y-88181000D03*
%TO.P,Y1,1*%
%TO.N,Net-(C2-Pad1)*%
X141034000Y-90381000D03*
%TD*%
%TO.P,R22,1*%
%TO.N,Net-(P1-PadA5)*%
%TA.AperFunction,SMDPad,CuDef*%
G36*
G01*
X124559000Y-89223001D02*
X124559000Y-88322999D01*
G75*
G02*
X124808999Y-88073000I249999J0D01*
G01*
X125334001Y-88073000D01*
G75*
G02*
X125584000Y-88322999I0J-249999D01*
G01*
X125584000Y-89223001D01*
G75*
G02*
X125334001Y-89473000I-249999J0D01*
G01*
X124808999Y-89473000D01*
G75*
G02*
X124559000Y-89223001I0J249999D01*
G01*
G37*
%TD.AperFunction*%
%TO.P,R22,2*%
%TO.N,GND*%
%TA.AperFunction,SMDPad,CuDef*%
G36*
G01*
X126384000Y-89223001D02*
X126384000Y-88322999D01*
G75*
G02*
X126633999Y-88073000I249999J0D01*
G01*
X127159001Y-88073000D01*
G75*
G02*
X127409000Y-88322999I0J-249999D01*
G01*
X127409000Y-89223001D01*
G75*
G02*
X127159001Y-89473000I-249999J0D01*
G01*
X126633999Y-89473000D01*
G75*
G02*
X126384000Y-89223001I0J249999D01*
G01*
G37*
%TD.AperFunction*%
%TD*%
%TO.P,R20,1*%
%TO.N,/ST_SWDIO*%
%TA.AperFunction,SMDPad,CuDef*%
G36*
G01*
X132149001Y-90198000D02*
X131248999Y-90198000D01*
G75*
G02*
X130999000Y-89948001I0J249999D01*
G01*
X130999000Y-89422999D01*
G75*
G02*
X131248999Y-89173000I249999J0D01*
G01*
X132149001Y-89173000D01*
G75*
G02*
X132399000Y-89422999I0J-249999D01*
G01*
X132399000Y-89948001D01*
G75*
G02*
X132149001Y-90198000I-249999J0D01*
G01*
G37*
%TD.AperFunction*%
%TO.P,R20,2*%
%TO.N,/JTMS*%
%TA.AperFunction,SMDPad,CuDef*%
G36*
G01*
X132149001Y-88373000D02*
X131248999Y-88373000D01*
G75*
G02*
X130999000Y-88123001I0J249999D01*
G01*
X130999000Y-87597999D01*
G75*
G02*
X131248999Y-87348000I249999J0D01*
G01*
X132149001Y-87348000D01*
G75*
G02*
X132399000Y-87597999I0J-249999D01*
G01*
X132399000Y-88123001D01*
G75*
G02*
X132149001Y-88373000I-249999J0D01*
G01*
G37*
%TD.AperFunction*%
%TD*%
%TO.P,R19,1*%
%TO.N,/ST_SWCLK*%
%TA.AperFunction,SMDPad,CuDef*%
G36*
G01*
X134091001Y-90198000D02*
X133190999Y-90198000D01*
G75*
G02*
X132941000Y-89948001I0J249999D01*
G01*
X132941000Y-89422999D01*
G75*
G02*
X133190999Y-89173000I249999J0D01*
G01*
X134091001Y-89173000D01*
G75*
G02*
X134341000Y-89422999I0J-249999D01*
G01*
X134341000Y-89948001D01*
G75*
G02*
X134091001Y-90198000I-249999J0D01*
G01*
G37*
%TD.AperFunction*%
%TO.P,R19,2*%
%TO.N,/JTCK*%
%TA.AperFunction,SMDPad,CuDef*%
G36*
G01*
X134091001Y-88373000D02*
X133190999Y-88373000D01*
G75*
G02*
X132941000Y-88123001I0J249999D01*
G01*
X132941000Y-87597999D01*
G75*
G02*
X133190999Y-87348000I249999J0D01*
G01*
X134091001Y-87348000D01*
G75*
G02*
X134341000Y-87597999I0J-249999D01*
G01*
X134341000Y-88123001D01*
G75*
G02*
X134091001Y-88373000I-249999J0D01*
G01*
G37*
%TD.AperFunction*%
%TD*%
%TO.P,R16,1*%
%TO.N,+3V3*%
%TA.AperFunction,SMDPad,CuDef*%
G36*
G01*
X124559000Y-91763001D02*
X124559000Y-90862999D01*
G75*
G02*
X124808999Y-90613000I249999J0D01*
G01*
X125334001Y-90613000D01*
G75*
G02*
X125584000Y-90862999I0J-249999D01*
G01*
X125584000Y-91763001D01*
G75*
G02*
X125334001Y-92013000I-249999J0D01*
G01*
X124808999Y-92013000D01*
G75*
G02*
X124559000Y-91763001I0J249999D01*
G01*
G37*
%TD.AperFunction*%
%TO.P,R16,2*%
%TO.N,/D+*%
%TA.AperFunction,SMDPad,CuDef*%
G36*
G01*
X126384000Y-91763001D02*
X126384000Y-90862999D01*
G75*
G02*
X126633999Y-90613000I249999J0D01*
G01*
X127159001Y-90613000D01*
G75*
G02*
X127409000Y-90862999I0J-249999D01*
G01*
X127409000Y-91763001D01*
G75*
G02*
X127159001Y-92013000I-249999J0D01*
G01*
X126633999Y-92013000D01*
G75*
G02*
X126384000Y-91763001I0J249999D01*
G01*
G37*
%TD.AperFunction*%
%TD*%
%TO.P,R15,1*%
%TO.N,GND*%
%TA.AperFunction,SMDPad,CuDef*%
G36*
G01*
X143284000Y-85274999D02*
X143284000Y-86175001D01*
G75*
G02*
X143034001Y-86425000I-249999J0D01*
G01*
X142508999Y-86425000D01*
G75*
G02*
X142259000Y-86175001I0J249999D01*
G01*
X142259000Y-85274999D01*
G75*
G02*
X142508999Y-85025000I249999J0D01*
G01*
X143034001Y-85025000D01*
G75*
G02*
X143284000Y-85274999I0J-249999D01*
G01*
G37*
%TD.AperFunction*%
%TO.P,R15,2*%
%TO.N,Net-(R14-Pad1)*%
%TA.AperFunction,SMDPad,CuDef*%
G36*
G01*
X141459000Y-85274999D02*
X141459000Y-86175001D01*
G75*
G02*
X141209001Y-86425000I-249999J0D01*
G01*
X140683999Y-86425000D01*
G75*
G02*
X140434000Y-86175001I0J249999D01*
G01*
X140434000Y-85274999D01*
G75*
G02*
X140683999Y-85025000I249999J0D01*
G01*
X141209001Y-85025000D01*
G75*
G02*
X141459000Y-85274999I0J-249999D01*
G01*
G37*
%TD.AperFunction*%
%TD*%
%TO.P,R14,1*%
%TO.N,Net-(R14-Pad1)*%
%TA.AperFunction,SMDPad,CuDef*%
G36*
G01*
X140434000Y-84143001D02*
X140434000Y-83242999D01*
G75*
G02*
X140683999Y-82993000I249999J0D01*
G01*
X141209001Y-82993000D01*
G75*
G02*
X141459000Y-83242999I0J-249999D01*
G01*
X141459000Y-84143001D01*
G75*
G02*
X141209001Y-84393000I-249999J0D01*
G01*
X140683999Y-84393000D01*
G75*
G02*
X140434000Y-84143001I0J249999D01*
G01*
G37*
%TD.AperFunction*%
%TO.P,R14,2*%
%TO.N,+3V3*%
%TA.AperFunction,SMDPad,CuDef*%
G36*
G01*
X142259000Y-84143001D02*
X142259000Y-83242999D01*
G75*
G02*
X142508999Y-82993000I249999J0D01*
G01*
X143034001Y-82993000D01*
G75*
G02*
X143284000Y-83242999I0J-249999D01*
G01*
X143284000Y-84143001D01*
G75*
G02*
X143034001Y-84393000I-249999J0D01*
G01*
X142508999Y-84393000D01*
G75*
G02*
X142259000Y-84143001I0J249999D01*
G01*
G37*
%TD.AperFunction*%
%TD*%
%TO.P,R11,1*%
%TO.N,Net-(D5-Pad2)*%
%TA.AperFunction,SMDPad,CuDef*%
G36*
G01*
X125533999Y-84300000D02*
X126434001Y-84300000D01*
G75*
G02*
X126684000Y-84549999I0J-249999D01*
G01*
X126684000Y-85075001D01*
G75*
G02*
X126434001Y-85325000I-249999J0D01*
G01*
X125533999Y-85325000D01*
G75*
G02*
X125284000Y-85075001I0J249999D01*
G01*
X125284000Y-84549999D01*
G75*
G02*
X125533999Y-84300000I249999J0D01*
G01*
G37*
%TD.AperFunction*%
%TO.P,R11,2*%
%TO.N,/LED_STLINK*%
%TA.AperFunction,SMDPad,CuDef*%
G36*
G01*
X125533999Y-86125000D02*
X126434001Y-86125000D01*
G75*
G02*
X126684000Y-86374999I0J-249999D01*
G01*
X126684000Y-86900001D01*
G75*
G02*
X126434001Y-87150000I-249999J0D01*
G01*
X125533999Y-87150000D01*
G75*
G02*
X125284000Y-86900001I0J249999D01*
G01*
X125284000Y-86374999D01*
G75*
G02*
X125533999Y-86125000I249999J0D01*
G01*
G37*
%TD.AperFunction*%
%TD*%
%TO.P,R9,1*%
%TO.N,Net-(R9-Pad1)*%
%TA.AperFunction,SMDPad,CuDef*%
G36*
G01*
X140434000Y-94938001D02*
X140434000Y-94037999D01*
G75*
G02*
X140683999Y-93788000I249999J0D01*
G01*
X141209001Y-93788000D01*
G75*
G02*
X141459000Y-94037999I0J-249999D01*
G01*
X141459000Y-94938001D01*
G75*
G02*
X141209001Y-95188000I-249999J0D01*
G01*
X140683999Y-95188000D01*
G75*
G02*
X140434000Y-94938001I0J249999D01*
G01*
G37*
%TD.AperFunction*%
%TO.P,R9,2*%
%TO.N,GND*%
%TA.AperFunction,SMDPad,CuDef*%
G36*
G01*
X142259000Y-94938001D02*
X142259000Y-94037999D01*
G75*
G02*
X142508999Y-93788000I249999J0D01*
G01*
X143034001Y-93788000D01*
G75*
G02*
X143284000Y-94037999I0J-249999D01*
G01*
X143284000Y-94938001D01*
G75*
G02*
X143034001Y-95188000I-249999J0D01*
G01*
X142508999Y-95188000D01*
G75*
G02*
X142259000Y-94938001I0J249999D01*
G01*
G37*
%TD.AperFunction*%
%TD*%
%TO.P,R7,1*%
%TO.N,Net-(R7-Pad1)*%
%TA.AperFunction,SMDPad,CuDef*%
G36*
G01*
X138487999Y-82993000D02*
X139388001Y-82993000D01*
G75*
G02*
X139638000Y-83242999I0J-249999D01*
G01*
X139638000Y-83768001D01*
G75*
G02*
X139388001Y-84018000I-249999J0D01*
G01*
X138487999Y-84018000D01*
G75*
G02*
X138238000Y-83768001I0J249999D01*
G01*
X138238000Y-83242999D01*
G75*
G02*
X138487999Y-82993000I249999J0D01*
G01*
G37*
%TD.AperFunction*%
%TO.P,R7,2*%
%TO.N,GND*%
%TA.AperFunction,SMDPad,CuDef*%
G36*
G01*
X138487999Y-84818000D02*
X139388001Y-84818000D01*
G75*
G02*
X139638000Y-85067999I0J-249999D01*
G01*
X139638000Y-85593001D01*
G75*
G02*
X139388001Y-85843000I-249999J0D01*
G01*
X138487999Y-85843000D01*
G75*
G02*
X138238000Y-85593001I0J249999D01*
G01*
X138238000Y-85067999D01*
G75*
G02*
X138487999Y-84818000I249999J0D01*
G01*
G37*
%TD.AperFunction*%
%TD*%
%TO.P,R6,1*%
%TO.N,Net-(R6-Pad1)*%
%TA.AperFunction,SMDPad,CuDef*%
G36*
G01*
X145078001Y-94008000D02*
X144177999Y-94008000D01*
G75*
G02*
X143928000Y-93758001I0J249999D01*
G01*
X143928000Y-93232999D01*
G75*
G02*
X144177999Y-92983000I249999J0D01*
G01*
X145078001Y-92983000D01*
G75*
G02*
X145328000Y-93232999I0J-249999D01*
G01*
X145328000Y-93758001D01*
G75*
G02*
X145078001Y-94008000I-249999J0D01*
G01*
G37*
%TD.AperFunction*%
%TO.P,R6,2*%
%TO.N,GND*%
%TA.AperFunction,SMDPad,CuDef*%
G36*
G01*
X145078001Y-92183000D02*
X144177999Y-92183000D01*
G75*
G02*
X143928000Y-91933001I0J249999D01*
G01*
X143928000Y-91407999D01*
G75*
G02*
X144177999Y-91158000I249999J0D01*
G01*
X145078001Y-91158000D01*
G75*
G02*
X145328000Y-91407999I0J-249999D01*
G01*
X145328000Y-91933001D01*
G75*
G02*
X145078001Y-92183000I-249999J0D01*
G01*
G37*
%TD.AperFunction*%
%TD*%
%TO.P,R5,1*%
%TO.N,/RXD*%
%TA.AperFunction,SMDPad,CuDef*%
G36*
G01*
X135918000Y-95143999D02*
X135918000Y-96044001D01*
G75*
G02*
X135668001Y-96294000I-249999J0D01*
G01*
X135142999Y-96294000D01*
G75*
G02*
X134893000Y-96044001I0J249999D01*
G01*
X134893000Y-95143999D01*
G75*
G02*
X135142999Y-94894000I249999J0D01*
G01*
X135668001Y-94894000D01*
G75*
G02*
X135918000Y-95143999I0J-249999D01*
G01*
G37*
%TD.AperFunction*%
%TO.P,R5,2*%
%TO.N,Net-(D3-Pad1)*%
%TA.AperFunction,SMDPad,CuDef*%
G36*
G01*
X134093000Y-95143999D02*
X134093000Y-96044001D01*
G75*
G02*
X133843001Y-96294000I-249999J0D01*
G01*
X133317999Y-96294000D01*
G75*
G02*
X133068000Y-96044001I0J249999D01*
G01*
X133068000Y-95143999D01*
G75*
G02*
X133317999Y-94894000I249999J0D01*
G01*
X133843001Y-94894000D01*
G75*
G02*
X134093000Y-95143999I0J-249999D01*
G01*
G37*
%TD.AperFunction*%
%TD*%
%TO.P,R4,1*%
%TO.N,/TXD*%
%TA.AperFunction,SMDPad,CuDef*%
G36*
G01*
X136497000Y-96044001D02*
X136497000Y-95143999D01*
G75*
G02*
X136746999Y-94894000I249999J0D01*
G01*
X137272001Y-94894000D01*
G75*
G02*
X137522000Y-95143999I0J-249999D01*
G01*
X137522000Y-96044001D01*
G75*
G02*
X137272001Y-96294000I-249999J0D01*
G01*
X136746999Y-96294000D01*
G75*
G02*
X136497000Y-96044001I0J249999D01*
G01*
G37*
%TD.AperFunction*%
%TO.P,R4,2*%
%TO.N,Net-(D2-Pad1)*%
%TA.AperFunction,SMDPad,CuDef*%
G36*
G01*
X138322000Y-96044001D02*
X138322000Y-95143999D01*
G75*
G02*
X138571999Y-94894000I249999J0D01*
G01*
X139097001Y-94894000D01*
G75*
G02*
X139347000Y-95143999I0J-249999D01*
G01*
X139347000Y-96044001D01*
G75*
G02*
X139097001Y-96294000I-249999J0D01*
G01*
X138571999Y-96294000D01*
G75*
G02*
X138322000Y-96044001I0J249999D01*
G01*
G37*
%TD.AperFunction*%
%TD*%
%TO.P,R3,1*%
%TO.N,GND*%
%TA.AperFunction,SMDPad,CuDef*%
G36*
G01*
X129355001Y-96167000D02*
X128454999Y-96167000D01*
G75*
G02*
X128205000Y-95917001I0J249999D01*
G01*
X128205000Y-95391999D01*
G75*
G02*
X128454999Y-95142000I249999J0D01*
G01*
X129355001Y-95142000D01*
G75*
G02*
X129605000Y-95391999I0J-249999D01*
G01*
X129605000Y-95917001D01*
G75*
G02*
X129355001Y-96167000I-249999J0D01*
G01*
G37*
%TD.AperFunction*%
%TO.P,R3,2*%
%TO.N,Net-(D1-Pad1)*%
%TA.AperFunction,SMDPad,CuDef*%
G36*
G01*
X129355001Y-94342000D02*
X128454999Y-94342000D01*
G75*
G02*
X128205000Y-94092001I0J249999D01*
G01*
X128205000Y-93566999D01*
G75*
G02*
X128454999Y-93317000I249999J0D01*
G01*
X129355001Y-93317000D01*
G75*
G02*
X129605000Y-93566999I0J-249999D01*
G01*
X129605000Y-94092001D01*
G75*
G02*
X129355001Y-94342000I-249999J0D01*
G01*
G37*
%TD.AperFunction*%
%TD*%
%TO.P,R2,2*%
%TO.N,/JTMS*%
%TA.AperFunction,SMDPad,CuDef*%
G36*
G01*
X128327999Y-86088000D02*
X129228001Y-86088000D01*
G75*
G02*
X129478000Y-86337999I0J-249999D01*
G01*
X129478000Y-86863001D01*
G75*
G02*
X129228001Y-87113000I-249999J0D01*
G01*
X128327999Y-87113000D01*
G75*
G02*
X128078000Y-86863001I0J249999D01*
G01*
X128078000Y-86337999D01*
G75*
G02*
X128327999Y-86088000I249999J0D01*
G01*
G37*
%TD.AperFunction*%
%TO.P,R2,1*%
%TO.N,Net-(R2-Pad1)*%
%TA.AperFunction,SMDPad,CuDef*%
G36*
G01*
X128327999Y-84263000D02*
X129228001Y-84263000D01*
G75*
G02*
X129478000Y-84512999I0J-249999D01*
G01*
X129478000Y-85038001D01*
G75*
G02*
X129228001Y-85288000I-249999J0D01*
G01*
X128327999Y-85288000D01*
G75*
G02*
X128078000Y-85038001I0J249999D01*
G01*
X128078000Y-84512999D01*
G75*
G02*
X128327999Y-84263000I249999J0D01*
G01*
G37*
%TD.AperFunction*%
%TD*%
%TO.P,R1,1*%
%TO.N,/NRST*%
%TA.AperFunction,SMDPad,CuDef*%
G36*
G01*
X134572000Y-86048001D02*
X134572000Y-85147999D01*
G75*
G02*
X134821999Y-84898000I249999J0D01*
G01*
X135347001Y-84898000D01*
G75*
G02*
X135597000Y-85147999I0J-249999D01*
G01*
X135597000Y-86048001D01*
G75*
G02*
X135347001Y-86298000I-249999J0D01*
G01*
X134821999Y-86298000D01*
G75*
G02*
X134572000Y-86048001I0J249999D01*
G01*
G37*
%TD.AperFunction*%
%TO.P,R1,2*%
%TO.N,+3V3*%
%TA.AperFunction,SMDPad,CuDef*%
G36*
G01*
X136397000Y-86048001D02*
X136397000Y-85147999D01*
G75*
G02*
X136646999Y-84898000I249999J0D01*
G01*
X137172001Y-84898000D01*
G75*
G02*
X137422000Y-85147999I0J-249999D01*
G01*
X137422000Y-86048001D01*
G75*
G02*
X137172001Y-86298000I-249999J0D01*
G01*
X136646999Y-86298000D01*
G75*
G02*
X136397000Y-86048001I0J249999D01*
G01*
G37*
%TD.AperFunction*%
%TD*%
%TO.P,C9,1*%
%TO.N,+3V3*%
%TA.AperFunction,SMDPad,CuDef*%
G36*
G01*
X127459000Y-94967000D02*
X127459000Y-95917000D01*
G75*
G02*
X127209000Y-96167000I-250000J0D01*
G01*
X126709000Y-96167000D01*
G75*
G02*
X126459000Y-95917000I0J250000D01*
G01*
X126459000Y-94967000D01*
G75*
G02*
X126709000Y-94717000I250000J0D01*
G01*
X127209000Y-94717000D01*
G75*
G02*
X127459000Y-94967000I0J-250000D01*
G01*
G37*
%TD.AperFunction*%
%TO.P,C9,2*%
%TO.N,GND*%
%TA.AperFunction,SMDPad,CuDef*%
G36*
G01*
X125559000Y-94967000D02*
X125559000Y-95917000D01*
G75*
G02*
X125309000Y-96167000I-250000J0D01*
G01*
X124809000Y-96167000D01*
G75*
G02*
X124559000Y-95917000I0J250000D01*
G01*
X124559000Y-94967000D01*
G75*
G02*
X124809000Y-94717000I250000J0D01*
G01*
X125309000Y-94717000D01*
G75*
G02*
X125559000Y-94967000I0J-250000D01*
G01*
G37*
%TD.AperFunction*%
%TD*%
%TO.P,C8,1*%
%TO.N,+5V*%
%TA.AperFunction,SMDPad,CuDef*%
G36*
G01*
X124559000Y-93947000D02*
X124559000Y-92997000D01*
G75*
G02*
X124809000Y-92747000I250000J0D01*
G01*
X125309000Y-92747000D01*
G75*
G02*
X125559000Y-92997000I0J-250000D01*
G01*
X125559000Y-93947000D01*
G75*
G02*
X125309000Y-94197000I-250000J0D01*
G01*
X124809000Y-94197000D01*
G75*
G02*
X124559000Y-93947000I0J250000D01*
G01*
G37*
%TD.AperFunction*%
%TO.P,C8,2*%
%TO.N,GND*%
%TA.AperFunction,SMDPad,CuDef*%
G36*
G01*
X126459000Y-93947000D02*
X126459000Y-92997000D01*
G75*
G02*
X126709000Y-92747000I250000J0D01*
G01*
X127209000Y-92747000D01*
G75*
G02*
X127459000Y-92997000I0J-250000D01*
G01*
X127459000Y-93947000D01*
G75*
G02*
X127209000Y-94197000I-250000J0D01*
G01*
X126709000Y-94197000D01*
G75*
G02*
X126459000Y-93947000I0J250000D01*
G01*
G37*
%TD.AperFunction*%
%TD*%
%TO.P,C7,2*%
%TO.N,GND*%
%TA.AperFunction,SMDPad,CuDef*%
G36*
G01*
X136685000Y-89731000D02*
X137635000Y-89731000D01*
G75*
G02*
X137885000Y-89981000I0J-250000D01*
G01*
X137885000Y-90481000D01*
G75*
G02*
X137635000Y-90731000I-250000J0D01*
G01*
X136685000Y-90731000D01*
G75*
G02*
X136435000Y-90481000I0J250000D01*
G01*
X136435000Y-89981000D01*
G75*
G02*
X136685000Y-89731000I250000J0D01*
G01*
G37*
%TD.AperFunction*%
%TO.P,C7,1*%
%TO.N,+3V3*%
%TA.AperFunction,SMDPad,CuDef*%
G36*
G01*
X136685000Y-87831000D02*
X137635000Y-87831000D01*
G75*
G02*
X137885000Y-88081000I0J-250000D01*
G01*
X137885000Y-88581000D01*
G75*
G02*
X137635000Y-88831000I-250000J0D01*
G01*
X136685000Y-88831000D01*
G75*
G02*
X136435000Y-88581000I0J250000D01*
G01*
X136435000Y-88081000D01*
G75*
G02*
X136685000Y-87831000I250000J0D01*
G01*
G37*
%TD.AperFunction*%
%TD*%
%TO.P,C6,1*%
%TO.N,+3V3*%
%TA.AperFunction,SMDPad,CuDef*%
G36*
G01*
X130999000Y-86098000D02*
X130999000Y-85148000D01*
G75*
G02*
X131249000Y-84898000I250000J0D01*
G01*
X131749000Y-84898000D01*
G75*
G02*
X131999000Y-85148000I0J-250000D01*
G01*
X131999000Y-86098000D01*
G75*
G02*
X131749000Y-86348000I-250000J0D01*
G01*
X131249000Y-86348000D01*
G75*
G02*
X130999000Y-86098000I0J250000D01*
G01*
G37*
%TD.AperFunction*%
%TO.P,C6,2*%
%TO.N,GND*%
%TA.AperFunction,SMDPad,CuDef*%
G36*
G01*
X132899000Y-86098000D02*
X132899000Y-85148000D01*
G75*
G02*
X133149000Y-84898000I250000J0D01*
G01*
X133649000Y-84898000D01*
G75*
G02*
X133899000Y-85148000I0J-250000D01*
G01*
X133899000Y-86098000D01*
G75*
G02*
X133649000Y-86348000I-250000J0D01*
G01*
X133149000Y-86348000D01*
G75*
G02*
X132899000Y-86098000I0J250000D01*
G01*
G37*
%TD.AperFunction*%
%TD*%
%TO.P,C5,1*%
%TO.N,+3V3*%
%TA.AperFunction,SMDPad,CuDef*%
G36*
G01*
X136435000Y-92550000D02*
X136435000Y-91600000D01*
G75*
G02*
X136685000Y-91350000I250000J0D01*
G01*
X137185000Y-91350000D01*
G75*
G02*
X137435000Y-91600000I0J-250000D01*
G01*
X137435000Y-92550000D01*
G75*
G02*
X137185000Y-92800000I-250000J0D01*
G01*
X136685000Y-92800000D01*
G75*
G02*
X136435000Y-92550000I0J250000D01*
G01*
G37*
%TD.AperFunction*%
%TO.P,C5,2*%
%TO.N,GND*%
%TA.AperFunction,SMDPad,CuDef*%
G36*
G01*
X138335000Y-92550000D02*
X138335000Y-91600000D01*
G75*
G02*
X138585000Y-91350000I250000J0D01*
G01*
X139085000Y-91350000D01*
G75*
G02*
X139335000Y-91600000I0J-250000D01*
G01*
X139335000Y-92550000D01*
G75*
G02*
X139085000Y-92800000I-250000J0D01*
G01*
X138585000Y-92800000D01*
G75*
G02*
X138335000Y-92550000I0J250000D01*
G01*
G37*
%TD.AperFunction*%
%TD*%
%TO.P,C4,1*%
%TO.N,+3V3*%
%TA.AperFunction,SMDPad,CuDef*%
G36*
G01*
X129278000Y-92128000D02*
X128328000Y-92128000D01*
G75*
G02*
X128078000Y-91878000I0J250000D01*
G01*
X128078000Y-91378000D01*
G75*
G02*
X128328000Y-91128000I250000J0D01*
G01*
X129278000Y-91128000D01*
G75*
G02*
X129528000Y-91378000I0J-250000D01*
G01*
X129528000Y-91878000D01*
G75*
G02*
X129278000Y-92128000I-250000J0D01*
G01*
G37*
%TD.AperFunction*%
%TO.P,C4,2*%
%TO.N,GND*%
%TA.AperFunction,SMDPad,CuDef*%
G36*
G01*
X129278000Y-90228000D02*
X128328000Y-90228000D01*
G75*
G02*
X128078000Y-89978000I0J250000D01*
G01*
X128078000Y-89478000D01*
G75*
G02*
X128328000Y-89228000I250000J0D01*
G01*
X129278000Y-89228000D01*
G75*
G02*
X129528000Y-89478000I0J-250000D01*
G01*
X129528000Y-89978000D01*
G75*
G02*
X129278000Y-90228000I-250000J0D01*
G01*
G37*
%TD.AperFunction*%
%TD*%
%TO.P,C3,1*%
%TO.N,Net-(C3-Pad1)*%
%TA.AperFunction,SMDPad,CuDef*%
G36*
G01*
X144178000Y-87704000D02*
X145128000Y-87704000D01*
G75*
G02*
X145378000Y-87954000I0J-250000D01*
G01*
X145378000Y-88454000D01*
G75*
G02*
X145128000Y-88704000I-250000J0D01*
G01*
X144178000Y-88704000D01*
G75*
G02*
X143928000Y-88454000I0J250000D01*
G01*
X143928000Y-87954000D01*
G75*
G02*
X144178000Y-87704000I250000J0D01*
G01*
G37*
%TD.AperFunction*%
%TO.P,C3,2*%
%TO.N,GND*%
%TA.AperFunction,SMDPad,CuDef*%
G36*
G01*
X144178000Y-89604000D02*
X145128000Y-89604000D01*
G75*
G02*
X145378000Y-89854000I0J-250000D01*
G01*
X145378000Y-90354000D01*
G75*
G02*
X145128000Y-90604000I-250000J0D01*
G01*
X144178000Y-90604000D01*
G75*
G02*
X143928000Y-90354000I0J250000D01*
G01*
X143928000Y-89854000D01*
G75*
G02*
X144178000Y-89604000I250000J0D01*
G01*
G37*
%TD.AperFunction*%
%TD*%
%TO.P,C2,1*%
%TO.N,Net-(C2-Pad1)*%
%TA.AperFunction,SMDPad,CuDef*%
G36*
G01*
X140434000Y-92931000D02*
X140434000Y-91981000D01*
G75*
G02*
X140684000Y-91731000I250000J0D01*
G01*
X141184000Y-91731000D01*
G75*
G02*
X141434000Y-91981000I0J-250000D01*
G01*
X141434000Y-92931000D01*
G75*
G02*
X141184000Y-93181000I-250000J0D01*
G01*
X140684000Y-93181000D01*
G75*
G02*
X140434000Y-92931000I0J250000D01*
G01*
G37*
%TD.AperFunction*%
%TO.P,C2,2*%
%TO.N,GND*%
%TA.AperFunction,SMDPad,CuDef*%
G36*
G01*
X142334000Y-92931000D02*
X142334000Y-91981000D01*
G75*
G02*
X142584000Y-91731000I250000J0D01*
G01*
X143084000Y-91731000D01*
G75*
G02*
X143334000Y-91981000I0J-250000D01*
G01*
X143334000Y-92931000D01*
G75*
G02*
X143084000Y-93181000I-250000J0D01*
G01*
X142584000Y-93181000D01*
G75*
G02*
X142334000Y-92931000I0J250000D01*
G01*
G37*
%TD.AperFunction*%
%TD*%
%TO.P,C1,1*%
%TO.N,/NRST*%
%TA.AperFunction,SMDPad,CuDef*%
G36*
G01*
X134572000Y-84041000D02*
X134572000Y-83091000D01*
G75*
G02*
X134822000Y-82841000I250000J0D01*
G01*
X135322000Y-82841000D01*
G75*
G02*
X135572000Y-83091000I0J-250000D01*
G01*
X135572000Y-84041000D01*
G75*
G02*
X135322000Y-84291000I-250000J0D01*
G01*
X134822000Y-84291000D01*
G75*
G02*
X134572000Y-84041000I0J250000D01*
G01*
G37*
%TD.AperFunction*%
%TO.P,C1,2*%
%TO.N,GND*%
%TA.AperFunction,SMDPad,CuDef*%
G36*
G01*
X136472000Y-84041000D02*
X136472000Y-83091000D01*
G75*
G02*
X136722000Y-82841000I250000J0D01*
G01*
X137222000Y-82841000D01*
G75*
G02*
X137472000Y-83091000I0J-250000D01*
G01*
X137472000Y-84041000D01*
G75*
G02*
X137222000Y-84291000I-250000J0D01*
G01*
X136722000Y-84291000D01*
G75*
G02*
X136472000Y-84041000I0J250000D01*
G01*
G37*
%TD.AperFunction*%
%TD*%
D14*
%TO.N,/NRST*%
X135127984Y-83658032D03*
X134747000Y-86106000D03*
%TO.N,GND*%
X138938000Y-85344000D03*
X125984000Y-94488000D03*
X125984000Y-90043000D03*
X123190000Y-97409000D03*
X123190000Y-96139000D03*
X127000000Y-97409000D03*
X129540000Y-97409000D03*
X132080000Y-97409000D03*
X138430000Y-93599000D03*
X135255000Y-91059000D03*
X123190000Y-80899000D03*
X123190000Y-83439000D03*
X125730000Y-80899000D03*
X128270000Y-80899000D03*
X146050000Y-80899000D03*
X135255000Y-88519000D03*
X131445022Y-83566000D03*
%TO.N,Net-(C2-Pad1)*%
X139589210Y-89936488D03*
%TO.N,Net-(C3-Pad1)*%
X139589210Y-89196675D03*
%TO.N,+3V3*%
X127000000Y-95504000D03*
X128778000Y-91777018D03*
X131445000Y-85979000D03*
X136989000Y-91904000D03*
X129921000Y-83693000D03*
X142748000Y-83566000D03*
X136017000Y-88138000D03*
X140081000Y-82804000D03*
X134112000Y-96774032D03*
X132461000Y-94488000D03*
%TO.N,+5V*%
X125095000Y-93472000D03*
X124079000Y-91948000D03*
X123952000Y-88138000D03*
%TO.N,Net-(D1-Pad1)*%
X128905000Y-93853000D03*
%TO.N,Net-(D2-Pad1)*%
X138811000Y-95631000D03*
%TO.N,Net-(D3-Pad1)*%
X133604000Y-95631000D03*
%TO.N,/TXD*%
X144272000Y-87122000D03*
%TO.N,/RXD*%
X144255271Y-86414186D03*
%TO.N,Net-(R6-Pad1)*%
X144653000Y-93492705D03*
%TO.N,Net-(R7-Pad1)*%
X138967837Y-83409163D03*
%TO.N,Net-(R9-Pad1)*%
X140970000Y-94488000D03*
%TO.N,/LED_STLINK*%
X128778000Y-88519000D03*
%TO.N,Net-(R14-Pad1)*%
X137158605Y-86868000D03*
%TO.N,/D+*%
X126896500Y-91313000D03*
%TO.N,/ST_SWCLK*%
X132715000Y-91948000D03*
%TO.N,/ST_SWDIO*%
X131445000Y-90772245D03*
%TO.N,/JTCK*%
X132321716Y-86776983D03*
X135382000Y-86782547D03*
X139744131Y-90991930D03*
%TO.N,/JTMS*%
X131699000Y-87884000D03*
X128737430Y-86647663D03*
%TO.N,Net-(R2-Pad1)*%
X128778000Y-84836000D03*
%TO.N,Net-(P1-PadA5)*%
X124079000Y-91059000D03*
%TO.N,Net-(D5-Pad2)*%
X125984000Y-84836000D03*
%TD*%
D15*
%TO.N,/NRST*%
X135159500Y-83597516D02*
X135159500Y-83626516D01*
X135159500Y-83626516D02*
X135127984Y-83658032D01*
X135084500Y-85598000D02*
X135084500Y-83701516D01*
X135084500Y-83701516D02*
X135127984Y-83658032D01*
X134747000Y-85935500D02*
X135084500Y-85598000D01*
X134747000Y-86106000D02*
X134747000Y-85935500D01*
%TO.N,Net-(C2-Pad1)*%
X140807000Y-92456000D02*
X140807000Y-90969013D01*
X141034000Y-90381000D02*
X140017524Y-90381000D01*
X140017524Y-90381000D02*
X139573012Y-89936488D01*
%TO.N,Net-(C3-Pad1)*%
X144526000Y-88204000D02*
X144503000Y-88181000D01*
X144630000Y-88181000D02*
X144653000Y-88204000D01*
X142734000Y-88181000D02*
X144630000Y-88181000D01*
X142734000Y-87227000D02*
X142629000Y-87122000D01*
X142629000Y-87122000D02*
X140215067Y-87122001D01*
X142734000Y-88181000D02*
X142734000Y-87227000D01*
X140215067Y-87122001D02*
X139589210Y-87747858D01*
X139589210Y-87747858D02*
X139589210Y-89196675D01*
%TO.N,+3V3*%
X128803000Y-91501000D02*
X128803000Y-91752018D01*
X128803000Y-91752018D02*
X128778000Y-91777018D01*
X125233010Y-92340010D02*
X128639990Y-92340010D01*
X125071500Y-92178500D02*
X125233010Y-92340010D01*
X125071500Y-91313000D02*
X125071500Y-92178500D01*
X128639990Y-92340010D02*
X128789010Y-92340010D01*
X128789010Y-91641990D02*
X128803000Y-91628000D01*
X128789010Y-92340010D02*
X128789010Y-91641990D01*
X136984500Y-91706500D02*
X136984500Y-91706500D01*
X131485010Y-85609010D02*
X131499000Y-85623000D01*
X131474000Y-85598000D02*
X131499000Y-85623000D01*
X129921000Y-85598000D02*
X131474000Y-85598000D01*
X129921000Y-85598000D02*
X129921000Y-84201000D01*
X129921000Y-83820000D02*
X129921000Y-84201000D01*
X129921000Y-83693000D02*
X129921000Y-83820000D01*
X129921000Y-83566000D02*
X129921000Y-83693000D01*
X136972000Y-91694000D02*
X136989000Y-91711000D01*
X136989000Y-91711000D02*
X136989000Y-91904000D01*
X129921000Y-86972980D02*
X129921000Y-85598000D01*
X129909990Y-86983990D02*
X129921000Y-86972980D01*
X129909990Y-92086010D02*
X129909990Y-86983990D01*
X129655990Y-92340010D02*
X129909990Y-92086010D01*
X128789010Y-92340010D02*
X129655990Y-92340010D01*
X136271000Y-92075000D02*
X136935000Y-92075000D01*
X136017000Y-92075000D02*
X136271000Y-92075000D01*
X126959000Y-96225000D02*
X126959000Y-95442000D01*
X127508000Y-96774000D02*
X126959000Y-96225000D01*
X136078000Y-88331000D02*
X136017000Y-88392000D01*
X137160000Y-88331000D02*
X136078000Y-88331000D01*
X136017000Y-88392000D02*
X136017000Y-88138000D01*
X136017000Y-92075000D02*
X136017000Y-88392000D01*
X140081000Y-85959980D02*
X140081000Y-82804000D01*
X139827000Y-86213980D02*
X140081000Y-85959980D01*
X138283980Y-86213980D02*
X139827000Y-86213980D01*
X137668000Y-85598000D02*
X138283980Y-86213980D01*
X136909500Y-85598000D02*
X137668000Y-85598000D01*
X134111968Y-96774000D02*
X134112000Y-96774032D01*
X132715000Y-96774000D02*
X134111968Y-96774000D01*
X132461000Y-96774000D02*
X127508000Y-96774000D01*
X132715000Y-96774000D02*
X132461000Y-96774000D01*
X132461000Y-94234000D02*
X132461000Y-96774000D01*
X134620000Y-92075000D02*
X132461000Y-94234000D01*
X136017000Y-92075000D02*
X134620000Y-92075000D01*
%TO.N,+5V*%
X122682000Y-91293000D02*
X123424000Y-91293000D01*
X123424000Y-91293000D02*
X124079000Y-91948000D01*
D16*
X125059000Y-93345000D02*
X125059000Y-93345000D01*
D15*
X122682000Y-88793000D02*
X123551000Y-88793000D01*
X123952000Y-88392000D02*
X123952000Y-88138000D01*
X123551000Y-88793000D02*
X123952000Y-88392000D01*
%TO.N,/TXD*%
X137009500Y-95594000D02*
X138062500Y-96647000D01*
X145722989Y-87705779D02*
X145139210Y-87122000D01*
X145722989Y-94172943D02*
X145722989Y-87705779D01*
X138062500Y-96647000D02*
X143248932Y-96647000D01*
X145139210Y-87122000D02*
X144272000Y-87122000D01*
X143248932Y-96647000D02*
X145722989Y-94172943D01*
%TO.N,/RXD*%
X146177000Y-87376000D02*
X145288000Y-86487000D01*
X146177000Y-94361000D02*
X146177000Y-87376000D01*
X143383000Y-97155000D02*
X146177000Y-94361000D01*
X136144000Y-97155000D02*
X143383000Y-97155000D01*
X145288000Y-86487000D02*
X144201095Y-86487000D01*
X135405500Y-96416500D02*
X136144000Y-97155000D01*
X135405500Y-95594000D02*
X135405500Y-96416500D01*
%TO.N,/LED_STLINK*%
X125984000Y-86637500D02*
X126896500Y-86637500D01*
X126896500Y-86637500D02*
X128778000Y-88519000D01*
%TO.N,Net-(R14-Pad1)*%
X140946500Y-85725000D02*
X140946500Y-83693000D01*
X140946500Y-86510500D02*
X140946500Y-85725000D01*
X137358615Y-86667990D02*
X140789010Y-86667990D01*
X140789010Y-86667990D02*
X140946500Y-86510500D01*
X137158605Y-86868000D02*
X137358615Y-86667990D01*
%TO.N,/ST_SWCLK*%
X133641000Y-89685500D02*
X133453500Y-89685500D01*
X133641000Y-91022000D02*
X132715000Y-91948000D01*
X133641000Y-89685500D02*
X133641000Y-91022000D01*
%TO.N,/ST_SWDIO*%
X131699000Y-89685500D02*
X131699000Y-90518245D01*
X131699000Y-90518245D02*
X131445000Y-90772245D01*
%TO.N,/JTCK*%
X132327280Y-86782547D02*
X132321716Y-86776983D01*
X133641000Y-86831000D02*
X133689453Y-86782547D01*
X133641000Y-87860500D02*
X133641000Y-86831000D01*
X133689453Y-86782547D02*
X132327280Y-86782547D01*
X133689453Y-86782547D02*
X135382000Y-86782547D01*
X139744131Y-90976131D02*
X139744131Y-90991930D01*
X138938000Y-90170000D02*
X139744131Y-90976131D01*
X138938000Y-88011000D02*
X138938000Y-90170000D01*
X138376001Y-87449001D02*
X138938000Y-88011000D01*
X136048454Y-87449001D02*
X138376001Y-87449001D01*
X135382000Y-86782547D02*
X136048454Y-87449001D01*
%TO.N,Net-(P1-PadA5)*%
X124333000Y-88773000D02*
X124079000Y-89027000D01*
X125071500Y-88773000D02*
X124333000Y-88773000D01*
X124079000Y-89027000D02*
X124079000Y-91059000D01*
%TD*%
%TO.N,GND*%
X145920359Y-80518549D02*
X146162140Y-80591547D01*
X146385143Y-80710121D01*
X146580865Y-80869748D01*
X146741854Y-81064350D01*
X146861979Y-81286517D01*
X146936666Y-81527788D01*
X146964801Y-81795477D01*
X146964800Y-97518625D01*
X146938450Y-97787360D01*
X146865453Y-98029140D01*
X146746879Y-98252143D01*
X146587252Y-98447865D01*
X146392648Y-98608856D01*
X146170484Y-98728979D01*
X145929212Y-98803666D01*
X145661532Y-98831800D01*
X122699375Y-98831800D01*
X122430640Y-98805450D01*
X122188860Y-98732453D01*
X121965857Y-98613879D01*
X121770135Y-98454252D01*
X121609144Y-98259648D01*
X121489021Y-98037484D01*
X121414334Y-97796212D01*
X121386200Y-97528532D01*
X121386200Y-93263000D01*
X121425203Y-93263000D01*
X121425203Y-94443000D01*
X121431578Y-94507730D01*
X121450460Y-94569973D01*
X121481121Y-94627337D01*
X121522384Y-94677616D01*
X121572663Y-94718879D01*
X121630027Y-94749540D01*
X121692270Y-94768422D01*
X121757000Y-94774797D01*
X123607000Y-94774797D01*
X123671730Y-94768422D01*
X123733973Y-94749540D01*
X123791337Y-94718879D01*
X123841616Y-94677616D01*
X123882879Y-94627337D01*
X123913540Y-94569973D01*
X123932422Y-94507730D01*
X123938797Y-94443000D01*
X123938797Y-93263000D01*
X123932422Y-93198270D01*
X123913540Y-93136027D01*
X123882879Y-93078663D01*
X123841616Y-93028384D01*
X123791337Y-92987121D01*
X123733973Y-92956460D01*
X123671730Y-92937578D01*
X123607000Y-92931203D01*
X121757000Y-92931203D01*
X121692270Y-92937578D01*
X121630027Y-92956460D01*
X121572663Y-92987121D01*
X121522384Y-93028384D01*
X121481121Y-93078663D01*
X121450460Y-93136027D01*
X121431578Y-93198270D01*
X121425203Y-93263000D01*
X121386200Y-93263000D01*
X121386200Y-87643000D01*
X121725203Y-87643000D01*
X121725203Y-87943000D01*
X121731578Y-88007730D01*
X121742277Y-88043000D01*
X121731578Y-88078270D01*
X121725203Y-88143000D01*
X121725203Y-88443000D01*
X121731578Y-88507730D01*
X121742277Y-88543000D01*
X121731578Y-88578270D01*
X121725203Y-88643000D01*
X121725203Y-88943000D01*
X121731578Y-89007730D01*
X121742277Y-89043000D01*
X121731578Y-89078270D01*
X121725203Y-89143000D01*
X121725203Y-89443000D01*
X121731578Y-89507730D01*
X121742277Y-89543000D01*
X121731578Y-89578270D01*
X121725203Y-89643000D01*
X121725203Y-89943000D01*
X121731578Y-90007730D01*
X121742277Y-90043000D01*
X121731578Y-90078270D01*
X121725203Y-90143000D01*
X121725203Y-90443000D01*
X121731578Y-90507730D01*
X121742277Y-90543000D01*
X121731578Y-90578270D01*
X121725203Y-90643000D01*
X121725203Y-90943000D01*
X121731578Y-91007730D01*
X121742277Y-91043000D01*
X121731578Y-91078270D01*
X121725203Y-91143000D01*
X121725203Y-91443000D01*
X121731578Y-91507730D01*
X121742277Y-91543000D01*
X121731578Y-91578270D01*
X121725203Y-91643000D01*
X121725203Y-91943000D01*
X121731578Y-92007730D01*
X121742277Y-92043000D01*
X121731578Y-92078270D01*
X121725203Y-92143000D01*
X121725203Y-92443000D01*
X121731578Y-92507730D01*
X121750460Y-92569973D01*
X121781121Y-92627337D01*
X121822384Y-92677616D01*
X121872663Y-92718879D01*
X121930027Y-92749540D01*
X121992270Y-92768422D01*
X122057000Y-92774797D01*
X123307000Y-92774797D01*
X123371730Y-92768422D01*
X123433973Y-92749540D01*
X123491337Y-92718879D01*
X123541616Y-92677616D01*
X123582879Y-92627337D01*
X123613540Y-92569973D01*
X123632422Y-92507730D01*
X123638797Y-92443000D01*
X123638797Y-92333981D01*
X123706594Y-92401778D01*
X123802277Y-92465712D01*
X123908595Y-92509750D01*
X124021461Y-92532200D01*
X124136539Y-92532200D01*
X124249405Y-92509750D01*
X124355723Y-92465712D01*
X124451406Y-92401778D01*
X124532778Y-92320406D01*
X124556673Y-92284645D01*
X124586355Y-92300510D01*
X124635238Y-92315339D01*
X124647060Y-92354309D01*
X124686966Y-92428970D01*
X124586356Y-92459490D01*
X124485771Y-92513253D01*
X124397607Y-92585607D01*
X124325253Y-92673771D01*
X124271490Y-92774356D01*
X124238382Y-92883497D01*
X124227203Y-92997000D01*
X124227203Y-93947000D01*
X124238382Y-94060503D01*
X124271490Y-94169644D01*
X124325253Y-94270229D01*
X124397607Y-94358393D01*
X124485771Y-94430747D01*
X124586356Y-94484510D01*
X124695497Y-94517618D01*
X124809000Y-94528797D01*
X125309000Y-94528797D01*
X125422503Y-94517618D01*
X125531644Y-94484510D01*
X125632229Y-94430747D01*
X125720393Y-94358393D01*
X125792747Y-94270229D01*
X125846510Y-94169644D01*
X125879618Y-94060503D01*
X125890797Y-93947000D01*
X125890797Y-93566999D01*
X127873203Y-93566999D01*
X127873203Y-94092001D01*
X127884382Y-94205504D01*
X127917490Y-94314645D01*
X127971253Y-94415230D01*
X128043607Y-94503393D01*
X128131770Y-94575747D01*
X128232355Y-94629510D01*
X128341496Y-94662618D01*
X128454999Y-94673797D01*
X129355001Y-94673797D01*
X129468504Y-94662618D01*
X129577645Y-94629510D01*
X129678230Y-94575747D01*
X129766393Y-94503393D01*
X129838747Y-94415230D01*
X129892510Y-94314645D01*
X129925618Y-94205504D01*
X129936797Y-94092001D01*
X129936797Y-93566999D01*
X129925618Y-93453496D01*
X129892510Y-93344355D01*
X129838747Y-93243770D01*
X129766393Y-93155607D01*
X129678230Y-93083253D01*
X129577645Y-93029490D01*
X129468504Y-92996382D01*
X129355001Y-92985203D01*
X128454999Y-92985203D01*
X128341496Y-92996382D01*
X128232355Y-93029490D01*
X128131770Y-93083253D01*
X128043607Y-93155607D01*
X127971253Y-93243770D01*
X127917490Y-93344355D01*
X127884382Y-93453496D01*
X127873203Y-93566999D01*
X125890797Y-93566999D01*
X125890797Y-92997000D01*
X125879618Y-92883497D01*
X125853443Y-92797210D01*
X128766550Y-92797210D01*
X128789010Y-92799422D01*
X128811470Y-92797210D01*
X129633540Y-92797210D01*
X129655990Y-92799421D01*
X129678440Y-92797210D01*
X129678450Y-92797210D01*
X129745617Y-92790595D01*
X129831799Y-92764451D01*
X129911226Y-92721997D01*
X129980843Y-92664863D01*
X129995164Y-92647413D01*
X130217394Y-92425183D01*
X130234843Y-92410863D01*
X130291977Y-92341246D01*
X130334431Y-92261819D01*
X130360575Y-92175637D01*
X130367190Y-92108470D01*
X130367190Y-92108461D01*
X130369401Y-92086011D01*
X130367190Y-92063561D01*
X130367190Y-89422999D01*
X130667203Y-89422999D01*
X130667203Y-89948001D01*
X130678382Y-90061504D01*
X130711490Y-90170645D01*
X130765253Y-90271230D01*
X130837607Y-90359393D01*
X130925770Y-90431747D01*
X130958288Y-90449128D01*
X130927288Y-90495522D01*
X130883250Y-90601840D01*
X130860800Y-90714706D01*
X130860800Y-90829784D01*
X130883250Y-90942650D01*
X130927288Y-91048968D01*
X130991222Y-91144651D01*
X131072594Y-91226023D01*
X131168277Y-91289957D01*
X131274595Y-91333995D01*
X131387461Y-91356445D01*
X131502539Y-91356445D01*
X131615405Y-91333995D01*
X131721723Y-91289957D01*
X131817406Y-91226023D01*
X131898778Y-91144651D01*
X131962712Y-91048968D01*
X132006750Y-90942650D01*
X132027415Y-90838758D01*
X132080987Y-90773481D01*
X132123441Y-90694054D01*
X132149585Y-90607872D01*
X132156200Y-90540705D01*
X132156200Y-90540696D01*
X132157354Y-90528974D01*
X132262504Y-90518618D01*
X132371645Y-90485510D01*
X132472230Y-90431747D01*
X132560393Y-90359393D01*
X132632747Y-90271230D01*
X132670000Y-90201533D01*
X132707253Y-90271230D01*
X132779607Y-90359393D01*
X132867770Y-90431747D01*
X132968355Y-90485510D01*
X133077496Y-90518618D01*
X133183801Y-90529088D01*
X133183801Y-90832620D01*
X132651421Y-91365001D01*
X132544595Y-91386250D01*
X132438277Y-91430288D01*
X132342594Y-91494222D01*
X132261222Y-91575594D01*
X132197288Y-91671277D01*
X132153250Y-91777595D01*
X132130800Y-91890461D01*
X132130800Y-92005539D01*
X132153250Y-92118405D01*
X132197288Y-92224723D01*
X132261222Y-92320406D01*
X132342594Y-92401778D01*
X132438277Y-92465712D01*
X132544595Y-92509750D01*
X132657461Y-92532200D01*
X132772539Y-92532200D01*
X132885405Y-92509750D01*
X132991723Y-92465712D01*
X133087406Y-92401778D01*
X133168778Y-92320406D01*
X133232712Y-92224723D01*
X133276750Y-92118405D01*
X133297999Y-92011579D01*
X133948414Y-91361165D01*
X133965853Y-91346853D01*
X133980165Y-91329414D01*
X133980171Y-91329408D01*
X134022987Y-91277236D01*
X134065441Y-91197810D01*
X134078660Y-91154232D01*
X134091585Y-91111627D01*
X134098200Y-91044460D01*
X134098200Y-91044450D01*
X134100411Y-91022000D01*
X134098200Y-90999550D01*
X134098200Y-90529088D01*
X134204504Y-90518618D01*
X134313645Y-90485510D01*
X134414230Y-90431747D01*
X134502393Y-90359393D01*
X134574747Y-90271230D01*
X134628510Y-90170645D01*
X134661618Y-90061504D01*
X134672797Y-89948001D01*
X134672797Y-89422999D01*
X134661618Y-89309496D01*
X134628510Y-89200355D01*
X134574747Y-89099770D01*
X134502393Y-89011607D01*
X134414230Y-88939253D01*
X134313645Y-88885490D01*
X134204504Y-88852382D01*
X134091001Y-88841203D01*
X133190999Y-88841203D01*
X133077496Y-88852382D01*
X132968355Y-88885490D01*
X132867770Y-88939253D01*
X132779607Y-89011607D01*
X132707253Y-89099770D01*
X132670000Y-89169467D01*
X132632747Y-89099770D01*
X132560393Y-89011607D01*
X132472230Y-88939253D01*
X132371645Y-88885490D01*
X132262504Y-88852382D01*
X132149001Y-88841203D01*
X131248999Y-88841203D01*
X131135496Y-88852382D01*
X131026355Y-88885490D01*
X130925770Y-88939253D01*
X130837607Y-89011607D01*
X130765253Y-89099770D01*
X130711490Y-89200355D01*
X130678382Y-89309496D01*
X130667203Y-89422999D01*
X130367190Y-89422999D01*
X130367190Y-87077095D01*
X130371585Y-87062607D01*
X130378200Y-86995440D01*
X130378200Y-86995430D01*
X130380411Y-86972981D01*
X130378200Y-86950531D01*
X130378200Y-86055200D01*
X130667203Y-86055200D01*
X130667203Y-86098000D01*
X130678382Y-86211503D01*
X130711490Y-86320644D01*
X130765253Y-86421229D01*
X130837607Y-86509393D01*
X130925771Y-86581747D01*
X131026356Y-86635510D01*
X131135497Y-86668618D01*
X131249000Y-86679797D01*
X131745402Y-86679797D01*
X131737516Y-86719444D01*
X131737516Y-86834522D01*
X131759966Y-86947388D01*
X131788470Y-87016203D01*
X131248999Y-87016203D01*
X131135496Y-87027382D01*
X131026355Y-87060490D01*
X130925770Y-87114253D01*
X130837607Y-87186607D01*
X130765253Y-87274770D01*
X130711490Y-87375355D01*
X130678382Y-87484496D01*
X130667203Y-87597999D01*
X130667203Y-88123001D01*
X130678382Y-88236504D01*
X130711490Y-88345645D01*
X130765253Y-88446230D01*
X130837607Y-88534393D01*
X130925770Y-88606747D01*
X131026355Y-88660510D01*
X131135496Y-88693618D01*
X131248999Y-88704797D01*
X132149001Y-88704797D01*
X132262504Y-88693618D01*
X132371645Y-88660510D01*
X132472230Y-88606747D01*
X132560393Y-88534393D01*
X132632747Y-88446230D01*
X132670000Y-88376533D01*
X132707253Y-88446230D01*
X132779607Y-88534393D01*
X132867770Y-88606747D01*
X132968355Y-88660510D01*
X133077496Y-88693618D01*
X133190999Y-88704797D01*
X134091001Y-88704797D01*
X134204504Y-88693618D01*
X134313645Y-88660510D01*
X134414230Y-88606747D01*
X134502393Y-88534393D01*
X134574747Y-88446230D01*
X134628510Y-88345645D01*
X134661618Y-88236504D01*
X134672797Y-88123001D01*
X134672797Y-87597999D01*
X134661618Y-87484496D01*
X134628510Y-87375355D01*
X134574747Y-87274770D01*
X134546004Y-87239747D01*
X135014715Y-87239747D01*
X135105277Y-87300259D01*
X135211595Y-87344297D01*
X135318421Y-87365546D01*
X135640846Y-87687970D01*
X135563222Y-87765594D01*
X135499288Y-87861277D01*
X135455250Y-87967595D01*
X135432800Y-88080461D01*
X135432800Y-88195539D01*
X135455250Y-88308405D01*
X135499288Y-88414723D01*
X135559801Y-88505286D01*
X135559800Y-91617800D01*
X134642449Y-91617800D01*
X134619999Y-91615589D01*
X134597549Y-91617800D01*
X134597540Y-91617800D01*
X134530373Y-91624415D01*
X134444191Y-91650559D01*
X134423591Y-91661570D01*
X134364764Y-91693013D01*
X134332516Y-91719479D01*
X134295147Y-91750147D01*
X134280830Y-91767592D01*
X132153597Y-93894826D01*
X132136147Y-93909147D01*
X132079013Y-93978765D01*
X132036559Y-94058192D01*
X132024338Y-94098478D01*
X132007222Y-94115594D01*
X131943288Y-94211277D01*
X131899250Y-94317595D01*
X131876800Y-94430461D01*
X131876800Y-94545539D01*
X131899250Y-94658405D01*
X131943288Y-94764723D01*
X132003800Y-94855285D01*
X132003801Y-96316800D01*
X127697378Y-96316800D01*
X127660320Y-96279742D01*
X127692747Y-96240229D01*
X127746510Y-96139644D01*
X127779618Y-96030503D01*
X127790797Y-95917000D01*
X127790797Y-94967000D01*
X127779618Y-94853497D01*
X127746510Y-94744356D01*
X127692747Y-94643771D01*
X127620393Y-94555607D01*
X127532229Y-94483253D01*
X127431644Y-94429490D01*
X127322503Y-94396382D01*
X127209000Y-94385203D01*
X126709000Y-94385203D01*
X126595497Y-94396382D01*
X126486356Y-94429490D01*
X126385771Y-94483253D01*
X126297607Y-94555607D01*
X126225253Y-94643771D01*
X126171490Y-94744356D01*
X126138382Y-94853497D01*
X126127203Y-94967000D01*
X126127203Y-95917000D01*
X126138382Y-96030503D01*
X126171490Y-96139644D01*
X126225253Y-96240229D01*
X126297607Y-96328393D01*
X126385771Y-96400747D01*
X126486356Y-96454510D01*
X126578954Y-96482600D01*
X126634147Y-96549853D01*
X126651597Y-96564174D01*
X127168829Y-97081407D01*
X127183147Y-97098853D01*
X127200592Y-97113170D01*
X127252763Y-97155987D01*
X127295217Y-97178678D01*
X127332191Y-97198441D01*
X127418373Y-97224585D01*
X127485540Y-97231200D01*
X127485549Y-97231200D01*
X127507999Y-97233411D01*
X127530449Y-97231200D01*
X132438540Y-97231200D01*
X132461000Y-97233412D01*
X132483460Y-97231200D01*
X133744667Y-97231200D01*
X133835277Y-97291744D01*
X133941595Y-97335782D01*
X134054461Y-97358232D01*
X134169539Y-97358232D01*
X134282405Y-97335782D01*
X134388723Y-97291744D01*
X134484406Y-97227810D01*
X134565778Y-97146438D01*
X134629712Y-97050755D01*
X134673750Y-96944437D01*
X134696200Y-96831571D01*
X134696200Y-96716493D01*
X134673750Y-96603627D01*
X134629712Y-96497309D01*
X134565778Y-96401626D01*
X134484406Y-96320254D01*
X134388723Y-96256320D01*
X134384209Y-96254450D01*
X134413618Y-96157504D01*
X134424797Y-96044001D01*
X134424797Y-95143999D01*
X134413618Y-95030496D01*
X134380510Y-94921355D01*
X134326747Y-94820770D01*
X134254393Y-94732607D01*
X134166230Y-94660253D01*
X134065645Y-94606490D01*
X133956504Y-94573382D01*
X133843001Y-94562203D01*
X133317999Y-94562203D01*
X133204496Y-94573382D01*
X133095355Y-94606490D01*
X133025667Y-94643738D01*
X133045200Y-94545539D01*
X133045200Y-94430461D01*
X133022954Y-94318623D01*
X134809378Y-92532200D01*
X135994540Y-92532200D01*
X136017000Y-92534412D01*
X136039460Y-92532200D01*
X136103203Y-92532200D01*
X136103203Y-92550000D01*
X136114382Y-92663503D01*
X136147490Y-92772644D01*
X136201253Y-92873229D01*
X136273607Y-92961393D01*
X136361771Y-93033747D01*
X136462356Y-93087510D01*
X136571497Y-93120618D01*
X136685000Y-93131797D01*
X137185000Y-93131797D01*
X137298503Y-93120618D01*
X137407644Y-93087510D01*
X137508229Y-93033747D01*
X137596393Y-92961393D01*
X137668747Y-92873229D01*
X137722510Y-92772644D01*
X137755618Y-92663503D01*
X137766797Y-92550000D01*
X137766797Y-91600000D01*
X137755618Y-91486497D01*
X137722510Y-91377356D01*
X137668747Y-91276771D01*
X137596393Y-91188607D01*
X137508229Y-91116253D01*
X137407644Y-91062490D01*
X137298503Y-91029382D01*
X137185000Y-91018203D01*
X136685000Y-91018203D01*
X136571497Y-91029382D01*
X136474200Y-91058897D01*
X136474200Y-89122103D01*
X136571497Y-89151618D01*
X136685000Y-89162797D01*
X137635000Y-89162797D01*
X137748503Y-89151618D01*
X137857644Y-89118510D01*
X137958229Y-89064747D01*
X138046393Y-88992393D01*
X138118747Y-88904229D01*
X138172510Y-88803644D01*
X138205618Y-88694503D01*
X138216797Y-88581000D01*
X138216797Y-88081000D01*
X138205618Y-87967497D01*
X138187198Y-87906776D01*
X138480800Y-88200379D01*
X138480801Y-90147540D01*
X138478589Y-90170000D01*
X138480801Y-90192460D01*
X138487416Y-90259627D01*
X138502362Y-90308894D01*
X138513560Y-90345809D01*
X138556013Y-90425235D01*
X138596691Y-90474800D01*
X138613148Y-90494853D01*
X138630592Y-90509170D01*
X139159931Y-91038509D01*
X139159931Y-91049469D01*
X139182381Y-91162335D01*
X139226419Y-91268653D01*
X139290353Y-91364336D01*
X139371725Y-91445708D01*
X139467408Y-91509642D01*
X139573726Y-91553680D01*
X139686592Y-91576130D01*
X139801670Y-91576130D01*
X139914536Y-91553680D01*
X140020854Y-91509642D01*
X140116537Y-91445708D01*
X140197909Y-91364336D01*
X140219456Y-91332089D01*
X140249663Y-91356879D01*
X140307027Y-91387540D01*
X140349801Y-91400516D01*
X140349801Y-91506256D01*
X140272607Y-91569607D01*
X140200253Y-91657771D01*
X140146490Y-91758356D01*
X140113382Y-91867497D01*
X140102203Y-91981000D01*
X140102203Y-92931000D01*
X140113382Y-93044503D01*
X140146490Y-93153644D01*
X140200253Y-93254229D01*
X140272607Y-93342393D01*
X140360771Y-93414747D01*
X140461356Y-93468510D01*
X140514067Y-93484500D01*
X140461355Y-93500490D01*
X140360770Y-93554253D01*
X140272607Y-93626607D01*
X140200253Y-93714770D01*
X140146490Y-93815355D01*
X140113382Y-93924496D01*
X140102203Y-94037999D01*
X140102203Y-94938001D01*
X140113382Y-95051504D01*
X140146490Y-95160645D01*
X140200253Y-95261230D01*
X140272607Y-95349393D01*
X140360770Y-95421747D01*
X140461355Y-95475510D01*
X140570496Y-95508618D01*
X140683999Y-95519797D01*
X141209001Y-95519797D01*
X141322504Y-95508618D01*
X141431645Y-95475510D01*
X141532230Y-95421747D01*
X141620393Y-95349393D01*
X141692747Y-95261230D01*
X141746510Y-95160645D01*
X141779618Y-95051504D01*
X141790797Y-94938001D01*
X141790797Y-94037999D01*
X141779618Y-93924496D01*
X141746510Y-93815355D01*
X141692747Y-93714770D01*
X141620393Y-93626607D01*
X141532230Y-93554253D01*
X141431645Y-93500490D01*
X141366433Y-93480708D01*
X141406644Y-93468510D01*
X141507229Y-93414747D01*
X141595393Y-93342393D01*
X141667747Y-93254229D01*
X141721510Y-93153644D01*
X141754618Y-93044503D01*
X141765797Y-92931000D01*
X141765797Y-91981000D01*
X141754618Y-91867497D01*
X141721510Y-91758356D01*
X141667747Y-91657771D01*
X141595393Y-91569607D01*
X141507229Y-91497253D01*
X141406644Y-91443490D01*
X141305464Y-91412797D01*
X141634000Y-91412797D01*
X141698730Y-91406422D01*
X141760973Y-91387540D01*
X141818337Y-91356879D01*
X141868616Y-91315616D01*
X141909879Y-91265337D01*
X141940540Y-91207973D01*
X141959422Y-91145730D01*
X141965797Y-91081000D01*
X141965797Y-89681000D01*
X141959422Y-89616270D01*
X141940540Y-89554027D01*
X141909879Y-89496663D01*
X141868616Y-89446384D01*
X141818337Y-89405121D01*
X141760973Y-89374460D01*
X141698730Y-89355578D01*
X141634000Y-89349203D01*
X140434000Y-89349203D01*
X140369270Y-89355578D01*
X140307027Y-89374460D01*
X140249663Y-89405121D01*
X140199384Y-89446384D01*
X140158121Y-89496663D01*
X140127460Y-89554027D01*
X140108578Y-89616270D01*
X140104632Y-89656338D01*
X140044658Y-89566581D01*
X140106922Y-89473398D01*
X140150960Y-89367080D01*
X140173410Y-89254214D01*
X140173410Y-89139136D01*
X140150960Y-89026270D01*
X140106922Y-88919952D01*
X140046410Y-88829390D01*
X140046410Y-87937235D01*
X140404445Y-87579201D01*
X141802203Y-87579200D01*
X141802203Y-88881000D01*
X141808578Y-88945730D01*
X141827460Y-89007973D01*
X141858121Y-89065337D01*
X141899384Y-89115616D01*
X141949663Y-89156879D01*
X142007027Y-89187540D01*
X142069270Y-89206422D01*
X142134000Y-89212797D01*
X143334000Y-89212797D01*
X143398730Y-89206422D01*
X143460973Y-89187540D01*
X143518337Y-89156879D01*
X143568616Y-89115616D01*
X143609879Y-89065337D01*
X143640540Y-89007973D01*
X143659422Y-88945730D01*
X143665797Y-88881000D01*
X143665797Y-88723991D01*
X143694253Y-88777229D01*
X143766607Y-88865393D01*
X143854771Y-88937747D01*
X143955356Y-88991510D01*
X144064497Y-89024618D01*
X144178000Y-89035797D01*
X145128000Y-89035797D01*
X145241503Y-89024618D01*
X145265790Y-89017251D01*
X145265789Y-92684916D01*
X145191504Y-92662382D01*
X145078001Y-92651203D01*
X144177999Y-92651203D01*
X144064496Y-92662382D01*
X143955355Y-92695490D01*
X143854770Y-92749253D01*
X143766607Y-92821607D01*
X143694253Y-92909770D01*
X143640490Y-93010355D01*
X143607382Y-93119496D01*
X143596203Y-93232999D01*
X143596203Y-93758001D01*
X143607382Y-93871504D01*
X143640490Y-93980645D01*
X143694253Y-94081230D01*
X143766607Y-94169393D01*
X143854770Y-94241747D01*
X143955355Y-94295510D01*
X144064496Y-94328618D01*
X144177999Y-94339797D01*
X144909557Y-94339797D01*
X143059555Y-96189800D01*
X139657821Y-96189800D01*
X139667618Y-96157504D01*
X139678797Y-96044001D01*
X139678797Y-95143999D01*
X139667618Y-95030496D01*
X139634510Y-94921355D01*
X139580747Y-94820770D01*
X139508393Y-94732607D01*
X139420230Y-94660253D01*
X139319645Y-94606490D01*
X139210504Y-94573382D01*
X139097001Y-94562203D01*
X138571999Y-94562203D01*
X138458496Y-94573382D01*
X138349355Y-94606490D01*
X138248770Y-94660253D01*
X138160607Y-94732607D01*
X138088253Y-94820770D01*
X138034490Y-94921355D01*
X138001382Y-95030496D01*
X137990203Y-95143999D01*
X137990203Y-95928125D01*
X137853797Y-95791720D01*
X137853797Y-95143999D01*
X137842618Y-95030496D01*
X137809510Y-94921355D01*
X137755747Y-94820770D01*
X137683393Y-94732607D01*
X137595230Y-94660253D01*
X137494645Y-94606490D01*
X137385504Y-94573382D01*
X137272001Y-94562203D01*
X136746999Y-94562203D01*
X136633496Y-94573382D01*
X136524355Y-94606490D01*
X136423770Y-94660253D01*
X136335607Y-94732607D01*
X136263253Y-94820770D01*
X136209490Y-94921355D01*
X136207500Y-94927915D01*
X136205510Y-94921355D01*
X136151747Y-94820770D01*
X136079393Y-94732607D01*
X135991230Y-94660253D01*
X135890645Y-94606490D01*
X135781504Y-94573382D01*
X135668001Y-94562203D01*
X135142999Y-94562203D01*
X135029496Y-94573382D01*
X134920355Y-94606490D01*
X134819770Y-94660253D01*
X134731607Y-94732607D01*
X134659253Y-94820770D01*
X134605490Y-94921355D01*
X134572382Y-95030496D01*
X134561203Y-95143999D01*
X134561203Y-96044001D01*
X134572382Y-96157504D01*
X134605490Y-96266645D01*
X134659253Y-96367230D01*
X134731607Y-96455393D01*
X134819770Y-96527747D01*
X134920355Y-96581510D01*
X134985918Y-96601399D01*
X135023513Y-96671735D01*
X135060246Y-96716493D01*
X135080648Y-96741353D01*
X135098092Y-96755669D01*
X135804835Y-97462413D01*
X135819147Y-97479853D01*
X135836586Y-97494165D01*
X135836592Y-97494171D01*
X135888764Y-97536987D01*
X135968190Y-97579441D01*
X135985375Y-97584654D01*
X136054373Y-97605585D01*
X136121540Y-97612200D01*
X136121550Y-97612200D01*
X136144000Y-97614411D01*
X136166450Y-97612200D01*
X143360550Y-97612200D01*
X143383000Y-97614411D01*
X143405450Y-97612200D01*
X143405460Y-97612200D01*
X143472627Y-97605585D01*
X143558809Y-97579441D01*
X143638236Y-97536987D01*
X143707853Y-97479853D01*
X143722174Y-97462403D01*
X146484415Y-94700164D01*
X146501853Y-94685853D01*
X146516165Y-94668414D01*
X146516171Y-94668408D01*
X146558987Y-94616236D01*
X146601441Y-94536810D01*
X146617306Y-94484510D01*
X146627585Y-94450627D01*
X146634200Y-94383460D01*
X146634200Y-94383450D01*
X146636411Y-94361000D01*
X146634200Y-94338550D01*
X146634200Y-87398450D01*
X146636411Y-87376000D01*
X146634200Y-87353550D01*
X146634200Y-87353540D01*
X146627585Y-87286373D01*
X146601441Y-87200191D01*
X146558987Y-87120764D01*
X146501853Y-87051147D01*
X146484408Y-87036830D01*
X145627174Y-86179597D01*
X145612853Y-86162147D01*
X145543236Y-86105013D01*
X145463809Y-86062559D01*
X145377627Y-86036415D01*
X145310460Y-86029800D01*
X145310450Y-86029800D01*
X145288000Y-86027589D01*
X145265550Y-86029800D01*
X144697069Y-86029800D01*
X144627677Y-85960408D01*
X144531994Y-85896474D01*
X144425676Y-85852436D01*
X144312810Y-85829986D01*
X144197732Y-85829986D01*
X144084866Y-85852436D01*
X143978548Y-85896474D01*
X143882865Y-85960408D01*
X143801493Y-86041780D01*
X143737559Y-86137463D01*
X143693521Y-86243781D01*
X143671071Y-86356647D01*
X143671071Y-86471725D01*
X143693521Y-86584591D01*
X143737559Y-86690909D01*
X143797497Y-86780611D01*
X143754288Y-86845277D01*
X143710250Y-86951595D01*
X143687800Y-87064461D01*
X143687800Y-87179539D01*
X143710250Y-87292405D01*
X143754288Y-87398723D01*
X143818222Y-87494406D01*
X143821431Y-87497615D01*
X143766607Y-87542607D01*
X143694253Y-87630771D01*
X143665797Y-87684009D01*
X143665797Y-87481000D01*
X143659422Y-87416270D01*
X143640540Y-87354027D01*
X143609879Y-87296663D01*
X143568616Y-87246384D01*
X143518337Y-87205121D01*
X143460973Y-87174460D01*
X143398730Y-87155578D01*
X143334000Y-87149203D01*
X143185750Y-87149203D01*
X143184585Y-87137373D01*
X143158441Y-87051191D01*
X143115987Y-86971764D01*
X143058853Y-86902147D01*
X143041403Y-86887826D01*
X142968169Y-86814592D01*
X142953852Y-86797147D01*
X142929283Y-86776983D01*
X142884235Y-86740013D01*
X142863172Y-86728755D01*
X142804808Y-86697559D01*
X142718626Y-86671415D01*
X142651459Y-86664800D01*
X142651450Y-86664800D01*
X142629000Y-86662589D01*
X142606550Y-86664800D01*
X141520904Y-86664801D01*
X141532230Y-86658747D01*
X141620393Y-86586393D01*
X141692747Y-86498230D01*
X141746510Y-86397645D01*
X141779618Y-86288504D01*
X141790797Y-86175001D01*
X141790797Y-85274999D01*
X141779618Y-85161496D01*
X141746510Y-85052355D01*
X141692747Y-84951770D01*
X141620393Y-84863607D01*
X141532230Y-84791253D01*
X141431645Y-84737490D01*
X141403700Y-84729013D01*
X141403700Y-84688987D01*
X141431645Y-84680510D01*
X141532230Y-84626747D01*
X141620393Y-84554393D01*
X141692747Y-84466230D01*
X141746510Y-84365645D01*
X141779618Y-84256504D01*
X141790797Y-84143001D01*
X141790797Y-83242999D01*
X141927203Y-83242999D01*
X141927203Y-84143001D01*
X141938382Y-84256504D01*
X141971490Y-84365645D01*
X142025253Y-84466230D01*
X142097607Y-84554393D01*
X142185770Y-84626747D01*
X142286355Y-84680510D01*
X142395496Y-84713618D01*
X142508999Y-84724797D01*
X143034001Y-84724797D01*
X143147504Y-84713618D01*
X143256645Y-84680510D01*
X143357230Y-84626747D01*
X143445393Y-84554393D01*
X143517747Y-84466230D01*
X143571510Y-84365645D01*
X143604618Y-84256504D01*
X143615797Y-84143001D01*
X143615797Y-83242999D01*
X143604618Y-83129496D01*
X143571510Y-83020355D01*
X143517747Y-82919770D01*
X143445393Y-82831607D01*
X143357230Y-82759253D01*
X143256645Y-82705490D01*
X143147504Y-82672382D01*
X143034001Y-82661203D01*
X142508999Y-82661203D01*
X142395496Y-82672382D01*
X142286355Y-82705490D01*
X142185770Y-82759253D01*
X142097607Y-82831607D01*
X142025253Y-82919770D01*
X141971490Y-83020355D01*
X141938382Y-83129496D01*
X141927203Y-83242999D01*
X141790797Y-83242999D01*
X141779618Y-83129496D01*
X141746510Y-83020355D01*
X141692747Y-82919770D01*
X141620393Y-82831607D01*
X141532230Y-82759253D01*
X141431645Y-82705490D01*
X141322504Y-82672382D01*
X141209001Y-82661203D01*
X140683999Y-82661203D01*
X140648929Y-82664657D01*
X140642750Y-82633595D01*
X140598712Y-82527277D01*
X140534778Y-82431594D01*
X140453406Y-82350222D01*
X140357723Y-82286288D01*
X140251405Y-82242250D01*
X140138539Y-82219800D01*
X140023461Y-82219800D01*
X139910595Y-82242250D01*
X139804277Y-82286288D01*
X139708594Y-82350222D01*
X139627222Y-82431594D01*
X139563288Y-82527277D01*
X139519250Y-82633595D01*
X139510964Y-82675252D01*
X139501504Y-82672382D01*
X139388001Y-82661203D01*
X138487999Y-82661203D01*
X138374496Y-82672382D01*
X138265355Y-82705490D01*
X138164770Y-82759253D01*
X138076607Y-82831607D01*
X138004253Y-82919770D01*
X137950490Y-83020355D01*
X137917382Y-83129496D01*
X137906203Y-83242999D01*
X137906203Y-83768001D01*
X137917382Y-83881504D01*
X137950490Y-83990645D01*
X138004253Y-84091230D01*
X138076607Y-84179393D01*
X138164770Y-84251747D01*
X138265355Y-84305510D01*
X138374496Y-84338618D01*
X138487999Y-84349797D01*
X139388001Y-84349797D01*
X139501504Y-84338618D01*
X139610645Y-84305510D01*
X139623801Y-84298478D01*
X139623800Y-85756780D01*
X138473358Y-85756780D01*
X138007174Y-85290597D01*
X137992853Y-85273147D01*
X137923236Y-85216013D01*
X137843809Y-85173559D01*
X137757627Y-85147415D01*
X137753701Y-85147028D01*
X137742618Y-85034496D01*
X137709510Y-84925355D01*
X137655747Y-84824770D01*
X137583393Y-84736607D01*
X137495230Y-84664253D01*
X137394645Y-84610490D01*
X137285504Y-84577382D01*
X137172001Y-84566203D01*
X136646999Y-84566203D01*
X136533496Y-84577382D01*
X136424355Y-84610490D01*
X136323770Y-84664253D01*
X136235607Y-84736607D01*
X136163253Y-84824770D01*
X136109490Y-84925355D01*
X136076382Y-85034496D01*
X136065203Y-85147999D01*
X136065203Y-86048001D01*
X136076382Y-86161504D01*
X136109490Y-86270645D01*
X136163253Y-86371230D01*
X136235607Y-86459393D01*
X136323770Y-86531747D01*
X136424355Y-86585510D01*
X136533496Y-86618618D01*
X136625802Y-86627709D01*
X136596855Y-86697595D01*
X136574405Y-86810461D01*
X136574405Y-86925539D01*
X136587585Y-86991801D01*
X136237832Y-86991801D01*
X135964999Y-86718968D01*
X135943750Y-86612142D01*
X135899712Y-86505824D01*
X135835778Y-86410141D01*
X135815475Y-86389838D01*
X135830747Y-86371230D01*
X135884510Y-86270645D01*
X135917618Y-86161504D01*
X135928797Y-86048001D01*
X135928797Y-85147999D01*
X135917618Y-85034496D01*
X135884510Y-84925355D01*
X135830747Y-84824770D01*
X135758393Y-84736607D01*
X135670230Y-84664253D01*
X135569645Y-84610490D01*
X135541700Y-84602013D01*
X135541700Y-84579403D01*
X135544644Y-84578510D01*
X135645229Y-84524747D01*
X135733393Y-84452393D01*
X135805747Y-84364229D01*
X135859510Y-84263644D01*
X135892618Y-84154503D01*
X135903797Y-84041000D01*
X135903797Y-83091000D01*
X135892618Y-82977497D01*
X135859510Y-82868356D01*
X135805747Y-82767771D01*
X135733393Y-82679607D01*
X135645229Y-82607253D01*
X135544644Y-82553490D01*
X135435503Y-82520382D01*
X135322000Y-82509203D01*
X134822000Y-82509203D01*
X134708497Y-82520382D01*
X134599356Y-82553490D01*
X134498771Y-82607253D01*
X134410607Y-82679607D01*
X134338253Y-82767771D01*
X134284490Y-82868356D01*
X134251382Y-82977497D01*
X134240203Y-83091000D01*
X134240203Y-84041000D01*
X134251382Y-84154503D01*
X134284490Y-84263644D01*
X134338253Y-84364229D01*
X134410607Y-84452393D01*
X134498771Y-84524747D01*
X134599356Y-84578510D01*
X134627301Y-84586987D01*
X134627301Y-84602013D01*
X134599355Y-84610490D01*
X134498770Y-84664253D01*
X134410607Y-84736607D01*
X134338253Y-84824770D01*
X134284490Y-84925355D01*
X134251382Y-85034496D01*
X134240203Y-85147999D01*
X134240203Y-85812942D01*
X134229288Y-85829277D01*
X134185250Y-85935595D01*
X134162800Y-86048461D01*
X134162800Y-86163539D01*
X134185250Y-86276405D01*
X134205522Y-86325347D01*
X133711903Y-86325347D01*
X133689453Y-86323136D01*
X133667003Y-86325347D01*
X132696264Y-86325347D01*
X132694122Y-86323205D01*
X132598439Y-86259271D01*
X132492121Y-86215233D01*
X132379255Y-86192783D01*
X132321462Y-86192783D01*
X132330797Y-86098000D01*
X132330797Y-85148000D01*
X132319618Y-85034497D01*
X132286510Y-84925356D01*
X132232747Y-84824771D01*
X132160393Y-84736607D01*
X132072229Y-84664253D01*
X131971644Y-84610490D01*
X131862503Y-84577382D01*
X131749000Y-84566203D01*
X131249000Y-84566203D01*
X131135497Y-84577382D01*
X131026356Y-84610490D01*
X130925771Y-84664253D01*
X130837607Y-84736607D01*
X130765253Y-84824771D01*
X130711490Y-84925356D01*
X130678382Y-85034497D01*
X130667912Y-85140800D01*
X130378200Y-85140800D01*
X130378200Y-84060285D01*
X130438712Y-83969723D01*
X130482750Y-83863405D01*
X130505200Y-83750539D01*
X130505200Y-83635461D01*
X130482750Y-83522595D01*
X130438712Y-83416277D01*
X130374778Y-83320594D01*
X130293406Y-83239222D01*
X130197723Y-83175288D01*
X130091405Y-83131250D01*
X129978539Y-83108800D01*
X129943460Y-83108800D01*
X129921000Y-83106588D01*
X129898540Y-83108800D01*
X129863461Y-83108800D01*
X129750595Y-83131250D01*
X129644277Y-83175288D01*
X129548594Y-83239222D01*
X129467222Y-83320594D01*
X129403288Y-83416277D01*
X129359250Y-83522595D01*
X129336800Y-83635461D01*
X129336800Y-83750539D01*
X129359250Y-83863405D01*
X129399214Y-83959889D01*
X129341504Y-83942382D01*
X129228001Y-83931203D01*
X128327999Y-83931203D01*
X128214496Y-83942382D01*
X128105355Y-83975490D01*
X128004770Y-84029253D01*
X127916607Y-84101607D01*
X127844253Y-84189770D01*
X127790490Y-84290355D01*
X127757382Y-84399496D01*
X127746203Y-84512999D01*
X127746203Y-85038001D01*
X127757382Y-85151504D01*
X127790490Y-85260645D01*
X127844253Y-85361230D01*
X127916607Y-85449393D01*
X128004770Y-85521747D01*
X128105355Y-85575510D01*
X128214496Y-85608618D01*
X128327999Y-85619797D01*
X129228001Y-85619797D01*
X129341504Y-85608618D01*
X129450645Y-85575510D01*
X129463800Y-85568479D01*
X129463800Y-85575540D01*
X129461588Y-85598000D01*
X129463801Y-85620470D01*
X129463801Y-85807522D01*
X129450645Y-85800490D01*
X129341504Y-85767382D01*
X129228001Y-85756203D01*
X128327999Y-85756203D01*
X128214496Y-85767382D01*
X128105355Y-85800490D01*
X128004770Y-85854253D01*
X127916607Y-85926607D01*
X127844253Y-86014770D01*
X127790490Y-86115355D01*
X127757382Y-86224496D01*
X127746203Y-86337999D01*
X127746203Y-86840626D01*
X127235674Y-86330097D01*
X127221353Y-86312647D01*
X127151736Y-86255513D01*
X127072309Y-86213059D01*
X126986127Y-86186915D01*
X126981867Y-86186495D01*
X126971510Y-86152355D01*
X126917747Y-86051770D01*
X126845393Y-85963607D01*
X126757230Y-85891253D01*
X126656645Y-85837490D01*
X126547504Y-85804382D01*
X126434001Y-85793203D01*
X125533999Y-85793203D01*
X125420496Y-85804382D01*
X125311355Y-85837490D01*
X125210770Y-85891253D01*
X125122607Y-85963607D01*
X125050253Y-86051770D01*
X124996490Y-86152355D01*
X124963382Y-86261496D01*
X124952203Y-86374999D01*
X124952203Y-86900001D01*
X124963382Y-87013504D01*
X124996490Y-87122645D01*
X125050253Y-87223230D01*
X125122607Y-87311393D01*
X125210770Y-87383747D01*
X125311355Y-87437510D01*
X125420496Y-87470618D01*
X125533999Y-87481797D01*
X126434001Y-87481797D01*
X126547504Y-87470618D01*
X126656645Y-87437510D01*
X126757230Y-87383747D01*
X126845393Y-87311393D01*
X126880743Y-87268320D01*
X128195001Y-88582579D01*
X128216250Y-88689405D01*
X128260288Y-88795723D01*
X128324222Y-88891406D01*
X128405594Y-88972778D01*
X128501277Y-89036712D01*
X128607595Y-89080750D01*
X128720461Y-89103200D01*
X128835539Y-89103200D01*
X128948405Y-89080750D01*
X129054723Y-89036712D01*
X129150406Y-88972778D01*
X129231778Y-88891406D01*
X129295712Y-88795723D01*
X129339750Y-88689405D01*
X129362200Y-88576539D01*
X129362200Y-88461461D01*
X129339750Y-88348595D01*
X129295712Y-88242277D01*
X129231778Y-88146594D01*
X129150406Y-88065222D01*
X129054723Y-88001288D01*
X128948405Y-87957250D01*
X128841579Y-87936001D01*
X128350375Y-87444797D01*
X129228001Y-87444797D01*
X129341504Y-87433618D01*
X129450645Y-87400510D01*
X129452791Y-87399363D01*
X129452790Y-90825974D01*
X129391503Y-90807382D01*
X129278000Y-90796203D01*
X128328000Y-90796203D01*
X128214497Y-90807382D01*
X128105356Y-90840490D01*
X128004771Y-90894253D01*
X127916607Y-90966607D01*
X127844253Y-91054771D01*
X127790490Y-91155356D01*
X127757382Y-91264497D01*
X127746203Y-91378000D01*
X127746203Y-91878000D01*
X127746677Y-91882810D01*
X127727705Y-91882810D01*
X127729618Y-91876504D01*
X127740797Y-91763001D01*
X127740797Y-90862999D01*
X127729618Y-90749496D01*
X127696510Y-90640355D01*
X127642747Y-90539770D01*
X127570393Y-90451607D01*
X127482230Y-90379253D01*
X127381645Y-90325490D01*
X127272504Y-90292382D01*
X127159001Y-90281203D01*
X126633999Y-90281203D01*
X126520496Y-90292382D01*
X126411355Y-90325490D01*
X126310770Y-90379253D01*
X126222607Y-90451607D01*
X126150253Y-90539770D01*
X126096490Y-90640355D01*
X126063382Y-90749496D01*
X126052203Y-90862999D01*
X126052203Y-91763001D01*
X126063382Y-91876504D01*
X126065295Y-91882810D01*
X125902705Y-91882810D01*
X125904618Y-91876504D01*
X125915797Y-91763001D01*
X125915797Y-90862999D01*
X125904618Y-90749496D01*
X125871510Y-90640355D01*
X125817747Y-90539770D01*
X125745393Y-90451607D01*
X125657230Y-90379253D01*
X125556645Y-90325490D01*
X125447504Y-90292382D01*
X125334001Y-90281203D01*
X124808999Y-90281203D01*
X124695496Y-90292382D01*
X124586355Y-90325490D01*
X124536200Y-90352298D01*
X124536200Y-89733702D01*
X124586355Y-89760510D01*
X124695496Y-89793618D01*
X124808999Y-89804797D01*
X125334001Y-89804797D01*
X125447504Y-89793618D01*
X125556645Y-89760510D01*
X125657230Y-89706747D01*
X125745393Y-89634393D01*
X125817747Y-89546230D01*
X125871510Y-89445645D01*
X125904618Y-89336504D01*
X125915797Y-89223001D01*
X125915797Y-88322999D01*
X125904618Y-88209496D01*
X125871510Y-88100355D01*
X125817747Y-87999770D01*
X125745393Y-87911607D01*
X125657230Y-87839253D01*
X125556645Y-87785490D01*
X125447504Y-87752382D01*
X125334001Y-87741203D01*
X124808999Y-87741203D01*
X124695496Y-87752382D01*
X124586355Y-87785490D01*
X124485770Y-87839253D01*
X124465895Y-87855564D01*
X124405778Y-87765594D01*
X124324406Y-87684222D01*
X124228723Y-87620288D01*
X124122405Y-87576250D01*
X124009539Y-87553800D01*
X123894461Y-87553800D01*
X123781595Y-87576250D01*
X123675277Y-87620288D01*
X123638797Y-87644663D01*
X123638797Y-87643000D01*
X123632422Y-87578270D01*
X123613540Y-87516027D01*
X123582879Y-87458663D01*
X123541616Y-87408384D01*
X123491337Y-87367121D01*
X123433973Y-87336460D01*
X123371730Y-87317578D01*
X123307000Y-87311203D01*
X122057000Y-87311203D01*
X121992270Y-87317578D01*
X121930027Y-87336460D01*
X121872663Y-87367121D01*
X121822384Y-87408384D01*
X121781121Y-87458663D01*
X121750460Y-87516027D01*
X121731578Y-87578270D01*
X121725203Y-87643000D01*
X121386200Y-87643000D01*
X121386200Y-85643000D01*
X121425203Y-85643000D01*
X121425203Y-86823000D01*
X121431578Y-86887730D01*
X121450460Y-86949973D01*
X121481121Y-87007337D01*
X121522384Y-87057616D01*
X121572663Y-87098879D01*
X121630027Y-87129540D01*
X121692270Y-87148422D01*
X121757000Y-87154797D01*
X123607000Y-87154797D01*
X123671730Y-87148422D01*
X123733973Y-87129540D01*
X123791337Y-87098879D01*
X123841616Y-87057616D01*
X123882879Y-87007337D01*
X123913540Y-86949973D01*
X123932422Y-86887730D01*
X123938797Y-86823000D01*
X123938797Y-85643000D01*
X123932422Y-85578270D01*
X123913540Y-85516027D01*
X123882879Y-85458663D01*
X123841616Y-85408384D01*
X123791337Y-85367121D01*
X123733973Y-85336460D01*
X123671730Y-85317578D01*
X123607000Y-85311203D01*
X121757000Y-85311203D01*
X121692270Y-85317578D01*
X121630027Y-85336460D01*
X121572663Y-85367121D01*
X121522384Y-85408384D01*
X121481121Y-85458663D01*
X121450460Y-85516027D01*
X121431578Y-85578270D01*
X121425203Y-85643000D01*
X121386200Y-85643000D01*
X121386200Y-84549999D01*
X124952203Y-84549999D01*
X124952203Y-85075001D01*
X124963382Y-85188504D01*
X124996490Y-85297645D01*
X125050253Y-85398230D01*
X125122607Y-85486393D01*
X125210770Y-85558747D01*
X125311355Y-85612510D01*
X125420496Y-85645618D01*
X125533999Y-85656797D01*
X126434001Y-85656797D01*
X126547504Y-85645618D01*
X126656645Y-85612510D01*
X126757230Y-85558747D01*
X126845393Y-85486393D01*
X126917747Y-85398230D01*
X126971510Y-85297645D01*
X127004618Y-85188504D01*
X127015797Y-85075001D01*
X127015797Y-84549999D01*
X127004618Y-84436496D01*
X126971510Y-84327355D01*
X126917747Y-84226770D01*
X126845393Y-84138607D01*
X126757230Y-84066253D01*
X126656645Y-84012490D01*
X126547504Y-83979382D01*
X126434001Y-83968203D01*
X125533999Y-83968203D01*
X125420496Y-83979382D01*
X125311355Y-84012490D01*
X125210770Y-84066253D01*
X125122607Y-84138607D01*
X125050253Y-84226770D01*
X124996490Y-84327355D01*
X124963382Y-84436496D01*
X124952203Y-84549999D01*
X121386200Y-84549999D01*
X121386200Y-81805374D01*
X121412549Y-81536641D01*
X121485547Y-81294860D01*
X121604121Y-81071857D01*
X121763748Y-80876135D01*
X121958350Y-80715146D01*
X122180517Y-80595021D01*
X122421788Y-80520334D01*
X122689468Y-80492200D01*
X145651626Y-80492200D01*
X145920359Y-80518549D01*
%TA.AperFunction,Conductor*%
D17*
G36*
X145920359Y-80518549D02*
G01*
X146162140Y-80591547D01*
X146385143Y-80710121D01*
X146580865Y-80869748D01*
X146741854Y-81064350D01*
X146861979Y-81286517D01*
X146936666Y-81527788D01*
X146964801Y-81795477D01*
X146964800Y-97518625D01*
X146938450Y-97787360D01*
X146865453Y-98029140D01*
X146746879Y-98252143D01*
X146587252Y-98447865D01*
X146392648Y-98608856D01*
X146170484Y-98728979D01*
X145929212Y-98803666D01*
X145661532Y-98831800D01*
X122699375Y-98831800D01*
X122430640Y-98805450D01*
X122188860Y-98732453D01*
X121965857Y-98613879D01*
X121770135Y-98454252D01*
X121609144Y-98259648D01*
X121489021Y-98037484D01*
X121414334Y-97796212D01*
X121386200Y-97528532D01*
X121386200Y-93263000D01*
X121425203Y-93263000D01*
X121425203Y-94443000D01*
X121431578Y-94507730D01*
X121450460Y-94569973D01*
X121481121Y-94627337D01*
X121522384Y-94677616D01*
X121572663Y-94718879D01*
X121630027Y-94749540D01*
X121692270Y-94768422D01*
X121757000Y-94774797D01*
X123607000Y-94774797D01*
X123671730Y-94768422D01*
X123733973Y-94749540D01*
X123791337Y-94718879D01*
X123841616Y-94677616D01*
X123882879Y-94627337D01*
X123913540Y-94569973D01*
X123932422Y-94507730D01*
X123938797Y-94443000D01*
X123938797Y-93263000D01*
X123932422Y-93198270D01*
X123913540Y-93136027D01*
X123882879Y-93078663D01*
X123841616Y-93028384D01*
X123791337Y-92987121D01*
X123733973Y-92956460D01*
X123671730Y-92937578D01*
X123607000Y-92931203D01*
X121757000Y-92931203D01*
X121692270Y-92937578D01*
X121630027Y-92956460D01*
X121572663Y-92987121D01*
X121522384Y-93028384D01*
X121481121Y-93078663D01*
X121450460Y-93136027D01*
X121431578Y-93198270D01*
X121425203Y-93263000D01*
X121386200Y-93263000D01*
X121386200Y-87643000D01*
X121725203Y-87643000D01*
X121725203Y-87943000D01*
X121731578Y-88007730D01*
X121742277Y-88043000D01*
X121731578Y-88078270D01*
X121725203Y-88143000D01*
X121725203Y-88443000D01*
X121731578Y-88507730D01*
X121742277Y-88543000D01*
X121731578Y-88578270D01*
X121725203Y-88643000D01*
X121725203Y-88943000D01*
X121731578Y-89007730D01*
X121742277Y-89043000D01*
X121731578Y-89078270D01*
X121725203Y-89143000D01*
X121725203Y-89443000D01*
X121731578Y-89507730D01*
X121742277Y-89543000D01*
X121731578Y-89578270D01*
X121725203Y-89643000D01*
X121725203Y-89943000D01*
X121731578Y-90007730D01*
X121742277Y-90043000D01*
X121731578Y-90078270D01*
X121725203Y-90143000D01*
X121725203Y-90443000D01*
X121731578Y-90507730D01*
X121742277Y-90543000D01*
X121731578Y-90578270D01*
X121725203Y-90643000D01*
X121725203Y-90943000D01*
X121731578Y-91007730D01*
X121742277Y-91043000D01*
X121731578Y-91078270D01*
X121725203Y-91143000D01*
X121725203Y-91443000D01*
X121731578Y-91507730D01*
X121742277Y-91543000D01*
X121731578Y-91578270D01*
X121725203Y-91643000D01*
X121725203Y-91943000D01*
X121731578Y-92007730D01*
X121742277Y-92043000D01*
X121731578Y-92078270D01*
X121725203Y-92143000D01*
X121725203Y-92443000D01*
X121731578Y-92507730D01*
X121750460Y-92569973D01*
X121781121Y-92627337D01*
X121822384Y-92677616D01*
X121872663Y-92718879D01*
X121930027Y-92749540D01*
X121992270Y-92768422D01*
X122057000Y-92774797D01*
X123307000Y-92774797D01*
X123371730Y-92768422D01*
X123433973Y-92749540D01*
X123491337Y-92718879D01*
X123541616Y-92677616D01*
X123582879Y-92627337D01*
X123613540Y-92569973D01*
X123632422Y-92507730D01*
X123638797Y-92443000D01*
X123638797Y-92333981D01*
X123706594Y-92401778D01*
X123802277Y-92465712D01*
X123908595Y-92509750D01*
X124021461Y-92532200D01*
X124136539Y-92532200D01*
X124249405Y-92509750D01*
X124355723Y-92465712D01*
X124451406Y-92401778D01*
X124532778Y-92320406D01*
X124556673Y-92284645D01*
X124586355Y-92300510D01*
X124635238Y-92315339D01*
X124647060Y-92354309D01*
X124686966Y-92428970D01*
X124586356Y-92459490D01*
X124485771Y-92513253D01*
X124397607Y-92585607D01*
X124325253Y-92673771D01*
X124271490Y-92774356D01*
X124238382Y-92883497D01*
X124227203Y-92997000D01*
X124227203Y-93947000D01*
X124238382Y-94060503D01*
X124271490Y-94169644D01*
X124325253Y-94270229D01*
X124397607Y-94358393D01*
X124485771Y-94430747D01*
X124586356Y-94484510D01*
X124695497Y-94517618D01*
X124809000Y-94528797D01*
X125309000Y-94528797D01*
X125422503Y-94517618D01*
X125531644Y-94484510D01*
X125632229Y-94430747D01*
X125720393Y-94358393D01*
X125792747Y-94270229D01*
X125846510Y-94169644D01*
X125879618Y-94060503D01*
X125890797Y-93947000D01*
X125890797Y-93566999D01*
X127873203Y-93566999D01*
X127873203Y-94092001D01*
X127884382Y-94205504D01*
X127917490Y-94314645D01*
X127971253Y-94415230D01*
X128043607Y-94503393D01*
X128131770Y-94575747D01*
X128232355Y-94629510D01*
X128341496Y-94662618D01*
X128454999Y-94673797D01*
X129355001Y-94673797D01*
X129468504Y-94662618D01*
X129577645Y-94629510D01*
X129678230Y-94575747D01*
X129766393Y-94503393D01*
X129838747Y-94415230D01*
X129892510Y-94314645D01*
X129925618Y-94205504D01*
X129936797Y-94092001D01*
X129936797Y-93566999D01*
X129925618Y-93453496D01*
X129892510Y-93344355D01*
X129838747Y-93243770D01*
X129766393Y-93155607D01*
X129678230Y-93083253D01*
X129577645Y-93029490D01*
X129468504Y-92996382D01*
X129355001Y-92985203D01*
X128454999Y-92985203D01*
X128341496Y-92996382D01*
X128232355Y-93029490D01*
X128131770Y-93083253D01*
X128043607Y-93155607D01*
X127971253Y-93243770D01*
X127917490Y-93344355D01*
X127884382Y-93453496D01*
X127873203Y-93566999D01*
X125890797Y-93566999D01*
X125890797Y-92997000D01*
X125879618Y-92883497D01*
X125853443Y-92797210D01*
X128766550Y-92797210D01*
X128789010Y-92799422D01*
X128811470Y-92797210D01*
X129633540Y-92797210D01*
X129655990Y-92799421D01*
X129678440Y-92797210D01*
X129678450Y-92797210D01*
X129745617Y-92790595D01*
X129831799Y-92764451D01*
X129911226Y-92721997D01*
X129980843Y-92664863D01*
X129995164Y-92647413D01*
X130217394Y-92425183D01*
X130234843Y-92410863D01*
X130291977Y-92341246D01*
X130334431Y-92261819D01*
X130360575Y-92175637D01*
X130367190Y-92108470D01*
X130367190Y-92108461D01*
X130369401Y-92086011D01*
X130367190Y-92063561D01*
X130367190Y-89422999D01*
X130667203Y-89422999D01*
X130667203Y-89948001D01*
X130678382Y-90061504D01*
X130711490Y-90170645D01*
X130765253Y-90271230D01*
X130837607Y-90359393D01*
X130925770Y-90431747D01*
X130958288Y-90449128D01*
X130927288Y-90495522D01*
X130883250Y-90601840D01*
X130860800Y-90714706D01*
X130860800Y-90829784D01*
X130883250Y-90942650D01*
X130927288Y-91048968D01*
X130991222Y-91144651D01*
X131072594Y-91226023D01*
X131168277Y-91289957D01*
X131274595Y-91333995D01*
X131387461Y-91356445D01*
X131502539Y-91356445D01*
X131615405Y-91333995D01*
X131721723Y-91289957D01*
X131817406Y-91226023D01*
X131898778Y-91144651D01*
X131962712Y-91048968D01*
X132006750Y-90942650D01*
X132027415Y-90838758D01*
X132080987Y-90773481D01*
X132123441Y-90694054D01*
X132149585Y-90607872D01*
X132156200Y-90540705D01*
X132156200Y-90540696D01*
X132157354Y-90528974D01*
X132262504Y-90518618D01*
X132371645Y-90485510D01*
X132472230Y-90431747D01*
X132560393Y-90359393D01*
X132632747Y-90271230D01*
X132670000Y-90201533D01*
X132707253Y-90271230D01*
X132779607Y-90359393D01*
X132867770Y-90431747D01*
X132968355Y-90485510D01*
X133077496Y-90518618D01*
X133183801Y-90529088D01*
X133183801Y-90832620D01*
X132651421Y-91365001D01*
X132544595Y-91386250D01*
X132438277Y-91430288D01*
X132342594Y-91494222D01*
X132261222Y-91575594D01*
X132197288Y-91671277D01*
X132153250Y-91777595D01*
X132130800Y-91890461D01*
X132130800Y-92005539D01*
X132153250Y-92118405D01*
X132197288Y-92224723D01*
X132261222Y-92320406D01*
X132342594Y-92401778D01*
X132438277Y-92465712D01*
X132544595Y-92509750D01*
X132657461Y-92532200D01*
X132772539Y-92532200D01*
X132885405Y-92509750D01*
X132991723Y-92465712D01*
X133087406Y-92401778D01*
X133168778Y-92320406D01*
X133232712Y-92224723D01*
X133276750Y-92118405D01*
X133297999Y-92011579D01*
X133948414Y-91361165D01*
X133965853Y-91346853D01*
X133980165Y-91329414D01*
X133980171Y-91329408D01*
X134022987Y-91277236D01*
X134065441Y-91197810D01*
X134078660Y-91154232D01*
X134091585Y-91111627D01*
X134098200Y-91044460D01*
X134098200Y-91044450D01*
X134100411Y-91022000D01*
X134098200Y-90999550D01*
X134098200Y-90529088D01*
X134204504Y-90518618D01*
X134313645Y-90485510D01*
X134414230Y-90431747D01*
X134502393Y-90359393D01*
X134574747Y-90271230D01*
X134628510Y-90170645D01*
X134661618Y-90061504D01*
X134672797Y-89948001D01*
X134672797Y-89422999D01*
X134661618Y-89309496D01*
X134628510Y-89200355D01*
X134574747Y-89099770D01*
X134502393Y-89011607D01*
X134414230Y-88939253D01*
X134313645Y-88885490D01*
X134204504Y-88852382D01*
X134091001Y-88841203D01*
X133190999Y-88841203D01*
X133077496Y-88852382D01*
X132968355Y-88885490D01*
X132867770Y-88939253D01*
X132779607Y-89011607D01*
X132707253Y-89099770D01*
X132670000Y-89169467D01*
X132632747Y-89099770D01*
X132560393Y-89011607D01*
X132472230Y-88939253D01*
X132371645Y-88885490D01*
X132262504Y-88852382D01*
X132149001Y-88841203D01*
X131248999Y-88841203D01*
X131135496Y-88852382D01*
X131026355Y-88885490D01*
X130925770Y-88939253D01*
X130837607Y-89011607D01*
X130765253Y-89099770D01*
X130711490Y-89200355D01*
X130678382Y-89309496D01*
X130667203Y-89422999D01*
X130367190Y-89422999D01*
X130367190Y-87077095D01*
X130371585Y-87062607D01*
X130378200Y-86995440D01*
X130378200Y-86995430D01*
X130380411Y-86972981D01*
X130378200Y-86950531D01*
X130378200Y-86055200D01*
X130667203Y-86055200D01*
X130667203Y-86098000D01*
X130678382Y-86211503D01*
X130711490Y-86320644D01*
X130765253Y-86421229D01*
X130837607Y-86509393D01*
X130925771Y-86581747D01*
X131026356Y-86635510D01*
X131135497Y-86668618D01*
X131249000Y-86679797D01*
X131745402Y-86679797D01*
X131737516Y-86719444D01*
X131737516Y-86834522D01*
X131759966Y-86947388D01*
X131788470Y-87016203D01*
X131248999Y-87016203D01*
X131135496Y-87027382D01*
X131026355Y-87060490D01*
X130925770Y-87114253D01*
X130837607Y-87186607D01*
X130765253Y-87274770D01*
X130711490Y-87375355D01*
X130678382Y-87484496D01*
X130667203Y-87597999D01*
X130667203Y-88123001D01*
X130678382Y-88236504D01*
X130711490Y-88345645D01*
X130765253Y-88446230D01*
X130837607Y-88534393D01*
X130925770Y-88606747D01*
X131026355Y-88660510D01*
X131135496Y-88693618D01*
X131248999Y-88704797D01*
X132149001Y-88704797D01*
X132262504Y-88693618D01*
X132371645Y-88660510D01*
X132472230Y-88606747D01*
X132560393Y-88534393D01*
X132632747Y-88446230D01*
X132670000Y-88376533D01*
X132707253Y-88446230D01*
X132779607Y-88534393D01*
X132867770Y-88606747D01*
X132968355Y-88660510D01*
X133077496Y-88693618D01*
X133190999Y-88704797D01*
X134091001Y-88704797D01*
X134204504Y-88693618D01*
X134313645Y-88660510D01*
X134414230Y-88606747D01*
X134502393Y-88534393D01*
X134574747Y-88446230D01*
X134628510Y-88345645D01*
X134661618Y-88236504D01*
X134672797Y-88123001D01*
X134672797Y-87597999D01*
X134661618Y-87484496D01*
X134628510Y-87375355D01*
X134574747Y-87274770D01*
X134546004Y-87239747D01*
X135014715Y-87239747D01*
X135105277Y-87300259D01*
X135211595Y-87344297D01*
X135318421Y-87365546D01*
X135640846Y-87687970D01*
X135563222Y-87765594D01*
X135499288Y-87861277D01*
X135455250Y-87967595D01*
X135432800Y-88080461D01*
X135432800Y-88195539D01*
X135455250Y-88308405D01*
X135499288Y-88414723D01*
X135559801Y-88505286D01*
X135559800Y-91617800D01*
X134642449Y-91617800D01*
X134619999Y-91615589D01*
X134597549Y-91617800D01*
X134597540Y-91617800D01*
X134530373Y-91624415D01*
X134444191Y-91650559D01*
X134423591Y-91661570D01*
X134364764Y-91693013D01*
X134332516Y-91719479D01*
X134295147Y-91750147D01*
X134280830Y-91767592D01*
X132153597Y-93894826D01*
X132136147Y-93909147D01*
X132079013Y-93978765D01*
X132036559Y-94058192D01*
X132024338Y-94098478D01*
X132007222Y-94115594D01*
X131943288Y-94211277D01*
X131899250Y-94317595D01*
X131876800Y-94430461D01*
X131876800Y-94545539D01*
X131899250Y-94658405D01*
X131943288Y-94764723D01*
X132003800Y-94855285D01*
X132003801Y-96316800D01*
X127697378Y-96316800D01*
X127660320Y-96279742D01*
X127692747Y-96240229D01*
X127746510Y-96139644D01*
X127779618Y-96030503D01*
X127790797Y-95917000D01*
X127790797Y-94967000D01*
X127779618Y-94853497D01*
X127746510Y-94744356D01*
X127692747Y-94643771D01*
X127620393Y-94555607D01*
X127532229Y-94483253D01*
X127431644Y-94429490D01*
X127322503Y-94396382D01*
X127209000Y-94385203D01*
X126709000Y-94385203D01*
X126595497Y-94396382D01*
X126486356Y-94429490D01*
X126385771Y-94483253D01*
X126297607Y-94555607D01*
X126225253Y-94643771D01*
X126171490Y-94744356D01*
X126138382Y-94853497D01*
X126127203Y-94967000D01*
X126127203Y-95917000D01*
X126138382Y-96030503D01*
X126171490Y-96139644D01*
X126225253Y-96240229D01*
X126297607Y-96328393D01*
X126385771Y-96400747D01*
X126486356Y-96454510D01*
X126578954Y-96482600D01*
X126634147Y-96549853D01*
X126651597Y-96564174D01*
X127168829Y-97081407D01*
X127183147Y-97098853D01*
X127200592Y-97113170D01*
X127252763Y-97155987D01*
X127295217Y-97178678D01*
X127332191Y-97198441D01*
X127418373Y-97224585D01*
X127485540Y-97231200D01*
X127485549Y-97231200D01*
X127507999Y-97233411D01*
X127530449Y-97231200D01*
X132438540Y-97231200D01*
X132461000Y-97233412D01*
X132483460Y-97231200D01*
X133744667Y-97231200D01*
X133835277Y-97291744D01*
X133941595Y-97335782D01*
X134054461Y-97358232D01*
X134169539Y-97358232D01*
X134282405Y-97335782D01*
X134388723Y-97291744D01*
X134484406Y-97227810D01*
X134565778Y-97146438D01*
X134629712Y-97050755D01*
X134673750Y-96944437D01*
X134696200Y-96831571D01*
X134696200Y-96716493D01*
X134673750Y-96603627D01*
X134629712Y-96497309D01*
X134565778Y-96401626D01*
X134484406Y-96320254D01*
X134388723Y-96256320D01*
X134384209Y-96254450D01*
X134413618Y-96157504D01*
X134424797Y-96044001D01*
X134424797Y-95143999D01*
X134413618Y-95030496D01*
X134380510Y-94921355D01*
X134326747Y-94820770D01*
X134254393Y-94732607D01*
X134166230Y-94660253D01*
X134065645Y-94606490D01*
X133956504Y-94573382D01*
X133843001Y-94562203D01*
X133317999Y-94562203D01*
X133204496Y-94573382D01*
X133095355Y-94606490D01*
X133025667Y-94643738D01*
X133045200Y-94545539D01*
X133045200Y-94430461D01*
X133022954Y-94318623D01*
X134809378Y-92532200D01*
X135994540Y-92532200D01*
X136017000Y-92534412D01*
X136039460Y-92532200D01*
X136103203Y-92532200D01*
X136103203Y-92550000D01*
X136114382Y-92663503D01*
X136147490Y-92772644D01*
X136201253Y-92873229D01*
X136273607Y-92961393D01*
X136361771Y-93033747D01*
X136462356Y-93087510D01*
X136571497Y-93120618D01*
X136685000Y-93131797D01*
X137185000Y-93131797D01*
X137298503Y-93120618D01*
X137407644Y-93087510D01*
X137508229Y-93033747D01*
X137596393Y-92961393D01*
X137668747Y-92873229D01*
X137722510Y-92772644D01*
X137755618Y-92663503D01*
X137766797Y-92550000D01*
X137766797Y-91600000D01*
X137755618Y-91486497D01*
X137722510Y-91377356D01*
X137668747Y-91276771D01*
X137596393Y-91188607D01*
X137508229Y-91116253D01*
X137407644Y-91062490D01*
X137298503Y-91029382D01*
X137185000Y-91018203D01*
X136685000Y-91018203D01*
X136571497Y-91029382D01*
X136474200Y-91058897D01*
X136474200Y-89122103D01*
X136571497Y-89151618D01*
X136685000Y-89162797D01*
X137635000Y-89162797D01*
X137748503Y-89151618D01*
X137857644Y-89118510D01*
X137958229Y-89064747D01*
X138046393Y-88992393D01*
X138118747Y-88904229D01*
X138172510Y-88803644D01*
X138205618Y-88694503D01*
X138216797Y-88581000D01*
X138216797Y-88081000D01*
X138205618Y-87967497D01*
X138187198Y-87906776D01*
X138480800Y-88200379D01*
X138480801Y-90147540D01*
X138478589Y-90170000D01*
X138480801Y-90192460D01*
X138487416Y-90259627D01*
X138502362Y-90308894D01*
X138513560Y-90345809D01*
X138556013Y-90425235D01*
X138596691Y-90474800D01*
X138613148Y-90494853D01*
X138630592Y-90509170D01*
X139159931Y-91038509D01*
X139159931Y-91049469D01*
X139182381Y-91162335D01*
X139226419Y-91268653D01*
X139290353Y-91364336D01*
X139371725Y-91445708D01*
X139467408Y-91509642D01*
X139573726Y-91553680D01*
X139686592Y-91576130D01*
X139801670Y-91576130D01*
X139914536Y-91553680D01*
X140020854Y-91509642D01*
X140116537Y-91445708D01*
X140197909Y-91364336D01*
X140219456Y-91332089D01*
X140249663Y-91356879D01*
X140307027Y-91387540D01*
X140349801Y-91400516D01*
X140349801Y-91506256D01*
X140272607Y-91569607D01*
X140200253Y-91657771D01*
X140146490Y-91758356D01*
X140113382Y-91867497D01*
X140102203Y-91981000D01*
X140102203Y-92931000D01*
X140113382Y-93044503D01*
X140146490Y-93153644D01*
X140200253Y-93254229D01*
X140272607Y-93342393D01*
X140360771Y-93414747D01*
X140461356Y-93468510D01*
X140514067Y-93484500D01*
X140461355Y-93500490D01*
X140360770Y-93554253D01*
X140272607Y-93626607D01*
X140200253Y-93714770D01*
X140146490Y-93815355D01*
X140113382Y-93924496D01*
X140102203Y-94037999D01*
X140102203Y-94938001D01*
X140113382Y-95051504D01*
X140146490Y-95160645D01*
X140200253Y-95261230D01*
X140272607Y-95349393D01*
X140360770Y-95421747D01*
X140461355Y-95475510D01*
X140570496Y-95508618D01*
X140683999Y-95519797D01*
X141209001Y-95519797D01*
X141322504Y-95508618D01*
X141431645Y-95475510D01*
X141532230Y-95421747D01*
X141620393Y-95349393D01*
X141692747Y-95261230D01*
X141746510Y-95160645D01*
X141779618Y-95051504D01*
X141790797Y-94938001D01*
X141790797Y-94037999D01*
X141779618Y-93924496D01*
X141746510Y-93815355D01*
X141692747Y-93714770D01*
X141620393Y-93626607D01*
X141532230Y-93554253D01*
X141431645Y-93500490D01*
X141366433Y-93480708D01*
X141406644Y-93468510D01*
X141507229Y-93414747D01*
X141595393Y-93342393D01*
X141667747Y-93254229D01*
X141721510Y-93153644D01*
X141754618Y-93044503D01*
X141765797Y-92931000D01*
X141765797Y-91981000D01*
X141754618Y-91867497D01*
X141721510Y-91758356D01*
X141667747Y-91657771D01*
X141595393Y-91569607D01*
X141507229Y-91497253D01*
X141406644Y-91443490D01*
X141305464Y-91412797D01*
X141634000Y-91412797D01*
X141698730Y-91406422D01*
X141760973Y-91387540D01*
X141818337Y-91356879D01*
X141868616Y-91315616D01*
X141909879Y-91265337D01*
X141940540Y-91207973D01*
X141959422Y-91145730D01*
X141965797Y-91081000D01*
X141965797Y-89681000D01*
X141959422Y-89616270D01*
X141940540Y-89554027D01*
X141909879Y-89496663D01*
X141868616Y-89446384D01*
X141818337Y-89405121D01*
X141760973Y-89374460D01*
X141698730Y-89355578D01*
X141634000Y-89349203D01*
X140434000Y-89349203D01*
X140369270Y-89355578D01*
X140307027Y-89374460D01*
X140249663Y-89405121D01*
X140199384Y-89446384D01*
X140158121Y-89496663D01*
X140127460Y-89554027D01*
X140108578Y-89616270D01*
X140104632Y-89656338D01*
X140044658Y-89566581D01*
X140106922Y-89473398D01*
X140150960Y-89367080D01*
X140173410Y-89254214D01*
X140173410Y-89139136D01*
X140150960Y-89026270D01*
X140106922Y-88919952D01*
X140046410Y-88829390D01*
X140046410Y-87937235D01*
X140404445Y-87579201D01*
X141802203Y-87579200D01*
X141802203Y-88881000D01*
X141808578Y-88945730D01*
X141827460Y-89007973D01*
X141858121Y-89065337D01*
X141899384Y-89115616D01*
X141949663Y-89156879D01*
X142007027Y-89187540D01*
X142069270Y-89206422D01*
X142134000Y-89212797D01*
X143334000Y-89212797D01*
X143398730Y-89206422D01*
X143460973Y-89187540D01*
X143518337Y-89156879D01*
X143568616Y-89115616D01*
X143609879Y-89065337D01*
X143640540Y-89007973D01*
X143659422Y-88945730D01*
X143665797Y-88881000D01*
X143665797Y-88723991D01*
X143694253Y-88777229D01*
X143766607Y-88865393D01*
X143854771Y-88937747D01*
X143955356Y-88991510D01*
X144064497Y-89024618D01*
X144178000Y-89035797D01*
X145128000Y-89035797D01*
X145241503Y-89024618D01*
X145265790Y-89017251D01*
X145265789Y-92684916D01*
X145191504Y-92662382D01*
X145078001Y-92651203D01*
X144177999Y-92651203D01*
X144064496Y-92662382D01*
X143955355Y-92695490D01*
X143854770Y-92749253D01*
X143766607Y-92821607D01*
X143694253Y-92909770D01*
X143640490Y-93010355D01*
X143607382Y-93119496D01*
X143596203Y-93232999D01*
X143596203Y-93758001D01*
X143607382Y-93871504D01*
X143640490Y-93980645D01*
X143694253Y-94081230D01*
X143766607Y-94169393D01*
X143854770Y-94241747D01*
X143955355Y-94295510D01*
X144064496Y-94328618D01*
X144177999Y-94339797D01*
X144909557Y-94339797D01*
X143059555Y-96189800D01*
X139657821Y-96189800D01*
X139667618Y-96157504D01*
X139678797Y-96044001D01*
X139678797Y-95143999D01*
X139667618Y-95030496D01*
X139634510Y-94921355D01*
X139580747Y-94820770D01*
X139508393Y-94732607D01*
X139420230Y-94660253D01*
X139319645Y-94606490D01*
X139210504Y-94573382D01*
X139097001Y-94562203D01*
X138571999Y-94562203D01*
X138458496Y-94573382D01*
X138349355Y-94606490D01*
X138248770Y-94660253D01*
X138160607Y-94732607D01*
X138088253Y-94820770D01*
X138034490Y-94921355D01*
X138001382Y-95030496D01*
X137990203Y-95143999D01*
X137990203Y-95928125D01*
X137853797Y-95791720D01*
X137853797Y-95143999D01*
X137842618Y-95030496D01*
X137809510Y-94921355D01*
X137755747Y-94820770D01*
X137683393Y-94732607D01*
X137595230Y-94660253D01*
X137494645Y-94606490D01*
X137385504Y-94573382D01*
X137272001Y-94562203D01*
X136746999Y-94562203D01*
X136633496Y-94573382D01*
X136524355Y-94606490D01*
X136423770Y-94660253D01*
X136335607Y-94732607D01*
X136263253Y-94820770D01*
X136209490Y-94921355D01*
X136207500Y-94927915D01*
X136205510Y-94921355D01*
X136151747Y-94820770D01*
X136079393Y-94732607D01*
X135991230Y-94660253D01*
X135890645Y-94606490D01*
X135781504Y-94573382D01*
X135668001Y-94562203D01*
X135142999Y-94562203D01*
X135029496Y-94573382D01*
X134920355Y-94606490D01*
X134819770Y-94660253D01*
X134731607Y-94732607D01*
X134659253Y-94820770D01*
X134605490Y-94921355D01*
X134572382Y-95030496D01*
X134561203Y-95143999D01*
X134561203Y-96044001D01*
X134572382Y-96157504D01*
X134605490Y-96266645D01*
X134659253Y-96367230D01*
X134731607Y-96455393D01*
X134819770Y-96527747D01*
X134920355Y-96581510D01*
X134985918Y-96601399D01*
X135023513Y-96671735D01*
X135060246Y-96716493D01*
X135080648Y-96741353D01*
X135098092Y-96755669D01*
X135804835Y-97462413D01*
X135819147Y-97479853D01*
X135836586Y-97494165D01*
X135836592Y-97494171D01*
X135888764Y-97536987D01*
X135968190Y-97579441D01*
X135985375Y-97584654D01*
X136054373Y-97605585D01*
X136121540Y-97612200D01*
X136121550Y-97612200D01*
X136144000Y-97614411D01*
X136166450Y-97612200D01*
X143360550Y-97612200D01*
X143383000Y-97614411D01*
X143405450Y-97612200D01*
X143405460Y-97612200D01*
X143472627Y-97605585D01*
X143558809Y-97579441D01*
X143638236Y-97536987D01*
X143707853Y-97479853D01*
X143722174Y-97462403D01*
X146484415Y-94700164D01*
X146501853Y-94685853D01*
X146516165Y-94668414D01*
X146516171Y-94668408D01*
X146558987Y-94616236D01*
X146601441Y-94536810D01*
X146617306Y-94484510D01*
X146627585Y-94450627D01*
X146634200Y-94383460D01*
X146634200Y-94383450D01*
X146636411Y-94361000D01*
X146634200Y-94338550D01*
X146634200Y-87398450D01*
X146636411Y-87376000D01*
X146634200Y-87353550D01*
X146634200Y-87353540D01*
X146627585Y-87286373D01*
X146601441Y-87200191D01*
X146558987Y-87120764D01*
X146501853Y-87051147D01*
X146484408Y-87036830D01*
X145627174Y-86179597D01*
X145612853Y-86162147D01*
X145543236Y-86105013D01*
X145463809Y-86062559D01*
X145377627Y-86036415D01*
X145310460Y-86029800D01*
X145310450Y-86029800D01*
X145288000Y-86027589D01*
X145265550Y-86029800D01*
X144697069Y-86029800D01*
X144627677Y-85960408D01*
X144531994Y-85896474D01*
X144425676Y-85852436D01*
X144312810Y-85829986D01*
X144197732Y-85829986D01*
X144084866Y-85852436D01*
X143978548Y-85896474D01*
X143882865Y-85960408D01*
X143801493Y-86041780D01*
X143737559Y-86137463D01*
X143693521Y-86243781D01*
X143671071Y-86356647D01*
X143671071Y-86471725D01*
X143693521Y-86584591D01*
X143737559Y-86690909D01*
X143797497Y-86780611D01*
X143754288Y-86845277D01*
X143710250Y-86951595D01*
X143687800Y-87064461D01*
X143687800Y-87179539D01*
X143710250Y-87292405D01*
X143754288Y-87398723D01*
X143818222Y-87494406D01*
X143821431Y-87497615D01*
X143766607Y-87542607D01*
X143694253Y-87630771D01*
X143665797Y-87684009D01*
X143665797Y-87481000D01*
X143659422Y-87416270D01*
X143640540Y-87354027D01*
X143609879Y-87296663D01*
X143568616Y-87246384D01*
X143518337Y-87205121D01*
X143460973Y-87174460D01*
X143398730Y-87155578D01*
X143334000Y-87149203D01*
X143185750Y-87149203D01*
X143184585Y-87137373D01*
X143158441Y-87051191D01*
X143115987Y-86971764D01*
X143058853Y-86902147D01*
X143041403Y-86887826D01*
X142968169Y-86814592D01*
X142953852Y-86797147D01*
X142929283Y-86776983D01*
X142884235Y-86740013D01*
X142863172Y-86728755D01*
X142804808Y-86697559D01*
X142718626Y-86671415D01*
X142651459Y-86664800D01*
X142651450Y-86664800D01*
X142629000Y-86662589D01*
X142606550Y-86664800D01*
X141520904Y-86664801D01*
X141532230Y-86658747D01*
X141620393Y-86586393D01*
X141692747Y-86498230D01*
X141746510Y-86397645D01*
X141779618Y-86288504D01*
X141790797Y-86175001D01*
X141790797Y-85274999D01*
X141779618Y-85161496D01*
X141746510Y-85052355D01*
X141692747Y-84951770D01*
X141620393Y-84863607D01*
X141532230Y-84791253D01*
X141431645Y-84737490D01*
X141403700Y-84729013D01*
X141403700Y-84688987D01*
X141431645Y-84680510D01*
X141532230Y-84626747D01*
X141620393Y-84554393D01*
X141692747Y-84466230D01*
X141746510Y-84365645D01*
X141779618Y-84256504D01*
X141790797Y-84143001D01*
X141790797Y-83242999D01*
X141927203Y-83242999D01*
X141927203Y-84143001D01*
X141938382Y-84256504D01*
X141971490Y-84365645D01*
X142025253Y-84466230D01*
X142097607Y-84554393D01*
X142185770Y-84626747D01*
X142286355Y-84680510D01*
X142395496Y-84713618D01*
X142508999Y-84724797D01*
X143034001Y-84724797D01*
X143147504Y-84713618D01*
X143256645Y-84680510D01*
X143357230Y-84626747D01*
X143445393Y-84554393D01*
X143517747Y-84466230D01*
X143571510Y-84365645D01*
X143604618Y-84256504D01*
X143615797Y-84143001D01*
X143615797Y-83242999D01*
X143604618Y-83129496D01*
X143571510Y-83020355D01*
X143517747Y-82919770D01*
X143445393Y-82831607D01*
X143357230Y-82759253D01*
X143256645Y-82705490D01*
X143147504Y-82672382D01*
X143034001Y-82661203D01*
X142508999Y-82661203D01*
X142395496Y-82672382D01*
X142286355Y-82705490D01*
X142185770Y-82759253D01*
X142097607Y-82831607D01*
X142025253Y-82919770D01*
X141971490Y-83020355D01*
X141938382Y-83129496D01*
X141927203Y-83242999D01*
X141790797Y-83242999D01*
X141779618Y-83129496D01*
X141746510Y-83020355D01*
X141692747Y-82919770D01*
X141620393Y-82831607D01*
X141532230Y-82759253D01*
X141431645Y-82705490D01*
X141322504Y-82672382D01*
X141209001Y-82661203D01*
X140683999Y-82661203D01*
X140648929Y-82664657D01*
X140642750Y-82633595D01*
X140598712Y-82527277D01*
X140534778Y-82431594D01*
X140453406Y-82350222D01*
X140357723Y-82286288D01*
X140251405Y-82242250D01*
X140138539Y-82219800D01*
X140023461Y-82219800D01*
X139910595Y-82242250D01*
X139804277Y-82286288D01*
X139708594Y-82350222D01*
X139627222Y-82431594D01*
X139563288Y-82527277D01*
X139519250Y-82633595D01*
X139510964Y-82675252D01*
X139501504Y-82672382D01*
X139388001Y-82661203D01*
X138487999Y-82661203D01*
X138374496Y-82672382D01*
X138265355Y-82705490D01*
X138164770Y-82759253D01*
X138076607Y-82831607D01*
X138004253Y-82919770D01*
X137950490Y-83020355D01*
X137917382Y-83129496D01*
X137906203Y-83242999D01*
X137906203Y-83768001D01*
X137917382Y-83881504D01*
X137950490Y-83990645D01*
X138004253Y-84091230D01*
X138076607Y-84179393D01*
X138164770Y-84251747D01*
X138265355Y-84305510D01*
X138374496Y-84338618D01*
X138487999Y-84349797D01*
X139388001Y-84349797D01*
X139501504Y-84338618D01*
X139610645Y-84305510D01*
X139623801Y-84298478D01*
X139623800Y-85756780D01*
X138473358Y-85756780D01*
X138007174Y-85290597D01*
X137992853Y-85273147D01*
X137923236Y-85216013D01*
X137843809Y-85173559D01*
X137757627Y-85147415D01*
X137753701Y-85147028D01*
X137742618Y-85034496D01*
X137709510Y-84925355D01*
X137655747Y-84824770D01*
X137583393Y-84736607D01*
X137495230Y-84664253D01*
X137394645Y-84610490D01*
X137285504Y-84577382D01*
X137172001Y-84566203D01*
X136646999Y-84566203D01*
X136533496Y-84577382D01*
X136424355Y-84610490D01*
X136323770Y-84664253D01*
X136235607Y-84736607D01*
X136163253Y-84824770D01*
X136109490Y-84925355D01*
X136076382Y-85034496D01*
X136065203Y-85147999D01*
X136065203Y-86048001D01*
X136076382Y-86161504D01*
X136109490Y-86270645D01*
X136163253Y-86371230D01*
X136235607Y-86459393D01*
X136323770Y-86531747D01*
X136424355Y-86585510D01*
X136533496Y-86618618D01*
X136625802Y-86627709D01*
X136596855Y-86697595D01*
X136574405Y-86810461D01*
X136574405Y-86925539D01*
X136587585Y-86991801D01*
X136237832Y-86991801D01*
X135964999Y-86718968D01*
X135943750Y-86612142D01*
X135899712Y-86505824D01*
X135835778Y-86410141D01*
X135815475Y-86389838D01*
X135830747Y-86371230D01*
X135884510Y-86270645D01*
X135917618Y-86161504D01*
X135928797Y-86048001D01*
X135928797Y-85147999D01*
X135917618Y-85034496D01*
X135884510Y-84925355D01*
X135830747Y-84824770D01*
X135758393Y-84736607D01*
X135670230Y-84664253D01*
X135569645Y-84610490D01*
X135541700Y-84602013D01*
X135541700Y-84579403D01*
X135544644Y-84578510D01*
X135645229Y-84524747D01*
X135733393Y-84452393D01*
X135805747Y-84364229D01*
X135859510Y-84263644D01*
X135892618Y-84154503D01*
X135903797Y-84041000D01*
X135903797Y-83091000D01*
X135892618Y-82977497D01*
X135859510Y-82868356D01*
X135805747Y-82767771D01*
X135733393Y-82679607D01*
X135645229Y-82607253D01*
X135544644Y-82553490D01*
X135435503Y-82520382D01*
X135322000Y-82509203D01*
X134822000Y-82509203D01*
X134708497Y-82520382D01*
X134599356Y-82553490D01*
X134498771Y-82607253D01*
X134410607Y-82679607D01*
X134338253Y-82767771D01*
X134284490Y-82868356D01*
X134251382Y-82977497D01*
X134240203Y-83091000D01*
X134240203Y-84041000D01*
X134251382Y-84154503D01*
X134284490Y-84263644D01*
X134338253Y-84364229D01*
X134410607Y-84452393D01*
X134498771Y-84524747D01*
X134599356Y-84578510D01*
X134627301Y-84586987D01*
X134627301Y-84602013D01*
X134599355Y-84610490D01*
X134498770Y-84664253D01*
X134410607Y-84736607D01*
X134338253Y-84824770D01*
X134284490Y-84925355D01*
X134251382Y-85034496D01*
X134240203Y-85147999D01*
X134240203Y-85812942D01*
X134229288Y-85829277D01*
X134185250Y-85935595D01*
X134162800Y-86048461D01*
X134162800Y-86163539D01*
X134185250Y-86276405D01*
X134205522Y-86325347D01*
X133711903Y-86325347D01*
X133689453Y-86323136D01*
X133667003Y-86325347D01*
X132696264Y-86325347D01*
X132694122Y-86323205D01*
X132598439Y-86259271D01*
X132492121Y-86215233D01*
X132379255Y-86192783D01*
X132321462Y-86192783D01*
X132330797Y-86098000D01*
X132330797Y-85148000D01*
X132319618Y-85034497D01*
X132286510Y-84925356D01*
X132232747Y-84824771D01*
X132160393Y-84736607D01*
X132072229Y-84664253D01*
X131971644Y-84610490D01*
X131862503Y-84577382D01*
X131749000Y-84566203D01*
X131249000Y-84566203D01*
X131135497Y-84577382D01*
X131026356Y-84610490D01*
X130925771Y-84664253D01*
X130837607Y-84736607D01*
X130765253Y-84824771D01*
X130711490Y-84925356D01*
X130678382Y-85034497D01*
X130667912Y-85140800D01*
X130378200Y-85140800D01*
X130378200Y-84060285D01*
X130438712Y-83969723D01*
X130482750Y-83863405D01*
X130505200Y-83750539D01*
X130505200Y-83635461D01*
X130482750Y-83522595D01*
X130438712Y-83416277D01*
X130374778Y-83320594D01*
X130293406Y-83239222D01*
X130197723Y-83175288D01*
X130091405Y-83131250D01*
X129978539Y-83108800D01*
X129943460Y-83108800D01*
X129921000Y-83106588D01*
X129898540Y-83108800D01*
X129863461Y-83108800D01*
X129750595Y-83131250D01*
X129644277Y-83175288D01*
X129548594Y-83239222D01*
X129467222Y-83320594D01*
X129403288Y-83416277D01*
X129359250Y-83522595D01*
X129336800Y-83635461D01*
X129336800Y-83750539D01*
X129359250Y-83863405D01*
X129399214Y-83959889D01*
X129341504Y-83942382D01*
X129228001Y-83931203D01*
X128327999Y-83931203D01*
X128214496Y-83942382D01*
X128105355Y-83975490D01*
X128004770Y-84029253D01*
X127916607Y-84101607D01*
X127844253Y-84189770D01*
X127790490Y-84290355D01*
X127757382Y-84399496D01*
X127746203Y-84512999D01*
X127746203Y-85038001D01*
X127757382Y-85151504D01*
X127790490Y-85260645D01*
X127844253Y-85361230D01*
X127916607Y-85449393D01*
X128004770Y-85521747D01*
X128105355Y-85575510D01*
X128214496Y-85608618D01*
X128327999Y-85619797D01*
X129228001Y-85619797D01*
X129341504Y-85608618D01*
X129450645Y-85575510D01*
X129463800Y-85568479D01*
X129463800Y-85575540D01*
X129461588Y-85598000D01*
X129463801Y-85620470D01*
X129463801Y-85807522D01*
X129450645Y-85800490D01*
X129341504Y-85767382D01*
X129228001Y-85756203D01*
X128327999Y-85756203D01*
X128214496Y-85767382D01*
X128105355Y-85800490D01*
X128004770Y-85854253D01*
X127916607Y-85926607D01*
X127844253Y-86014770D01*
X127790490Y-86115355D01*
X127757382Y-86224496D01*
X127746203Y-86337999D01*
X127746203Y-86840626D01*
X127235674Y-86330097D01*
X127221353Y-86312647D01*
X127151736Y-86255513D01*
X127072309Y-86213059D01*
X126986127Y-86186915D01*
X126981867Y-86186495D01*
X126971510Y-86152355D01*
X126917747Y-86051770D01*
X126845393Y-85963607D01*
X126757230Y-85891253D01*
X126656645Y-85837490D01*
X126547504Y-85804382D01*
X126434001Y-85793203D01*
X125533999Y-85793203D01*
X125420496Y-85804382D01*
X125311355Y-85837490D01*
X125210770Y-85891253D01*
X125122607Y-85963607D01*
X125050253Y-86051770D01*
X124996490Y-86152355D01*
X124963382Y-86261496D01*
X124952203Y-86374999D01*
X124952203Y-86900001D01*
X124963382Y-87013504D01*
X124996490Y-87122645D01*
X125050253Y-87223230D01*
X125122607Y-87311393D01*
X125210770Y-87383747D01*
X125311355Y-87437510D01*
X125420496Y-87470618D01*
X125533999Y-87481797D01*
X126434001Y-87481797D01*
X126547504Y-87470618D01*
X126656645Y-87437510D01*
X126757230Y-87383747D01*
X126845393Y-87311393D01*
X126880743Y-87268320D01*
X128195001Y-88582579D01*
X128216250Y-88689405D01*
X128260288Y-88795723D01*
X128324222Y-88891406D01*
X128405594Y-88972778D01*
X128501277Y-89036712D01*
X128607595Y-89080750D01*
X128720461Y-89103200D01*
X128835539Y-89103200D01*
X128948405Y-89080750D01*
X129054723Y-89036712D01*
X129150406Y-88972778D01*
X129231778Y-88891406D01*
X129295712Y-88795723D01*
X129339750Y-88689405D01*
X129362200Y-88576539D01*
X129362200Y-88461461D01*
X129339750Y-88348595D01*
X129295712Y-88242277D01*
X129231778Y-88146594D01*
X129150406Y-88065222D01*
X129054723Y-88001288D01*
X128948405Y-87957250D01*
X128841579Y-87936001D01*
X128350375Y-87444797D01*
X129228001Y-87444797D01*
X129341504Y-87433618D01*
X129450645Y-87400510D01*
X129452791Y-87399363D01*
X129452790Y-90825974D01*
X129391503Y-90807382D01*
X129278000Y-90796203D01*
X128328000Y-90796203D01*
X128214497Y-90807382D01*
X128105356Y-90840490D01*
X128004771Y-90894253D01*
X127916607Y-90966607D01*
X127844253Y-91054771D01*
X127790490Y-91155356D01*
X127757382Y-91264497D01*
X127746203Y-91378000D01*
X127746203Y-91878000D01*
X127746677Y-91882810D01*
X127727705Y-91882810D01*
X127729618Y-91876504D01*
X127740797Y-91763001D01*
X127740797Y-90862999D01*
X127729618Y-90749496D01*
X127696510Y-90640355D01*
X127642747Y-90539770D01*
X127570393Y-90451607D01*
X127482230Y-90379253D01*
X127381645Y-90325490D01*
X127272504Y-90292382D01*
X127159001Y-90281203D01*
X126633999Y-90281203D01*
X126520496Y-90292382D01*
X126411355Y-90325490D01*
X126310770Y-90379253D01*
X126222607Y-90451607D01*
X126150253Y-90539770D01*
X126096490Y-90640355D01*
X126063382Y-90749496D01*
X126052203Y-90862999D01*
X126052203Y-91763001D01*
X126063382Y-91876504D01*
X126065295Y-91882810D01*
X125902705Y-91882810D01*
X125904618Y-91876504D01*
X125915797Y-91763001D01*
X125915797Y-90862999D01*
X125904618Y-90749496D01*
X125871510Y-90640355D01*
X125817747Y-90539770D01*
X125745393Y-90451607D01*
X125657230Y-90379253D01*
X125556645Y-90325490D01*
X125447504Y-90292382D01*
X125334001Y-90281203D01*
X124808999Y-90281203D01*
X124695496Y-90292382D01*
X124586355Y-90325490D01*
X124536200Y-90352298D01*
X124536200Y-89733702D01*
X124586355Y-89760510D01*
X124695496Y-89793618D01*
X124808999Y-89804797D01*
X125334001Y-89804797D01*
X125447504Y-89793618D01*
X125556645Y-89760510D01*
X125657230Y-89706747D01*
X125745393Y-89634393D01*
X125817747Y-89546230D01*
X125871510Y-89445645D01*
X125904618Y-89336504D01*
X125915797Y-89223001D01*
X125915797Y-88322999D01*
X125904618Y-88209496D01*
X125871510Y-88100355D01*
X125817747Y-87999770D01*
X125745393Y-87911607D01*
X125657230Y-87839253D01*
X125556645Y-87785490D01*
X125447504Y-87752382D01*
X125334001Y-87741203D01*
X124808999Y-87741203D01*
X124695496Y-87752382D01*
X124586355Y-87785490D01*
X124485770Y-87839253D01*
X124465895Y-87855564D01*
X124405778Y-87765594D01*
X124324406Y-87684222D01*
X124228723Y-87620288D01*
X124122405Y-87576250D01*
X124009539Y-87553800D01*
X123894461Y-87553800D01*
X123781595Y-87576250D01*
X123675277Y-87620288D01*
X123638797Y-87644663D01*
X123638797Y-87643000D01*
X123632422Y-87578270D01*
X123613540Y-87516027D01*
X123582879Y-87458663D01*
X123541616Y-87408384D01*
X123491337Y-87367121D01*
X123433973Y-87336460D01*
X123371730Y-87317578D01*
X123307000Y-87311203D01*
X122057000Y-87311203D01*
X121992270Y-87317578D01*
X121930027Y-87336460D01*
X121872663Y-87367121D01*
X121822384Y-87408384D01*
X121781121Y-87458663D01*
X121750460Y-87516027D01*
X121731578Y-87578270D01*
X121725203Y-87643000D01*
X121386200Y-87643000D01*
X121386200Y-85643000D01*
X121425203Y-85643000D01*
X121425203Y-86823000D01*
X121431578Y-86887730D01*
X121450460Y-86949973D01*
X121481121Y-87007337D01*
X121522384Y-87057616D01*
X121572663Y-87098879D01*
X121630027Y-87129540D01*
X121692270Y-87148422D01*
X121757000Y-87154797D01*
X123607000Y-87154797D01*
X123671730Y-87148422D01*
X123733973Y-87129540D01*
X123791337Y-87098879D01*
X123841616Y-87057616D01*
X123882879Y-87007337D01*
X123913540Y-86949973D01*
X123932422Y-86887730D01*
X123938797Y-86823000D01*
X123938797Y-85643000D01*
X123932422Y-85578270D01*
X123913540Y-85516027D01*
X123882879Y-85458663D01*
X123841616Y-85408384D01*
X123791337Y-85367121D01*
X123733973Y-85336460D01*
X123671730Y-85317578D01*
X123607000Y-85311203D01*
X121757000Y-85311203D01*
X121692270Y-85317578D01*
X121630027Y-85336460D01*
X121572663Y-85367121D01*
X121522384Y-85408384D01*
X121481121Y-85458663D01*
X121450460Y-85516027D01*
X121431578Y-85578270D01*
X121425203Y-85643000D01*
X121386200Y-85643000D01*
X121386200Y-84549999D01*
X124952203Y-84549999D01*
X124952203Y-85075001D01*
X124963382Y-85188504D01*
X124996490Y-85297645D01*
X125050253Y-85398230D01*
X125122607Y-85486393D01*
X125210770Y-85558747D01*
X125311355Y-85612510D01*
X125420496Y-85645618D01*
X125533999Y-85656797D01*
X126434001Y-85656797D01*
X126547504Y-85645618D01*
X126656645Y-85612510D01*
X126757230Y-85558747D01*
X126845393Y-85486393D01*
X126917747Y-85398230D01*
X126971510Y-85297645D01*
X127004618Y-85188504D01*
X127015797Y-85075001D01*
X127015797Y-84549999D01*
X127004618Y-84436496D01*
X126971510Y-84327355D01*
X126917747Y-84226770D01*
X126845393Y-84138607D01*
X126757230Y-84066253D01*
X126656645Y-84012490D01*
X126547504Y-83979382D01*
X126434001Y-83968203D01*
X125533999Y-83968203D01*
X125420496Y-83979382D01*
X125311355Y-84012490D01*
X125210770Y-84066253D01*
X125122607Y-84138607D01*
X125050253Y-84226770D01*
X124996490Y-84327355D01*
X124963382Y-84436496D01*
X124952203Y-84549999D01*
X121386200Y-84549999D01*
X121386200Y-81805374D01*
X121412549Y-81536641D01*
X121485547Y-81294860D01*
X121604121Y-81071857D01*
X121763748Y-80876135D01*
X121958350Y-80715146D01*
X122180517Y-80595021D01*
X122421788Y-80520334D01*
X122689468Y-80492200D01*
X145651626Y-80492200D01*
X145920359Y-80518549D01*
G37*
%TD.AperFunction*%
%TD*%
M02*
