%TF.GenerationSoftware,KiCad,Pcbnew,(5.1.10)-1*%
%TF.CreationDate,2021-11-23T23:34:30+08:00*%
%TF.ProjectId,ST-Link_v2-1,53542d4c-696e-46b5-9f76-322d312e6b69,rev?*%
%TF.SameCoordinates,Original*%
%TF.FileFunction,Soldermask,Top*%
%TF.FilePolarity,Negative*%
%FSLAX46Y46*%
G04 Gerber Fmt 4.6, Leading zero omitted, Abs format (unit mm)*
G04 Created by KiCad (PCBNEW (5.1.10)-1) date 2021-11-23 23:34:30*
%MOMM*%
%LPD*%
G01*
G04 APERTURE LIST*
%ADD10R,1.850000X1.180000*%
%ADD11R,1.850000X0.300000*%
%ADD12R,1.250000X0.300000*%
G04 APERTURE END LIST*
%TO.C,R14*%
G36*
G01*
X184727000Y-108694000D02*
X185097000Y-108694000D01*
G75*
G02*
X185232000Y-108829000I0J-135000D01*
G01*
X185232000Y-109099000D01*
G75*
G02*
X185097000Y-109234000I-135000J0D01*
G01*
X184727000Y-109234000D01*
G75*
G02*
X184592000Y-109099000I0J135000D01*
G01*
X184592000Y-108829000D01*
G75*
G02*
X184727000Y-108694000I135000J0D01*
G01*
G37*
G36*
G01*
X184727000Y-109714000D02*
X185097000Y-109714000D01*
G75*
G02*
X185232000Y-109849000I0J-135000D01*
G01*
X185232000Y-110119000D01*
G75*
G02*
X185097000Y-110254000I-135000J0D01*
G01*
X184727000Y-110254000D01*
G75*
G02*
X184592000Y-110119000I0J135000D01*
G01*
X184592000Y-109849000D01*
G75*
G02*
X184727000Y-109714000I135000J0D01*
G01*
G37*
%TD*%
%TO.C,U1*%
G36*
G01*
X183970000Y-113927000D02*
X183970000Y-114077000D01*
G75*
G02*
X183895000Y-114152000I-75000J0D01*
G01*
X182570000Y-114152000D01*
G75*
G02*
X182495000Y-114077000I0J75000D01*
G01*
X182495000Y-113927000D01*
G75*
G02*
X182570000Y-113852000I75000J0D01*
G01*
X183895000Y-113852000D01*
G75*
G02*
X183970000Y-113927000I0J-75000D01*
G01*
G37*
G36*
G01*
X183970000Y-113427000D02*
X183970000Y-113577000D01*
G75*
G02*
X183895000Y-113652000I-75000J0D01*
G01*
X182570000Y-113652000D01*
G75*
G02*
X182495000Y-113577000I0J75000D01*
G01*
X182495000Y-113427000D01*
G75*
G02*
X182570000Y-113352000I75000J0D01*
G01*
X183895000Y-113352000D01*
G75*
G02*
X183970000Y-113427000I0J-75000D01*
G01*
G37*
G36*
G01*
X183970000Y-112927000D02*
X183970000Y-113077000D01*
G75*
G02*
X183895000Y-113152000I-75000J0D01*
G01*
X182570000Y-113152000D01*
G75*
G02*
X182495000Y-113077000I0J75000D01*
G01*
X182495000Y-112927000D01*
G75*
G02*
X182570000Y-112852000I75000J0D01*
G01*
X183895000Y-112852000D01*
G75*
G02*
X183970000Y-112927000I0J-75000D01*
G01*
G37*
G36*
G01*
X183970000Y-112427000D02*
X183970000Y-112577000D01*
G75*
G02*
X183895000Y-112652000I-75000J0D01*
G01*
X182570000Y-112652000D01*
G75*
G02*
X182495000Y-112577000I0J75000D01*
G01*
X182495000Y-112427000D01*
G75*
G02*
X182570000Y-112352000I75000J0D01*
G01*
X183895000Y-112352000D01*
G75*
G02*
X183970000Y-112427000I0J-75000D01*
G01*
G37*
G36*
G01*
X183970000Y-111927000D02*
X183970000Y-112077000D01*
G75*
G02*
X183895000Y-112152000I-75000J0D01*
G01*
X182570000Y-112152000D01*
G75*
G02*
X182495000Y-112077000I0J75000D01*
G01*
X182495000Y-111927000D01*
G75*
G02*
X182570000Y-111852000I75000J0D01*
G01*
X183895000Y-111852000D01*
G75*
G02*
X183970000Y-111927000I0J-75000D01*
G01*
G37*
G36*
G01*
X183970000Y-111427000D02*
X183970000Y-111577000D01*
G75*
G02*
X183895000Y-111652000I-75000J0D01*
G01*
X182570000Y-111652000D01*
G75*
G02*
X182495000Y-111577000I0J75000D01*
G01*
X182495000Y-111427000D01*
G75*
G02*
X182570000Y-111352000I75000J0D01*
G01*
X183895000Y-111352000D01*
G75*
G02*
X183970000Y-111427000I0J-75000D01*
G01*
G37*
G36*
G01*
X183970000Y-110927000D02*
X183970000Y-111077000D01*
G75*
G02*
X183895000Y-111152000I-75000J0D01*
G01*
X182570000Y-111152000D01*
G75*
G02*
X182495000Y-111077000I0J75000D01*
G01*
X182495000Y-110927000D01*
G75*
G02*
X182570000Y-110852000I75000J0D01*
G01*
X183895000Y-110852000D01*
G75*
G02*
X183970000Y-110927000I0J-75000D01*
G01*
G37*
G36*
G01*
X183970000Y-110427000D02*
X183970000Y-110577000D01*
G75*
G02*
X183895000Y-110652000I-75000J0D01*
G01*
X182570000Y-110652000D01*
G75*
G02*
X182495000Y-110577000I0J75000D01*
G01*
X182495000Y-110427000D01*
G75*
G02*
X182570000Y-110352000I75000J0D01*
G01*
X183895000Y-110352000D01*
G75*
G02*
X183970000Y-110427000I0J-75000D01*
G01*
G37*
G36*
G01*
X183970000Y-109927000D02*
X183970000Y-110077000D01*
G75*
G02*
X183895000Y-110152000I-75000J0D01*
G01*
X182570000Y-110152000D01*
G75*
G02*
X182495000Y-110077000I0J75000D01*
G01*
X182495000Y-109927000D01*
G75*
G02*
X182570000Y-109852000I75000J0D01*
G01*
X183895000Y-109852000D01*
G75*
G02*
X183970000Y-109927000I0J-75000D01*
G01*
G37*
G36*
G01*
X183970000Y-109427000D02*
X183970000Y-109577000D01*
G75*
G02*
X183895000Y-109652000I-75000J0D01*
G01*
X182570000Y-109652000D01*
G75*
G02*
X182495000Y-109577000I0J75000D01*
G01*
X182495000Y-109427000D01*
G75*
G02*
X182570000Y-109352000I75000J0D01*
G01*
X183895000Y-109352000D01*
G75*
G02*
X183970000Y-109427000I0J-75000D01*
G01*
G37*
G36*
G01*
X183970000Y-108927000D02*
X183970000Y-109077000D01*
G75*
G02*
X183895000Y-109152000I-75000J0D01*
G01*
X182570000Y-109152000D01*
G75*
G02*
X182495000Y-109077000I0J75000D01*
G01*
X182495000Y-108927000D01*
G75*
G02*
X182570000Y-108852000I75000J0D01*
G01*
X183895000Y-108852000D01*
G75*
G02*
X183970000Y-108927000I0J-75000D01*
G01*
G37*
G36*
G01*
X183970000Y-108427000D02*
X183970000Y-108577000D01*
G75*
G02*
X183895000Y-108652000I-75000J0D01*
G01*
X182570000Y-108652000D01*
G75*
G02*
X182495000Y-108577000I0J75000D01*
G01*
X182495000Y-108427000D01*
G75*
G02*
X182570000Y-108352000I75000J0D01*
G01*
X183895000Y-108352000D01*
G75*
G02*
X183970000Y-108427000I0J-75000D01*
G01*
G37*
G36*
G01*
X181970000Y-106427000D02*
X181970000Y-107752000D01*
G75*
G02*
X181895000Y-107827000I-75000J0D01*
G01*
X181745000Y-107827000D01*
G75*
G02*
X181670000Y-107752000I0J75000D01*
G01*
X181670000Y-106427000D01*
G75*
G02*
X181745000Y-106352000I75000J0D01*
G01*
X181895000Y-106352000D01*
G75*
G02*
X181970000Y-106427000I0J-75000D01*
G01*
G37*
G36*
G01*
X181470000Y-106427000D02*
X181470000Y-107752000D01*
G75*
G02*
X181395000Y-107827000I-75000J0D01*
G01*
X181245000Y-107827000D01*
G75*
G02*
X181170000Y-107752000I0J75000D01*
G01*
X181170000Y-106427000D01*
G75*
G02*
X181245000Y-106352000I75000J0D01*
G01*
X181395000Y-106352000D01*
G75*
G02*
X181470000Y-106427000I0J-75000D01*
G01*
G37*
G36*
G01*
X180970000Y-106427000D02*
X180970000Y-107752000D01*
G75*
G02*
X180895000Y-107827000I-75000J0D01*
G01*
X180745000Y-107827000D01*
G75*
G02*
X180670000Y-107752000I0J75000D01*
G01*
X180670000Y-106427000D01*
G75*
G02*
X180745000Y-106352000I75000J0D01*
G01*
X180895000Y-106352000D01*
G75*
G02*
X180970000Y-106427000I0J-75000D01*
G01*
G37*
G36*
G01*
X180470000Y-106427000D02*
X180470000Y-107752000D01*
G75*
G02*
X180395000Y-107827000I-75000J0D01*
G01*
X180245000Y-107827000D01*
G75*
G02*
X180170000Y-107752000I0J75000D01*
G01*
X180170000Y-106427000D01*
G75*
G02*
X180245000Y-106352000I75000J0D01*
G01*
X180395000Y-106352000D01*
G75*
G02*
X180470000Y-106427000I0J-75000D01*
G01*
G37*
G36*
G01*
X179970000Y-106427000D02*
X179970000Y-107752000D01*
G75*
G02*
X179895000Y-107827000I-75000J0D01*
G01*
X179745000Y-107827000D01*
G75*
G02*
X179670000Y-107752000I0J75000D01*
G01*
X179670000Y-106427000D01*
G75*
G02*
X179745000Y-106352000I75000J0D01*
G01*
X179895000Y-106352000D01*
G75*
G02*
X179970000Y-106427000I0J-75000D01*
G01*
G37*
G36*
G01*
X179470000Y-106427000D02*
X179470000Y-107752000D01*
G75*
G02*
X179395000Y-107827000I-75000J0D01*
G01*
X179245000Y-107827000D01*
G75*
G02*
X179170000Y-107752000I0J75000D01*
G01*
X179170000Y-106427000D01*
G75*
G02*
X179245000Y-106352000I75000J0D01*
G01*
X179395000Y-106352000D01*
G75*
G02*
X179470000Y-106427000I0J-75000D01*
G01*
G37*
G36*
G01*
X178970000Y-106427000D02*
X178970000Y-107752000D01*
G75*
G02*
X178895000Y-107827000I-75000J0D01*
G01*
X178745000Y-107827000D01*
G75*
G02*
X178670000Y-107752000I0J75000D01*
G01*
X178670000Y-106427000D01*
G75*
G02*
X178745000Y-106352000I75000J0D01*
G01*
X178895000Y-106352000D01*
G75*
G02*
X178970000Y-106427000I0J-75000D01*
G01*
G37*
G36*
G01*
X178470000Y-106427000D02*
X178470000Y-107752000D01*
G75*
G02*
X178395000Y-107827000I-75000J0D01*
G01*
X178245000Y-107827000D01*
G75*
G02*
X178170000Y-107752000I0J75000D01*
G01*
X178170000Y-106427000D01*
G75*
G02*
X178245000Y-106352000I75000J0D01*
G01*
X178395000Y-106352000D01*
G75*
G02*
X178470000Y-106427000I0J-75000D01*
G01*
G37*
G36*
G01*
X177970000Y-106427000D02*
X177970000Y-107752000D01*
G75*
G02*
X177895000Y-107827000I-75000J0D01*
G01*
X177745000Y-107827000D01*
G75*
G02*
X177670000Y-107752000I0J75000D01*
G01*
X177670000Y-106427000D01*
G75*
G02*
X177745000Y-106352000I75000J0D01*
G01*
X177895000Y-106352000D01*
G75*
G02*
X177970000Y-106427000I0J-75000D01*
G01*
G37*
G36*
G01*
X177470000Y-106427000D02*
X177470000Y-107752000D01*
G75*
G02*
X177395000Y-107827000I-75000J0D01*
G01*
X177245000Y-107827000D01*
G75*
G02*
X177170000Y-107752000I0J75000D01*
G01*
X177170000Y-106427000D01*
G75*
G02*
X177245000Y-106352000I75000J0D01*
G01*
X177395000Y-106352000D01*
G75*
G02*
X177470000Y-106427000I0J-75000D01*
G01*
G37*
G36*
G01*
X176970000Y-106427000D02*
X176970000Y-107752000D01*
G75*
G02*
X176895000Y-107827000I-75000J0D01*
G01*
X176745000Y-107827000D01*
G75*
G02*
X176670000Y-107752000I0J75000D01*
G01*
X176670000Y-106427000D01*
G75*
G02*
X176745000Y-106352000I75000J0D01*
G01*
X176895000Y-106352000D01*
G75*
G02*
X176970000Y-106427000I0J-75000D01*
G01*
G37*
G36*
G01*
X176470000Y-106427000D02*
X176470000Y-107752000D01*
G75*
G02*
X176395000Y-107827000I-75000J0D01*
G01*
X176245000Y-107827000D01*
G75*
G02*
X176170000Y-107752000I0J75000D01*
G01*
X176170000Y-106427000D01*
G75*
G02*
X176245000Y-106352000I75000J0D01*
G01*
X176395000Y-106352000D01*
G75*
G02*
X176470000Y-106427000I0J-75000D01*
G01*
G37*
G36*
G01*
X175645000Y-108427000D02*
X175645000Y-108577000D01*
G75*
G02*
X175570000Y-108652000I-75000J0D01*
G01*
X174245000Y-108652000D01*
G75*
G02*
X174170000Y-108577000I0J75000D01*
G01*
X174170000Y-108427000D01*
G75*
G02*
X174245000Y-108352000I75000J0D01*
G01*
X175570000Y-108352000D01*
G75*
G02*
X175645000Y-108427000I0J-75000D01*
G01*
G37*
G36*
G01*
X175645000Y-108927000D02*
X175645000Y-109077000D01*
G75*
G02*
X175570000Y-109152000I-75000J0D01*
G01*
X174245000Y-109152000D01*
G75*
G02*
X174170000Y-109077000I0J75000D01*
G01*
X174170000Y-108927000D01*
G75*
G02*
X174245000Y-108852000I75000J0D01*
G01*
X175570000Y-108852000D01*
G75*
G02*
X175645000Y-108927000I0J-75000D01*
G01*
G37*
G36*
G01*
X175645000Y-109427000D02*
X175645000Y-109577000D01*
G75*
G02*
X175570000Y-109652000I-75000J0D01*
G01*
X174245000Y-109652000D01*
G75*
G02*
X174170000Y-109577000I0J75000D01*
G01*
X174170000Y-109427000D01*
G75*
G02*
X174245000Y-109352000I75000J0D01*
G01*
X175570000Y-109352000D01*
G75*
G02*
X175645000Y-109427000I0J-75000D01*
G01*
G37*
G36*
G01*
X175645000Y-109927000D02*
X175645000Y-110077000D01*
G75*
G02*
X175570000Y-110152000I-75000J0D01*
G01*
X174245000Y-110152000D01*
G75*
G02*
X174170000Y-110077000I0J75000D01*
G01*
X174170000Y-109927000D01*
G75*
G02*
X174245000Y-109852000I75000J0D01*
G01*
X175570000Y-109852000D01*
G75*
G02*
X175645000Y-109927000I0J-75000D01*
G01*
G37*
G36*
G01*
X175645000Y-110427000D02*
X175645000Y-110577000D01*
G75*
G02*
X175570000Y-110652000I-75000J0D01*
G01*
X174245000Y-110652000D01*
G75*
G02*
X174170000Y-110577000I0J75000D01*
G01*
X174170000Y-110427000D01*
G75*
G02*
X174245000Y-110352000I75000J0D01*
G01*
X175570000Y-110352000D01*
G75*
G02*
X175645000Y-110427000I0J-75000D01*
G01*
G37*
G36*
G01*
X175645000Y-110927000D02*
X175645000Y-111077000D01*
G75*
G02*
X175570000Y-111152000I-75000J0D01*
G01*
X174245000Y-111152000D01*
G75*
G02*
X174170000Y-111077000I0J75000D01*
G01*
X174170000Y-110927000D01*
G75*
G02*
X174245000Y-110852000I75000J0D01*
G01*
X175570000Y-110852000D01*
G75*
G02*
X175645000Y-110927000I0J-75000D01*
G01*
G37*
G36*
G01*
X175645000Y-111427000D02*
X175645000Y-111577000D01*
G75*
G02*
X175570000Y-111652000I-75000J0D01*
G01*
X174245000Y-111652000D01*
G75*
G02*
X174170000Y-111577000I0J75000D01*
G01*
X174170000Y-111427000D01*
G75*
G02*
X174245000Y-111352000I75000J0D01*
G01*
X175570000Y-111352000D01*
G75*
G02*
X175645000Y-111427000I0J-75000D01*
G01*
G37*
G36*
G01*
X175645000Y-111927000D02*
X175645000Y-112077000D01*
G75*
G02*
X175570000Y-112152000I-75000J0D01*
G01*
X174245000Y-112152000D01*
G75*
G02*
X174170000Y-112077000I0J75000D01*
G01*
X174170000Y-111927000D01*
G75*
G02*
X174245000Y-111852000I75000J0D01*
G01*
X175570000Y-111852000D01*
G75*
G02*
X175645000Y-111927000I0J-75000D01*
G01*
G37*
G36*
G01*
X175645000Y-112427000D02*
X175645000Y-112577000D01*
G75*
G02*
X175570000Y-112652000I-75000J0D01*
G01*
X174245000Y-112652000D01*
G75*
G02*
X174170000Y-112577000I0J75000D01*
G01*
X174170000Y-112427000D01*
G75*
G02*
X174245000Y-112352000I75000J0D01*
G01*
X175570000Y-112352000D01*
G75*
G02*
X175645000Y-112427000I0J-75000D01*
G01*
G37*
G36*
G01*
X175645000Y-112927000D02*
X175645000Y-113077000D01*
G75*
G02*
X175570000Y-113152000I-75000J0D01*
G01*
X174245000Y-113152000D01*
G75*
G02*
X174170000Y-113077000I0J75000D01*
G01*
X174170000Y-112927000D01*
G75*
G02*
X174245000Y-112852000I75000J0D01*
G01*
X175570000Y-112852000D01*
G75*
G02*
X175645000Y-112927000I0J-75000D01*
G01*
G37*
G36*
G01*
X175645000Y-113427000D02*
X175645000Y-113577000D01*
G75*
G02*
X175570000Y-113652000I-75000J0D01*
G01*
X174245000Y-113652000D01*
G75*
G02*
X174170000Y-113577000I0J75000D01*
G01*
X174170000Y-113427000D01*
G75*
G02*
X174245000Y-113352000I75000J0D01*
G01*
X175570000Y-113352000D01*
G75*
G02*
X175645000Y-113427000I0J-75000D01*
G01*
G37*
G36*
G01*
X175645000Y-113927000D02*
X175645000Y-114077000D01*
G75*
G02*
X175570000Y-114152000I-75000J0D01*
G01*
X174245000Y-114152000D01*
G75*
G02*
X174170000Y-114077000I0J75000D01*
G01*
X174170000Y-113927000D01*
G75*
G02*
X174245000Y-113852000I75000J0D01*
G01*
X175570000Y-113852000D01*
G75*
G02*
X175645000Y-113927000I0J-75000D01*
G01*
G37*
G36*
G01*
X176470000Y-114752000D02*
X176470000Y-116077000D01*
G75*
G02*
X176395000Y-116152000I-75000J0D01*
G01*
X176245000Y-116152000D01*
G75*
G02*
X176170000Y-116077000I0J75000D01*
G01*
X176170000Y-114752000D01*
G75*
G02*
X176245000Y-114677000I75000J0D01*
G01*
X176395000Y-114677000D01*
G75*
G02*
X176470000Y-114752000I0J-75000D01*
G01*
G37*
G36*
G01*
X176970000Y-114752000D02*
X176970000Y-116077000D01*
G75*
G02*
X176895000Y-116152000I-75000J0D01*
G01*
X176745000Y-116152000D01*
G75*
G02*
X176670000Y-116077000I0J75000D01*
G01*
X176670000Y-114752000D01*
G75*
G02*
X176745000Y-114677000I75000J0D01*
G01*
X176895000Y-114677000D01*
G75*
G02*
X176970000Y-114752000I0J-75000D01*
G01*
G37*
G36*
G01*
X177470000Y-114752000D02*
X177470000Y-116077000D01*
G75*
G02*
X177395000Y-116152000I-75000J0D01*
G01*
X177245000Y-116152000D01*
G75*
G02*
X177170000Y-116077000I0J75000D01*
G01*
X177170000Y-114752000D01*
G75*
G02*
X177245000Y-114677000I75000J0D01*
G01*
X177395000Y-114677000D01*
G75*
G02*
X177470000Y-114752000I0J-75000D01*
G01*
G37*
G36*
G01*
X177970000Y-114752000D02*
X177970000Y-116077000D01*
G75*
G02*
X177895000Y-116152000I-75000J0D01*
G01*
X177745000Y-116152000D01*
G75*
G02*
X177670000Y-116077000I0J75000D01*
G01*
X177670000Y-114752000D01*
G75*
G02*
X177745000Y-114677000I75000J0D01*
G01*
X177895000Y-114677000D01*
G75*
G02*
X177970000Y-114752000I0J-75000D01*
G01*
G37*
G36*
G01*
X178470000Y-114752000D02*
X178470000Y-116077000D01*
G75*
G02*
X178395000Y-116152000I-75000J0D01*
G01*
X178245000Y-116152000D01*
G75*
G02*
X178170000Y-116077000I0J75000D01*
G01*
X178170000Y-114752000D01*
G75*
G02*
X178245000Y-114677000I75000J0D01*
G01*
X178395000Y-114677000D01*
G75*
G02*
X178470000Y-114752000I0J-75000D01*
G01*
G37*
G36*
G01*
X178970000Y-114752000D02*
X178970000Y-116077000D01*
G75*
G02*
X178895000Y-116152000I-75000J0D01*
G01*
X178745000Y-116152000D01*
G75*
G02*
X178670000Y-116077000I0J75000D01*
G01*
X178670000Y-114752000D01*
G75*
G02*
X178745000Y-114677000I75000J0D01*
G01*
X178895000Y-114677000D01*
G75*
G02*
X178970000Y-114752000I0J-75000D01*
G01*
G37*
G36*
G01*
X179470000Y-114752000D02*
X179470000Y-116077000D01*
G75*
G02*
X179395000Y-116152000I-75000J0D01*
G01*
X179245000Y-116152000D01*
G75*
G02*
X179170000Y-116077000I0J75000D01*
G01*
X179170000Y-114752000D01*
G75*
G02*
X179245000Y-114677000I75000J0D01*
G01*
X179395000Y-114677000D01*
G75*
G02*
X179470000Y-114752000I0J-75000D01*
G01*
G37*
G36*
G01*
X179970000Y-114752000D02*
X179970000Y-116077000D01*
G75*
G02*
X179895000Y-116152000I-75000J0D01*
G01*
X179745000Y-116152000D01*
G75*
G02*
X179670000Y-116077000I0J75000D01*
G01*
X179670000Y-114752000D01*
G75*
G02*
X179745000Y-114677000I75000J0D01*
G01*
X179895000Y-114677000D01*
G75*
G02*
X179970000Y-114752000I0J-75000D01*
G01*
G37*
G36*
G01*
X180470000Y-114752000D02*
X180470000Y-116077000D01*
G75*
G02*
X180395000Y-116152000I-75000J0D01*
G01*
X180245000Y-116152000D01*
G75*
G02*
X180170000Y-116077000I0J75000D01*
G01*
X180170000Y-114752000D01*
G75*
G02*
X180245000Y-114677000I75000J0D01*
G01*
X180395000Y-114677000D01*
G75*
G02*
X180470000Y-114752000I0J-75000D01*
G01*
G37*
G36*
G01*
X180970000Y-114752000D02*
X180970000Y-116077000D01*
G75*
G02*
X180895000Y-116152000I-75000J0D01*
G01*
X180745000Y-116152000D01*
G75*
G02*
X180670000Y-116077000I0J75000D01*
G01*
X180670000Y-114752000D01*
G75*
G02*
X180745000Y-114677000I75000J0D01*
G01*
X180895000Y-114677000D01*
G75*
G02*
X180970000Y-114752000I0J-75000D01*
G01*
G37*
G36*
G01*
X181470000Y-114752000D02*
X181470000Y-116077000D01*
G75*
G02*
X181395000Y-116152000I-75000J0D01*
G01*
X181245000Y-116152000D01*
G75*
G02*
X181170000Y-116077000I0J75000D01*
G01*
X181170000Y-114752000D01*
G75*
G02*
X181245000Y-114677000I75000J0D01*
G01*
X181395000Y-114677000D01*
G75*
G02*
X181470000Y-114752000I0J-75000D01*
G01*
G37*
G36*
G01*
X181970000Y-114752000D02*
X181970000Y-116077000D01*
G75*
G02*
X181895000Y-116152000I-75000J0D01*
G01*
X181745000Y-116152000D01*
G75*
G02*
X181670000Y-116077000I0J75000D01*
G01*
X181670000Y-114752000D01*
G75*
G02*
X181745000Y-114677000I75000J0D01*
G01*
X181895000Y-114677000D01*
G75*
G02*
X181970000Y-114752000I0J-75000D01*
G01*
G37*
%TD*%
%TO.C,R18*%
G36*
G01*
X171686000Y-112453000D02*
X171686000Y-112083000D01*
G75*
G02*
X171821000Y-111948000I135000J0D01*
G01*
X172091000Y-111948000D01*
G75*
G02*
X172226000Y-112083000I0J-135000D01*
G01*
X172226000Y-112453000D01*
G75*
G02*
X172091000Y-112588000I-135000J0D01*
G01*
X171821000Y-112588000D01*
G75*
G02*
X171686000Y-112453000I0J135000D01*
G01*
G37*
G36*
G01*
X172706000Y-112453000D02*
X172706000Y-112083000D01*
G75*
G02*
X172841000Y-111948000I135000J0D01*
G01*
X173111000Y-111948000D01*
G75*
G02*
X173246000Y-112083000I0J-135000D01*
G01*
X173246000Y-112453000D01*
G75*
G02*
X173111000Y-112588000I-135000J0D01*
G01*
X172841000Y-112588000D01*
G75*
G02*
X172706000Y-112453000I0J135000D01*
G01*
G37*
%TD*%
%TO.C,R17*%
G36*
G01*
X171688000Y-111437000D02*
X171688000Y-111067000D01*
G75*
G02*
X171823000Y-110932000I135000J0D01*
G01*
X172093000Y-110932000D01*
G75*
G02*
X172228000Y-111067000I0J-135000D01*
G01*
X172228000Y-111437000D01*
G75*
G02*
X172093000Y-111572000I-135000J0D01*
G01*
X171823000Y-111572000D01*
G75*
G02*
X171688000Y-111437000I0J135000D01*
G01*
G37*
G36*
G01*
X172708000Y-111437000D02*
X172708000Y-111067000D01*
G75*
G02*
X172843000Y-110932000I135000J0D01*
G01*
X173113000Y-110932000D01*
G75*
G02*
X173248000Y-111067000I0J-135000D01*
G01*
X173248000Y-111437000D01*
G75*
G02*
X173113000Y-111572000I-135000J0D01*
G01*
X172843000Y-111572000D01*
G75*
G02*
X172708000Y-111437000I0J135000D01*
G01*
G37*
%TD*%
%TO.C,R12*%
G36*
G01*
X172143000Y-110506000D02*
X171773000Y-110506000D01*
G75*
G02*
X171638000Y-110371000I0J135000D01*
G01*
X171638000Y-110101000D01*
G75*
G02*
X171773000Y-109966000I135000J0D01*
G01*
X172143000Y-109966000D01*
G75*
G02*
X172278000Y-110101000I0J-135000D01*
G01*
X172278000Y-110371000D01*
G75*
G02*
X172143000Y-110506000I-135000J0D01*
G01*
G37*
G36*
G01*
X172143000Y-109486000D02*
X171773000Y-109486000D01*
G75*
G02*
X171638000Y-109351000I0J135000D01*
G01*
X171638000Y-109081000D01*
G75*
G02*
X171773000Y-108946000I135000J0D01*
G01*
X172143000Y-108946000D01*
G75*
G02*
X172278000Y-109081000I0J-135000D01*
G01*
X172278000Y-109351000D01*
G75*
G02*
X172143000Y-109486000I-135000J0D01*
G01*
G37*
%TD*%
%TO.C,R11*%
G36*
G01*
X172789000Y-108948000D02*
X173159000Y-108948000D01*
G75*
G02*
X173294000Y-109083000I0J-135000D01*
G01*
X173294000Y-109353000D01*
G75*
G02*
X173159000Y-109488000I-135000J0D01*
G01*
X172789000Y-109488000D01*
G75*
G02*
X172654000Y-109353000I0J135000D01*
G01*
X172654000Y-109083000D01*
G75*
G02*
X172789000Y-108948000I135000J0D01*
G01*
G37*
G36*
G01*
X172789000Y-109968000D02*
X173159000Y-109968000D01*
G75*
G02*
X173294000Y-110103000I0J-135000D01*
G01*
X173294000Y-110373000D01*
G75*
G02*
X173159000Y-110508000I-135000J0D01*
G01*
X172789000Y-110508000D01*
G75*
G02*
X172654000Y-110373000I0J135000D01*
G01*
X172654000Y-110103000D01*
G75*
G02*
X172789000Y-109968000I135000J0D01*
G01*
G37*
%TD*%
%TO.C,R10*%
G36*
G01*
X185097000Y-112540000D02*
X184727000Y-112540000D01*
G75*
G02*
X184592000Y-112405000I0J135000D01*
G01*
X184592000Y-112135000D01*
G75*
G02*
X184727000Y-112000000I135000J0D01*
G01*
X185097000Y-112000000D01*
G75*
G02*
X185232000Y-112135000I0J-135000D01*
G01*
X185232000Y-112405000D01*
G75*
G02*
X185097000Y-112540000I-135000J0D01*
G01*
G37*
G36*
G01*
X185097000Y-111520000D02*
X184727000Y-111520000D01*
G75*
G02*
X184592000Y-111385000I0J135000D01*
G01*
X184592000Y-111115000D01*
G75*
G02*
X184727000Y-110980000I135000J0D01*
G01*
X185097000Y-110980000D01*
G75*
G02*
X185232000Y-111115000I0J-135000D01*
G01*
X185232000Y-111385000D01*
G75*
G02*
X185097000Y-111520000I-135000J0D01*
G01*
G37*
%TD*%
%TO.C,R9*%
G36*
G01*
X184727000Y-113520000D02*
X185097000Y-113520000D01*
G75*
G02*
X185232000Y-113655000I0J-135000D01*
G01*
X185232000Y-113925000D01*
G75*
G02*
X185097000Y-114060000I-135000J0D01*
G01*
X184727000Y-114060000D01*
G75*
G02*
X184592000Y-113925000I0J135000D01*
G01*
X184592000Y-113655000D01*
G75*
G02*
X184727000Y-113520000I135000J0D01*
G01*
G37*
G36*
G01*
X184727000Y-114540000D02*
X185097000Y-114540000D01*
G75*
G02*
X185232000Y-114675000I0J-135000D01*
G01*
X185232000Y-114945000D01*
G75*
G02*
X185097000Y-115080000I-135000J0D01*
G01*
X184727000Y-115080000D01*
G75*
G02*
X184592000Y-114945000I0J135000D01*
G01*
X184592000Y-114675000D01*
G75*
G02*
X184727000Y-114540000I135000J0D01*
G01*
G37*
%TD*%
D10*
%TO.C,J2*%
X170053000Y-115273000D03*
X170053000Y-107993000D03*
D11*
X170053000Y-114383000D03*
D12*
X170053000Y-113883000D03*
X170053000Y-113383000D03*
X170053000Y-112883000D03*
X170053000Y-112383000D03*
X170053000Y-111883000D03*
X170053000Y-111383000D03*
X170053000Y-110883000D03*
X170053000Y-110383000D03*
X170053000Y-109883000D03*
X170053000Y-109383000D03*
D11*
X170053000Y-108883000D03*
%TD*%
%TO.C,J1*%
G36*
G01*
X187572000Y-114804000D02*
X186172000Y-114804000D01*
G75*
G02*
X186022000Y-114654000I0J150000D01*
G01*
X186022000Y-114354000D01*
G75*
G02*
X186172000Y-114204000I150000J0D01*
G01*
X187572000Y-114204000D01*
G75*
G02*
X187722000Y-114354000I0J-150000D01*
G01*
X187722000Y-114654000D01*
G75*
G02*
X187572000Y-114804000I-150000J0D01*
G01*
G37*
G36*
G01*
X187572000Y-113554000D02*
X186172000Y-113554000D01*
G75*
G02*
X186022000Y-113404000I0J150000D01*
G01*
X186022000Y-113104000D01*
G75*
G02*
X186172000Y-112954000I150000J0D01*
G01*
X187572000Y-112954000D01*
G75*
G02*
X187722000Y-113104000I0J-150000D01*
G01*
X187722000Y-113404000D01*
G75*
G02*
X187572000Y-113554000I-150000J0D01*
G01*
G37*
G36*
G01*
X187572000Y-112304000D02*
X186172000Y-112304000D01*
G75*
G02*
X186022000Y-112154000I0J150000D01*
G01*
X186022000Y-111854000D01*
G75*
G02*
X186172000Y-111704000I150000J0D01*
G01*
X187572000Y-111704000D01*
G75*
G02*
X187722000Y-111854000I0J-150000D01*
G01*
X187722000Y-112154000D01*
G75*
G02*
X187572000Y-112304000I-150000J0D01*
G01*
G37*
G36*
G01*
X187572000Y-111054000D02*
X186172000Y-111054000D01*
G75*
G02*
X186022000Y-110904000I0J150000D01*
G01*
X186022000Y-110604000D01*
G75*
G02*
X186172000Y-110454000I150000J0D01*
G01*
X187572000Y-110454000D01*
G75*
G02*
X187722000Y-110604000I0J-150000D01*
G01*
X187722000Y-110904000D01*
G75*
G02*
X187572000Y-111054000I-150000J0D01*
G01*
G37*
G36*
G01*
X187572000Y-109804000D02*
X186172000Y-109804000D01*
G75*
G02*
X186022000Y-109654000I0J150000D01*
G01*
X186022000Y-109354000D01*
G75*
G02*
X186172000Y-109204000I150000J0D01*
G01*
X187572000Y-109204000D01*
G75*
G02*
X187722000Y-109354000I0J-150000D01*
G01*
X187722000Y-109654000D01*
G75*
G02*
X187572000Y-109804000I-150000J0D01*
G01*
G37*
G36*
G01*
X187572000Y-108554000D02*
X186172000Y-108554000D01*
G75*
G02*
X186022000Y-108404000I0J150000D01*
G01*
X186022000Y-108104000D01*
G75*
G02*
X186172000Y-107954000I150000J0D01*
G01*
X187572000Y-107954000D01*
G75*
G02*
X187722000Y-108104000I0J-150000D01*
G01*
X187722000Y-108404000D01*
G75*
G02*
X187572000Y-108554000I-150000J0D01*
G01*
G37*
G36*
G01*
X191172000Y-116854000D02*
X188972000Y-116854000D01*
G75*
G02*
X188722000Y-116604000I0J250000D01*
G01*
X188722000Y-116104000D01*
G75*
G02*
X188972000Y-115854000I250000J0D01*
G01*
X191172000Y-115854000D01*
G75*
G02*
X191422000Y-116104000I0J-250000D01*
G01*
X191422000Y-116604000D01*
G75*
G02*
X191172000Y-116854000I-250000J0D01*
G01*
G37*
G36*
G01*
X191172000Y-106904000D02*
X188972000Y-106904000D01*
G75*
G02*
X188722000Y-106654000I0J250000D01*
G01*
X188722000Y-106154000D01*
G75*
G02*
X188972000Y-105904000I250000J0D01*
G01*
X191172000Y-105904000D01*
G75*
G02*
X191422000Y-106154000I0J-250000D01*
G01*
X191422000Y-106654000D01*
G75*
G02*
X191172000Y-106904000I-250000J0D01*
G01*
G37*
%TD*%
%TO.C,D6*%
G36*
G01*
X183385673Y-116979375D02*
X183629625Y-117223327D01*
G75*
G02*
X183629625Y-117431923I-104298J-104298D01*
G01*
X183421029Y-117640519D01*
G75*
G02*
X183212433Y-117640519I-104298J104298D01*
G01*
X182968481Y-117396567D01*
G75*
G02*
X182968481Y-117187971I104298J104298D01*
G01*
X183177077Y-116979375D01*
G75*
G02*
X183385673Y-116979375I104298J-104298D01*
G01*
G37*
G36*
G01*
X184071567Y-116293481D02*
X184315519Y-116537433D01*
G75*
G02*
X184315519Y-116746029I-104298J-104298D01*
G01*
X184106923Y-116954625D01*
G75*
G02*
X183898327Y-116954625I-104298J104298D01*
G01*
X183654375Y-116710673D01*
G75*
G02*
X183654375Y-116502077I104298J104298D01*
G01*
X183862971Y-116293481D01*
G75*
G02*
X184071567Y-116293481I104298J-104298D01*
G01*
G37*
%TD*%
%TO.C,D5*%
G36*
G01*
X173179433Y-107607519D02*
X172935481Y-107363567D01*
G75*
G02*
X172935481Y-107154971I104298J104298D01*
G01*
X173144077Y-106946375D01*
G75*
G02*
X173352673Y-106946375I104298J-104298D01*
G01*
X173596625Y-107190327D01*
G75*
G02*
X173596625Y-107398923I-104298J-104298D01*
G01*
X173388029Y-107607519D01*
G75*
G02*
X173179433Y-107607519I-104298J104298D01*
G01*
G37*
G36*
G01*
X173865327Y-106921625D02*
X173621375Y-106677673D01*
G75*
G02*
X173621375Y-106469077I104298J104298D01*
G01*
X173829971Y-106260481D01*
G75*
G02*
X174038567Y-106260481I104298J-104298D01*
G01*
X174282519Y-106504433D01*
G75*
G02*
X174282519Y-106713029I-104298J-104298D01*
G01*
X174073923Y-106921625D01*
G75*
G02*
X173865327Y-106921625I-104298J104298D01*
G01*
G37*
%TD*%
%TO.C,D4*%
G36*
G01*
X173276567Y-105498481D02*
X173520519Y-105742433D01*
G75*
G02*
X173520519Y-105951029I-104298J-104298D01*
G01*
X173311923Y-106159625D01*
G75*
G02*
X173103327Y-106159625I-104298J104298D01*
G01*
X172859375Y-105915673D01*
G75*
G02*
X172859375Y-105707077I104298J104298D01*
G01*
X173067971Y-105498481D01*
G75*
G02*
X173276567Y-105498481I104298J-104298D01*
G01*
G37*
G36*
G01*
X172590673Y-106184375D02*
X172834625Y-106428327D01*
G75*
G02*
X172834625Y-106636923I-104298J-104298D01*
G01*
X172626029Y-106845519D01*
G75*
G02*
X172417433Y-106845519I-104298J104298D01*
G01*
X172173481Y-106601567D01*
G75*
G02*
X172173481Y-106392971I104298J104298D01*
G01*
X172382077Y-106184375D01*
G75*
G02*
X172590673Y-106184375I104298J-104298D01*
G01*
G37*
%TD*%
%TO.C,D3*%
G36*
G01*
X184676000Y-105872500D02*
X184676000Y-106217500D01*
G75*
G02*
X184528500Y-106365000I-147500J0D01*
G01*
X184233500Y-106365000D01*
G75*
G02*
X184086000Y-106217500I0J147500D01*
G01*
X184086000Y-105872500D01*
G75*
G02*
X184233500Y-105725000I147500J0D01*
G01*
X184528500Y-105725000D01*
G75*
G02*
X184676000Y-105872500I0J-147500D01*
G01*
G37*
G36*
G01*
X183706000Y-105872500D02*
X183706000Y-106217500D01*
G75*
G02*
X183558500Y-106365000I-147500J0D01*
G01*
X183263500Y-106365000D01*
G75*
G02*
X183116000Y-106217500I0J147500D01*
G01*
X183116000Y-105872500D01*
G75*
G02*
X183263500Y-105725000I147500J0D01*
G01*
X183558500Y-105725000D01*
G75*
G02*
X183706000Y-105872500I0J-147500D01*
G01*
G37*
%TD*%
%TO.C,D2*%
G36*
G01*
X184676000Y-106888500D02*
X184676000Y-107233500D01*
G75*
G02*
X184528500Y-107381000I-147500J0D01*
G01*
X184233500Y-107381000D01*
G75*
G02*
X184086000Y-107233500I0J147500D01*
G01*
X184086000Y-106888500D01*
G75*
G02*
X184233500Y-106741000I147500J0D01*
G01*
X184528500Y-106741000D01*
G75*
G02*
X184676000Y-106888500I0J-147500D01*
G01*
G37*
G36*
G01*
X183706000Y-106888500D02*
X183706000Y-107233500D01*
G75*
G02*
X183558500Y-107381000I-147500J0D01*
G01*
X183263500Y-107381000D01*
G75*
G02*
X183116000Y-107233500I0J147500D01*
G01*
X183116000Y-106888500D01*
G75*
G02*
X183263500Y-106741000I147500J0D01*
G01*
X183558500Y-106741000D01*
G75*
G02*
X183706000Y-106888500I0J-147500D01*
G01*
G37*
%TD*%
%TO.C,D1*%
G36*
G01*
X173210000Y-117139500D02*
X173210000Y-116794500D01*
G75*
G02*
X173357500Y-116647000I147500J0D01*
G01*
X173652500Y-116647000D01*
G75*
G02*
X173800000Y-116794500I0J-147500D01*
G01*
X173800000Y-117139500D01*
G75*
G02*
X173652500Y-117287000I-147500J0D01*
G01*
X173357500Y-117287000D01*
G75*
G02*
X173210000Y-117139500I0J147500D01*
G01*
G37*
G36*
G01*
X174180000Y-117139500D02*
X174180000Y-116794500D01*
G75*
G02*
X174327500Y-116647000I147500J0D01*
G01*
X174622500Y-116647000D01*
G75*
G02*
X174770000Y-116794500I0J-147500D01*
G01*
X174770000Y-117139500D01*
G75*
G02*
X174622500Y-117287000I-147500J0D01*
G01*
X174327500Y-117287000D01*
G75*
G02*
X174180000Y-117139500I0J147500D01*
G01*
G37*
%TD*%
%TO.C,C9*%
G36*
G01*
X174722000Y-115400000D02*
X174722000Y-115740000D01*
G75*
G02*
X174582000Y-115880000I-140000J0D01*
G01*
X174302000Y-115880000D01*
G75*
G02*
X174162000Y-115740000I0J140000D01*
G01*
X174162000Y-115400000D01*
G75*
G02*
X174302000Y-115260000I140000J0D01*
G01*
X174582000Y-115260000D01*
G75*
G02*
X174722000Y-115400000I0J-140000D01*
G01*
G37*
G36*
G01*
X173762000Y-115400000D02*
X173762000Y-115740000D01*
G75*
G02*
X173622000Y-115880000I-140000J0D01*
G01*
X173342000Y-115880000D01*
G75*
G02*
X173202000Y-115740000I0J140000D01*
G01*
X173202000Y-115400000D01*
G75*
G02*
X173342000Y-115260000I140000J0D01*
G01*
X173622000Y-115260000D01*
G75*
G02*
X173762000Y-115400000I0J-140000D01*
G01*
G37*
%TD*%
%TO.C,C8*%
G36*
G01*
X171666000Y-113962000D02*
X171666000Y-113622000D01*
G75*
G02*
X171806000Y-113482000I140000J0D01*
G01*
X172086000Y-113482000D01*
G75*
G02*
X172226000Y-113622000I0J-140000D01*
G01*
X172226000Y-113962000D01*
G75*
G02*
X172086000Y-114102000I-140000J0D01*
G01*
X171806000Y-114102000D01*
G75*
G02*
X171666000Y-113962000I0J140000D01*
G01*
G37*
G36*
G01*
X172626000Y-113962000D02*
X172626000Y-113622000D01*
G75*
G02*
X172766000Y-113482000I140000J0D01*
G01*
X173046000Y-113482000D01*
G75*
G02*
X173186000Y-113622000I0J-140000D01*
G01*
X173186000Y-113962000D01*
G75*
G02*
X173046000Y-114102000I-140000J0D01*
G01*
X172766000Y-114102000D01*
G75*
G02*
X172626000Y-113962000I0J140000D01*
G01*
G37*
%TD*%
M02*
