%TF.GenerationSoftware,KiCad,Pcbnew,(5.1.10)-1*%
%TF.CreationDate,2021-12-27T10:27:14+08:00*%
%TF.ProjectId,ST-Link_v2-1,53542d4c-696e-46b5-9f76-322d312e6b69,rev?*%
%TF.SameCoordinates,Original*%
%TF.FileFunction,Soldermask,Top*%
%TF.FilePolarity,Negative*%
%FSLAX46Y46*%
G04 Gerber Fmt 4.6, Leading zero omitted, Abs format (unit mm)*
G04 Created by KiCad (PCBNEW (5.1.10)-1) date 2021-12-27 10:27:14*
%MOMM*%
%LPD*%
G01*
G04 APERTURE LIST*
%ADD10R,1.850000X0.300000*%
%ADD11R,1.250000X0.300000*%
%ADD12R,1.850000X1.180000*%
%ADD13R,0.650000X1.060000*%
G04 APERTURE END LIST*
%TO.C,J1*%
G36*
G01*
X145452000Y-85060000D02*
X143252000Y-85060000D01*
G75*
G02*
X143002000Y-84810000I0J250000D01*
G01*
X143002000Y-84310000D01*
G75*
G02*
X143252000Y-84060000I250000J0D01*
G01*
X145452000Y-84060000D01*
G75*
G02*
X145702000Y-84310000I0J-250000D01*
G01*
X145702000Y-84810000D01*
G75*
G02*
X145452000Y-85060000I-250000J0D01*
G01*
G37*
G36*
G01*
X145452000Y-95010000D02*
X143252000Y-95010000D01*
G75*
G02*
X143002000Y-94760000I0J250000D01*
G01*
X143002000Y-94260000D01*
G75*
G02*
X143252000Y-94010000I250000J0D01*
G01*
X145452000Y-94010000D01*
G75*
G02*
X145702000Y-94260000I0J-250000D01*
G01*
X145702000Y-94760000D01*
G75*
G02*
X145452000Y-95010000I-250000J0D01*
G01*
G37*
G36*
G01*
X141852000Y-86710000D02*
X140452000Y-86710000D01*
G75*
G02*
X140302000Y-86560000I0J150000D01*
G01*
X140302000Y-86260000D01*
G75*
G02*
X140452000Y-86110000I150000J0D01*
G01*
X141852000Y-86110000D01*
G75*
G02*
X142002000Y-86260000I0J-150000D01*
G01*
X142002000Y-86560000D01*
G75*
G02*
X141852000Y-86710000I-150000J0D01*
G01*
G37*
G36*
G01*
X141852000Y-87960000D02*
X140452000Y-87960000D01*
G75*
G02*
X140302000Y-87810000I0J150000D01*
G01*
X140302000Y-87510000D01*
G75*
G02*
X140452000Y-87360000I150000J0D01*
G01*
X141852000Y-87360000D01*
G75*
G02*
X142002000Y-87510000I0J-150000D01*
G01*
X142002000Y-87810000D01*
G75*
G02*
X141852000Y-87960000I-150000J0D01*
G01*
G37*
G36*
G01*
X141852000Y-89210000D02*
X140452000Y-89210000D01*
G75*
G02*
X140302000Y-89060000I0J150000D01*
G01*
X140302000Y-88760000D01*
G75*
G02*
X140452000Y-88610000I150000J0D01*
G01*
X141852000Y-88610000D01*
G75*
G02*
X142002000Y-88760000I0J-150000D01*
G01*
X142002000Y-89060000D01*
G75*
G02*
X141852000Y-89210000I-150000J0D01*
G01*
G37*
G36*
G01*
X141852000Y-90460000D02*
X140452000Y-90460000D01*
G75*
G02*
X140302000Y-90310000I0J150000D01*
G01*
X140302000Y-90010000D01*
G75*
G02*
X140452000Y-89860000I150000J0D01*
G01*
X141852000Y-89860000D01*
G75*
G02*
X142002000Y-90010000I0J-150000D01*
G01*
X142002000Y-90310000D01*
G75*
G02*
X141852000Y-90460000I-150000J0D01*
G01*
G37*
G36*
G01*
X141852000Y-91710000D02*
X140452000Y-91710000D01*
G75*
G02*
X140302000Y-91560000I0J150000D01*
G01*
X140302000Y-91260000D01*
G75*
G02*
X140452000Y-91110000I150000J0D01*
G01*
X141852000Y-91110000D01*
G75*
G02*
X142002000Y-91260000I0J-150000D01*
G01*
X142002000Y-91560000D01*
G75*
G02*
X141852000Y-91710000I-150000J0D01*
G01*
G37*
G36*
G01*
X141852000Y-92960000D02*
X140452000Y-92960000D01*
G75*
G02*
X140302000Y-92810000I0J150000D01*
G01*
X140302000Y-92510000D01*
G75*
G02*
X140452000Y-92360000I150000J0D01*
G01*
X141852000Y-92360000D01*
G75*
G02*
X142002000Y-92510000I0J-150000D01*
G01*
X142002000Y-92810000D01*
G75*
G02*
X141852000Y-92960000I-150000J0D01*
G01*
G37*
%TD*%
D10*
%TO.C,P1*%
X122682000Y-87293000D03*
D11*
X122682000Y-87793000D03*
X122682000Y-88293000D03*
X122682000Y-88793000D03*
X122682000Y-89293000D03*
X122682000Y-89793000D03*
X122682000Y-90293000D03*
X122682000Y-90793000D03*
X122682000Y-91293000D03*
X122682000Y-91793000D03*
X122682000Y-92293000D03*
D10*
X122682000Y-92793000D03*
D12*
X122682000Y-86233000D03*
X122682000Y-93853000D03*
%TD*%
D13*
%TO.C,U2*%
X126934000Y-93474000D03*
X125984000Y-93474000D03*
X125034000Y-93474000D03*
X125034000Y-95674000D03*
X126934000Y-95674000D03*
%TD*%
%TO.C,U1*%
G36*
G01*
X137139000Y-92527000D02*
X137139000Y-93852000D01*
G75*
G02*
X137064000Y-93927000I-75000J0D01*
G01*
X136914000Y-93927000D01*
G75*
G02*
X136839000Y-93852000I0J75000D01*
G01*
X136839000Y-92527000D01*
G75*
G02*
X136914000Y-92452000I75000J0D01*
G01*
X137064000Y-92452000D01*
G75*
G02*
X137139000Y-92527000I0J-75000D01*
G01*
G37*
G36*
G01*
X136639000Y-92527000D02*
X136639000Y-93852000D01*
G75*
G02*
X136564000Y-93927000I-75000J0D01*
G01*
X136414000Y-93927000D01*
G75*
G02*
X136339000Y-93852000I0J75000D01*
G01*
X136339000Y-92527000D01*
G75*
G02*
X136414000Y-92452000I75000J0D01*
G01*
X136564000Y-92452000D01*
G75*
G02*
X136639000Y-92527000I0J-75000D01*
G01*
G37*
G36*
G01*
X136139000Y-92527000D02*
X136139000Y-93852000D01*
G75*
G02*
X136064000Y-93927000I-75000J0D01*
G01*
X135914000Y-93927000D01*
G75*
G02*
X135839000Y-93852000I0J75000D01*
G01*
X135839000Y-92527000D01*
G75*
G02*
X135914000Y-92452000I75000J0D01*
G01*
X136064000Y-92452000D01*
G75*
G02*
X136139000Y-92527000I0J-75000D01*
G01*
G37*
G36*
G01*
X135639000Y-92527000D02*
X135639000Y-93852000D01*
G75*
G02*
X135564000Y-93927000I-75000J0D01*
G01*
X135414000Y-93927000D01*
G75*
G02*
X135339000Y-93852000I0J75000D01*
G01*
X135339000Y-92527000D01*
G75*
G02*
X135414000Y-92452000I75000J0D01*
G01*
X135564000Y-92452000D01*
G75*
G02*
X135639000Y-92527000I0J-75000D01*
G01*
G37*
G36*
G01*
X135139000Y-92527000D02*
X135139000Y-93852000D01*
G75*
G02*
X135064000Y-93927000I-75000J0D01*
G01*
X134914000Y-93927000D01*
G75*
G02*
X134839000Y-93852000I0J75000D01*
G01*
X134839000Y-92527000D01*
G75*
G02*
X134914000Y-92452000I75000J0D01*
G01*
X135064000Y-92452000D01*
G75*
G02*
X135139000Y-92527000I0J-75000D01*
G01*
G37*
G36*
G01*
X134639000Y-92527000D02*
X134639000Y-93852000D01*
G75*
G02*
X134564000Y-93927000I-75000J0D01*
G01*
X134414000Y-93927000D01*
G75*
G02*
X134339000Y-93852000I0J75000D01*
G01*
X134339000Y-92527000D01*
G75*
G02*
X134414000Y-92452000I75000J0D01*
G01*
X134564000Y-92452000D01*
G75*
G02*
X134639000Y-92527000I0J-75000D01*
G01*
G37*
G36*
G01*
X134139000Y-92527000D02*
X134139000Y-93852000D01*
G75*
G02*
X134064000Y-93927000I-75000J0D01*
G01*
X133914000Y-93927000D01*
G75*
G02*
X133839000Y-93852000I0J75000D01*
G01*
X133839000Y-92527000D01*
G75*
G02*
X133914000Y-92452000I75000J0D01*
G01*
X134064000Y-92452000D01*
G75*
G02*
X134139000Y-92527000I0J-75000D01*
G01*
G37*
G36*
G01*
X133639000Y-92527000D02*
X133639000Y-93852000D01*
G75*
G02*
X133564000Y-93927000I-75000J0D01*
G01*
X133414000Y-93927000D01*
G75*
G02*
X133339000Y-93852000I0J75000D01*
G01*
X133339000Y-92527000D01*
G75*
G02*
X133414000Y-92452000I75000J0D01*
G01*
X133564000Y-92452000D01*
G75*
G02*
X133639000Y-92527000I0J-75000D01*
G01*
G37*
G36*
G01*
X133139000Y-92527000D02*
X133139000Y-93852000D01*
G75*
G02*
X133064000Y-93927000I-75000J0D01*
G01*
X132914000Y-93927000D01*
G75*
G02*
X132839000Y-93852000I0J75000D01*
G01*
X132839000Y-92527000D01*
G75*
G02*
X132914000Y-92452000I75000J0D01*
G01*
X133064000Y-92452000D01*
G75*
G02*
X133139000Y-92527000I0J-75000D01*
G01*
G37*
G36*
G01*
X132639000Y-92527000D02*
X132639000Y-93852000D01*
G75*
G02*
X132564000Y-93927000I-75000J0D01*
G01*
X132414000Y-93927000D01*
G75*
G02*
X132339000Y-93852000I0J75000D01*
G01*
X132339000Y-92527000D01*
G75*
G02*
X132414000Y-92452000I75000J0D01*
G01*
X132564000Y-92452000D01*
G75*
G02*
X132639000Y-92527000I0J-75000D01*
G01*
G37*
G36*
G01*
X132139000Y-92527000D02*
X132139000Y-93852000D01*
G75*
G02*
X132064000Y-93927000I-75000J0D01*
G01*
X131914000Y-93927000D01*
G75*
G02*
X131839000Y-93852000I0J75000D01*
G01*
X131839000Y-92527000D01*
G75*
G02*
X131914000Y-92452000I75000J0D01*
G01*
X132064000Y-92452000D01*
G75*
G02*
X132139000Y-92527000I0J-75000D01*
G01*
G37*
G36*
G01*
X131639000Y-92527000D02*
X131639000Y-93852000D01*
G75*
G02*
X131564000Y-93927000I-75000J0D01*
G01*
X131414000Y-93927000D01*
G75*
G02*
X131339000Y-93852000I0J75000D01*
G01*
X131339000Y-92527000D01*
G75*
G02*
X131414000Y-92452000I75000J0D01*
G01*
X131564000Y-92452000D01*
G75*
G02*
X131639000Y-92527000I0J-75000D01*
G01*
G37*
G36*
G01*
X130814000Y-91702000D02*
X130814000Y-91852000D01*
G75*
G02*
X130739000Y-91927000I-75000J0D01*
G01*
X129414000Y-91927000D01*
G75*
G02*
X129339000Y-91852000I0J75000D01*
G01*
X129339000Y-91702000D01*
G75*
G02*
X129414000Y-91627000I75000J0D01*
G01*
X130739000Y-91627000D01*
G75*
G02*
X130814000Y-91702000I0J-75000D01*
G01*
G37*
G36*
G01*
X130814000Y-91202000D02*
X130814000Y-91352000D01*
G75*
G02*
X130739000Y-91427000I-75000J0D01*
G01*
X129414000Y-91427000D01*
G75*
G02*
X129339000Y-91352000I0J75000D01*
G01*
X129339000Y-91202000D01*
G75*
G02*
X129414000Y-91127000I75000J0D01*
G01*
X130739000Y-91127000D01*
G75*
G02*
X130814000Y-91202000I0J-75000D01*
G01*
G37*
G36*
G01*
X130814000Y-90702000D02*
X130814000Y-90852000D01*
G75*
G02*
X130739000Y-90927000I-75000J0D01*
G01*
X129414000Y-90927000D01*
G75*
G02*
X129339000Y-90852000I0J75000D01*
G01*
X129339000Y-90702000D01*
G75*
G02*
X129414000Y-90627000I75000J0D01*
G01*
X130739000Y-90627000D01*
G75*
G02*
X130814000Y-90702000I0J-75000D01*
G01*
G37*
G36*
G01*
X130814000Y-90202000D02*
X130814000Y-90352000D01*
G75*
G02*
X130739000Y-90427000I-75000J0D01*
G01*
X129414000Y-90427000D01*
G75*
G02*
X129339000Y-90352000I0J75000D01*
G01*
X129339000Y-90202000D01*
G75*
G02*
X129414000Y-90127000I75000J0D01*
G01*
X130739000Y-90127000D01*
G75*
G02*
X130814000Y-90202000I0J-75000D01*
G01*
G37*
G36*
G01*
X130814000Y-89702000D02*
X130814000Y-89852000D01*
G75*
G02*
X130739000Y-89927000I-75000J0D01*
G01*
X129414000Y-89927000D01*
G75*
G02*
X129339000Y-89852000I0J75000D01*
G01*
X129339000Y-89702000D01*
G75*
G02*
X129414000Y-89627000I75000J0D01*
G01*
X130739000Y-89627000D01*
G75*
G02*
X130814000Y-89702000I0J-75000D01*
G01*
G37*
G36*
G01*
X130814000Y-89202000D02*
X130814000Y-89352000D01*
G75*
G02*
X130739000Y-89427000I-75000J0D01*
G01*
X129414000Y-89427000D01*
G75*
G02*
X129339000Y-89352000I0J75000D01*
G01*
X129339000Y-89202000D01*
G75*
G02*
X129414000Y-89127000I75000J0D01*
G01*
X130739000Y-89127000D01*
G75*
G02*
X130814000Y-89202000I0J-75000D01*
G01*
G37*
G36*
G01*
X130814000Y-88702000D02*
X130814000Y-88852000D01*
G75*
G02*
X130739000Y-88927000I-75000J0D01*
G01*
X129414000Y-88927000D01*
G75*
G02*
X129339000Y-88852000I0J75000D01*
G01*
X129339000Y-88702000D01*
G75*
G02*
X129414000Y-88627000I75000J0D01*
G01*
X130739000Y-88627000D01*
G75*
G02*
X130814000Y-88702000I0J-75000D01*
G01*
G37*
G36*
G01*
X130814000Y-88202000D02*
X130814000Y-88352000D01*
G75*
G02*
X130739000Y-88427000I-75000J0D01*
G01*
X129414000Y-88427000D01*
G75*
G02*
X129339000Y-88352000I0J75000D01*
G01*
X129339000Y-88202000D01*
G75*
G02*
X129414000Y-88127000I75000J0D01*
G01*
X130739000Y-88127000D01*
G75*
G02*
X130814000Y-88202000I0J-75000D01*
G01*
G37*
G36*
G01*
X130814000Y-87702000D02*
X130814000Y-87852000D01*
G75*
G02*
X130739000Y-87927000I-75000J0D01*
G01*
X129414000Y-87927000D01*
G75*
G02*
X129339000Y-87852000I0J75000D01*
G01*
X129339000Y-87702000D01*
G75*
G02*
X129414000Y-87627000I75000J0D01*
G01*
X130739000Y-87627000D01*
G75*
G02*
X130814000Y-87702000I0J-75000D01*
G01*
G37*
G36*
G01*
X130814000Y-87202000D02*
X130814000Y-87352000D01*
G75*
G02*
X130739000Y-87427000I-75000J0D01*
G01*
X129414000Y-87427000D01*
G75*
G02*
X129339000Y-87352000I0J75000D01*
G01*
X129339000Y-87202000D01*
G75*
G02*
X129414000Y-87127000I75000J0D01*
G01*
X130739000Y-87127000D01*
G75*
G02*
X130814000Y-87202000I0J-75000D01*
G01*
G37*
G36*
G01*
X130814000Y-86702000D02*
X130814000Y-86852000D01*
G75*
G02*
X130739000Y-86927000I-75000J0D01*
G01*
X129414000Y-86927000D01*
G75*
G02*
X129339000Y-86852000I0J75000D01*
G01*
X129339000Y-86702000D01*
G75*
G02*
X129414000Y-86627000I75000J0D01*
G01*
X130739000Y-86627000D01*
G75*
G02*
X130814000Y-86702000I0J-75000D01*
G01*
G37*
G36*
G01*
X130814000Y-86202000D02*
X130814000Y-86352000D01*
G75*
G02*
X130739000Y-86427000I-75000J0D01*
G01*
X129414000Y-86427000D01*
G75*
G02*
X129339000Y-86352000I0J75000D01*
G01*
X129339000Y-86202000D01*
G75*
G02*
X129414000Y-86127000I75000J0D01*
G01*
X130739000Y-86127000D01*
G75*
G02*
X130814000Y-86202000I0J-75000D01*
G01*
G37*
G36*
G01*
X131639000Y-84202000D02*
X131639000Y-85527000D01*
G75*
G02*
X131564000Y-85602000I-75000J0D01*
G01*
X131414000Y-85602000D01*
G75*
G02*
X131339000Y-85527000I0J75000D01*
G01*
X131339000Y-84202000D01*
G75*
G02*
X131414000Y-84127000I75000J0D01*
G01*
X131564000Y-84127000D01*
G75*
G02*
X131639000Y-84202000I0J-75000D01*
G01*
G37*
G36*
G01*
X132139000Y-84202000D02*
X132139000Y-85527000D01*
G75*
G02*
X132064000Y-85602000I-75000J0D01*
G01*
X131914000Y-85602000D01*
G75*
G02*
X131839000Y-85527000I0J75000D01*
G01*
X131839000Y-84202000D01*
G75*
G02*
X131914000Y-84127000I75000J0D01*
G01*
X132064000Y-84127000D01*
G75*
G02*
X132139000Y-84202000I0J-75000D01*
G01*
G37*
G36*
G01*
X132639000Y-84202000D02*
X132639000Y-85527000D01*
G75*
G02*
X132564000Y-85602000I-75000J0D01*
G01*
X132414000Y-85602000D01*
G75*
G02*
X132339000Y-85527000I0J75000D01*
G01*
X132339000Y-84202000D01*
G75*
G02*
X132414000Y-84127000I75000J0D01*
G01*
X132564000Y-84127000D01*
G75*
G02*
X132639000Y-84202000I0J-75000D01*
G01*
G37*
G36*
G01*
X133139000Y-84202000D02*
X133139000Y-85527000D01*
G75*
G02*
X133064000Y-85602000I-75000J0D01*
G01*
X132914000Y-85602000D01*
G75*
G02*
X132839000Y-85527000I0J75000D01*
G01*
X132839000Y-84202000D01*
G75*
G02*
X132914000Y-84127000I75000J0D01*
G01*
X133064000Y-84127000D01*
G75*
G02*
X133139000Y-84202000I0J-75000D01*
G01*
G37*
G36*
G01*
X133639000Y-84202000D02*
X133639000Y-85527000D01*
G75*
G02*
X133564000Y-85602000I-75000J0D01*
G01*
X133414000Y-85602000D01*
G75*
G02*
X133339000Y-85527000I0J75000D01*
G01*
X133339000Y-84202000D01*
G75*
G02*
X133414000Y-84127000I75000J0D01*
G01*
X133564000Y-84127000D01*
G75*
G02*
X133639000Y-84202000I0J-75000D01*
G01*
G37*
G36*
G01*
X134139000Y-84202000D02*
X134139000Y-85527000D01*
G75*
G02*
X134064000Y-85602000I-75000J0D01*
G01*
X133914000Y-85602000D01*
G75*
G02*
X133839000Y-85527000I0J75000D01*
G01*
X133839000Y-84202000D01*
G75*
G02*
X133914000Y-84127000I75000J0D01*
G01*
X134064000Y-84127000D01*
G75*
G02*
X134139000Y-84202000I0J-75000D01*
G01*
G37*
G36*
G01*
X134639000Y-84202000D02*
X134639000Y-85527000D01*
G75*
G02*
X134564000Y-85602000I-75000J0D01*
G01*
X134414000Y-85602000D01*
G75*
G02*
X134339000Y-85527000I0J75000D01*
G01*
X134339000Y-84202000D01*
G75*
G02*
X134414000Y-84127000I75000J0D01*
G01*
X134564000Y-84127000D01*
G75*
G02*
X134639000Y-84202000I0J-75000D01*
G01*
G37*
G36*
G01*
X135139000Y-84202000D02*
X135139000Y-85527000D01*
G75*
G02*
X135064000Y-85602000I-75000J0D01*
G01*
X134914000Y-85602000D01*
G75*
G02*
X134839000Y-85527000I0J75000D01*
G01*
X134839000Y-84202000D01*
G75*
G02*
X134914000Y-84127000I75000J0D01*
G01*
X135064000Y-84127000D01*
G75*
G02*
X135139000Y-84202000I0J-75000D01*
G01*
G37*
G36*
G01*
X135639000Y-84202000D02*
X135639000Y-85527000D01*
G75*
G02*
X135564000Y-85602000I-75000J0D01*
G01*
X135414000Y-85602000D01*
G75*
G02*
X135339000Y-85527000I0J75000D01*
G01*
X135339000Y-84202000D01*
G75*
G02*
X135414000Y-84127000I75000J0D01*
G01*
X135564000Y-84127000D01*
G75*
G02*
X135639000Y-84202000I0J-75000D01*
G01*
G37*
G36*
G01*
X136139000Y-84202000D02*
X136139000Y-85527000D01*
G75*
G02*
X136064000Y-85602000I-75000J0D01*
G01*
X135914000Y-85602000D01*
G75*
G02*
X135839000Y-85527000I0J75000D01*
G01*
X135839000Y-84202000D01*
G75*
G02*
X135914000Y-84127000I75000J0D01*
G01*
X136064000Y-84127000D01*
G75*
G02*
X136139000Y-84202000I0J-75000D01*
G01*
G37*
G36*
G01*
X136639000Y-84202000D02*
X136639000Y-85527000D01*
G75*
G02*
X136564000Y-85602000I-75000J0D01*
G01*
X136414000Y-85602000D01*
G75*
G02*
X136339000Y-85527000I0J75000D01*
G01*
X136339000Y-84202000D01*
G75*
G02*
X136414000Y-84127000I75000J0D01*
G01*
X136564000Y-84127000D01*
G75*
G02*
X136639000Y-84202000I0J-75000D01*
G01*
G37*
G36*
G01*
X137139000Y-84202000D02*
X137139000Y-85527000D01*
G75*
G02*
X137064000Y-85602000I-75000J0D01*
G01*
X136914000Y-85602000D01*
G75*
G02*
X136839000Y-85527000I0J75000D01*
G01*
X136839000Y-84202000D01*
G75*
G02*
X136914000Y-84127000I75000J0D01*
G01*
X137064000Y-84127000D01*
G75*
G02*
X137139000Y-84202000I0J-75000D01*
G01*
G37*
G36*
G01*
X139139000Y-86202000D02*
X139139000Y-86352000D01*
G75*
G02*
X139064000Y-86427000I-75000J0D01*
G01*
X137739000Y-86427000D01*
G75*
G02*
X137664000Y-86352000I0J75000D01*
G01*
X137664000Y-86202000D01*
G75*
G02*
X137739000Y-86127000I75000J0D01*
G01*
X139064000Y-86127000D01*
G75*
G02*
X139139000Y-86202000I0J-75000D01*
G01*
G37*
G36*
G01*
X139139000Y-86702000D02*
X139139000Y-86852000D01*
G75*
G02*
X139064000Y-86927000I-75000J0D01*
G01*
X137739000Y-86927000D01*
G75*
G02*
X137664000Y-86852000I0J75000D01*
G01*
X137664000Y-86702000D01*
G75*
G02*
X137739000Y-86627000I75000J0D01*
G01*
X139064000Y-86627000D01*
G75*
G02*
X139139000Y-86702000I0J-75000D01*
G01*
G37*
G36*
G01*
X139139000Y-87202000D02*
X139139000Y-87352000D01*
G75*
G02*
X139064000Y-87427000I-75000J0D01*
G01*
X137739000Y-87427000D01*
G75*
G02*
X137664000Y-87352000I0J75000D01*
G01*
X137664000Y-87202000D01*
G75*
G02*
X137739000Y-87127000I75000J0D01*
G01*
X139064000Y-87127000D01*
G75*
G02*
X139139000Y-87202000I0J-75000D01*
G01*
G37*
G36*
G01*
X139139000Y-87702000D02*
X139139000Y-87852000D01*
G75*
G02*
X139064000Y-87927000I-75000J0D01*
G01*
X137739000Y-87927000D01*
G75*
G02*
X137664000Y-87852000I0J75000D01*
G01*
X137664000Y-87702000D01*
G75*
G02*
X137739000Y-87627000I75000J0D01*
G01*
X139064000Y-87627000D01*
G75*
G02*
X139139000Y-87702000I0J-75000D01*
G01*
G37*
G36*
G01*
X139139000Y-88202000D02*
X139139000Y-88352000D01*
G75*
G02*
X139064000Y-88427000I-75000J0D01*
G01*
X137739000Y-88427000D01*
G75*
G02*
X137664000Y-88352000I0J75000D01*
G01*
X137664000Y-88202000D01*
G75*
G02*
X137739000Y-88127000I75000J0D01*
G01*
X139064000Y-88127000D01*
G75*
G02*
X139139000Y-88202000I0J-75000D01*
G01*
G37*
G36*
G01*
X139139000Y-88702000D02*
X139139000Y-88852000D01*
G75*
G02*
X139064000Y-88927000I-75000J0D01*
G01*
X137739000Y-88927000D01*
G75*
G02*
X137664000Y-88852000I0J75000D01*
G01*
X137664000Y-88702000D01*
G75*
G02*
X137739000Y-88627000I75000J0D01*
G01*
X139064000Y-88627000D01*
G75*
G02*
X139139000Y-88702000I0J-75000D01*
G01*
G37*
G36*
G01*
X139139000Y-89202000D02*
X139139000Y-89352000D01*
G75*
G02*
X139064000Y-89427000I-75000J0D01*
G01*
X137739000Y-89427000D01*
G75*
G02*
X137664000Y-89352000I0J75000D01*
G01*
X137664000Y-89202000D01*
G75*
G02*
X137739000Y-89127000I75000J0D01*
G01*
X139064000Y-89127000D01*
G75*
G02*
X139139000Y-89202000I0J-75000D01*
G01*
G37*
G36*
G01*
X139139000Y-89702000D02*
X139139000Y-89852000D01*
G75*
G02*
X139064000Y-89927000I-75000J0D01*
G01*
X137739000Y-89927000D01*
G75*
G02*
X137664000Y-89852000I0J75000D01*
G01*
X137664000Y-89702000D01*
G75*
G02*
X137739000Y-89627000I75000J0D01*
G01*
X139064000Y-89627000D01*
G75*
G02*
X139139000Y-89702000I0J-75000D01*
G01*
G37*
G36*
G01*
X139139000Y-90202000D02*
X139139000Y-90352000D01*
G75*
G02*
X139064000Y-90427000I-75000J0D01*
G01*
X137739000Y-90427000D01*
G75*
G02*
X137664000Y-90352000I0J75000D01*
G01*
X137664000Y-90202000D01*
G75*
G02*
X137739000Y-90127000I75000J0D01*
G01*
X139064000Y-90127000D01*
G75*
G02*
X139139000Y-90202000I0J-75000D01*
G01*
G37*
G36*
G01*
X139139000Y-90702000D02*
X139139000Y-90852000D01*
G75*
G02*
X139064000Y-90927000I-75000J0D01*
G01*
X137739000Y-90927000D01*
G75*
G02*
X137664000Y-90852000I0J75000D01*
G01*
X137664000Y-90702000D01*
G75*
G02*
X137739000Y-90627000I75000J0D01*
G01*
X139064000Y-90627000D01*
G75*
G02*
X139139000Y-90702000I0J-75000D01*
G01*
G37*
G36*
G01*
X139139000Y-91202000D02*
X139139000Y-91352000D01*
G75*
G02*
X139064000Y-91427000I-75000J0D01*
G01*
X137739000Y-91427000D01*
G75*
G02*
X137664000Y-91352000I0J75000D01*
G01*
X137664000Y-91202000D01*
G75*
G02*
X137739000Y-91127000I75000J0D01*
G01*
X139064000Y-91127000D01*
G75*
G02*
X139139000Y-91202000I0J-75000D01*
G01*
G37*
G36*
G01*
X139139000Y-91702000D02*
X139139000Y-91852000D01*
G75*
G02*
X139064000Y-91927000I-75000J0D01*
G01*
X137739000Y-91927000D01*
G75*
G02*
X137664000Y-91852000I0J75000D01*
G01*
X137664000Y-91702000D01*
G75*
G02*
X137739000Y-91627000I75000J0D01*
G01*
X139064000Y-91627000D01*
G75*
G02*
X139139000Y-91702000I0J-75000D01*
G01*
G37*
%TD*%
%TO.C,R18*%
G36*
G01*
X127409000Y-90862999D02*
X127409000Y-91763001D01*
G75*
G02*
X127159001Y-92013000I-249999J0D01*
G01*
X126633999Y-92013000D01*
G75*
G02*
X126384000Y-91763001I0J249999D01*
G01*
X126384000Y-90862999D01*
G75*
G02*
X126633999Y-90613000I249999J0D01*
G01*
X127159001Y-90613000D01*
G75*
G02*
X127409000Y-90862999I0J-249999D01*
G01*
G37*
G36*
G01*
X125584000Y-90862999D02*
X125584000Y-91763001D01*
G75*
G02*
X125334001Y-92013000I-249999J0D01*
G01*
X124808999Y-92013000D01*
G75*
G02*
X124559000Y-91763001I0J249999D01*
G01*
X124559000Y-90862999D01*
G75*
G02*
X124808999Y-90613000I249999J0D01*
G01*
X125334001Y-90613000D01*
G75*
G02*
X125584000Y-90862999I0J-249999D01*
G01*
G37*
%TD*%
%TO.C,R17*%
G36*
G01*
X127409000Y-88322999D02*
X127409000Y-89223001D01*
G75*
G02*
X127159001Y-89473000I-249999J0D01*
G01*
X126633999Y-89473000D01*
G75*
G02*
X126384000Y-89223001I0J249999D01*
G01*
X126384000Y-88322999D01*
G75*
G02*
X126633999Y-88073000I249999J0D01*
G01*
X127159001Y-88073000D01*
G75*
G02*
X127409000Y-88322999I0J-249999D01*
G01*
G37*
G36*
G01*
X125584000Y-88322999D02*
X125584000Y-89223001D01*
G75*
G02*
X125334001Y-89473000I-249999J0D01*
G01*
X124808999Y-89473000D01*
G75*
G02*
X124559000Y-89223001I0J249999D01*
G01*
X124559000Y-88322999D01*
G75*
G02*
X124808999Y-88073000I249999J0D01*
G01*
X125334001Y-88073000D01*
G75*
G02*
X125584000Y-88322999I0J-249999D01*
G01*
G37*
%TD*%
%TO.C,D5*%
G36*
G01*
X126440250Y-85275000D02*
X125527750Y-85275000D01*
G75*
G02*
X125284000Y-85031250I0J243750D01*
G01*
X125284000Y-84543750D01*
G75*
G02*
X125527750Y-84300000I243750J0D01*
G01*
X126440250Y-84300000D01*
G75*
G02*
X126684000Y-84543750I0J-243750D01*
G01*
X126684000Y-85031250D01*
G75*
G02*
X126440250Y-85275000I-243750J0D01*
G01*
G37*
G36*
G01*
X126440250Y-87150000D02*
X125527750Y-87150000D01*
G75*
G02*
X125284000Y-86906250I0J243750D01*
G01*
X125284000Y-86418750D01*
G75*
G02*
X125527750Y-86175000I243750J0D01*
G01*
X126440250Y-86175000D01*
G75*
G02*
X126684000Y-86418750I0J-243750D01*
G01*
X126684000Y-86906250D01*
G75*
G02*
X126440250Y-87150000I-243750J0D01*
G01*
G37*
%TD*%
%TO.C,D3*%
G36*
G01*
X133068000Y-96087250D02*
X133068000Y-95174750D01*
G75*
G02*
X133311750Y-94931000I243750J0D01*
G01*
X133799250Y-94931000D01*
G75*
G02*
X134043000Y-95174750I0J-243750D01*
G01*
X134043000Y-96087250D01*
G75*
G02*
X133799250Y-96331000I-243750J0D01*
G01*
X133311750Y-96331000D01*
G75*
G02*
X133068000Y-96087250I0J243750D01*
G01*
G37*
G36*
G01*
X134943000Y-96087250D02*
X134943000Y-95174750D01*
G75*
G02*
X135186750Y-94931000I243750J0D01*
G01*
X135674250Y-94931000D01*
G75*
G02*
X135918000Y-95174750I0J-243750D01*
G01*
X135918000Y-96087250D01*
G75*
G02*
X135674250Y-96331000I-243750J0D01*
G01*
X135186750Y-96331000D01*
G75*
G02*
X134943000Y-96087250I0J243750D01*
G01*
G37*
%TD*%
%TO.C,D2*%
G36*
G01*
X139347000Y-95174750D02*
X139347000Y-96087250D01*
G75*
G02*
X139103250Y-96331000I-243750J0D01*
G01*
X138615750Y-96331000D01*
G75*
G02*
X138372000Y-96087250I0J243750D01*
G01*
X138372000Y-95174750D01*
G75*
G02*
X138615750Y-94931000I243750J0D01*
G01*
X139103250Y-94931000D01*
G75*
G02*
X139347000Y-95174750I0J-243750D01*
G01*
G37*
G36*
G01*
X137472000Y-95174750D02*
X137472000Y-96087250D01*
G75*
G02*
X137228250Y-96331000I-243750J0D01*
G01*
X136740750Y-96331000D01*
G75*
G02*
X136497000Y-96087250I0J243750D01*
G01*
X136497000Y-95174750D01*
G75*
G02*
X136740750Y-94931000I243750J0D01*
G01*
X137228250Y-94931000D01*
G75*
G02*
X137472000Y-95174750I0J-243750D01*
G01*
G37*
%TD*%
%TO.C,D1*%
G36*
G01*
X128448750Y-93311500D02*
X129361250Y-93311500D01*
G75*
G02*
X129605000Y-93555250I0J-243750D01*
G01*
X129605000Y-94042750D01*
G75*
G02*
X129361250Y-94286500I-243750J0D01*
G01*
X128448750Y-94286500D01*
G75*
G02*
X128205000Y-94042750I0J243750D01*
G01*
X128205000Y-93555250D01*
G75*
G02*
X128448750Y-93311500I243750J0D01*
G01*
G37*
G36*
G01*
X128448750Y-95186500D02*
X129361250Y-95186500D01*
G75*
G02*
X129605000Y-95430250I0J-243750D01*
G01*
X129605000Y-95917750D01*
G75*
G02*
X129361250Y-96161500I-243750J0D01*
G01*
X128448750Y-96161500D01*
G75*
G02*
X128205000Y-95917750I0J243750D01*
G01*
X128205000Y-95430250D01*
G75*
G02*
X128448750Y-95186500I243750J0D01*
G01*
G37*
%TD*%
M02*
