M48
; DRILL file {KiCad (5.1.10)-1} date 11/24/21 01:59:00
; FORMAT={-:-/ absolute / metric / decimal}
; #@! TF.CreationDate,2021-11-24T01:59:00+08:00
; #@! TF.GenerationSoftware,Kicad,Pcbnew,(5.1.10)-1
; #@! TF.FileFunction,Plated,1,2,PTH
FMAT,2
METRIC
T1C0.305
%
G90
G05
T1
X170.053Y-108.204
X170.053Y-114.935
X170.18Y-106.045
X170.561Y-117.094
X170.561Y-118.11
X171.196Y-110.744
X171.216Y-112.883
X171.958Y-112.268
X172.974Y-113.792
X173.101Y-116.84
X173.736Y-108.458
X173.736Y-109.474
X173.977Y-106.52
X174.089Y-117.856
X174.879Y-107.315
X176.022Y-113.919
X176.149Y-108.966
X176.149Y-111.379
X176.149Y-116.967
X176.276Y-105.791
X177.292Y-116.967
X177.419Y-113.919
X178.306Y-105.791
X178.308Y-108.258
X178.308Y-111.379
X179.324Y-105.791
X179.324Y-108.331
X179.832Y-114.173
X179.832Y-116.967
X180.721Y-109.22
X180.789Y-108.319
X180.848Y-116.967
X181.229Y-105.791
X181.351Y-110.749
X181.356Y-112.903
X181.483Y-108.458
X181.864Y-116.967
X182.245Y-105.791
X184.404Y-105.791
X184.404Y-106.807
X184.912Y-108.966
X184.912Y-109.982
X185.42Y-118.11
X185.547Y-107.696
X186.69Y-106.68
X186.78Y-113.211
X186.817Y-109.474
X186.817Y-110.754
X186.817Y-112.014
X187.96Y-118.11
X188.341Y-108.585
X188.341Y-109.855
X190.5Y-107.95
X190.5Y-109.728
X190.5Y-111.379
T0
M30
