%TF.GenerationSoftware,KiCad,Pcbnew,(5.1.10)-1*%
%TF.CreationDate,2021-11-23T23:34:30+08:00*%
%TF.ProjectId,ST-Link_v2-1,53542d4c-696e-46b5-9f76-322d312e6b69,rev?*%
%TF.SameCoordinates,Original*%
%TF.FileFunction,Copper,L2,Bot*%
%TF.FilePolarity,Positive*%
%FSLAX46Y46*%
G04 Gerber Fmt 4.6, Leading zero omitted, Abs format (unit mm)*
G04 Created by KiCad (PCBNEW (5.1.10)-1) date 2021-11-23 23:34:30*
%MOMM*%
%LPD*%
G01*
G04 APERTURE LIST*
%TA.AperFunction,SMDPad,CuDef*%
%ADD10R,1.200000X1.400000*%
%TD*%
%TA.AperFunction,SMDPad,CuDef*%
%ADD11R,1.060000X0.650000*%
%TD*%
%TA.AperFunction,SMDPad,CuDef*%
%ADD12R,1.850000X1.180000*%
%TD*%
%TA.AperFunction,SMDPad,CuDef*%
%ADD13R,1.850000X0.300000*%
%TD*%
%TA.AperFunction,SMDPad,CuDef*%
%ADD14R,1.250000X0.300000*%
%TD*%
%TA.AperFunction,ViaPad*%
%ADD15C,0.508000*%
%TD*%
%TA.AperFunction,Conductor*%
%ADD16C,0.254000*%
%TD*%
%TA.AperFunction,Conductor*%
%ADD17C,0.100000*%
%TD*%
G04 APERTURE END LIST*
D10*
%TO.P,Y1,1*%
%TO.N,Net-(C3-Pad1)*%
X181571000Y-110787000D03*
%TO.P,Y1,2*%
%TO.N,Net-(C2-Pad1)*%
X181571000Y-112987000D03*
%TO.P,Y1,3*%
%TO.N,N/C*%
X179871000Y-112987000D03*
%TO.P,Y1,4*%
X179871000Y-110787000D03*
%TD*%
D11*
%TO.P,U2,1*%
%TO.N,+5V*%
X172255000Y-115631000D03*
%TO.P,U2,2*%
%TO.N,GND*%
X172255000Y-114681000D03*
%TO.P,U2,3*%
%TO.N,+5V*%
X172255000Y-113731000D03*
%TO.P,U2,4*%
%TO.N,Net-(U2-Pad4)*%
X174455000Y-113731000D03*
%TO.P,U2,5*%
%TO.N,+3V3*%
X174455000Y-115631000D03*
%TD*%
%TO.P,R20,1*%
%TO.N,/ST_SWDIO*%
%TA.AperFunction,SMDPad,CuDef*%
G36*
G01*
X176334000Y-111778000D02*
X175964000Y-111778000D01*
G75*
G02*
X175829000Y-111643000I0J135000D01*
G01*
X175829000Y-111373000D01*
G75*
G02*
X175964000Y-111238000I135000J0D01*
G01*
X176334000Y-111238000D01*
G75*
G02*
X176469000Y-111373000I0J-135000D01*
G01*
X176469000Y-111643000D01*
G75*
G02*
X176334000Y-111778000I-135000J0D01*
G01*
G37*
%TD.AperFunction*%
%TO.P,R20,2*%
%TO.N,/SWDIO*%
%TA.AperFunction,SMDPad,CuDef*%
G36*
G01*
X176334000Y-110758000D02*
X175964000Y-110758000D01*
G75*
G02*
X175829000Y-110623000I0J135000D01*
G01*
X175829000Y-110353000D01*
G75*
G02*
X175964000Y-110218000I135000J0D01*
G01*
X176334000Y-110218000D01*
G75*
G02*
X176469000Y-110353000I0J-135000D01*
G01*
X176469000Y-110623000D01*
G75*
G02*
X176334000Y-110758000I-135000J0D01*
G01*
G37*
%TD.AperFunction*%
%TD*%
%TO.P,R19,1*%
%TO.N,/ST_SWCLK*%
%TA.AperFunction,SMDPad,CuDef*%
G36*
G01*
X177477000Y-113790000D02*
X177107000Y-113790000D01*
G75*
G02*
X176972000Y-113655000I0J135000D01*
G01*
X176972000Y-113385000D01*
G75*
G02*
X177107000Y-113250000I135000J0D01*
G01*
X177477000Y-113250000D01*
G75*
G02*
X177612000Y-113385000I0J-135000D01*
G01*
X177612000Y-113655000D01*
G75*
G02*
X177477000Y-113790000I-135000J0D01*
G01*
G37*
%TD.AperFunction*%
%TO.P,R19,2*%
%TO.N,/SWCLK*%
%TA.AperFunction,SMDPad,CuDef*%
G36*
G01*
X177477000Y-112770000D02*
X177107000Y-112770000D01*
G75*
G02*
X176972000Y-112635000I0J135000D01*
G01*
X176972000Y-112365000D01*
G75*
G02*
X177107000Y-112230000I135000J0D01*
G01*
X177477000Y-112230000D01*
G75*
G02*
X177612000Y-112365000I0J-135000D01*
G01*
X177612000Y-112635000D01*
G75*
G02*
X177477000Y-112770000I-135000J0D01*
G01*
G37*
%TD.AperFunction*%
%TD*%
%TO.P,R16,1*%
%TO.N,Net-(J2-PadA6)*%
%TA.AperFunction,SMDPad,CuDef*%
G36*
G01*
X171686000Y-112453000D02*
X171686000Y-112083000D01*
G75*
G02*
X171821000Y-111948000I135000J0D01*
G01*
X172091000Y-111948000D01*
G75*
G02*
X172226000Y-112083000I0J-135000D01*
G01*
X172226000Y-112453000D01*
G75*
G02*
X172091000Y-112588000I-135000J0D01*
G01*
X171821000Y-112588000D01*
G75*
G02*
X171686000Y-112453000I0J135000D01*
G01*
G37*
%TD.AperFunction*%
%TO.P,R16,2*%
%TO.N,+3V3*%
%TA.AperFunction,SMDPad,CuDef*%
G36*
G01*
X172706000Y-112453000D02*
X172706000Y-112083000D01*
G75*
G02*
X172841000Y-111948000I135000J0D01*
G01*
X173111000Y-111948000D01*
G75*
G02*
X173246000Y-112083000I0J-135000D01*
G01*
X173246000Y-112453000D01*
G75*
G02*
X173111000Y-112588000I-135000J0D01*
G01*
X172841000Y-112588000D01*
G75*
G02*
X172706000Y-112453000I0J135000D01*
G01*
G37*
%TD.AperFunction*%
%TD*%
%TO.P,R15,1*%
%TO.N,GND*%
%TA.AperFunction,SMDPad,CuDef*%
G36*
G01*
X186073000Y-108908000D02*
X186073000Y-109278000D01*
G75*
G02*
X185938000Y-109413000I-135000J0D01*
G01*
X185668000Y-109413000D01*
G75*
G02*
X185533000Y-109278000I0J135000D01*
G01*
X185533000Y-108908000D01*
G75*
G02*
X185668000Y-108773000I135000J0D01*
G01*
X185938000Y-108773000D01*
G75*
G02*
X186073000Y-108908000I0J-135000D01*
G01*
G37*
%TD.AperFunction*%
%TO.P,R15,2*%
%TO.N,Net-(R14-Pad1)*%
%TA.AperFunction,SMDPad,CuDef*%
G36*
G01*
X185053000Y-108908000D02*
X185053000Y-109278000D01*
G75*
G02*
X184918000Y-109413000I-135000J0D01*
G01*
X184648000Y-109413000D01*
G75*
G02*
X184513000Y-109278000I0J135000D01*
G01*
X184513000Y-108908000D01*
G75*
G02*
X184648000Y-108773000I135000J0D01*
G01*
X184918000Y-108773000D01*
G75*
G02*
X185053000Y-108908000I0J-135000D01*
G01*
G37*
%TD.AperFunction*%
%TD*%
%TO.P,R13,1*%
%TO.N,Net-(R13-Pad1)*%
%TA.AperFunction,SMDPad,CuDef*%
G36*
G01*
X176324000Y-117277000D02*
X175954000Y-117277000D01*
G75*
G02*
X175819000Y-117142000I0J135000D01*
G01*
X175819000Y-116872000D01*
G75*
G02*
X175954000Y-116737000I135000J0D01*
G01*
X176324000Y-116737000D01*
G75*
G02*
X176459000Y-116872000I0J-135000D01*
G01*
X176459000Y-117142000D01*
G75*
G02*
X176324000Y-117277000I-135000J0D01*
G01*
G37*
%TD.AperFunction*%
%TO.P,R13,2*%
%TO.N,GND*%
%TA.AperFunction,SMDPad,CuDef*%
G36*
G01*
X176324000Y-116257000D02*
X175954000Y-116257000D01*
G75*
G02*
X175819000Y-116122000I0J135000D01*
G01*
X175819000Y-115852000D01*
G75*
G02*
X175954000Y-115717000I135000J0D01*
G01*
X176324000Y-115717000D01*
G75*
G02*
X176459000Y-115852000I0J-135000D01*
G01*
X176459000Y-116122000D01*
G75*
G02*
X176324000Y-116257000I-135000J0D01*
G01*
G37*
%TD.AperFunction*%
%TD*%
%TO.P,R8,1*%
%TO.N,Net-(R8-Pad1)*%
%TA.AperFunction,SMDPad,CuDef*%
G36*
G01*
X177477000Y-117277000D02*
X177107000Y-117277000D01*
G75*
G02*
X176972000Y-117142000I0J135000D01*
G01*
X176972000Y-116872000D01*
G75*
G02*
X177107000Y-116737000I135000J0D01*
G01*
X177477000Y-116737000D01*
G75*
G02*
X177612000Y-116872000I0J-135000D01*
G01*
X177612000Y-117142000D01*
G75*
G02*
X177477000Y-117277000I-135000J0D01*
G01*
G37*
%TD.AperFunction*%
%TO.P,R8,2*%
%TO.N,+3V3*%
%TA.AperFunction,SMDPad,CuDef*%
G36*
G01*
X177477000Y-116257000D02*
X177107000Y-116257000D01*
G75*
G02*
X176972000Y-116122000I0J135000D01*
G01*
X176972000Y-115852000D01*
G75*
G02*
X177107000Y-115717000I135000J0D01*
G01*
X177477000Y-115717000D01*
G75*
G02*
X177612000Y-115852000I0J-135000D01*
G01*
X177612000Y-116122000D01*
G75*
G02*
X177477000Y-116257000I-135000J0D01*
G01*
G37*
%TD.AperFunction*%
%TD*%
%TO.P,R7,1*%
%TO.N,Net-(R7-Pad1)*%
%TA.AperFunction,SMDPad,CuDef*%
G36*
G01*
X178493000Y-108603000D02*
X178123000Y-108603000D01*
G75*
G02*
X177988000Y-108468000I0J135000D01*
G01*
X177988000Y-108198000D01*
G75*
G02*
X178123000Y-108063000I135000J0D01*
G01*
X178493000Y-108063000D01*
G75*
G02*
X178628000Y-108198000I0J-135000D01*
G01*
X178628000Y-108468000D01*
G75*
G02*
X178493000Y-108603000I-135000J0D01*
G01*
G37*
%TD.AperFunction*%
%TO.P,R7,2*%
%TO.N,GND*%
%TA.AperFunction,SMDPad,CuDef*%
G36*
G01*
X178493000Y-107583000D02*
X178123000Y-107583000D01*
G75*
G02*
X177988000Y-107448000I0J135000D01*
G01*
X177988000Y-107178000D01*
G75*
G02*
X178123000Y-107043000I135000J0D01*
G01*
X178493000Y-107043000D01*
G75*
G02*
X178628000Y-107178000I0J-135000D01*
G01*
X178628000Y-107448000D01*
G75*
G02*
X178493000Y-107583000I-135000J0D01*
G01*
G37*
%TD.AperFunction*%
%TD*%
%TO.P,R6,1*%
%TO.N,Net-(R6-Pad1)*%
%TA.AperFunction,SMDPad,CuDef*%
G36*
G01*
X180104000Y-116782000D02*
X180104000Y-117152000D01*
G75*
G02*
X179969000Y-117287000I-135000J0D01*
G01*
X179699000Y-117287000D01*
G75*
G02*
X179564000Y-117152000I0J135000D01*
G01*
X179564000Y-116782000D01*
G75*
G02*
X179699000Y-116647000I135000J0D01*
G01*
X179969000Y-116647000D01*
G75*
G02*
X180104000Y-116782000I0J-135000D01*
G01*
G37*
%TD.AperFunction*%
%TO.P,R6,2*%
%TO.N,GND*%
%TA.AperFunction,SMDPad,CuDef*%
G36*
G01*
X179084000Y-116782000D02*
X179084000Y-117152000D01*
G75*
G02*
X178949000Y-117287000I-135000J0D01*
G01*
X178679000Y-117287000D01*
G75*
G02*
X178544000Y-117152000I0J135000D01*
G01*
X178544000Y-116782000D01*
G75*
G02*
X178679000Y-116647000I135000J0D01*
G01*
X178949000Y-116647000D01*
G75*
G02*
X179084000Y-116782000I0J-135000D01*
G01*
G37*
%TD.AperFunction*%
%TD*%
%TO.P,R5,1*%
%TO.N,/RXD*%
%TA.AperFunction,SMDPad,CuDef*%
G36*
G01*
X183116000Y-106230000D02*
X183116000Y-105860000D01*
G75*
G02*
X183251000Y-105725000I135000J0D01*
G01*
X183521000Y-105725000D01*
G75*
G02*
X183656000Y-105860000I0J-135000D01*
G01*
X183656000Y-106230000D01*
G75*
G02*
X183521000Y-106365000I-135000J0D01*
G01*
X183251000Y-106365000D01*
G75*
G02*
X183116000Y-106230000I0J135000D01*
G01*
G37*
%TD.AperFunction*%
%TO.P,R5,2*%
%TO.N,Net-(D3-Pad1)*%
%TA.AperFunction,SMDPad,CuDef*%
G36*
G01*
X184136000Y-106230000D02*
X184136000Y-105860000D01*
G75*
G02*
X184271000Y-105725000I135000J0D01*
G01*
X184541000Y-105725000D01*
G75*
G02*
X184676000Y-105860000I0J-135000D01*
G01*
X184676000Y-106230000D01*
G75*
G02*
X184541000Y-106365000I-135000J0D01*
G01*
X184271000Y-106365000D01*
G75*
G02*
X184136000Y-106230000I0J135000D01*
G01*
G37*
%TD.AperFunction*%
%TD*%
%TO.P,R4,1*%
%TO.N,/TXD*%
%TA.AperFunction,SMDPad,CuDef*%
G36*
G01*
X183116000Y-107246000D02*
X183116000Y-106876000D01*
G75*
G02*
X183251000Y-106741000I135000J0D01*
G01*
X183521000Y-106741000D01*
G75*
G02*
X183656000Y-106876000I0J-135000D01*
G01*
X183656000Y-107246000D01*
G75*
G02*
X183521000Y-107381000I-135000J0D01*
G01*
X183251000Y-107381000D01*
G75*
G02*
X183116000Y-107246000I0J135000D01*
G01*
G37*
%TD.AperFunction*%
%TO.P,R4,2*%
%TO.N,Net-(D2-Pad1)*%
%TA.AperFunction,SMDPad,CuDef*%
G36*
G01*
X184136000Y-107246000D02*
X184136000Y-106876000D01*
G75*
G02*
X184271000Y-106741000I135000J0D01*
G01*
X184541000Y-106741000D01*
G75*
G02*
X184676000Y-106876000I0J-135000D01*
G01*
X184676000Y-107246000D01*
G75*
G02*
X184541000Y-107381000I-135000J0D01*
G01*
X184271000Y-107381000D01*
G75*
G02*
X184136000Y-107246000I0J135000D01*
G01*
G37*
%TD.AperFunction*%
%TD*%
%TO.P,R3,1*%
%TO.N,GND*%
%TA.AperFunction,SMDPad,CuDef*%
G36*
G01*
X174770000Y-116782000D02*
X174770000Y-117152000D01*
G75*
G02*
X174635000Y-117287000I-135000J0D01*
G01*
X174365000Y-117287000D01*
G75*
G02*
X174230000Y-117152000I0J135000D01*
G01*
X174230000Y-116782000D01*
G75*
G02*
X174365000Y-116647000I135000J0D01*
G01*
X174635000Y-116647000D01*
G75*
G02*
X174770000Y-116782000I0J-135000D01*
G01*
G37*
%TD.AperFunction*%
%TO.P,R3,2*%
%TO.N,Net-(D1-Pad1)*%
%TA.AperFunction,SMDPad,CuDef*%
G36*
G01*
X173750000Y-116782000D02*
X173750000Y-117152000D01*
G75*
G02*
X173615000Y-117287000I-135000J0D01*
G01*
X173345000Y-117287000D01*
G75*
G02*
X173210000Y-117152000I0J135000D01*
G01*
X173210000Y-116782000D01*
G75*
G02*
X173345000Y-116647000I135000J0D01*
G01*
X173615000Y-116647000D01*
G75*
G02*
X173750000Y-116782000I0J-135000D01*
G01*
G37*
%TD.AperFunction*%
%TD*%
%TO.P,R2,1*%
%TO.N,/SWDIO_IN*%
%TA.AperFunction,SMDPad,CuDef*%
G36*
G01*
X175964000Y-108186000D02*
X176334000Y-108186000D01*
G75*
G02*
X176469000Y-108321000I0J-135000D01*
G01*
X176469000Y-108591000D01*
G75*
G02*
X176334000Y-108726000I-135000J0D01*
G01*
X175964000Y-108726000D01*
G75*
G02*
X175829000Y-108591000I0J135000D01*
G01*
X175829000Y-108321000D01*
G75*
G02*
X175964000Y-108186000I135000J0D01*
G01*
G37*
%TD.AperFunction*%
%TO.P,R2,2*%
%TO.N,/SWDIO*%
%TA.AperFunction,SMDPad,CuDef*%
G36*
G01*
X175964000Y-109206000D02*
X176334000Y-109206000D01*
G75*
G02*
X176469000Y-109341000I0J-135000D01*
G01*
X176469000Y-109611000D01*
G75*
G02*
X176334000Y-109746000I-135000J0D01*
G01*
X175964000Y-109746000D01*
G75*
G02*
X175829000Y-109611000I0J135000D01*
G01*
X175829000Y-109341000D01*
G75*
G02*
X175964000Y-109206000I135000J0D01*
G01*
G37*
%TD.AperFunction*%
%TD*%
%TO.P,R1,1*%
%TO.N,/NRST*%
%TA.AperFunction,SMDPad,CuDef*%
G36*
G01*
X179596000Y-105606000D02*
X179596000Y-105976000D01*
G75*
G02*
X179461000Y-106111000I-135000J0D01*
G01*
X179191000Y-106111000D01*
G75*
G02*
X179056000Y-105976000I0J135000D01*
G01*
X179056000Y-105606000D01*
G75*
G02*
X179191000Y-105471000I135000J0D01*
G01*
X179461000Y-105471000D01*
G75*
G02*
X179596000Y-105606000I0J-135000D01*
G01*
G37*
%TD.AperFunction*%
%TO.P,R1,2*%
%TO.N,+3V3*%
%TA.AperFunction,SMDPad,CuDef*%
G36*
G01*
X178576000Y-105606000D02*
X178576000Y-105976000D01*
G75*
G02*
X178441000Y-106111000I-135000J0D01*
G01*
X178171000Y-106111000D01*
G75*
G02*
X178036000Y-105976000I0J135000D01*
G01*
X178036000Y-105606000D01*
G75*
G02*
X178171000Y-105471000I135000J0D01*
G01*
X178441000Y-105471000D01*
G75*
G02*
X178576000Y-105606000I0J-135000D01*
G01*
G37*
%TD.AperFunction*%
%TD*%
D12*
%TO.P,J2,S4*%
%TO.N,GND*%
X170053000Y-107993000D03*
%TO.P,J2,S3*%
X170053000Y-115273000D03*
D13*
%TO.P,J2,B1*%
X170053000Y-108883000D03*
D14*
%TO.P,J2,B2*%
%TO.N,Net-(J2-PadB2)*%
X170053000Y-109383000D03*
%TO.P,J2,B3*%
%TO.N,Net-(J2-PadB3)*%
X170053000Y-109883000D03*
%TO.P,J2,B4*%
%TO.N,+5V*%
X170053000Y-110383000D03*
%TO.P,J2,B5*%
%TO.N,Net-(J2-PadB5)*%
X170053000Y-110883000D03*
%TO.P,J2,B6*%
%TO.N,N/C*%
X170053000Y-111383000D03*
%TO.P,J2,B7*%
X170053000Y-111883000D03*
%TO.P,J2,B8*%
%TO.N,Net-(J2-PadB8)*%
X170053000Y-112383000D03*
%TO.P,J2,B9*%
%TO.N,+5V*%
X170053000Y-112883000D03*
%TO.P,J2,B10*%
%TO.N,Net-(J2-PadB10)*%
X170053000Y-113383000D03*
%TO.P,J2,B11*%
%TO.N,Net-(J2-PadB11)*%
X170053000Y-113883000D03*
D13*
%TO.P,J2,B12*%
%TO.N,GND*%
X170053000Y-114383000D03*
%TD*%
%TO.P,C7,1*%
%TO.N,+3V3*%
%TA.AperFunction,SMDPad,CuDef*%
G36*
G01*
X182116000Y-116797000D02*
X182116000Y-117137000D01*
G75*
G02*
X181976000Y-117277000I-140000J0D01*
G01*
X181696000Y-117277000D01*
G75*
G02*
X181556000Y-117137000I0J140000D01*
G01*
X181556000Y-116797000D01*
G75*
G02*
X181696000Y-116657000I140000J0D01*
G01*
X181976000Y-116657000D01*
G75*
G02*
X182116000Y-116797000I0J-140000D01*
G01*
G37*
%TD.AperFunction*%
%TO.P,C7,2*%
%TO.N,GND*%
%TA.AperFunction,SMDPad,CuDef*%
G36*
G01*
X181156000Y-116797000D02*
X181156000Y-117137000D01*
G75*
G02*
X181016000Y-117277000I-140000J0D01*
G01*
X180736000Y-117277000D01*
G75*
G02*
X180596000Y-117137000I0J140000D01*
G01*
X180596000Y-116797000D01*
G75*
G02*
X180736000Y-116657000I140000J0D01*
G01*
X181016000Y-116657000D01*
G75*
G02*
X181156000Y-116797000I0J-140000D01*
G01*
G37*
%TD.AperFunction*%
%TD*%
%TO.P,C6,1*%
%TO.N,+3V3*%
%TA.AperFunction,SMDPad,CuDef*%
G36*
G01*
X176319000Y-113790000D02*
X175979000Y-113790000D01*
G75*
G02*
X175839000Y-113650000I0J140000D01*
G01*
X175839000Y-113370000D01*
G75*
G02*
X175979000Y-113230000I140000J0D01*
G01*
X176319000Y-113230000D01*
G75*
G02*
X176459000Y-113370000I0J-140000D01*
G01*
X176459000Y-113650000D01*
G75*
G02*
X176319000Y-113790000I-140000J0D01*
G01*
G37*
%TD.AperFunction*%
%TO.P,C6,2*%
%TO.N,GND*%
%TA.AperFunction,SMDPad,CuDef*%
G36*
G01*
X176319000Y-112830000D02*
X175979000Y-112830000D01*
G75*
G02*
X175839000Y-112690000I0J140000D01*
G01*
X175839000Y-112410000D01*
G75*
G02*
X175979000Y-112270000I140000J0D01*
G01*
X176319000Y-112270000D01*
G75*
G02*
X176459000Y-112410000I0J-140000D01*
G01*
X176459000Y-112690000D01*
G75*
G02*
X176319000Y-112830000I-140000J0D01*
G01*
G37*
%TD.AperFunction*%
%TD*%
%TO.P,C5,1*%
%TO.N,+3V3*%
%TA.AperFunction,SMDPad,CuDef*%
G36*
G01*
X176024000Y-105961000D02*
X176024000Y-105621000D01*
G75*
G02*
X176164000Y-105481000I140000J0D01*
G01*
X176444000Y-105481000D01*
G75*
G02*
X176584000Y-105621000I0J-140000D01*
G01*
X176584000Y-105961000D01*
G75*
G02*
X176444000Y-106101000I-140000J0D01*
G01*
X176164000Y-106101000D01*
G75*
G02*
X176024000Y-105961000I0J140000D01*
G01*
G37*
%TD.AperFunction*%
%TO.P,C5,2*%
%TO.N,GND*%
%TA.AperFunction,SMDPad,CuDef*%
G36*
G01*
X176984000Y-105961000D02*
X176984000Y-105621000D01*
G75*
G02*
X177124000Y-105481000I140000J0D01*
G01*
X177404000Y-105481000D01*
G75*
G02*
X177544000Y-105621000I0J-140000D01*
G01*
X177544000Y-105961000D01*
G75*
G02*
X177404000Y-106101000I-140000J0D01*
G01*
X177124000Y-106101000D01*
G75*
G02*
X176984000Y-105961000I0J140000D01*
G01*
G37*
%TD.AperFunction*%
%TD*%
%TO.P,C4,1*%
%TO.N,+3V3*%
%TA.AperFunction,SMDPad,CuDef*%
G36*
G01*
X184533000Y-110279000D02*
X184533000Y-109939000D01*
G75*
G02*
X184673000Y-109799000I140000J0D01*
G01*
X184953000Y-109799000D01*
G75*
G02*
X185093000Y-109939000I0J-140000D01*
G01*
X185093000Y-110279000D01*
G75*
G02*
X184953000Y-110419000I-140000J0D01*
G01*
X184673000Y-110419000D01*
G75*
G02*
X184533000Y-110279000I0J140000D01*
G01*
G37*
%TD.AperFunction*%
%TO.P,C4,2*%
%TO.N,GND*%
%TA.AperFunction,SMDPad,CuDef*%
G36*
G01*
X185493000Y-110279000D02*
X185493000Y-109939000D01*
G75*
G02*
X185633000Y-109799000I140000J0D01*
G01*
X185913000Y-109799000D01*
G75*
G02*
X186053000Y-109939000I0J-140000D01*
G01*
X186053000Y-110279000D01*
G75*
G02*
X185913000Y-110419000I-140000J0D01*
G01*
X185633000Y-110419000D01*
G75*
G02*
X185493000Y-110279000I0J140000D01*
G01*
G37*
%TD.AperFunction*%
%TD*%
%TO.P,C3,1*%
%TO.N,Net-(C3-Pad1)*%
%TA.AperFunction,SMDPad,CuDef*%
G36*
G01*
X181989000Y-109050000D02*
X181989000Y-109390000D01*
G75*
G02*
X181849000Y-109530000I-140000J0D01*
G01*
X181569000Y-109530000D01*
G75*
G02*
X181429000Y-109390000I0J140000D01*
G01*
X181429000Y-109050000D01*
G75*
G02*
X181569000Y-108910000I140000J0D01*
G01*
X181849000Y-108910000D01*
G75*
G02*
X181989000Y-109050000I0J-140000D01*
G01*
G37*
%TD.AperFunction*%
%TO.P,C3,2*%
%TO.N,GND*%
%TA.AperFunction,SMDPad,CuDef*%
G36*
G01*
X181029000Y-109050000D02*
X181029000Y-109390000D01*
G75*
G02*
X180889000Y-109530000I-140000J0D01*
G01*
X180609000Y-109530000D01*
G75*
G02*
X180469000Y-109390000I0J140000D01*
G01*
X180469000Y-109050000D01*
G75*
G02*
X180609000Y-108910000I140000J0D01*
G01*
X180889000Y-108910000D01*
G75*
G02*
X181029000Y-109050000I0J-140000D01*
G01*
G37*
%TD.AperFunction*%
%TD*%
%TO.P,C2,1*%
%TO.N,Net-(C2-Pad1)*%
%TA.AperFunction,SMDPad,CuDef*%
G36*
G01*
X181989000Y-114384000D02*
X181989000Y-114724000D01*
G75*
G02*
X181849000Y-114864000I-140000J0D01*
G01*
X181569000Y-114864000D01*
G75*
G02*
X181429000Y-114724000I0J140000D01*
G01*
X181429000Y-114384000D01*
G75*
G02*
X181569000Y-114244000I140000J0D01*
G01*
X181849000Y-114244000D01*
G75*
G02*
X181989000Y-114384000I0J-140000D01*
G01*
G37*
%TD.AperFunction*%
%TO.P,C2,2*%
%TO.N,GND*%
%TA.AperFunction,SMDPad,CuDef*%
G36*
G01*
X181029000Y-114384000D02*
X181029000Y-114724000D01*
G75*
G02*
X180889000Y-114864000I-140000J0D01*
G01*
X180609000Y-114864000D01*
G75*
G02*
X180469000Y-114724000I0J140000D01*
G01*
X180469000Y-114384000D01*
G75*
G02*
X180609000Y-114244000I140000J0D01*
G01*
X180889000Y-114244000D01*
G75*
G02*
X181029000Y-114384000I0J-140000D01*
G01*
G37*
%TD.AperFunction*%
%TD*%
%TO.P,C1,1*%
%TO.N,/NRST*%
%TA.AperFunction,SMDPad,CuDef*%
G36*
G01*
X179154000Y-107063000D02*
X179494000Y-107063000D01*
G75*
G02*
X179634000Y-107203000I0J-140000D01*
G01*
X179634000Y-107483000D01*
G75*
G02*
X179494000Y-107623000I-140000J0D01*
G01*
X179154000Y-107623000D01*
G75*
G02*
X179014000Y-107483000I0J140000D01*
G01*
X179014000Y-107203000D01*
G75*
G02*
X179154000Y-107063000I140000J0D01*
G01*
G37*
%TD.AperFunction*%
%TO.P,C1,2*%
%TO.N,GND*%
%TA.AperFunction,SMDPad,CuDef*%
G36*
G01*
X179154000Y-108023000D02*
X179494000Y-108023000D01*
G75*
G02*
X179634000Y-108163000I0J-140000D01*
G01*
X179634000Y-108443000D01*
G75*
G02*
X179494000Y-108583000I-140000J0D01*
G01*
X179154000Y-108583000D01*
G75*
G02*
X179014000Y-108443000I0J140000D01*
G01*
X179014000Y-108163000D01*
G75*
G02*
X179154000Y-108023000I140000J0D01*
G01*
G37*
%TD.AperFunction*%
%TD*%
D15*
%TO.N,GND*%
X180848000Y-116967000D03*
%TO.N,+3V3*%
X181864000Y-116967000D03*
%TO.N,Net-(R6-Pad1)*%
X179832000Y-116967000D03*
%TO.N,/NRST*%
X179324000Y-105791000D03*
X181229000Y-108458000D03*
%TO.N,GND*%
X179832000Y-114173000D03*
X180721000Y-109220000D03*
X173101000Y-114681000D03*
X188341000Y-108712000D03*
X188341000Y-109982000D03*
%TO.N,/TXD*%
X184912000Y-107823000D03*
%TO.N,Net-(R7-Pad1)*%
X178308000Y-108331000D03*
%TO.N,Net-(D2-Pad1)*%
X184404000Y-107061000D03*
%TO.N,Net-(D3-Pad1)*%
X184404000Y-106045000D03*
%TO.N,Net-(C2-Pad1)*%
X181356000Y-112903000D03*
%TO.N,Net-(C3-Pad1)*%
X181351402Y-110748604D03*
%TO.N,Net-(R13-Pad1)*%
X176149000Y-116967000D03*
%TO.N,Net-(R8-Pad1)*%
X177292000Y-116967000D03*
%TO.N,Net-(J2-PadA6)*%
X171958000Y-112268000D03*
%TO.N,Net-(D1-Pad1)*%
X173482000Y-116967000D03*
%TO.N,/SWDIO_IN*%
X176149000Y-108458000D03*
%TO.N,+3V3*%
X174498000Y-115570000D03*
X176149000Y-113538000D03*
X184912000Y-109982000D03*
X176276000Y-105791000D03*
X173977157Y-106520379D03*
%TO.N,+5V*%
X171958000Y-113792000D03*
X171216000Y-112883000D03*
X171196000Y-110744000D03*
%TO.N,/SWDIO*%
X176149000Y-109474000D03*
X186779884Y-113246884D03*
%TO.N,/SWCLK*%
X180848000Y-105918000D03*
X177292000Y-112522000D03*
X173609000Y-108585000D03*
X179578000Y-109093000D03*
X186817000Y-112014000D03*
%TO.N,/TXD*%
X186817000Y-110754000D03*
%TO.N,/RXD*%
X182245000Y-106045000D03*
X186817000Y-109474000D03*
%TO.N,Net-(R14-Pad1)*%
X184912000Y-108966000D03*
%TO.N,/ST_SWCLK*%
X177292000Y-113538000D03*
%TO.N,/ST_SWDIO*%
X176149000Y-111506000D03*
%TD*%
D16*
%TO.N,/NRST*%
X179324000Y-106047000D02*
X179326000Y-106045000D01*
X179324000Y-107343000D02*
X179324000Y-106047000D01*
X180114000Y-107343000D02*
X179324000Y-107343000D01*
X181229000Y-108458000D02*
X180114000Y-107343000D01*
%TO.N,GND*%
X185773000Y-109123000D02*
X185803000Y-109093000D01*
X185773000Y-110109000D02*
X185773000Y-109123000D01*
%TO.N,Net-(C2-Pad1)*%
X181709000Y-112998000D02*
X181698000Y-112987000D01*
X181709000Y-114554000D02*
X181709000Y-112998000D01*
%TO.N,Net-(C3-Pad1)*%
X181709000Y-110391006D02*
X181351402Y-110748604D01*
X181709000Y-109220000D02*
X181709000Y-110391006D01*
%TO.N,+3V3*%
X176149000Y-115003618D02*
X176149000Y-113538000D01*
X174455000Y-115631000D02*
X175521618Y-115631000D01*
X175521618Y-115631000D02*
X176056309Y-115096309D01*
X176056309Y-115096309D02*
X176149000Y-115003618D01*
X178018000Y-115987000D02*
X177292000Y-115987000D01*
X184813000Y-110236000D02*
X184813000Y-110236000D01*
X178018000Y-115987000D02*
X181610000Y-115987000D01*
X181864000Y-116967000D02*
X181864000Y-116023000D01*
X181864000Y-116023000D02*
X181900000Y-115987000D01*
X181900000Y-115987000D02*
X181610000Y-115987000D01*
X176149000Y-115003618D02*
X177607550Y-115003618D01*
X177607550Y-115003618D02*
X178018000Y-115414068D01*
X178018000Y-115414068D02*
X178018000Y-115987000D01*
X174498000Y-115200001D02*
X174498000Y-115570000D01*
X173482000Y-114184001D02*
X174498000Y-115200001D01*
X172976000Y-112268000D02*
X172976000Y-112905000D01*
X173482000Y-113411000D02*
X173482000Y-114184001D01*
X172976000Y-112905000D02*
X173482000Y-113411000D01*
X184861441Y-115987000D02*
X181900000Y-115987000D01*
X187706000Y-113142441D02*
X184861441Y-115987000D01*
X187706000Y-111760000D02*
X187706000Y-113142441D01*
X187325000Y-111379000D02*
X187706000Y-111760000D01*
X185166000Y-111379000D02*
X187325000Y-111379000D01*
X184813000Y-111026000D02*
X185166000Y-111379000D01*
X184813000Y-110236000D02*
X184813000Y-111026000D01*
X178306000Y-106428000D02*
X178306000Y-105791000D01*
X178181000Y-106553000D02*
X178306000Y-106428000D01*
X176276000Y-105791000D02*
X176276000Y-106553000D01*
X176276000Y-106553000D02*
X178181000Y-106553000D01*
X172976000Y-107521536D02*
X173977157Y-106520379D01*
X172976000Y-112268000D02*
X172976000Y-107521536D01*
X176276000Y-106553000D02*
X174009778Y-106553000D01*
X174009778Y-106553000D02*
X173977157Y-106520379D01*
%TO.N,+5V*%
X172255000Y-113731000D02*
X172146000Y-113731000D01*
X171397999Y-113844001D02*
X171397999Y-115390999D01*
X171511000Y-113731000D02*
X171397999Y-113844001D01*
X171638000Y-115631000D02*
X172255000Y-115631000D01*
X171397999Y-115390999D02*
X171638000Y-115631000D01*
X172146000Y-113731000D02*
X171511000Y-113731000D01*
X170053000Y-112883000D02*
X171216000Y-112883000D01*
X171216000Y-110637000D02*
X171216000Y-112883000D01*
X170962000Y-110383000D02*
X171216000Y-110637000D01*
X170053000Y-110383000D02*
X170962000Y-110383000D01*
%TO.N,/SWDIO*%
X176149000Y-110488000D02*
X176149000Y-109476000D01*
X178689000Y-115443000D02*
X184583768Y-115443000D01*
X184583768Y-115443000D02*
X186779884Y-113246884D01*
X178181000Y-111125000D02*
X178181000Y-114935000D01*
X178181000Y-114935000D02*
X178689000Y-115443000D01*
X176532000Y-109476000D02*
X178181000Y-111125000D01*
X176149000Y-109476000D02*
X176532000Y-109476000D01*
%TO.N,/SWCLK*%
X180848000Y-107241454D02*
X180848000Y-105918000D01*
X180901454Y-107241454D02*
X180848000Y-107241454D01*
X182626000Y-108966000D02*
X180901454Y-107241454D01*
X182626000Y-111633000D02*
X182626000Y-108966000D01*
X183007000Y-112014000D02*
X182626000Y-111633000D01*
X186743990Y-112014000D02*
X183007000Y-112014000D01*
X186817000Y-112087010D02*
X186743990Y-112014000D01*
X179451000Y-108966000D02*
X179578000Y-109093000D01*
X177660990Y-108659372D02*
X177967618Y-108966000D01*
X177660990Y-107429990D02*
X177660990Y-108659372D01*
X177292000Y-107061000D02*
X177660990Y-107429990D01*
X177967618Y-108966000D02*
X179451000Y-108966000D01*
X174190001Y-107061000D02*
X177292000Y-107061000D01*
X173609000Y-107642001D02*
X174190001Y-107061000D01*
X173609000Y-108585000D02*
X173609000Y-107642001D01*
%TO.N,/TXD*%
X188394500Y-110754000D02*
X186745064Y-110754000D01*
X188976000Y-108458000D02*
X188976000Y-110172500D01*
X188976000Y-110172500D02*
X188394500Y-110754000D01*
X188341000Y-107823000D02*
X188976000Y-108458000D01*
X183642000Y-107823000D02*
X188341000Y-107823000D01*
X183386000Y-107567000D02*
X183642000Y-107823000D01*
X183386000Y-107061000D02*
X183386000Y-107567000D01*
%TO.N,/RXD*%
X182245000Y-106045000D02*
X182753000Y-106045000D01*
X182753000Y-106045000D02*
X183386000Y-106045000D01*
X186817000Y-108966000D02*
X186817000Y-109474000D01*
X186182000Y-108331000D02*
X186817000Y-108966000D01*
X183388000Y-108331000D02*
X186182000Y-108331000D01*
X182753000Y-107696000D02*
X183388000Y-108331000D01*
X182753000Y-106045000D02*
X182753000Y-107696000D01*
%TD*%
%TO.N,GND*%
X191668800Y-118008800D02*
X169265200Y-118008800D01*
X169265200Y-116782000D01*
X172878203Y-116782000D01*
X172878203Y-117152000D01*
X172887172Y-117243068D01*
X172913736Y-117330635D01*
X172956872Y-117411339D01*
X173014925Y-117482075D01*
X173085661Y-117540128D01*
X173166365Y-117583264D01*
X173253932Y-117609828D01*
X173345000Y-117618797D01*
X173615000Y-117618797D01*
X173706068Y-117609828D01*
X173793635Y-117583264D01*
X173874339Y-117540128D01*
X173945075Y-117482075D01*
X174003128Y-117411339D01*
X174046264Y-117330635D01*
X174072828Y-117243068D01*
X174081797Y-117152000D01*
X174081797Y-116782000D01*
X174072828Y-116690932D01*
X174046264Y-116603365D01*
X174003128Y-116522661D01*
X173945075Y-116451925D01*
X173874339Y-116393872D01*
X173793635Y-116350736D01*
X173706068Y-116324172D01*
X173615000Y-116315203D01*
X173345000Y-116315203D01*
X173253932Y-116324172D01*
X173166365Y-116350736D01*
X173085661Y-116393872D01*
X173014925Y-116451925D01*
X172956872Y-116522661D01*
X172913736Y-116603365D01*
X172887172Y-116690932D01*
X172878203Y-116782000D01*
X169265200Y-116782000D01*
X169265200Y-114320391D01*
X169301027Y-114339540D01*
X169363270Y-114358422D01*
X169428000Y-114364797D01*
X170678000Y-114364797D01*
X170742730Y-114358422D01*
X170804973Y-114339540D01*
X170862337Y-114308879D01*
X170912616Y-114267616D01*
X170940799Y-114233275D01*
X170940800Y-115368539D01*
X170938588Y-115390999D01*
X170940800Y-115413459D01*
X170947415Y-115480626D01*
X170960832Y-115524854D01*
X170973559Y-115566808D01*
X171016012Y-115646234D01*
X171058690Y-115698236D01*
X171073147Y-115715852D01*
X171090591Y-115730168D01*
X171298830Y-115938408D01*
X171313147Y-115955853D01*
X171382764Y-116012987D01*
X171400028Y-116022215D01*
X171418460Y-116082973D01*
X171449121Y-116140337D01*
X171490384Y-116190616D01*
X171540663Y-116231879D01*
X171598027Y-116262540D01*
X171660270Y-116281422D01*
X171725000Y-116287797D01*
X172785000Y-116287797D01*
X172849730Y-116281422D01*
X172911973Y-116262540D01*
X172969337Y-116231879D01*
X173019616Y-116190616D01*
X173060879Y-116140337D01*
X173091540Y-116082973D01*
X173110422Y-116020730D01*
X173116797Y-115956000D01*
X173116797Y-115306000D01*
X173110422Y-115241270D01*
X173091540Y-115179027D01*
X173060879Y-115121663D01*
X173019616Y-115071384D01*
X172969337Y-115030121D01*
X172911973Y-114999460D01*
X172849730Y-114980578D01*
X172785000Y-114974203D01*
X171855199Y-114974203D01*
X171855199Y-114387797D01*
X172785000Y-114387797D01*
X172849730Y-114381422D01*
X172911973Y-114362540D01*
X172969337Y-114331879D01*
X173019616Y-114290616D01*
X173031994Y-114275533D01*
X173049087Y-114331879D01*
X173057560Y-114359810D01*
X173070490Y-114384000D01*
X173100014Y-114439237D01*
X173157148Y-114508854D01*
X173174593Y-114523171D01*
X173708191Y-115056770D01*
X173690384Y-115071384D01*
X173649121Y-115121663D01*
X173618460Y-115179027D01*
X173599578Y-115241270D01*
X173593203Y-115306000D01*
X173593203Y-115956000D01*
X173599578Y-116020730D01*
X173618460Y-116082973D01*
X173649121Y-116140337D01*
X173690384Y-116190616D01*
X173740663Y-116231879D01*
X173798027Y-116262540D01*
X173860270Y-116281422D01*
X173925000Y-116287797D01*
X174985000Y-116287797D01*
X175049730Y-116281422D01*
X175111973Y-116262540D01*
X175169337Y-116231879D01*
X175219616Y-116190616D01*
X175260879Y-116140337D01*
X175288746Y-116088200D01*
X175499168Y-116088200D01*
X175521618Y-116090411D01*
X175544068Y-116088200D01*
X175544078Y-116088200D01*
X175611245Y-116081585D01*
X175697427Y-116055441D01*
X175776854Y-116012987D01*
X175846471Y-115955853D01*
X175860792Y-115938403D01*
X176338378Y-115460818D01*
X176853375Y-115460818D01*
X176847661Y-115463872D01*
X176776925Y-115521925D01*
X176718872Y-115592661D01*
X176675736Y-115673365D01*
X176649172Y-115760932D01*
X176640203Y-115852000D01*
X176640203Y-116122000D01*
X176649172Y-116213068D01*
X176675736Y-116300635D01*
X176718872Y-116381339D01*
X176776925Y-116452075D01*
X176831665Y-116497000D01*
X176776925Y-116541925D01*
X176718872Y-116612661D01*
X176715500Y-116618970D01*
X176712128Y-116612661D01*
X176654075Y-116541925D01*
X176583339Y-116483872D01*
X176502635Y-116440736D01*
X176415068Y-116414172D01*
X176324000Y-116405203D01*
X176319169Y-116405203D01*
X176206539Y-116382800D01*
X176091461Y-116382800D01*
X175978831Y-116405203D01*
X175954000Y-116405203D01*
X175862932Y-116414172D01*
X175775365Y-116440736D01*
X175694661Y-116483872D01*
X175623925Y-116541925D01*
X175565872Y-116612661D01*
X175522736Y-116693365D01*
X175496172Y-116780932D01*
X175487203Y-116872000D01*
X175487203Y-117142000D01*
X175496172Y-117233068D01*
X175522736Y-117320635D01*
X175565872Y-117401339D01*
X175623925Y-117472075D01*
X175694661Y-117530128D01*
X175775365Y-117573264D01*
X175862932Y-117599828D01*
X175954000Y-117608797D01*
X176324000Y-117608797D01*
X176415068Y-117599828D01*
X176502635Y-117573264D01*
X176583339Y-117530128D01*
X176654075Y-117472075D01*
X176712128Y-117401339D01*
X176715500Y-117395030D01*
X176718872Y-117401339D01*
X176776925Y-117472075D01*
X176847661Y-117530128D01*
X176928365Y-117573264D01*
X177015932Y-117599828D01*
X177107000Y-117608797D01*
X177477000Y-117608797D01*
X177568068Y-117599828D01*
X177655635Y-117573264D01*
X177736339Y-117530128D01*
X177807075Y-117472075D01*
X177865128Y-117401339D01*
X177908264Y-117320635D01*
X177934828Y-117233068D01*
X177943797Y-117142000D01*
X177943797Y-116872000D01*
X177934828Y-116780932D01*
X177908264Y-116693365D01*
X177865128Y-116612661D01*
X177807075Y-116541925D01*
X177752335Y-116497000D01*
X177807075Y-116452075D01*
X177813538Y-116444200D01*
X177995540Y-116444200D01*
X178018000Y-116446412D01*
X178040460Y-116444200D01*
X179378338Y-116444200D01*
X179368925Y-116451925D01*
X179310872Y-116522661D01*
X179267736Y-116603365D01*
X179241172Y-116690932D01*
X179232203Y-116782000D01*
X179232203Y-117152000D01*
X179241172Y-117243068D01*
X179267736Y-117330635D01*
X179310872Y-117411339D01*
X179368925Y-117482075D01*
X179439661Y-117540128D01*
X179520365Y-117583264D01*
X179607932Y-117609828D01*
X179699000Y-117618797D01*
X179969000Y-117618797D01*
X180060068Y-117609828D01*
X180147635Y-117583264D01*
X180228339Y-117540128D01*
X180299075Y-117482075D01*
X180357128Y-117411339D01*
X180400264Y-117330635D01*
X180426828Y-117243068D01*
X180435797Y-117152000D01*
X180435797Y-116782000D01*
X180426828Y-116690932D01*
X180400264Y-116603365D01*
X180357128Y-116522661D01*
X180299075Y-116451925D01*
X180289662Y-116444200D01*
X181385771Y-116444200D01*
X181362389Y-116463389D01*
X181303715Y-116534884D01*
X181260116Y-116616451D01*
X181233268Y-116704957D01*
X181224203Y-116797000D01*
X181224203Y-117137000D01*
X181233268Y-117229043D01*
X181260116Y-117317549D01*
X181303715Y-117399116D01*
X181362389Y-117470611D01*
X181433884Y-117529285D01*
X181515451Y-117572884D01*
X181603957Y-117599732D01*
X181696000Y-117608797D01*
X181976000Y-117608797D01*
X182068043Y-117599732D01*
X182156549Y-117572884D01*
X182238116Y-117529285D01*
X182309611Y-117470611D01*
X182368285Y-117399116D01*
X182411884Y-117317549D01*
X182438732Y-117229043D01*
X182447797Y-117137000D01*
X182447797Y-117026565D01*
X182448200Y-117024539D01*
X182448200Y-116909461D01*
X182447797Y-116907435D01*
X182447797Y-116797000D01*
X182438732Y-116704957D01*
X182411884Y-116616451D01*
X182368285Y-116534884D01*
X182321200Y-116477510D01*
X182321200Y-116444200D01*
X184838991Y-116444200D01*
X184861441Y-116446411D01*
X184883891Y-116444200D01*
X184883901Y-116444200D01*
X184951068Y-116437585D01*
X185037250Y-116411441D01*
X185116677Y-116368987D01*
X185186294Y-116311853D01*
X185200615Y-116294403D01*
X188013408Y-113481611D01*
X188030853Y-113467294D01*
X188087987Y-113397677D01*
X188130441Y-113318250D01*
X188156585Y-113232068D01*
X188163200Y-113164901D01*
X188163200Y-113164891D01*
X188165411Y-113142441D01*
X188163200Y-113119991D01*
X188163200Y-111782449D01*
X188165411Y-111759999D01*
X188163200Y-111737549D01*
X188163200Y-111737540D01*
X188156585Y-111670373D01*
X188130441Y-111584191D01*
X188103079Y-111533000D01*
X188087987Y-111504763D01*
X188045170Y-111452592D01*
X188030853Y-111435147D01*
X188013409Y-111420831D01*
X187803777Y-111211200D01*
X188372050Y-111211200D01*
X188394500Y-111213411D01*
X188416950Y-111211200D01*
X188416960Y-111211200D01*
X188484127Y-111204585D01*
X188570309Y-111178441D01*
X188649736Y-111135987D01*
X188719353Y-111078853D01*
X188733674Y-111061403D01*
X189283408Y-110511670D01*
X189300853Y-110497353D01*
X189357987Y-110427736D01*
X189400441Y-110348309D01*
X189426585Y-110262127D01*
X189433200Y-110194960D01*
X189433200Y-110194951D01*
X189435411Y-110172501D01*
X189433200Y-110150051D01*
X189433200Y-108480450D01*
X189435411Y-108458000D01*
X189433200Y-108435550D01*
X189433200Y-108435540D01*
X189426585Y-108368373D01*
X189406526Y-108302249D01*
X189400441Y-108282190D01*
X189357987Y-108202764D01*
X189315171Y-108150592D01*
X189315165Y-108150586D01*
X189300853Y-108133147D01*
X189283415Y-108118836D01*
X188680174Y-107515597D01*
X188665853Y-107498147D01*
X188596236Y-107441013D01*
X188516809Y-107398559D01*
X188430627Y-107372415D01*
X188363460Y-107365800D01*
X188363450Y-107365800D01*
X188341000Y-107363589D01*
X188318550Y-107365800D01*
X185279285Y-107365800D01*
X185188723Y-107305288D01*
X185082405Y-107261250D01*
X185007757Y-107246402D01*
X185007797Y-107246000D01*
X185007797Y-106876000D01*
X184998828Y-106784932D01*
X184972264Y-106697365D01*
X184929128Y-106616661D01*
X184876881Y-106553000D01*
X184929128Y-106489339D01*
X184972264Y-106408635D01*
X184998828Y-106321068D01*
X185007797Y-106230000D01*
X185007797Y-105860000D01*
X184998828Y-105768932D01*
X184972264Y-105681365D01*
X184929128Y-105600661D01*
X184871075Y-105529925D01*
X184800339Y-105471872D01*
X184719635Y-105428736D01*
X184632068Y-105402172D01*
X184541000Y-105393203D01*
X184271000Y-105393203D01*
X184179932Y-105402172D01*
X184092365Y-105428736D01*
X184011661Y-105471872D01*
X183940925Y-105529925D01*
X183896000Y-105584665D01*
X183851075Y-105529925D01*
X183780339Y-105471872D01*
X183699635Y-105428736D01*
X183612068Y-105402172D01*
X183521000Y-105393203D01*
X183251000Y-105393203D01*
X183159932Y-105402172D01*
X183072365Y-105428736D01*
X182991661Y-105471872D01*
X182920925Y-105529925D01*
X182873427Y-105587800D01*
X182775460Y-105587800D01*
X182753000Y-105585588D01*
X182730540Y-105587800D01*
X182612285Y-105587800D01*
X182521723Y-105527288D01*
X182415405Y-105483250D01*
X182302539Y-105460800D01*
X182187461Y-105460800D01*
X182074595Y-105483250D01*
X181968277Y-105527288D01*
X181872594Y-105591222D01*
X181791222Y-105672594D01*
X181727288Y-105768277D01*
X181683250Y-105874595D01*
X181660800Y-105987461D01*
X181660800Y-106102539D01*
X181683250Y-106215405D01*
X181727288Y-106321723D01*
X181791222Y-106417406D01*
X181872594Y-106498778D01*
X181968277Y-106562712D01*
X182074595Y-106606750D01*
X182187461Y-106629200D01*
X182295800Y-106629200D01*
X182295801Y-107673540D01*
X182293589Y-107696000D01*
X182295801Y-107718460D01*
X182302416Y-107785627D01*
X182320849Y-107846389D01*
X182328560Y-107871809D01*
X182371013Y-107951235D01*
X182411691Y-108000800D01*
X182428148Y-108020853D01*
X182445592Y-108035169D01*
X183048834Y-108638413D01*
X183063147Y-108655853D01*
X183080586Y-108670165D01*
X183080592Y-108670171D01*
X183132764Y-108712987D01*
X183212190Y-108755441D01*
X183229158Y-108760588D01*
X183298373Y-108781585D01*
X183365540Y-108788200D01*
X183365550Y-108788200D01*
X183388000Y-108790411D01*
X183410450Y-108788200D01*
X184198888Y-108788200D01*
X184190172Y-108816932D01*
X184181203Y-108908000D01*
X184181203Y-109278000D01*
X184190172Y-109369068D01*
X184216736Y-109456635D01*
X184259872Y-109537339D01*
X184317925Y-109608075D01*
X184329433Y-109617520D01*
X184280715Y-109676884D01*
X184237116Y-109758451D01*
X184210268Y-109846957D01*
X184201203Y-109939000D01*
X184201203Y-110279000D01*
X184210268Y-110371043D01*
X184237116Y-110459549D01*
X184280715Y-110541116D01*
X184339389Y-110612611D01*
X184355800Y-110626079D01*
X184355801Y-111003541D01*
X184353589Y-111026000D01*
X184355801Y-111048460D01*
X184362416Y-111115627D01*
X184375869Y-111159973D01*
X184388560Y-111201809D01*
X184431013Y-111281235D01*
X184453100Y-111308147D01*
X184488148Y-111350853D01*
X184505592Y-111365169D01*
X184697222Y-111556800D01*
X183196378Y-111556800D01*
X183083200Y-111443623D01*
X183083200Y-108988449D01*
X183085411Y-108965999D01*
X183083200Y-108943549D01*
X183083200Y-108943540D01*
X183076585Y-108876373D01*
X183050441Y-108790191D01*
X183020793Y-108734723D01*
X183007987Y-108710763D01*
X182965170Y-108658592D01*
X182950853Y-108641147D01*
X182933408Y-108626830D01*
X181305200Y-106998623D01*
X181305200Y-106285285D01*
X181365712Y-106194723D01*
X181409750Y-106088405D01*
X181432200Y-105975539D01*
X181432200Y-105860461D01*
X181409750Y-105747595D01*
X181365712Y-105641277D01*
X181301778Y-105545594D01*
X181220406Y-105464222D01*
X181124723Y-105400288D01*
X181018405Y-105356250D01*
X180905539Y-105333800D01*
X180790461Y-105333800D01*
X180677595Y-105356250D01*
X180571277Y-105400288D01*
X180475594Y-105464222D01*
X180394222Y-105545594D01*
X180330288Y-105641277D01*
X180286250Y-105747595D01*
X180263800Y-105860461D01*
X180263800Y-105975539D01*
X180286250Y-106088405D01*
X180330288Y-106194723D01*
X180390801Y-106285286D01*
X180390800Y-106978711D01*
X180369236Y-106961013D01*
X180289809Y-106918559D01*
X180203627Y-106892415D01*
X180136460Y-106885800D01*
X180136450Y-106885800D01*
X180114000Y-106883589D01*
X180091550Y-106885800D01*
X179841079Y-106885800D01*
X179827611Y-106869389D01*
X179781200Y-106831301D01*
X179781200Y-106314179D01*
X179791075Y-106306075D01*
X179849128Y-106235339D01*
X179892264Y-106154635D01*
X179918828Y-106067068D01*
X179927797Y-105976000D01*
X179927797Y-105606000D01*
X179918828Y-105514932D01*
X179892264Y-105427365D01*
X179849128Y-105346661D01*
X179791075Y-105275925D01*
X179720339Y-105217872D01*
X179639635Y-105174736D01*
X179552068Y-105148172D01*
X179461000Y-105139203D01*
X179191000Y-105139203D01*
X179099932Y-105148172D01*
X179012365Y-105174736D01*
X178931661Y-105217872D01*
X178860925Y-105275925D01*
X178816000Y-105330665D01*
X178771075Y-105275925D01*
X178700339Y-105217872D01*
X178619635Y-105174736D01*
X178532068Y-105148172D01*
X178441000Y-105139203D01*
X178171000Y-105139203D01*
X178079932Y-105148172D01*
X177992365Y-105174736D01*
X177911661Y-105217872D01*
X177840925Y-105275925D01*
X177782872Y-105346661D01*
X177739736Y-105427365D01*
X177713172Y-105514932D01*
X177704203Y-105606000D01*
X177704203Y-105976000D01*
X177713172Y-106067068D01*
X177721888Y-106095800D01*
X176893762Y-106095800D01*
X176906732Y-106053043D01*
X176915797Y-105961000D01*
X176915797Y-105621000D01*
X176906732Y-105528957D01*
X176879884Y-105440451D01*
X176836285Y-105358884D01*
X176777611Y-105287389D01*
X176706116Y-105228715D01*
X176624549Y-105185116D01*
X176536043Y-105158268D01*
X176444000Y-105149203D01*
X176164000Y-105149203D01*
X176071957Y-105158268D01*
X175983451Y-105185116D01*
X175901884Y-105228715D01*
X175830389Y-105287389D01*
X175771715Y-105358884D01*
X175728116Y-105440451D01*
X175701268Y-105528957D01*
X175692203Y-105621000D01*
X175692203Y-105731435D01*
X175691800Y-105733461D01*
X175691800Y-105848539D01*
X175692203Y-105850565D01*
X175692203Y-105961000D01*
X175701268Y-106053043D01*
X175714238Y-106095800D01*
X174378762Y-106095800D01*
X174349563Y-106066601D01*
X174253880Y-106002667D01*
X174147562Y-105958629D01*
X174034696Y-105936179D01*
X173919618Y-105936179D01*
X173806752Y-105958629D01*
X173700434Y-106002667D01*
X173604751Y-106066601D01*
X173523379Y-106147973D01*
X173459445Y-106243656D01*
X173415407Y-106349974D01*
X173394158Y-106456800D01*
X172668593Y-107182366D01*
X172651148Y-107196683D01*
X172636831Y-107214128D01*
X172636830Y-107214129D01*
X172594013Y-107266301D01*
X172559389Y-107331080D01*
X172551560Y-107345727D01*
X172525416Y-107431909D01*
X172518801Y-107499076D01*
X172516589Y-107521536D01*
X172518801Y-107543996D01*
X172518800Y-111746462D01*
X172510925Y-111752925D01*
X172466000Y-111807665D01*
X172421075Y-111752925D01*
X172350339Y-111694872D01*
X172269635Y-111651736D01*
X172182068Y-111625172D01*
X172091000Y-111616203D01*
X171821000Y-111616203D01*
X171729932Y-111625172D01*
X171673200Y-111642382D01*
X171673200Y-111081353D01*
X171713712Y-111020723D01*
X171757750Y-110914405D01*
X171780200Y-110801539D01*
X171780200Y-110686461D01*
X171757750Y-110573595D01*
X171713712Y-110467277D01*
X171649778Y-110371594D01*
X171568406Y-110290222D01*
X171472723Y-110226288D01*
X171437116Y-110211539D01*
X171301174Y-110075597D01*
X171286853Y-110058147D01*
X171217236Y-110001013D01*
X171137809Y-109958559D01*
X171051627Y-109932415D01*
X171009797Y-109928295D01*
X171009797Y-109733000D01*
X171003422Y-109668270D01*
X170992723Y-109633000D01*
X171003422Y-109597730D01*
X171009797Y-109533000D01*
X171009797Y-109233000D01*
X171003422Y-109168270D01*
X170984540Y-109106027D01*
X170953879Y-109048663D01*
X170912616Y-108998384D01*
X170862337Y-108957121D01*
X170804973Y-108926460D01*
X170742730Y-108907578D01*
X170678000Y-108901203D01*
X169428000Y-108901203D01*
X169363270Y-108907578D01*
X169301027Y-108926460D01*
X169265200Y-108945609D01*
X169265200Y-105130200D01*
X191668801Y-105130200D01*
X191668800Y-118008800D01*
%TA.AperFunction,Conductor*%
D17*
G36*
X191668800Y-118008800D02*
G01*
X169265200Y-118008800D01*
X169265200Y-116782000D01*
X172878203Y-116782000D01*
X172878203Y-117152000D01*
X172887172Y-117243068D01*
X172913736Y-117330635D01*
X172956872Y-117411339D01*
X173014925Y-117482075D01*
X173085661Y-117540128D01*
X173166365Y-117583264D01*
X173253932Y-117609828D01*
X173345000Y-117618797D01*
X173615000Y-117618797D01*
X173706068Y-117609828D01*
X173793635Y-117583264D01*
X173874339Y-117540128D01*
X173945075Y-117482075D01*
X174003128Y-117411339D01*
X174046264Y-117330635D01*
X174072828Y-117243068D01*
X174081797Y-117152000D01*
X174081797Y-116782000D01*
X174072828Y-116690932D01*
X174046264Y-116603365D01*
X174003128Y-116522661D01*
X173945075Y-116451925D01*
X173874339Y-116393872D01*
X173793635Y-116350736D01*
X173706068Y-116324172D01*
X173615000Y-116315203D01*
X173345000Y-116315203D01*
X173253932Y-116324172D01*
X173166365Y-116350736D01*
X173085661Y-116393872D01*
X173014925Y-116451925D01*
X172956872Y-116522661D01*
X172913736Y-116603365D01*
X172887172Y-116690932D01*
X172878203Y-116782000D01*
X169265200Y-116782000D01*
X169265200Y-114320391D01*
X169301027Y-114339540D01*
X169363270Y-114358422D01*
X169428000Y-114364797D01*
X170678000Y-114364797D01*
X170742730Y-114358422D01*
X170804973Y-114339540D01*
X170862337Y-114308879D01*
X170912616Y-114267616D01*
X170940799Y-114233275D01*
X170940800Y-115368539D01*
X170938588Y-115390999D01*
X170940800Y-115413459D01*
X170947415Y-115480626D01*
X170960832Y-115524854D01*
X170973559Y-115566808D01*
X171016012Y-115646234D01*
X171058690Y-115698236D01*
X171073147Y-115715852D01*
X171090591Y-115730168D01*
X171298830Y-115938408D01*
X171313147Y-115955853D01*
X171382764Y-116012987D01*
X171400028Y-116022215D01*
X171418460Y-116082973D01*
X171449121Y-116140337D01*
X171490384Y-116190616D01*
X171540663Y-116231879D01*
X171598027Y-116262540D01*
X171660270Y-116281422D01*
X171725000Y-116287797D01*
X172785000Y-116287797D01*
X172849730Y-116281422D01*
X172911973Y-116262540D01*
X172969337Y-116231879D01*
X173019616Y-116190616D01*
X173060879Y-116140337D01*
X173091540Y-116082973D01*
X173110422Y-116020730D01*
X173116797Y-115956000D01*
X173116797Y-115306000D01*
X173110422Y-115241270D01*
X173091540Y-115179027D01*
X173060879Y-115121663D01*
X173019616Y-115071384D01*
X172969337Y-115030121D01*
X172911973Y-114999460D01*
X172849730Y-114980578D01*
X172785000Y-114974203D01*
X171855199Y-114974203D01*
X171855199Y-114387797D01*
X172785000Y-114387797D01*
X172849730Y-114381422D01*
X172911973Y-114362540D01*
X172969337Y-114331879D01*
X173019616Y-114290616D01*
X173031994Y-114275533D01*
X173049087Y-114331879D01*
X173057560Y-114359810D01*
X173070490Y-114384000D01*
X173100014Y-114439237D01*
X173157148Y-114508854D01*
X173174593Y-114523171D01*
X173708191Y-115056770D01*
X173690384Y-115071384D01*
X173649121Y-115121663D01*
X173618460Y-115179027D01*
X173599578Y-115241270D01*
X173593203Y-115306000D01*
X173593203Y-115956000D01*
X173599578Y-116020730D01*
X173618460Y-116082973D01*
X173649121Y-116140337D01*
X173690384Y-116190616D01*
X173740663Y-116231879D01*
X173798027Y-116262540D01*
X173860270Y-116281422D01*
X173925000Y-116287797D01*
X174985000Y-116287797D01*
X175049730Y-116281422D01*
X175111973Y-116262540D01*
X175169337Y-116231879D01*
X175219616Y-116190616D01*
X175260879Y-116140337D01*
X175288746Y-116088200D01*
X175499168Y-116088200D01*
X175521618Y-116090411D01*
X175544068Y-116088200D01*
X175544078Y-116088200D01*
X175611245Y-116081585D01*
X175697427Y-116055441D01*
X175776854Y-116012987D01*
X175846471Y-115955853D01*
X175860792Y-115938403D01*
X176338378Y-115460818D01*
X176853375Y-115460818D01*
X176847661Y-115463872D01*
X176776925Y-115521925D01*
X176718872Y-115592661D01*
X176675736Y-115673365D01*
X176649172Y-115760932D01*
X176640203Y-115852000D01*
X176640203Y-116122000D01*
X176649172Y-116213068D01*
X176675736Y-116300635D01*
X176718872Y-116381339D01*
X176776925Y-116452075D01*
X176831665Y-116497000D01*
X176776925Y-116541925D01*
X176718872Y-116612661D01*
X176715500Y-116618970D01*
X176712128Y-116612661D01*
X176654075Y-116541925D01*
X176583339Y-116483872D01*
X176502635Y-116440736D01*
X176415068Y-116414172D01*
X176324000Y-116405203D01*
X176319169Y-116405203D01*
X176206539Y-116382800D01*
X176091461Y-116382800D01*
X175978831Y-116405203D01*
X175954000Y-116405203D01*
X175862932Y-116414172D01*
X175775365Y-116440736D01*
X175694661Y-116483872D01*
X175623925Y-116541925D01*
X175565872Y-116612661D01*
X175522736Y-116693365D01*
X175496172Y-116780932D01*
X175487203Y-116872000D01*
X175487203Y-117142000D01*
X175496172Y-117233068D01*
X175522736Y-117320635D01*
X175565872Y-117401339D01*
X175623925Y-117472075D01*
X175694661Y-117530128D01*
X175775365Y-117573264D01*
X175862932Y-117599828D01*
X175954000Y-117608797D01*
X176324000Y-117608797D01*
X176415068Y-117599828D01*
X176502635Y-117573264D01*
X176583339Y-117530128D01*
X176654075Y-117472075D01*
X176712128Y-117401339D01*
X176715500Y-117395030D01*
X176718872Y-117401339D01*
X176776925Y-117472075D01*
X176847661Y-117530128D01*
X176928365Y-117573264D01*
X177015932Y-117599828D01*
X177107000Y-117608797D01*
X177477000Y-117608797D01*
X177568068Y-117599828D01*
X177655635Y-117573264D01*
X177736339Y-117530128D01*
X177807075Y-117472075D01*
X177865128Y-117401339D01*
X177908264Y-117320635D01*
X177934828Y-117233068D01*
X177943797Y-117142000D01*
X177943797Y-116872000D01*
X177934828Y-116780932D01*
X177908264Y-116693365D01*
X177865128Y-116612661D01*
X177807075Y-116541925D01*
X177752335Y-116497000D01*
X177807075Y-116452075D01*
X177813538Y-116444200D01*
X177995540Y-116444200D01*
X178018000Y-116446412D01*
X178040460Y-116444200D01*
X179378338Y-116444200D01*
X179368925Y-116451925D01*
X179310872Y-116522661D01*
X179267736Y-116603365D01*
X179241172Y-116690932D01*
X179232203Y-116782000D01*
X179232203Y-117152000D01*
X179241172Y-117243068D01*
X179267736Y-117330635D01*
X179310872Y-117411339D01*
X179368925Y-117482075D01*
X179439661Y-117540128D01*
X179520365Y-117583264D01*
X179607932Y-117609828D01*
X179699000Y-117618797D01*
X179969000Y-117618797D01*
X180060068Y-117609828D01*
X180147635Y-117583264D01*
X180228339Y-117540128D01*
X180299075Y-117482075D01*
X180357128Y-117411339D01*
X180400264Y-117330635D01*
X180426828Y-117243068D01*
X180435797Y-117152000D01*
X180435797Y-116782000D01*
X180426828Y-116690932D01*
X180400264Y-116603365D01*
X180357128Y-116522661D01*
X180299075Y-116451925D01*
X180289662Y-116444200D01*
X181385771Y-116444200D01*
X181362389Y-116463389D01*
X181303715Y-116534884D01*
X181260116Y-116616451D01*
X181233268Y-116704957D01*
X181224203Y-116797000D01*
X181224203Y-117137000D01*
X181233268Y-117229043D01*
X181260116Y-117317549D01*
X181303715Y-117399116D01*
X181362389Y-117470611D01*
X181433884Y-117529285D01*
X181515451Y-117572884D01*
X181603957Y-117599732D01*
X181696000Y-117608797D01*
X181976000Y-117608797D01*
X182068043Y-117599732D01*
X182156549Y-117572884D01*
X182238116Y-117529285D01*
X182309611Y-117470611D01*
X182368285Y-117399116D01*
X182411884Y-117317549D01*
X182438732Y-117229043D01*
X182447797Y-117137000D01*
X182447797Y-117026565D01*
X182448200Y-117024539D01*
X182448200Y-116909461D01*
X182447797Y-116907435D01*
X182447797Y-116797000D01*
X182438732Y-116704957D01*
X182411884Y-116616451D01*
X182368285Y-116534884D01*
X182321200Y-116477510D01*
X182321200Y-116444200D01*
X184838991Y-116444200D01*
X184861441Y-116446411D01*
X184883891Y-116444200D01*
X184883901Y-116444200D01*
X184951068Y-116437585D01*
X185037250Y-116411441D01*
X185116677Y-116368987D01*
X185186294Y-116311853D01*
X185200615Y-116294403D01*
X188013408Y-113481611D01*
X188030853Y-113467294D01*
X188087987Y-113397677D01*
X188130441Y-113318250D01*
X188156585Y-113232068D01*
X188163200Y-113164901D01*
X188163200Y-113164891D01*
X188165411Y-113142441D01*
X188163200Y-113119991D01*
X188163200Y-111782449D01*
X188165411Y-111759999D01*
X188163200Y-111737549D01*
X188163200Y-111737540D01*
X188156585Y-111670373D01*
X188130441Y-111584191D01*
X188103079Y-111533000D01*
X188087987Y-111504763D01*
X188045170Y-111452592D01*
X188030853Y-111435147D01*
X188013409Y-111420831D01*
X187803777Y-111211200D01*
X188372050Y-111211200D01*
X188394500Y-111213411D01*
X188416950Y-111211200D01*
X188416960Y-111211200D01*
X188484127Y-111204585D01*
X188570309Y-111178441D01*
X188649736Y-111135987D01*
X188719353Y-111078853D01*
X188733674Y-111061403D01*
X189283408Y-110511670D01*
X189300853Y-110497353D01*
X189357987Y-110427736D01*
X189400441Y-110348309D01*
X189426585Y-110262127D01*
X189433200Y-110194960D01*
X189433200Y-110194951D01*
X189435411Y-110172501D01*
X189433200Y-110150051D01*
X189433200Y-108480450D01*
X189435411Y-108458000D01*
X189433200Y-108435550D01*
X189433200Y-108435540D01*
X189426585Y-108368373D01*
X189406526Y-108302249D01*
X189400441Y-108282190D01*
X189357987Y-108202764D01*
X189315171Y-108150592D01*
X189315165Y-108150586D01*
X189300853Y-108133147D01*
X189283415Y-108118836D01*
X188680174Y-107515597D01*
X188665853Y-107498147D01*
X188596236Y-107441013D01*
X188516809Y-107398559D01*
X188430627Y-107372415D01*
X188363460Y-107365800D01*
X188363450Y-107365800D01*
X188341000Y-107363589D01*
X188318550Y-107365800D01*
X185279285Y-107365800D01*
X185188723Y-107305288D01*
X185082405Y-107261250D01*
X185007757Y-107246402D01*
X185007797Y-107246000D01*
X185007797Y-106876000D01*
X184998828Y-106784932D01*
X184972264Y-106697365D01*
X184929128Y-106616661D01*
X184876881Y-106553000D01*
X184929128Y-106489339D01*
X184972264Y-106408635D01*
X184998828Y-106321068D01*
X185007797Y-106230000D01*
X185007797Y-105860000D01*
X184998828Y-105768932D01*
X184972264Y-105681365D01*
X184929128Y-105600661D01*
X184871075Y-105529925D01*
X184800339Y-105471872D01*
X184719635Y-105428736D01*
X184632068Y-105402172D01*
X184541000Y-105393203D01*
X184271000Y-105393203D01*
X184179932Y-105402172D01*
X184092365Y-105428736D01*
X184011661Y-105471872D01*
X183940925Y-105529925D01*
X183896000Y-105584665D01*
X183851075Y-105529925D01*
X183780339Y-105471872D01*
X183699635Y-105428736D01*
X183612068Y-105402172D01*
X183521000Y-105393203D01*
X183251000Y-105393203D01*
X183159932Y-105402172D01*
X183072365Y-105428736D01*
X182991661Y-105471872D01*
X182920925Y-105529925D01*
X182873427Y-105587800D01*
X182775460Y-105587800D01*
X182753000Y-105585588D01*
X182730540Y-105587800D01*
X182612285Y-105587800D01*
X182521723Y-105527288D01*
X182415405Y-105483250D01*
X182302539Y-105460800D01*
X182187461Y-105460800D01*
X182074595Y-105483250D01*
X181968277Y-105527288D01*
X181872594Y-105591222D01*
X181791222Y-105672594D01*
X181727288Y-105768277D01*
X181683250Y-105874595D01*
X181660800Y-105987461D01*
X181660800Y-106102539D01*
X181683250Y-106215405D01*
X181727288Y-106321723D01*
X181791222Y-106417406D01*
X181872594Y-106498778D01*
X181968277Y-106562712D01*
X182074595Y-106606750D01*
X182187461Y-106629200D01*
X182295800Y-106629200D01*
X182295801Y-107673540D01*
X182293589Y-107696000D01*
X182295801Y-107718460D01*
X182302416Y-107785627D01*
X182320849Y-107846389D01*
X182328560Y-107871809D01*
X182371013Y-107951235D01*
X182411691Y-108000800D01*
X182428148Y-108020853D01*
X182445592Y-108035169D01*
X183048834Y-108638413D01*
X183063147Y-108655853D01*
X183080586Y-108670165D01*
X183080592Y-108670171D01*
X183132764Y-108712987D01*
X183212190Y-108755441D01*
X183229158Y-108760588D01*
X183298373Y-108781585D01*
X183365540Y-108788200D01*
X183365550Y-108788200D01*
X183388000Y-108790411D01*
X183410450Y-108788200D01*
X184198888Y-108788200D01*
X184190172Y-108816932D01*
X184181203Y-108908000D01*
X184181203Y-109278000D01*
X184190172Y-109369068D01*
X184216736Y-109456635D01*
X184259872Y-109537339D01*
X184317925Y-109608075D01*
X184329433Y-109617520D01*
X184280715Y-109676884D01*
X184237116Y-109758451D01*
X184210268Y-109846957D01*
X184201203Y-109939000D01*
X184201203Y-110279000D01*
X184210268Y-110371043D01*
X184237116Y-110459549D01*
X184280715Y-110541116D01*
X184339389Y-110612611D01*
X184355800Y-110626079D01*
X184355801Y-111003541D01*
X184353589Y-111026000D01*
X184355801Y-111048460D01*
X184362416Y-111115627D01*
X184375869Y-111159973D01*
X184388560Y-111201809D01*
X184431013Y-111281235D01*
X184453100Y-111308147D01*
X184488148Y-111350853D01*
X184505592Y-111365169D01*
X184697222Y-111556800D01*
X183196378Y-111556800D01*
X183083200Y-111443623D01*
X183083200Y-108988449D01*
X183085411Y-108965999D01*
X183083200Y-108943549D01*
X183083200Y-108943540D01*
X183076585Y-108876373D01*
X183050441Y-108790191D01*
X183020793Y-108734723D01*
X183007987Y-108710763D01*
X182965170Y-108658592D01*
X182950853Y-108641147D01*
X182933408Y-108626830D01*
X181305200Y-106998623D01*
X181305200Y-106285285D01*
X181365712Y-106194723D01*
X181409750Y-106088405D01*
X181432200Y-105975539D01*
X181432200Y-105860461D01*
X181409750Y-105747595D01*
X181365712Y-105641277D01*
X181301778Y-105545594D01*
X181220406Y-105464222D01*
X181124723Y-105400288D01*
X181018405Y-105356250D01*
X180905539Y-105333800D01*
X180790461Y-105333800D01*
X180677595Y-105356250D01*
X180571277Y-105400288D01*
X180475594Y-105464222D01*
X180394222Y-105545594D01*
X180330288Y-105641277D01*
X180286250Y-105747595D01*
X180263800Y-105860461D01*
X180263800Y-105975539D01*
X180286250Y-106088405D01*
X180330288Y-106194723D01*
X180390801Y-106285286D01*
X180390800Y-106978711D01*
X180369236Y-106961013D01*
X180289809Y-106918559D01*
X180203627Y-106892415D01*
X180136460Y-106885800D01*
X180136450Y-106885800D01*
X180114000Y-106883589D01*
X180091550Y-106885800D01*
X179841079Y-106885800D01*
X179827611Y-106869389D01*
X179781200Y-106831301D01*
X179781200Y-106314179D01*
X179791075Y-106306075D01*
X179849128Y-106235339D01*
X179892264Y-106154635D01*
X179918828Y-106067068D01*
X179927797Y-105976000D01*
X179927797Y-105606000D01*
X179918828Y-105514932D01*
X179892264Y-105427365D01*
X179849128Y-105346661D01*
X179791075Y-105275925D01*
X179720339Y-105217872D01*
X179639635Y-105174736D01*
X179552068Y-105148172D01*
X179461000Y-105139203D01*
X179191000Y-105139203D01*
X179099932Y-105148172D01*
X179012365Y-105174736D01*
X178931661Y-105217872D01*
X178860925Y-105275925D01*
X178816000Y-105330665D01*
X178771075Y-105275925D01*
X178700339Y-105217872D01*
X178619635Y-105174736D01*
X178532068Y-105148172D01*
X178441000Y-105139203D01*
X178171000Y-105139203D01*
X178079932Y-105148172D01*
X177992365Y-105174736D01*
X177911661Y-105217872D01*
X177840925Y-105275925D01*
X177782872Y-105346661D01*
X177739736Y-105427365D01*
X177713172Y-105514932D01*
X177704203Y-105606000D01*
X177704203Y-105976000D01*
X177713172Y-106067068D01*
X177721888Y-106095800D01*
X176893762Y-106095800D01*
X176906732Y-106053043D01*
X176915797Y-105961000D01*
X176915797Y-105621000D01*
X176906732Y-105528957D01*
X176879884Y-105440451D01*
X176836285Y-105358884D01*
X176777611Y-105287389D01*
X176706116Y-105228715D01*
X176624549Y-105185116D01*
X176536043Y-105158268D01*
X176444000Y-105149203D01*
X176164000Y-105149203D01*
X176071957Y-105158268D01*
X175983451Y-105185116D01*
X175901884Y-105228715D01*
X175830389Y-105287389D01*
X175771715Y-105358884D01*
X175728116Y-105440451D01*
X175701268Y-105528957D01*
X175692203Y-105621000D01*
X175692203Y-105731435D01*
X175691800Y-105733461D01*
X175691800Y-105848539D01*
X175692203Y-105850565D01*
X175692203Y-105961000D01*
X175701268Y-106053043D01*
X175714238Y-106095800D01*
X174378762Y-106095800D01*
X174349563Y-106066601D01*
X174253880Y-106002667D01*
X174147562Y-105958629D01*
X174034696Y-105936179D01*
X173919618Y-105936179D01*
X173806752Y-105958629D01*
X173700434Y-106002667D01*
X173604751Y-106066601D01*
X173523379Y-106147973D01*
X173459445Y-106243656D01*
X173415407Y-106349974D01*
X173394158Y-106456800D01*
X172668593Y-107182366D01*
X172651148Y-107196683D01*
X172636831Y-107214128D01*
X172636830Y-107214129D01*
X172594013Y-107266301D01*
X172559389Y-107331080D01*
X172551560Y-107345727D01*
X172525416Y-107431909D01*
X172518801Y-107499076D01*
X172516589Y-107521536D01*
X172518801Y-107543996D01*
X172518800Y-111746462D01*
X172510925Y-111752925D01*
X172466000Y-111807665D01*
X172421075Y-111752925D01*
X172350339Y-111694872D01*
X172269635Y-111651736D01*
X172182068Y-111625172D01*
X172091000Y-111616203D01*
X171821000Y-111616203D01*
X171729932Y-111625172D01*
X171673200Y-111642382D01*
X171673200Y-111081353D01*
X171713712Y-111020723D01*
X171757750Y-110914405D01*
X171780200Y-110801539D01*
X171780200Y-110686461D01*
X171757750Y-110573595D01*
X171713712Y-110467277D01*
X171649778Y-110371594D01*
X171568406Y-110290222D01*
X171472723Y-110226288D01*
X171437116Y-110211539D01*
X171301174Y-110075597D01*
X171286853Y-110058147D01*
X171217236Y-110001013D01*
X171137809Y-109958559D01*
X171051627Y-109932415D01*
X171009797Y-109928295D01*
X171009797Y-109733000D01*
X171003422Y-109668270D01*
X170992723Y-109633000D01*
X171003422Y-109597730D01*
X171009797Y-109533000D01*
X171009797Y-109233000D01*
X171003422Y-109168270D01*
X170984540Y-109106027D01*
X170953879Y-109048663D01*
X170912616Y-108998384D01*
X170862337Y-108957121D01*
X170804973Y-108926460D01*
X170742730Y-108907578D01*
X170678000Y-108901203D01*
X169428000Y-108901203D01*
X169363270Y-108907578D01*
X169301027Y-108926460D01*
X169265200Y-108945609D01*
X169265200Y-105130200D01*
X191668801Y-105130200D01*
X191668800Y-118008800D01*
G37*
%TD.AperFunction*%
D16*
X178860925Y-106306075D02*
X178866801Y-106310897D01*
X178866800Y-106831300D01*
X178820389Y-106869389D01*
X178761715Y-106940884D01*
X178718116Y-107022451D01*
X178691268Y-107110957D01*
X178682203Y-107203000D01*
X178682203Y-107483000D01*
X178691268Y-107575043D01*
X178718116Y-107663549D01*
X178761715Y-107745116D01*
X178820389Y-107816611D01*
X178891884Y-107875285D01*
X178973451Y-107918884D01*
X179061957Y-107945732D01*
X179154000Y-107954797D01*
X179494000Y-107954797D01*
X179586043Y-107945732D01*
X179674549Y-107918884D01*
X179756116Y-107875285D01*
X179827611Y-107816611D01*
X179841079Y-107800200D01*
X179924623Y-107800200D01*
X180646001Y-108521579D01*
X180667250Y-108628405D01*
X180711288Y-108734723D01*
X180775222Y-108830406D01*
X180856594Y-108911778D01*
X180952277Y-108975712D01*
X181058595Y-109019750D01*
X181099383Y-109027863D01*
X181097203Y-109050000D01*
X181097203Y-109390000D01*
X181106268Y-109482043D01*
X181133116Y-109570549D01*
X181176715Y-109652116D01*
X181235389Y-109723611D01*
X181251800Y-109737079D01*
X181251800Y-109755203D01*
X180971000Y-109755203D01*
X180906270Y-109761578D01*
X180844027Y-109780460D01*
X180786663Y-109811121D01*
X180736384Y-109852384D01*
X180721000Y-109871129D01*
X180705616Y-109852384D01*
X180655337Y-109811121D01*
X180597973Y-109780460D01*
X180535730Y-109761578D01*
X180471000Y-109755203D01*
X179271000Y-109755203D01*
X179206270Y-109761578D01*
X179144027Y-109780460D01*
X179086663Y-109811121D01*
X179036384Y-109852384D01*
X178995121Y-109902663D01*
X178964460Y-109960027D01*
X178945578Y-110022270D01*
X178939203Y-110087000D01*
X178939203Y-111487000D01*
X178945578Y-111551730D01*
X178964460Y-111613973D01*
X178995121Y-111671337D01*
X179036384Y-111721616D01*
X179086663Y-111762879D01*
X179144027Y-111793540D01*
X179206270Y-111812422D01*
X179271000Y-111818797D01*
X180471000Y-111818797D01*
X180535730Y-111812422D01*
X180597973Y-111793540D01*
X180655337Y-111762879D01*
X180705616Y-111721616D01*
X180721000Y-111702871D01*
X180736384Y-111721616D01*
X180786663Y-111762879D01*
X180844027Y-111793540D01*
X180906270Y-111812422D01*
X180971000Y-111818797D01*
X182171000Y-111818797D01*
X182205103Y-111815438D01*
X182244013Y-111888235D01*
X182301147Y-111957853D01*
X182318597Y-111972174D01*
X182367644Y-112021221D01*
X182355337Y-112011121D01*
X182297973Y-111980460D01*
X182235730Y-111961578D01*
X182171000Y-111955203D01*
X180971000Y-111955203D01*
X180906270Y-111961578D01*
X180844027Y-111980460D01*
X180786663Y-112011121D01*
X180736384Y-112052384D01*
X180721000Y-112071129D01*
X180705616Y-112052384D01*
X180655337Y-112011121D01*
X180597973Y-111980460D01*
X180535730Y-111961578D01*
X180471000Y-111955203D01*
X179271000Y-111955203D01*
X179206270Y-111961578D01*
X179144027Y-111980460D01*
X179086663Y-112011121D01*
X179036384Y-112052384D01*
X178995121Y-112102663D01*
X178964460Y-112160027D01*
X178945578Y-112222270D01*
X178939203Y-112287000D01*
X178939203Y-113687000D01*
X178945578Y-113751730D01*
X178964460Y-113813973D01*
X178995121Y-113871337D01*
X179036384Y-113921616D01*
X179086663Y-113962879D01*
X179144027Y-113993540D01*
X179206270Y-114012422D01*
X179271000Y-114018797D01*
X180471000Y-114018797D01*
X180535730Y-114012422D01*
X180597973Y-113993540D01*
X180655337Y-113962879D01*
X180705616Y-113921616D01*
X180721000Y-113902871D01*
X180736384Y-113921616D01*
X180786663Y-113962879D01*
X180844027Y-113993540D01*
X180906270Y-114012422D01*
X180971000Y-114018797D01*
X181251800Y-114018797D01*
X181251800Y-114036921D01*
X181235389Y-114050389D01*
X181176715Y-114121884D01*
X181133116Y-114203451D01*
X181106268Y-114291957D01*
X181097203Y-114384000D01*
X181097203Y-114724000D01*
X181106268Y-114816043D01*
X181133116Y-114904549D01*
X181176546Y-114985800D01*
X178878378Y-114985800D01*
X178638200Y-114745623D01*
X178638200Y-111147449D01*
X178640411Y-111124999D01*
X178638200Y-111102549D01*
X178638200Y-111102540D01*
X178631585Y-111035373D01*
X178605441Y-110949191D01*
X178562987Y-110869764D01*
X178505853Y-110800147D01*
X178488409Y-110785831D01*
X176871174Y-109168597D01*
X176856853Y-109151147D01*
X176787236Y-109094013D01*
X176707809Y-109051559D01*
X176693980Y-109047364D01*
X176664075Y-109010925D01*
X176609335Y-108966000D01*
X176664075Y-108921075D01*
X176722128Y-108850339D01*
X176765264Y-108769635D01*
X176791828Y-108682068D01*
X176800797Y-108591000D01*
X176800797Y-108321000D01*
X176791828Y-108229932D01*
X176765264Y-108142365D01*
X176722128Y-108061661D01*
X176664075Y-107990925D01*
X176593339Y-107932872D01*
X176512635Y-107889736D01*
X176425068Y-107863172D01*
X176334000Y-107854203D01*
X175964000Y-107854203D01*
X175872932Y-107863172D01*
X175785365Y-107889736D01*
X175704661Y-107932872D01*
X175633925Y-107990925D01*
X175575872Y-108061661D01*
X175532736Y-108142365D01*
X175506172Y-108229932D01*
X175497203Y-108321000D01*
X175497203Y-108591000D01*
X175506172Y-108682068D01*
X175532736Y-108769635D01*
X175575872Y-108850339D01*
X175633925Y-108921075D01*
X175688665Y-108966000D01*
X175633925Y-109010925D01*
X175575872Y-109081661D01*
X175532736Y-109162365D01*
X175506172Y-109249932D01*
X175497203Y-109341000D01*
X175497203Y-109611000D01*
X175506172Y-109702068D01*
X175532736Y-109789635D01*
X175575872Y-109870339D01*
X175633925Y-109941075D01*
X175683791Y-109982000D01*
X175633925Y-110022925D01*
X175575872Y-110093661D01*
X175532736Y-110174365D01*
X175506172Y-110261932D01*
X175497203Y-110353000D01*
X175497203Y-110623000D01*
X175506172Y-110714068D01*
X175532736Y-110801635D01*
X175575872Y-110882339D01*
X175633925Y-110953075D01*
X175688665Y-110998000D01*
X175633925Y-111042925D01*
X175575872Y-111113661D01*
X175532736Y-111194365D01*
X175506172Y-111281932D01*
X175497203Y-111373000D01*
X175497203Y-111643000D01*
X175506172Y-111734068D01*
X175532736Y-111821635D01*
X175575872Y-111902339D01*
X175633925Y-111973075D01*
X175704661Y-112031128D01*
X175785365Y-112074264D01*
X175872932Y-112100828D01*
X175964000Y-112109797D01*
X176334000Y-112109797D01*
X176425068Y-112100828D01*
X176512635Y-112074264D01*
X176593339Y-112031128D01*
X176664075Y-111973075D01*
X176722128Y-111902339D01*
X176765264Y-111821635D01*
X176791828Y-111734068D01*
X176800797Y-111643000D01*
X176800797Y-111373000D01*
X176791828Y-111281932D01*
X176765264Y-111194365D01*
X176722128Y-111113661D01*
X176664075Y-111042925D01*
X176609335Y-110998000D01*
X176664075Y-110953075D01*
X176722128Y-110882339D01*
X176765264Y-110801635D01*
X176791828Y-110714068D01*
X176800797Y-110623000D01*
X176800797Y-110391374D01*
X177723800Y-111314378D01*
X177723800Y-111970170D01*
X177655635Y-111933736D01*
X177568068Y-111907172D01*
X177477000Y-111898203D01*
X177107000Y-111898203D01*
X177015932Y-111907172D01*
X176928365Y-111933736D01*
X176847661Y-111976872D01*
X176776925Y-112034925D01*
X176718872Y-112105661D01*
X176675736Y-112186365D01*
X176649172Y-112273932D01*
X176640203Y-112365000D01*
X176640203Y-112635000D01*
X176649172Y-112726068D01*
X176675736Y-112813635D01*
X176718872Y-112894339D01*
X176776925Y-112965075D01*
X176831665Y-113010000D01*
X176776925Y-113054925D01*
X176720032Y-113124248D01*
X176711285Y-113107884D01*
X176652611Y-113036389D01*
X176581116Y-112977715D01*
X176499549Y-112934116D01*
X176411043Y-112907268D01*
X176319000Y-112898203D01*
X175979000Y-112898203D01*
X175886957Y-112907268D01*
X175798451Y-112934116D01*
X175716884Y-112977715D01*
X175645389Y-113036389D01*
X175586715Y-113107884D01*
X175543116Y-113189451D01*
X175516268Y-113277957D01*
X175507203Y-113370000D01*
X175507203Y-113650000D01*
X175516268Y-113742043D01*
X175543116Y-113830549D01*
X175586715Y-113912116D01*
X175645389Y-113983611D01*
X175691801Y-114021700D01*
X175691800Y-114814240D01*
X175332241Y-115173800D01*
X175288746Y-115173800D01*
X175260879Y-115121663D01*
X175219616Y-115071384D01*
X175169337Y-115030121D01*
X175111973Y-114999460D01*
X175049730Y-114980578D01*
X174985000Y-114974203D01*
X174895722Y-114974203D01*
X174879987Y-114944765D01*
X174822853Y-114875148D01*
X174805409Y-114860832D01*
X174332374Y-114387797D01*
X174985000Y-114387797D01*
X175049730Y-114381422D01*
X175111973Y-114362540D01*
X175169337Y-114331879D01*
X175219616Y-114290616D01*
X175260879Y-114240337D01*
X175291540Y-114182973D01*
X175310422Y-114120730D01*
X175316797Y-114056000D01*
X175316797Y-113406000D01*
X175310422Y-113341270D01*
X175291540Y-113279027D01*
X175260879Y-113221663D01*
X175219616Y-113171384D01*
X175169337Y-113130121D01*
X175111973Y-113099460D01*
X175049730Y-113080578D01*
X174985000Y-113074203D01*
X173925000Y-113074203D01*
X173860270Y-113080578D01*
X173813842Y-113094662D01*
X173806853Y-113086147D01*
X173789409Y-113071831D01*
X173467930Y-112750353D01*
X173499128Y-112712339D01*
X173542264Y-112631635D01*
X173568828Y-112544068D01*
X173577797Y-112453000D01*
X173577797Y-112083000D01*
X173568828Y-111991932D01*
X173542264Y-111904365D01*
X173499128Y-111823661D01*
X173441075Y-111752925D01*
X173433200Y-111746462D01*
X173433200Y-109144515D01*
X173438595Y-109146750D01*
X173551461Y-109169200D01*
X173666539Y-109169200D01*
X173779405Y-109146750D01*
X173885723Y-109102712D01*
X173981406Y-109038778D01*
X174062778Y-108957406D01*
X174126712Y-108861723D01*
X174170750Y-108755405D01*
X174193200Y-108642539D01*
X174193200Y-108527461D01*
X174170750Y-108414595D01*
X174126712Y-108308277D01*
X174066200Y-108217715D01*
X174066200Y-107831378D01*
X174379379Y-107518200D01*
X177102622Y-107518200D01*
X177203790Y-107619368D01*
X177203791Y-108636913D01*
X177201579Y-108659372D01*
X177203791Y-108681832D01*
X177210406Y-108748999D01*
X177216666Y-108769635D01*
X177236550Y-108835181D01*
X177279003Y-108914607D01*
X177320167Y-108964764D01*
X177336138Y-108984225D01*
X177353583Y-108998542D01*
X177628444Y-109273403D01*
X177642765Y-109290853D01*
X177685360Y-109325810D01*
X177712381Y-109347987D01*
X177751822Y-109369068D01*
X177791809Y-109390441D01*
X177877991Y-109416585D01*
X177945158Y-109423200D01*
X177945167Y-109423200D01*
X177967617Y-109425411D01*
X177990067Y-109423200D01*
X179096021Y-109423200D01*
X179124222Y-109465406D01*
X179205594Y-109546778D01*
X179301277Y-109610712D01*
X179407595Y-109654750D01*
X179520461Y-109677200D01*
X179635539Y-109677200D01*
X179748405Y-109654750D01*
X179854723Y-109610712D01*
X179950406Y-109546778D01*
X180031778Y-109465406D01*
X180095712Y-109369723D01*
X180139750Y-109263405D01*
X180162200Y-109150539D01*
X180162200Y-109035461D01*
X180139750Y-108922595D01*
X180095712Y-108816277D01*
X180031778Y-108720594D01*
X179950406Y-108639222D01*
X179854723Y-108575288D01*
X179748405Y-108531250D01*
X179635539Y-108508800D01*
X179520461Y-108508800D01*
X179504896Y-108511896D01*
X179473460Y-108508800D01*
X179473450Y-108508800D01*
X179451000Y-108506589D01*
X179428550Y-108508800D01*
X178955779Y-108508800D01*
X178959797Y-108468000D01*
X178959797Y-108198000D01*
X178950828Y-108106932D01*
X178924264Y-108019365D01*
X178881128Y-107938661D01*
X178823075Y-107867925D01*
X178752339Y-107809872D01*
X178671635Y-107766736D01*
X178584068Y-107740172D01*
X178493000Y-107731203D01*
X178123000Y-107731203D01*
X178118190Y-107731677D01*
X178118190Y-107452440D01*
X178120401Y-107429990D01*
X178118190Y-107407540D01*
X178118190Y-107407530D01*
X178111575Y-107340363D01*
X178089108Y-107266301D01*
X178085431Y-107254180D01*
X178042977Y-107174754D01*
X178000161Y-107122582D01*
X178000155Y-107122576D01*
X177985843Y-107105137D01*
X177968404Y-107090825D01*
X177887778Y-107010200D01*
X178158550Y-107010200D01*
X178181000Y-107012411D01*
X178203450Y-107010200D01*
X178203460Y-107010200D01*
X178270627Y-107003585D01*
X178356809Y-106977441D01*
X178436236Y-106934987D01*
X178505853Y-106877853D01*
X178520173Y-106860404D01*
X178613408Y-106767169D01*
X178630853Y-106752853D01*
X178687987Y-106683236D01*
X178730441Y-106603809D01*
X178756585Y-106517627D01*
X178763200Y-106450460D01*
X178763200Y-106450450D01*
X178765411Y-106428000D01*
X178763200Y-106405550D01*
X178763200Y-106312538D01*
X178771075Y-106306075D01*
X178816000Y-106251335D01*
X178860925Y-106306075D01*
%TA.AperFunction,Conductor*%
D17*
G36*
X178860925Y-106306075D02*
G01*
X178866801Y-106310897D01*
X178866800Y-106831300D01*
X178820389Y-106869389D01*
X178761715Y-106940884D01*
X178718116Y-107022451D01*
X178691268Y-107110957D01*
X178682203Y-107203000D01*
X178682203Y-107483000D01*
X178691268Y-107575043D01*
X178718116Y-107663549D01*
X178761715Y-107745116D01*
X178820389Y-107816611D01*
X178891884Y-107875285D01*
X178973451Y-107918884D01*
X179061957Y-107945732D01*
X179154000Y-107954797D01*
X179494000Y-107954797D01*
X179586043Y-107945732D01*
X179674549Y-107918884D01*
X179756116Y-107875285D01*
X179827611Y-107816611D01*
X179841079Y-107800200D01*
X179924623Y-107800200D01*
X180646001Y-108521579D01*
X180667250Y-108628405D01*
X180711288Y-108734723D01*
X180775222Y-108830406D01*
X180856594Y-108911778D01*
X180952277Y-108975712D01*
X181058595Y-109019750D01*
X181099383Y-109027863D01*
X181097203Y-109050000D01*
X181097203Y-109390000D01*
X181106268Y-109482043D01*
X181133116Y-109570549D01*
X181176715Y-109652116D01*
X181235389Y-109723611D01*
X181251800Y-109737079D01*
X181251800Y-109755203D01*
X180971000Y-109755203D01*
X180906270Y-109761578D01*
X180844027Y-109780460D01*
X180786663Y-109811121D01*
X180736384Y-109852384D01*
X180721000Y-109871129D01*
X180705616Y-109852384D01*
X180655337Y-109811121D01*
X180597973Y-109780460D01*
X180535730Y-109761578D01*
X180471000Y-109755203D01*
X179271000Y-109755203D01*
X179206270Y-109761578D01*
X179144027Y-109780460D01*
X179086663Y-109811121D01*
X179036384Y-109852384D01*
X178995121Y-109902663D01*
X178964460Y-109960027D01*
X178945578Y-110022270D01*
X178939203Y-110087000D01*
X178939203Y-111487000D01*
X178945578Y-111551730D01*
X178964460Y-111613973D01*
X178995121Y-111671337D01*
X179036384Y-111721616D01*
X179086663Y-111762879D01*
X179144027Y-111793540D01*
X179206270Y-111812422D01*
X179271000Y-111818797D01*
X180471000Y-111818797D01*
X180535730Y-111812422D01*
X180597973Y-111793540D01*
X180655337Y-111762879D01*
X180705616Y-111721616D01*
X180721000Y-111702871D01*
X180736384Y-111721616D01*
X180786663Y-111762879D01*
X180844027Y-111793540D01*
X180906270Y-111812422D01*
X180971000Y-111818797D01*
X182171000Y-111818797D01*
X182205103Y-111815438D01*
X182244013Y-111888235D01*
X182301147Y-111957853D01*
X182318597Y-111972174D01*
X182367644Y-112021221D01*
X182355337Y-112011121D01*
X182297973Y-111980460D01*
X182235730Y-111961578D01*
X182171000Y-111955203D01*
X180971000Y-111955203D01*
X180906270Y-111961578D01*
X180844027Y-111980460D01*
X180786663Y-112011121D01*
X180736384Y-112052384D01*
X180721000Y-112071129D01*
X180705616Y-112052384D01*
X180655337Y-112011121D01*
X180597973Y-111980460D01*
X180535730Y-111961578D01*
X180471000Y-111955203D01*
X179271000Y-111955203D01*
X179206270Y-111961578D01*
X179144027Y-111980460D01*
X179086663Y-112011121D01*
X179036384Y-112052384D01*
X178995121Y-112102663D01*
X178964460Y-112160027D01*
X178945578Y-112222270D01*
X178939203Y-112287000D01*
X178939203Y-113687000D01*
X178945578Y-113751730D01*
X178964460Y-113813973D01*
X178995121Y-113871337D01*
X179036384Y-113921616D01*
X179086663Y-113962879D01*
X179144027Y-113993540D01*
X179206270Y-114012422D01*
X179271000Y-114018797D01*
X180471000Y-114018797D01*
X180535730Y-114012422D01*
X180597973Y-113993540D01*
X180655337Y-113962879D01*
X180705616Y-113921616D01*
X180721000Y-113902871D01*
X180736384Y-113921616D01*
X180786663Y-113962879D01*
X180844027Y-113993540D01*
X180906270Y-114012422D01*
X180971000Y-114018797D01*
X181251800Y-114018797D01*
X181251800Y-114036921D01*
X181235389Y-114050389D01*
X181176715Y-114121884D01*
X181133116Y-114203451D01*
X181106268Y-114291957D01*
X181097203Y-114384000D01*
X181097203Y-114724000D01*
X181106268Y-114816043D01*
X181133116Y-114904549D01*
X181176546Y-114985800D01*
X178878378Y-114985800D01*
X178638200Y-114745623D01*
X178638200Y-111147449D01*
X178640411Y-111124999D01*
X178638200Y-111102549D01*
X178638200Y-111102540D01*
X178631585Y-111035373D01*
X178605441Y-110949191D01*
X178562987Y-110869764D01*
X178505853Y-110800147D01*
X178488409Y-110785831D01*
X176871174Y-109168597D01*
X176856853Y-109151147D01*
X176787236Y-109094013D01*
X176707809Y-109051559D01*
X176693980Y-109047364D01*
X176664075Y-109010925D01*
X176609335Y-108966000D01*
X176664075Y-108921075D01*
X176722128Y-108850339D01*
X176765264Y-108769635D01*
X176791828Y-108682068D01*
X176800797Y-108591000D01*
X176800797Y-108321000D01*
X176791828Y-108229932D01*
X176765264Y-108142365D01*
X176722128Y-108061661D01*
X176664075Y-107990925D01*
X176593339Y-107932872D01*
X176512635Y-107889736D01*
X176425068Y-107863172D01*
X176334000Y-107854203D01*
X175964000Y-107854203D01*
X175872932Y-107863172D01*
X175785365Y-107889736D01*
X175704661Y-107932872D01*
X175633925Y-107990925D01*
X175575872Y-108061661D01*
X175532736Y-108142365D01*
X175506172Y-108229932D01*
X175497203Y-108321000D01*
X175497203Y-108591000D01*
X175506172Y-108682068D01*
X175532736Y-108769635D01*
X175575872Y-108850339D01*
X175633925Y-108921075D01*
X175688665Y-108966000D01*
X175633925Y-109010925D01*
X175575872Y-109081661D01*
X175532736Y-109162365D01*
X175506172Y-109249932D01*
X175497203Y-109341000D01*
X175497203Y-109611000D01*
X175506172Y-109702068D01*
X175532736Y-109789635D01*
X175575872Y-109870339D01*
X175633925Y-109941075D01*
X175683791Y-109982000D01*
X175633925Y-110022925D01*
X175575872Y-110093661D01*
X175532736Y-110174365D01*
X175506172Y-110261932D01*
X175497203Y-110353000D01*
X175497203Y-110623000D01*
X175506172Y-110714068D01*
X175532736Y-110801635D01*
X175575872Y-110882339D01*
X175633925Y-110953075D01*
X175688665Y-110998000D01*
X175633925Y-111042925D01*
X175575872Y-111113661D01*
X175532736Y-111194365D01*
X175506172Y-111281932D01*
X175497203Y-111373000D01*
X175497203Y-111643000D01*
X175506172Y-111734068D01*
X175532736Y-111821635D01*
X175575872Y-111902339D01*
X175633925Y-111973075D01*
X175704661Y-112031128D01*
X175785365Y-112074264D01*
X175872932Y-112100828D01*
X175964000Y-112109797D01*
X176334000Y-112109797D01*
X176425068Y-112100828D01*
X176512635Y-112074264D01*
X176593339Y-112031128D01*
X176664075Y-111973075D01*
X176722128Y-111902339D01*
X176765264Y-111821635D01*
X176791828Y-111734068D01*
X176800797Y-111643000D01*
X176800797Y-111373000D01*
X176791828Y-111281932D01*
X176765264Y-111194365D01*
X176722128Y-111113661D01*
X176664075Y-111042925D01*
X176609335Y-110998000D01*
X176664075Y-110953075D01*
X176722128Y-110882339D01*
X176765264Y-110801635D01*
X176791828Y-110714068D01*
X176800797Y-110623000D01*
X176800797Y-110391374D01*
X177723800Y-111314378D01*
X177723800Y-111970170D01*
X177655635Y-111933736D01*
X177568068Y-111907172D01*
X177477000Y-111898203D01*
X177107000Y-111898203D01*
X177015932Y-111907172D01*
X176928365Y-111933736D01*
X176847661Y-111976872D01*
X176776925Y-112034925D01*
X176718872Y-112105661D01*
X176675736Y-112186365D01*
X176649172Y-112273932D01*
X176640203Y-112365000D01*
X176640203Y-112635000D01*
X176649172Y-112726068D01*
X176675736Y-112813635D01*
X176718872Y-112894339D01*
X176776925Y-112965075D01*
X176831665Y-113010000D01*
X176776925Y-113054925D01*
X176720032Y-113124248D01*
X176711285Y-113107884D01*
X176652611Y-113036389D01*
X176581116Y-112977715D01*
X176499549Y-112934116D01*
X176411043Y-112907268D01*
X176319000Y-112898203D01*
X175979000Y-112898203D01*
X175886957Y-112907268D01*
X175798451Y-112934116D01*
X175716884Y-112977715D01*
X175645389Y-113036389D01*
X175586715Y-113107884D01*
X175543116Y-113189451D01*
X175516268Y-113277957D01*
X175507203Y-113370000D01*
X175507203Y-113650000D01*
X175516268Y-113742043D01*
X175543116Y-113830549D01*
X175586715Y-113912116D01*
X175645389Y-113983611D01*
X175691801Y-114021700D01*
X175691800Y-114814240D01*
X175332241Y-115173800D01*
X175288746Y-115173800D01*
X175260879Y-115121663D01*
X175219616Y-115071384D01*
X175169337Y-115030121D01*
X175111973Y-114999460D01*
X175049730Y-114980578D01*
X174985000Y-114974203D01*
X174895722Y-114974203D01*
X174879987Y-114944765D01*
X174822853Y-114875148D01*
X174805409Y-114860832D01*
X174332374Y-114387797D01*
X174985000Y-114387797D01*
X175049730Y-114381422D01*
X175111973Y-114362540D01*
X175169337Y-114331879D01*
X175219616Y-114290616D01*
X175260879Y-114240337D01*
X175291540Y-114182973D01*
X175310422Y-114120730D01*
X175316797Y-114056000D01*
X175316797Y-113406000D01*
X175310422Y-113341270D01*
X175291540Y-113279027D01*
X175260879Y-113221663D01*
X175219616Y-113171384D01*
X175169337Y-113130121D01*
X175111973Y-113099460D01*
X175049730Y-113080578D01*
X174985000Y-113074203D01*
X173925000Y-113074203D01*
X173860270Y-113080578D01*
X173813842Y-113094662D01*
X173806853Y-113086147D01*
X173789409Y-113071831D01*
X173467930Y-112750353D01*
X173499128Y-112712339D01*
X173542264Y-112631635D01*
X173568828Y-112544068D01*
X173577797Y-112453000D01*
X173577797Y-112083000D01*
X173568828Y-111991932D01*
X173542264Y-111904365D01*
X173499128Y-111823661D01*
X173441075Y-111752925D01*
X173433200Y-111746462D01*
X173433200Y-109144515D01*
X173438595Y-109146750D01*
X173551461Y-109169200D01*
X173666539Y-109169200D01*
X173779405Y-109146750D01*
X173885723Y-109102712D01*
X173981406Y-109038778D01*
X174062778Y-108957406D01*
X174126712Y-108861723D01*
X174170750Y-108755405D01*
X174193200Y-108642539D01*
X174193200Y-108527461D01*
X174170750Y-108414595D01*
X174126712Y-108308277D01*
X174066200Y-108217715D01*
X174066200Y-107831378D01*
X174379379Y-107518200D01*
X177102622Y-107518200D01*
X177203790Y-107619368D01*
X177203791Y-108636913D01*
X177201579Y-108659372D01*
X177203791Y-108681832D01*
X177210406Y-108748999D01*
X177216666Y-108769635D01*
X177236550Y-108835181D01*
X177279003Y-108914607D01*
X177320167Y-108964764D01*
X177336138Y-108984225D01*
X177353583Y-108998542D01*
X177628444Y-109273403D01*
X177642765Y-109290853D01*
X177685360Y-109325810D01*
X177712381Y-109347987D01*
X177751822Y-109369068D01*
X177791809Y-109390441D01*
X177877991Y-109416585D01*
X177945158Y-109423200D01*
X177945167Y-109423200D01*
X177967617Y-109425411D01*
X177990067Y-109423200D01*
X179096021Y-109423200D01*
X179124222Y-109465406D01*
X179205594Y-109546778D01*
X179301277Y-109610712D01*
X179407595Y-109654750D01*
X179520461Y-109677200D01*
X179635539Y-109677200D01*
X179748405Y-109654750D01*
X179854723Y-109610712D01*
X179950406Y-109546778D01*
X180031778Y-109465406D01*
X180095712Y-109369723D01*
X180139750Y-109263405D01*
X180162200Y-109150539D01*
X180162200Y-109035461D01*
X180139750Y-108922595D01*
X180095712Y-108816277D01*
X180031778Y-108720594D01*
X179950406Y-108639222D01*
X179854723Y-108575288D01*
X179748405Y-108531250D01*
X179635539Y-108508800D01*
X179520461Y-108508800D01*
X179504896Y-108511896D01*
X179473460Y-108508800D01*
X179473450Y-108508800D01*
X179451000Y-108506589D01*
X179428550Y-108508800D01*
X178955779Y-108508800D01*
X178959797Y-108468000D01*
X178959797Y-108198000D01*
X178950828Y-108106932D01*
X178924264Y-108019365D01*
X178881128Y-107938661D01*
X178823075Y-107867925D01*
X178752339Y-107809872D01*
X178671635Y-107766736D01*
X178584068Y-107740172D01*
X178493000Y-107731203D01*
X178123000Y-107731203D01*
X178118190Y-107731677D01*
X178118190Y-107452440D01*
X178120401Y-107429990D01*
X178118190Y-107407540D01*
X178118190Y-107407530D01*
X178111575Y-107340363D01*
X178089108Y-107266301D01*
X178085431Y-107254180D01*
X178042977Y-107174754D01*
X178000161Y-107122582D01*
X178000155Y-107122576D01*
X177985843Y-107105137D01*
X177968404Y-107090825D01*
X177887778Y-107010200D01*
X178158550Y-107010200D01*
X178181000Y-107012411D01*
X178203450Y-107010200D01*
X178203460Y-107010200D01*
X178270627Y-107003585D01*
X178356809Y-106977441D01*
X178436236Y-106934987D01*
X178505853Y-106877853D01*
X178520173Y-106860404D01*
X178613408Y-106767169D01*
X178630853Y-106752853D01*
X178687987Y-106683236D01*
X178730441Y-106603809D01*
X178756585Y-106517627D01*
X178763200Y-106450460D01*
X178763200Y-106450450D01*
X178765411Y-106428000D01*
X178763200Y-106405550D01*
X178763200Y-106312538D01*
X178771075Y-106306075D01*
X178816000Y-106251335D01*
X178860925Y-106306075D01*
G37*
%TD.AperFunction*%
D16*
X188518800Y-108647379D02*
X188518801Y-109983121D01*
X188205123Y-110296800D01*
X187184285Y-110296800D01*
X187093723Y-110236288D01*
X186987405Y-110192250D01*
X186874539Y-110169800D01*
X186759461Y-110169800D01*
X186646595Y-110192250D01*
X186540277Y-110236288D01*
X186444594Y-110300222D01*
X186363222Y-110381594D01*
X186299288Y-110477277D01*
X186255250Y-110583595D01*
X186232800Y-110696461D01*
X186232800Y-110811539D01*
X186254732Y-110921800D01*
X185355378Y-110921800D01*
X185270200Y-110836623D01*
X185270200Y-110626079D01*
X185286611Y-110612611D01*
X185345285Y-110541116D01*
X185388884Y-110459549D01*
X185415732Y-110371043D01*
X185424797Y-110279000D01*
X185424797Y-110266079D01*
X185429712Y-110258723D01*
X185473750Y-110152405D01*
X185496200Y-110039539D01*
X185496200Y-109924461D01*
X185473750Y-109811595D01*
X185429712Y-109705277D01*
X185365778Y-109609594D01*
X185300446Y-109544262D01*
X185306128Y-109537339D01*
X185349264Y-109456635D01*
X185375828Y-109369068D01*
X185381107Y-109315464D01*
X185429712Y-109242723D01*
X185473750Y-109136405D01*
X185496200Y-109023539D01*
X185496200Y-108908461D01*
X185473750Y-108795595D01*
X185470687Y-108788200D01*
X185992623Y-108788200D01*
X186340308Y-109135887D01*
X186299288Y-109197277D01*
X186255250Y-109303595D01*
X186232800Y-109416461D01*
X186232800Y-109531539D01*
X186255250Y-109644405D01*
X186299288Y-109750723D01*
X186363222Y-109846406D01*
X186444594Y-109927778D01*
X186540277Y-109991712D01*
X186646595Y-110035750D01*
X186759461Y-110058200D01*
X186874539Y-110058200D01*
X186987405Y-110035750D01*
X187093723Y-109991712D01*
X187189406Y-109927778D01*
X187270778Y-109846406D01*
X187334712Y-109750723D01*
X187378750Y-109644405D01*
X187401200Y-109531539D01*
X187401200Y-109416461D01*
X187378750Y-109303595D01*
X187334712Y-109197277D01*
X187274200Y-109106715D01*
X187274200Y-108988450D01*
X187276411Y-108966000D01*
X187274200Y-108943550D01*
X187274200Y-108943540D01*
X187267585Y-108876373D01*
X187243833Y-108798075D01*
X187241441Y-108790190D01*
X187198987Y-108710764D01*
X187156171Y-108658592D01*
X187156165Y-108658586D01*
X187141853Y-108641147D01*
X187124415Y-108626836D01*
X186777778Y-108280200D01*
X188151623Y-108280200D01*
X188518800Y-108647379D01*
%TA.AperFunction,Conductor*%
D17*
G36*
X188518800Y-108647379D02*
G01*
X188518801Y-109983121D01*
X188205123Y-110296800D01*
X187184285Y-110296800D01*
X187093723Y-110236288D01*
X186987405Y-110192250D01*
X186874539Y-110169800D01*
X186759461Y-110169800D01*
X186646595Y-110192250D01*
X186540277Y-110236288D01*
X186444594Y-110300222D01*
X186363222Y-110381594D01*
X186299288Y-110477277D01*
X186255250Y-110583595D01*
X186232800Y-110696461D01*
X186232800Y-110811539D01*
X186254732Y-110921800D01*
X185355378Y-110921800D01*
X185270200Y-110836623D01*
X185270200Y-110626079D01*
X185286611Y-110612611D01*
X185345285Y-110541116D01*
X185388884Y-110459549D01*
X185415732Y-110371043D01*
X185424797Y-110279000D01*
X185424797Y-110266079D01*
X185429712Y-110258723D01*
X185473750Y-110152405D01*
X185496200Y-110039539D01*
X185496200Y-109924461D01*
X185473750Y-109811595D01*
X185429712Y-109705277D01*
X185365778Y-109609594D01*
X185300446Y-109544262D01*
X185306128Y-109537339D01*
X185349264Y-109456635D01*
X185375828Y-109369068D01*
X185381107Y-109315464D01*
X185429712Y-109242723D01*
X185473750Y-109136405D01*
X185496200Y-109023539D01*
X185496200Y-108908461D01*
X185473750Y-108795595D01*
X185470687Y-108788200D01*
X185992623Y-108788200D01*
X186340308Y-109135887D01*
X186299288Y-109197277D01*
X186255250Y-109303595D01*
X186232800Y-109416461D01*
X186232800Y-109531539D01*
X186255250Y-109644405D01*
X186299288Y-109750723D01*
X186363222Y-109846406D01*
X186444594Y-109927778D01*
X186540277Y-109991712D01*
X186646595Y-110035750D01*
X186759461Y-110058200D01*
X186874539Y-110058200D01*
X186987405Y-110035750D01*
X187093723Y-109991712D01*
X187189406Y-109927778D01*
X187270778Y-109846406D01*
X187334712Y-109750723D01*
X187378750Y-109644405D01*
X187401200Y-109531539D01*
X187401200Y-109416461D01*
X187378750Y-109303595D01*
X187334712Y-109197277D01*
X187274200Y-109106715D01*
X187274200Y-108988450D01*
X187276411Y-108966000D01*
X187274200Y-108943550D01*
X187274200Y-108943540D01*
X187267585Y-108876373D01*
X187243833Y-108798075D01*
X187241441Y-108790190D01*
X187198987Y-108710764D01*
X187156171Y-108658592D01*
X187156165Y-108658586D01*
X187141853Y-108641147D01*
X187124415Y-108626836D01*
X186777778Y-108280200D01*
X188151623Y-108280200D01*
X188518800Y-108647379D01*
G37*
%TD.AperFunction*%
%TD*%
M02*
