%TF.GenerationSoftware,KiCad,Pcbnew,(5.1.10)-1*%
%TF.CreationDate,2021-12-27T10:27:14+08:00*%
%TF.ProjectId,ST-Link_v2-1,53542d4c-696e-46b5-9f76-322d312e6b69,rev?*%
%TF.SameCoordinates,Original*%
%TF.FileFunction,Legend,Top*%
%TF.FilePolarity,Positive*%
%FSLAX46Y46*%
G04 Gerber Fmt 4.6, Leading zero omitted, Abs format (unit mm)*
G04 Created by KiCad (PCBNEW (5.1.10)-1) date 2021-12-27 10:27:14*
%MOMM*%
%LPD*%
G01*
G04 APERTURE LIST*
%ADD10C,0.152400*%
%ADD11C,0.120000*%
%ADD12C,0.200000*%
%ADD13R,1.850000X0.300000*%
%ADD14R,1.250000X0.300000*%
%ADD15R,1.850000X1.180000*%
%ADD16R,0.650000X1.060000*%
G04 APERTURE END LIST*
D10*
X122319142Y-82477428D02*
X122428000Y-82513714D01*
X122609428Y-82513714D01*
X122682000Y-82477428D01*
X122718285Y-82441142D01*
X122754571Y-82368571D01*
X122754571Y-82296000D01*
X122718285Y-82223428D01*
X122682000Y-82187142D01*
X122609428Y-82150857D01*
X122464285Y-82114571D01*
X122391714Y-82078285D01*
X122355428Y-82042000D01*
X122319142Y-81969428D01*
X122319142Y-81896857D01*
X122355428Y-81824285D01*
X122391714Y-81788000D01*
X122464285Y-81751714D01*
X122645714Y-81751714D01*
X122754571Y-81788000D01*
X122972285Y-81751714D02*
X123407714Y-81751714D01*
X123190000Y-82513714D02*
X123190000Y-81751714D01*
X123661714Y-82223428D02*
X124242285Y-82223428D01*
X124968000Y-82513714D02*
X124605142Y-82513714D01*
X124605142Y-81751714D01*
X125222000Y-82513714D02*
X125222000Y-82005714D01*
X125222000Y-81751714D02*
X125185714Y-81788000D01*
X125222000Y-81824285D01*
X125258285Y-81788000D01*
X125222000Y-81751714D01*
X125222000Y-81824285D01*
X125584857Y-82005714D02*
X125584857Y-82513714D01*
X125584857Y-82078285D02*
X125621142Y-82042000D01*
X125693714Y-82005714D01*
X125802571Y-82005714D01*
X125875142Y-82042000D01*
X125911428Y-82114571D01*
X125911428Y-82513714D01*
X126274285Y-82513714D02*
X126274285Y-81751714D01*
X126346857Y-82223428D02*
X126564571Y-82513714D01*
X126564571Y-82005714D02*
X126274285Y-82296000D01*
X126891142Y-82223428D02*
X127471714Y-82223428D01*
X127725714Y-81751714D02*
X127979714Y-82513714D01*
X128233714Y-81751714D01*
X128451428Y-81824285D02*
X128487714Y-81788000D01*
X128560285Y-81751714D01*
X128741714Y-81751714D01*
X128814285Y-81788000D01*
X128850571Y-81824285D01*
X128886857Y-81896857D01*
X128886857Y-81969428D01*
X128850571Y-82078285D01*
X128415142Y-82513714D01*
X128886857Y-82513714D01*
X129685142Y-81751714D02*
X129939142Y-82513714D01*
X130193142Y-81751714D01*
X130410857Y-81824285D02*
X130447142Y-81788000D01*
X130519714Y-81751714D01*
X130701142Y-81751714D01*
X130773714Y-81788000D01*
X130810000Y-81824285D01*
X130846285Y-81896857D01*
X130846285Y-81969428D01*
X130810000Y-82078285D01*
X130374571Y-82513714D01*
X130846285Y-82513714D01*
X131172857Y-82441142D02*
X131209142Y-82477428D01*
X131172857Y-82513714D01*
X131136571Y-82477428D01*
X131172857Y-82441142D01*
X131172857Y-82513714D01*
X131499428Y-81824285D02*
X131535714Y-81788000D01*
X131608285Y-81751714D01*
X131789714Y-81751714D01*
X131862285Y-81788000D01*
X131898571Y-81824285D01*
X131934857Y-81896857D01*
X131934857Y-81969428D01*
X131898571Y-82078285D01*
X131463142Y-82513714D01*
X131934857Y-82513714D01*
X122373571Y-81370714D02*
X122373571Y-80608714D01*
X122373571Y-80971571D02*
X122809000Y-80971571D01*
X122809000Y-81370714D02*
X122809000Y-80608714D01*
X123171857Y-81370714D02*
X123171857Y-80608714D01*
X123607285Y-81370714D02*
X123280714Y-80935285D01*
X123607285Y-80608714D02*
X123171857Y-81044142D01*
X123933857Y-80608714D02*
X123933857Y-81225571D01*
X123970142Y-81298142D01*
X124006428Y-81334428D01*
X124079000Y-81370714D01*
X124224142Y-81370714D01*
X124296714Y-81334428D01*
X124333000Y-81298142D01*
X124369285Y-81225571D01*
X124369285Y-80608714D01*
X124695857Y-81334428D02*
X124804714Y-81370714D01*
X124986142Y-81370714D01*
X125058714Y-81334428D01*
X125095000Y-81298142D01*
X125131285Y-81225571D01*
X125131285Y-81153000D01*
X125095000Y-81080428D01*
X125058714Y-81044142D01*
X124986142Y-81007857D01*
X124841000Y-80971571D01*
X124768428Y-80935285D01*
X124732142Y-80899000D01*
X124695857Y-80826428D01*
X124695857Y-80753857D01*
X124732142Y-80681285D01*
X124768428Y-80645000D01*
X124841000Y-80608714D01*
X125022428Y-80608714D01*
X125131285Y-80645000D01*
X125349000Y-80608714D02*
X125784428Y-80608714D01*
X125566714Y-81370714D02*
X125566714Y-80608714D01*
X127054428Y-81370714D02*
X126800428Y-81007857D01*
X126619000Y-81370714D02*
X126619000Y-80608714D01*
X126909285Y-80608714D01*
X126981857Y-80645000D01*
X127018142Y-80681285D01*
X127054428Y-80753857D01*
X127054428Y-80862714D01*
X127018142Y-80935285D01*
X126981857Y-80971571D01*
X126909285Y-81007857D01*
X126619000Y-81007857D01*
X127489857Y-81370714D02*
X127417285Y-81334428D01*
X127381000Y-81298142D01*
X127344714Y-81225571D01*
X127344714Y-81007857D01*
X127381000Y-80935285D01*
X127417285Y-80899000D01*
X127489857Y-80862714D01*
X127598714Y-80862714D01*
X127671285Y-80899000D01*
X127707571Y-80935285D01*
X127743857Y-81007857D01*
X127743857Y-81225571D01*
X127707571Y-81298142D01*
X127671285Y-81334428D01*
X127598714Y-81370714D01*
X127489857Y-81370714D01*
X128070428Y-81370714D02*
X128070428Y-80608714D01*
X128070428Y-80899000D02*
X128143000Y-80862714D01*
X128288142Y-80862714D01*
X128360714Y-80899000D01*
X128397000Y-80935285D01*
X128433285Y-81007857D01*
X128433285Y-81225571D01*
X128397000Y-81298142D01*
X128360714Y-81334428D01*
X128288142Y-81370714D01*
X128143000Y-81370714D01*
X128070428Y-81334428D01*
X128868714Y-81370714D02*
X128796142Y-81334428D01*
X128759857Y-81298142D01*
X128723571Y-81225571D01*
X128723571Y-81007857D01*
X128759857Y-80935285D01*
X128796142Y-80899000D01*
X128868714Y-80862714D01*
X128977571Y-80862714D01*
X129050142Y-80899000D01*
X129086428Y-80935285D01*
X129122714Y-81007857D01*
X129122714Y-81225571D01*
X129086428Y-81298142D01*
X129050142Y-81334428D01*
X128977571Y-81370714D01*
X128868714Y-81370714D01*
X129340428Y-80862714D02*
X129630714Y-80862714D01*
X129449285Y-80608714D02*
X129449285Y-81261857D01*
X129485571Y-81334428D01*
X129558142Y-81370714D01*
X129630714Y-81370714D01*
X129884714Y-81370714D02*
X129884714Y-80862714D01*
X129884714Y-80608714D02*
X129848428Y-80645000D01*
X129884714Y-80681285D01*
X129920999Y-80645000D01*
X129884714Y-80608714D01*
X129884714Y-80681285D01*
X130574142Y-81334428D02*
X130501571Y-81370714D01*
X130356428Y-81370714D01*
X130283857Y-81334428D01*
X130247571Y-81298142D01*
X130211285Y-81225571D01*
X130211285Y-81007857D01*
X130247571Y-80935285D01*
X130283857Y-80899000D01*
X130356428Y-80862714D01*
X130501571Y-80862714D01*
X130574142Y-80899000D01*
X130864428Y-81334428D02*
X130936999Y-81370714D01*
X131082142Y-81370714D01*
X131154714Y-81334428D01*
X131190999Y-81261857D01*
X131190999Y-81225571D01*
X131154714Y-81153000D01*
X131082142Y-81116714D01*
X130973285Y-81116714D01*
X130900714Y-81080428D01*
X130864428Y-81007857D01*
X130864428Y-80971571D01*
X130900714Y-80899000D01*
X130973285Y-80862714D01*
X131082142Y-80862714D01*
X131154714Y-80899000D01*
X131989285Y-80608714D02*
X132424714Y-80608714D01*
X132207000Y-81370714D02*
X132207000Y-80608714D01*
X132969000Y-81334428D02*
X132896428Y-81370714D01*
X132751285Y-81370714D01*
X132678714Y-81334428D01*
X132642428Y-81261857D01*
X132642428Y-80971571D01*
X132678714Y-80899000D01*
X132751285Y-80862714D01*
X132896428Y-80862714D01*
X132969000Y-80899000D01*
X133005285Y-80971571D01*
X133005285Y-81044142D01*
X132642428Y-81116714D01*
X133658428Y-81370714D02*
X133658428Y-80971571D01*
X133622142Y-80899000D01*
X133549571Y-80862714D01*
X133404428Y-80862714D01*
X133331857Y-80899000D01*
X133658428Y-81334428D02*
X133585857Y-81370714D01*
X133404428Y-81370714D01*
X133331857Y-81334428D01*
X133295571Y-81261857D01*
X133295571Y-81189285D01*
X133331857Y-81116714D01*
X133404428Y-81080428D01*
X133585857Y-81080428D01*
X133658428Y-81044142D01*
X134021285Y-81370714D02*
X134021285Y-80862714D01*
X134021285Y-80935285D02*
X134057571Y-80899000D01*
X134130142Y-80862714D01*
X134239000Y-80862714D01*
X134311571Y-80899000D01*
X134347857Y-80971571D01*
X134347857Y-81370714D01*
X134347857Y-80971571D02*
X134384142Y-80899000D01*
X134456714Y-80862714D01*
X134565571Y-80862714D01*
X134638142Y-80899000D01*
X134674428Y-80971571D01*
X134674428Y-81370714D01*
X131699000Y-96483714D02*
X131445000Y-96120857D01*
X131263571Y-96483714D02*
X131263571Y-95721714D01*
X131553857Y-95721714D01*
X131626428Y-95758000D01*
X131662714Y-95794285D01*
X131699000Y-95866857D01*
X131699000Y-95975714D01*
X131662714Y-96048285D01*
X131626428Y-96084571D01*
X131553857Y-96120857D01*
X131263571Y-96120857D01*
X131953000Y-95721714D02*
X132461000Y-96483714D01*
X132461000Y-95721714D02*
X131953000Y-96483714D01*
X139881428Y-95721714D02*
X140316857Y-95721714D01*
X140099142Y-96483714D02*
X140099142Y-95721714D01*
X140498285Y-95721714D02*
X141006285Y-96483714D01*
X141006285Y-95721714D02*
X140498285Y-96483714D01*
X127780142Y-96610714D02*
X128251857Y-96610714D01*
X127997857Y-96901000D01*
X128106714Y-96901000D01*
X128179285Y-96937285D01*
X128215571Y-96973571D01*
X128251857Y-97046142D01*
X128251857Y-97227571D01*
X128215571Y-97300142D01*
X128179285Y-97336428D01*
X128106714Y-97372714D01*
X127889000Y-97372714D01*
X127816428Y-97336428D01*
X127780142Y-97300142D01*
X128578428Y-97300142D02*
X128614714Y-97336428D01*
X128578428Y-97372714D01*
X128542142Y-97336428D01*
X128578428Y-97300142D01*
X128578428Y-97372714D01*
X128868714Y-96610714D02*
X129340428Y-96610714D01*
X129086428Y-96901000D01*
X129195285Y-96901000D01*
X129267857Y-96937285D01*
X129304142Y-96973571D01*
X129340428Y-97046142D01*
X129340428Y-97227571D01*
X129304142Y-97300142D01*
X129267857Y-97336428D01*
X129195285Y-97372714D01*
X128977571Y-97372714D01*
X128905000Y-97336428D01*
X128868714Y-97300142D01*
X129558142Y-96610714D02*
X129812142Y-97372714D01*
X130066142Y-96610714D01*
D11*
%TO.C,J1*%
X142742000Y-95020000D02*
X141292000Y-95020000D01*
X141292000Y-95020000D02*
X141292000Y-93220000D01*
X141292000Y-93220000D02*
X140302000Y-93220000D01*
X142742000Y-84050000D02*
X141292000Y-84050000D01*
X141292000Y-84050000D02*
X141292000Y-85850000D01*
X145562000Y-93750000D02*
X145562000Y-85320000D01*
D12*
%TO.C,P1*%
X124282000Y-92793000D02*
G75*
G03*
X124282000Y-92793000I-100000J0D01*
G01*
D11*
%TO.C,U2*%
X127594000Y-95474000D02*
X127594000Y-93024000D01*
X124374000Y-93674000D02*
X124374000Y-95474000D01*
%TO.C,U1*%
X131079000Y-85417000D02*
X130629000Y-85417000D01*
X130629000Y-85417000D02*
X130629000Y-85867000D01*
X137399000Y-85417000D02*
X137849000Y-85417000D01*
X137849000Y-85417000D02*
X137849000Y-85867000D01*
X131079000Y-92637000D02*
X130629000Y-92637000D01*
X130629000Y-92637000D02*
X130629000Y-92187000D01*
X137399000Y-92637000D02*
X137849000Y-92637000D01*
X137849000Y-92637000D02*
X137849000Y-92187000D01*
X137849000Y-92187000D02*
X139139000Y-92187000D01*
%TO.C,R18*%
X126211064Y-90578000D02*
X125756936Y-90578000D01*
X126211064Y-92048000D02*
X125756936Y-92048000D01*
%TO.C,R17*%
X126211064Y-88038000D02*
X125756936Y-88038000D01*
X126211064Y-89508000D02*
X125756936Y-89508000D01*
%TO.C,D5*%
X125024000Y-84725000D02*
X125024000Y-87410000D01*
X125024000Y-87410000D02*
X126944000Y-87410000D01*
X126944000Y-87410000D02*
X126944000Y-84725000D01*
%TO.C,D3*%
X132808000Y-96591000D02*
X135493000Y-96591000D01*
X132808000Y-94671000D02*
X132808000Y-96591000D01*
X135493000Y-94671000D02*
X132808000Y-94671000D01*
%TO.C,D2*%
X139607000Y-94671000D02*
X136922000Y-94671000D01*
X139607000Y-96591000D02*
X139607000Y-94671000D01*
X136922000Y-96591000D02*
X139607000Y-96591000D01*
%TO.C,D1*%
X127945000Y-93051500D02*
X127945000Y-95736500D01*
X129865000Y-93051500D02*
X127945000Y-93051500D01*
X129865000Y-95736500D02*
X129865000Y-93051500D01*
%TO.C,R18*%
D10*
X128614714Y-91802857D02*
X128251857Y-92056857D01*
X128614714Y-92238285D02*
X127852714Y-92238285D01*
X127852714Y-91948000D01*
X127889000Y-91875428D01*
X127925285Y-91839142D01*
X127997857Y-91802857D01*
X128106714Y-91802857D01*
X128179285Y-91839142D01*
X128215571Y-91875428D01*
X128251857Y-91948000D01*
X128251857Y-92238285D01*
X128614714Y-91077142D02*
X128614714Y-91512571D01*
X128614714Y-91294857D02*
X127852714Y-91294857D01*
X127961571Y-91367428D01*
X128034142Y-91440000D01*
X128070428Y-91512571D01*
X128179285Y-90641714D02*
X128143000Y-90714285D01*
X128106714Y-90750571D01*
X128034142Y-90786857D01*
X127997857Y-90786857D01*
X127925285Y-90750571D01*
X127889000Y-90714285D01*
X127852714Y-90641714D01*
X127852714Y-90496571D01*
X127889000Y-90424000D01*
X127925285Y-90387714D01*
X127997857Y-90351428D01*
X128034142Y-90351428D01*
X128106714Y-90387714D01*
X128143000Y-90424000D01*
X128179285Y-90496571D01*
X128179285Y-90641714D01*
X128215571Y-90714285D01*
X128251857Y-90750571D01*
X128324428Y-90786857D01*
X128469571Y-90786857D01*
X128542142Y-90750571D01*
X128578428Y-90714285D01*
X128614714Y-90641714D01*
X128614714Y-90496571D01*
X128578428Y-90424000D01*
X128542142Y-90387714D01*
X128469571Y-90351428D01*
X128324428Y-90351428D01*
X128251857Y-90387714D01*
X128215571Y-90424000D01*
X128179285Y-90496571D01*
%TO.C,R17*%
X128614714Y-89262857D02*
X128251857Y-89516857D01*
X128614714Y-89698285D02*
X127852714Y-89698285D01*
X127852714Y-89408000D01*
X127889000Y-89335428D01*
X127925285Y-89299142D01*
X127997857Y-89262857D01*
X128106714Y-89262857D01*
X128179285Y-89299142D01*
X128215571Y-89335428D01*
X128251857Y-89408000D01*
X128251857Y-89698285D01*
X128614714Y-88537142D02*
X128614714Y-88972571D01*
X128614714Y-88754857D02*
X127852714Y-88754857D01*
X127961571Y-88827428D01*
X128034142Y-88900000D01*
X128070428Y-88972571D01*
X127852714Y-88283142D02*
X127852714Y-87775142D01*
X128614714Y-88101714D01*
%TD*%
%LPC*%
%TO.C,J1*%
G36*
G01*
X145452000Y-85060000D02*
X143252000Y-85060000D01*
G75*
G02*
X143002000Y-84810000I0J250000D01*
G01*
X143002000Y-84310000D01*
G75*
G02*
X143252000Y-84060000I250000J0D01*
G01*
X145452000Y-84060000D01*
G75*
G02*
X145702000Y-84310000I0J-250000D01*
G01*
X145702000Y-84810000D01*
G75*
G02*
X145452000Y-85060000I-250000J0D01*
G01*
G37*
G36*
G01*
X145452000Y-95010000D02*
X143252000Y-95010000D01*
G75*
G02*
X143002000Y-94760000I0J250000D01*
G01*
X143002000Y-94260000D01*
G75*
G02*
X143252000Y-94010000I250000J0D01*
G01*
X145452000Y-94010000D01*
G75*
G02*
X145702000Y-94260000I0J-250000D01*
G01*
X145702000Y-94760000D01*
G75*
G02*
X145452000Y-95010000I-250000J0D01*
G01*
G37*
G36*
G01*
X141852000Y-86710000D02*
X140452000Y-86710000D01*
G75*
G02*
X140302000Y-86560000I0J150000D01*
G01*
X140302000Y-86260000D01*
G75*
G02*
X140452000Y-86110000I150000J0D01*
G01*
X141852000Y-86110000D01*
G75*
G02*
X142002000Y-86260000I0J-150000D01*
G01*
X142002000Y-86560000D01*
G75*
G02*
X141852000Y-86710000I-150000J0D01*
G01*
G37*
G36*
G01*
X141852000Y-87960000D02*
X140452000Y-87960000D01*
G75*
G02*
X140302000Y-87810000I0J150000D01*
G01*
X140302000Y-87510000D01*
G75*
G02*
X140452000Y-87360000I150000J0D01*
G01*
X141852000Y-87360000D01*
G75*
G02*
X142002000Y-87510000I0J-150000D01*
G01*
X142002000Y-87810000D01*
G75*
G02*
X141852000Y-87960000I-150000J0D01*
G01*
G37*
G36*
G01*
X141852000Y-89210000D02*
X140452000Y-89210000D01*
G75*
G02*
X140302000Y-89060000I0J150000D01*
G01*
X140302000Y-88760000D01*
G75*
G02*
X140452000Y-88610000I150000J0D01*
G01*
X141852000Y-88610000D01*
G75*
G02*
X142002000Y-88760000I0J-150000D01*
G01*
X142002000Y-89060000D01*
G75*
G02*
X141852000Y-89210000I-150000J0D01*
G01*
G37*
G36*
G01*
X141852000Y-90460000D02*
X140452000Y-90460000D01*
G75*
G02*
X140302000Y-90310000I0J150000D01*
G01*
X140302000Y-90010000D01*
G75*
G02*
X140452000Y-89860000I150000J0D01*
G01*
X141852000Y-89860000D01*
G75*
G02*
X142002000Y-90010000I0J-150000D01*
G01*
X142002000Y-90310000D01*
G75*
G02*
X141852000Y-90460000I-150000J0D01*
G01*
G37*
G36*
G01*
X141852000Y-91710000D02*
X140452000Y-91710000D01*
G75*
G02*
X140302000Y-91560000I0J150000D01*
G01*
X140302000Y-91260000D01*
G75*
G02*
X140452000Y-91110000I150000J0D01*
G01*
X141852000Y-91110000D01*
G75*
G02*
X142002000Y-91260000I0J-150000D01*
G01*
X142002000Y-91560000D01*
G75*
G02*
X141852000Y-91710000I-150000J0D01*
G01*
G37*
G36*
G01*
X141852000Y-92960000D02*
X140452000Y-92960000D01*
G75*
G02*
X140302000Y-92810000I0J150000D01*
G01*
X140302000Y-92510000D01*
G75*
G02*
X140452000Y-92360000I150000J0D01*
G01*
X141852000Y-92360000D01*
G75*
G02*
X142002000Y-92510000I0J-150000D01*
G01*
X142002000Y-92810000D01*
G75*
G02*
X141852000Y-92960000I-150000J0D01*
G01*
G37*
%TD*%
D13*
%TO.C,P1*%
X122682000Y-87293000D03*
D14*
X122682000Y-87793000D03*
X122682000Y-88293000D03*
X122682000Y-88793000D03*
X122682000Y-89293000D03*
X122682000Y-89793000D03*
X122682000Y-90293000D03*
X122682000Y-90793000D03*
X122682000Y-91293000D03*
X122682000Y-91793000D03*
X122682000Y-92293000D03*
D13*
X122682000Y-92793000D03*
D15*
X122682000Y-86233000D03*
X122682000Y-93853000D03*
%TD*%
D16*
%TO.C,U2*%
X126934000Y-93474000D03*
X125984000Y-93474000D03*
X125034000Y-93474000D03*
X125034000Y-95674000D03*
X126934000Y-95674000D03*
%TD*%
%TO.C,U1*%
G36*
G01*
X137139000Y-92527000D02*
X137139000Y-93852000D01*
G75*
G02*
X137064000Y-93927000I-75000J0D01*
G01*
X136914000Y-93927000D01*
G75*
G02*
X136839000Y-93852000I0J75000D01*
G01*
X136839000Y-92527000D01*
G75*
G02*
X136914000Y-92452000I75000J0D01*
G01*
X137064000Y-92452000D01*
G75*
G02*
X137139000Y-92527000I0J-75000D01*
G01*
G37*
G36*
G01*
X136639000Y-92527000D02*
X136639000Y-93852000D01*
G75*
G02*
X136564000Y-93927000I-75000J0D01*
G01*
X136414000Y-93927000D01*
G75*
G02*
X136339000Y-93852000I0J75000D01*
G01*
X136339000Y-92527000D01*
G75*
G02*
X136414000Y-92452000I75000J0D01*
G01*
X136564000Y-92452000D01*
G75*
G02*
X136639000Y-92527000I0J-75000D01*
G01*
G37*
G36*
G01*
X136139000Y-92527000D02*
X136139000Y-93852000D01*
G75*
G02*
X136064000Y-93927000I-75000J0D01*
G01*
X135914000Y-93927000D01*
G75*
G02*
X135839000Y-93852000I0J75000D01*
G01*
X135839000Y-92527000D01*
G75*
G02*
X135914000Y-92452000I75000J0D01*
G01*
X136064000Y-92452000D01*
G75*
G02*
X136139000Y-92527000I0J-75000D01*
G01*
G37*
G36*
G01*
X135639000Y-92527000D02*
X135639000Y-93852000D01*
G75*
G02*
X135564000Y-93927000I-75000J0D01*
G01*
X135414000Y-93927000D01*
G75*
G02*
X135339000Y-93852000I0J75000D01*
G01*
X135339000Y-92527000D01*
G75*
G02*
X135414000Y-92452000I75000J0D01*
G01*
X135564000Y-92452000D01*
G75*
G02*
X135639000Y-92527000I0J-75000D01*
G01*
G37*
G36*
G01*
X135139000Y-92527000D02*
X135139000Y-93852000D01*
G75*
G02*
X135064000Y-93927000I-75000J0D01*
G01*
X134914000Y-93927000D01*
G75*
G02*
X134839000Y-93852000I0J75000D01*
G01*
X134839000Y-92527000D01*
G75*
G02*
X134914000Y-92452000I75000J0D01*
G01*
X135064000Y-92452000D01*
G75*
G02*
X135139000Y-92527000I0J-75000D01*
G01*
G37*
G36*
G01*
X134639000Y-92527000D02*
X134639000Y-93852000D01*
G75*
G02*
X134564000Y-93927000I-75000J0D01*
G01*
X134414000Y-93927000D01*
G75*
G02*
X134339000Y-93852000I0J75000D01*
G01*
X134339000Y-92527000D01*
G75*
G02*
X134414000Y-92452000I75000J0D01*
G01*
X134564000Y-92452000D01*
G75*
G02*
X134639000Y-92527000I0J-75000D01*
G01*
G37*
G36*
G01*
X134139000Y-92527000D02*
X134139000Y-93852000D01*
G75*
G02*
X134064000Y-93927000I-75000J0D01*
G01*
X133914000Y-93927000D01*
G75*
G02*
X133839000Y-93852000I0J75000D01*
G01*
X133839000Y-92527000D01*
G75*
G02*
X133914000Y-92452000I75000J0D01*
G01*
X134064000Y-92452000D01*
G75*
G02*
X134139000Y-92527000I0J-75000D01*
G01*
G37*
G36*
G01*
X133639000Y-92527000D02*
X133639000Y-93852000D01*
G75*
G02*
X133564000Y-93927000I-75000J0D01*
G01*
X133414000Y-93927000D01*
G75*
G02*
X133339000Y-93852000I0J75000D01*
G01*
X133339000Y-92527000D01*
G75*
G02*
X133414000Y-92452000I75000J0D01*
G01*
X133564000Y-92452000D01*
G75*
G02*
X133639000Y-92527000I0J-75000D01*
G01*
G37*
G36*
G01*
X133139000Y-92527000D02*
X133139000Y-93852000D01*
G75*
G02*
X133064000Y-93927000I-75000J0D01*
G01*
X132914000Y-93927000D01*
G75*
G02*
X132839000Y-93852000I0J75000D01*
G01*
X132839000Y-92527000D01*
G75*
G02*
X132914000Y-92452000I75000J0D01*
G01*
X133064000Y-92452000D01*
G75*
G02*
X133139000Y-92527000I0J-75000D01*
G01*
G37*
G36*
G01*
X132639000Y-92527000D02*
X132639000Y-93852000D01*
G75*
G02*
X132564000Y-93927000I-75000J0D01*
G01*
X132414000Y-93927000D01*
G75*
G02*
X132339000Y-93852000I0J75000D01*
G01*
X132339000Y-92527000D01*
G75*
G02*
X132414000Y-92452000I75000J0D01*
G01*
X132564000Y-92452000D01*
G75*
G02*
X132639000Y-92527000I0J-75000D01*
G01*
G37*
G36*
G01*
X132139000Y-92527000D02*
X132139000Y-93852000D01*
G75*
G02*
X132064000Y-93927000I-75000J0D01*
G01*
X131914000Y-93927000D01*
G75*
G02*
X131839000Y-93852000I0J75000D01*
G01*
X131839000Y-92527000D01*
G75*
G02*
X131914000Y-92452000I75000J0D01*
G01*
X132064000Y-92452000D01*
G75*
G02*
X132139000Y-92527000I0J-75000D01*
G01*
G37*
G36*
G01*
X131639000Y-92527000D02*
X131639000Y-93852000D01*
G75*
G02*
X131564000Y-93927000I-75000J0D01*
G01*
X131414000Y-93927000D01*
G75*
G02*
X131339000Y-93852000I0J75000D01*
G01*
X131339000Y-92527000D01*
G75*
G02*
X131414000Y-92452000I75000J0D01*
G01*
X131564000Y-92452000D01*
G75*
G02*
X131639000Y-92527000I0J-75000D01*
G01*
G37*
G36*
G01*
X130814000Y-91702000D02*
X130814000Y-91852000D01*
G75*
G02*
X130739000Y-91927000I-75000J0D01*
G01*
X129414000Y-91927000D01*
G75*
G02*
X129339000Y-91852000I0J75000D01*
G01*
X129339000Y-91702000D01*
G75*
G02*
X129414000Y-91627000I75000J0D01*
G01*
X130739000Y-91627000D01*
G75*
G02*
X130814000Y-91702000I0J-75000D01*
G01*
G37*
G36*
G01*
X130814000Y-91202000D02*
X130814000Y-91352000D01*
G75*
G02*
X130739000Y-91427000I-75000J0D01*
G01*
X129414000Y-91427000D01*
G75*
G02*
X129339000Y-91352000I0J75000D01*
G01*
X129339000Y-91202000D01*
G75*
G02*
X129414000Y-91127000I75000J0D01*
G01*
X130739000Y-91127000D01*
G75*
G02*
X130814000Y-91202000I0J-75000D01*
G01*
G37*
G36*
G01*
X130814000Y-90702000D02*
X130814000Y-90852000D01*
G75*
G02*
X130739000Y-90927000I-75000J0D01*
G01*
X129414000Y-90927000D01*
G75*
G02*
X129339000Y-90852000I0J75000D01*
G01*
X129339000Y-90702000D01*
G75*
G02*
X129414000Y-90627000I75000J0D01*
G01*
X130739000Y-90627000D01*
G75*
G02*
X130814000Y-90702000I0J-75000D01*
G01*
G37*
G36*
G01*
X130814000Y-90202000D02*
X130814000Y-90352000D01*
G75*
G02*
X130739000Y-90427000I-75000J0D01*
G01*
X129414000Y-90427000D01*
G75*
G02*
X129339000Y-90352000I0J75000D01*
G01*
X129339000Y-90202000D01*
G75*
G02*
X129414000Y-90127000I75000J0D01*
G01*
X130739000Y-90127000D01*
G75*
G02*
X130814000Y-90202000I0J-75000D01*
G01*
G37*
G36*
G01*
X130814000Y-89702000D02*
X130814000Y-89852000D01*
G75*
G02*
X130739000Y-89927000I-75000J0D01*
G01*
X129414000Y-89927000D01*
G75*
G02*
X129339000Y-89852000I0J75000D01*
G01*
X129339000Y-89702000D01*
G75*
G02*
X129414000Y-89627000I75000J0D01*
G01*
X130739000Y-89627000D01*
G75*
G02*
X130814000Y-89702000I0J-75000D01*
G01*
G37*
G36*
G01*
X130814000Y-89202000D02*
X130814000Y-89352000D01*
G75*
G02*
X130739000Y-89427000I-75000J0D01*
G01*
X129414000Y-89427000D01*
G75*
G02*
X129339000Y-89352000I0J75000D01*
G01*
X129339000Y-89202000D01*
G75*
G02*
X129414000Y-89127000I75000J0D01*
G01*
X130739000Y-89127000D01*
G75*
G02*
X130814000Y-89202000I0J-75000D01*
G01*
G37*
G36*
G01*
X130814000Y-88702000D02*
X130814000Y-88852000D01*
G75*
G02*
X130739000Y-88927000I-75000J0D01*
G01*
X129414000Y-88927000D01*
G75*
G02*
X129339000Y-88852000I0J75000D01*
G01*
X129339000Y-88702000D01*
G75*
G02*
X129414000Y-88627000I75000J0D01*
G01*
X130739000Y-88627000D01*
G75*
G02*
X130814000Y-88702000I0J-75000D01*
G01*
G37*
G36*
G01*
X130814000Y-88202000D02*
X130814000Y-88352000D01*
G75*
G02*
X130739000Y-88427000I-75000J0D01*
G01*
X129414000Y-88427000D01*
G75*
G02*
X129339000Y-88352000I0J75000D01*
G01*
X129339000Y-88202000D01*
G75*
G02*
X129414000Y-88127000I75000J0D01*
G01*
X130739000Y-88127000D01*
G75*
G02*
X130814000Y-88202000I0J-75000D01*
G01*
G37*
G36*
G01*
X130814000Y-87702000D02*
X130814000Y-87852000D01*
G75*
G02*
X130739000Y-87927000I-75000J0D01*
G01*
X129414000Y-87927000D01*
G75*
G02*
X129339000Y-87852000I0J75000D01*
G01*
X129339000Y-87702000D01*
G75*
G02*
X129414000Y-87627000I75000J0D01*
G01*
X130739000Y-87627000D01*
G75*
G02*
X130814000Y-87702000I0J-75000D01*
G01*
G37*
G36*
G01*
X130814000Y-87202000D02*
X130814000Y-87352000D01*
G75*
G02*
X130739000Y-87427000I-75000J0D01*
G01*
X129414000Y-87427000D01*
G75*
G02*
X129339000Y-87352000I0J75000D01*
G01*
X129339000Y-87202000D01*
G75*
G02*
X129414000Y-87127000I75000J0D01*
G01*
X130739000Y-87127000D01*
G75*
G02*
X130814000Y-87202000I0J-75000D01*
G01*
G37*
G36*
G01*
X130814000Y-86702000D02*
X130814000Y-86852000D01*
G75*
G02*
X130739000Y-86927000I-75000J0D01*
G01*
X129414000Y-86927000D01*
G75*
G02*
X129339000Y-86852000I0J75000D01*
G01*
X129339000Y-86702000D01*
G75*
G02*
X129414000Y-86627000I75000J0D01*
G01*
X130739000Y-86627000D01*
G75*
G02*
X130814000Y-86702000I0J-75000D01*
G01*
G37*
G36*
G01*
X130814000Y-86202000D02*
X130814000Y-86352000D01*
G75*
G02*
X130739000Y-86427000I-75000J0D01*
G01*
X129414000Y-86427000D01*
G75*
G02*
X129339000Y-86352000I0J75000D01*
G01*
X129339000Y-86202000D01*
G75*
G02*
X129414000Y-86127000I75000J0D01*
G01*
X130739000Y-86127000D01*
G75*
G02*
X130814000Y-86202000I0J-75000D01*
G01*
G37*
G36*
G01*
X131639000Y-84202000D02*
X131639000Y-85527000D01*
G75*
G02*
X131564000Y-85602000I-75000J0D01*
G01*
X131414000Y-85602000D01*
G75*
G02*
X131339000Y-85527000I0J75000D01*
G01*
X131339000Y-84202000D01*
G75*
G02*
X131414000Y-84127000I75000J0D01*
G01*
X131564000Y-84127000D01*
G75*
G02*
X131639000Y-84202000I0J-75000D01*
G01*
G37*
G36*
G01*
X132139000Y-84202000D02*
X132139000Y-85527000D01*
G75*
G02*
X132064000Y-85602000I-75000J0D01*
G01*
X131914000Y-85602000D01*
G75*
G02*
X131839000Y-85527000I0J75000D01*
G01*
X131839000Y-84202000D01*
G75*
G02*
X131914000Y-84127000I75000J0D01*
G01*
X132064000Y-84127000D01*
G75*
G02*
X132139000Y-84202000I0J-75000D01*
G01*
G37*
G36*
G01*
X132639000Y-84202000D02*
X132639000Y-85527000D01*
G75*
G02*
X132564000Y-85602000I-75000J0D01*
G01*
X132414000Y-85602000D01*
G75*
G02*
X132339000Y-85527000I0J75000D01*
G01*
X132339000Y-84202000D01*
G75*
G02*
X132414000Y-84127000I75000J0D01*
G01*
X132564000Y-84127000D01*
G75*
G02*
X132639000Y-84202000I0J-75000D01*
G01*
G37*
G36*
G01*
X133139000Y-84202000D02*
X133139000Y-85527000D01*
G75*
G02*
X133064000Y-85602000I-75000J0D01*
G01*
X132914000Y-85602000D01*
G75*
G02*
X132839000Y-85527000I0J75000D01*
G01*
X132839000Y-84202000D01*
G75*
G02*
X132914000Y-84127000I75000J0D01*
G01*
X133064000Y-84127000D01*
G75*
G02*
X133139000Y-84202000I0J-75000D01*
G01*
G37*
G36*
G01*
X133639000Y-84202000D02*
X133639000Y-85527000D01*
G75*
G02*
X133564000Y-85602000I-75000J0D01*
G01*
X133414000Y-85602000D01*
G75*
G02*
X133339000Y-85527000I0J75000D01*
G01*
X133339000Y-84202000D01*
G75*
G02*
X133414000Y-84127000I75000J0D01*
G01*
X133564000Y-84127000D01*
G75*
G02*
X133639000Y-84202000I0J-75000D01*
G01*
G37*
G36*
G01*
X134139000Y-84202000D02*
X134139000Y-85527000D01*
G75*
G02*
X134064000Y-85602000I-75000J0D01*
G01*
X133914000Y-85602000D01*
G75*
G02*
X133839000Y-85527000I0J75000D01*
G01*
X133839000Y-84202000D01*
G75*
G02*
X133914000Y-84127000I75000J0D01*
G01*
X134064000Y-84127000D01*
G75*
G02*
X134139000Y-84202000I0J-75000D01*
G01*
G37*
G36*
G01*
X134639000Y-84202000D02*
X134639000Y-85527000D01*
G75*
G02*
X134564000Y-85602000I-75000J0D01*
G01*
X134414000Y-85602000D01*
G75*
G02*
X134339000Y-85527000I0J75000D01*
G01*
X134339000Y-84202000D01*
G75*
G02*
X134414000Y-84127000I75000J0D01*
G01*
X134564000Y-84127000D01*
G75*
G02*
X134639000Y-84202000I0J-75000D01*
G01*
G37*
G36*
G01*
X135139000Y-84202000D02*
X135139000Y-85527000D01*
G75*
G02*
X135064000Y-85602000I-75000J0D01*
G01*
X134914000Y-85602000D01*
G75*
G02*
X134839000Y-85527000I0J75000D01*
G01*
X134839000Y-84202000D01*
G75*
G02*
X134914000Y-84127000I75000J0D01*
G01*
X135064000Y-84127000D01*
G75*
G02*
X135139000Y-84202000I0J-75000D01*
G01*
G37*
G36*
G01*
X135639000Y-84202000D02*
X135639000Y-85527000D01*
G75*
G02*
X135564000Y-85602000I-75000J0D01*
G01*
X135414000Y-85602000D01*
G75*
G02*
X135339000Y-85527000I0J75000D01*
G01*
X135339000Y-84202000D01*
G75*
G02*
X135414000Y-84127000I75000J0D01*
G01*
X135564000Y-84127000D01*
G75*
G02*
X135639000Y-84202000I0J-75000D01*
G01*
G37*
G36*
G01*
X136139000Y-84202000D02*
X136139000Y-85527000D01*
G75*
G02*
X136064000Y-85602000I-75000J0D01*
G01*
X135914000Y-85602000D01*
G75*
G02*
X135839000Y-85527000I0J75000D01*
G01*
X135839000Y-84202000D01*
G75*
G02*
X135914000Y-84127000I75000J0D01*
G01*
X136064000Y-84127000D01*
G75*
G02*
X136139000Y-84202000I0J-75000D01*
G01*
G37*
G36*
G01*
X136639000Y-84202000D02*
X136639000Y-85527000D01*
G75*
G02*
X136564000Y-85602000I-75000J0D01*
G01*
X136414000Y-85602000D01*
G75*
G02*
X136339000Y-85527000I0J75000D01*
G01*
X136339000Y-84202000D01*
G75*
G02*
X136414000Y-84127000I75000J0D01*
G01*
X136564000Y-84127000D01*
G75*
G02*
X136639000Y-84202000I0J-75000D01*
G01*
G37*
G36*
G01*
X137139000Y-84202000D02*
X137139000Y-85527000D01*
G75*
G02*
X137064000Y-85602000I-75000J0D01*
G01*
X136914000Y-85602000D01*
G75*
G02*
X136839000Y-85527000I0J75000D01*
G01*
X136839000Y-84202000D01*
G75*
G02*
X136914000Y-84127000I75000J0D01*
G01*
X137064000Y-84127000D01*
G75*
G02*
X137139000Y-84202000I0J-75000D01*
G01*
G37*
G36*
G01*
X139139000Y-86202000D02*
X139139000Y-86352000D01*
G75*
G02*
X139064000Y-86427000I-75000J0D01*
G01*
X137739000Y-86427000D01*
G75*
G02*
X137664000Y-86352000I0J75000D01*
G01*
X137664000Y-86202000D01*
G75*
G02*
X137739000Y-86127000I75000J0D01*
G01*
X139064000Y-86127000D01*
G75*
G02*
X139139000Y-86202000I0J-75000D01*
G01*
G37*
G36*
G01*
X139139000Y-86702000D02*
X139139000Y-86852000D01*
G75*
G02*
X139064000Y-86927000I-75000J0D01*
G01*
X137739000Y-86927000D01*
G75*
G02*
X137664000Y-86852000I0J75000D01*
G01*
X137664000Y-86702000D01*
G75*
G02*
X137739000Y-86627000I75000J0D01*
G01*
X139064000Y-86627000D01*
G75*
G02*
X139139000Y-86702000I0J-75000D01*
G01*
G37*
G36*
G01*
X139139000Y-87202000D02*
X139139000Y-87352000D01*
G75*
G02*
X139064000Y-87427000I-75000J0D01*
G01*
X137739000Y-87427000D01*
G75*
G02*
X137664000Y-87352000I0J75000D01*
G01*
X137664000Y-87202000D01*
G75*
G02*
X137739000Y-87127000I75000J0D01*
G01*
X139064000Y-87127000D01*
G75*
G02*
X139139000Y-87202000I0J-75000D01*
G01*
G37*
G36*
G01*
X139139000Y-87702000D02*
X139139000Y-87852000D01*
G75*
G02*
X139064000Y-87927000I-75000J0D01*
G01*
X137739000Y-87927000D01*
G75*
G02*
X137664000Y-87852000I0J75000D01*
G01*
X137664000Y-87702000D01*
G75*
G02*
X137739000Y-87627000I75000J0D01*
G01*
X139064000Y-87627000D01*
G75*
G02*
X139139000Y-87702000I0J-75000D01*
G01*
G37*
G36*
G01*
X139139000Y-88202000D02*
X139139000Y-88352000D01*
G75*
G02*
X139064000Y-88427000I-75000J0D01*
G01*
X137739000Y-88427000D01*
G75*
G02*
X137664000Y-88352000I0J75000D01*
G01*
X137664000Y-88202000D01*
G75*
G02*
X137739000Y-88127000I75000J0D01*
G01*
X139064000Y-88127000D01*
G75*
G02*
X139139000Y-88202000I0J-75000D01*
G01*
G37*
G36*
G01*
X139139000Y-88702000D02*
X139139000Y-88852000D01*
G75*
G02*
X139064000Y-88927000I-75000J0D01*
G01*
X137739000Y-88927000D01*
G75*
G02*
X137664000Y-88852000I0J75000D01*
G01*
X137664000Y-88702000D01*
G75*
G02*
X137739000Y-88627000I75000J0D01*
G01*
X139064000Y-88627000D01*
G75*
G02*
X139139000Y-88702000I0J-75000D01*
G01*
G37*
G36*
G01*
X139139000Y-89202000D02*
X139139000Y-89352000D01*
G75*
G02*
X139064000Y-89427000I-75000J0D01*
G01*
X137739000Y-89427000D01*
G75*
G02*
X137664000Y-89352000I0J75000D01*
G01*
X137664000Y-89202000D01*
G75*
G02*
X137739000Y-89127000I75000J0D01*
G01*
X139064000Y-89127000D01*
G75*
G02*
X139139000Y-89202000I0J-75000D01*
G01*
G37*
G36*
G01*
X139139000Y-89702000D02*
X139139000Y-89852000D01*
G75*
G02*
X139064000Y-89927000I-75000J0D01*
G01*
X137739000Y-89927000D01*
G75*
G02*
X137664000Y-89852000I0J75000D01*
G01*
X137664000Y-89702000D01*
G75*
G02*
X137739000Y-89627000I75000J0D01*
G01*
X139064000Y-89627000D01*
G75*
G02*
X139139000Y-89702000I0J-75000D01*
G01*
G37*
G36*
G01*
X139139000Y-90202000D02*
X139139000Y-90352000D01*
G75*
G02*
X139064000Y-90427000I-75000J0D01*
G01*
X137739000Y-90427000D01*
G75*
G02*
X137664000Y-90352000I0J75000D01*
G01*
X137664000Y-90202000D01*
G75*
G02*
X137739000Y-90127000I75000J0D01*
G01*
X139064000Y-90127000D01*
G75*
G02*
X139139000Y-90202000I0J-75000D01*
G01*
G37*
G36*
G01*
X139139000Y-90702000D02*
X139139000Y-90852000D01*
G75*
G02*
X139064000Y-90927000I-75000J0D01*
G01*
X137739000Y-90927000D01*
G75*
G02*
X137664000Y-90852000I0J75000D01*
G01*
X137664000Y-90702000D01*
G75*
G02*
X137739000Y-90627000I75000J0D01*
G01*
X139064000Y-90627000D01*
G75*
G02*
X139139000Y-90702000I0J-75000D01*
G01*
G37*
G36*
G01*
X139139000Y-91202000D02*
X139139000Y-91352000D01*
G75*
G02*
X139064000Y-91427000I-75000J0D01*
G01*
X137739000Y-91427000D01*
G75*
G02*
X137664000Y-91352000I0J75000D01*
G01*
X137664000Y-91202000D01*
G75*
G02*
X137739000Y-91127000I75000J0D01*
G01*
X139064000Y-91127000D01*
G75*
G02*
X139139000Y-91202000I0J-75000D01*
G01*
G37*
G36*
G01*
X139139000Y-91702000D02*
X139139000Y-91852000D01*
G75*
G02*
X139064000Y-91927000I-75000J0D01*
G01*
X137739000Y-91927000D01*
G75*
G02*
X137664000Y-91852000I0J75000D01*
G01*
X137664000Y-91702000D01*
G75*
G02*
X137739000Y-91627000I75000J0D01*
G01*
X139064000Y-91627000D01*
G75*
G02*
X139139000Y-91702000I0J-75000D01*
G01*
G37*
%TD*%
%TO.C,R18*%
G36*
G01*
X127409000Y-90862999D02*
X127409000Y-91763001D01*
G75*
G02*
X127159001Y-92013000I-249999J0D01*
G01*
X126633999Y-92013000D01*
G75*
G02*
X126384000Y-91763001I0J249999D01*
G01*
X126384000Y-90862999D01*
G75*
G02*
X126633999Y-90613000I249999J0D01*
G01*
X127159001Y-90613000D01*
G75*
G02*
X127409000Y-90862999I0J-249999D01*
G01*
G37*
G36*
G01*
X125584000Y-90862999D02*
X125584000Y-91763001D01*
G75*
G02*
X125334001Y-92013000I-249999J0D01*
G01*
X124808999Y-92013000D01*
G75*
G02*
X124559000Y-91763001I0J249999D01*
G01*
X124559000Y-90862999D01*
G75*
G02*
X124808999Y-90613000I249999J0D01*
G01*
X125334001Y-90613000D01*
G75*
G02*
X125584000Y-90862999I0J-249999D01*
G01*
G37*
%TD*%
%TO.C,R17*%
G36*
G01*
X127409000Y-88322999D02*
X127409000Y-89223001D01*
G75*
G02*
X127159001Y-89473000I-249999J0D01*
G01*
X126633999Y-89473000D01*
G75*
G02*
X126384000Y-89223001I0J249999D01*
G01*
X126384000Y-88322999D01*
G75*
G02*
X126633999Y-88073000I249999J0D01*
G01*
X127159001Y-88073000D01*
G75*
G02*
X127409000Y-88322999I0J-249999D01*
G01*
G37*
G36*
G01*
X125584000Y-88322999D02*
X125584000Y-89223001D01*
G75*
G02*
X125334001Y-89473000I-249999J0D01*
G01*
X124808999Y-89473000D01*
G75*
G02*
X124559000Y-89223001I0J249999D01*
G01*
X124559000Y-88322999D01*
G75*
G02*
X124808999Y-88073000I249999J0D01*
G01*
X125334001Y-88073000D01*
G75*
G02*
X125584000Y-88322999I0J-249999D01*
G01*
G37*
%TD*%
%TO.C,D5*%
G36*
G01*
X126440250Y-85275000D02*
X125527750Y-85275000D01*
G75*
G02*
X125284000Y-85031250I0J243750D01*
G01*
X125284000Y-84543750D01*
G75*
G02*
X125527750Y-84300000I243750J0D01*
G01*
X126440250Y-84300000D01*
G75*
G02*
X126684000Y-84543750I0J-243750D01*
G01*
X126684000Y-85031250D01*
G75*
G02*
X126440250Y-85275000I-243750J0D01*
G01*
G37*
G36*
G01*
X126440250Y-87150000D02*
X125527750Y-87150000D01*
G75*
G02*
X125284000Y-86906250I0J243750D01*
G01*
X125284000Y-86418750D01*
G75*
G02*
X125527750Y-86175000I243750J0D01*
G01*
X126440250Y-86175000D01*
G75*
G02*
X126684000Y-86418750I0J-243750D01*
G01*
X126684000Y-86906250D01*
G75*
G02*
X126440250Y-87150000I-243750J0D01*
G01*
G37*
%TD*%
%TO.C,D3*%
G36*
G01*
X133068000Y-96087250D02*
X133068000Y-95174750D01*
G75*
G02*
X133311750Y-94931000I243750J0D01*
G01*
X133799250Y-94931000D01*
G75*
G02*
X134043000Y-95174750I0J-243750D01*
G01*
X134043000Y-96087250D01*
G75*
G02*
X133799250Y-96331000I-243750J0D01*
G01*
X133311750Y-96331000D01*
G75*
G02*
X133068000Y-96087250I0J243750D01*
G01*
G37*
G36*
G01*
X134943000Y-96087250D02*
X134943000Y-95174750D01*
G75*
G02*
X135186750Y-94931000I243750J0D01*
G01*
X135674250Y-94931000D01*
G75*
G02*
X135918000Y-95174750I0J-243750D01*
G01*
X135918000Y-96087250D01*
G75*
G02*
X135674250Y-96331000I-243750J0D01*
G01*
X135186750Y-96331000D01*
G75*
G02*
X134943000Y-96087250I0J243750D01*
G01*
G37*
%TD*%
%TO.C,D2*%
G36*
G01*
X139347000Y-95174750D02*
X139347000Y-96087250D01*
G75*
G02*
X139103250Y-96331000I-243750J0D01*
G01*
X138615750Y-96331000D01*
G75*
G02*
X138372000Y-96087250I0J243750D01*
G01*
X138372000Y-95174750D01*
G75*
G02*
X138615750Y-94931000I243750J0D01*
G01*
X139103250Y-94931000D01*
G75*
G02*
X139347000Y-95174750I0J-243750D01*
G01*
G37*
G36*
G01*
X137472000Y-95174750D02*
X137472000Y-96087250D01*
G75*
G02*
X137228250Y-96331000I-243750J0D01*
G01*
X136740750Y-96331000D01*
G75*
G02*
X136497000Y-96087250I0J243750D01*
G01*
X136497000Y-95174750D01*
G75*
G02*
X136740750Y-94931000I243750J0D01*
G01*
X137228250Y-94931000D01*
G75*
G02*
X137472000Y-95174750I0J-243750D01*
G01*
G37*
%TD*%
%TO.C,D1*%
G36*
G01*
X128448750Y-93311500D02*
X129361250Y-93311500D01*
G75*
G02*
X129605000Y-93555250I0J-243750D01*
G01*
X129605000Y-94042750D01*
G75*
G02*
X129361250Y-94286500I-243750J0D01*
G01*
X128448750Y-94286500D01*
G75*
G02*
X128205000Y-94042750I0J243750D01*
G01*
X128205000Y-93555250D01*
G75*
G02*
X128448750Y-93311500I243750J0D01*
G01*
G37*
G36*
G01*
X128448750Y-95186500D02*
X129361250Y-95186500D01*
G75*
G02*
X129605000Y-95430250I0J-243750D01*
G01*
X129605000Y-95917750D01*
G75*
G02*
X129361250Y-96161500I-243750J0D01*
G01*
X128448750Y-96161500D01*
G75*
G02*
X128205000Y-95917750I0J243750D01*
G01*
X128205000Y-95430250D01*
G75*
G02*
X128448750Y-95186500I243750J0D01*
G01*
G37*
%TD*%
M02*
