%TF.GenerationSoftware,KiCad,Pcbnew,(5.1.10)-1*%
%TF.CreationDate,2021-11-24T01:58:58+08:00*%
%TF.ProjectId,ST-Link_v2-1,53542d4c-696e-46b5-9f76-322d312e6b69,rev?*%
%TF.SameCoordinates,Original*%
%TF.FileFunction,Copper,L1,Top*%
%TF.FilePolarity,Positive*%
%FSLAX46Y46*%
G04 Gerber Fmt 4.6, Leading zero omitted, Abs format (unit mm)*
G04 Created by KiCad (PCBNEW (5.1.10)-1) date 2021-11-24 01:58:58*
%MOMM*%
%LPD*%
G01*
G04 APERTURE LIST*
%TA.AperFunction,SMDPad,CuDef*%
%ADD10R,0.650000X1.060000*%
%TD*%
%TA.AperFunction,SMDPad,CuDef*%
%ADD11R,1.850000X1.180000*%
%TD*%
%TA.AperFunction,SMDPad,CuDef*%
%ADD12R,1.850000X0.300000*%
%TD*%
%TA.AperFunction,SMDPad,CuDef*%
%ADD13R,1.250000X0.300000*%
%TD*%
%TA.AperFunction,ViaPad*%
%ADD14C,0.508000*%
%TD*%
%TA.AperFunction,Conductor*%
%ADD15C,0.254000*%
%TD*%
%TA.AperFunction,Conductor*%
%ADD16C,0.508000*%
%TD*%
%TA.AperFunction,Conductor*%
%ADD17C,0.100000*%
%TD*%
%TA.AperFunction,Conductor*%
%ADD18C,0.025400*%
%TD*%
G04 APERTURE END LIST*
%TO.P,R14,1*%
%TO.N,Net-(R14-Pad1)*%
%TA.AperFunction,SMDPad,CuDef*%
G36*
G01*
X184727000Y-108694000D02*
X185097000Y-108694000D01*
G75*
G02*
X185232000Y-108829000I0J-135000D01*
G01*
X185232000Y-109099000D01*
G75*
G02*
X185097000Y-109234000I-135000J0D01*
G01*
X184727000Y-109234000D01*
G75*
G02*
X184592000Y-109099000I0J135000D01*
G01*
X184592000Y-108829000D01*
G75*
G02*
X184727000Y-108694000I135000J0D01*
G01*
G37*
%TD.AperFunction*%
%TO.P,R14,2*%
%TO.N,+3V3*%
%TA.AperFunction,SMDPad,CuDef*%
G36*
G01*
X184727000Y-109714000D02*
X185097000Y-109714000D01*
G75*
G02*
X185232000Y-109849000I0J-135000D01*
G01*
X185232000Y-110119000D01*
G75*
G02*
X185097000Y-110254000I-135000J0D01*
G01*
X184727000Y-110254000D01*
G75*
G02*
X184592000Y-110119000I0J135000D01*
G01*
X184592000Y-109849000D01*
G75*
G02*
X184727000Y-109714000I135000J0D01*
G01*
G37*
%TD.AperFunction*%
%TD*%
D10*
%TO.P,U2,1*%
%TO.N,+5V*%
X174051000Y-115613000D03*
%TO.P,U2,2*%
%TO.N,GND*%
X173101000Y-115613000D03*
%TO.P,U2,3*%
%TO.N,+5V*%
X172151000Y-115613000D03*
%TO.P,U2,4*%
%TO.N,Net-(U2-Pad4)*%
X172151000Y-117813000D03*
%TO.P,U2,5*%
%TO.N,+3V3*%
X174051000Y-117813000D03*
%TD*%
%TO.P,U1,1*%
%TO.N,+3V3*%
%TA.AperFunction,SMDPad,CuDef*%
G36*
G01*
X183970000Y-113927000D02*
X183970000Y-114077000D01*
G75*
G02*
X183895000Y-114152000I-75000J0D01*
G01*
X182570000Y-114152000D01*
G75*
G02*
X182495000Y-114077000I0J75000D01*
G01*
X182495000Y-113927000D01*
G75*
G02*
X182570000Y-113852000I75000J0D01*
G01*
X183895000Y-113852000D01*
G75*
G02*
X183970000Y-113927000I0J-75000D01*
G01*
G37*
%TD.AperFunction*%
%TO.P,U1,2*%
%TO.N,Net-(R9-Pad1)*%
%TA.AperFunction,SMDPad,CuDef*%
G36*
G01*
X183970000Y-113427000D02*
X183970000Y-113577000D01*
G75*
G02*
X183895000Y-113652000I-75000J0D01*
G01*
X182570000Y-113652000D01*
G75*
G02*
X182495000Y-113577000I0J75000D01*
G01*
X182495000Y-113427000D01*
G75*
G02*
X182570000Y-113352000I75000J0D01*
G01*
X183895000Y-113352000D01*
G75*
G02*
X183970000Y-113427000I0J-75000D01*
G01*
G37*
%TD.AperFunction*%
%TO.P,U1,3*%
%TO.N,Net-(R10-Pad1)*%
%TA.AperFunction,SMDPad,CuDef*%
G36*
G01*
X183970000Y-112927000D02*
X183970000Y-113077000D01*
G75*
G02*
X183895000Y-113152000I-75000J0D01*
G01*
X182570000Y-113152000D01*
G75*
G02*
X182495000Y-113077000I0J75000D01*
G01*
X182495000Y-112927000D01*
G75*
G02*
X182570000Y-112852000I75000J0D01*
G01*
X183895000Y-112852000D01*
G75*
G02*
X183970000Y-112927000I0J-75000D01*
G01*
G37*
%TD.AperFunction*%
%TO.P,U1,4*%
%TO.N,Net-(U1-Pad4)*%
%TA.AperFunction,SMDPad,CuDef*%
G36*
G01*
X183970000Y-112427000D02*
X183970000Y-112577000D01*
G75*
G02*
X183895000Y-112652000I-75000J0D01*
G01*
X182570000Y-112652000D01*
G75*
G02*
X182495000Y-112577000I0J75000D01*
G01*
X182495000Y-112427000D01*
G75*
G02*
X182570000Y-112352000I75000J0D01*
G01*
X183895000Y-112352000D01*
G75*
G02*
X183970000Y-112427000I0J-75000D01*
G01*
G37*
%TD.AperFunction*%
%TO.P,U1,5*%
%TO.N,Net-(C2-Pad1)*%
%TA.AperFunction,SMDPad,CuDef*%
G36*
G01*
X183970000Y-111927000D02*
X183970000Y-112077000D01*
G75*
G02*
X183895000Y-112152000I-75000J0D01*
G01*
X182570000Y-112152000D01*
G75*
G02*
X182495000Y-112077000I0J75000D01*
G01*
X182495000Y-111927000D01*
G75*
G02*
X182570000Y-111852000I75000J0D01*
G01*
X183895000Y-111852000D01*
G75*
G02*
X183970000Y-111927000I0J-75000D01*
G01*
G37*
%TD.AperFunction*%
%TO.P,U1,6*%
%TO.N,Net-(C3-Pad1)*%
%TA.AperFunction,SMDPad,CuDef*%
G36*
G01*
X183970000Y-111427000D02*
X183970000Y-111577000D01*
G75*
G02*
X183895000Y-111652000I-75000J0D01*
G01*
X182570000Y-111652000D01*
G75*
G02*
X182495000Y-111577000I0J75000D01*
G01*
X182495000Y-111427000D01*
G75*
G02*
X182570000Y-111352000I75000J0D01*
G01*
X183895000Y-111352000D01*
G75*
G02*
X183970000Y-111427000I0J-75000D01*
G01*
G37*
%TD.AperFunction*%
%TO.P,U1,7*%
%TO.N,/NRST*%
%TA.AperFunction,SMDPad,CuDef*%
G36*
G01*
X183970000Y-110927000D02*
X183970000Y-111077000D01*
G75*
G02*
X183895000Y-111152000I-75000J0D01*
G01*
X182570000Y-111152000D01*
G75*
G02*
X182495000Y-111077000I0J75000D01*
G01*
X182495000Y-110927000D01*
G75*
G02*
X182570000Y-110852000I75000J0D01*
G01*
X183895000Y-110852000D01*
G75*
G02*
X183970000Y-110927000I0J-75000D01*
G01*
G37*
%TD.AperFunction*%
%TO.P,U1,8*%
%TO.N,GND*%
%TA.AperFunction,SMDPad,CuDef*%
G36*
G01*
X183970000Y-110427000D02*
X183970000Y-110577000D01*
G75*
G02*
X183895000Y-110652000I-75000J0D01*
G01*
X182570000Y-110652000D01*
G75*
G02*
X182495000Y-110577000I0J75000D01*
G01*
X182495000Y-110427000D01*
G75*
G02*
X182570000Y-110352000I75000J0D01*
G01*
X183895000Y-110352000D01*
G75*
G02*
X183970000Y-110427000I0J-75000D01*
G01*
G37*
%TD.AperFunction*%
%TO.P,U1,9*%
%TO.N,+3V3*%
%TA.AperFunction,SMDPad,CuDef*%
G36*
G01*
X183970000Y-109927000D02*
X183970000Y-110077000D01*
G75*
G02*
X183895000Y-110152000I-75000J0D01*
G01*
X182570000Y-110152000D01*
G75*
G02*
X182495000Y-110077000I0J75000D01*
G01*
X182495000Y-109927000D01*
G75*
G02*
X182570000Y-109852000I75000J0D01*
G01*
X183895000Y-109852000D01*
G75*
G02*
X183970000Y-109927000I0J-75000D01*
G01*
G37*
%TD.AperFunction*%
%TO.P,U1,10*%
%TO.N,Net-(R14-Pad1)*%
%TA.AperFunction,SMDPad,CuDef*%
G36*
G01*
X183970000Y-109427000D02*
X183970000Y-109577000D01*
G75*
G02*
X183895000Y-109652000I-75000J0D01*
G01*
X182570000Y-109652000D01*
G75*
G02*
X182495000Y-109577000I0J75000D01*
G01*
X182495000Y-109427000D01*
G75*
G02*
X182570000Y-109352000I75000J0D01*
G01*
X183895000Y-109352000D01*
G75*
G02*
X183970000Y-109427000I0J-75000D01*
G01*
G37*
%TD.AperFunction*%
%TO.P,U1,11*%
%TO.N,Net-(U1-Pad11)*%
%TA.AperFunction,SMDPad,CuDef*%
G36*
G01*
X183970000Y-108927000D02*
X183970000Y-109077000D01*
G75*
G02*
X183895000Y-109152000I-75000J0D01*
G01*
X182570000Y-109152000D01*
G75*
G02*
X182495000Y-109077000I0J75000D01*
G01*
X182495000Y-108927000D01*
G75*
G02*
X182570000Y-108852000I75000J0D01*
G01*
X183895000Y-108852000D01*
G75*
G02*
X183970000Y-108927000I0J-75000D01*
G01*
G37*
%TD.AperFunction*%
%TO.P,U1,12*%
%TO.N,/TXD*%
%TA.AperFunction,SMDPad,CuDef*%
G36*
G01*
X183970000Y-108427000D02*
X183970000Y-108577000D01*
G75*
G02*
X183895000Y-108652000I-75000J0D01*
G01*
X182570000Y-108652000D01*
G75*
G02*
X182495000Y-108577000I0J75000D01*
G01*
X182495000Y-108427000D01*
G75*
G02*
X182570000Y-108352000I75000J0D01*
G01*
X183895000Y-108352000D01*
G75*
G02*
X183970000Y-108427000I0J-75000D01*
G01*
G37*
%TD.AperFunction*%
%TO.P,U1,13*%
%TO.N,/RXD*%
%TA.AperFunction,SMDPad,CuDef*%
G36*
G01*
X181970000Y-106427000D02*
X181970000Y-107752000D01*
G75*
G02*
X181895000Y-107827000I-75000J0D01*
G01*
X181745000Y-107827000D01*
G75*
G02*
X181670000Y-107752000I0J75000D01*
G01*
X181670000Y-106427000D01*
G75*
G02*
X181745000Y-106352000I75000J0D01*
G01*
X181895000Y-106352000D01*
G75*
G02*
X181970000Y-106427000I0J-75000D01*
G01*
G37*
%TD.AperFunction*%
%TO.P,U1,14*%
%TO.N,Net-(U1-Pad14)*%
%TA.AperFunction,SMDPad,CuDef*%
G36*
G01*
X181470000Y-106427000D02*
X181470000Y-107752000D01*
G75*
G02*
X181395000Y-107827000I-75000J0D01*
G01*
X181245000Y-107827000D01*
G75*
G02*
X181170000Y-107752000I0J75000D01*
G01*
X181170000Y-106427000D01*
G75*
G02*
X181245000Y-106352000I75000J0D01*
G01*
X181395000Y-106352000D01*
G75*
G02*
X181470000Y-106427000I0J-75000D01*
G01*
G37*
%TD.AperFunction*%
%TO.P,U1,15*%
%TO.N,/SWCLK*%
%TA.AperFunction,SMDPad,CuDef*%
G36*
G01*
X180970000Y-106427000D02*
X180970000Y-107752000D01*
G75*
G02*
X180895000Y-107827000I-75000J0D01*
G01*
X180745000Y-107827000D01*
G75*
G02*
X180670000Y-107752000I0J75000D01*
G01*
X180670000Y-106427000D01*
G75*
G02*
X180745000Y-106352000I75000J0D01*
G01*
X180895000Y-106352000D01*
G75*
G02*
X180970000Y-106427000I0J-75000D01*
G01*
G37*
%TD.AperFunction*%
%TO.P,U1,16*%
%TO.N,Net-(U1-Pad16)*%
%TA.AperFunction,SMDPad,CuDef*%
G36*
G01*
X180470000Y-106427000D02*
X180470000Y-107752000D01*
G75*
G02*
X180395000Y-107827000I-75000J0D01*
G01*
X180245000Y-107827000D01*
G75*
G02*
X180170000Y-107752000I0J75000D01*
G01*
X180170000Y-106427000D01*
G75*
G02*
X180245000Y-106352000I75000J0D01*
G01*
X180395000Y-106352000D01*
G75*
G02*
X180470000Y-106427000I0J-75000D01*
G01*
G37*
%TD.AperFunction*%
%TO.P,U1,17*%
%TO.N,Net-(U1-Pad17)*%
%TA.AperFunction,SMDPad,CuDef*%
G36*
G01*
X179970000Y-106427000D02*
X179970000Y-107752000D01*
G75*
G02*
X179895000Y-107827000I-75000J0D01*
G01*
X179745000Y-107827000D01*
G75*
G02*
X179670000Y-107752000I0J75000D01*
G01*
X179670000Y-106427000D01*
G75*
G02*
X179745000Y-106352000I75000J0D01*
G01*
X179895000Y-106352000D01*
G75*
G02*
X179970000Y-106427000I0J-75000D01*
G01*
G37*
%TD.AperFunction*%
%TO.P,U1,18*%
%TO.N,/NRST*%
%TA.AperFunction,SMDPad,CuDef*%
G36*
G01*
X179470000Y-106427000D02*
X179470000Y-107752000D01*
G75*
G02*
X179395000Y-107827000I-75000J0D01*
G01*
X179245000Y-107827000D01*
G75*
G02*
X179170000Y-107752000I0J75000D01*
G01*
X179170000Y-106427000D01*
G75*
G02*
X179245000Y-106352000I75000J0D01*
G01*
X179395000Y-106352000D01*
G75*
G02*
X179470000Y-106427000I0J-75000D01*
G01*
G37*
%TD.AperFunction*%
%TO.P,U1,19*%
%TO.N,Net-(U1-Pad19)*%
%TA.AperFunction,SMDPad,CuDef*%
G36*
G01*
X178970000Y-106427000D02*
X178970000Y-107752000D01*
G75*
G02*
X178895000Y-107827000I-75000J0D01*
G01*
X178745000Y-107827000D01*
G75*
G02*
X178670000Y-107752000I0J75000D01*
G01*
X178670000Y-106427000D01*
G75*
G02*
X178745000Y-106352000I75000J0D01*
G01*
X178895000Y-106352000D01*
G75*
G02*
X178970000Y-106427000I0J-75000D01*
G01*
G37*
%TD.AperFunction*%
%TO.P,U1,20*%
%TO.N,Net-(R7-Pad1)*%
%TA.AperFunction,SMDPad,CuDef*%
G36*
G01*
X178470000Y-106427000D02*
X178470000Y-107752000D01*
G75*
G02*
X178395000Y-107827000I-75000J0D01*
G01*
X178245000Y-107827000D01*
G75*
G02*
X178170000Y-107752000I0J75000D01*
G01*
X178170000Y-106427000D01*
G75*
G02*
X178245000Y-106352000I75000J0D01*
G01*
X178395000Y-106352000D01*
G75*
G02*
X178470000Y-106427000I0J-75000D01*
G01*
G37*
%TD.AperFunction*%
%TO.P,U1,21*%
%TO.N,Net-(U1-Pad21)*%
%TA.AperFunction,SMDPad,CuDef*%
G36*
G01*
X177970000Y-106427000D02*
X177970000Y-107752000D01*
G75*
G02*
X177895000Y-107827000I-75000J0D01*
G01*
X177745000Y-107827000D01*
G75*
G02*
X177670000Y-107752000I0J75000D01*
G01*
X177670000Y-106427000D01*
G75*
G02*
X177745000Y-106352000I75000J0D01*
G01*
X177895000Y-106352000D01*
G75*
G02*
X177970000Y-106427000I0J-75000D01*
G01*
G37*
%TD.AperFunction*%
%TO.P,U1,22*%
%TO.N,Net-(U1-Pad22)*%
%TA.AperFunction,SMDPad,CuDef*%
G36*
G01*
X177470000Y-106427000D02*
X177470000Y-107752000D01*
G75*
G02*
X177395000Y-107827000I-75000J0D01*
G01*
X177245000Y-107827000D01*
G75*
G02*
X177170000Y-107752000I0J75000D01*
G01*
X177170000Y-106427000D01*
G75*
G02*
X177245000Y-106352000I75000J0D01*
G01*
X177395000Y-106352000D01*
G75*
G02*
X177470000Y-106427000I0J-75000D01*
G01*
G37*
%TD.AperFunction*%
%TO.P,U1,23*%
%TO.N,GND*%
%TA.AperFunction,SMDPad,CuDef*%
G36*
G01*
X176970000Y-106427000D02*
X176970000Y-107752000D01*
G75*
G02*
X176895000Y-107827000I-75000J0D01*
G01*
X176745000Y-107827000D01*
G75*
G02*
X176670000Y-107752000I0J75000D01*
G01*
X176670000Y-106427000D01*
G75*
G02*
X176745000Y-106352000I75000J0D01*
G01*
X176895000Y-106352000D01*
G75*
G02*
X176970000Y-106427000I0J-75000D01*
G01*
G37*
%TD.AperFunction*%
%TO.P,U1,24*%
%TO.N,+3V3*%
%TA.AperFunction,SMDPad,CuDef*%
G36*
G01*
X176470000Y-106427000D02*
X176470000Y-107752000D01*
G75*
G02*
X176395000Y-107827000I-75000J0D01*
G01*
X176245000Y-107827000D01*
G75*
G02*
X176170000Y-107752000I0J75000D01*
G01*
X176170000Y-106427000D01*
G75*
G02*
X176245000Y-106352000I75000J0D01*
G01*
X176395000Y-106352000D01*
G75*
G02*
X176470000Y-106427000I0J-75000D01*
G01*
G37*
%TD.AperFunction*%
%TO.P,U1,25*%
%TO.N,/SWDIO_IN*%
%TA.AperFunction,SMDPad,CuDef*%
G36*
G01*
X175645000Y-108427000D02*
X175645000Y-108577000D01*
G75*
G02*
X175570000Y-108652000I-75000J0D01*
G01*
X174245000Y-108652000D01*
G75*
G02*
X174170000Y-108577000I0J75000D01*
G01*
X174170000Y-108427000D01*
G75*
G02*
X174245000Y-108352000I75000J0D01*
G01*
X175570000Y-108352000D01*
G75*
G02*
X175645000Y-108427000I0J-75000D01*
G01*
G37*
%TD.AperFunction*%
%TO.P,U1,26*%
%TO.N,/SWCLK*%
%TA.AperFunction,SMDPad,CuDef*%
G36*
G01*
X175645000Y-108927000D02*
X175645000Y-109077000D01*
G75*
G02*
X175570000Y-109152000I-75000J0D01*
G01*
X174245000Y-109152000D01*
G75*
G02*
X174170000Y-109077000I0J75000D01*
G01*
X174170000Y-108927000D01*
G75*
G02*
X174245000Y-108852000I75000J0D01*
G01*
X175570000Y-108852000D01*
G75*
G02*
X175645000Y-108927000I0J-75000D01*
G01*
G37*
%TD.AperFunction*%
%TO.P,U1,27*%
%TO.N,/SWDIO*%
%TA.AperFunction,SMDPad,CuDef*%
G36*
G01*
X175645000Y-109427000D02*
X175645000Y-109577000D01*
G75*
G02*
X175570000Y-109652000I-75000J0D01*
G01*
X174245000Y-109652000D01*
G75*
G02*
X174170000Y-109577000I0J75000D01*
G01*
X174170000Y-109427000D01*
G75*
G02*
X174245000Y-109352000I75000J0D01*
G01*
X175570000Y-109352000D01*
G75*
G02*
X175645000Y-109427000I0J-75000D01*
G01*
G37*
%TD.AperFunction*%
%TO.P,U1,28*%
%TO.N,Net-(U1-Pad28)*%
%TA.AperFunction,SMDPad,CuDef*%
G36*
G01*
X175645000Y-109927000D02*
X175645000Y-110077000D01*
G75*
G02*
X175570000Y-110152000I-75000J0D01*
G01*
X174245000Y-110152000D01*
G75*
G02*
X174170000Y-110077000I0J75000D01*
G01*
X174170000Y-109927000D01*
G75*
G02*
X174245000Y-109852000I75000J0D01*
G01*
X175570000Y-109852000D01*
G75*
G02*
X175645000Y-109927000I0J-75000D01*
G01*
G37*
%TD.AperFunction*%
%TO.P,U1,29*%
%TO.N,Net-(U1-Pad29)*%
%TA.AperFunction,SMDPad,CuDef*%
G36*
G01*
X175645000Y-110427000D02*
X175645000Y-110577000D01*
G75*
G02*
X175570000Y-110652000I-75000J0D01*
G01*
X174245000Y-110652000D01*
G75*
G02*
X174170000Y-110577000I0J75000D01*
G01*
X174170000Y-110427000D01*
G75*
G02*
X174245000Y-110352000I75000J0D01*
G01*
X175570000Y-110352000D01*
G75*
G02*
X175645000Y-110427000I0J-75000D01*
G01*
G37*
%TD.AperFunction*%
%TO.P,U1,30*%
%TO.N,/LED_STLINK*%
%TA.AperFunction,SMDPad,CuDef*%
G36*
G01*
X175645000Y-110927000D02*
X175645000Y-111077000D01*
G75*
G02*
X175570000Y-111152000I-75000J0D01*
G01*
X174245000Y-111152000D01*
G75*
G02*
X174170000Y-111077000I0J75000D01*
G01*
X174170000Y-110927000D01*
G75*
G02*
X174245000Y-110852000I75000J0D01*
G01*
X175570000Y-110852000D01*
G75*
G02*
X175645000Y-110927000I0J-75000D01*
G01*
G37*
%TD.AperFunction*%
%TO.P,U1,31*%
%TO.N,Net-(U1-Pad31)*%
%TA.AperFunction,SMDPad,CuDef*%
G36*
G01*
X175645000Y-111427000D02*
X175645000Y-111577000D01*
G75*
G02*
X175570000Y-111652000I-75000J0D01*
G01*
X174245000Y-111652000D01*
G75*
G02*
X174170000Y-111577000I0J75000D01*
G01*
X174170000Y-111427000D01*
G75*
G02*
X174245000Y-111352000I75000J0D01*
G01*
X175570000Y-111352000D01*
G75*
G02*
X175645000Y-111427000I0J-75000D01*
G01*
G37*
%TD.AperFunction*%
%TO.P,U1,32*%
%TO.N,/D-*%
%TA.AperFunction,SMDPad,CuDef*%
G36*
G01*
X175645000Y-111927000D02*
X175645000Y-112077000D01*
G75*
G02*
X175570000Y-112152000I-75000J0D01*
G01*
X174245000Y-112152000D01*
G75*
G02*
X174170000Y-112077000I0J75000D01*
G01*
X174170000Y-111927000D01*
G75*
G02*
X174245000Y-111852000I75000J0D01*
G01*
X175570000Y-111852000D01*
G75*
G02*
X175645000Y-111927000I0J-75000D01*
G01*
G37*
%TD.AperFunction*%
%TO.P,U1,33*%
%TO.N,/D+*%
%TA.AperFunction,SMDPad,CuDef*%
G36*
G01*
X175645000Y-112427000D02*
X175645000Y-112577000D01*
G75*
G02*
X175570000Y-112652000I-75000J0D01*
G01*
X174245000Y-112652000D01*
G75*
G02*
X174170000Y-112577000I0J75000D01*
G01*
X174170000Y-112427000D01*
G75*
G02*
X174245000Y-112352000I75000J0D01*
G01*
X175570000Y-112352000D01*
G75*
G02*
X175645000Y-112427000I0J-75000D01*
G01*
G37*
%TD.AperFunction*%
%TO.P,U1,34*%
%TO.N,/ST_SWDIO*%
%TA.AperFunction,SMDPad,CuDef*%
G36*
G01*
X175645000Y-112927000D02*
X175645000Y-113077000D01*
G75*
G02*
X175570000Y-113152000I-75000J0D01*
G01*
X174245000Y-113152000D01*
G75*
G02*
X174170000Y-113077000I0J75000D01*
G01*
X174170000Y-112927000D01*
G75*
G02*
X174245000Y-112852000I75000J0D01*
G01*
X175570000Y-112852000D01*
G75*
G02*
X175645000Y-112927000I0J-75000D01*
G01*
G37*
%TD.AperFunction*%
%TO.P,U1,35*%
%TO.N,GND*%
%TA.AperFunction,SMDPad,CuDef*%
G36*
G01*
X175645000Y-113427000D02*
X175645000Y-113577000D01*
G75*
G02*
X175570000Y-113652000I-75000J0D01*
G01*
X174245000Y-113652000D01*
G75*
G02*
X174170000Y-113577000I0J75000D01*
G01*
X174170000Y-113427000D01*
G75*
G02*
X174245000Y-113352000I75000J0D01*
G01*
X175570000Y-113352000D01*
G75*
G02*
X175645000Y-113427000I0J-75000D01*
G01*
G37*
%TD.AperFunction*%
%TO.P,U1,36*%
%TO.N,+3V3*%
%TA.AperFunction,SMDPad,CuDef*%
G36*
G01*
X175645000Y-113927000D02*
X175645000Y-114077000D01*
G75*
G02*
X175570000Y-114152000I-75000J0D01*
G01*
X174245000Y-114152000D01*
G75*
G02*
X174170000Y-114077000I0J75000D01*
G01*
X174170000Y-113927000D01*
G75*
G02*
X174245000Y-113852000I75000J0D01*
G01*
X175570000Y-113852000D01*
G75*
G02*
X175645000Y-113927000I0J-75000D01*
G01*
G37*
%TD.AperFunction*%
%TO.P,U1,37*%
%TO.N,/ST_SWCLK*%
%TA.AperFunction,SMDPad,CuDef*%
G36*
G01*
X176470000Y-114752000D02*
X176470000Y-116077000D01*
G75*
G02*
X176395000Y-116152000I-75000J0D01*
G01*
X176245000Y-116152000D01*
G75*
G02*
X176170000Y-116077000I0J75000D01*
G01*
X176170000Y-114752000D01*
G75*
G02*
X176245000Y-114677000I75000J0D01*
G01*
X176395000Y-114677000D01*
G75*
G02*
X176470000Y-114752000I0J-75000D01*
G01*
G37*
%TD.AperFunction*%
%TO.P,U1,38*%
%TO.N,Net-(R13-Pad1)*%
%TA.AperFunction,SMDPad,CuDef*%
G36*
G01*
X176970000Y-114752000D02*
X176970000Y-116077000D01*
G75*
G02*
X176895000Y-116152000I-75000J0D01*
G01*
X176745000Y-116152000D01*
G75*
G02*
X176670000Y-116077000I0J75000D01*
G01*
X176670000Y-114752000D01*
G75*
G02*
X176745000Y-114677000I75000J0D01*
G01*
X176895000Y-114677000D01*
G75*
G02*
X176970000Y-114752000I0J-75000D01*
G01*
G37*
%TD.AperFunction*%
%TO.P,U1,39*%
%TO.N,Net-(R8-Pad1)*%
%TA.AperFunction,SMDPad,CuDef*%
G36*
G01*
X177470000Y-114752000D02*
X177470000Y-116077000D01*
G75*
G02*
X177395000Y-116152000I-75000J0D01*
G01*
X177245000Y-116152000D01*
G75*
G02*
X177170000Y-116077000I0J75000D01*
G01*
X177170000Y-114752000D01*
G75*
G02*
X177245000Y-114677000I75000J0D01*
G01*
X177395000Y-114677000D01*
G75*
G02*
X177470000Y-114752000I0J-75000D01*
G01*
G37*
%TD.AperFunction*%
%TO.P,U1,40*%
%TO.N,Net-(U1-Pad40)*%
%TA.AperFunction,SMDPad,CuDef*%
G36*
G01*
X177970000Y-114752000D02*
X177970000Y-116077000D01*
G75*
G02*
X177895000Y-116152000I-75000J0D01*
G01*
X177745000Y-116152000D01*
G75*
G02*
X177670000Y-116077000I0J75000D01*
G01*
X177670000Y-114752000D01*
G75*
G02*
X177745000Y-114677000I75000J0D01*
G01*
X177895000Y-114677000D01*
G75*
G02*
X177970000Y-114752000I0J-75000D01*
G01*
G37*
%TD.AperFunction*%
%TO.P,U1,41*%
%TO.N,Net-(U1-Pad41)*%
%TA.AperFunction,SMDPad,CuDef*%
G36*
G01*
X178470000Y-114752000D02*
X178470000Y-116077000D01*
G75*
G02*
X178395000Y-116152000I-75000J0D01*
G01*
X178245000Y-116152000D01*
G75*
G02*
X178170000Y-116077000I0J75000D01*
G01*
X178170000Y-114752000D01*
G75*
G02*
X178245000Y-114677000I75000J0D01*
G01*
X178395000Y-114677000D01*
G75*
G02*
X178470000Y-114752000I0J-75000D01*
G01*
G37*
%TD.AperFunction*%
%TO.P,U1,42*%
%TO.N,Net-(U1-Pad42)*%
%TA.AperFunction,SMDPad,CuDef*%
G36*
G01*
X178970000Y-114752000D02*
X178970000Y-116077000D01*
G75*
G02*
X178895000Y-116152000I-75000J0D01*
G01*
X178745000Y-116152000D01*
G75*
G02*
X178670000Y-116077000I0J75000D01*
G01*
X178670000Y-114752000D01*
G75*
G02*
X178745000Y-114677000I75000J0D01*
G01*
X178895000Y-114677000D01*
G75*
G02*
X178970000Y-114752000I0J-75000D01*
G01*
G37*
%TD.AperFunction*%
%TO.P,U1,43*%
%TO.N,Net-(U1-Pad43)*%
%TA.AperFunction,SMDPad,CuDef*%
G36*
G01*
X179470000Y-114752000D02*
X179470000Y-116077000D01*
G75*
G02*
X179395000Y-116152000I-75000J0D01*
G01*
X179245000Y-116152000D01*
G75*
G02*
X179170000Y-116077000I0J75000D01*
G01*
X179170000Y-114752000D01*
G75*
G02*
X179245000Y-114677000I75000J0D01*
G01*
X179395000Y-114677000D01*
G75*
G02*
X179470000Y-114752000I0J-75000D01*
G01*
G37*
%TD.AperFunction*%
%TO.P,U1,44*%
%TO.N,Net-(R6-Pad1)*%
%TA.AperFunction,SMDPad,CuDef*%
G36*
G01*
X179970000Y-114752000D02*
X179970000Y-116077000D01*
G75*
G02*
X179895000Y-116152000I-75000J0D01*
G01*
X179745000Y-116152000D01*
G75*
G02*
X179670000Y-116077000I0J75000D01*
G01*
X179670000Y-114752000D01*
G75*
G02*
X179745000Y-114677000I75000J0D01*
G01*
X179895000Y-114677000D01*
G75*
G02*
X179970000Y-114752000I0J-75000D01*
G01*
G37*
%TD.AperFunction*%
%TO.P,U1,45*%
%TO.N,Net-(U1-Pad45)*%
%TA.AperFunction,SMDPad,CuDef*%
G36*
G01*
X180470000Y-114752000D02*
X180470000Y-116077000D01*
G75*
G02*
X180395000Y-116152000I-75000J0D01*
G01*
X180245000Y-116152000D01*
G75*
G02*
X180170000Y-116077000I0J75000D01*
G01*
X180170000Y-114752000D01*
G75*
G02*
X180245000Y-114677000I75000J0D01*
G01*
X180395000Y-114677000D01*
G75*
G02*
X180470000Y-114752000I0J-75000D01*
G01*
G37*
%TD.AperFunction*%
%TO.P,U1,46*%
%TO.N,Net-(U1-Pad46)*%
%TA.AperFunction,SMDPad,CuDef*%
G36*
G01*
X180970000Y-114752000D02*
X180970000Y-116077000D01*
G75*
G02*
X180895000Y-116152000I-75000J0D01*
G01*
X180745000Y-116152000D01*
G75*
G02*
X180670000Y-116077000I0J75000D01*
G01*
X180670000Y-114752000D01*
G75*
G02*
X180745000Y-114677000I75000J0D01*
G01*
X180895000Y-114677000D01*
G75*
G02*
X180970000Y-114752000I0J-75000D01*
G01*
G37*
%TD.AperFunction*%
%TO.P,U1,47*%
%TO.N,GND*%
%TA.AperFunction,SMDPad,CuDef*%
G36*
G01*
X181470000Y-114752000D02*
X181470000Y-116077000D01*
G75*
G02*
X181395000Y-116152000I-75000J0D01*
G01*
X181245000Y-116152000D01*
G75*
G02*
X181170000Y-116077000I0J75000D01*
G01*
X181170000Y-114752000D01*
G75*
G02*
X181245000Y-114677000I75000J0D01*
G01*
X181395000Y-114677000D01*
G75*
G02*
X181470000Y-114752000I0J-75000D01*
G01*
G37*
%TD.AperFunction*%
%TO.P,U1,48*%
%TO.N,+3V3*%
%TA.AperFunction,SMDPad,CuDef*%
G36*
G01*
X181970000Y-114752000D02*
X181970000Y-116077000D01*
G75*
G02*
X181895000Y-116152000I-75000J0D01*
G01*
X181745000Y-116152000D01*
G75*
G02*
X181670000Y-116077000I0J75000D01*
G01*
X181670000Y-114752000D01*
G75*
G02*
X181745000Y-114677000I75000J0D01*
G01*
X181895000Y-114677000D01*
G75*
G02*
X181970000Y-114752000I0J-75000D01*
G01*
G37*
%TD.AperFunction*%
%TD*%
%TO.P,R18,1*%
%TO.N,Net-(J2-PadA6)*%
%TA.AperFunction,SMDPad,CuDef*%
G36*
G01*
X171686000Y-112453000D02*
X171686000Y-112083000D01*
G75*
G02*
X171821000Y-111948000I135000J0D01*
G01*
X172091000Y-111948000D01*
G75*
G02*
X172226000Y-112083000I0J-135000D01*
G01*
X172226000Y-112453000D01*
G75*
G02*
X172091000Y-112588000I-135000J0D01*
G01*
X171821000Y-112588000D01*
G75*
G02*
X171686000Y-112453000I0J135000D01*
G01*
G37*
%TD.AperFunction*%
%TO.P,R18,2*%
%TO.N,/D+*%
%TA.AperFunction,SMDPad,CuDef*%
G36*
G01*
X172706000Y-112453000D02*
X172706000Y-112083000D01*
G75*
G02*
X172841000Y-111948000I135000J0D01*
G01*
X173111000Y-111948000D01*
G75*
G02*
X173246000Y-112083000I0J-135000D01*
G01*
X173246000Y-112453000D01*
G75*
G02*
X173111000Y-112588000I-135000J0D01*
G01*
X172841000Y-112588000D01*
G75*
G02*
X172706000Y-112453000I0J135000D01*
G01*
G37*
%TD.AperFunction*%
%TD*%
%TO.P,R17,1*%
%TO.N,Net-(J2-PadA7)*%
%TA.AperFunction,SMDPad,CuDef*%
G36*
G01*
X171688000Y-111437000D02*
X171688000Y-111067000D01*
G75*
G02*
X171823000Y-110932000I135000J0D01*
G01*
X172093000Y-110932000D01*
G75*
G02*
X172228000Y-111067000I0J-135000D01*
G01*
X172228000Y-111437000D01*
G75*
G02*
X172093000Y-111572000I-135000J0D01*
G01*
X171823000Y-111572000D01*
G75*
G02*
X171688000Y-111437000I0J135000D01*
G01*
G37*
%TD.AperFunction*%
%TO.P,R17,2*%
%TO.N,/D-*%
%TA.AperFunction,SMDPad,CuDef*%
G36*
G01*
X172708000Y-111437000D02*
X172708000Y-111067000D01*
G75*
G02*
X172843000Y-110932000I135000J0D01*
G01*
X173113000Y-110932000D01*
G75*
G02*
X173248000Y-111067000I0J-135000D01*
G01*
X173248000Y-111437000D01*
G75*
G02*
X173113000Y-111572000I-135000J0D01*
G01*
X172843000Y-111572000D01*
G75*
G02*
X172708000Y-111437000I0J135000D01*
G01*
G37*
%TD.AperFunction*%
%TD*%
%TO.P,R12,1*%
%TO.N,/LED_STLINK*%
%TA.AperFunction,SMDPad,CuDef*%
G36*
G01*
X172143000Y-110506000D02*
X171773000Y-110506000D01*
G75*
G02*
X171638000Y-110371000I0J135000D01*
G01*
X171638000Y-110101000D01*
G75*
G02*
X171773000Y-109966000I135000J0D01*
G01*
X172143000Y-109966000D01*
G75*
G02*
X172278000Y-110101000I0J-135000D01*
G01*
X172278000Y-110371000D01*
G75*
G02*
X172143000Y-110506000I-135000J0D01*
G01*
G37*
%TD.AperFunction*%
%TO.P,R12,2*%
%TO.N,Net-(D4-Pad2)*%
%TA.AperFunction,SMDPad,CuDef*%
G36*
G01*
X172143000Y-109486000D02*
X171773000Y-109486000D01*
G75*
G02*
X171638000Y-109351000I0J135000D01*
G01*
X171638000Y-109081000D01*
G75*
G02*
X171773000Y-108946000I135000J0D01*
G01*
X172143000Y-108946000D01*
G75*
G02*
X172278000Y-109081000I0J-135000D01*
G01*
X172278000Y-109351000D01*
G75*
G02*
X172143000Y-109486000I-135000J0D01*
G01*
G37*
%TD.AperFunction*%
%TD*%
%TO.P,R11,1*%
%TO.N,Net-(D5-Pad1)*%
%TA.AperFunction,SMDPad,CuDef*%
G36*
G01*
X172789000Y-108948000D02*
X173159000Y-108948000D01*
G75*
G02*
X173294000Y-109083000I0J-135000D01*
G01*
X173294000Y-109353000D01*
G75*
G02*
X173159000Y-109488000I-135000J0D01*
G01*
X172789000Y-109488000D01*
G75*
G02*
X172654000Y-109353000I0J135000D01*
G01*
X172654000Y-109083000D01*
G75*
G02*
X172789000Y-108948000I135000J0D01*
G01*
G37*
%TD.AperFunction*%
%TO.P,R11,2*%
%TO.N,/LED_STLINK*%
%TA.AperFunction,SMDPad,CuDef*%
G36*
G01*
X172789000Y-109968000D02*
X173159000Y-109968000D01*
G75*
G02*
X173294000Y-110103000I0J-135000D01*
G01*
X173294000Y-110373000D01*
G75*
G02*
X173159000Y-110508000I-135000J0D01*
G01*
X172789000Y-110508000D01*
G75*
G02*
X172654000Y-110373000I0J135000D01*
G01*
X172654000Y-110103000D01*
G75*
G02*
X172789000Y-109968000I135000J0D01*
G01*
G37*
%TD.AperFunction*%
%TD*%
%TO.P,R10,1*%
%TO.N,Net-(R10-Pad1)*%
%TA.AperFunction,SMDPad,CuDef*%
G36*
G01*
X185097000Y-112540000D02*
X184727000Y-112540000D01*
G75*
G02*
X184592000Y-112405000I0J135000D01*
G01*
X184592000Y-112135000D01*
G75*
G02*
X184727000Y-112000000I135000J0D01*
G01*
X185097000Y-112000000D01*
G75*
G02*
X185232000Y-112135000I0J-135000D01*
G01*
X185232000Y-112405000D01*
G75*
G02*
X185097000Y-112540000I-135000J0D01*
G01*
G37*
%TD.AperFunction*%
%TO.P,R10,2*%
%TO.N,GND*%
%TA.AperFunction,SMDPad,CuDef*%
G36*
G01*
X185097000Y-111520000D02*
X184727000Y-111520000D01*
G75*
G02*
X184592000Y-111385000I0J135000D01*
G01*
X184592000Y-111115000D01*
G75*
G02*
X184727000Y-110980000I135000J0D01*
G01*
X185097000Y-110980000D01*
G75*
G02*
X185232000Y-111115000I0J-135000D01*
G01*
X185232000Y-111385000D01*
G75*
G02*
X185097000Y-111520000I-135000J0D01*
G01*
G37*
%TD.AperFunction*%
%TD*%
%TO.P,R9,1*%
%TO.N,Net-(R9-Pad1)*%
%TA.AperFunction,SMDPad,CuDef*%
G36*
G01*
X184727000Y-113520000D02*
X185097000Y-113520000D01*
G75*
G02*
X185232000Y-113655000I0J-135000D01*
G01*
X185232000Y-113925000D01*
G75*
G02*
X185097000Y-114060000I-135000J0D01*
G01*
X184727000Y-114060000D01*
G75*
G02*
X184592000Y-113925000I0J135000D01*
G01*
X184592000Y-113655000D01*
G75*
G02*
X184727000Y-113520000I135000J0D01*
G01*
G37*
%TD.AperFunction*%
%TO.P,R9,2*%
%TO.N,GND*%
%TA.AperFunction,SMDPad,CuDef*%
G36*
G01*
X184727000Y-114540000D02*
X185097000Y-114540000D01*
G75*
G02*
X185232000Y-114675000I0J-135000D01*
G01*
X185232000Y-114945000D01*
G75*
G02*
X185097000Y-115080000I-135000J0D01*
G01*
X184727000Y-115080000D01*
G75*
G02*
X184592000Y-114945000I0J135000D01*
G01*
X184592000Y-114675000D01*
G75*
G02*
X184727000Y-114540000I135000J0D01*
G01*
G37*
%TD.AperFunction*%
%TD*%
D11*
%TO.P,J2,S1*%
%TO.N,GND*%
X170053000Y-115273000D03*
%TO.P,J2,S2*%
X170053000Y-107993000D03*
D12*
%TO.P,J2,A1*%
X170053000Y-114383000D03*
D13*
%TO.P,J2,A2*%
%TO.N,Net-(J2-PadA2)*%
X170053000Y-113883000D03*
%TO.P,J2,A3*%
%TO.N,Net-(J2-PadA3)*%
X170053000Y-113383000D03*
%TO.P,J2,A4*%
%TO.N,+5V*%
X170053000Y-112883000D03*
%TO.P,J2,A5*%
%TO.N,Net-(J2-PadA5)*%
X170053000Y-112383000D03*
%TO.P,J2,A6*%
%TO.N,Net-(J2-PadA6)*%
X170053000Y-111883000D03*
%TO.P,J2,A7*%
%TO.N,Net-(J2-PadA7)*%
X170053000Y-111383000D03*
%TO.P,J2,A8*%
%TO.N,Net-(J2-PadA8)*%
X170053000Y-110883000D03*
%TO.P,J2,A9*%
%TO.N,+5V*%
X170053000Y-110383000D03*
%TO.P,J2,A10*%
%TO.N,Net-(J2-PadA10)*%
X170053000Y-109883000D03*
%TO.P,J2,A11*%
%TO.N,Net-(J2-PadA11)*%
X170053000Y-109383000D03*
D12*
%TO.P,J2,A12*%
%TO.N,GND*%
X170053000Y-108883000D03*
%TD*%
%TO.P,J1,1*%
%TO.N,Net-(D6-Pad1)*%
%TA.AperFunction,SMDPad,CuDef*%
G36*
G01*
X187572000Y-114804000D02*
X186172000Y-114804000D01*
G75*
G02*
X186022000Y-114654000I0J150000D01*
G01*
X186022000Y-114354000D01*
G75*
G02*
X186172000Y-114204000I150000J0D01*
G01*
X187572000Y-114204000D01*
G75*
G02*
X187722000Y-114354000I0J-150000D01*
G01*
X187722000Y-114654000D01*
G75*
G02*
X187572000Y-114804000I-150000J0D01*
G01*
G37*
%TD.AperFunction*%
%TO.P,J1,2*%
%TO.N,/SWDIO*%
%TA.AperFunction,SMDPad,CuDef*%
G36*
G01*
X187572000Y-113554000D02*
X186172000Y-113554000D01*
G75*
G02*
X186022000Y-113404000I0J150000D01*
G01*
X186022000Y-113104000D01*
G75*
G02*
X186172000Y-112954000I150000J0D01*
G01*
X187572000Y-112954000D01*
G75*
G02*
X187722000Y-113104000I0J-150000D01*
G01*
X187722000Y-113404000D01*
G75*
G02*
X187572000Y-113554000I-150000J0D01*
G01*
G37*
%TD.AperFunction*%
%TO.P,J1,3*%
%TO.N,/SWCLK*%
%TA.AperFunction,SMDPad,CuDef*%
G36*
G01*
X187572000Y-112304000D02*
X186172000Y-112304000D01*
G75*
G02*
X186022000Y-112154000I0J150000D01*
G01*
X186022000Y-111854000D01*
G75*
G02*
X186172000Y-111704000I150000J0D01*
G01*
X187572000Y-111704000D01*
G75*
G02*
X187722000Y-111854000I0J-150000D01*
G01*
X187722000Y-112154000D01*
G75*
G02*
X187572000Y-112304000I-150000J0D01*
G01*
G37*
%TD.AperFunction*%
%TO.P,J1,4*%
%TO.N,/TXD*%
%TA.AperFunction,SMDPad,CuDef*%
G36*
G01*
X187572000Y-111054000D02*
X186172000Y-111054000D01*
G75*
G02*
X186022000Y-110904000I0J150000D01*
G01*
X186022000Y-110604000D01*
G75*
G02*
X186172000Y-110454000I150000J0D01*
G01*
X187572000Y-110454000D01*
G75*
G02*
X187722000Y-110604000I0J-150000D01*
G01*
X187722000Y-110904000D01*
G75*
G02*
X187572000Y-111054000I-150000J0D01*
G01*
G37*
%TD.AperFunction*%
%TO.P,J1,5*%
%TO.N,/RXD*%
%TA.AperFunction,SMDPad,CuDef*%
G36*
G01*
X187572000Y-109804000D02*
X186172000Y-109804000D01*
G75*
G02*
X186022000Y-109654000I0J150000D01*
G01*
X186022000Y-109354000D01*
G75*
G02*
X186172000Y-109204000I150000J0D01*
G01*
X187572000Y-109204000D01*
G75*
G02*
X187722000Y-109354000I0J-150000D01*
G01*
X187722000Y-109654000D01*
G75*
G02*
X187572000Y-109804000I-150000J0D01*
G01*
G37*
%TD.AperFunction*%
%TO.P,J1,6*%
%TO.N,GND*%
%TA.AperFunction,SMDPad,CuDef*%
G36*
G01*
X187572000Y-108554000D02*
X186172000Y-108554000D01*
G75*
G02*
X186022000Y-108404000I0J150000D01*
G01*
X186022000Y-108104000D01*
G75*
G02*
X186172000Y-107954000I150000J0D01*
G01*
X187572000Y-107954000D01*
G75*
G02*
X187722000Y-108104000I0J-150000D01*
G01*
X187722000Y-108404000D01*
G75*
G02*
X187572000Y-108554000I-150000J0D01*
G01*
G37*
%TD.AperFunction*%
%TO.P,J1,MP*%
%TO.N,N/C*%
%TA.AperFunction,SMDPad,CuDef*%
G36*
G01*
X191172000Y-116854000D02*
X188972000Y-116854000D01*
G75*
G02*
X188722000Y-116604000I0J250000D01*
G01*
X188722000Y-116104000D01*
G75*
G02*
X188972000Y-115854000I250000J0D01*
G01*
X191172000Y-115854000D01*
G75*
G02*
X191422000Y-116104000I0J-250000D01*
G01*
X191422000Y-116604000D01*
G75*
G02*
X191172000Y-116854000I-250000J0D01*
G01*
G37*
%TD.AperFunction*%
%TA.AperFunction,SMDPad,CuDef*%
G36*
G01*
X191172000Y-106904000D02*
X188972000Y-106904000D01*
G75*
G02*
X188722000Y-106654000I0J250000D01*
G01*
X188722000Y-106154000D01*
G75*
G02*
X188972000Y-105904000I250000J0D01*
G01*
X191172000Y-105904000D01*
G75*
G02*
X191422000Y-106154000I0J-250000D01*
G01*
X191422000Y-106654000D01*
G75*
G02*
X191172000Y-106904000I-250000J0D01*
G01*
G37*
%TD.AperFunction*%
%TD*%
%TO.P,D6,2*%
%TO.N,+5V*%
%TA.AperFunction,SMDPad,CuDef*%
G36*
G01*
X183385673Y-116979375D02*
X183629625Y-117223327D01*
G75*
G02*
X183629625Y-117431923I-104298J-104298D01*
G01*
X183421029Y-117640519D01*
G75*
G02*
X183212433Y-117640519I-104298J104298D01*
G01*
X182968481Y-117396567D01*
G75*
G02*
X182968481Y-117187971I104298J104298D01*
G01*
X183177077Y-116979375D01*
G75*
G02*
X183385673Y-116979375I104298J-104298D01*
G01*
G37*
%TD.AperFunction*%
%TO.P,D6,1*%
%TO.N,Net-(D6-Pad1)*%
%TA.AperFunction,SMDPad,CuDef*%
G36*
G01*
X184071567Y-116293481D02*
X184315519Y-116537433D01*
G75*
G02*
X184315519Y-116746029I-104298J-104298D01*
G01*
X184106923Y-116954625D01*
G75*
G02*
X183898327Y-116954625I-104298J104298D01*
G01*
X183654375Y-116710673D01*
G75*
G02*
X183654375Y-116502077I104298J104298D01*
G01*
X183862971Y-116293481D01*
G75*
G02*
X184071567Y-116293481I104298J-104298D01*
G01*
G37*
%TD.AperFunction*%
%TD*%
%TO.P,D5,1*%
%TO.N,Net-(D5-Pad1)*%
%TA.AperFunction,SMDPad,CuDef*%
G36*
G01*
X173179433Y-107607519D02*
X172935481Y-107363567D01*
G75*
G02*
X172935481Y-107154971I104298J104298D01*
G01*
X173144077Y-106946375D01*
G75*
G02*
X173352673Y-106946375I104298J-104298D01*
G01*
X173596625Y-107190327D01*
G75*
G02*
X173596625Y-107398923I-104298J-104298D01*
G01*
X173388029Y-107607519D01*
G75*
G02*
X173179433Y-107607519I-104298J104298D01*
G01*
G37*
%TD.AperFunction*%
%TO.P,D5,2*%
%TO.N,+3V3*%
%TA.AperFunction,SMDPad,CuDef*%
G36*
G01*
X173865327Y-106921625D02*
X173621375Y-106677673D01*
G75*
G02*
X173621375Y-106469077I104298J104298D01*
G01*
X173829971Y-106260481D01*
G75*
G02*
X174038567Y-106260481I104298J-104298D01*
G01*
X174282519Y-106504433D01*
G75*
G02*
X174282519Y-106713029I-104298J-104298D01*
G01*
X174073923Y-106921625D01*
G75*
G02*
X173865327Y-106921625I-104298J104298D01*
G01*
G37*
%TD.AperFunction*%
%TD*%
%TO.P,D4,1*%
%TO.N,GND*%
%TA.AperFunction,SMDPad,CuDef*%
G36*
G01*
X173276567Y-105498481D02*
X173520519Y-105742433D01*
G75*
G02*
X173520519Y-105951029I-104298J-104298D01*
G01*
X173311923Y-106159625D01*
G75*
G02*
X173103327Y-106159625I-104298J104298D01*
G01*
X172859375Y-105915673D01*
G75*
G02*
X172859375Y-105707077I104298J104298D01*
G01*
X173067971Y-105498481D01*
G75*
G02*
X173276567Y-105498481I104298J-104298D01*
G01*
G37*
%TD.AperFunction*%
%TO.P,D4,2*%
%TO.N,Net-(D4-Pad2)*%
%TA.AperFunction,SMDPad,CuDef*%
G36*
G01*
X172590673Y-106184375D02*
X172834625Y-106428327D01*
G75*
G02*
X172834625Y-106636923I-104298J-104298D01*
G01*
X172626029Y-106845519D01*
G75*
G02*
X172417433Y-106845519I-104298J104298D01*
G01*
X172173481Y-106601567D01*
G75*
G02*
X172173481Y-106392971I104298J104298D01*
G01*
X172382077Y-106184375D01*
G75*
G02*
X172590673Y-106184375I104298J-104298D01*
G01*
G37*
%TD.AperFunction*%
%TD*%
%TO.P,D3,1*%
%TO.N,Net-(D3-Pad1)*%
%TA.AperFunction,SMDPad,CuDef*%
G36*
G01*
X184676000Y-105618500D02*
X184676000Y-105963500D01*
G75*
G02*
X184528500Y-106111000I-147500J0D01*
G01*
X184233500Y-106111000D01*
G75*
G02*
X184086000Y-105963500I0J147500D01*
G01*
X184086000Y-105618500D01*
G75*
G02*
X184233500Y-105471000I147500J0D01*
G01*
X184528500Y-105471000D01*
G75*
G02*
X184676000Y-105618500I0J-147500D01*
G01*
G37*
%TD.AperFunction*%
%TO.P,D3,2*%
%TO.N,+3V3*%
%TA.AperFunction,SMDPad,CuDef*%
G36*
G01*
X183706000Y-105618500D02*
X183706000Y-105963500D01*
G75*
G02*
X183558500Y-106111000I-147500J0D01*
G01*
X183263500Y-106111000D01*
G75*
G02*
X183116000Y-105963500I0J147500D01*
G01*
X183116000Y-105618500D01*
G75*
G02*
X183263500Y-105471000I147500J0D01*
G01*
X183558500Y-105471000D01*
G75*
G02*
X183706000Y-105618500I0J-147500D01*
G01*
G37*
%TD.AperFunction*%
%TD*%
%TO.P,D2,1*%
%TO.N,Net-(D2-Pad1)*%
%TA.AperFunction,SMDPad,CuDef*%
G36*
G01*
X184676000Y-106634500D02*
X184676000Y-106979500D01*
G75*
G02*
X184528500Y-107127000I-147500J0D01*
G01*
X184233500Y-107127000D01*
G75*
G02*
X184086000Y-106979500I0J147500D01*
G01*
X184086000Y-106634500D01*
G75*
G02*
X184233500Y-106487000I147500J0D01*
G01*
X184528500Y-106487000D01*
G75*
G02*
X184676000Y-106634500I0J-147500D01*
G01*
G37*
%TD.AperFunction*%
%TO.P,D2,2*%
%TO.N,+3V3*%
%TA.AperFunction,SMDPad,CuDef*%
G36*
G01*
X183706000Y-106634500D02*
X183706000Y-106979500D01*
G75*
G02*
X183558500Y-107127000I-147500J0D01*
G01*
X183263500Y-107127000D01*
G75*
G02*
X183116000Y-106979500I0J147500D01*
G01*
X183116000Y-106634500D01*
G75*
G02*
X183263500Y-106487000I147500J0D01*
G01*
X183558500Y-106487000D01*
G75*
G02*
X183706000Y-106634500I0J-147500D01*
G01*
G37*
%TD.AperFunction*%
%TD*%
%TO.P,D1,1*%
%TO.N,Net-(D1-Pad1)*%
%TA.AperFunction,SMDPad,CuDef*%
G36*
G01*
X170388500Y-116822000D02*
X170733500Y-116822000D01*
G75*
G02*
X170881000Y-116969500I0J-147500D01*
G01*
X170881000Y-117264500D01*
G75*
G02*
X170733500Y-117412000I-147500J0D01*
G01*
X170388500Y-117412000D01*
G75*
G02*
X170241000Y-117264500I0J147500D01*
G01*
X170241000Y-116969500D01*
G75*
G02*
X170388500Y-116822000I147500J0D01*
G01*
G37*
%TD.AperFunction*%
%TO.P,D1,2*%
%TO.N,+3V3*%
%TA.AperFunction,SMDPad,CuDef*%
G36*
G01*
X170388500Y-117792000D02*
X170733500Y-117792000D01*
G75*
G02*
X170881000Y-117939500I0J-147500D01*
G01*
X170881000Y-118234500D01*
G75*
G02*
X170733500Y-118382000I-147500J0D01*
G01*
X170388500Y-118382000D01*
G75*
G02*
X170241000Y-118234500I0J147500D01*
G01*
X170241000Y-117939500D01*
G75*
G02*
X170388500Y-117792000I147500J0D01*
G01*
G37*
%TD.AperFunction*%
%TD*%
%TO.P,C8,1*%
%TO.N,+5V*%
%TA.AperFunction,SMDPad,CuDef*%
G36*
G01*
X171682000Y-113962000D02*
X171682000Y-113622000D01*
G75*
G02*
X171822000Y-113482000I140000J0D01*
G01*
X172102000Y-113482000D01*
G75*
G02*
X172242000Y-113622000I0J-140000D01*
G01*
X172242000Y-113962000D01*
G75*
G02*
X172102000Y-114102000I-140000J0D01*
G01*
X171822000Y-114102000D01*
G75*
G02*
X171682000Y-113962000I0J140000D01*
G01*
G37*
%TD.AperFunction*%
%TO.P,C8,2*%
%TO.N,GND*%
%TA.AperFunction,SMDPad,CuDef*%
G36*
G01*
X172642000Y-113962000D02*
X172642000Y-113622000D01*
G75*
G02*
X172782000Y-113482000I140000J0D01*
G01*
X173062000Y-113482000D01*
G75*
G02*
X173202000Y-113622000I0J-140000D01*
G01*
X173202000Y-113962000D01*
G75*
G02*
X173062000Y-114102000I-140000J0D01*
G01*
X172782000Y-114102000D01*
G75*
G02*
X172642000Y-113962000I0J140000D01*
G01*
G37*
%TD.AperFunction*%
%TD*%
D14*
%TO.N,/NRST*%
X179324000Y-105791000D03*
X181483000Y-108458000D03*
%TO.N,GND*%
X172974000Y-113792000D03*
X170053000Y-114935000D03*
X170053000Y-108204000D03*
X180848000Y-116967000D03*
X179832000Y-114173000D03*
X180721000Y-109220000D03*
X188341000Y-108585000D03*
X186690000Y-106680000D03*
X173101000Y-116840000D03*
X179324000Y-108331000D03*
X187960000Y-118110000D03*
X185420000Y-118110000D03*
X178308000Y-111379000D03*
X174879000Y-107315000D03*
X170180000Y-106045000D03*
X188341000Y-109855000D03*
X190500000Y-109728000D03*
X190500000Y-107950000D03*
X190500000Y-111379000D03*
%TO.N,Net-(C2-Pad1)*%
X181356000Y-112903000D03*
%TO.N,Net-(C3-Pad1)*%
X181351402Y-110748604D03*
%TO.N,+3V3*%
X170561000Y-118110000D03*
X181864000Y-116967000D03*
X184912000Y-109982000D03*
X176276000Y-105791000D03*
X173977157Y-106520379D03*
X174089000Y-117856000D03*
X178306000Y-105791000D03*
X176022000Y-113919000D03*
%TO.N,+5V*%
X171216000Y-112883000D03*
X171196000Y-110744000D03*
%TO.N,Net-(D1-Pad1)*%
X170561000Y-117094000D03*
%TO.N,Net-(D2-Pad1)*%
X184404000Y-106807000D03*
%TO.N,Net-(D3-Pad1)*%
X184404000Y-105791000D03*
%TO.N,/SWDIO*%
X173736000Y-109474000D03*
X186779884Y-113210990D03*
%TO.N,/SWCLK*%
X186817000Y-112014000D03*
X181229000Y-105791008D03*
X176149000Y-108966000D03*
X180788747Y-108319150D03*
%TO.N,/TXD*%
X186817000Y-110754000D03*
X185547000Y-107696000D03*
%TO.N,/RXD*%
X186817000Y-109474000D03*
X182245000Y-105791000D03*
%TO.N,Net-(J2-PadA6)*%
X171958000Y-112268000D03*
%TO.N,/SWDIO_IN*%
X173736000Y-108458000D03*
%TO.N,Net-(R6-Pad1)*%
X179832000Y-116967000D03*
%TO.N,Net-(R7-Pad1)*%
X178308000Y-108257990D03*
%TO.N,Net-(R8-Pad1)*%
X177292000Y-116967000D03*
%TO.N,Net-(R13-Pad1)*%
X176149000Y-116967000D03*
%TO.N,Net-(R14-Pad1)*%
X184912000Y-108966000D03*
%TO.N,/ST_SWCLK*%
X177419000Y-113919000D03*
%TO.N,/ST_SWDIO*%
X176149000Y-111379000D03*
%TD*%
D15*
%TO.N,/NRST*%
X179320000Y-105922000D02*
X179324000Y-105918000D01*
X179320000Y-107089500D02*
X179320000Y-105922000D01*
X182426472Y-111002000D02*
X183232500Y-111002000D01*
X181483000Y-110058528D02*
X182426472Y-111002000D01*
X181483000Y-108458000D02*
X181483000Y-110058528D01*
%TO.N,Net-(C2-Pad1)*%
X181876000Y-112002000D02*
X181356000Y-112522000D01*
X181356000Y-112522000D02*
X181356000Y-112903000D01*
X183232500Y-112002000D02*
X181876000Y-112002000D01*
%TO.N,Net-(C3-Pad1)*%
X181860000Y-111502000D02*
X181351402Y-110993402D01*
X181351402Y-110993402D02*
X181351402Y-110748604D01*
X183232500Y-111502000D02*
X181860000Y-111502000D01*
%TO.N,+3V3*%
X181820000Y-116923000D02*
X181864000Y-116967000D01*
X183411000Y-106045000D02*
X183411000Y-106530000D01*
X183114000Y-110002000D02*
X183232500Y-110002000D01*
X183091010Y-109979010D02*
X183114000Y-110002000D01*
X176320000Y-105835000D02*
X176276000Y-105791000D01*
X176320000Y-107089500D02*
X176320000Y-105835000D01*
X184678000Y-110002000D02*
X184785000Y-110109000D01*
X183232500Y-110002000D02*
X184678000Y-110002000D01*
X181820000Y-116415000D02*
X181820000Y-116923000D01*
X181820000Y-115414500D02*
X181820000Y-116415000D01*
X183178000Y-116415000D02*
X181820000Y-116415000D01*
X184264990Y-114295057D02*
X184264990Y-115328010D01*
X183971933Y-114002000D02*
X184264990Y-114295057D01*
X184264990Y-115328010D02*
X183178000Y-116415000D01*
X183232500Y-114002000D02*
X183971933Y-114002000D01*
X174752000Y-105791000D02*
X178306000Y-105791000D01*
X173951947Y-106591053D02*
X174752000Y-105791000D01*
X176066000Y-114002000D02*
X176149000Y-113919000D01*
X174907500Y-114002000D02*
X176066000Y-114002000D01*
X178953010Y-105143990D02*
X178306000Y-105791000D01*
X183121990Y-105143990D02*
X178953010Y-105143990D01*
X183411000Y-105433000D02*
X183121990Y-105143990D01*
X183411000Y-105791000D02*
X183411000Y-105433000D01*
%TO.N,+5V*%
X170053000Y-112883000D02*
X171216000Y-112883000D01*
X171132002Y-110583002D02*
X171132002Y-110744000D01*
X170932000Y-110383000D02*
X171132002Y-110583002D01*
X170053000Y-110383000D02*
X170932000Y-110383000D01*
D16*
X171962000Y-113415000D02*
X171962000Y-113792000D01*
X171589010Y-113042010D02*
X171962000Y-113415000D01*
X171577024Y-113042010D02*
X171589010Y-113042010D01*
X171418014Y-112883000D02*
X171577024Y-113042010D01*
X171216000Y-112883000D02*
X171418014Y-112883000D01*
X171958000Y-113796000D02*
X171962000Y-113792000D01*
X171958000Y-114427000D02*
X171958000Y-113796000D01*
X172151000Y-114620000D02*
X171958000Y-114427000D01*
X172151000Y-115613000D02*
X172151000Y-114620000D01*
X182880000Y-117729000D02*
X183299053Y-117309947D01*
X175260000Y-117125842D02*
X175863158Y-117729000D01*
X175863158Y-117729000D02*
X182880000Y-117729000D01*
X175260000Y-115189000D02*
X175260000Y-117125842D01*
X174691000Y-114620000D02*
X175260000Y-115189000D01*
X174051000Y-115613000D02*
X174051000Y-114620000D01*
X174051000Y-114620000D02*
X174691000Y-114620000D01*
X172151000Y-114620000D02*
X174051000Y-114620000D01*
D15*
%TO.N,Net-(D4-Pad2)*%
X171958000Y-107061000D02*
X172504053Y-106514947D01*
X171958000Y-109216000D02*
X171958000Y-107061000D01*
%TO.N,Net-(D5-Pad1)*%
X172974000Y-107569000D02*
X173266053Y-107276947D01*
X172974000Y-109218000D02*
X172974000Y-107569000D01*
D16*
%TO.N,Net-(D6-Pad1)*%
X187656000Y-114504000D02*
X186745000Y-114504000D01*
X183984947Y-116624053D02*
X184785000Y-115824000D01*
X187960000Y-114808000D02*
X187656000Y-114504000D01*
X187960000Y-115316000D02*
X187960000Y-114808000D01*
X187452000Y-115824000D02*
X187960000Y-115316000D01*
X184785000Y-115824000D02*
X187452000Y-115824000D01*
D15*
%TO.N,/SWDIO*%
X173764000Y-109502000D02*
X174907500Y-109502000D01*
X173736000Y-109474000D02*
X173764000Y-109502000D01*
%TO.N,/SWCLK*%
X180820000Y-107089500D02*
X180820000Y-106200008D01*
X180820000Y-106200008D02*
X181229000Y-105791008D01*
X180820000Y-107089500D02*
X180820000Y-107895528D01*
X180820000Y-107895528D02*
X180820000Y-108430000D01*
X176113000Y-109002000D02*
X176149000Y-108966000D01*
X174907500Y-109002000D02*
X176113000Y-109002000D01*
%TO.N,/TXD*%
X186745000Y-110754000D02*
X186745064Y-110754000D01*
X185166000Y-107696000D02*
X185547000Y-107696000D01*
X184360000Y-108502000D02*
X185166000Y-107696000D01*
X183232500Y-108502000D02*
X184360000Y-108502000D01*
%TO.N,/RXD*%
X181820000Y-107089500D02*
X181820000Y-106255000D01*
X186745000Y-109504000D02*
X186745048Y-109504000D01*
X181820000Y-106255000D02*
X181820000Y-105962000D01*
X181991000Y-105791000D02*
X182245000Y-105791000D01*
X181820000Y-105962000D02*
X181991000Y-105791000D01*
%TO.N,Net-(J2-PadA6)*%
X171703500Y-112268000D02*
X171956000Y-112268000D01*
X171318500Y-111883000D02*
X171703500Y-112268000D01*
X170053000Y-111883000D02*
X171318500Y-111883000D01*
%TO.N,Net-(J2-PadA7)*%
X171577000Y-111252000D02*
X171958000Y-111252000D01*
X171446000Y-111383000D02*
X171577000Y-111252000D01*
X170053000Y-111383000D02*
X171446000Y-111383000D01*
%TO.N,/SWDIO_IN*%
X173780000Y-108502000D02*
X173736000Y-108458000D01*
X174907500Y-108502000D02*
X173780000Y-108502000D01*
%TO.N,Net-(R6-Pad1)*%
X179820000Y-116955000D02*
X179820000Y-115414500D01*
X179832000Y-116967000D02*
X179820000Y-116955000D01*
%TO.N,Net-(R7-Pad1)*%
X178320000Y-108245990D02*
X178308000Y-108257990D01*
X178320000Y-107089500D02*
X178320000Y-108245990D01*
%TO.N,Net-(R8-Pad1)*%
X177320000Y-116939000D02*
X177292000Y-116967000D01*
X177320000Y-115414500D02*
X177320000Y-116939000D01*
%TO.N,Net-(R9-Pad1)*%
X183232500Y-113502000D02*
X184114000Y-113502000D01*
X184402000Y-113790000D02*
X184785000Y-113790000D01*
X184114000Y-113502000D02*
X184402000Y-113790000D01*
%TO.N,Net-(R10-Pad1)*%
X183232500Y-113002000D02*
X184559000Y-113002000D01*
X184559000Y-113002000D02*
X184785000Y-112776000D01*
X184785000Y-112270000D02*
X184785000Y-112522000D01*
X184785000Y-112522000D02*
X184785000Y-112397000D01*
X184785000Y-112776000D02*
X184785000Y-112522000D01*
%TO.N,/LED_STLINK*%
X172972000Y-110236000D02*
X172974000Y-110238000D01*
X171958000Y-110236000D02*
X172972000Y-110236000D01*
X174078482Y-110979010D02*
X173337472Y-110238000D01*
X174098010Y-110979010D02*
X174078482Y-110979010D01*
X174121000Y-111002000D02*
X174098010Y-110979010D01*
X173337472Y-110238000D02*
X172974000Y-110238000D01*
X174907500Y-111002000D02*
X174121000Y-111002000D01*
%TO.N,Net-(R13-Pad1)*%
X176820000Y-116296000D02*
X176149000Y-116967000D01*
X176820000Y-115414500D02*
X176820000Y-116296000D01*
%TO.N,Net-(R14-Pad1)*%
X184720500Y-109028500D02*
X184785000Y-108964000D01*
X184576528Y-108964000D02*
X184912000Y-108964000D01*
X184038528Y-109502000D02*
X184576528Y-108964000D01*
X183232500Y-109502000D02*
X184038528Y-109502000D01*
%TO.N,/D-*%
X173351472Y-111252000D02*
X172978000Y-111252000D01*
X174101472Y-112002000D02*
X173351472Y-111252000D01*
X174907500Y-112002000D02*
X174101472Y-112002000D01*
%TO.N,/D+*%
X174907500Y-112502000D02*
X173716000Y-112502000D01*
X173482000Y-112268000D02*
X172976000Y-112268000D01*
X173716000Y-112502000D02*
X173482000Y-112268000D01*
%TO.N,/ST_SWCLK*%
X176320000Y-115414500D02*
X176320000Y-114510000D01*
X177038000Y-113792000D02*
X177419000Y-113792000D01*
X176320000Y-114510000D02*
X177038000Y-113792000D01*
X177419000Y-113792000D02*
X177419000Y-113792000D01*
%TO.N,/ST_SWDIO*%
X176022000Y-112693528D02*
X176022000Y-111379000D01*
X175713528Y-113002000D02*
X176022000Y-112693528D01*
X174907500Y-113002000D02*
X175713528Y-113002000D01*
%TD*%
%TO.N,GND*%
X171018936Y-113433708D02*
X171045595Y-113444750D01*
X171073895Y-113450379D01*
X171101477Y-113458746D01*
X171130165Y-113461572D01*
X171158461Y-113467200D01*
X171174241Y-113467200D01*
X171250890Y-113530104D01*
X171250957Y-113530140D01*
X171350203Y-113629386D01*
X171350203Y-113962000D01*
X171359268Y-114054043D01*
X171373800Y-114101949D01*
X171373800Y-114398316D01*
X171370975Y-114427000D01*
X171373800Y-114455684D01*
X171373800Y-114455691D01*
X171378558Y-114504000D01*
X171382254Y-114541523D01*
X171405612Y-114618523D01*
X171415659Y-114651644D01*
X171469906Y-114753133D01*
X171542910Y-114842090D01*
X171565200Y-114860383D01*
X171566801Y-114861984D01*
X171566801Y-114878339D01*
X171550121Y-114898663D01*
X171519460Y-114956027D01*
X171500578Y-115018270D01*
X171494203Y-115083000D01*
X171494203Y-116143000D01*
X171500578Y-116207730D01*
X171519460Y-116269973D01*
X171550121Y-116327337D01*
X171591384Y-116377616D01*
X171641663Y-116418879D01*
X171699027Y-116449540D01*
X171761270Y-116468422D01*
X171826000Y-116474797D01*
X172476000Y-116474797D01*
X172540730Y-116468422D01*
X172602973Y-116449540D01*
X172660337Y-116418879D01*
X172710616Y-116377616D01*
X172751879Y-116327337D01*
X172782540Y-116269973D01*
X172801422Y-116207730D01*
X172807797Y-116143000D01*
X172807797Y-115204200D01*
X173394203Y-115204200D01*
X173394203Y-116143000D01*
X173400578Y-116207730D01*
X173419460Y-116269973D01*
X173450121Y-116327337D01*
X173491384Y-116377616D01*
X173541663Y-116418879D01*
X173599027Y-116449540D01*
X173661270Y-116468422D01*
X173726000Y-116474797D01*
X174376000Y-116474797D01*
X174440730Y-116468422D01*
X174502973Y-116449540D01*
X174560337Y-116418879D01*
X174610616Y-116377616D01*
X174651879Y-116327337D01*
X174675801Y-116282582D01*
X174675801Y-117097148D01*
X174672975Y-117125842D01*
X174674459Y-117140908D01*
X174651879Y-117098663D01*
X174610616Y-117048384D01*
X174560337Y-117007121D01*
X174502973Y-116976460D01*
X174440730Y-116957578D01*
X174376000Y-116951203D01*
X173726000Y-116951203D01*
X173661270Y-116957578D01*
X173599027Y-116976460D01*
X173541663Y-117007121D01*
X173491384Y-117048384D01*
X173450121Y-117098663D01*
X173419460Y-117156027D01*
X173400578Y-117218270D01*
X173394203Y-117283000D01*
X173394203Y-118343000D01*
X173398812Y-118389800D01*
X172803188Y-118389800D01*
X172807797Y-118343000D01*
X172807797Y-117283000D01*
X172801422Y-117218270D01*
X172782540Y-117156027D01*
X172751879Y-117098663D01*
X172710616Y-117048384D01*
X172660337Y-117007121D01*
X172602973Y-116976460D01*
X172540730Y-116957578D01*
X172476000Y-116951203D01*
X171826000Y-116951203D01*
X171761270Y-116957578D01*
X171699027Y-116976460D01*
X171641663Y-117007121D01*
X171591384Y-117048384D01*
X171550121Y-117098663D01*
X171519460Y-117156027D01*
X171500578Y-117218270D01*
X171494203Y-117283000D01*
X171494203Y-118343000D01*
X171498812Y-118389800D01*
X171184843Y-118389800D01*
X171203587Y-118328006D01*
X171212797Y-118234500D01*
X171212797Y-117939500D01*
X171203587Y-117845994D01*
X171176313Y-117756081D01*
X171132021Y-117673217D01*
X171073574Y-117602000D01*
X171132021Y-117530783D01*
X171176313Y-117447919D01*
X171203587Y-117358006D01*
X171212797Y-117264500D01*
X171212797Y-116969500D01*
X171203587Y-116875994D01*
X171176313Y-116786081D01*
X171132021Y-116703217D01*
X171072414Y-116630586D01*
X170999783Y-116570979D01*
X170916919Y-116526687D01*
X170827006Y-116499413D01*
X170733500Y-116490203D01*
X170388500Y-116490203D01*
X170294994Y-116499413D01*
X170205081Y-116526687D01*
X170122217Y-116570979D01*
X170049586Y-116630586D01*
X169989979Y-116703217D01*
X169945687Y-116786081D01*
X169918413Y-116875994D01*
X169909203Y-116969500D01*
X169909203Y-117264500D01*
X169918413Y-117358006D01*
X169945687Y-117447919D01*
X169989979Y-117530783D01*
X170048426Y-117602000D01*
X169989979Y-117673217D01*
X169945687Y-117756081D01*
X169918413Y-117845994D01*
X169909203Y-117939500D01*
X169909203Y-118234500D01*
X169918413Y-118328006D01*
X169936967Y-118389172D01*
X169797978Y-118375543D01*
X169674840Y-118338366D01*
X169561260Y-118277975D01*
X169461578Y-118196676D01*
X169379585Y-118097563D01*
X169318403Y-117984409D01*
X169280366Y-117861530D01*
X169265200Y-117717241D01*
X169265200Y-114320391D01*
X169301027Y-114339540D01*
X169363270Y-114358422D01*
X169428000Y-114364797D01*
X170678000Y-114364797D01*
X170742730Y-114358422D01*
X170804973Y-114339540D01*
X170862337Y-114308879D01*
X170912616Y-114267616D01*
X170953879Y-114217337D01*
X170984540Y-114159973D01*
X171003422Y-114097730D01*
X171009797Y-114033000D01*
X171009797Y-113733000D01*
X171003422Y-113668270D01*
X170992723Y-113633000D01*
X171003422Y-113597730D01*
X171009797Y-113533000D01*
X171009797Y-113430935D01*
X171018936Y-113433708D01*
%TA.AperFunction,Conductor*%
D17*
G36*
X171018936Y-113433708D02*
G01*
X171045595Y-113444750D01*
X171073895Y-113450379D01*
X171101477Y-113458746D01*
X171130165Y-113461572D01*
X171158461Y-113467200D01*
X171174241Y-113467200D01*
X171250890Y-113530104D01*
X171250957Y-113530140D01*
X171350203Y-113629386D01*
X171350203Y-113962000D01*
X171359268Y-114054043D01*
X171373800Y-114101949D01*
X171373800Y-114398316D01*
X171370975Y-114427000D01*
X171373800Y-114455684D01*
X171373800Y-114455691D01*
X171378558Y-114504000D01*
X171382254Y-114541523D01*
X171405612Y-114618523D01*
X171415659Y-114651644D01*
X171469906Y-114753133D01*
X171542910Y-114842090D01*
X171565200Y-114860383D01*
X171566801Y-114861984D01*
X171566801Y-114878339D01*
X171550121Y-114898663D01*
X171519460Y-114956027D01*
X171500578Y-115018270D01*
X171494203Y-115083000D01*
X171494203Y-116143000D01*
X171500578Y-116207730D01*
X171519460Y-116269973D01*
X171550121Y-116327337D01*
X171591384Y-116377616D01*
X171641663Y-116418879D01*
X171699027Y-116449540D01*
X171761270Y-116468422D01*
X171826000Y-116474797D01*
X172476000Y-116474797D01*
X172540730Y-116468422D01*
X172602973Y-116449540D01*
X172660337Y-116418879D01*
X172710616Y-116377616D01*
X172751879Y-116327337D01*
X172782540Y-116269973D01*
X172801422Y-116207730D01*
X172807797Y-116143000D01*
X172807797Y-115204200D01*
X173394203Y-115204200D01*
X173394203Y-116143000D01*
X173400578Y-116207730D01*
X173419460Y-116269973D01*
X173450121Y-116327337D01*
X173491384Y-116377616D01*
X173541663Y-116418879D01*
X173599027Y-116449540D01*
X173661270Y-116468422D01*
X173726000Y-116474797D01*
X174376000Y-116474797D01*
X174440730Y-116468422D01*
X174502973Y-116449540D01*
X174560337Y-116418879D01*
X174610616Y-116377616D01*
X174651879Y-116327337D01*
X174675801Y-116282582D01*
X174675801Y-117097148D01*
X174672975Y-117125842D01*
X174674459Y-117140908D01*
X174651879Y-117098663D01*
X174610616Y-117048384D01*
X174560337Y-117007121D01*
X174502973Y-116976460D01*
X174440730Y-116957578D01*
X174376000Y-116951203D01*
X173726000Y-116951203D01*
X173661270Y-116957578D01*
X173599027Y-116976460D01*
X173541663Y-117007121D01*
X173491384Y-117048384D01*
X173450121Y-117098663D01*
X173419460Y-117156027D01*
X173400578Y-117218270D01*
X173394203Y-117283000D01*
X173394203Y-118343000D01*
X173398812Y-118389800D01*
X172803188Y-118389800D01*
X172807797Y-118343000D01*
X172807797Y-117283000D01*
X172801422Y-117218270D01*
X172782540Y-117156027D01*
X172751879Y-117098663D01*
X172710616Y-117048384D01*
X172660337Y-117007121D01*
X172602973Y-116976460D01*
X172540730Y-116957578D01*
X172476000Y-116951203D01*
X171826000Y-116951203D01*
X171761270Y-116957578D01*
X171699027Y-116976460D01*
X171641663Y-117007121D01*
X171591384Y-117048384D01*
X171550121Y-117098663D01*
X171519460Y-117156027D01*
X171500578Y-117218270D01*
X171494203Y-117283000D01*
X171494203Y-118343000D01*
X171498812Y-118389800D01*
X171184843Y-118389800D01*
X171203587Y-118328006D01*
X171212797Y-118234500D01*
X171212797Y-117939500D01*
X171203587Y-117845994D01*
X171176313Y-117756081D01*
X171132021Y-117673217D01*
X171073574Y-117602000D01*
X171132021Y-117530783D01*
X171176313Y-117447919D01*
X171203587Y-117358006D01*
X171212797Y-117264500D01*
X171212797Y-116969500D01*
X171203587Y-116875994D01*
X171176313Y-116786081D01*
X171132021Y-116703217D01*
X171072414Y-116630586D01*
X170999783Y-116570979D01*
X170916919Y-116526687D01*
X170827006Y-116499413D01*
X170733500Y-116490203D01*
X170388500Y-116490203D01*
X170294994Y-116499413D01*
X170205081Y-116526687D01*
X170122217Y-116570979D01*
X170049586Y-116630586D01*
X169989979Y-116703217D01*
X169945687Y-116786081D01*
X169918413Y-116875994D01*
X169909203Y-116969500D01*
X169909203Y-117264500D01*
X169918413Y-117358006D01*
X169945687Y-117447919D01*
X169989979Y-117530783D01*
X170048426Y-117602000D01*
X169989979Y-117673217D01*
X169945687Y-117756081D01*
X169918413Y-117845994D01*
X169909203Y-117939500D01*
X169909203Y-118234500D01*
X169918413Y-118328006D01*
X169936967Y-118389172D01*
X169797978Y-118375543D01*
X169674840Y-118338366D01*
X169561260Y-118277975D01*
X169461578Y-118196676D01*
X169379585Y-118097563D01*
X169318403Y-117984409D01*
X169280366Y-117861530D01*
X169265200Y-117717241D01*
X169265200Y-114320391D01*
X169301027Y-114339540D01*
X169363270Y-114358422D01*
X169428000Y-114364797D01*
X170678000Y-114364797D01*
X170742730Y-114358422D01*
X170804973Y-114339540D01*
X170862337Y-114308879D01*
X170912616Y-114267616D01*
X170953879Y-114217337D01*
X170984540Y-114159973D01*
X171003422Y-114097730D01*
X171009797Y-114033000D01*
X171009797Y-113733000D01*
X171003422Y-113668270D01*
X170992723Y-113633000D01*
X171003422Y-113597730D01*
X171009797Y-113533000D01*
X171009797Y-113430935D01*
X171018936Y-113433708D01*
G37*
%TD.AperFunction*%
D15*
X190755022Y-105144457D02*
X190878160Y-105181634D01*
X190991740Y-105242025D01*
X191091422Y-105323324D01*
X191173415Y-105422437D01*
X191234597Y-105535589D01*
X191248255Y-105579713D01*
X191172000Y-105572203D01*
X188972000Y-105572203D01*
X188858497Y-105583382D01*
X188749356Y-105616490D01*
X188648771Y-105670253D01*
X188560607Y-105742607D01*
X188488253Y-105830771D01*
X188434490Y-105931356D01*
X188401382Y-106040497D01*
X188390203Y-106154000D01*
X188390203Y-106654000D01*
X188401382Y-106767503D01*
X188434490Y-106876644D01*
X188488253Y-106977229D01*
X188560607Y-107065393D01*
X188648771Y-107137747D01*
X188749356Y-107191510D01*
X188858497Y-107224618D01*
X188972000Y-107235797D01*
X191172000Y-107235797D01*
X191285503Y-107224618D01*
X191287801Y-107223921D01*
X191287800Y-115534079D01*
X191285503Y-115533382D01*
X191172000Y-115522203D01*
X188972000Y-115522203D01*
X188858497Y-115533382D01*
X188749356Y-115566490D01*
X188648771Y-115620253D01*
X188560607Y-115692607D01*
X188488253Y-115780771D01*
X188434490Y-115881356D01*
X188401382Y-115990497D01*
X188390203Y-116104000D01*
X188390203Y-116604000D01*
X188401382Y-116717503D01*
X188434490Y-116826644D01*
X188488253Y-116927229D01*
X188560607Y-117015393D01*
X188648771Y-117087747D01*
X188749356Y-117141510D01*
X188858497Y-117174618D01*
X188972000Y-117185797D01*
X191172000Y-117185797D01*
X191285503Y-117174618D01*
X191287800Y-117173921D01*
X191287800Y-117711625D01*
X191273543Y-117857022D01*
X191236366Y-117980160D01*
X191175975Y-118093740D01*
X191094676Y-118193422D01*
X190995563Y-118275415D01*
X190882409Y-118336597D01*
X190759530Y-118374634D01*
X190615241Y-118389800D01*
X174703188Y-118389800D01*
X174707797Y-118343000D01*
X174707797Y-117317975D01*
X174717659Y-117350486D01*
X174734724Y-117382412D01*
X174771907Y-117451976D01*
X174797855Y-117483594D01*
X174826620Y-117518645D01*
X174826623Y-117518648D01*
X174844911Y-117540932D01*
X174867195Y-117559220D01*
X175429776Y-118121801D01*
X175448068Y-118144090D01*
X175537024Y-118217094D01*
X175638513Y-118271341D01*
X175748635Y-118304746D01*
X175834466Y-118313200D01*
X175834475Y-118313200D01*
X175863157Y-118316025D01*
X175891839Y-118313200D01*
X182851316Y-118313200D01*
X182880000Y-118316025D01*
X182908684Y-118313200D01*
X182908692Y-118313200D01*
X182994523Y-118304746D01*
X183104645Y-118271341D01*
X183206134Y-118217094D01*
X183295090Y-118144090D01*
X183313382Y-118121801D01*
X183436990Y-117998193D01*
X183500150Y-117979034D01*
X183583014Y-117934742D01*
X183655645Y-117875135D01*
X183864241Y-117666539D01*
X183923848Y-117593908D01*
X183968140Y-117511044D01*
X183995414Y-117421131D01*
X184004445Y-117329445D01*
X184096131Y-117320414D01*
X184186044Y-117293140D01*
X184268908Y-117248848D01*
X184341539Y-117189241D01*
X184550135Y-116980645D01*
X184609742Y-116908014D01*
X184654034Y-116825150D01*
X184673193Y-116761991D01*
X185026984Y-116408200D01*
X187423316Y-116408200D01*
X187452000Y-116411025D01*
X187480684Y-116408200D01*
X187480692Y-116408200D01*
X187566523Y-116399746D01*
X187676645Y-116366341D01*
X187778134Y-116312094D01*
X187867090Y-116239090D01*
X187885382Y-116216801D01*
X188352802Y-115749381D01*
X188375090Y-115731090D01*
X188448094Y-115642134D01*
X188502341Y-115540645D01*
X188535746Y-115430523D01*
X188544200Y-115344692D01*
X188544200Y-115344683D01*
X188547025Y-115316001D01*
X188544200Y-115287319D01*
X188544200Y-114836684D01*
X188547025Y-114808000D01*
X188544200Y-114779316D01*
X188544200Y-114779308D01*
X188535746Y-114693477D01*
X188502341Y-114583355D01*
X188448094Y-114481866D01*
X188375090Y-114392910D01*
X188352801Y-114374618D01*
X188089382Y-114111199D01*
X188071090Y-114088910D01*
X187982134Y-114015906D01*
X187880645Y-113961659D01*
X187821633Y-113943758D01*
X187756376Y-113908878D01*
X187665994Y-113881461D01*
X187641008Y-113879000D01*
X187665994Y-113876539D01*
X187756376Y-113849122D01*
X187839672Y-113804600D01*
X187912682Y-113744682D01*
X187972600Y-113671672D01*
X188017122Y-113588376D01*
X188044539Y-113497994D01*
X188053797Y-113404000D01*
X188053797Y-113104000D01*
X188044539Y-113010006D01*
X188017122Y-112919624D01*
X187972600Y-112836328D01*
X187912682Y-112763318D01*
X187839672Y-112703400D01*
X187756376Y-112658878D01*
X187665994Y-112631461D01*
X187641008Y-112629000D01*
X187665994Y-112626539D01*
X187756376Y-112599122D01*
X187839672Y-112554600D01*
X187912682Y-112494682D01*
X187972600Y-112421672D01*
X188017122Y-112338376D01*
X188044539Y-112247994D01*
X188053797Y-112154000D01*
X188053797Y-111854000D01*
X188044539Y-111760006D01*
X188017122Y-111669624D01*
X187972600Y-111586328D01*
X187912682Y-111513318D01*
X187839672Y-111453400D01*
X187756376Y-111408878D01*
X187665994Y-111381461D01*
X187641008Y-111379000D01*
X187665994Y-111376539D01*
X187756376Y-111349122D01*
X187839672Y-111304600D01*
X187912682Y-111244682D01*
X187972600Y-111171672D01*
X188017122Y-111088376D01*
X188044539Y-110997994D01*
X188053797Y-110904000D01*
X188053797Y-110604000D01*
X188044539Y-110510006D01*
X188017122Y-110419624D01*
X187972600Y-110336328D01*
X187912682Y-110263318D01*
X187839672Y-110203400D01*
X187756376Y-110158878D01*
X187665994Y-110131461D01*
X187641008Y-110129000D01*
X187665994Y-110126539D01*
X187756376Y-110099122D01*
X187839672Y-110054600D01*
X187912682Y-109994682D01*
X187972600Y-109921672D01*
X188017122Y-109838376D01*
X188044539Y-109747994D01*
X188053797Y-109654000D01*
X188053797Y-109354000D01*
X188044539Y-109260006D01*
X188017122Y-109169624D01*
X187972600Y-109086328D01*
X187912682Y-109013318D01*
X187839672Y-108953400D01*
X187756376Y-108908878D01*
X187665994Y-108881461D01*
X187572000Y-108872203D01*
X186172000Y-108872203D01*
X186078006Y-108881461D01*
X185987624Y-108908878D01*
X185904328Y-108953400D01*
X185831318Y-109013318D01*
X185771400Y-109086328D01*
X185726878Y-109169624D01*
X185699461Y-109260006D01*
X185690203Y-109354000D01*
X185690203Y-109654000D01*
X185699461Y-109747994D01*
X185726878Y-109838376D01*
X185771400Y-109921672D01*
X185831318Y-109994682D01*
X185904328Y-110054600D01*
X185987624Y-110099122D01*
X186078006Y-110126539D01*
X186102992Y-110129000D01*
X186078006Y-110131461D01*
X185987624Y-110158878D01*
X185904328Y-110203400D01*
X185831318Y-110263318D01*
X185771400Y-110336328D01*
X185726878Y-110419624D01*
X185699461Y-110510006D01*
X185690203Y-110604000D01*
X185690203Y-110904000D01*
X185699461Y-110997994D01*
X185726878Y-111088376D01*
X185771400Y-111171672D01*
X185831318Y-111244682D01*
X185904328Y-111304600D01*
X185987624Y-111349122D01*
X186078006Y-111376539D01*
X186102992Y-111379000D01*
X186078006Y-111381461D01*
X185987624Y-111408878D01*
X185904328Y-111453400D01*
X185831318Y-111513318D01*
X185771400Y-111586328D01*
X185726878Y-111669624D01*
X185699461Y-111760006D01*
X185690203Y-111854000D01*
X185690203Y-112154000D01*
X185699461Y-112247994D01*
X185726878Y-112338376D01*
X185771400Y-112421672D01*
X185831318Y-112494682D01*
X185904328Y-112554600D01*
X185987624Y-112599122D01*
X186078006Y-112626539D01*
X186102992Y-112629000D01*
X186078006Y-112631461D01*
X185987624Y-112658878D01*
X185904328Y-112703400D01*
X185831318Y-112763318D01*
X185771400Y-112836328D01*
X185726878Y-112919624D01*
X185699461Y-113010006D01*
X185690203Y-113104000D01*
X185690203Y-113404000D01*
X185699461Y-113497994D01*
X185726878Y-113588376D01*
X185771400Y-113671672D01*
X185831318Y-113744682D01*
X185904328Y-113804600D01*
X185987624Y-113849122D01*
X186078006Y-113876539D01*
X186102992Y-113879000D01*
X186078006Y-113881461D01*
X185987624Y-113908878D01*
X185904328Y-113953400D01*
X185831318Y-114013318D01*
X185771400Y-114086328D01*
X185726878Y-114169624D01*
X185699461Y-114260006D01*
X185690203Y-114354000D01*
X185690203Y-114654000D01*
X185699461Y-114747994D01*
X185726878Y-114838376D01*
X185771400Y-114921672D01*
X185831318Y-114994682D01*
X185904328Y-115054600D01*
X185987624Y-115099122D01*
X186078006Y-115126539D01*
X186172000Y-115135797D01*
X187314020Y-115135797D01*
X187210017Y-115239800D01*
X184813692Y-115239800D01*
X184785000Y-115236974D01*
X184722190Y-115243161D01*
X184722190Y-114391323D01*
X184727000Y-114391797D01*
X185097000Y-114391797D01*
X185188068Y-114382828D01*
X185275635Y-114356264D01*
X185356339Y-114313128D01*
X185427075Y-114255075D01*
X185485128Y-114184339D01*
X185528264Y-114103635D01*
X185554828Y-114016068D01*
X185563797Y-113925000D01*
X185563797Y-113655000D01*
X185554828Y-113563932D01*
X185528264Y-113476365D01*
X185485128Y-113395661D01*
X185427075Y-113324925D01*
X185356339Y-113266872D01*
X185275635Y-113223736D01*
X185188068Y-113197172D01*
X185097000Y-113188203D01*
X185019374Y-113188203D01*
X185092404Y-113115173D01*
X185109853Y-113100853D01*
X185166987Y-113031236D01*
X185209441Y-112951809D01*
X185235585Y-112865627D01*
X185237333Y-112847883D01*
X185275635Y-112836264D01*
X185356339Y-112793128D01*
X185427075Y-112735075D01*
X185485128Y-112664339D01*
X185528264Y-112583635D01*
X185554828Y-112496068D01*
X185563797Y-112405000D01*
X185563797Y-112135000D01*
X185554828Y-112043932D01*
X185528264Y-111956365D01*
X185485128Y-111875661D01*
X185427075Y-111804925D01*
X185356339Y-111746872D01*
X185275635Y-111703736D01*
X185188068Y-111677172D01*
X185097000Y-111668203D01*
X184727000Y-111668203D01*
X184635932Y-111677172D01*
X184548365Y-111703736D01*
X184467661Y-111746872D01*
X184396925Y-111804925D01*
X184338872Y-111875661D01*
X184301797Y-111945025D01*
X184301797Y-111927000D01*
X184293981Y-111847638D01*
X184270831Y-111771326D01*
X184260501Y-111752000D01*
X184270831Y-111732674D01*
X184293981Y-111656362D01*
X184301797Y-111577000D01*
X184301797Y-111427000D01*
X184293981Y-111347638D01*
X184270831Y-111271326D01*
X184260501Y-111252000D01*
X184270831Y-111232674D01*
X184293981Y-111156362D01*
X184301797Y-111077000D01*
X184301797Y-110927000D01*
X184293981Y-110847638D01*
X184270831Y-110771326D01*
X184233239Y-110700996D01*
X184182649Y-110639351D01*
X184121004Y-110588761D01*
X184050674Y-110551169D01*
X183974362Y-110528019D01*
X183895000Y-110520203D01*
X182591253Y-110520203D01*
X182553191Y-110482142D01*
X182570000Y-110483797D01*
X183895000Y-110483797D01*
X183974362Y-110475981D01*
X184029679Y-110459200D01*
X184401643Y-110459200D01*
X184409396Y-110459310D01*
X184467661Y-110507128D01*
X184548365Y-110550264D01*
X184635932Y-110576828D01*
X184727000Y-110585797D01*
X185097000Y-110585797D01*
X185188068Y-110576828D01*
X185275635Y-110550264D01*
X185356339Y-110507128D01*
X185427075Y-110449075D01*
X185485128Y-110378339D01*
X185528264Y-110297635D01*
X185554828Y-110210068D01*
X185563797Y-110119000D01*
X185563797Y-109849000D01*
X185554828Y-109757932D01*
X185528264Y-109670365D01*
X185485128Y-109589661D01*
X185427075Y-109518925D01*
X185372335Y-109474000D01*
X185427075Y-109429075D01*
X185485128Y-109358339D01*
X185528264Y-109277635D01*
X185554828Y-109190068D01*
X185563797Y-109099000D01*
X185563797Y-108829000D01*
X185554828Y-108737932D01*
X185528264Y-108650365D01*
X185485128Y-108569661D01*
X185427075Y-108498925D01*
X185356339Y-108440872D01*
X185275635Y-108397736D01*
X185188068Y-108371172D01*
X185141948Y-108366630D01*
X185287664Y-108220914D01*
X185376595Y-108257750D01*
X185489461Y-108280200D01*
X185604539Y-108280200D01*
X185717405Y-108257750D01*
X185823723Y-108213712D01*
X185919406Y-108149778D01*
X186000778Y-108068406D01*
X186064712Y-107972723D01*
X186108750Y-107866405D01*
X186131200Y-107753539D01*
X186131200Y-107638461D01*
X186108750Y-107525595D01*
X186064712Y-107419277D01*
X186000778Y-107323594D01*
X185919406Y-107242222D01*
X185823723Y-107178288D01*
X185717405Y-107134250D01*
X185604539Y-107111800D01*
X185489461Y-107111800D01*
X185376595Y-107134250D01*
X185270277Y-107178288D01*
X185180837Y-107238050D01*
X185165999Y-107236589D01*
X185143549Y-107238800D01*
X185143540Y-107238800D01*
X185076373Y-107245415D01*
X184990191Y-107271559D01*
X184947037Y-107294625D01*
X184910764Y-107314013D01*
X184859203Y-107356329D01*
X184841147Y-107371147D01*
X184826830Y-107388592D01*
X184170623Y-108044800D01*
X184029679Y-108044800D01*
X183974362Y-108028019D01*
X183895000Y-108020203D01*
X182570000Y-108020203D01*
X182490638Y-108028019D01*
X182414326Y-108051169D01*
X182343996Y-108088761D01*
X182282351Y-108139351D01*
X182231761Y-108200996D01*
X182194169Y-108271326D01*
X182171019Y-108347638D01*
X182163203Y-108427000D01*
X182163203Y-108577000D01*
X182171019Y-108656362D01*
X182194169Y-108732674D01*
X182204499Y-108752000D01*
X182194169Y-108771326D01*
X182171019Y-108847638D01*
X182163203Y-108927000D01*
X182163203Y-109077000D01*
X182171019Y-109156362D01*
X182194169Y-109232674D01*
X182204499Y-109252000D01*
X182194169Y-109271326D01*
X182171019Y-109347638D01*
X182163203Y-109427000D01*
X182163203Y-109577000D01*
X182171019Y-109656362D01*
X182194169Y-109732674D01*
X182204499Y-109752000D01*
X182194169Y-109771326D01*
X182171019Y-109847638D01*
X182163203Y-109927000D01*
X182163203Y-110077000D01*
X182164858Y-110093809D01*
X181940200Y-109869151D01*
X181940200Y-108964732D01*
X181940973Y-108917965D01*
X181942872Y-108885518D01*
X181945370Y-108863609D01*
X181947940Y-108849571D01*
X181950618Y-108839340D01*
X181954465Y-108828079D01*
X181961232Y-108811616D01*
X181972383Y-108787387D01*
X181988366Y-108754448D01*
X181990632Y-108749809D01*
X182000712Y-108734723D01*
X182044750Y-108628405D01*
X182067200Y-108515539D01*
X182067200Y-108400461D01*
X182044750Y-108287595D01*
X182000712Y-108181277D01*
X181979439Y-108149441D01*
X182050674Y-108127831D01*
X182121004Y-108090239D01*
X182182649Y-108039649D01*
X182233239Y-107978004D01*
X182270831Y-107907674D01*
X182293981Y-107831362D01*
X182301797Y-107752000D01*
X182301797Y-106427000D01*
X182296695Y-106375200D01*
X182302539Y-106375200D01*
X182415405Y-106352750D01*
X182521723Y-106308712D01*
X182617406Y-106244778D01*
X182698778Y-106163406D01*
X182762712Y-106067723D01*
X182788368Y-106005784D01*
X182793413Y-106057006D01*
X182820687Y-106146919D01*
X182864979Y-106229783D01*
X182921784Y-106299000D01*
X182864979Y-106368217D01*
X182820687Y-106451081D01*
X182793413Y-106540994D01*
X182784203Y-106634500D01*
X182784203Y-106979500D01*
X182793413Y-107073006D01*
X182820687Y-107162919D01*
X182864979Y-107245783D01*
X182924586Y-107318414D01*
X182997217Y-107378021D01*
X183080081Y-107422313D01*
X183169994Y-107449587D01*
X183263500Y-107458797D01*
X183558500Y-107458797D01*
X183652006Y-107449587D01*
X183741919Y-107422313D01*
X183824783Y-107378021D01*
X183896000Y-107319574D01*
X183967217Y-107378021D01*
X184050081Y-107422313D01*
X184139994Y-107449587D01*
X184233500Y-107458797D01*
X184528500Y-107458797D01*
X184622006Y-107449587D01*
X184711919Y-107422313D01*
X184794783Y-107378021D01*
X184867414Y-107318414D01*
X184927021Y-107245783D01*
X184971313Y-107162919D01*
X184998587Y-107073006D01*
X185007797Y-106979500D01*
X185007797Y-106634500D01*
X184998587Y-106540994D01*
X184971313Y-106451081D01*
X184927021Y-106368217D01*
X184870216Y-106299000D01*
X184927021Y-106229783D01*
X184971313Y-106146919D01*
X184998587Y-106057006D01*
X185007797Y-105963500D01*
X185007797Y-105618500D01*
X184998587Y-105524994D01*
X184971313Y-105435081D01*
X184927021Y-105352217D01*
X184867414Y-105279586D01*
X184794783Y-105219979D01*
X184711919Y-105175687D01*
X184622006Y-105148413D01*
X184528500Y-105139203D01*
X184233500Y-105139203D01*
X184139994Y-105148413D01*
X184050081Y-105175687D01*
X183967217Y-105219979D01*
X183896000Y-105278426D01*
X183824783Y-105219979D01*
X183811859Y-105213071D01*
X183792987Y-105177764D01*
X183753952Y-105130200D01*
X190609624Y-105130200D01*
X190755022Y-105144457D01*
%TA.AperFunction,Conductor*%
D17*
G36*
X190755022Y-105144457D02*
G01*
X190878160Y-105181634D01*
X190991740Y-105242025D01*
X191091422Y-105323324D01*
X191173415Y-105422437D01*
X191234597Y-105535589D01*
X191248255Y-105579713D01*
X191172000Y-105572203D01*
X188972000Y-105572203D01*
X188858497Y-105583382D01*
X188749356Y-105616490D01*
X188648771Y-105670253D01*
X188560607Y-105742607D01*
X188488253Y-105830771D01*
X188434490Y-105931356D01*
X188401382Y-106040497D01*
X188390203Y-106154000D01*
X188390203Y-106654000D01*
X188401382Y-106767503D01*
X188434490Y-106876644D01*
X188488253Y-106977229D01*
X188560607Y-107065393D01*
X188648771Y-107137747D01*
X188749356Y-107191510D01*
X188858497Y-107224618D01*
X188972000Y-107235797D01*
X191172000Y-107235797D01*
X191285503Y-107224618D01*
X191287801Y-107223921D01*
X191287800Y-115534079D01*
X191285503Y-115533382D01*
X191172000Y-115522203D01*
X188972000Y-115522203D01*
X188858497Y-115533382D01*
X188749356Y-115566490D01*
X188648771Y-115620253D01*
X188560607Y-115692607D01*
X188488253Y-115780771D01*
X188434490Y-115881356D01*
X188401382Y-115990497D01*
X188390203Y-116104000D01*
X188390203Y-116604000D01*
X188401382Y-116717503D01*
X188434490Y-116826644D01*
X188488253Y-116927229D01*
X188560607Y-117015393D01*
X188648771Y-117087747D01*
X188749356Y-117141510D01*
X188858497Y-117174618D01*
X188972000Y-117185797D01*
X191172000Y-117185797D01*
X191285503Y-117174618D01*
X191287800Y-117173921D01*
X191287800Y-117711625D01*
X191273543Y-117857022D01*
X191236366Y-117980160D01*
X191175975Y-118093740D01*
X191094676Y-118193422D01*
X190995563Y-118275415D01*
X190882409Y-118336597D01*
X190759530Y-118374634D01*
X190615241Y-118389800D01*
X174703188Y-118389800D01*
X174707797Y-118343000D01*
X174707797Y-117317975D01*
X174717659Y-117350486D01*
X174734724Y-117382412D01*
X174771907Y-117451976D01*
X174797855Y-117483594D01*
X174826620Y-117518645D01*
X174826623Y-117518648D01*
X174844911Y-117540932D01*
X174867195Y-117559220D01*
X175429776Y-118121801D01*
X175448068Y-118144090D01*
X175537024Y-118217094D01*
X175638513Y-118271341D01*
X175748635Y-118304746D01*
X175834466Y-118313200D01*
X175834475Y-118313200D01*
X175863157Y-118316025D01*
X175891839Y-118313200D01*
X182851316Y-118313200D01*
X182880000Y-118316025D01*
X182908684Y-118313200D01*
X182908692Y-118313200D01*
X182994523Y-118304746D01*
X183104645Y-118271341D01*
X183206134Y-118217094D01*
X183295090Y-118144090D01*
X183313382Y-118121801D01*
X183436990Y-117998193D01*
X183500150Y-117979034D01*
X183583014Y-117934742D01*
X183655645Y-117875135D01*
X183864241Y-117666539D01*
X183923848Y-117593908D01*
X183968140Y-117511044D01*
X183995414Y-117421131D01*
X184004445Y-117329445D01*
X184096131Y-117320414D01*
X184186044Y-117293140D01*
X184268908Y-117248848D01*
X184341539Y-117189241D01*
X184550135Y-116980645D01*
X184609742Y-116908014D01*
X184654034Y-116825150D01*
X184673193Y-116761991D01*
X185026984Y-116408200D01*
X187423316Y-116408200D01*
X187452000Y-116411025D01*
X187480684Y-116408200D01*
X187480692Y-116408200D01*
X187566523Y-116399746D01*
X187676645Y-116366341D01*
X187778134Y-116312094D01*
X187867090Y-116239090D01*
X187885382Y-116216801D01*
X188352802Y-115749381D01*
X188375090Y-115731090D01*
X188448094Y-115642134D01*
X188502341Y-115540645D01*
X188535746Y-115430523D01*
X188544200Y-115344692D01*
X188544200Y-115344683D01*
X188547025Y-115316001D01*
X188544200Y-115287319D01*
X188544200Y-114836684D01*
X188547025Y-114808000D01*
X188544200Y-114779316D01*
X188544200Y-114779308D01*
X188535746Y-114693477D01*
X188502341Y-114583355D01*
X188448094Y-114481866D01*
X188375090Y-114392910D01*
X188352801Y-114374618D01*
X188089382Y-114111199D01*
X188071090Y-114088910D01*
X187982134Y-114015906D01*
X187880645Y-113961659D01*
X187821633Y-113943758D01*
X187756376Y-113908878D01*
X187665994Y-113881461D01*
X187641008Y-113879000D01*
X187665994Y-113876539D01*
X187756376Y-113849122D01*
X187839672Y-113804600D01*
X187912682Y-113744682D01*
X187972600Y-113671672D01*
X188017122Y-113588376D01*
X188044539Y-113497994D01*
X188053797Y-113404000D01*
X188053797Y-113104000D01*
X188044539Y-113010006D01*
X188017122Y-112919624D01*
X187972600Y-112836328D01*
X187912682Y-112763318D01*
X187839672Y-112703400D01*
X187756376Y-112658878D01*
X187665994Y-112631461D01*
X187641008Y-112629000D01*
X187665994Y-112626539D01*
X187756376Y-112599122D01*
X187839672Y-112554600D01*
X187912682Y-112494682D01*
X187972600Y-112421672D01*
X188017122Y-112338376D01*
X188044539Y-112247994D01*
X188053797Y-112154000D01*
X188053797Y-111854000D01*
X188044539Y-111760006D01*
X188017122Y-111669624D01*
X187972600Y-111586328D01*
X187912682Y-111513318D01*
X187839672Y-111453400D01*
X187756376Y-111408878D01*
X187665994Y-111381461D01*
X187641008Y-111379000D01*
X187665994Y-111376539D01*
X187756376Y-111349122D01*
X187839672Y-111304600D01*
X187912682Y-111244682D01*
X187972600Y-111171672D01*
X188017122Y-111088376D01*
X188044539Y-110997994D01*
X188053797Y-110904000D01*
X188053797Y-110604000D01*
X188044539Y-110510006D01*
X188017122Y-110419624D01*
X187972600Y-110336328D01*
X187912682Y-110263318D01*
X187839672Y-110203400D01*
X187756376Y-110158878D01*
X187665994Y-110131461D01*
X187641008Y-110129000D01*
X187665994Y-110126539D01*
X187756376Y-110099122D01*
X187839672Y-110054600D01*
X187912682Y-109994682D01*
X187972600Y-109921672D01*
X188017122Y-109838376D01*
X188044539Y-109747994D01*
X188053797Y-109654000D01*
X188053797Y-109354000D01*
X188044539Y-109260006D01*
X188017122Y-109169624D01*
X187972600Y-109086328D01*
X187912682Y-109013318D01*
X187839672Y-108953400D01*
X187756376Y-108908878D01*
X187665994Y-108881461D01*
X187572000Y-108872203D01*
X186172000Y-108872203D01*
X186078006Y-108881461D01*
X185987624Y-108908878D01*
X185904328Y-108953400D01*
X185831318Y-109013318D01*
X185771400Y-109086328D01*
X185726878Y-109169624D01*
X185699461Y-109260006D01*
X185690203Y-109354000D01*
X185690203Y-109654000D01*
X185699461Y-109747994D01*
X185726878Y-109838376D01*
X185771400Y-109921672D01*
X185831318Y-109994682D01*
X185904328Y-110054600D01*
X185987624Y-110099122D01*
X186078006Y-110126539D01*
X186102992Y-110129000D01*
X186078006Y-110131461D01*
X185987624Y-110158878D01*
X185904328Y-110203400D01*
X185831318Y-110263318D01*
X185771400Y-110336328D01*
X185726878Y-110419624D01*
X185699461Y-110510006D01*
X185690203Y-110604000D01*
X185690203Y-110904000D01*
X185699461Y-110997994D01*
X185726878Y-111088376D01*
X185771400Y-111171672D01*
X185831318Y-111244682D01*
X185904328Y-111304600D01*
X185987624Y-111349122D01*
X186078006Y-111376539D01*
X186102992Y-111379000D01*
X186078006Y-111381461D01*
X185987624Y-111408878D01*
X185904328Y-111453400D01*
X185831318Y-111513318D01*
X185771400Y-111586328D01*
X185726878Y-111669624D01*
X185699461Y-111760006D01*
X185690203Y-111854000D01*
X185690203Y-112154000D01*
X185699461Y-112247994D01*
X185726878Y-112338376D01*
X185771400Y-112421672D01*
X185831318Y-112494682D01*
X185904328Y-112554600D01*
X185987624Y-112599122D01*
X186078006Y-112626539D01*
X186102992Y-112629000D01*
X186078006Y-112631461D01*
X185987624Y-112658878D01*
X185904328Y-112703400D01*
X185831318Y-112763318D01*
X185771400Y-112836328D01*
X185726878Y-112919624D01*
X185699461Y-113010006D01*
X185690203Y-113104000D01*
X185690203Y-113404000D01*
X185699461Y-113497994D01*
X185726878Y-113588376D01*
X185771400Y-113671672D01*
X185831318Y-113744682D01*
X185904328Y-113804600D01*
X185987624Y-113849122D01*
X186078006Y-113876539D01*
X186102992Y-113879000D01*
X186078006Y-113881461D01*
X185987624Y-113908878D01*
X185904328Y-113953400D01*
X185831318Y-114013318D01*
X185771400Y-114086328D01*
X185726878Y-114169624D01*
X185699461Y-114260006D01*
X185690203Y-114354000D01*
X185690203Y-114654000D01*
X185699461Y-114747994D01*
X185726878Y-114838376D01*
X185771400Y-114921672D01*
X185831318Y-114994682D01*
X185904328Y-115054600D01*
X185987624Y-115099122D01*
X186078006Y-115126539D01*
X186172000Y-115135797D01*
X187314020Y-115135797D01*
X187210017Y-115239800D01*
X184813692Y-115239800D01*
X184785000Y-115236974D01*
X184722190Y-115243161D01*
X184722190Y-114391323D01*
X184727000Y-114391797D01*
X185097000Y-114391797D01*
X185188068Y-114382828D01*
X185275635Y-114356264D01*
X185356339Y-114313128D01*
X185427075Y-114255075D01*
X185485128Y-114184339D01*
X185528264Y-114103635D01*
X185554828Y-114016068D01*
X185563797Y-113925000D01*
X185563797Y-113655000D01*
X185554828Y-113563932D01*
X185528264Y-113476365D01*
X185485128Y-113395661D01*
X185427075Y-113324925D01*
X185356339Y-113266872D01*
X185275635Y-113223736D01*
X185188068Y-113197172D01*
X185097000Y-113188203D01*
X185019374Y-113188203D01*
X185092404Y-113115173D01*
X185109853Y-113100853D01*
X185166987Y-113031236D01*
X185209441Y-112951809D01*
X185235585Y-112865627D01*
X185237333Y-112847883D01*
X185275635Y-112836264D01*
X185356339Y-112793128D01*
X185427075Y-112735075D01*
X185485128Y-112664339D01*
X185528264Y-112583635D01*
X185554828Y-112496068D01*
X185563797Y-112405000D01*
X185563797Y-112135000D01*
X185554828Y-112043932D01*
X185528264Y-111956365D01*
X185485128Y-111875661D01*
X185427075Y-111804925D01*
X185356339Y-111746872D01*
X185275635Y-111703736D01*
X185188068Y-111677172D01*
X185097000Y-111668203D01*
X184727000Y-111668203D01*
X184635932Y-111677172D01*
X184548365Y-111703736D01*
X184467661Y-111746872D01*
X184396925Y-111804925D01*
X184338872Y-111875661D01*
X184301797Y-111945025D01*
X184301797Y-111927000D01*
X184293981Y-111847638D01*
X184270831Y-111771326D01*
X184260501Y-111752000D01*
X184270831Y-111732674D01*
X184293981Y-111656362D01*
X184301797Y-111577000D01*
X184301797Y-111427000D01*
X184293981Y-111347638D01*
X184270831Y-111271326D01*
X184260501Y-111252000D01*
X184270831Y-111232674D01*
X184293981Y-111156362D01*
X184301797Y-111077000D01*
X184301797Y-110927000D01*
X184293981Y-110847638D01*
X184270831Y-110771326D01*
X184233239Y-110700996D01*
X184182649Y-110639351D01*
X184121004Y-110588761D01*
X184050674Y-110551169D01*
X183974362Y-110528019D01*
X183895000Y-110520203D01*
X182591253Y-110520203D01*
X182553191Y-110482142D01*
X182570000Y-110483797D01*
X183895000Y-110483797D01*
X183974362Y-110475981D01*
X184029679Y-110459200D01*
X184401643Y-110459200D01*
X184409396Y-110459310D01*
X184467661Y-110507128D01*
X184548365Y-110550264D01*
X184635932Y-110576828D01*
X184727000Y-110585797D01*
X185097000Y-110585797D01*
X185188068Y-110576828D01*
X185275635Y-110550264D01*
X185356339Y-110507128D01*
X185427075Y-110449075D01*
X185485128Y-110378339D01*
X185528264Y-110297635D01*
X185554828Y-110210068D01*
X185563797Y-110119000D01*
X185563797Y-109849000D01*
X185554828Y-109757932D01*
X185528264Y-109670365D01*
X185485128Y-109589661D01*
X185427075Y-109518925D01*
X185372335Y-109474000D01*
X185427075Y-109429075D01*
X185485128Y-109358339D01*
X185528264Y-109277635D01*
X185554828Y-109190068D01*
X185563797Y-109099000D01*
X185563797Y-108829000D01*
X185554828Y-108737932D01*
X185528264Y-108650365D01*
X185485128Y-108569661D01*
X185427075Y-108498925D01*
X185356339Y-108440872D01*
X185275635Y-108397736D01*
X185188068Y-108371172D01*
X185141948Y-108366630D01*
X185287664Y-108220914D01*
X185376595Y-108257750D01*
X185489461Y-108280200D01*
X185604539Y-108280200D01*
X185717405Y-108257750D01*
X185823723Y-108213712D01*
X185919406Y-108149778D01*
X186000778Y-108068406D01*
X186064712Y-107972723D01*
X186108750Y-107866405D01*
X186131200Y-107753539D01*
X186131200Y-107638461D01*
X186108750Y-107525595D01*
X186064712Y-107419277D01*
X186000778Y-107323594D01*
X185919406Y-107242222D01*
X185823723Y-107178288D01*
X185717405Y-107134250D01*
X185604539Y-107111800D01*
X185489461Y-107111800D01*
X185376595Y-107134250D01*
X185270277Y-107178288D01*
X185180837Y-107238050D01*
X185165999Y-107236589D01*
X185143549Y-107238800D01*
X185143540Y-107238800D01*
X185076373Y-107245415D01*
X184990191Y-107271559D01*
X184947037Y-107294625D01*
X184910764Y-107314013D01*
X184859203Y-107356329D01*
X184841147Y-107371147D01*
X184826830Y-107388592D01*
X184170623Y-108044800D01*
X184029679Y-108044800D01*
X183974362Y-108028019D01*
X183895000Y-108020203D01*
X182570000Y-108020203D01*
X182490638Y-108028019D01*
X182414326Y-108051169D01*
X182343996Y-108088761D01*
X182282351Y-108139351D01*
X182231761Y-108200996D01*
X182194169Y-108271326D01*
X182171019Y-108347638D01*
X182163203Y-108427000D01*
X182163203Y-108577000D01*
X182171019Y-108656362D01*
X182194169Y-108732674D01*
X182204499Y-108752000D01*
X182194169Y-108771326D01*
X182171019Y-108847638D01*
X182163203Y-108927000D01*
X182163203Y-109077000D01*
X182171019Y-109156362D01*
X182194169Y-109232674D01*
X182204499Y-109252000D01*
X182194169Y-109271326D01*
X182171019Y-109347638D01*
X182163203Y-109427000D01*
X182163203Y-109577000D01*
X182171019Y-109656362D01*
X182194169Y-109732674D01*
X182204499Y-109752000D01*
X182194169Y-109771326D01*
X182171019Y-109847638D01*
X182163203Y-109927000D01*
X182163203Y-110077000D01*
X182164858Y-110093809D01*
X181940200Y-109869151D01*
X181940200Y-108964732D01*
X181940973Y-108917965D01*
X181942872Y-108885518D01*
X181945370Y-108863609D01*
X181947940Y-108849571D01*
X181950618Y-108839340D01*
X181954465Y-108828079D01*
X181961232Y-108811616D01*
X181972383Y-108787387D01*
X181988366Y-108754448D01*
X181990632Y-108749809D01*
X182000712Y-108734723D01*
X182044750Y-108628405D01*
X182067200Y-108515539D01*
X182067200Y-108400461D01*
X182044750Y-108287595D01*
X182000712Y-108181277D01*
X181979439Y-108149441D01*
X182050674Y-108127831D01*
X182121004Y-108090239D01*
X182182649Y-108039649D01*
X182233239Y-107978004D01*
X182270831Y-107907674D01*
X182293981Y-107831362D01*
X182301797Y-107752000D01*
X182301797Y-106427000D01*
X182296695Y-106375200D01*
X182302539Y-106375200D01*
X182415405Y-106352750D01*
X182521723Y-106308712D01*
X182617406Y-106244778D01*
X182698778Y-106163406D01*
X182762712Y-106067723D01*
X182788368Y-106005784D01*
X182793413Y-106057006D01*
X182820687Y-106146919D01*
X182864979Y-106229783D01*
X182921784Y-106299000D01*
X182864979Y-106368217D01*
X182820687Y-106451081D01*
X182793413Y-106540994D01*
X182784203Y-106634500D01*
X182784203Y-106979500D01*
X182793413Y-107073006D01*
X182820687Y-107162919D01*
X182864979Y-107245783D01*
X182924586Y-107318414D01*
X182997217Y-107378021D01*
X183080081Y-107422313D01*
X183169994Y-107449587D01*
X183263500Y-107458797D01*
X183558500Y-107458797D01*
X183652006Y-107449587D01*
X183741919Y-107422313D01*
X183824783Y-107378021D01*
X183896000Y-107319574D01*
X183967217Y-107378021D01*
X184050081Y-107422313D01*
X184139994Y-107449587D01*
X184233500Y-107458797D01*
X184528500Y-107458797D01*
X184622006Y-107449587D01*
X184711919Y-107422313D01*
X184794783Y-107378021D01*
X184867414Y-107318414D01*
X184927021Y-107245783D01*
X184971313Y-107162919D01*
X184998587Y-107073006D01*
X185007797Y-106979500D01*
X185007797Y-106634500D01*
X184998587Y-106540994D01*
X184971313Y-106451081D01*
X184927021Y-106368217D01*
X184870216Y-106299000D01*
X184927021Y-106229783D01*
X184971313Y-106146919D01*
X184998587Y-106057006D01*
X185007797Y-105963500D01*
X185007797Y-105618500D01*
X184998587Y-105524994D01*
X184971313Y-105435081D01*
X184927021Y-105352217D01*
X184867414Y-105279586D01*
X184794783Y-105219979D01*
X184711919Y-105175687D01*
X184622006Y-105148413D01*
X184528500Y-105139203D01*
X184233500Y-105139203D01*
X184139994Y-105148413D01*
X184050081Y-105175687D01*
X183967217Y-105219979D01*
X183896000Y-105278426D01*
X183824783Y-105219979D01*
X183811859Y-105213071D01*
X183792987Y-105177764D01*
X183753952Y-105130200D01*
X190609624Y-105130200D01*
X190755022Y-105144457D01*
G37*
%TD.AperFunction*%
D15*
X175861977Y-106261079D02*
X175862613Y-106292937D01*
X175846019Y-106347638D01*
X175838203Y-106427000D01*
X175838203Y-107752000D01*
X175846019Y-107831362D01*
X175869169Y-107907674D01*
X175906761Y-107978004D01*
X175957351Y-108039649D01*
X176018996Y-108090239D01*
X176089326Y-108127831D01*
X176165638Y-108150981D01*
X176245000Y-108158797D01*
X176395000Y-108158797D01*
X176474362Y-108150981D01*
X176550674Y-108127831D01*
X176621004Y-108090239D01*
X176682649Y-108039649D01*
X176733239Y-107978004D01*
X176770831Y-107907674D01*
X176793981Y-107831362D01*
X176801797Y-107752000D01*
X176801797Y-106427000D01*
X176793981Y-106347638D01*
X176777298Y-106292643D01*
X176777821Y-106248200D01*
X176881530Y-106248200D01*
X176869169Y-106271326D01*
X176846019Y-106347638D01*
X176838203Y-106427000D01*
X176838203Y-107752000D01*
X176846019Y-107831362D01*
X176869169Y-107907674D01*
X176906761Y-107978004D01*
X176957351Y-108039649D01*
X177018996Y-108090239D01*
X177089326Y-108127831D01*
X177165638Y-108150981D01*
X177245000Y-108158797D01*
X177395000Y-108158797D01*
X177474362Y-108150981D01*
X177550674Y-108127831D01*
X177570000Y-108117501D01*
X177589326Y-108127831D01*
X177665638Y-108150981D01*
X177732333Y-108157550D01*
X177723800Y-108200451D01*
X177723800Y-108315529D01*
X177746250Y-108428395D01*
X177790288Y-108534713D01*
X177854222Y-108630396D01*
X177935594Y-108711768D01*
X178031277Y-108775702D01*
X178137595Y-108819740D01*
X178250461Y-108842190D01*
X178365539Y-108842190D01*
X178478405Y-108819740D01*
X178584723Y-108775702D01*
X178680406Y-108711768D01*
X178761778Y-108630396D01*
X178825712Y-108534713D01*
X178869750Y-108428395D01*
X178892200Y-108315529D01*
X178892200Y-108200451D01*
X178883915Y-108158797D01*
X178895000Y-108158797D01*
X178974362Y-108150981D01*
X179050674Y-108127831D01*
X179070000Y-108117501D01*
X179089326Y-108127831D01*
X179165638Y-108150981D01*
X179245000Y-108158797D01*
X179395000Y-108158797D01*
X179474362Y-108150981D01*
X179550674Y-108127831D01*
X179570000Y-108117501D01*
X179589326Y-108127831D01*
X179665638Y-108150981D01*
X179745000Y-108158797D01*
X179895000Y-108158797D01*
X179974362Y-108150981D01*
X180050674Y-108127831D01*
X180070000Y-108117501D01*
X180089326Y-108127831D01*
X180165638Y-108150981D01*
X180225382Y-108156865D01*
X180204547Y-108261611D01*
X180204547Y-108376689D01*
X180226997Y-108489555D01*
X180271035Y-108595873D01*
X180334969Y-108691556D01*
X180416341Y-108772928D01*
X180512024Y-108836862D01*
X180618342Y-108880900D01*
X180731208Y-108903350D01*
X180846286Y-108903350D01*
X180959152Y-108880900D01*
X181019238Y-108856012D01*
X181020629Y-108863609D01*
X181023127Y-108885518D01*
X181025026Y-108917966D01*
X181025800Y-108964760D01*
X181025801Y-110036068D01*
X181023589Y-110058528D01*
X181025801Y-110080988D01*
X181032416Y-110148155D01*
X181038518Y-110168270D01*
X181058560Y-110234337D01*
X181061445Y-110239735D01*
X180978996Y-110294826D01*
X180897624Y-110376198D01*
X180833690Y-110471881D01*
X180789652Y-110578199D01*
X180767202Y-110691065D01*
X180767202Y-110806143D01*
X180789652Y-110919009D01*
X180833690Y-111025327D01*
X180897624Y-111121010D01*
X180918747Y-111142133D01*
X180926961Y-111169210D01*
X180969415Y-111248637D01*
X181026549Y-111318255D01*
X181043999Y-111332576D01*
X181471422Y-111760000D01*
X181048597Y-112182826D01*
X181031147Y-112197147D01*
X180974013Y-112266765D01*
X180931559Y-112346192D01*
X180905415Y-112432374D01*
X180898800Y-112499541D01*
X180898800Y-112499550D01*
X180896589Y-112522000D01*
X180898050Y-112536837D01*
X180838288Y-112626277D01*
X180794250Y-112732595D01*
X180771800Y-112845461D01*
X180771800Y-112960539D01*
X180794250Y-113073405D01*
X180838288Y-113179723D01*
X180902222Y-113275406D01*
X180983594Y-113356778D01*
X181079277Y-113420712D01*
X181185595Y-113464750D01*
X181298461Y-113487200D01*
X181413539Y-113487200D01*
X181526405Y-113464750D01*
X181632723Y-113420712D01*
X181728406Y-113356778D01*
X181809778Y-113275406D01*
X181873712Y-113179723D01*
X181917750Y-113073405D01*
X181940200Y-112960539D01*
X181940200Y-112845461D01*
X181917750Y-112732595D01*
X181880914Y-112643664D01*
X182065378Y-112459200D01*
X182163203Y-112459200D01*
X182163203Y-112577000D01*
X182171019Y-112656362D01*
X182194169Y-112732674D01*
X182204499Y-112752000D01*
X182194169Y-112771326D01*
X182171019Y-112847638D01*
X182163203Y-112927000D01*
X182163203Y-113077000D01*
X182171019Y-113156362D01*
X182194169Y-113232674D01*
X182204499Y-113252000D01*
X182194169Y-113271326D01*
X182171019Y-113347638D01*
X182163203Y-113427000D01*
X182163203Y-113577000D01*
X182171019Y-113656362D01*
X182194169Y-113732674D01*
X182204499Y-113752000D01*
X182194169Y-113771326D01*
X182171019Y-113847638D01*
X182163203Y-113927000D01*
X182163203Y-114077000D01*
X182171019Y-114156362D01*
X182194169Y-114232674D01*
X182231761Y-114303004D01*
X182282351Y-114364649D01*
X182343996Y-114415239D01*
X182414326Y-114452831D01*
X182490638Y-114475981D01*
X182570000Y-114483797D01*
X183807153Y-114483797D01*
X183807790Y-114484434D01*
X183807791Y-115138631D01*
X182988623Y-115957800D01*
X182301797Y-115957800D01*
X182301797Y-114752000D01*
X182293981Y-114672638D01*
X182270831Y-114596326D01*
X182233239Y-114525996D01*
X182182649Y-114464351D01*
X182121004Y-114413761D01*
X182050674Y-114376169D01*
X181974362Y-114353019D01*
X181895000Y-114345203D01*
X181745000Y-114345203D01*
X181665638Y-114353019D01*
X181589326Y-114376169D01*
X181518996Y-114413761D01*
X181457351Y-114464351D01*
X181406761Y-114525996D01*
X181369169Y-114596326D01*
X181346019Y-114672638D01*
X181338203Y-114752000D01*
X181338203Y-116077000D01*
X181346019Y-116156362D01*
X181362801Y-116211682D01*
X181362801Y-116392530D01*
X181360588Y-116415000D01*
X181362800Y-116437460D01*
X181362800Y-116457050D01*
X181362154Y-116511860D01*
X181360436Y-116553526D01*
X181357890Y-116585618D01*
X181354742Y-116610733D01*
X181350934Y-116632377D01*
X181345932Y-116654649D01*
X181338931Y-116681198D01*
X181329349Y-116714458D01*
X181317240Y-116755286D01*
X181316864Y-116756563D01*
X181312151Y-116772691D01*
X181302250Y-116796595D01*
X181279800Y-116909461D01*
X181279800Y-117024539D01*
X181302250Y-117137405D01*
X181305313Y-117144800D01*
X180390687Y-117144800D01*
X180393750Y-117137405D01*
X180416200Y-117024539D01*
X180416200Y-116909461D01*
X180393750Y-116796595D01*
X180349712Y-116690277D01*
X180332614Y-116664688D01*
X180324152Y-116649104D01*
X180307766Y-116618280D01*
X180296865Y-116596321D01*
X180290619Y-116582003D01*
X180287261Y-116572600D01*
X180284862Y-116563700D01*
X180282376Y-116550343D01*
X180279877Y-116528513D01*
X180277969Y-116495669D01*
X180277776Y-116483797D01*
X180395000Y-116483797D01*
X180474362Y-116475981D01*
X180550674Y-116452831D01*
X180570000Y-116442501D01*
X180589326Y-116452831D01*
X180665638Y-116475981D01*
X180745000Y-116483797D01*
X180895000Y-116483797D01*
X180974362Y-116475981D01*
X181050674Y-116452831D01*
X181121004Y-116415239D01*
X181182649Y-116364649D01*
X181233239Y-116303004D01*
X181270831Y-116232674D01*
X181293981Y-116156362D01*
X181301797Y-116077000D01*
X181301797Y-114752000D01*
X181293981Y-114672638D01*
X181270831Y-114596326D01*
X181233239Y-114525996D01*
X181182649Y-114464351D01*
X181121004Y-114413761D01*
X181050674Y-114376169D01*
X180974362Y-114353019D01*
X180895000Y-114345203D01*
X180745000Y-114345203D01*
X180665638Y-114353019D01*
X180589326Y-114376169D01*
X180570000Y-114386499D01*
X180550674Y-114376169D01*
X180474362Y-114353019D01*
X180395000Y-114345203D01*
X180245000Y-114345203D01*
X180165638Y-114353019D01*
X180089326Y-114376169D01*
X180070000Y-114386499D01*
X180050674Y-114376169D01*
X179974362Y-114353019D01*
X179895000Y-114345203D01*
X179745000Y-114345203D01*
X179665638Y-114353019D01*
X179589326Y-114376169D01*
X179570000Y-114386499D01*
X179550674Y-114376169D01*
X179474362Y-114353019D01*
X179395000Y-114345203D01*
X179245000Y-114345203D01*
X179165638Y-114353019D01*
X179089326Y-114376169D01*
X179070000Y-114386499D01*
X179050674Y-114376169D01*
X178974362Y-114353019D01*
X178895000Y-114345203D01*
X178745000Y-114345203D01*
X178665638Y-114353019D01*
X178589326Y-114376169D01*
X178570000Y-114386499D01*
X178550674Y-114376169D01*
X178474362Y-114353019D01*
X178395000Y-114345203D01*
X178245000Y-114345203D01*
X178165638Y-114353019D01*
X178089326Y-114376169D01*
X178070000Y-114386499D01*
X178050674Y-114376169D01*
X177974362Y-114353019D01*
X177895000Y-114345203D01*
X177818981Y-114345203D01*
X177872778Y-114291406D01*
X177936712Y-114195723D01*
X177980750Y-114089405D01*
X178003200Y-113976539D01*
X178003200Y-113861461D01*
X177980750Y-113748595D01*
X177936712Y-113642277D01*
X177872778Y-113546594D01*
X177791406Y-113465222D01*
X177695723Y-113401288D01*
X177589405Y-113357250D01*
X177476539Y-113334800D01*
X177060449Y-113334800D01*
X177037999Y-113332589D01*
X177015549Y-113334800D01*
X177015540Y-113334800D01*
X176948373Y-113341415D01*
X176862191Y-113367559D01*
X176831456Y-113383987D01*
X176782763Y-113410013D01*
X176743733Y-113442045D01*
X176713147Y-113467147D01*
X176698830Y-113484592D01*
X176540132Y-113643290D01*
X176539712Y-113642277D01*
X176475778Y-113546594D01*
X176394406Y-113465222D01*
X176298723Y-113401288D01*
X176192405Y-113357250D01*
X176079539Y-113334800D01*
X176028698Y-113334800D01*
X176038381Y-113326853D01*
X176052702Y-113309403D01*
X176329409Y-113032697D01*
X176346853Y-113018381D01*
X176377194Y-112981411D01*
X176403987Y-112948765D01*
X176427920Y-112903987D01*
X176446441Y-112869337D01*
X176472585Y-112783155D01*
X176479200Y-112715988D01*
X176479200Y-112715979D01*
X176481411Y-112693529D01*
X176479200Y-112671079D01*
X176479200Y-111860979D01*
X176521406Y-111832778D01*
X176602778Y-111751406D01*
X176666712Y-111655723D01*
X176710750Y-111549405D01*
X176733200Y-111436539D01*
X176733200Y-111321461D01*
X176710750Y-111208595D01*
X176666712Y-111102277D01*
X176602778Y-111006594D01*
X176521406Y-110925222D01*
X176425723Y-110861288D01*
X176319405Y-110817250D01*
X176206539Y-110794800D01*
X176091461Y-110794800D01*
X175978595Y-110817250D01*
X175961865Y-110824180D01*
X175945831Y-110771326D01*
X175935501Y-110752000D01*
X175945831Y-110732674D01*
X175968981Y-110656362D01*
X175976797Y-110577000D01*
X175976797Y-110427000D01*
X175968981Y-110347638D01*
X175945831Y-110271326D01*
X175935501Y-110252000D01*
X175945831Y-110232674D01*
X175968981Y-110156362D01*
X175976797Y-110077000D01*
X175976797Y-109927000D01*
X175968981Y-109847638D01*
X175945831Y-109771326D01*
X175935501Y-109752000D01*
X175945831Y-109732674D01*
X175968981Y-109656362D01*
X175976797Y-109577000D01*
X175976797Y-109527005D01*
X175978595Y-109527750D01*
X176091461Y-109550200D01*
X176206539Y-109550200D01*
X176319405Y-109527750D01*
X176425723Y-109483712D01*
X176521406Y-109419778D01*
X176602778Y-109338406D01*
X176666712Y-109242723D01*
X176710750Y-109136405D01*
X176733200Y-109023539D01*
X176733200Y-108908461D01*
X176710750Y-108795595D01*
X176666712Y-108689277D01*
X176602778Y-108593594D01*
X176521406Y-108512222D01*
X176425723Y-108448288D01*
X176319405Y-108404250D01*
X176206539Y-108381800D01*
X176091461Y-108381800D01*
X175978595Y-108404250D01*
X175974715Y-108405857D01*
X175968981Y-108347638D01*
X175945831Y-108271326D01*
X175908239Y-108200996D01*
X175857649Y-108139351D01*
X175796004Y-108088761D01*
X175725674Y-108051169D01*
X175649362Y-108028019D01*
X175570000Y-108020203D01*
X174245000Y-108020203D01*
X174165638Y-108028019D01*
X174148727Y-108033149D01*
X174133341Y-108023360D01*
X174114559Y-108010375D01*
X174108406Y-108004222D01*
X174012723Y-107940288D01*
X173906405Y-107896250D01*
X173793539Y-107873800D01*
X173678461Y-107873800D01*
X173565595Y-107896250D01*
X173542019Y-107906015D01*
X173550014Y-107901742D01*
X173622645Y-107842135D01*
X173831241Y-107633539D01*
X173890848Y-107560908D01*
X173935140Y-107478044D01*
X173962414Y-107388131D01*
X173971445Y-107296445D01*
X174063131Y-107287414D01*
X174153044Y-107260140D01*
X174235908Y-107215848D01*
X174308539Y-107156241D01*
X174517135Y-106947645D01*
X174576742Y-106875014D01*
X174621034Y-106792150D01*
X174648308Y-106702237D01*
X174657518Y-106608731D01*
X174650643Y-106538934D01*
X174941378Y-106248200D01*
X175861059Y-106248200D01*
X175861977Y-106261079D01*
%TA.AperFunction,Conductor*%
D17*
G36*
X175861977Y-106261079D02*
G01*
X175862613Y-106292937D01*
X175846019Y-106347638D01*
X175838203Y-106427000D01*
X175838203Y-107752000D01*
X175846019Y-107831362D01*
X175869169Y-107907674D01*
X175906761Y-107978004D01*
X175957351Y-108039649D01*
X176018996Y-108090239D01*
X176089326Y-108127831D01*
X176165638Y-108150981D01*
X176245000Y-108158797D01*
X176395000Y-108158797D01*
X176474362Y-108150981D01*
X176550674Y-108127831D01*
X176621004Y-108090239D01*
X176682649Y-108039649D01*
X176733239Y-107978004D01*
X176770831Y-107907674D01*
X176793981Y-107831362D01*
X176801797Y-107752000D01*
X176801797Y-106427000D01*
X176793981Y-106347638D01*
X176777298Y-106292643D01*
X176777821Y-106248200D01*
X176881530Y-106248200D01*
X176869169Y-106271326D01*
X176846019Y-106347638D01*
X176838203Y-106427000D01*
X176838203Y-107752000D01*
X176846019Y-107831362D01*
X176869169Y-107907674D01*
X176906761Y-107978004D01*
X176957351Y-108039649D01*
X177018996Y-108090239D01*
X177089326Y-108127831D01*
X177165638Y-108150981D01*
X177245000Y-108158797D01*
X177395000Y-108158797D01*
X177474362Y-108150981D01*
X177550674Y-108127831D01*
X177570000Y-108117501D01*
X177589326Y-108127831D01*
X177665638Y-108150981D01*
X177732333Y-108157550D01*
X177723800Y-108200451D01*
X177723800Y-108315529D01*
X177746250Y-108428395D01*
X177790288Y-108534713D01*
X177854222Y-108630396D01*
X177935594Y-108711768D01*
X178031277Y-108775702D01*
X178137595Y-108819740D01*
X178250461Y-108842190D01*
X178365539Y-108842190D01*
X178478405Y-108819740D01*
X178584723Y-108775702D01*
X178680406Y-108711768D01*
X178761778Y-108630396D01*
X178825712Y-108534713D01*
X178869750Y-108428395D01*
X178892200Y-108315529D01*
X178892200Y-108200451D01*
X178883915Y-108158797D01*
X178895000Y-108158797D01*
X178974362Y-108150981D01*
X179050674Y-108127831D01*
X179070000Y-108117501D01*
X179089326Y-108127831D01*
X179165638Y-108150981D01*
X179245000Y-108158797D01*
X179395000Y-108158797D01*
X179474362Y-108150981D01*
X179550674Y-108127831D01*
X179570000Y-108117501D01*
X179589326Y-108127831D01*
X179665638Y-108150981D01*
X179745000Y-108158797D01*
X179895000Y-108158797D01*
X179974362Y-108150981D01*
X180050674Y-108127831D01*
X180070000Y-108117501D01*
X180089326Y-108127831D01*
X180165638Y-108150981D01*
X180225382Y-108156865D01*
X180204547Y-108261611D01*
X180204547Y-108376689D01*
X180226997Y-108489555D01*
X180271035Y-108595873D01*
X180334969Y-108691556D01*
X180416341Y-108772928D01*
X180512024Y-108836862D01*
X180618342Y-108880900D01*
X180731208Y-108903350D01*
X180846286Y-108903350D01*
X180959152Y-108880900D01*
X181019238Y-108856012D01*
X181020629Y-108863609D01*
X181023127Y-108885518D01*
X181025026Y-108917966D01*
X181025800Y-108964760D01*
X181025801Y-110036068D01*
X181023589Y-110058528D01*
X181025801Y-110080988D01*
X181032416Y-110148155D01*
X181038518Y-110168270D01*
X181058560Y-110234337D01*
X181061445Y-110239735D01*
X180978996Y-110294826D01*
X180897624Y-110376198D01*
X180833690Y-110471881D01*
X180789652Y-110578199D01*
X180767202Y-110691065D01*
X180767202Y-110806143D01*
X180789652Y-110919009D01*
X180833690Y-111025327D01*
X180897624Y-111121010D01*
X180918747Y-111142133D01*
X180926961Y-111169210D01*
X180969415Y-111248637D01*
X181026549Y-111318255D01*
X181043999Y-111332576D01*
X181471422Y-111760000D01*
X181048597Y-112182826D01*
X181031147Y-112197147D01*
X180974013Y-112266765D01*
X180931559Y-112346192D01*
X180905415Y-112432374D01*
X180898800Y-112499541D01*
X180898800Y-112499550D01*
X180896589Y-112522000D01*
X180898050Y-112536837D01*
X180838288Y-112626277D01*
X180794250Y-112732595D01*
X180771800Y-112845461D01*
X180771800Y-112960539D01*
X180794250Y-113073405D01*
X180838288Y-113179723D01*
X180902222Y-113275406D01*
X180983594Y-113356778D01*
X181079277Y-113420712D01*
X181185595Y-113464750D01*
X181298461Y-113487200D01*
X181413539Y-113487200D01*
X181526405Y-113464750D01*
X181632723Y-113420712D01*
X181728406Y-113356778D01*
X181809778Y-113275406D01*
X181873712Y-113179723D01*
X181917750Y-113073405D01*
X181940200Y-112960539D01*
X181940200Y-112845461D01*
X181917750Y-112732595D01*
X181880914Y-112643664D01*
X182065378Y-112459200D01*
X182163203Y-112459200D01*
X182163203Y-112577000D01*
X182171019Y-112656362D01*
X182194169Y-112732674D01*
X182204499Y-112752000D01*
X182194169Y-112771326D01*
X182171019Y-112847638D01*
X182163203Y-112927000D01*
X182163203Y-113077000D01*
X182171019Y-113156362D01*
X182194169Y-113232674D01*
X182204499Y-113252000D01*
X182194169Y-113271326D01*
X182171019Y-113347638D01*
X182163203Y-113427000D01*
X182163203Y-113577000D01*
X182171019Y-113656362D01*
X182194169Y-113732674D01*
X182204499Y-113752000D01*
X182194169Y-113771326D01*
X182171019Y-113847638D01*
X182163203Y-113927000D01*
X182163203Y-114077000D01*
X182171019Y-114156362D01*
X182194169Y-114232674D01*
X182231761Y-114303004D01*
X182282351Y-114364649D01*
X182343996Y-114415239D01*
X182414326Y-114452831D01*
X182490638Y-114475981D01*
X182570000Y-114483797D01*
X183807153Y-114483797D01*
X183807790Y-114484434D01*
X183807791Y-115138631D01*
X182988623Y-115957800D01*
X182301797Y-115957800D01*
X182301797Y-114752000D01*
X182293981Y-114672638D01*
X182270831Y-114596326D01*
X182233239Y-114525996D01*
X182182649Y-114464351D01*
X182121004Y-114413761D01*
X182050674Y-114376169D01*
X181974362Y-114353019D01*
X181895000Y-114345203D01*
X181745000Y-114345203D01*
X181665638Y-114353019D01*
X181589326Y-114376169D01*
X181518996Y-114413761D01*
X181457351Y-114464351D01*
X181406761Y-114525996D01*
X181369169Y-114596326D01*
X181346019Y-114672638D01*
X181338203Y-114752000D01*
X181338203Y-116077000D01*
X181346019Y-116156362D01*
X181362801Y-116211682D01*
X181362801Y-116392530D01*
X181360588Y-116415000D01*
X181362800Y-116437460D01*
X181362800Y-116457050D01*
X181362154Y-116511860D01*
X181360436Y-116553526D01*
X181357890Y-116585618D01*
X181354742Y-116610733D01*
X181350934Y-116632377D01*
X181345932Y-116654649D01*
X181338931Y-116681198D01*
X181329349Y-116714458D01*
X181317240Y-116755286D01*
X181316864Y-116756563D01*
X181312151Y-116772691D01*
X181302250Y-116796595D01*
X181279800Y-116909461D01*
X181279800Y-117024539D01*
X181302250Y-117137405D01*
X181305313Y-117144800D01*
X180390687Y-117144800D01*
X180393750Y-117137405D01*
X180416200Y-117024539D01*
X180416200Y-116909461D01*
X180393750Y-116796595D01*
X180349712Y-116690277D01*
X180332614Y-116664688D01*
X180324152Y-116649104D01*
X180307766Y-116618280D01*
X180296865Y-116596321D01*
X180290619Y-116582003D01*
X180287261Y-116572600D01*
X180284862Y-116563700D01*
X180282376Y-116550343D01*
X180279877Y-116528513D01*
X180277969Y-116495669D01*
X180277776Y-116483797D01*
X180395000Y-116483797D01*
X180474362Y-116475981D01*
X180550674Y-116452831D01*
X180570000Y-116442501D01*
X180589326Y-116452831D01*
X180665638Y-116475981D01*
X180745000Y-116483797D01*
X180895000Y-116483797D01*
X180974362Y-116475981D01*
X181050674Y-116452831D01*
X181121004Y-116415239D01*
X181182649Y-116364649D01*
X181233239Y-116303004D01*
X181270831Y-116232674D01*
X181293981Y-116156362D01*
X181301797Y-116077000D01*
X181301797Y-114752000D01*
X181293981Y-114672638D01*
X181270831Y-114596326D01*
X181233239Y-114525996D01*
X181182649Y-114464351D01*
X181121004Y-114413761D01*
X181050674Y-114376169D01*
X180974362Y-114353019D01*
X180895000Y-114345203D01*
X180745000Y-114345203D01*
X180665638Y-114353019D01*
X180589326Y-114376169D01*
X180570000Y-114386499D01*
X180550674Y-114376169D01*
X180474362Y-114353019D01*
X180395000Y-114345203D01*
X180245000Y-114345203D01*
X180165638Y-114353019D01*
X180089326Y-114376169D01*
X180070000Y-114386499D01*
X180050674Y-114376169D01*
X179974362Y-114353019D01*
X179895000Y-114345203D01*
X179745000Y-114345203D01*
X179665638Y-114353019D01*
X179589326Y-114376169D01*
X179570000Y-114386499D01*
X179550674Y-114376169D01*
X179474362Y-114353019D01*
X179395000Y-114345203D01*
X179245000Y-114345203D01*
X179165638Y-114353019D01*
X179089326Y-114376169D01*
X179070000Y-114386499D01*
X179050674Y-114376169D01*
X178974362Y-114353019D01*
X178895000Y-114345203D01*
X178745000Y-114345203D01*
X178665638Y-114353019D01*
X178589326Y-114376169D01*
X178570000Y-114386499D01*
X178550674Y-114376169D01*
X178474362Y-114353019D01*
X178395000Y-114345203D01*
X178245000Y-114345203D01*
X178165638Y-114353019D01*
X178089326Y-114376169D01*
X178070000Y-114386499D01*
X178050674Y-114376169D01*
X177974362Y-114353019D01*
X177895000Y-114345203D01*
X177818981Y-114345203D01*
X177872778Y-114291406D01*
X177936712Y-114195723D01*
X177980750Y-114089405D01*
X178003200Y-113976539D01*
X178003200Y-113861461D01*
X177980750Y-113748595D01*
X177936712Y-113642277D01*
X177872778Y-113546594D01*
X177791406Y-113465222D01*
X177695723Y-113401288D01*
X177589405Y-113357250D01*
X177476539Y-113334800D01*
X177060449Y-113334800D01*
X177037999Y-113332589D01*
X177015549Y-113334800D01*
X177015540Y-113334800D01*
X176948373Y-113341415D01*
X176862191Y-113367559D01*
X176831456Y-113383987D01*
X176782763Y-113410013D01*
X176743733Y-113442045D01*
X176713147Y-113467147D01*
X176698830Y-113484592D01*
X176540132Y-113643290D01*
X176539712Y-113642277D01*
X176475778Y-113546594D01*
X176394406Y-113465222D01*
X176298723Y-113401288D01*
X176192405Y-113357250D01*
X176079539Y-113334800D01*
X176028698Y-113334800D01*
X176038381Y-113326853D01*
X176052702Y-113309403D01*
X176329409Y-113032697D01*
X176346853Y-113018381D01*
X176377194Y-112981411D01*
X176403987Y-112948765D01*
X176427920Y-112903987D01*
X176446441Y-112869337D01*
X176472585Y-112783155D01*
X176479200Y-112715988D01*
X176479200Y-112715979D01*
X176481411Y-112693529D01*
X176479200Y-112671079D01*
X176479200Y-111860979D01*
X176521406Y-111832778D01*
X176602778Y-111751406D01*
X176666712Y-111655723D01*
X176710750Y-111549405D01*
X176733200Y-111436539D01*
X176733200Y-111321461D01*
X176710750Y-111208595D01*
X176666712Y-111102277D01*
X176602778Y-111006594D01*
X176521406Y-110925222D01*
X176425723Y-110861288D01*
X176319405Y-110817250D01*
X176206539Y-110794800D01*
X176091461Y-110794800D01*
X175978595Y-110817250D01*
X175961865Y-110824180D01*
X175945831Y-110771326D01*
X175935501Y-110752000D01*
X175945831Y-110732674D01*
X175968981Y-110656362D01*
X175976797Y-110577000D01*
X175976797Y-110427000D01*
X175968981Y-110347638D01*
X175945831Y-110271326D01*
X175935501Y-110252000D01*
X175945831Y-110232674D01*
X175968981Y-110156362D01*
X175976797Y-110077000D01*
X175976797Y-109927000D01*
X175968981Y-109847638D01*
X175945831Y-109771326D01*
X175935501Y-109752000D01*
X175945831Y-109732674D01*
X175968981Y-109656362D01*
X175976797Y-109577000D01*
X175976797Y-109527005D01*
X175978595Y-109527750D01*
X176091461Y-109550200D01*
X176206539Y-109550200D01*
X176319405Y-109527750D01*
X176425723Y-109483712D01*
X176521406Y-109419778D01*
X176602778Y-109338406D01*
X176666712Y-109242723D01*
X176710750Y-109136405D01*
X176733200Y-109023539D01*
X176733200Y-108908461D01*
X176710750Y-108795595D01*
X176666712Y-108689277D01*
X176602778Y-108593594D01*
X176521406Y-108512222D01*
X176425723Y-108448288D01*
X176319405Y-108404250D01*
X176206539Y-108381800D01*
X176091461Y-108381800D01*
X175978595Y-108404250D01*
X175974715Y-108405857D01*
X175968981Y-108347638D01*
X175945831Y-108271326D01*
X175908239Y-108200996D01*
X175857649Y-108139351D01*
X175796004Y-108088761D01*
X175725674Y-108051169D01*
X175649362Y-108028019D01*
X175570000Y-108020203D01*
X174245000Y-108020203D01*
X174165638Y-108028019D01*
X174148727Y-108033149D01*
X174133341Y-108023360D01*
X174114559Y-108010375D01*
X174108406Y-108004222D01*
X174012723Y-107940288D01*
X173906405Y-107896250D01*
X173793539Y-107873800D01*
X173678461Y-107873800D01*
X173565595Y-107896250D01*
X173542019Y-107906015D01*
X173550014Y-107901742D01*
X173622645Y-107842135D01*
X173831241Y-107633539D01*
X173890848Y-107560908D01*
X173935140Y-107478044D01*
X173962414Y-107388131D01*
X173971445Y-107296445D01*
X174063131Y-107287414D01*
X174153044Y-107260140D01*
X174235908Y-107215848D01*
X174308539Y-107156241D01*
X174517135Y-106947645D01*
X174576742Y-106875014D01*
X174621034Y-106792150D01*
X174648308Y-106702237D01*
X174657518Y-106608731D01*
X174650643Y-106538934D01*
X174941378Y-106248200D01*
X175861059Y-106248200D01*
X175861977Y-106261079D01*
G37*
%TD.AperFunction*%
D15*
X172510925Y-112783075D02*
X172581661Y-112841128D01*
X172662365Y-112884264D01*
X172749932Y-112910828D01*
X172841000Y-112919797D01*
X173111000Y-112919797D01*
X173202068Y-112910828D01*
X173289635Y-112884264D01*
X173370339Y-112841128D01*
X173389773Y-112825179D01*
X173391147Y-112826853D01*
X173460764Y-112883987D01*
X173540191Y-112926441D01*
X173626373Y-112952585D01*
X173693540Y-112959200D01*
X173693550Y-112959200D01*
X173716000Y-112961411D01*
X173738450Y-112959200D01*
X173838203Y-112959200D01*
X173838203Y-113077000D01*
X173846019Y-113156362D01*
X173869169Y-113232674D01*
X173906761Y-113303004D01*
X173957351Y-113364649D01*
X174018996Y-113415239D01*
X174089326Y-113452831D01*
X174165638Y-113475981D01*
X174245000Y-113483797D01*
X175570000Y-113483797D01*
X175637685Y-113477131D01*
X175592406Y-113522410D01*
X175570000Y-113520203D01*
X174245000Y-113520203D01*
X174165638Y-113528019D01*
X174089326Y-113551169D01*
X174018996Y-113588761D01*
X173957351Y-113639351D01*
X173906761Y-113700996D01*
X173869169Y-113771326D01*
X173846019Y-113847638D01*
X173838203Y-113927000D01*
X173838203Y-114035800D01*
X172566529Y-114035800D01*
X172573797Y-113962000D01*
X172573797Y-113622000D01*
X172564732Y-113529957D01*
X172546200Y-113468865D01*
X172546200Y-113443692D01*
X172549026Y-113415000D01*
X172543122Y-113355053D01*
X172537746Y-113300477D01*
X172504341Y-113190355D01*
X172450094Y-113088866D01*
X172377090Y-112999910D01*
X172354802Y-112981619D01*
X172260284Y-112887101D01*
X172269635Y-112884264D01*
X172350339Y-112841128D01*
X172421075Y-112783075D01*
X172466000Y-112728335D01*
X172510925Y-112783075D01*
%TA.AperFunction,Conductor*%
D17*
G36*
X172510925Y-112783075D02*
G01*
X172581661Y-112841128D01*
X172662365Y-112884264D01*
X172749932Y-112910828D01*
X172841000Y-112919797D01*
X173111000Y-112919797D01*
X173202068Y-112910828D01*
X173289635Y-112884264D01*
X173370339Y-112841128D01*
X173389773Y-112825179D01*
X173391147Y-112826853D01*
X173460764Y-112883987D01*
X173540191Y-112926441D01*
X173626373Y-112952585D01*
X173693540Y-112959200D01*
X173693550Y-112959200D01*
X173716000Y-112961411D01*
X173738450Y-112959200D01*
X173838203Y-112959200D01*
X173838203Y-113077000D01*
X173846019Y-113156362D01*
X173869169Y-113232674D01*
X173906761Y-113303004D01*
X173957351Y-113364649D01*
X174018996Y-113415239D01*
X174089326Y-113452831D01*
X174165638Y-113475981D01*
X174245000Y-113483797D01*
X175570000Y-113483797D01*
X175637685Y-113477131D01*
X175592406Y-113522410D01*
X175570000Y-113520203D01*
X174245000Y-113520203D01*
X174165638Y-113528019D01*
X174089326Y-113551169D01*
X174018996Y-113588761D01*
X173957351Y-113639351D01*
X173906761Y-113700996D01*
X173869169Y-113771326D01*
X173846019Y-113847638D01*
X173838203Y-113927000D01*
X173838203Y-114035800D01*
X172566529Y-114035800D01*
X172573797Y-113962000D01*
X172573797Y-113622000D01*
X172564732Y-113529957D01*
X172546200Y-113468865D01*
X172546200Y-113443692D01*
X172549026Y-113415000D01*
X172543122Y-113355053D01*
X172537746Y-113300477D01*
X172504341Y-113190355D01*
X172450094Y-113088866D01*
X172377090Y-112999910D01*
X172354802Y-112981619D01*
X172260284Y-112887101D01*
X172269635Y-112884264D01*
X172350339Y-112841128D01*
X172421075Y-112783075D01*
X172466000Y-112728335D01*
X172510925Y-112783075D01*
G37*
%TD.AperFunction*%
D15*
X178307419Y-105141910D02*
X178283120Y-105163521D01*
X178265865Y-105177244D01*
X178254121Y-105185353D01*
X178244982Y-105190701D01*
X178234320Y-105195933D01*
X178217867Y-105202800D01*
X178192890Y-105212033D01*
X178157977Y-105224133D01*
X178153386Y-105225711D01*
X178135595Y-105229250D01*
X178029277Y-105273288D01*
X178014198Y-105283364D01*
X178009680Y-105285570D01*
X177976612Y-105301616D01*
X177952383Y-105312767D01*
X177935920Y-105319534D01*
X177924659Y-105323381D01*
X177914428Y-105326059D01*
X177900390Y-105328629D01*
X177878481Y-105331127D01*
X177846033Y-105333026D01*
X177799259Y-105333800D01*
X176643285Y-105333800D01*
X176552723Y-105273288D01*
X176446405Y-105229250D01*
X176333539Y-105206800D01*
X176218461Y-105206800D01*
X176105595Y-105229250D01*
X175999277Y-105273288D01*
X175908715Y-105333800D01*
X174774450Y-105333800D01*
X174752000Y-105331589D01*
X174729550Y-105333800D01*
X174729540Y-105333800D01*
X174662373Y-105340415D01*
X174576191Y-105366559D01*
X174515073Y-105399227D01*
X174496764Y-105409013D01*
X174460456Y-105438811D01*
X174427147Y-105466147D01*
X174412830Y-105483592D01*
X174004066Y-105892357D01*
X173934269Y-105885482D01*
X173840763Y-105894692D01*
X173750850Y-105921966D01*
X173667986Y-105966258D01*
X173595355Y-106025865D01*
X173386759Y-106234461D01*
X173327152Y-106307092D01*
X173282860Y-106389956D01*
X173255586Y-106479869D01*
X173246555Y-106571555D01*
X173205390Y-106575610D01*
X173209624Y-106532625D01*
X173200414Y-106439119D01*
X173173140Y-106349206D01*
X173128848Y-106266342D01*
X173069241Y-106193711D01*
X172825289Y-105949759D01*
X172752658Y-105890152D01*
X172669794Y-105845860D01*
X172579881Y-105818586D01*
X172486375Y-105809376D01*
X172392869Y-105818586D01*
X172302956Y-105845860D01*
X172220092Y-105890152D01*
X172147461Y-105949759D01*
X171938865Y-106158355D01*
X171879258Y-106230986D01*
X171834966Y-106313850D01*
X171807692Y-106403763D01*
X171798482Y-106497269D01*
X171805357Y-106567066D01*
X171650592Y-106721831D01*
X171633148Y-106736147D01*
X171618831Y-106753592D01*
X171618830Y-106753593D01*
X171576013Y-106805765D01*
X171540857Y-106871539D01*
X171533560Y-106885191D01*
X171512553Y-106954441D01*
X171507416Y-106971374D01*
X171498589Y-107061000D01*
X171500801Y-107083460D01*
X171500800Y-108703427D01*
X171442925Y-108750925D01*
X171384872Y-108821661D01*
X171341736Y-108902365D01*
X171315172Y-108989932D01*
X171306203Y-109081000D01*
X171306203Y-109351000D01*
X171315172Y-109442068D01*
X171341736Y-109529635D01*
X171384872Y-109610339D01*
X171442925Y-109681075D01*
X171497665Y-109726000D01*
X171442925Y-109770925D01*
X171384872Y-109841661D01*
X171341736Y-109922365D01*
X171315172Y-110009932D01*
X171306203Y-110101000D01*
X171306203Y-110110626D01*
X171271174Y-110075596D01*
X171256853Y-110058147D01*
X171187236Y-110001013D01*
X171107809Y-109958559D01*
X171021627Y-109932415D01*
X171009797Y-109931250D01*
X171009797Y-109733000D01*
X171003422Y-109668270D01*
X170992723Y-109633000D01*
X171003422Y-109597730D01*
X171009797Y-109533000D01*
X171009797Y-109233000D01*
X171003422Y-109168270D01*
X170984540Y-109106027D01*
X170953879Y-109048663D01*
X170912616Y-108998384D01*
X170862337Y-108957121D01*
X170804973Y-108926460D01*
X170742730Y-108907578D01*
X170678000Y-108901203D01*
X169428000Y-108901203D01*
X169363270Y-108907578D01*
X169301027Y-108926460D01*
X169265200Y-108945609D01*
X169265200Y-105808376D01*
X169279457Y-105662978D01*
X169316634Y-105539840D01*
X169377025Y-105426260D01*
X169458324Y-105326578D01*
X169557437Y-105244585D01*
X169670589Y-105183403D01*
X169793471Y-105145366D01*
X169937759Y-105130200D01*
X178319523Y-105130200D01*
X178307419Y-105141910D01*
%TA.AperFunction,Conductor*%
D17*
G36*
X178307419Y-105141910D02*
G01*
X178283120Y-105163521D01*
X178265865Y-105177244D01*
X178254121Y-105185353D01*
X178244982Y-105190701D01*
X178234320Y-105195933D01*
X178217867Y-105202800D01*
X178192890Y-105212033D01*
X178157977Y-105224133D01*
X178153386Y-105225711D01*
X178135595Y-105229250D01*
X178029277Y-105273288D01*
X178014198Y-105283364D01*
X178009680Y-105285570D01*
X177976612Y-105301616D01*
X177952383Y-105312767D01*
X177935920Y-105319534D01*
X177924659Y-105323381D01*
X177914428Y-105326059D01*
X177900390Y-105328629D01*
X177878481Y-105331127D01*
X177846033Y-105333026D01*
X177799259Y-105333800D01*
X176643285Y-105333800D01*
X176552723Y-105273288D01*
X176446405Y-105229250D01*
X176333539Y-105206800D01*
X176218461Y-105206800D01*
X176105595Y-105229250D01*
X175999277Y-105273288D01*
X175908715Y-105333800D01*
X174774450Y-105333800D01*
X174752000Y-105331589D01*
X174729550Y-105333800D01*
X174729540Y-105333800D01*
X174662373Y-105340415D01*
X174576191Y-105366559D01*
X174515073Y-105399227D01*
X174496764Y-105409013D01*
X174460456Y-105438811D01*
X174427147Y-105466147D01*
X174412830Y-105483592D01*
X174004066Y-105892357D01*
X173934269Y-105885482D01*
X173840763Y-105894692D01*
X173750850Y-105921966D01*
X173667986Y-105966258D01*
X173595355Y-106025865D01*
X173386759Y-106234461D01*
X173327152Y-106307092D01*
X173282860Y-106389956D01*
X173255586Y-106479869D01*
X173246555Y-106571555D01*
X173205390Y-106575610D01*
X173209624Y-106532625D01*
X173200414Y-106439119D01*
X173173140Y-106349206D01*
X173128848Y-106266342D01*
X173069241Y-106193711D01*
X172825289Y-105949759D01*
X172752658Y-105890152D01*
X172669794Y-105845860D01*
X172579881Y-105818586D01*
X172486375Y-105809376D01*
X172392869Y-105818586D01*
X172302956Y-105845860D01*
X172220092Y-105890152D01*
X172147461Y-105949759D01*
X171938865Y-106158355D01*
X171879258Y-106230986D01*
X171834966Y-106313850D01*
X171807692Y-106403763D01*
X171798482Y-106497269D01*
X171805357Y-106567066D01*
X171650592Y-106721831D01*
X171633148Y-106736147D01*
X171618831Y-106753592D01*
X171618830Y-106753593D01*
X171576013Y-106805765D01*
X171540857Y-106871539D01*
X171533560Y-106885191D01*
X171512553Y-106954441D01*
X171507416Y-106971374D01*
X171498589Y-107061000D01*
X171500801Y-107083460D01*
X171500800Y-108703427D01*
X171442925Y-108750925D01*
X171384872Y-108821661D01*
X171341736Y-108902365D01*
X171315172Y-108989932D01*
X171306203Y-109081000D01*
X171306203Y-109351000D01*
X171315172Y-109442068D01*
X171341736Y-109529635D01*
X171384872Y-109610339D01*
X171442925Y-109681075D01*
X171497665Y-109726000D01*
X171442925Y-109770925D01*
X171384872Y-109841661D01*
X171341736Y-109922365D01*
X171315172Y-110009932D01*
X171306203Y-110101000D01*
X171306203Y-110110626D01*
X171271174Y-110075596D01*
X171256853Y-110058147D01*
X171187236Y-110001013D01*
X171107809Y-109958559D01*
X171021627Y-109932415D01*
X171009797Y-109931250D01*
X171009797Y-109733000D01*
X171003422Y-109668270D01*
X170992723Y-109633000D01*
X171003422Y-109597730D01*
X171009797Y-109533000D01*
X171009797Y-109233000D01*
X171003422Y-109168270D01*
X170984540Y-109106027D01*
X170953879Y-109048663D01*
X170912616Y-108998384D01*
X170862337Y-108957121D01*
X170804973Y-108926460D01*
X170742730Y-108907578D01*
X170678000Y-108901203D01*
X169428000Y-108901203D01*
X169363270Y-108907578D01*
X169301027Y-108926460D01*
X169265200Y-108945609D01*
X169265200Y-105808376D01*
X169279457Y-105662978D01*
X169316634Y-105539840D01*
X169377025Y-105426260D01*
X169458324Y-105326578D01*
X169557437Y-105244585D01*
X169670589Y-105183403D01*
X169793471Y-105145366D01*
X169937759Y-105130200D01*
X178319523Y-105130200D01*
X178307419Y-105141910D01*
G37*
%TD.AperFunction*%
%TD*%
D18*
%TO.N,/NRST*%
X179535545Y-105907388D02*
X179518536Y-105941059D01*
X179518498Y-105941136D01*
X179500104Y-105978170D01*
X179499967Y-105978454D01*
X179484088Y-106012522D01*
X179483856Y-106013052D01*
X179470399Y-106045734D01*
X179470113Y-106046497D01*
X179458984Y-106079372D01*
X179458712Y-106080286D01*
X179449817Y-106114934D01*
X179449614Y-106115869D01*
X179442859Y-106153869D01*
X179442739Y-106154707D01*
X179438030Y-106197638D01*
X179437974Y-106198316D01*
X179435217Y-106247759D01*
X179435199Y-106248268D01*
X179434497Y-106293300D01*
X179205513Y-106293300D01*
X179204832Y-106247507D01*
X179204815Y-106247024D01*
X179202160Y-106196943D01*
X179202110Y-106196299D01*
X179197581Y-106152818D01*
X179197473Y-106152024D01*
X179190987Y-106113519D01*
X179190805Y-106112635D01*
X179182277Y-106077484D01*
X179182035Y-106076621D01*
X179171382Y-106043199D01*
X179171130Y-106042482D01*
X179158267Y-106009167D01*
X179158064Y-106008674D01*
X179142907Y-105973841D01*
X179142792Y-105973584D01*
X179125258Y-105935611D01*
X179125231Y-105935553D01*
X179108991Y-105900846D01*
X179325665Y-105682335D01*
X179535545Y-105907388D01*
%TA.AperFunction,Conductor*%
D17*
G36*
X179535545Y-105907388D02*
G01*
X179518536Y-105941059D01*
X179518498Y-105941136D01*
X179500104Y-105978170D01*
X179499967Y-105978454D01*
X179484088Y-106012522D01*
X179483856Y-106013052D01*
X179470399Y-106045734D01*
X179470113Y-106046497D01*
X179458984Y-106079372D01*
X179458712Y-106080286D01*
X179449817Y-106114934D01*
X179449614Y-106115869D01*
X179442859Y-106153869D01*
X179442739Y-106154707D01*
X179438030Y-106197638D01*
X179437974Y-106198316D01*
X179435217Y-106247759D01*
X179435199Y-106248268D01*
X179434497Y-106293300D01*
X179205513Y-106293300D01*
X179204832Y-106247507D01*
X179204815Y-106247024D01*
X179202160Y-106196943D01*
X179202110Y-106196299D01*
X179197581Y-106152818D01*
X179197473Y-106152024D01*
X179190987Y-106113519D01*
X179190805Y-106112635D01*
X179182277Y-106077484D01*
X179182035Y-106076621D01*
X179171382Y-106043199D01*
X179171130Y-106042482D01*
X179158267Y-106009167D01*
X179158064Y-106008674D01*
X179142907Y-105973841D01*
X179142792Y-105973584D01*
X179125258Y-105935611D01*
X179125231Y-105935553D01*
X179108991Y-105900846D01*
X179325665Y-105682335D01*
X179535545Y-105907388D01*
G37*
%TD.AperFunction*%
%TD*%
D18*
%TO.N,/NRST*%
X181696292Y-108571119D02*
X181680133Y-108604204D01*
X181680119Y-108604234D01*
X181662411Y-108640728D01*
X181662300Y-108640962D01*
X181646884Y-108674457D01*
X181646675Y-108674939D01*
X181633495Y-108707003D01*
X181633223Y-108707726D01*
X181622223Y-108739927D01*
X181621955Y-108740816D01*
X181613080Y-108774724D01*
X181612874Y-108775653D01*
X181606068Y-108812835D01*
X181605942Y-108813683D01*
X181601149Y-108855708D01*
X181601089Y-108856405D01*
X181598254Y-108904841D01*
X181598234Y-108905373D01*
X181597508Y-108949300D01*
X181368491Y-108949300D01*
X181367765Y-108905373D01*
X181367745Y-108904841D01*
X181364910Y-108856405D01*
X181364850Y-108855708D01*
X181360057Y-108813683D01*
X181359931Y-108812835D01*
X181353125Y-108775653D01*
X181352919Y-108774724D01*
X181344044Y-108740816D01*
X181343776Y-108739927D01*
X181332776Y-108707726D01*
X181332504Y-108707003D01*
X181319324Y-108674939D01*
X181319115Y-108674457D01*
X181303699Y-108640962D01*
X181303588Y-108640728D01*
X181285880Y-108604234D01*
X181285866Y-108604205D01*
X181269708Y-108571120D01*
X181483000Y-108349322D01*
X181696292Y-108571119D01*
%TA.AperFunction,Conductor*%
D17*
G36*
X181696292Y-108571119D02*
G01*
X181680133Y-108604204D01*
X181680119Y-108604234D01*
X181662411Y-108640728D01*
X181662300Y-108640962D01*
X181646884Y-108674457D01*
X181646675Y-108674939D01*
X181633495Y-108707003D01*
X181633223Y-108707726D01*
X181622223Y-108739927D01*
X181621955Y-108740816D01*
X181613080Y-108774724D01*
X181612874Y-108775653D01*
X181606068Y-108812835D01*
X181605942Y-108813683D01*
X181601149Y-108855708D01*
X181601089Y-108856405D01*
X181598254Y-108904841D01*
X181598234Y-108905373D01*
X181597508Y-108949300D01*
X181368491Y-108949300D01*
X181367765Y-108905373D01*
X181367745Y-108904841D01*
X181364910Y-108856405D01*
X181364850Y-108855708D01*
X181360057Y-108813683D01*
X181359931Y-108812835D01*
X181353125Y-108775653D01*
X181352919Y-108774724D01*
X181344044Y-108740816D01*
X181343776Y-108739927D01*
X181332776Y-108707726D01*
X181332504Y-108707003D01*
X181319324Y-108674939D01*
X181319115Y-108674457D01*
X181303699Y-108640962D01*
X181303588Y-108640728D01*
X181285880Y-108604234D01*
X181285866Y-108604205D01*
X181269708Y-108571120D01*
X181483000Y-108349322D01*
X181696292Y-108571119D01*
G37*
%TD.AperFunction*%
%TD*%
D18*
%TO.N,Net-(C2-Pad1)*%
X181522685Y-112518556D02*
X181506118Y-112538529D01*
X181504518Y-112540990D01*
X181490707Y-112568811D01*
X181489602Y-112572103D01*
X181484499Y-112599143D01*
X181484321Y-112602533D01*
X181486491Y-112629070D01*
X181486999Y-112631733D01*
X181495009Y-112658046D01*
X181495669Y-112659758D01*
X181508084Y-112686125D01*
X181508570Y-112687056D01*
X181523955Y-112713754D01*
X181524164Y-112714103D01*
X181541051Y-112741354D01*
X181557859Y-112769193D01*
X181569050Y-112790132D01*
X181358477Y-113009103D01*
X181191890Y-112724722D01*
X181216513Y-112695533D01*
X181217823Y-112693662D01*
X181238406Y-112657773D01*
X181239287Y-112655897D01*
X181252724Y-112619904D01*
X181253156Y-112618505D01*
X181262132Y-112582139D01*
X181262268Y-112581521D01*
X181269443Y-112544629D01*
X181277414Y-112507338D01*
X181288730Y-112469512D01*
X181305981Y-112430603D01*
X181331876Y-112389984D01*
X181360875Y-112356746D01*
X181522685Y-112518556D01*
%TA.AperFunction,Conductor*%
D17*
G36*
X181522685Y-112518556D02*
G01*
X181506118Y-112538529D01*
X181504518Y-112540990D01*
X181490707Y-112568811D01*
X181489602Y-112572103D01*
X181484499Y-112599143D01*
X181484321Y-112602533D01*
X181486491Y-112629070D01*
X181486999Y-112631733D01*
X181495009Y-112658046D01*
X181495669Y-112659758D01*
X181508084Y-112686125D01*
X181508570Y-112687056D01*
X181523955Y-112713754D01*
X181524164Y-112714103D01*
X181541051Y-112741354D01*
X181557859Y-112769193D01*
X181569050Y-112790132D01*
X181358477Y-113009103D01*
X181191890Y-112724722D01*
X181216513Y-112695533D01*
X181217823Y-112693662D01*
X181238406Y-112657773D01*
X181239287Y-112655897D01*
X181252724Y-112619904D01*
X181253156Y-112618505D01*
X181262132Y-112582139D01*
X181262268Y-112581521D01*
X181269443Y-112544629D01*
X181277414Y-112507338D01*
X181288730Y-112469512D01*
X181305981Y-112430603D01*
X181331876Y-112389984D01*
X181360875Y-112356746D01*
X181522685Y-112518556D01*
G37*
%TD.AperFunction*%
%TD*%
D18*
%TO.N,Net-(C3-Pad1)*%
X181570752Y-110850115D02*
X181563209Y-110869583D01*
X181562915Y-110870428D01*
X181554863Y-110896536D01*
X181554558Y-110897729D01*
X181549425Y-110922776D01*
X181549204Y-110924343D01*
X181547317Y-110948643D01*
X181547310Y-110950518D01*
X181548991Y-110974385D01*
X181549296Y-110976395D01*
X181554870Y-111000145D01*
X181555479Y-111002050D01*
X181565270Y-111025995D01*
X181566068Y-111027610D01*
X181580402Y-111052066D01*
X181581245Y-111053325D01*
X181600445Y-111078606D01*
X181601228Y-111079540D01*
X181617342Y-111096995D01*
X181455534Y-111258803D01*
X181421584Y-111223416D01*
X181386787Y-111183718D01*
X181358132Y-111147847D01*
X181333826Y-111114762D01*
X181312135Y-111083490D01*
X181291241Y-111052948D01*
X181291115Y-111052768D01*
X181269429Y-111022215D01*
X181269143Y-111021828D01*
X181244918Y-110990302D01*
X181244515Y-110989804D01*
X181216005Y-110956339D01*
X181215546Y-110955829D01*
X181187469Y-110926268D01*
X181347619Y-110642085D01*
X181570752Y-110850115D01*
%TA.AperFunction,Conductor*%
D17*
G36*
X181570752Y-110850115D02*
G01*
X181563209Y-110869583D01*
X181562915Y-110870428D01*
X181554863Y-110896536D01*
X181554558Y-110897729D01*
X181549425Y-110922776D01*
X181549204Y-110924343D01*
X181547317Y-110948643D01*
X181547310Y-110950518D01*
X181548991Y-110974385D01*
X181549296Y-110976395D01*
X181554870Y-111000145D01*
X181555479Y-111002050D01*
X181565270Y-111025995D01*
X181566068Y-111027610D01*
X181580402Y-111052066D01*
X181581245Y-111053325D01*
X181600445Y-111078606D01*
X181601228Y-111079540D01*
X181617342Y-111096995D01*
X181455534Y-111258803D01*
X181421584Y-111223416D01*
X181386787Y-111183718D01*
X181358132Y-111147847D01*
X181333826Y-111114762D01*
X181312135Y-111083490D01*
X181291241Y-111052948D01*
X181291115Y-111052768D01*
X181269429Y-111022215D01*
X181269143Y-111021828D01*
X181244918Y-110990302D01*
X181244515Y-110989804D01*
X181216005Y-110956339D01*
X181215546Y-110955829D01*
X181187469Y-110926268D01*
X181347619Y-110642085D01*
X181570752Y-110850115D01*
G37*
%TD.AperFunction*%
%TD*%
D18*
%TO.N,+3V3*%
X176505459Y-105866045D02*
X176494013Y-105905210D01*
X176481546Y-105947244D01*
X176481518Y-105947339D01*
X176470533Y-105985472D01*
X176470457Y-105985749D01*
X176460951Y-106021793D01*
X176460840Y-106022249D01*
X176452807Y-106058018D01*
X176452690Y-106058601D01*
X176446127Y-106095909D01*
X176446034Y-106096529D01*
X176440937Y-106137190D01*
X176440878Y-106137766D01*
X176437243Y-106183592D01*
X176437214Y-106184073D01*
X176435036Y-106236878D01*
X176435026Y-106237252D01*
X176434449Y-106286300D01*
X176205448Y-106286300D01*
X176204639Y-106245783D01*
X176204610Y-106245134D01*
X176201358Y-106199491D01*
X176201267Y-106198630D01*
X176195705Y-106158977D01*
X176195509Y-106157914D01*
X176187518Y-106122920D01*
X176187188Y-106121738D01*
X176176653Y-106090073D01*
X176176206Y-106088920D01*
X176163008Y-106059252D01*
X176162528Y-106058286D01*
X176146552Y-106029285D01*
X176146143Y-106028596D01*
X176127270Y-105998932D01*
X176127002Y-105998527D01*
X176105116Y-105966870D01*
X176104999Y-105966705D01*
X176085119Y-105938905D01*
X176257450Y-105683917D01*
X176505459Y-105866045D01*
%TA.AperFunction,Conductor*%
D17*
G36*
X176505459Y-105866045D02*
G01*
X176494013Y-105905210D01*
X176481546Y-105947244D01*
X176481518Y-105947339D01*
X176470533Y-105985472D01*
X176470457Y-105985749D01*
X176460951Y-106021793D01*
X176460840Y-106022249D01*
X176452807Y-106058018D01*
X176452690Y-106058601D01*
X176446127Y-106095909D01*
X176446034Y-106096529D01*
X176440937Y-106137190D01*
X176440878Y-106137766D01*
X176437243Y-106183592D01*
X176437214Y-106184073D01*
X176435036Y-106236878D01*
X176435026Y-106237252D01*
X176434449Y-106286300D01*
X176205448Y-106286300D01*
X176204639Y-106245783D01*
X176204610Y-106245134D01*
X176201358Y-106199491D01*
X176201267Y-106198630D01*
X176195705Y-106158977D01*
X176195509Y-106157914D01*
X176187518Y-106122920D01*
X176187188Y-106121738D01*
X176176653Y-106090073D01*
X176176206Y-106088920D01*
X176163008Y-106059252D01*
X176162528Y-106058286D01*
X176146552Y-106029285D01*
X176146143Y-106028596D01*
X176127270Y-105998932D01*
X176127002Y-105998527D01*
X176105116Y-105966870D01*
X176104999Y-105966705D01*
X176085119Y-105938905D01*
X176257450Y-105683917D01*
X176505459Y-105866045D01*
G37*
%TD.AperFunction*%
%TD*%
D18*
%TO.N,+3V3*%
X185020343Y-109973469D02*
X184815978Y-110203508D01*
X184779854Y-110189229D01*
X184740610Y-110173697D01*
X184740434Y-110173629D01*
X184704630Y-110160068D01*
X184704236Y-110159926D01*
X184670187Y-110148300D01*
X184669579Y-110148110D01*
X184635595Y-110138378D01*
X184634841Y-110138187D01*
X184599232Y-110130312D01*
X184598443Y-110130163D01*
X184559519Y-110124106D01*
X184558797Y-110124015D01*
X184514867Y-110119736D01*
X184514272Y-110119692D01*
X184463647Y-110117153D01*
X184463191Y-110117138D01*
X184416700Y-110116479D01*
X184416700Y-109887475D01*
X184459271Y-109886716D01*
X184459849Y-109886692D01*
X184507187Y-109883685D01*
X184507954Y-109883613D01*
X184549051Y-109878487D01*
X184549994Y-109878333D01*
X184586319Y-109870993D01*
X184587365Y-109870736D01*
X184620384Y-109861091D01*
X184621400Y-109860747D01*
X184652581Y-109848701D01*
X184653424Y-109848339D01*
X184684233Y-109833799D01*
X184684820Y-109833504D01*
X184716724Y-109816377D01*
X184717045Y-109816198D01*
X184751512Y-109796390D01*
X184751610Y-109796334D01*
X184782470Y-109778232D01*
X185020343Y-109973469D01*
%TA.AperFunction,Conductor*%
D17*
G36*
X185020343Y-109973469D02*
G01*
X184815978Y-110203508D01*
X184779854Y-110189229D01*
X184740610Y-110173697D01*
X184740434Y-110173629D01*
X184704630Y-110160068D01*
X184704236Y-110159926D01*
X184670187Y-110148300D01*
X184669579Y-110148110D01*
X184635595Y-110138378D01*
X184634841Y-110138187D01*
X184599232Y-110130312D01*
X184598443Y-110130163D01*
X184559519Y-110124106D01*
X184558797Y-110124015D01*
X184514867Y-110119736D01*
X184514272Y-110119692D01*
X184463647Y-110117153D01*
X184463191Y-110117138D01*
X184416700Y-110116479D01*
X184416700Y-109887475D01*
X184459271Y-109886716D01*
X184459849Y-109886692D01*
X184507187Y-109883685D01*
X184507954Y-109883613D01*
X184549051Y-109878487D01*
X184549994Y-109878333D01*
X184586319Y-109870993D01*
X184587365Y-109870736D01*
X184620384Y-109861091D01*
X184621400Y-109860747D01*
X184652581Y-109848701D01*
X184653424Y-109848339D01*
X184684233Y-109833799D01*
X184684820Y-109833504D01*
X184716724Y-109816377D01*
X184717045Y-109816198D01*
X184751512Y-109796390D01*
X184751610Y-109796334D01*
X184782470Y-109778232D01*
X185020343Y-109973469D01*
G37*
%TD.AperFunction*%
%TD*%
D18*
%TO.N,+3V3*%
X181935360Y-116512215D02*
X181935389Y-116512865D01*
X181938641Y-116558508D01*
X181938732Y-116559369D01*
X181944294Y-116599022D01*
X181944490Y-116600085D01*
X181952481Y-116635079D01*
X181952811Y-116636261D01*
X181963346Y-116667926D01*
X181963793Y-116669079D01*
X181976991Y-116698747D01*
X181977471Y-116699713D01*
X181993447Y-116728714D01*
X181993856Y-116729403D01*
X182012729Y-116759067D01*
X182012997Y-116759472D01*
X182034883Y-116791129D01*
X182035000Y-116791294D01*
X182054881Y-116819095D01*
X181882550Y-117074083D01*
X181634541Y-116891955D01*
X181645986Y-116852789D01*
X181658453Y-116810755D01*
X181658481Y-116810660D01*
X181669466Y-116772527D01*
X181669542Y-116772250D01*
X181679048Y-116736206D01*
X181679159Y-116735750D01*
X181687192Y-116699981D01*
X181687309Y-116699398D01*
X181693872Y-116662090D01*
X181693965Y-116661470D01*
X181699062Y-116620809D01*
X181699121Y-116620233D01*
X181702756Y-116574407D01*
X181702785Y-116573926D01*
X181704963Y-116521121D01*
X181704973Y-116520748D01*
X181705551Y-116471700D01*
X181934551Y-116471700D01*
X181935360Y-116512215D01*
%TA.AperFunction,Conductor*%
D17*
G36*
X181935360Y-116512215D02*
G01*
X181935389Y-116512865D01*
X181938641Y-116558508D01*
X181938732Y-116559369D01*
X181944294Y-116599022D01*
X181944490Y-116600085D01*
X181952481Y-116635079D01*
X181952811Y-116636261D01*
X181963346Y-116667926D01*
X181963793Y-116669079D01*
X181976991Y-116698747D01*
X181977471Y-116699713D01*
X181993447Y-116728714D01*
X181993856Y-116729403D01*
X182012729Y-116759067D01*
X182012997Y-116759472D01*
X182034883Y-116791129D01*
X182035000Y-116791294D01*
X182054881Y-116819095D01*
X181882550Y-117074083D01*
X181634541Y-116891955D01*
X181645986Y-116852789D01*
X181658453Y-116810755D01*
X181658481Y-116810660D01*
X181669466Y-116772527D01*
X181669542Y-116772250D01*
X181679048Y-116736206D01*
X181679159Y-116735750D01*
X181687192Y-116699981D01*
X181687309Y-116699398D01*
X181693872Y-116662090D01*
X181693965Y-116661470D01*
X181699062Y-116620809D01*
X181699121Y-116620233D01*
X181702756Y-116574407D01*
X181702785Y-116573926D01*
X181704963Y-116521121D01*
X181704973Y-116520748D01*
X181705551Y-116471700D01*
X181934551Y-116471700D01*
X181935360Y-116512215D01*
G37*
%TD.AperFunction*%
%TD*%
D18*
%TO.N,+3V3*%
X178414678Y-105791000D02*
X178192880Y-106004292D01*
X178159794Y-105988133D01*
X178159765Y-105988119D01*
X178123271Y-105970411D01*
X178123037Y-105970300D01*
X178089542Y-105954884D01*
X178089060Y-105954675D01*
X178056996Y-105941495D01*
X178056273Y-105941223D01*
X178024072Y-105930223D01*
X178023183Y-105929955D01*
X177989275Y-105921080D01*
X177988346Y-105920874D01*
X177951164Y-105914068D01*
X177950316Y-105913942D01*
X177908291Y-105909149D01*
X177907594Y-105909089D01*
X177859158Y-105906254D01*
X177858626Y-105906234D01*
X177814700Y-105905508D01*
X177814700Y-105676491D01*
X177858626Y-105675765D01*
X177859158Y-105675745D01*
X177907594Y-105672910D01*
X177908291Y-105672850D01*
X177950316Y-105668057D01*
X177951164Y-105667931D01*
X177988346Y-105661125D01*
X177989275Y-105660919D01*
X178023183Y-105652044D01*
X178024072Y-105651776D01*
X178056273Y-105640776D01*
X178056996Y-105640504D01*
X178089060Y-105627324D01*
X178089542Y-105627115D01*
X178123037Y-105611699D01*
X178123271Y-105611588D01*
X178159765Y-105593880D01*
X178159794Y-105593866D01*
X178192880Y-105577708D01*
X178414678Y-105791000D01*
%TA.AperFunction,Conductor*%
D17*
G36*
X178414678Y-105791000D02*
G01*
X178192880Y-106004292D01*
X178159794Y-105988133D01*
X178159765Y-105988119D01*
X178123271Y-105970411D01*
X178123037Y-105970300D01*
X178089542Y-105954884D01*
X178089060Y-105954675D01*
X178056996Y-105941495D01*
X178056273Y-105941223D01*
X178024072Y-105930223D01*
X178023183Y-105929955D01*
X177989275Y-105921080D01*
X177988346Y-105920874D01*
X177951164Y-105914068D01*
X177950316Y-105913942D01*
X177908291Y-105909149D01*
X177907594Y-105909089D01*
X177859158Y-105906254D01*
X177858626Y-105906234D01*
X177814700Y-105905508D01*
X177814700Y-105676491D01*
X177858626Y-105675765D01*
X177859158Y-105675745D01*
X177907594Y-105672910D01*
X177908291Y-105672850D01*
X177950316Y-105668057D01*
X177951164Y-105667931D01*
X177988346Y-105661125D01*
X177989275Y-105660919D01*
X178023183Y-105652044D01*
X178024072Y-105651776D01*
X178056273Y-105640776D01*
X178056996Y-105640504D01*
X178089060Y-105627324D01*
X178089542Y-105627115D01*
X178123037Y-105611699D01*
X178123271Y-105611588D01*
X178159765Y-105593880D01*
X178159794Y-105593866D01*
X178192880Y-105577708D01*
X178414678Y-105791000D01*
G37*
%TD.AperFunction*%
%TD*%
D18*
%TO.N,+3V3*%
X174380387Y-106324692D02*
X174352978Y-106353475D01*
X174352492Y-106354016D01*
X174323644Y-106388011D01*
X174323120Y-106388671D01*
X174300050Y-106419831D01*
X174299543Y-106420569D01*
X174280923Y-106449823D01*
X174280500Y-106450537D01*
X174265000Y-106478813D01*
X174264713Y-106479370D01*
X174251005Y-106507599D01*
X174250869Y-106507888D01*
X174237632Y-106536984D01*
X174223587Y-106567765D01*
X174207446Y-106601092D01*
X174191981Y-106630213D01*
X173888127Y-106582703D01*
X173947501Y-106280809D01*
X173973211Y-106276850D01*
X174004244Y-106272125D01*
X174004519Y-106272080D01*
X174032881Y-106267124D01*
X174033507Y-106266999D01*
X174059946Y-106260996D01*
X174060907Y-106260738D01*
X174086194Y-106252871D01*
X174087373Y-106252439D01*
X174112277Y-106241893D01*
X174113490Y-106241301D01*
X174138782Y-106227257D01*
X174139858Y-106226587D01*
X174166309Y-106208229D01*
X174167166Y-106207580D01*
X174195545Y-106184091D01*
X174196181Y-106183527D01*
X174218285Y-106162590D01*
X174380387Y-106324692D01*
%TA.AperFunction,Conductor*%
D17*
G36*
X174380387Y-106324692D02*
G01*
X174352978Y-106353475D01*
X174352492Y-106354016D01*
X174323644Y-106388011D01*
X174323120Y-106388671D01*
X174300050Y-106419831D01*
X174299543Y-106420569D01*
X174280923Y-106449823D01*
X174280500Y-106450537D01*
X174265000Y-106478813D01*
X174264713Y-106479370D01*
X174251005Y-106507599D01*
X174250869Y-106507888D01*
X174237632Y-106536984D01*
X174223587Y-106567765D01*
X174207446Y-106601092D01*
X174191981Y-106630213D01*
X173888127Y-106582703D01*
X173947501Y-106280809D01*
X173973211Y-106276850D01*
X174004244Y-106272125D01*
X174004519Y-106272080D01*
X174032881Y-106267124D01*
X174033507Y-106266999D01*
X174059946Y-106260996D01*
X174060907Y-106260738D01*
X174086194Y-106252871D01*
X174087373Y-106252439D01*
X174112277Y-106241893D01*
X174113490Y-106241301D01*
X174138782Y-106227257D01*
X174139858Y-106226587D01*
X174166309Y-106208229D01*
X174167166Y-106207580D01*
X174195545Y-106184091D01*
X174196181Y-106183527D01*
X174218285Y-106162590D01*
X174380387Y-106324692D01*
G37*
%TD.AperFunction*%
%TD*%
D18*
%TO.N,+3V3*%
X176122803Y-113878386D02*
X175996837Y-114159004D01*
X175956447Y-114155616D01*
X175913489Y-114150655D01*
X175874789Y-114145150D01*
X175838247Y-114139362D01*
X175838247Y-114139363D01*
X175802201Y-114133629D01*
X175802012Y-114133600D01*
X175764610Y-114128227D01*
X175764265Y-114128182D01*
X175723631Y-114123475D01*
X175723204Y-114123433D01*
X175677449Y-114119695D01*
X175677007Y-114119667D01*
X175624246Y-114117203D01*
X175623837Y-114117190D01*
X175574700Y-114116481D01*
X175574700Y-113887356D01*
X175604225Y-113886547D01*
X175605096Y-113886493D01*
X175641342Y-113882998D01*
X175642469Y-113882838D01*
X175673970Y-113876916D01*
X175675328Y-113876583D01*
X175702974Y-113868154D01*
X175704446Y-113867603D01*
X175729122Y-113856589D01*
X175730524Y-113855856D01*
X175753120Y-113842175D01*
X175754274Y-113841386D01*
X175775677Y-113824960D01*
X175776505Y-113824267D01*
X175797603Y-113805016D01*
X175798120Y-113804516D01*
X175819800Y-113782361D01*
X175820065Y-113782083D01*
X175837272Y-113763400D01*
X176122803Y-113878386D01*
%TA.AperFunction,Conductor*%
D17*
G36*
X176122803Y-113878386D02*
G01*
X175996837Y-114159004D01*
X175956447Y-114155616D01*
X175913489Y-114150655D01*
X175874789Y-114145150D01*
X175838247Y-114139362D01*
X175838247Y-114139363D01*
X175802201Y-114133629D01*
X175802012Y-114133600D01*
X175764610Y-114128227D01*
X175764265Y-114128182D01*
X175723631Y-114123475D01*
X175723204Y-114123433D01*
X175677449Y-114119695D01*
X175677007Y-114119667D01*
X175624246Y-114117203D01*
X175623837Y-114117190D01*
X175574700Y-114116481D01*
X175574700Y-113887356D01*
X175604225Y-113886547D01*
X175605096Y-113886493D01*
X175641342Y-113882998D01*
X175642469Y-113882838D01*
X175673970Y-113876916D01*
X175675328Y-113876583D01*
X175702974Y-113868154D01*
X175704446Y-113867603D01*
X175729122Y-113856589D01*
X175730524Y-113855856D01*
X175753120Y-113842175D01*
X175754274Y-113841386D01*
X175775677Y-113824960D01*
X175776505Y-113824267D01*
X175797603Y-113805016D01*
X175798120Y-113804516D01*
X175819800Y-113782361D01*
X175820065Y-113782083D01*
X175837272Y-113763400D01*
X176122803Y-113878386D01*
G37*
%TD.AperFunction*%
%TD*%
D18*
%TO.N,+3V3*%
X178734370Y-105524569D02*
X178703823Y-105556142D01*
X178703460Y-105556533D01*
X178671215Y-105592787D01*
X178670765Y-105593322D01*
X178644437Y-105626427D01*
X178643926Y-105627116D01*
X178622448Y-105658220D01*
X178621938Y-105659022D01*
X178604237Y-105689274D01*
X178603797Y-105690093D01*
X178588805Y-105720641D01*
X178588486Y-105721345D01*
X178575134Y-105753337D01*
X178574942Y-105753825D01*
X178562158Y-105788410D01*
X178562070Y-105788654D01*
X178548786Y-105826981D01*
X178548776Y-105827012D01*
X178536808Y-105861832D01*
X178229154Y-105867846D01*
X178235168Y-105560192D01*
X178269987Y-105548223D01*
X178270018Y-105548213D01*
X178308345Y-105534929D01*
X178308589Y-105534841D01*
X178343174Y-105522057D01*
X178343662Y-105521865D01*
X178375654Y-105508513D01*
X178376358Y-105508194D01*
X178406906Y-105493202D01*
X178407725Y-105492762D01*
X178437977Y-105475061D01*
X178438779Y-105474551D01*
X178469883Y-105453073D01*
X178470572Y-105452562D01*
X178503677Y-105426234D01*
X178504212Y-105425784D01*
X178540466Y-105393539D01*
X178540856Y-105393177D01*
X178572431Y-105362630D01*
X178734370Y-105524569D01*
%TA.AperFunction,Conductor*%
D17*
G36*
X178734370Y-105524569D02*
G01*
X178703823Y-105556142D01*
X178703460Y-105556533D01*
X178671215Y-105592787D01*
X178670765Y-105593322D01*
X178644437Y-105626427D01*
X178643926Y-105627116D01*
X178622448Y-105658220D01*
X178621938Y-105659022D01*
X178604237Y-105689274D01*
X178603797Y-105690093D01*
X178588805Y-105720641D01*
X178588486Y-105721345D01*
X178575134Y-105753337D01*
X178574942Y-105753825D01*
X178562158Y-105788410D01*
X178562070Y-105788654D01*
X178548786Y-105826981D01*
X178548776Y-105827012D01*
X178536808Y-105861832D01*
X178229154Y-105867846D01*
X178235168Y-105560192D01*
X178269987Y-105548223D01*
X178270018Y-105548213D01*
X178308345Y-105534929D01*
X178308589Y-105534841D01*
X178343174Y-105522057D01*
X178343662Y-105521865D01*
X178375654Y-105508513D01*
X178376358Y-105508194D01*
X178406906Y-105493202D01*
X178407725Y-105492762D01*
X178437977Y-105475061D01*
X178438779Y-105474551D01*
X178469883Y-105453073D01*
X178470572Y-105452562D01*
X178503677Y-105426234D01*
X178504212Y-105425784D01*
X178540466Y-105393539D01*
X178540856Y-105393177D01*
X178572431Y-105362630D01*
X178734370Y-105524569D01*
G37*
%TD.AperFunction*%
%TD*%
D18*
%TO.N,+5V*%
X171324678Y-112883000D02*
X171102880Y-113096292D01*
X171069794Y-113080133D01*
X171069765Y-113080119D01*
X171033271Y-113062411D01*
X171033037Y-113062300D01*
X170999542Y-113046884D01*
X170999060Y-113046675D01*
X170966996Y-113033495D01*
X170966273Y-113033223D01*
X170934072Y-113022223D01*
X170933183Y-113021955D01*
X170899275Y-113013080D01*
X170898346Y-113012874D01*
X170861164Y-113006068D01*
X170860316Y-113005942D01*
X170818291Y-113001149D01*
X170817594Y-113001089D01*
X170769158Y-112998254D01*
X170768626Y-112998234D01*
X170724700Y-112997508D01*
X170724700Y-112768491D01*
X170768626Y-112767765D01*
X170769158Y-112767745D01*
X170817594Y-112764910D01*
X170818291Y-112764850D01*
X170860316Y-112760057D01*
X170861164Y-112759931D01*
X170898346Y-112753125D01*
X170899275Y-112752919D01*
X170933183Y-112744044D01*
X170934072Y-112743776D01*
X170966273Y-112732776D01*
X170966996Y-112732504D01*
X170999060Y-112719324D01*
X170999542Y-112719115D01*
X171033037Y-112703699D01*
X171033271Y-112703588D01*
X171069765Y-112685880D01*
X171069794Y-112685866D01*
X171102880Y-112669708D01*
X171324678Y-112883000D01*
%TA.AperFunction,Conductor*%
D17*
G36*
X171324678Y-112883000D02*
G01*
X171102880Y-113096292D01*
X171069794Y-113080133D01*
X171069765Y-113080119D01*
X171033271Y-113062411D01*
X171033037Y-113062300D01*
X170999542Y-113046884D01*
X170999060Y-113046675D01*
X170966996Y-113033495D01*
X170966273Y-113033223D01*
X170934072Y-113022223D01*
X170933183Y-113021955D01*
X170899275Y-113013080D01*
X170898346Y-113012874D01*
X170861164Y-113006068D01*
X170860316Y-113005942D01*
X170818291Y-113001149D01*
X170817594Y-113001089D01*
X170769158Y-112998254D01*
X170768626Y-112998234D01*
X170724700Y-112997508D01*
X170724700Y-112768491D01*
X170768626Y-112767765D01*
X170769158Y-112767745D01*
X170817594Y-112764910D01*
X170818291Y-112764850D01*
X170860316Y-112760057D01*
X170861164Y-112759931D01*
X170898346Y-112753125D01*
X170899275Y-112752919D01*
X170933183Y-112744044D01*
X170934072Y-112743776D01*
X170966273Y-112732776D01*
X170966996Y-112732504D01*
X170999060Y-112719324D01*
X170999542Y-112719115D01*
X171033037Y-112703699D01*
X171033271Y-112703588D01*
X171069765Y-112685880D01*
X171069794Y-112685866D01*
X171102880Y-112669708D01*
X171324678Y-112883000D01*
G37*
%TD.AperFunction*%
%TD*%
D18*
%TO.N,+5V*%
X170920981Y-110274941D02*
X170959639Y-110291350D01*
X170990205Y-110315675D01*
X171015465Y-110345948D01*
X171037734Y-110379825D01*
X171059227Y-110414345D01*
X171059707Y-110415060D01*
X171082656Y-110446883D01*
X171084098Y-110448555D01*
X171111021Y-110474764D01*
X171113923Y-110476880D01*
X171147408Y-110494664D01*
X171149711Y-110495611D01*
X171151436Y-110496001D01*
X171185035Y-110501164D01*
X171242757Y-110836435D01*
X170955204Y-110751175D01*
X170955098Y-110728816D01*
X170957625Y-110695799D01*
X170961305Y-110662007D01*
X170961321Y-110661858D01*
X170964537Y-110628703D01*
X170964588Y-110627933D01*
X170965707Y-110596766D01*
X170965661Y-110595144D01*
X170963076Y-110567099D01*
X170962483Y-110564262D01*
X170954582Y-110540473D01*
X170953569Y-110538199D01*
X170952418Y-110536507D01*
X170937593Y-110518110D01*
X170935848Y-110516334D01*
X170933458Y-110514757D01*
X170910100Y-110502887D01*
X170907780Y-110501982D01*
X170905929Y-110501608D01*
X170883546Y-110498796D01*
X170883546Y-110270352D01*
X170920981Y-110274941D01*
%TA.AperFunction,Conductor*%
D17*
G36*
X170920981Y-110274941D02*
G01*
X170959639Y-110291350D01*
X170990205Y-110315675D01*
X171015465Y-110345948D01*
X171037734Y-110379825D01*
X171059227Y-110414345D01*
X171059707Y-110415060D01*
X171082656Y-110446883D01*
X171084098Y-110448555D01*
X171111021Y-110474764D01*
X171113923Y-110476880D01*
X171147408Y-110494664D01*
X171149711Y-110495611D01*
X171151436Y-110496001D01*
X171185035Y-110501164D01*
X171242757Y-110836435D01*
X170955204Y-110751175D01*
X170955098Y-110728816D01*
X170957625Y-110695799D01*
X170961305Y-110662007D01*
X170961321Y-110661858D01*
X170964537Y-110628703D01*
X170964588Y-110627933D01*
X170965707Y-110596766D01*
X170965661Y-110595144D01*
X170963076Y-110567099D01*
X170962483Y-110564262D01*
X170954582Y-110540473D01*
X170953569Y-110538199D01*
X170952418Y-110536507D01*
X170937593Y-110518110D01*
X170935848Y-110516334D01*
X170933458Y-110514757D01*
X170910100Y-110502887D01*
X170907780Y-110501982D01*
X170905929Y-110501608D01*
X170883546Y-110498796D01*
X170883546Y-110270352D01*
X170920981Y-110274941D01*
G37*
%TD.AperFunction*%
%TD*%
D18*
%TO.N,/SWDIO*%
X173901764Y-109293061D02*
X173901894Y-109293141D01*
X173935821Y-109313792D01*
X173936180Y-109314003D01*
X173967707Y-109331805D01*
X173968335Y-109332137D01*
X173998896Y-109347203D01*
X173999786Y-109347600D01*
X174030818Y-109360040D01*
X174031879Y-109360412D01*
X174064816Y-109370340D01*
X174065901Y-109370615D01*
X174102180Y-109378141D01*
X174103153Y-109378304D01*
X174144208Y-109383542D01*
X174144995Y-109383617D01*
X174192263Y-109386677D01*
X174192853Y-109386702D01*
X174235300Y-109387472D01*
X174235300Y-109616463D01*
X174187482Y-109617079D01*
X174187066Y-109617091D01*
X174135292Y-109619456D01*
X174134748Y-109619493D01*
X174089810Y-109623486D01*
X174089147Y-109623562D01*
X174049304Y-109629225D01*
X174048575Y-109629351D01*
X174012082Y-109636726D01*
X174011382Y-109636888D01*
X173976498Y-109646018D01*
X173975931Y-109646180D01*
X173940912Y-109657106D01*
X173940543Y-109657228D01*
X173903647Y-109669993D01*
X173903482Y-109670051D01*
X173862969Y-109684696D01*
X173825444Y-109698249D01*
X173627957Y-109462275D01*
X173871499Y-109274137D01*
X173901764Y-109293061D01*
%TA.AperFunction,Conductor*%
D17*
G36*
X173901764Y-109293061D02*
G01*
X173901894Y-109293141D01*
X173935821Y-109313792D01*
X173936180Y-109314003D01*
X173967707Y-109331805D01*
X173968335Y-109332137D01*
X173998896Y-109347203D01*
X173999786Y-109347600D01*
X174030818Y-109360040D01*
X174031879Y-109360412D01*
X174064816Y-109370340D01*
X174065901Y-109370615D01*
X174102180Y-109378141D01*
X174103153Y-109378304D01*
X174144208Y-109383542D01*
X174144995Y-109383617D01*
X174192263Y-109386677D01*
X174192853Y-109386702D01*
X174235300Y-109387472D01*
X174235300Y-109616463D01*
X174187482Y-109617079D01*
X174187066Y-109617091D01*
X174135292Y-109619456D01*
X174134748Y-109619493D01*
X174089810Y-109623486D01*
X174089147Y-109623562D01*
X174049304Y-109629225D01*
X174048575Y-109629351D01*
X174012082Y-109636726D01*
X174011382Y-109636888D01*
X173976498Y-109646018D01*
X173975931Y-109646180D01*
X173940912Y-109657106D01*
X173940543Y-109657228D01*
X173903647Y-109669993D01*
X173903482Y-109670051D01*
X173862969Y-109684696D01*
X173825444Y-109698249D01*
X173627957Y-109462275D01*
X173871499Y-109274137D01*
X173901764Y-109293061D01*
G37*
%TD.AperFunction*%
%TD*%
D18*
%TO.N,/SWCLK*%
X181299832Y-106021816D02*
X181265012Y-106033784D01*
X181264981Y-106033794D01*
X181226654Y-106047078D01*
X181226410Y-106047166D01*
X181191825Y-106059950D01*
X181191337Y-106060142D01*
X181159345Y-106073494D01*
X181158641Y-106073813D01*
X181128093Y-106088805D01*
X181127274Y-106089245D01*
X181097022Y-106106946D01*
X181096220Y-106107456D01*
X181065116Y-106128934D01*
X181064427Y-106129445D01*
X181031322Y-106155773D01*
X181030787Y-106156223D01*
X180994533Y-106188468D01*
X180994142Y-106188831D01*
X180962569Y-106219378D01*
X180800630Y-106057439D01*
X180831177Y-106025864D01*
X180831539Y-106025474D01*
X180863784Y-105989220D01*
X180864234Y-105988685D01*
X180890562Y-105955580D01*
X180891073Y-105954891D01*
X180912551Y-105923787D01*
X180913061Y-105922985D01*
X180930762Y-105892733D01*
X180931202Y-105891914D01*
X180946194Y-105861366D01*
X180946513Y-105860662D01*
X180959865Y-105828670D01*
X180960057Y-105828182D01*
X180972841Y-105793597D01*
X180972929Y-105793353D01*
X180986213Y-105755026D01*
X180986223Y-105754995D01*
X180998192Y-105720176D01*
X181305846Y-105714162D01*
X181299832Y-106021816D01*
%TA.AperFunction,Conductor*%
D17*
G36*
X181299832Y-106021816D02*
G01*
X181265012Y-106033784D01*
X181264981Y-106033794D01*
X181226654Y-106047078D01*
X181226410Y-106047166D01*
X181191825Y-106059950D01*
X181191337Y-106060142D01*
X181159345Y-106073494D01*
X181158641Y-106073813D01*
X181128093Y-106088805D01*
X181127274Y-106089245D01*
X181097022Y-106106946D01*
X181096220Y-106107456D01*
X181065116Y-106128934D01*
X181064427Y-106129445D01*
X181031322Y-106155773D01*
X181030787Y-106156223D01*
X180994533Y-106188468D01*
X180994142Y-106188831D01*
X180962569Y-106219378D01*
X180800630Y-106057439D01*
X180831177Y-106025864D01*
X180831539Y-106025474D01*
X180863784Y-105989220D01*
X180864234Y-105988685D01*
X180890562Y-105955580D01*
X180891073Y-105954891D01*
X180912551Y-105923787D01*
X180913061Y-105922985D01*
X180930762Y-105892733D01*
X180931202Y-105891914D01*
X180946194Y-105861366D01*
X180946513Y-105860662D01*
X180959865Y-105828670D01*
X180960057Y-105828182D01*
X180972841Y-105793597D01*
X180972929Y-105793353D01*
X180986213Y-105755026D01*
X180986223Y-105754995D01*
X180998192Y-105720176D01*
X181305846Y-105714162D01*
X181299832Y-106021816D01*
G37*
%TD.AperFunction*%
%TD*%
D18*
%TO.N,/SWCLK*%
X180935946Y-107974314D02*
X180936019Y-107975305D01*
X180940603Y-108015914D01*
X180940774Y-108016999D01*
X180947805Y-108051867D01*
X180948066Y-108052927D01*
X180957045Y-108083583D01*
X180957333Y-108084449D01*
X180967760Y-108112424D01*
X180967968Y-108112946D01*
X180979344Y-108139771D01*
X180979389Y-108139876D01*
X180991154Y-108166941D01*
X181002739Y-108195581D01*
X181013723Y-108227427D01*
X181021391Y-108255688D01*
X180764932Y-108425186D01*
X180605466Y-108162100D01*
X180618231Y-108146405D01*
X180635000Y-108126156D01*
X180635134Y-108125992D01*
X180650316Y-108107023D01*
X180650684Y-108106541D01*
X180664122Y-108088003D01*
X180664684Y-108087158D01*
X180676290Y-108068115D01*
X180676925Y-108066937D01*
X180686615Y-108046456D01*
X180687173Y-108045073D01*
X180694859Y-108022216D01*
X180695240Y-108020824D01*
X180700837Y-107994658D01*
X180701038Y-107993422D01*
X180704460Y-107963011D01*
X180704533Y-107962005D01*
X180705293Y-107938700D01*
X180934727Y-107938700D01*
X180935946Y-107974314D01*
%TA.AperFunction,Conductor*%
D17*
G36*
X180935946Y-107974314D02*
G01*
X180936019Y-107975305D01*
X180940603Y-108015914D01*
X180940774Y-108016999D01*
X180947805Y-108051867D01*
X180948066Y-108052927D01*
X180957045Y-108083583D01*
X180957333Y-108084449D01*
X180967760Y-108112424D01*
X180967968Y-108112946D01*
X180979344Y-108139771D01*
X180979389Y-108139876D01*
X180991154Y-108166941D01*
X181002739Y-108195581D01*
X181013723Y-108227427D01*
X181021391Y-108255688D01*
X180764932Y-108425186D01*
X180605466Y-108162100D01*
X180618231Y-108146405D01*
X180635000Y-108126156D01*
X180635134Y-108125992D01*
X180650316Y-108107023D01*
X180650684Y-108106541D01*
X180664122Y-108088003D01*
X180664684Y-108087158D01*
X180676290Y-108068115D01*
X180676925Y-108066937D01*
X180686615Y-108046456D01*
X180687173Y-108045073D01*
X180694859Y-108022216D01*
X180695240Y-108020824D01*
X180700837Y-107994658D01*
X180701038Y-107993422D01*
X180704460Y-107963011D01*
X180704533Y-107962005D01*
X180705293Y-107938700D01*
X180934727Y-107938700D01*
X180935946Y-107974314D01*
G37*
%TD.AperFunction*%
%TD*%
D18*
%TO.N,/SWCLK*%
X176256618Y-108950867D02*
X176066691Y-109192959D01*
X176028319Y-109180430D01*
X175987068Y-109166862D01*
X175986938Y-109166820D01*
X175949425Y-109154927D01*
X175949101Y-109154829D01*
X175913574Y-109144598D01*
X175913062Y-109144462D01*
X175877742Y-109135869D01*
X175877100Y-109135730D01*
X175840209Y-109128752D01*
X175839534Y-109128643D01*
X175799293Y-109123257D01*
X175798673Y-109123190D01*
X175753303Y-109119371D01*
X175752790Y-109119338D01*
X175700514Y-109117064D01*
X175700119Y-109117053D01*
X175651700Y-109116456D01*
X175651700Y-108887461D01*
X175693173Y-108886670D01*
X175693793Y-108886643D01*
X175740240Y-108883484D01*
X175741064Y-108883401D01*
X175781411Y-108877996D01*
X175782429Y-108877817D01*
X175818059Y-108870052D01*
X175819194Y-108869749D01*
X175851489Y-108859507D01*
X175852596Y-108859098D01*
X175882941Y-108846267D01*
X175883870Y-108845829D01*
X175913647Y-108830292D01*
X175914306Y-108829923D01*
X175944899Y-108811567D01*
X175945281Y-108811329D01*
X175978072Y-108790038D01*
X175978219Y-108789941D01*
X176007248Y-108770516D01*
X176256618Y-108950867D01*
%TA.AperFunction,Conductor*%
D17*
G36*
X176256618Y-108950867D02*
G01*
X176066691Y-109192959D01*
X176028319Y-109180430D01*
X175987068Y-109166862D01*
X175986938Y-109166820D01*
X175949425Y-109154927D01*
X175949101Y-109154829D01*
X175913574Y-109144598D01*
X175913062Y-109144462D01*
X175877742Y-109135869D01*
X175877100Y-109135730D01*
X175840209Y-109128752D01*
X175839534Y-109128643D01*
X175799293Y-109123257D01*
X175798673Y-109123190D01*
X175753303Y-109119371D01*
X175752790Y-109119338D01*
X175700514Y-109117064D01*
X175700119Y-109117053D01*
X175651700Y-109116456D01*
X175651700Y-108887461D01*
X175693173Y-108886670D01*
X175693793Y-108886643D01*
X175740240Y-108883484D01*
X175741064Y-108883401D01*
X175781411Y-108877996D01*
X175782429Y-108877817D01*
X175818059Y-108870052D01*
X175819194Y-108869749D01*
X175851489Y-108859507D01*
X175852596Y-108859098D01*
X175882941Y-108846267D01*
X175883870Y-108845829D01*
X175913647Y-108830292D01*
X175914306Y-108829923D01*
X175944899Y-108811567D01*
X175945281Y-108811329D01*
X175978072Y-108790038D01*
X175978219Y-108789941D01*
X176007248Y-108770516D01*
X176256618Y-108950867D01*
G37*
%TD.AperFunction*%
%TD*%
D18*
%TO.N,/TXD*%
X185653103Y-107698477D02*
X185434132Y-107909050D01*
X185413193Y-107897859D01*
X185385354Y-107881051D01*
X185358103Y-107864164D01*
X185357754Y-107863955D01*
X185331056Y-107848570D01*
X185330125Y-107848084D01*
X185303758Y-107835669D01*
X185302046Y-107835009D01*
X185275733Y-107826999D01*
X185273070Y-107826491D01*
X185246533Y-107824321D01*
X185243143Y-107824499D01*
X185216103Y-107829602D01*
X185212811Y-107830707D01*
X185184990Y-107844518D01*
X185182529Y-107846118D01*
X185162556Y-107862685D01*
X185000746Y-107700875D01*
X185033984Y-107671876D01*
X185074603Y-107645981D01*
X185113512Y-107628730D01*
X185151338Y-107617414D01*
X185188629Y-107609443D01*
X185225521Y-107602268D01*
X185226139Y-107602132D01*
X185262505Y-107593156D01*
X185263904Y-107592724D01*
X185299897Y-107579287D01*
X185301773Y-107578406D01*
X185337662Y-107557823D01*
X185339533Y-107556513D01*
X185368722Y-107531890D01*
X185653103Y-107698477D01*
%TA.AperFunction,Conductor*%
D17*
G36*
X185653103Y-107698477D02*
G01*
X185434132Y-107909050D01*
X185413193Y-107897859D01*
X185385354Y-107881051D01*
X185358103Y-107864164D01*
X185357754Y-107863955D01*
X185331056Y-107848570D01*
X185330125Y-107848084D01*
X185303758Y-107835669D01*
X185302046Y-107835009D01*
X185275733Y-107826999D01*
X185273070Y-107826491D01*
X185246533Y-107824321D01*
X185243143Y-107824499D01*
X185216103Y-107829602D01*
X185212811Y-107830707D01*
X185184990Y-107844518D01*
X185182529Y-107846118D01*
X185162556Y-107862685D01*
X185000746Y-107700875D01*
X185033984Y-107671876D01*
X185074603Y-107645981D01*
X185113512Y-107628730D01*
X185151338Y-107617414D01*
X185188629Y-107609443D01*
X185225521Y-107602268D01*
X185226139Y-107602132D01*
X185262505Y-107593156D01*
X185263904Y-107592724D01*
X185299897Y-107579287D01*
X185301773Y-107578406D01*
X185337662Y-107557823D01*
X185339533Y-107556513D01*
X185368722Y-107531890D01*
X185653103Y-107698477D01*
G37*
%TD.AperFunction*%
%TD*%
D18*
%TO.N,/RXD*%
X181990469Y-105860191D02*
X181977150Y-105842716D01*
X181947788Y-105789482D01*
X181933817Y-105742608D01*
X181937032Y-105707898D01*
X181957512Y-105685987D01*
X181990469Y-105679461D01*
X181990469Y-105860191D01*
%TA.AperFunction,Conductor*%
D17*
G36*
X181990469Y-105860191D02*
G01*
X181977150Y-105842716D01*
X181947788Y-105789482D01*
X181933817Y-105742608D01*
X181937032Y-105707898D01*
X181957512Y-105685987D01*
X181990469Y-105679461D01*
X181990469Y-105860191D01*
G37*
%TD.AperFunction*%
%TD*%
D18*
%TO.N,Net-(J2-PadA6)*%
X171624996Y-112025951D02*
X171625900Y-112026713D01*
X171650141Y-112045273D01*
X171651361Y-112046099D01*
X171674874Y-112060111D01*
X171676449Y-112060907D01*
X171699492Y-112070604D01*
X171701387Y-112071231D01*
X171724220Y-112076842D01*
X171726277Y-112077172D01*
X171749156Y-112078931D01*
X171751147Y-112078927D01*
X171774332Y-112077064D01*
X171776058Y-112076805D01*
X171799806Y-112071551D01*
X171801177Y-112071166D01*
X171825747Y-112062754D01*
X171826768Y-112062355D01*
X171844624Y-112054462D01*
X172064103Y-112265523D01*
X171780181Y-112431840D01*
X171750999Y-112404353D01*
X171750401Y-112403825D01*
X171716945Y-112376062D01*
X171716359Y-112375604D01*
X171684655Y-112352287D01*
X171684199Y-112351966D01*
X171653347Y-112331300D01*
X171653135Y-112331161D01*
X171622238Y-112311348D01*
X171590650Y-112290758D01*
X171557368Y-112267541D01*
X171521454Y-112239899D01*
X171481902Y-112205966D01*
X171446969Y-112172676D01*
X171608737Y-112010908D01*
X171624996Y-112025951D01*
%TA.AperFunction,Conductor*%
D17*
G36*
X171624996Y-112025951D02*
G01*
X171625900Y-112026713D01*
X171650141Y-112045273D01*
X171651361Y-112046099D01*
X171674874Y-112060111D01*
X171676449Y-112060907D01*
X171699492Y-112070604D01*
X171701387Y-112071231D01*
X171724220Y-112076842D01*
X171726277Y-112077172D01*
X171749156Y-112078931D01*
X171751147Y-112078927D01*
X171774332Y-112077064D01*
X171776058Y-112076805D01*
X171799806Y-112071551D01*
X171801177Y-112071166D01*
X171825747Y-112062754D01*
X171826768Y-112062355D01*
X171844624Y-112054462D01*
X172064103Y-112265523D01*
X171780181Y-112431840D01*
X171750999Y-112404353D01*
X171750401Y-112403825D01*
X171716945Y-112376062D01*
X171716359Y-112375604D01*
X171684655Y-112352287D01*
X171684199Y-112351966D01*
X171653347Y-112331300D01*
X171653135Y-112331161D01*
X171622238Y-112311348D01*
X171590650Y-112290758D01*
X171557368Y-112267541D01*
X171521454Y-112239899D01*
X171481902Y-112205966D01*
X171446969Y-112172676D01*
X171608737Y-112010908D01*
X171624996Y-112025951D01*
G37*
%TD.AperFunction*%
%TD*%
D18*
%TO.N,/SWDIO_IN*%
X173911705Y-108286999D02*
X173911870Y-108287116D01*
X173943527Y-108309002D01*
X173943932Y-108309270D01*
X173973596Y-108328143D01*
X173974285Y-108328552D01*
X174003286Y-108344528D01*
X174004252Y-108345008D01*
X174033920Y-108358206D01*
X174035073Y-108358653D01*
X174066738Y-108369188D01*
X174067920Y-108369518D01*
X174102914Y-108377509D01*
X174103977Y-108377705D01*
X174143630Y-108383267D01*
X174144491Y-108383358D01*
X174190134Y-108386610D01*
X174190783Y-108386639D01*
X174231300Y-108387448D01*
X174231300Y-108616449D01*
X174182252Y-108617026D01*
X174181878Y-108617036D01*
X174129073Y-108619214D01*
X174128592Y-108619243D01*
X174082766Y-108622878D01*
X174082190Y-108622937D01*
X174041529Y-108628034D01*
X174040909Y-108628127D01*
X174003601Y-108634690D01*
X174003018Y-108634807D01*
X173967249Y-108642840D01*
X173966793Y-108642951D01*
X173930749Y-108652457D01*
X173930472Y-108652533D01*
X173892339Y-108663518D01*
X173892244Y-108663546D01*
X173850210Y-108676013D01*
X173811045Y-108687459D01*
X173628917Y-108439450D01*
X173883905Y-108267119D01*
X173911705Y-108286999D01*
%TA.AperFunction,Conductor*%
D17*
G36*
X173911705Y-108286999D02*
G01*
X173911870Y-108287116D01*
X173943527Y-108309002D01*
X173943932Y-108309270D01*
X173973596Y-108328143D01*
X173974285Y-108328552D01*
X174003286Y-108344528D01*
X174004252Y-108345008D01*
X174033920Y-108358206D01*
X174035073Y-108358653D01*
X174066738Y-108369188D01*
X174067920Y-108369518D01*
X174102914Y-108377509D01*
X174103977Y-108377705D01*
X174143630Y-108383267D01*
X174144491Y-108383358D01*
X174190134Y-108386610D01*
X174190783Y-108386639D01*
X174231300Y-108387448D01*
X174231300Y-108616449D01*
X174182252Y-108617026D01*
X174181878Y-108617036D01*
X174129073Y-108619214D01*
X174128592Y-108619243D01*
X174082766Y-108622878D01*
X174082190Y-108622937D01*
X174041529Y-108628034D01*
X174040909Y-108628127D01*
X174003601Y-108634690D01*
X174003018Y-108634807D01*
X173967249Y-108642840D01*
X173966793Y-108642951D01*
X173930749Y-108652457D01*
X173930472Y-108652533D01*
X173892339Y-108663518D01*
X173892244Y-108663546D01*
X173850210Y-108676013D01*
X173811045Y-108687459D01*
X173628917Y-108439450D01*
X173883905Y-108267119D01*
X173911705Y-108286999D01*
G37*
%TD.AperFunction*%
%TD*%
D18*
%TO.N,Net-(R6-Pad1)*%
X179935226Y-116508132D02*
X179935245Y-116508662D01*
X179938088Y-116557613D01*
X179938149Y-116558322D01*
X179943017Y-116600834D01*
X179943149Y-116601712D01*
X179950148Y-116639324D01*
X179950372Y-116640307D01*
X179959607Y-116674559D01*
X179959908Y-116675523D01*
X179971486Y-116707952D01*
X179971807Y-116708761D01*
X179985832Y-116740906D01*
X179986096Y-116741474D01*
X180002675Y-116774873D01*
X180002837Y-116775187D01*
X180022076Y-116811378D01*
X180022129Y-116811477D01*
X180039909Y-116844221D01*
X179836972Y-117075564D01*
X179613749Y-116863751D01*
X179629219Y-116827912D01*
X179629238Y-116827868D01*
X179645897Y-116788872D01*
X179645994Y-116788638D01*
X179660403Y-116752956D01*
X179660578Y-116752498D01*
X179672815Y-116718461D01*
X179673036Y-116717788D01*
X179683178Y-116683727D01*
X179683390Y-116682917D01*
X179691514Y-116647161D01*
X179691674Y-116646330D01*
X179697858Y-116607212D01*
X179697954Y-116606466D01*
X179702275Y-116562314D01*
X179702319Y-116561710D01*
X179704855Y-116510857D01*
X179704870Y-116510402D01*
X179705524Y-116463700D01*
X179934505Y-116463700D01*
X179935226Y-116508132D01*
%TA.AperFunction,Conductor*%
D17*
G36*
X179935226Y-116508132D02*
G01*
X179935245Y-116508662D01*
X179938088Y-116557613D01*
X179938149Y-116558322D01*
X179943017Y-116600834D01*
X179943149Y-116601712D01*
X179950148Y-116639324D01*
X179950372Y-116640307D01*
X179959607Y-116674559D01*
X179959908Y-116675523D01*
X179971486Y-116707952D01*
X179971807Y-116708761D01*
X179985832Y-116740906D01*
X179986096Y-116741474D01*
X180002675Y-116774873D01*
X180002837Y-116775187D01*
X180022076Y-116811378D01*
X180022129Y-116811477D01*
X180039909Y-116844221D01*
X179836972Y-117075564D01*
X179613749Y-116863751D01*
X179629219Y-116827912D01*
X179629238Y-116827868D01*
X179645897Y-116788872D01*
X179645994Y-116788638D01*
X179660403Y-116752956D01*
X179660578Y-116752498D01*
X179672815Y-116718461D01*
X179673036Y-116717788D01*
X179683178Y-116683727D01*
X179683390Y-116682917D01*
X179691514Y-116647161D01*
X179691674Y-116646330D01*
X179697858Y-116607212D01*
X179697954Y-116606466D01*
X179702275Y-116562314D01*
X179702319Y-116561710D01*
X179704855Y-116510857D01*
X179704870Y-116510402D01*
X179705524Y-116463700D01*
X179934505Y-116463700D01*
X179935226Y-116508132D01*
G37*
%TD.AperFunction*%
%TD*%
D18*
%TO.N,Net-(R7-Pad1)*%
X178435129Y-107801392D02*
X178435144Y-107801847D01*
X178437680Y-107852700D01*
X178437724Y-107853304D01*
X178442045Y-107897456D01*
X178442141Y-107898202D01*
X178448325Y-107937320D01*
X178448485Y-107938151D01*
X178456609Y-107973907D01*
X178456821Y-107974717D01*
X178466963Y-108008778D01*
X178467184Y-108009451D01*
X178479421Y-108043488D01*
X178479596Y-108043946D01*
X178494005Y-108079628D01*
X178494102Y-108079862D01*
X178510761Y-108118858D01*
X178510780Y-108118902D01*
X178526251Y-108154741D01*
X178303028Y-108366554D01*
X178100091Y-108135211D01*
X178117870Y-108102467D01*
X178117923Y-108102368D01*
X178137162Y-108066177D01*
X178137324Y-108065863D01*
X178153903Y-108032464D01*
X178154167Y-108031896D01*
X178168192Y-107999751D01*
X178168513Y-107998942D01*
X178180091Y-107966513D01*
X178180392Y-107965549D01*
X178189627Y-107931297D01*
X178189851Y-107930314D01*
X178196850Y-107892702D01*
X178196982Y-107891824D01*
X178201850Y-107849312D01*
X178201911Y-107848603D01*
X178204754Y-107799652D01*
X178204773Y-107799122D01*
X178205495Y-107754690D01*
X178434476Y-107754690D01*
X178435129Y-107801392D01*
%TA.AperFunction,Conductor*%
D17*
G36*
X178435129Y-107801392D02*
G01*
X178435144Y-107801847D01*
X178437680Y-107852700D01*
X178437724Y-107853304D01*
X178442045Y-107897456D01*
X178442141Y-107898202D01*
X178448325Y-107937320D01*
X178448485Y-107938151D01*
X178456609Y-107973907D01*
X178456821Y-107974717D01*
X178466963Y-108008778D01*
X178467184Y-108009451D01*
X178479421Y-108043488D01*
X178479596Y-108043946D01*
X178494005Y-108079628D01*
X178494102Y-108079862D01*
X178510761Y-108118858D01*
X178510780Y-108118902D01*
X178526251Y-108154741D01*
X178303028Y-108366554D01*
X178100091Y-108135211D01*
X178117870Y-108102467D01*
X178117923Y-108102368D01*
X178137162Y-108066177D01*
X178137324Y-108065863D01*
X178153903Y-108032464D01*
X178154167Y-108031896D01*
X178168192Y-107999751D01*
X178168513Y-107998942D01*
X178180091Y-107966513D01*
X178180392Y-107965549D01*
X178189627Y-107931297D01*
X178189851Y-107930314D01*
X178196850Y-107892702D01*
X178196982Y-107891824D01*
X178201850Y-107849312D01*
X178201911Y-107848603D01*
X178204754Y-107799652D01*
X178204773Y-107799122D01*
X178205495Y-107754690D01*
X178434476Y-107754690D01*
X178435129Y-107801392D01*
G37*
%TD.AperFunction*%
%TD*%
D18*
%TO.N,Net-(R8-Pad1)*%
X177435079Y-116515517D02*
X177435091Y-116515933D01*
X177437456Y-116567707D01*
X177437493Y-116568251D01*
X177441486Y-116613189D01*
X177441562Y-116613852D01*
X177447225Y-116653695D01*
X177447351Y-116654424D01*
X177454726Y-116690917D01*
X177454888Y-116691617D01*
X177464018Y-116726501D01*
X177464180Y-116727068D01*
X177475106Y-116762087D01*
X177475228Y-116762456D01*
X177487993Y-116799352D01*
X177488051Y-116799517D01*
X177502696Y-116840030D01*
X177516249Y-116877556D01*
X177280275Y-117075043D01*
X177092137Y-116831501D01*
X177111061Y-116801235D01*
X177111141Y-116801105D01*
X177131792Y-116767178D01*
X177132003Y-116766819D01*
X177149805Y-116735292D01*
X177150137Y-116734664D01*
X177165203Y-116704103D01*
X177165600Y-116703213D01*
X177178040Y-116672181D01*
X177178412Y-116671120D01*
X177188340Y-116638183D01*
X177188615Y-116637098D01*
X177196141Y-116600819D01*
X177196304Y-116599846D01*
X177201542Y-116558791D01*
X177201617Y-116558004D01*
X177204677Y-116510736D01*
X177204702Y-116510146D01*
X177205472Y-116467700D01*
X177434463Y-116467700D01*
X177435079Y-116515517D01*
%TA.AperFunction,Conductor*%
D17*
G36*
X177435079Y-116515517D02*
G01*
X177435091Y-116515933D01*
X177437456Y-116567707D01*
X177437493Y-116568251D01*
X177441486Y-116613189D01*
X177441562Y-116613852D01*
X177447225Y-116653695D01*
X177447351Y-116654424D01*
X177454726Y-116690917D01*
X177454888Y-116691617D01*
X177464018Y-116726501D01*
X177464180Y-116727068D01*
X177475106Y-116762087D01*
X177475228Y-116762456D01*
X177487993Y-116799352D01*
X177488051Y-116799517D01*
X177502696Y-116840030D01*
X177516249Y-116877556D01*
X177280275Y-117075043D01*
X177092137Y-116831501D01*
X177111061Y-116801235D01*
X177111141Y-116801105D01*
X177131792Y-116767178D01*
X177132003Y-116766819D01*
X177149805Y-116735292D01*
X177150137Y-116734664D01*
X177165203Y-116704103D01*
X177165600Y-116703213D01*
X177178040Y-116672181D01*
X177178412Y-116671120D01*
X177188340Y-116638183D01*
X177188615Y-116637098D01*
X177196141Y-116600819D01*
X177196304Y-116599846D01*
X177201542Y-116558791D01*
X177201617Y-116558004D01*
X177204677Y-116510736D01*
X177204702Y-116510146D01*
X177205472Y-116467700D01*
X177434463Y-116467700D01*
X177435079Y-116515517D01*
G37*
%TD.AperFunction*%
%TD*%
D18*
%TO.N,Net-(R13-Pad1)*%
X176577370Y-116700569D02*
X176546823Y-116732142D01*
X176546460Y-116732533D01*
X176514215Y-116768787D01*
X176513765Y-116769322D01*
X176487437Y-116802427D01*
X176486926Y-116803116D01*
X176465448Y-116834220D01*
X176464938Y-116835022D01*
X176447237Y-116865274D01*
X176446797Y-116866093D01*
X176431805Y-116896641D01*
X176431486Y-116897345D01*
X176418134Y-116929337D01*
X176417942Y-116929825D01*
X176405158Y-116964410D01*
X176405070Y-116964654D01*
X176391786Y-117002981D01*
X176391776Y-117003012D01*
X176379808Y-117037832D01*
X176072154Y-117043846D01*
X176078168Y-116736192D01*
X176112987Y-116724223D01*
X176113018Y-116724213D01*
X176151345Y-116710929D01*
X176151589Y-116710841D01*
X176186174Y-116698057D01*
X176186662Y-116697865D01*
X176218654Y-116684513D01*
X176219358Y-116684194D01*
X176249906Y-116669202D01*
X176250725Y-116668762D01*
X176280977Y-116651061D01*
X176281779Y-116650551D01*
X176312883Y-116629073D01*
X176313572Y-116628562D01*
X176346677Y-116602234D01*
X176347212Y-116601784D01*
X176383466Y-116569539D01*
X176383856Y-116569177D01*
X176415431Y-116538630D01*
X176577370Y-116700569D01*
%TA.AperFunction,Conductor*%
D17*
G36*
X176577370Y-116700569D02*
G01*
X176546823Y-116732142D01*
X176546460Y-116732533D01*
X176514215Y-116768787D01*
X176513765Y-116769322D01*
X176487437Y-116802427D01*
X176486926Y-116803116D01*
X176465448Y-116834220D01*
X176464938Y-116835022D01*
X176447237Y-116865274D01*
X176446797Y-116866093D01*
X176431805Y-116896641D01*
X176431486Y-116897345D01*
X176418134Y-116929337D01*
X176417942Y-116929825D01*
X176405158Y-116964410D01*
X176405070Y-116964654D01*
X176391786Y-117002981D01*
X176391776Y-117003012D01*
X176379808Y-117037832D01*
X176072154Y-117043846D01*
X176078168Y-116736192D01*
X176112987Y-116724223D01*
X176113018Y-116724213D01*
X176151345Y-116710929D01*
X176151589Y-116710841D01*
X176186174Y-116698057D01*
X176186662Y-116697865D01*
X176218654Y-116684513D01*
X176219358Y-116684194D01*
X176249906Y-116669202D01*
X176250725Y-116668762D01*
X176280977Y-116651061D01*
X176281779Y-116650551D01*
X176312883Y-116629073D01*
X176313572Y-116628562D01*
X176346677Y-116602234D01*
X176347212Y-116601784D01*
X176383466Y-116569539D01*
X176383856Y-116569177D01*
X176415431Y-116538630D01*
X176577370Y-116700569D01*
G37*
%TD.AperFunction*%
%TD*%
D18*
%TO.N,Net-(R14-Pad1)*%
X185018008Y-108969391D02*
X184797255Y-109178306D01*
X184777836Y-109168355D01*
X184751422Y-109154539D01*
X184751140Y-109154396D01*
X184725322Y-109141702D01*
X184724593Y-109141372D01*
X184699248Y-109130836D01*
X184697960Y-109130380D01*
X184672872Y-109122993D01*
X184670920Y-109122582D01*
X184645871Y-109119330D01*
X184643296Y-109119259D01*
X184618069Y-109121131D01*
X184615231Y-109121671D01*
X184589609Y-109129655D01*
X184587056Y-109130770D01*
X184560823Y-109145855D01*
X184558893Y-109147219D01*
X184540761Y-109162748D01*
X184378936Y-109000923D01*
X184412442Y-108970782D01*
X184452512Y-108942358D01*
X184490321Y-108921683D01*
X184526551Y-108906365D01*
X184561851Y-108894080D01*
X184596736Y-108882532D01*
X184597226Y-108882358D01*
X184631693Y-108869360D01*
X184632772Y-108868895D01*
X184667235Y-108852114D01*
X184668643Y-108851313D01*
X184703553Y-108828401D01*
X184704956Y-108827334D01*
X184733861Y-108801998D01*
X185018008Y-108969391D01*
%TA.AperFunction,Conductor*%
D17*
G36*
X185018008Y-108969391D02*
G01*
X184797255Y-109178306D01*
X184777836Y-109168355D01*
X184751422Y-109154539D01*
X184751140Y-109154396D01*
X184725322Y-109141702D01*
X184724593Y-109141372D01*
X184699248Y-109130836D01*
X184697960Y-109130380D01*
X184672872Y-109122993D01*
X184670920Y-109122582D01*
X184645871Y-109119330D01*
X184643296Y-109119259D01*
X184618069Y-109121131D01*
X184615231Y-109121671D01*
X184589609Y-109129655D01*
X184587056Y-109130770D01*
X184560823Y-109145855D01*
X184558893Y-109147219D01*
X184540761Y-109162748D01*
X184378936Y-109000923D01*
X184412442Y-108970782D01*
X184452512Y-108942358D01*
X184490321Y-108921683D01*
X184526551Y-108906365D01*
X184561851Y-108894080D01*
X184596736Y-108882532D01*
X184597226Y-108882358D01*
X184631693Y-108869360D01*
X184632772Y-108868895D01*
X184667235Y-108852114D01*
X184668643Y-108851313D01*
X184703553Y-108828401D01*
X184704956Y-108827334D01*
X184733861Y-108801998D01*
X185018008Y-108969391D01*
G37*
%TD.AperFunction*%
%TD*%
D18*
%TO.N,/ST_SWCLK*%
X177030451Y-113744704D02*
X177066344Y-113756214D01*
X177102273Y-113768735D01*
X177103115Y-113768996D01*
X177138215Y-113778557D01*
X177140509Y-113778960D01*
X177174487Y-113781762D01*
X177176977Y-113781722D01*
X177178450Y-113781465D01*
X177211125Y-113773748D01*
X177213480Y-113772941D01*
X177215525Y-113771767D01*
X177238721Y-113755410D01*
X177501689Y-113976158D01*
X177214705Y-114047092D01*
X177207237Y-114035173D01*
X177194881Y-114013560D01*
X177194882Y-114013560D01*
X177182174Y-113991165D01*
X177181973Y-113990824D01*
X177168893Y-113969359D01*
X177168385Y-113968591D01*
X177154759Y-113949498D01*
X177153679Y-113948180D01*
X177139333Y-113932906D01*
X177137051Y-113930988D01*
X177121814Y-113920975D01*
X177119609Y-113919818D01*
X177117364Y-113919141D01*
X177101061Y-113915834D01*
X177098584Y-113915581D01*
X177095156Y-113916039D01*
X177077614Y-113920882D01*
X177075291Y-113921777D01*
X177073298Y-113923022D01*
X177063173Y-113930735D01*
X176901717Y-113769279D01*
X176926510Y-113750480D01*
X176960734Y-113738739D01*
X176995171Y-113737831D01*
X177030451Y-113744704D01*
%TA.AperFunction,Conductor*%
D17*
G36*
X177030451Y-113744704D02*
G01*
X177066344Y-113756214D01*
X177102273Y-113768735D01*
X177103115Y-113768996D01*
X177138215Y-113778557D01*
X177140509Y-113778960D01*
X177174487Y-113781762D01*
X177176977Y-113781722D01*
X177178450Y-113781465D01*
X177211125Y-113773748D01*
X177213480Y-113772941D01*
X177215525Y-113771767D01*
X177238721Y-113755410D01*
X177501689Y-113976158D01*
X177214705Y-114047092D01*
X177207237Y-114035173D01*
X177194881Y-114013560D01*
X177194882Y-114013560D01*
X177182174Y-113991165D01*
X177181973Y-113990824D01*
X177168893Y-113969359D01*
X177168385Y-113968591D01*
X177154759Y-113949498D01*
X177153679Y-113948180D01*
X177139333Y-113932906D01*
X177137051Y-113930988D01*
X177121814Y-113920975D01*
X177119609Y-113919818D01*
X177117364Y-113919141D01*
X177101061Y-113915834D01*
X177098584Y-113915581D01*
X177095156Y-113916039D01*
X177077614Y-113920882D01*
X177075291Y-113921777D01*
X177073298Y-113923022D01*
X177063173Y-113930735D01*
X176901717Y-113769279D01*
X176926510Y-113750480D01*
X176960734Y-113738739D01*
X176995171Y-113737831D01*
X177030451Y-113744704D01*
G37*
%TD.AperFunction*%
%TD*%
D18*
%TO.N,/ST_SWDIO*%
X176277209Y-111583771D02*
X176256222Y-111598481D01*
X176255743Y-111598834D01*
X176230907Y-111618036D01*
X176230186Y-111618637D01*
X176208554Y-111638079D01*
X176207630Y-111638999D01*
X176189126Y-111659428D01*
X176188121Y-111660690D01*
X176172670Y-111682850D01*
X176171757Y-111684378D01*
X176159285Y-111709016D01*
X176158605Y-111710626D01*
X176149035Y-111738488D01*
X176148622Y-111739982D01*
X176141879Y-111771814D01*
X176141678Y-111773068D01*
X176137688Y-111809614D01*
X176137619Y-111810595D01*
X176136691Y-111840300D01*
X175907700Y-111840300D01*
X175907700Y-111559499D01*
X175907699Y-111520204D01*
X175907700Y-111478350D01*
X175907700Y-111388040D01*
X176203503Y-111285567D01*
X176277209Y-111583771D01*
%TA.AperFunction,Conductor*%
D17*
G36*
X176277209Y-111583771D02*
G01*
X176256222Y-111598481D01*
X176255743Y-111598834D01*
X176230907Y-111618036D01*
X176230186Y-111618637D01*
X176208554Y-111638079D01*
X176207630Y-111638999D01*
X176189126Y-111659428D01*
X176188121Y-111660690D01*
X176172670Y-111682850D01*
X176171757Y-111684378D01*
X176159285Y-111709016D01*
X176158605Y-111710626D01*
X176149035Y-111738488D01*
X176148622Y-111739982D01*
X176141879Y-111771814D01*
X176141678Y-111773068D01*
X176137688Y-111809614D01*
X176137619Y-111810595D01*
X176136691Y-111840300D01*
X175907700Y-111840300D01*
X175907700Y-111559499D01*
X175907699Y-111520204D01*
X175907700Y-111478350D01*
X175907700Y-111388040D01*
X176203503Y-111285567D01*
X176277209Y-111583771D01*
G37*
%TD.AperFunction*%
%TD*%
M02*
