M48
; DRILL file {KiCad (5.1.10)-1} date 11/23/21 23:34:32
; FORMAT={-:-/ absolute / metric / decimal}
; #@! TF.CreationDate,2021-11-23T23:34:32+08:00
; #@! TF.GenerationSoftware,Kicad,Pcbnew,(5.1.10)-1
; #@! TF.FileFunction,Plated,1,2,PTH
FMAT,2
METRIC
T1C0.305
%
G90
G05
T1
X171.196Y-110.744
X171.216Y-112.883
X171.958Y-112.268
X171.958Y-113.792
X173.101Y-114.681
X173.482Y-116.967
X173.609Y-108.585
X173.977Y-106.52
X174.498Y-115.57
X176.149Y-108.458
X176.149Y-109.474
X176.149Y-111.506
X176.149Y-113.538
X176.149Y-116.967
X176.276Y-105.791
X177.292Y-112.522
X177.292Y-113.538
X177.292Y-116.967
X178.308Y-108.331
X179.324Y-105.791
X179.578Y-109.093
X179.832Y-114.173
X179.832Y-116.967
X180.721Y-109.22
X180.848Y-105.918
X180.848Y-116.967
X181.229Y-108.458
X181.351Y-110.749
X181.356Y-112.903
X181.864Y-116.967
X182.245Y-106.045
X184.404Y-106.045
X184.404Y-107.061
X184.912Y-107.823
X184.912Y-108.966
X184.912Y-109.982
X186.78Y-113.247
X186.817Y-109.474
X186.817Y-110.754
X186.817Y-112.014
X188.341Y-108.712
X188.341Y-109.982
T0
M30
