M48
; DRILL file {KiCad (5.1.10)-1} date 12/27/21 10:27:16
; FORMAT={-:-/ absolute / metric / decimal}
; #@! TF.CreationDate,2021-12-27T10:27:16+08:00
; #@! TF.GenerationSoftware,Kicad,Pcbnew,(5.1.10)-1
; #@! TF.FileFunction,Plated,1,2,PTH
FMAT,2
METRIC
T1C0.305
%
G90
G05
T1
X123.19Y-80.899
X123.19Y-83.439
X123.19Y-96.139
X123.19Y-97.409
X123.952Y-88.138
X124.079Y-91.059
X124.079Y-91.948
X125.095Y-93.472
X125.73Y-80.899
X125.984Y-84.836
X125.984Y-90.043
X125.984Y-94.488
X126.896Y-91.313
X127.0Y-95.504
X127.0Y-97.409
X128.27Y-80.899
X128.737Y-86.648
X128.778Y-84.836
X128.778Y-88.519
X128.778Y-91.777
X128.905Y-93.853
X129.54Y-97.409
X129.921Y-83.693
X131.445Y-85.979
X131.445Y-90.772
X131.445Y-83.566
X131.699Y-87.884
X132.08Y-97.409
X132.322Y-86.777
X132.461Y-94.488
X132.715Y-91.948
X133.604Y-95.631
X134.112Y-96.774
X134.747Y-86.106
X135.128Y-83.658
X135.255Y-88.519
X135.255Y-91.059
X135.382Y-86.783
X136.017Y-88.138
X136.989Y-91.904
X137.159Y-86.868
X138.43Y-93.599
X138.811Y-95.631
X138.938Y-85.344
X138.968Y-83.409
X139.589Y-89.197
X139.589Y-89.936
X139.744Y-90.992
X140.081Y-82.804
X140.97Y-94.488
X142.748Y-83.566
X144.255Y-86.414
X144.272Y-87.122
X144.653Y-93.493
X146.05Y-80.899
T0
M30
