%TF.GenerationSoftware,KiCad,Pcbnew,(5.1.10)-1*%
%TF.CreationDate,2021-11-23T23:34:29+08:00*%
%TF.ProjectId,ST-Link_v2-1,53542d4c-696e-46b5-9f76-322d312e6b69,rev?*%
%TF.SameCoordinates,Original*%
%TF.FileFunction,Copper,L1,Top*%
%TF.FilePolarity,Positive*%
%FSLAX46Y46*%
G04 Gerber Fmt 4.6, Leading zero omitted, Abs format (unit mm)*
G04 Created by KiCad (PCBNEW (5.1.10)-1) date 2021-11-23 23:34:29*
%MOMM*%
%LPD*%
G01*
G04 APERTURE LIST*
%TA.AperFunction,SMDPad,CuDef*%
%ADD10R,1.850000X1.180000*%
%TD*%
%TA.AperFunction,SMDPad,CuDef*%
%ADD11R,1.850000X0.300000*%
%TD*%
%TA.AperFunction,SMDPad,CuDef*%
%ADD12R,1.250000X0.300000*%
%TD*%
%TA.AperFunction,ViaPad*%
%ADD13C,0.508000*%
%TD*%
%TA.AperFunction,Conductor*%
%ADD14C,0.254000*%
%TD*%
%TA.AperFunction,Conductor*%
%ADD15C,0.508000*%
%TD*%
%TA.AperFunction,Conductor*%
%ADD16C,0.100000*%
%TD*%
G04 APERTURE END LIST*
%TO.P,R14,1*%
%TO.N,Net-(R14-Pad1)*%
%TA.AperFunction,SMDPad,CuDef*%
G36*
G01*
X184727000Y-108694000D02*
X185097000Y-108694000D01*
G75*
G02*
X185232000Y-108829000I0J-135000D01*
G01*
X185232000Y-109099000D01*
G75*
G02*
X185097000Y-109234000I-135000J0D01*
G01*
X184727000Y-109234000D01*
G75*
G02*
X184592000Y-109099000I0J135000D01*
G01*
X184592000Y-108829000D01*
G75*
G02*
X184727000Y-108694000I135000J0D01*
G01*
G37*
%TD.AperFunction*%
%TO.P,R14,2*%
%TO.N,+3V3*%
%TA.AperFunction,SMDPad,CuDef*%
G36*
G01*
X184727000Y-109714000D02*
X185097000Y-109714000D01*
G75*
G02*
X185232000Y-109849000I0J-135000D01*
G01*
X185232000Y-110119000D01*
G75*
G02*
X185097000Y-110254000I-135000J0D01*
G01*
X184727000Y-110254000D01*
G75*
G02*
X184592000Y-110119000I0J135000D01*
G01*
X184592000Y-109849000D01*
G75*
G02*
X184727000Y-109714000I135000J0D01*
G01*
G37*
%TD.AperFunction*%
%TD*%
%TO.P,U1,1*%
%TO.N,+3V3*%
%TA.AperFunction,SMDPad,CuDef*%
G36*
G01*
X183970000Y-113927000D02*
X183970000Y-114077000D01*
G75*
G02*
X183895000Y-114152000I-75000J0D01*
G01*
X182570000Y-114152000D01*
G75*
G02*
X182495000Y-114077000I0J75000D01*
G01*
X182495000Y-113927000D01*
G75*
G02*
X182570000Y-113852000I75000J0D01*
G01*
X183895000Y-113852000D01*
G75*
G02*
X183970000Y-113927000I0J-75000D01*
G01*
G37*
%TD.AperFunction*%
%TO.P,U1,2*%
%TO.N,Net-(R9-Pad1)*%
%TA.AperFunction,SMDPad,CuDef*%
G36*
G01*
X183970000Y-113427000D02*
X183970000Y-113577000D01*
G75*
G02*
X183895000Y-113652000I-75000J0D01*
G01*
X182570000Y-113652000D01*
G75*
G02*
X182495000Y-113577000I0J75000D01*
G01*
X182495000Y-113427000D01*
G75*
G02*
X182570000Y-113352000I75000J0D01*
G01*
X183895000Y-113352000D01*
G75*
G02*
X183970000Y-113427000I0J-75000D01*
G01*
G37*
%TD.AperFunction*%
%TO.P,U1,3*%
%TO.N,Net-(R10-Pad1)*%
%TA.AperFunction,SMDPad,CuDef*%
G36*
G01*
X183970000Y-112927000D02*
X183970000Y-113077000D01*
G75*
G02*
X183895000Y-113152000I-75000J0D01*
G01*
X182570000Y-113152000D01*
G75*
G02*
X182495000Y-113077000I0J75000D01*
G01*
X182495000Y-112927000D01*
G75*
G02*
X182570000Y-112852000I75000J0D01*
G01*
X183895000Y-112852000D01*
G75*
G02*
X183970000Y-112927000I0J-75000D01*
G01*
G37*
%TD.AperFunction*%
%TO.P,U1,4*%
%TO.N,Net-(U1-Pad4)*%
%TA.AperFunction,SMDPad,CuDef*%
G36*
G01*
X183970000Y-112427000D02*
X183970000Y-112577000D01*
G75*
G02*
X183895000Y-112652000I-75000J0D01*
G01*
X182570000Y-112652000D01*
G75*
G02*
X182495000Y-112577000I0J75000D01*
G01*
X182495000Y-112427000D01*
G75*
G02*
X182570000Y-112352000I75000J0D01*
G01*
X183895000Y-112352000D01*
G75*
G02*
X183970000Y-112427000I0J-75000D01*
G01*
G37*
%TD.AperFunction*%
%TO.P,U1,5*%
%TO.N,Net-(C2-Pad1)*%
%TA.AperFunction,SMDPad,CuDef*%
G36*
G01*
X183970000Y-111927000D02*
X183970000Y-112077000D01*
G75*
G02*
X183895000Y-112152000I-75000J0D01*
G01*
X182570000Y-112152000D01*
G75*
G02*
X182495000Y-112077000I0J75000D01*
G01*
X182495000Y-111927000D01*
G75*
G02*
X182570000Y-111852000I75000J0D01*
G01*
X183895000Y-111852000D01*
G75*
G02*
X183970000Y-111927000I0J-75000D01*
G01*
G37*
%TD.AperFunction*%
%TO.P,U1,6*%
%TO.N,Net-(C3-Pad1)*%
%TA.AperFunction,SMDPad,CuDef*%
G36*
G01*
X183970000Y-111427000D02*
X183970000Y-111577000D01*
G75*
G02*
X183895000Y-111652000I-75000J0D01*
G01*
X182570000Y-111652000D01*
G75*
G02*
X182495000Y-111577000I0J75000D01*
G01*
X182495000Y-111427000D01*
G75*
G02*
X182570000Y-111352000I75000J0D01*
G01*
X183895000Y-111352000D01*
G75*
G02*
X183970000Y-111427000I0J-75000D01*
G01*
G37*
%TD.AperFunction*%
%TO.P,U1,7*%
%TO.N,/NRST*%
%TA.AperFunction,SMDPad,CuDef*%
G36*
G01*
X183970000Y-110927000D02*
X183970000Y-111077000D01*
G75*
G02*
X183895000Y-111152000I-75000J0D01*
G01*
X182570000Y-111152000D01*
G75*
G02*
X182495000Y-111077000I0J75000D01*
G01*
X182495000Y-110927000D01*
G75*
G02*
X182570000Y-110852000I75000J0D01*
G01*
X183895000Y-110852000D01*
G75*
G02*
X183970000Y-110927000I0J-75000D01*
G01*
G37*
%TD.AperFunction*%
%TO.P,U1,8*%
%TO.N,GND*%
%TA.AperFunction,SMDPad,CuDef*%
G36*
G01*
X183970000Y-110427000D02*
X183970000Y-110577000D01*
G75*
G02*
X183895000Y-110652000I-75000J0D01*
G01*
X182570000Y-110652000D01*
G75*
G02*
X182495000Y-110577000I0J75000D01*
G01*
X182495000Y-110427000D01*
G75*
G02*
X182570000Y-110352000I75000J0D01*
G01*
X183895000Y-110352000D01*
G75*
G02*
X183970000Y-110427000I0J-75000D01*
G01*
G37*
%TD.AperFunction*%
%TO.P,U1,9*%
%TO.N,+3V3*%
%TA.AperFunction,SMDPad,CuDef*%
G36*
G01*
X183970000Y-109927000D02*
X183970000Y-110077000D01*
G75*
G02*
X183895000Y-110152000I-75000J0D01*
G01*
X182570000Y-110152000D01*
G75*
G02*
X182495000Y-110077000I0J75000D01*
G01*
X182495000Y-109927000D01*
G75*
G02*
X182570000Y-109852000I75000J0D01*
G01*
X183895000Y-109852000D01*
G75*
G02*
X183970000Y-109927000I0J-75000D01*
G01*
G37*
%TD.AperFunction*%
%TO.P,U1,10*%
%TO.N,Net-(R14-Pad1)*%
%TA.AperFunction,SMDPad,CuDef*%
G36*
G01*
X183970000Y-109427000D02*
X183970000Y-109577000D01*
G75*
G02*
X183895000Y-109652000I-75000J0D01*
G01*
X182570000Y-109652000D01*
G75*
G02*
X182495000Y-109577000I0J75000D01*
G01*
X182495000Y-109427000D01*
G75*
G02*
X182570000Y-109352000I75000J0D01*
G01*
X183895000Y-109352000D01*
G75*
G02*
X183970000Y-109427000I0J-75000D01*
G01*
G37*
%TD.AperFunction*%
%TO.P,U1,11*%
%TO.N,Net-(U1-Pad11)*%
%TA.AperFunction,SMDPad,CuDef*%
G36*
G01*
X183970000Y-108927000D02*
X183970000Y-109077000D01*
G75*
G02*
X183895000Y-109152000I-75000J0D01*
G01*
X182570000Y-109152000D01*
G75*
G02*
X182495000Y-109077000I0J75000D01*
G01*
X182495000Y-108927000D01*
G75*
G02*
X182570000Y-108852000I75000J0D01*
G01*
X183895000Y-108852000D01*
G75*
G02*
X183970000Y-108927000I0J-75000D01*
G01*
G37*
%TD.AperFunction*%
%TO.P,U1,12*%
%TO.N,/TXD*%
%TA.AperFunction,SMDPad,CuDef*%
G36*
G01*
X183970000Y-108427000D02*
X183970000Y-108577000D01*
G75*
G02*
X183895000Y-108652000I-75000J0D01*
G01*
X182570000Y-108652000D01*
G75*
G02*
X182495000Y-108577000I0J75000D01*
G01*
X182495000Y-108427000D01*
G75*
G02*
X182570000Y-108352000I75000J0D01*
G01*
X183895000Y-108352000D01*
G75*
G02*
X183970000Y-108427000I0J-75000D01*
G01*
G37*
%TD.AperFunction*%
%TO.P,U1,13*%
%TO.N,/RXD*%
%TA.AperFunction,SMDPad,CuDef*%
G36*
G01*
X181970000Y-106427000D02*
X181970000Y-107752000D01*
G75*
G02*
X181895000Y-107827000I-75000J0D01*
G01*
X181745000Y-107827000D01*
G75*
G02*
X181670000Y-107752000I0J75000D01*
G01*
X181670000Y-106427000D01*
G75*
G02*
X181745000Y-106352000I75000J0D01*
G01*
X181895000Y-106352000D01*
G75*
G02*
X181970000Y-106427000I0J-75000D01*
G01*
G37*
%TD.AperFunction*%
%TO.P,U1,14*%
%TO.N,Net-(U1-Pad14)*%
%TA.AperFunction,SMDPad,CuDef*%
G36*
G01*
X181470000Y-106427000D02*
X181470000Y-107752000D01*
G75*
G02*
X181395000Y-107827000I-75000J0D01*
G01*
X181245000Y-107827000D01*
G75*
G02*
X181170000Y-107752000I0J75000D01*
G01*
X181170000Y-106427000D01*
G75*
G02*
X181245000Y-106352000I75000J0D01*
G01*
X181395000Y-106352000D01*
G75*
G02*
X181470000Y-106427000I0J-75000D01*
G01*
G37*
%TD.AperFunction*%
%TO.P,U1,15*%
%TO.N,/SWCLK*%
%TA.AperFunction,SMDPad,CuDef*%
G36*
G01*
X180970000Y-106427000D02*
X180970000Y-107752000D01*
G75*
G02*
X180895000Y-107827000I-75000J0D01*
G01*
X180745000Y-107827000D01*
G75*
G02*
X180670000Y-107752000I0J75000D01*
G01*
X180670000Y-106427000D01*
G75*
G02*
X180745000Y-106352000I75000J0D01*
G01*
X180895000Y-106352000D01*
G75*
G02*
X180970000Y-106427000I0J-75000D01*
G01*
G37*
%TD.AperFunction*%
%TO.P,U1,16*%
%TO.N,Net-(U1-Pad16)*%
%TA.AperFunction,SMDPad,CuDef*%
G36*
G01*
X180470000Y-106427000D02*
X180470000Y-107752000D01*
G75*
G02*
X180395000Y-107827000I-75000J0D01*
G01*
X180245000Y-107827000D01*
G75*
G02*
X180170000Y-107752000I0J75000D01*
G01*
X180170000Y-106427000D01*
G75*
G02*
X180245000Y-106352000I75000J0D01*
G01*
X180395000Y-106352000D01*
G75*
G02*
X180470000Y-106427000I0J-75000D01*
G01*
G37*
%TD.AperFunction*%
%TO.P,U1,17*%
%TO.N,Net-(U1-Pad17)*%
%TA.AperFunction,SMDPad,CuDef*%
G36*
G01*
X179970000Y-106427000D02*
X179970000Y-107752000D01*
G75*
G02*
X179895000Y-107827000I-75000J0D01*
G01*
X179745000Y-107827000D01*
G75*
G02*
X179670000Y-107752000I0J75000D01*
G01*
X179670000Y-106427000D01*
G75*
G02*
X179745000Y-106352000I75000J0D01*
G01*
X179895000Y-106352000D01*
G75*
G02*
X179970000Y-106427000I0J-75000D01*
G01*
G37*
%TD.AperFunction*%
%TO.P,U1,18*%
%TO.N,/NRST*%
%TA.AperFunction,SMDPad,CuDef*%
G36*
G01*
X179470000Y-106427000D02*
X179470000Y-107752000D01*
G75*
G02*
X179395000Y-107827000I-75000J0D01*
G01*
X179245000Y-107827000D01*
G75*
G02*
X179170000Y-107752000I0J75000D01*
G01*
X179170000Y-106427000D01*
G75*
G02*
X179245000Y-106352000I75000J0D01*
G01*
X179395000Y-106352000D01*
G75*
G02*
X179470000Y-106427000I0J-75000D01*
G01*
G37*
%TD.AperFunction*%
%TO.P,U1,19*%
%TO.N,Net-(U1-Pad19)*%
%TA.AperFunction,SMDPad,CuDef*%
G36*
G01*
X178970000Y-106427000D02*
X178970000Y-107752000D01*
G75*
G02*
X178895000Y-107827000I-75000J0D01*
G01*
X178745000Y-107827000D01*
G75*
G02*
X178670000Y-107752000I0J75000D01*
G01*
X178670000Y-106427000D01*
G75*
G02*
X178745000Y-106352000I75000J0D01*
G01*
X178895000Y-106352000D01*
G75*
G02*
X178970000Y-106427000I0J-75000D01*
G01*
G37*
%TD.AperFunction*%
%TO.P,U1,20*%
%TO.N,Net-(R7-Pad1)*%
%TA.AperFunction,SMDPad,CuDef*%
G36*
G01*
X178470000Y-106427000D02*
X178470000Y-107752000D01*
G75*
G02*
X178395000Y-107827000I-75000J0D01*
G01*
X178245000Y-107827000D01*
G75*
G02*
X178170000Y-107752000I0J75000D01*
G01*
X178170000Y-106427000D01*
G75*
G02*
X178245000Y-106352000I75000J0D01*
G01*
X178395000Y-106352000D01*
G75*
G02*
X178470000Y-106427000I0J-75000D01*
G01*
G37*
%TD.AperFunction*%
%TO.P,U1,21*%
%TO.N,Net-(U1-Pad21)*%
%TA.AperFunction,SMDPad,CuDef*%
G36*
G01*
X177970000Y-106427000D02*
X177970000Y-107752000D01*
G75*
G02*
X177895000Y-107827000I-75000J0D01*
G01*
X177745000Y-107827000D01*
G75*
G02*
X177670000Y-107752000I0J75000D01*
G01*
X177670000Y-106427000D01*
G75*
G02*
X177745000Y-106352000I75000J0D01*
G01*
X177895000Y-106352000D01*
G75*
G02*
X177970000Y-106427000I0J-75000D01*
G01*
G37*
%TD.AperFunction*%
%TO.P,U1,22*%
%TO.N,Net-(U1-Pad22)*%
%TA.AperFunction,SMDPad,CuDef*%
G36*
G01*
X177470000Y-106427000D02*
X177470000Y-107752000D01*
G75*
G02*
X177395000Y-107827000I-75000J0D01*
G01*
X177245000Y-107827000D01*
G75*
G02*
X177170000Y-107752000I0J75000D01*
G01*
X177170000Y-106427000D01*
G75*
G02*
X177245000Y-106352000I75000J0D01*
G01*
X177395000Y-106352000D01*
G75*
G02*
X177470000Y-106427000I0J-75000D01*
G01*
G37*
%TD.AperFunction*%
%TO.P,U1,23*%
%TO.N,GND*%
%TA.AperFunction,SMDPad,CuDef*%
G36*
G01*
X176970000Y-106427000D02*
X176970000Y-107752000D01*
G75*
G02*
X176895000Y-107827000I-75000J0D01*
G01*
X176745000Y-107827000D01*
G75*
G02*
X176670000Y-107752000I0J75000D01*
G01*
X176670000Y-106427000D01*
G75*
G02*
X176745000Y-106352000I75000J0D01*
G01*
X176895000Y-106352000D01*
G75*
G02*
X176970000Y-106427000I0J-75000D01*
G01*
G37*
%TD.AperFunction*%
%TO.P,U1,24*%
%TO.N,+3V3*%
%TA.AperFunction,SMDPad,CuDef*%
G36*
G01*
X176470000Y-106427000D02*
X176470000Y-107752000D01*
G75*
G02*
X176395000Y-107827000I-75000J0D01*
G01*
X176245000Y-107827000D01*
G75*
G02*
X176170000Y-107752000I0J75000D01*
G01*
X176170000Y-106427000D01*
G75*
G02*
X176245000Y-106352000I75000J0D01*
G01*
X176395000Y-106352000D01*
G75*
G02*
X176470000Y-106427000I0J-75000D01*
G01*
G37*
%TD.AperFunction*%
%TO.P,U1,25*%
%TO.N,/SWDIO_IN*%
%TA.AperFunction,SMDPad,CuDef*%
G36*
G01*
X175645000Y-108427000D02*
X175645000Y-108577000D01*
G75*
G02*
X175570000Y-108652000I-75000J0D01*
G01*
X174245000Y-108652000D01*
G75*
G02*
X174170000Y-108577000I0J75000D01*
G01*
X174170000Y-108427000D01*
G75*
G02*
X174245000Y-108352000I75000J0D01*
G01*
X175570000Y-108352000D01*
G75*
G02*
X175645000Y-108427000I0J-75000D01*
G01*
G37*
%TD.AperFunction*%
%TO.P,U1,26*%
%TO.N,/SWCLK*%
%TA.AperFunction,SMDPad,CuDef*%
G36*
G01*
X175645000Y-108927000D02*
X175645000Y-109077000D01*
G75*
G02*
X175570000Y-109152000I-75000J0D01*
G01*
X174245000Y-109152000D01*
G75*
G02*
X174170000Y-109077000I0J75000D01*
G01*
X174170000Y-108927000D01*
G75*
G02*
X174245000Y-108852000I75000J0D01*
G01*
X175570000Y-108852000D01*
G75*
G02*
X175645000Y-108927000I0J-75000D01*
G01*
G37*
%TD.AperFunction*%
%TO.P,U1,27*%
%TO.N,/SWDIO*%
%TA.AperFunction,SMDPad,CuDef*%
G36*
G01*
X175645000Y-109427000D02*
X175645000Y-109577000D01*
G75*
G02*
X175570000Y-109652000I-75000J0D01*
G01*
X174245000Y-109652000D01*
G75*
G02*
X174170000Y-109577000I0J75000D01*
G01*
X174170000Y-109427000D01*
G75*
G02*
X174245000Y-109352000I75000J0D01*
G01*
X175570000Y-109352000D01*
G75*
G02*
X175645000Y-109427000I0J-75000D01*
G01*
G37*
%TD.AperFunction*%
%TO.P,U1,28*%
%TO.N,Net-(U1-Pad28)*%
%TA.AperFunction,SMDPad,CuDef*%
G36*
G01*
X175645000Y-109927000D02*
X175645000Y-110077000D01*
G75*
G02*
X175570000Y-110152000I-75000J0D01*
G01*
X174245000Y-110152000D01*
G75*
G02*
X174170000Y-110077000I0J75000D01*
G01*
X174170000Y-109927000D01*
G75*
G02*
X174245000Y-109852000I75000J0D01*
G01*
X175570000Y-109852000D01*
G75*
G02*
X175645000Y-109927000I0J-75000D01*
G01*
G37*
%TD.AperFunction*%
%TO.P,U1,29*%
%TO.N,Net-(U1-Pad29)*%
%TA.AperFunction,SMDPad,CuDef*%
G36*
G01*
X175645000Y-110427000D02*
X175645000Y-110577000D01*
G75*
G02*
X175570000Y-110652000I-75000J0D01*
G01*
X174245000Y-110652000D01*
G75*
G02*
X174170000Y-110577000I0J75000D01*
G01*
X174170000Y-110427000D01*
G75*
G02*
X174245000Y-110352000I75000J0D01*
G01*
X175570000Y-110352000D01*
G75*
G02*
X175645000Y-110427000I0J-75000D01*
G01*
G37*
%TD.AperFunction*%
%TO.P,U1,30*%
%TO.N,/LED_STLINK*%
%TA.AperFunction,SMDPad,CuDef*%
G36*
G01*
X175645000Y-110927000D02*
X175645000Y-111077000D01*
G75*
G02*
X175570000Y-111152000I-75000J0D01*
G01*
X174245000Y-111152000D01*
G75*
G02*
X174170000Y-111077000I0J75000D01*
G01*
X174170000Y-110927000D01*
G75*
G02*
X174245000Y-110852000I75000J0D01*
G01*
X175570000Y-110852000D01*
G75*
G02*
X175645000Y-110927000I0J-75000D01*
G01*
G37*
%TD.AperFunction*%
%TO.P,U1,31*%
%TO.N,Net-(U1-Pad31)*%
%TA.AperFunction,SMDPad,CuDef*%
G36*
G01*
X175645000Y-111427000D02*
X175645000Y-111577000D01*
G75*
G02*
X175570000Y-111652000I-75000J0D01*
G01*
X174245000Y-111652000D01*
G75*
G02*
X174170000Y-111577000I0J75000D01*
G01*
X174170000Y-111427000D01*
G75*
G02*
X174245000Y-111352000I75000J0D01*
G01*
X175570000Y-111352000D01*
G75*
G02*
X175645000Y-111427000I0J-75000D01*
G01*
G37*
%TD.AperFunction*%
%TO.P,U1,32*%
%TO.N,/D-*%
%TA.AperFunction,SMDPad,CuDef*%
G36*
G01*
X175645000Y-111927000D02*
X175645000Y-112077000D01*
G75*
G02*
X175570000Y-112152000I-75000J0D01*
G01*
X174245000Y-112152000D01*
G75*
G02*
X174170000Y-112077000I0J75000D01*
G01*
X174170000Y-111927000D01*
G75*
G02*
X174245000Y-111852000I75000J0D01*
G01*
X175570000Y-111852000D01*
G75*
G02*
X175645000Y-111927000I0J-75000D01*
G01*
G37*
%TD.AperFunction*%
%TO.P,U1,33*%
%TO.N,/D+*%
%TA.AperFunction,SMDPad,CuDef*%
G36*
G01*
X175645000Y-112427000D02*
X175645000Y-112577000D01*
G75*
G02*
X175570000Y-112652000I-75000J0D01*
G01*
X174245000Y-112652000D01*
G75*
G02*
X174170000Y-112577000I0J75000D01*
G01*
X174170000Y-112427000D01*
G75*
G02*
X174245000Y-112352000I75000J0D01*
G01*
X175570000Y-112352000D01*
G75*
G02*
X175645000Y-112427000I0J-75000D01*
G01*
G37*
%TD.AperFunction*%
%TO.P,U1,34*%
%TO.N,/ST_SWDIO*%
%TA.AperFunction,SMDPad,CuDef*%
G36*
G01*
X175645000Y-112927000D02*
X175645000Y-113077000D01*
G75*
G02*
X175570000Y-113152000I-75000J0D01*
G01*
X174245000Y-113152000D01*
G75*
G02*
X174170000Y-113077000I0J75000D01*
G01*
X174170000Y-112927000D01*
G75*
G02*
X174245000Y-112852000I75000J0D01*
G01*
X175570000Y-112852000D01*
G75*
G02*
X175645000Y-112927000I0J-75000D01*
G01*
G37*
%TD.AperFunction*%
%TO.P,U1,35*%
%TO.N,GND*%
%TA.AperFunction,SMDPad,CuDef*%
G36*
G01*
X175645000Y-113427000D02*
X175645000Y-113577000D01*
G75*
G02*
X175570000Y-113652000I-75000J0D01*
G01*
X174245000Y-113652000D01*
G75*
G02*
X174170000Y-113577000I0J75000D01*
G01*
X174170000Y-113427000D01*
G75*
G02*
X174245000Y-113352000I75000J0D01*
G01*
X175570000Y-113352000D01*
G75*
G02*
X175645000Y-113427000I0J-75000D01*
G01*
G37*
%TD.AperFunction*%
%TO.P,U1,36*%
%TO.N,+3V3*%
%TA.AperFunction,SMDPad,CuDef*%
G36*
G01*
X175645000Y-113927000D02*
X175645000Y-114077000D01*
G75*
G02*
X175570000Y-114152000I-75000J0D01*
G01*
X174245000Y-114152000D01*
G75*
G02*
X174170000Y-114077000I0J75000D01*
G01*
X174170000Y-113927000D01*
G75*
G02*
X174245000Y-113852000I75000J0D01*
G01*
X175570000Y-113852000D01*
G75*
G02*
X175645000Y-113927000I0J-75000D01*
G01*
G37*
%TD.AperFunction*%
%TO.P,U1,37*%
%TO.N,/ST_SWCLK*%
%TA.AperFunction,SMDPad,CuDef*%
G36*
G01*
X176470000Y-114752000D02*
X176470000Y-116077000D01*
G75*
G02*
X176395000Y-116152000I-75000J0D01*
G01*
X176245000Y-116152000D01*
G75*
G02*
X176170000Y-116077000I0J75000D01*
G01*
X176170000Y-114752000D01*
G75*
G02*
X176245000Y-114677000I75000J0D01*
G01*
X176395000Y-114677000D01*
G75*
G02*
X176470000Y-114752000I0J-75000D01*
G01*
G37*
%TD.AperFunction*%
%TO.P,U1,38*%
%TO.N,Net-(R13-Pad1)*%
%TA.AperFunction,SMDPad,CuDef*%
G36*
G01*
X176970000Y-114752000D02*
X176970000Y-116077000D01*
G75*
G02*
X176895000Y-116152000I-75000J0D01*
G01*
X176745000Y-116152000D01*
G75*
G02*
X176670000Y-116077000I0J75000D01*
G01*
X176670000Y-114752000D01*
G75*
G02*
X176745000Y-114677000I75000J0D01*
G01*
X176895000Y-114677000D01*
G75*
G02*
X176970000Y-114752000I0J-75000D01*
G01*
G37*
%TD.AperFunction*%
%TO.P,U1,39*%
%TO.N,Net-(R8-Pad1)*%
%TA.AperFunction,SMDPad,CuDef*%
G36*
G01*
X177470000Y-114752000D02*
X177470000Y-116077000D01*
G75*
G02*
X177395000Y-116152000I-75000J0D01*
G01*
X177245000Y-116152000D01*
G75*
G02*
X177170000Y-116077000I0J75000D01*
G01*
X177170000Y-114752000D01*
G75*
G02*
X177245000Y-114677000I75000J0D01*
G01*
X177395000Y-114677000D01*
G75*
G02*
X177470000Y-114752000I0J-75000D01*
G01*
G37*
%TD.AperFunction*%
%TO.P,U1,40*%
%TO.N,Net-(U1-Pad40)*%
%TA.AperFunction,SMDPad,CuDef*%
G36*
G01*
X177970000Y-114752000D02*
X177970000Y-116077000D01*
G75*
G02*
X177895000Y-116152000I-75000J0D01*
G01*
X177745000Y-116152000D01*
G75*
G02*
X177670000Y-116077000I0J75000D01*
G01*
X177670000Y-114752000D01*
G75*
G02*
X177745000Y-114677000I75000J0D01*
G01*
X177895000Y-114677000D01*
G75*
G02*
X177970000Y-114752000I0J-75000D01*
G01*
G37*
%TD.AperFunction*%
%TO.P,U1,41*%
%TO.N,Net-(U1-Pad41)*%
%TA.AperFunction,SMDPad,CuDef*%
G36*
G01*
X178470000Y-114752000D02*
X178470000Y-116077000D01*
G75*
G02*
X178395000Y-116152000I-75000J0D01*
G01*
X178245000Y-116152000D01*
G75*
G02*
X178170000Y-116077000I0J75000D01*
G01*
X178170000Y-114752000D01*
G75*
G02*
X178245000Y-114677000I75000J0D01*
G01*
X178395000Y-114677000D01*
G75*
G02*
X178470000Y-114752000I0J-75000D01*
G01*
G37*
%TD.AperFunction*%
%TO.P,U1,42*%
%TO.N,Net-(U1-Pad42)*%
%TA.AperFunction,SMDPad,CuDef*%
G36*
G01*
X178970000Y-114752000D02*
X178970000Y-116077000D01*
G75*
G02*
X178895000Y-116152000I-75000J0D01*
G01*
X178745000Y-116152000D01*
G75*
G02*
X178670000Y-116077000I0J75000D01*
G01*
X178670000Y-114752000D01*
G75*
G02*
X178745000Y-114677000I75000J0D01*
G01*
X178895000Y-114677000D01*
G75*
G02*
X178970000Y-114752000I0J-75000D01*
G01*
G37*
%TD.AperFunction*%
%TO.P,U1,43*%
%TO.N,Net-(U1-Pad43)*%
%TA.AperFunction,SMDPad,CuDef*%
G36*
G01*
X179470000Y-114752000D02*
X179470000Y-116077000D01*
G75*
G02*
X179395000Y-116152000I-75000J0D01*
G01*
X179245000Y-116152000D01*
G75*
G02*
X179170000Y-116077000I0J75000D01*
G01*
X179170000Y-114752000D01*
G75*
G02*
X179245000Y-114677000I75000J0D01*
G01*
X179395000Y-114677000D01*
G75*
G02*
X179470000Y-114752000I0J-75000D01*
G01*
G37*
%TD.AperFunction*%
%TO.P,U1,44*%
%TO.N,Net-(R6-Pad1)*%
%TA.AperFunction,SMDPad,CuDef*%
G36*
G01*
X179970000Y-114752000D02*
X179970000Y-116077000D01*
G75*
G02*
X179895000Y-116152000I-75000J0D01*
G01*
X179745000Y-116152000D01*
G75*
G02*
X179670000Y-116077000I0J75000D01*
G01*
X179670000Y-114752000D01*
G75*
G02*
X179745000Y-114677000I75000J0D01*
G01*
X179895000Y-114677000D01*
G75*
G02*
X179970000Y-114752000I0J-75000D01*
G01*
G37*
%TD.AperFunction*%
%TO.P,U1,45*%
%TO.N,Net-(U1-Pad45)*%
%TA.AperFunction,SMDPad,CuDef*%
G36*
G01*
X180470000Y-114752000D02*
X180470000Y-116077000D01*
G75*
G02*
X180395000Y-116152000I-75000J0D01*
G01*
X180245000Y-116152000D01*
G75*
G02*
X180170000Y-116077000I0J75000D01*
G01*
X180170000Y-114752000D01*
G75*
G02*
X180245000Y-114677000I75000J0D01*
G01*
X180395000Y-114677000D01*
G75*
G02*
X180470000Y-114752000I0J-75000D01*
G01*
G37*
%TD.AperFunction*%
%TO.P,U1,46*%
%TO.N,Net-(U1-Pad46)*%
%TA.AperFunction,SMDPad,CuDef*%
G36*
G01*
X180970000Y-114752000D02*
X180970000Y-116077000D01*
G75*
G02*
X180895000Y-116152000I-75000J0D01*
G01*
X180745000Y-116152000D01*
G75*
G02*
X180670000Y-116077000I0J75000D01*
G01*
X180670000Y-114752000D01*
G75*
G02*
X180745000Y-114677000I75000J0D01*
G01*
X180895000Y-114677000D01*
G75*
G02*
X180970000Y-114752000I0J-75000D01*
G01*
G37*
%TD.AperFunction*%
%TO.P,U1,47*%
%TO.N,GND*%
%TA.AperFunction,SMDPad,CuDef*%
G36*
G01*
X181470000Y-114752000D02*
X181470000Y-116077000D01*
G75*
G02*
X181395000Y-116152000I-75000J0D01*
G01*
X181245000Y-116152000D01*
G75*
G02*
X181170000Y-116077000I0J75000D01*
G01*
X181170000Y-114752000D01*
G75*
G02*
X181245000Y-114677000I75000J0D01*
G01*
X181395000Y-114677000D01*
G75*
G02*
X181470000Y-114752000I0J-75000D01*
G01*
G37*
%TD.AperFunction*%
%TO.P,U1,48*%
%TO.N,+3V3*%
%TA.AperFunction,SMDPad,CuDef*%
G36*
G01*
X181970000Y-114752000D02*
X181970000Y-116077000D01*
G75*
G02*
X181895000Y-116152000I-75000J0D01*
G01*
X181745000Y-116152000D01*
G75*
G02*
X181670000Y-116077000I0J75000D01*
G01*
X181670000Y-114752000D01*
G75*
G02*
X181745000Y-114677000I75000J0D01*
G01*
X181895000Y-114677000D01*
G75*
G02*
X181970000Y-114752000I0J-75000D01*
G01*
G37*
%TD.AperFunction*%
%TD*%
%TO.P,R18,1*%
%TO.N,Net-(J2-PadA6)*%
%TA.AperFunction,SMDPad,CuDef*%
G36*
G01*
X171686000Y-112453000D02*
X171686000Y-112083000D01*
G75*
G02*
X171821000Y-111948000I135000J0D01*
G01*
X172091000Y-111948000D01*
G75*
G02*
X172226000Y-112083000I0J-135000D01*
G01*
X172226000Y-112453000D01*
G75*
G02*
X172091000Y-112588000I-135000J0D01*
G01*
X171821000Y-112588000D01*
G75*
G02*
X171686000Y-112453000I0J135000D01*
G01*
G37*
%TD.AperFunction*%
%TO.P,R18,2*%
%TO.N,/D+*%
%TA.AperFunction,SMDPad,CuDef*%
G36*
G01*
X172706000Y-112453000D02*
X172706000Y-112083000D01*
G75*
G02*
X172841000Y-111948000I135000J0D01*
G01*
X173111000Y-111948000D01*
G75*
G02*
X173246000Y-112083000I0J-135000D01*
G01*
X173246000Y-112453000D01*
G75*
G02*
X173111000Y-112588000I-135000J0D01*
G01*
X172841000Y-112588000D01*
G75*
G02*
X172706000Y-112453000I0J135000D01*
G01*
G37*
%TD.AperFunction*%
%TD*%
%TO.P,R17,1*%
%TO.N,Net-(J2-PadA7)*%
%TA.AperFunction,SMDPad,CuDef*%
G36*
G01*
X171688000Y-111437000D02*
X171688000Y-111067000D01*
G75*
G02*
X171823000Y-110932000I135000J0D01*
G01*
X172093000Y-110932000D01*
G75*
G02*
X172228000Y-111067000I0J-135000D01*
G01*
X172228000Y-111437000D01*
G75*
G02*
X172093000Y-111572000I-135000J0D01*
G01*
X171823000Y-111572000D01*
G75*
G02*
X171688000Y-111437000I0J135000D01*
G01*
G37*
%TD.AperFunction*%
%TO.P,R17,2*%
%TO.N,/D-*%
%TA.AperFunction,SMDPad,CuDef*%
G36*
G01*
X172708000Y-111437000D02*
X172708000Y-111067000D01*
G75*
G02*
X172843000Y-110932000I135000J0D01*
G01*
X173113000Y-110932000D01*
G75*
G02*
X173248000Y-111067000I0J-135000D01*
G01*
X173248000Y-111437000D01*
G75*
G02*
X173113000Y-111572000I-135000J0D01*
G01*
X172843000Y-111572000D01*
G75*
G02*
X172708000Y-111437000I0J135000D01*
G01*
G37*
%TD.AperFunction*%
%TD*%
%TO.P,R12,1*%
%TO.N,/LED_STLINK*%
%TA.AperFunction,SMDPad,CuDef*%
G36*
G01*
X172143000Y-110506000D02*
X171773000Y-110506000D01*
G75*
G02*
X171638000Y-110371000I0J135000D01*
G01*
X171638000Y-110101000D01*
G75*
G02*
X171773000Y-109966000I135000J0D01*
G01*
X172143000Y-109966000D01*
G75*
G02*
X172278000Y-110101000I0J-135000D01*
G01*
X172278000Y-110371000D01*
G75*
G02*
X172143000Y-110506000I-135000J0D01*
G01*
G37*
%TD.AperFunction*%
%TO.P,R12,2*%
%TO.N,Net-(D4-Pad2)*%
%TA.AperFunction,SMDPad,CuDef*%
G36*
G01*
X172143000Y-109486000D02*
X171773000Y-109486000D01*
G75*
G02*
X171638000Y-109351000I0J135000D01*
G01*
X171638000Y-109081000D01*
G75*
G02*
X171773000Y-108946000I135000J0D01*
G01*
X172143000Y-108946000D01*
G75*
G02*
X172278000Y-109081000I0J-135000D01*
G01*
X172278000Y-109351000D01*
G75*
G02*
X172143000Y-109486000I-135000J0D01*
G01*
G37*
%TD.AperFunction*%
%TD*%
%TO.P,R11,1*%
%TO.N,Net-(D5-Pad1)*%
%TA.AperFunction,SMDPad,CuDef*%
G36*
G01*
X172789000Y-108948000D02*
X173159000Y-108948000D01*
G75*
G02*
X173294000Y-109083000I0J-135000D01*
G01*
X173294000Y-109353000D01*
G75*
G02*
X173159000Y-109488000I-135000J0D01*
G01*
X172789000Y-109488000D01*
G75*
G02*
X172654000Y-109353000I0J135000D01*
G01*
X172654000Y-109083000D01*
G75*
G02*
X172789000Y-108948000I135000J0D01*
G01*
G37*
%TD.AperFunction*%
%TO.P,R11,2*%
%TO.N,/LED_STLINK*%
%TA.AperFunction,SMDPad,CuDef*%
G36*
G01*
X172789000Y-109968000D02*
X173159000Y-109968000D01*
G75*
G02*
X173294000Y-110103000I0J-135000D01*
G01*
X173294000Y-110373000D01*
G75*
G02*
X173159000Y-110508000I-135000J0D01*
G01*
X172789000Y-110508000D01*
G75*
G02*
X172654000Y-110373000I0J135000D01*
G01*
X172654000Y-110103000D01*
G75*
G02*
X172789000Y-109968000I135000J0D01*
G01*
G37*
%TD.AperFunction*%
%TD*%
%TO.P,R10,1*%
%TO.N,Net-(R10-Pad1)*%
%TA.AperFunction,SMDPad,CuDef*%
G36*
G01*
X185097000Y-112540000D02*
X184727000Y-112540000D01*
G75*
G02*
X184592000Y-112405000I0J135000D01*
G01*
X184592000Y-112135000D01*
G75*
G02*
X184727000Y-112000000I135000J0D01*
G01*
X185097000Y-112000000D01*
G75*
G02*
X185232000Y-112135000I0J-135000D01*
G01*
X185232000Y-112405000D01*
G75*
G02*
X185097000Y-112540000I-135000J0D01*
G01*
G37*
%TD.AperFunction*%
%TO.P,R10,2*%
%TO.N,GND*%
%TA.AperFunction,SMDPad,CuDef*%
G36*
G01*
X185097000Y-111520000D02*
X184727000Y-111520000D01*
G75*
G02*
X184592000Y-111385000I0J135000D01*
G01*
X184592000Y-111115000D01*
G75*
G02*
X184727000Y-110980000I135000J0D01*
G01*
X185097000Y-110980000D01*
G75*
G02*
X185232000Y-111115000I0J-135000D01*
G01*
X185232000Y-111385000D01*
G75*
G02*
X185097000Y-111520000I-135000J0D01*
G01*
G37*
%TD.AperFunction*%
%TD*%
%TO.P,R9,1*%
%TO.N,Net-(R9-Pad1)*%
%TA.AperFunction,SMDPad,CuDef*%
G36*
G01*
X184727000Y-113520000D02*
X185097000Y-113520000D01*
G75*
G02*
X185232000Y-113655000I0J-135000D01*
G01*
X185232000Y-113925000D01*
G75*
G02*
X185097000Y-114060000I-135000J0D01*
G01*
X184727000Y-114060000D01*
G75*
G02*
X184592000Y-113925000I0J135000D01*
G01*
X184592000Y-113655000D01*
G75*
G02*
X184727000Y-113520000I135000J0D01*
G01*
G37*
%TD.AperFunction*%
%TO.P,R9,2*%
%TO.N,GND*%
%TA.AperFunction,SMDPad,CuDef*%
G36*
G01*
X184727000Y-114540000D02*
X185097000Y-114540000D01*
G75*
G02*
X185232000Y-114675000I0J-135000D01*
G01*
X185232000Y-114945000D01*
G75*
G02*
X185097000Y-115080000I-135000J0D01*
G01*
X184727000Y-115080000D01*
G75*
G02*
X184592000Y-114945000I0J135000D01*
G01*
X184592000Y-114675000D01*
G75*
G02*
X184727000Y-114540000I135000J0D01*
G01*
G37*
%TD.AperFunction*%
%TD*%
D10*
%TO.P,J2,S1*%
%TO.N,GND*%
X170053000Y-115273000D03*
%TO.P,J2,S2*%
X170053000Y-107993000D03*
D11*
%TO.P,J2,A1*%
X170053000Y-114383000D03*
D12*
%TO.P,J2,A2*%
%TO.N,Net-(J2-PadA2)*%
X170053000Y-113883000D03*
%TO.P,J2,A3*%
%TO.N,Net-(J2-PadA3)*%
X170053000Y-113383000D03*
%TO.P,J2,A4*%
%TO.N,+5V*%
X170053000Y-112883000D03*
%TO.P,J2,A5*%
%TO.N,Net-(J2-PadA5)*%
X170053000Y-112383000D03*
%TO.P,J2,A6*%
%TO.N,Net-(J2-PadA6)*%
X170053000Y-111883000D03*
%TO.P,J2,A7*%
%TO.N,Net-(J2-PadA7)*%
X170053000Y-111383000D03*
%TO.P,J2,A8*%
%TO.N,Net-(J2-PadA8)*%
X170053000Y-110883000D03*
%TO.P,J2,A9*%
%TO.N,+5V*%
X170053000Y-110383000D03*
%TO.P,J2,A10*%
%TO.N,Net-(J2-PadA10)*%
X170053000Y-109883000D03*
%TO.P,J2,A11*%
%TO.N,Net-(J2-PadA11)*%
X170053000Y-109383000D03*
D11*
%TO.P,J2,A12*%
%TO.N,GND*%
X170053000Y-108883000D03*
%TD*%
%TO.P,J1,1*%
%TO.N,Net-(D6-Pad1)*%
%TA.AperFunction,SMDPad,CuDef*%
G36*
G01*
X187572000Y-114804000D02*
X186172000Y-114804000D01*
G75*
G02*
X186022000Y-114654000I0J150000D01*
G01*
X186022000Y-114354000D01*
G75*
G02*
X186172000Y-114204000I150000J0D01*
G01*
X187572000Y-114204000D01*
G75*
G02*
X187722000Y-114354000I0J-150000D01*
G01*
X187722000Y-114654000D01*
G75*
G02*
X187572000Y-114804000I-150000J0D01*
G01*
G37*
%TD.AperFunction*%
%TO.P,J1,2*%
%TO.N,/SWDIO*%
%TA.AperFunction,SMDPad,CuDef*%
G36*
G01*
X187572000Y-113554000D02*
X186172000Y-113554000D01*
G75*
G02*
X186022000Y-113404000I0J150000D01*
G01*
X186022000Y-113104000D01*
G75*
G02*
X186172000Y-112954000I150000J0D01*
G01*
X187572000Y-112954000D01*
G75*
G02*
X187722000Y-113104000I0J-150000D01*
G01*
X187722000Y-113404000D01*
G75*
G02*
X187572000Y-113554000I-150000J0D01*
G01*
G37*
%TD.AperFunction*%
%TO.P,J1,3*%
%TO.N,/SWCLK*%
%TA.AperFunction,SMDPad,CuDef*%
G36*
G01*
X187572000Y-112304000D02*
X186172000Y-112304000D01*
G75*
G02*
X186022000Y-112154000I0J150000D01*
G01*
X186022000Y-111854000D01*
G75*
G02*
X186172000Y-111704000I150000J0D01*
G01*
X187572000Y-111704000D01*
G75*
G02*
X187722000Y-111854000I0J-150000D01*
G01*
X187722000Y-112154000D01*
G75*
G02*
X187572000Y-112304000I-150000J0D01*
G01*
G37*
%TD.AperFunction*%
%TO.P,J1,4*%
%TO.N,/TXD*%
%TA.AperFunction,SMDPad,CuDef*%
G36*
G01*
X187572000Y-111054000D02*
X186172000Y-111054000D01*
G75*
G02*
X186022000Y-110904000I0J150000D01*
G01*
X186022000Y-110604000D01*
G75*
G02*
X186172000Y-110454000I150000J0D01*
G01*
X187572000Y-110454000D01*
G75*
G02*
X187722000Y-110604000I0J-150000D01*
G01*
X187722000Y-110904000D01*
G75*
G02*
X187572000Y-111054000I-150000J0D01*
G01*
G37*
%TD.AperFunction*%
%TO.P,J1,5*%
%TO.N,/RXD*%
%TA.AperFunction,SMDPad,CuDef*%
G36*
G01*
X187572000Y-109804000D02*
X186172000Y-109804000D01*
G75*
G02*
X186022000Y-109654000I0J150000D01*
G01*
X186022000Y-109354000D01*
G75*
G02*
X186172000Y-109204000I150000J0D01*
G01*
X187572000Y-109204000D01*
G75*
G02*
X187722000Y-109354000I0J-150000D01*
G01*
X187722000Y-109654000D01*
G75*
G02*
X187572000Y-109804000I-150000J0D01*
G01*
G37*
%TD.AperFunction*%
%TO.P,J1,6*%
%TO.N,GND*%
%TA.AperFunction,SMDPad,CuDef*%
G36*
G01*
X187572000Y-108554000D02*
X186172000Y-108554000D01*
G75*
G02*
X186022000Y-108404000I0J150000D01*
G01*
X186022000Y-108104000D01*
G75*
G02*
X186172000Y-107954000I150000J0D01*
G01*
X187572000Y-107954000D01*
G75*
G02*
X187722000Y-108104000I0J-150000D01*
G01*
X187722000Y-108404000D01*
G75*
G02*
X187572000Y-108554000I-150000J0D01*
G01*
G37*
%TD.AperFunction*%
%TO.P,J1,MP*%
%TO.N,N/C*%
%TA.AperFunction,SMDPad,CuDef*%
G36*
G01*
X191172000Y-116854000D02*
X188972000Y-116854000D01*
G75*
G02*
X188722000Y-116604000I0J250000D01*
G01*
X188722000Y-116104000D01*
G75*
G02*
X188972000Y-115854000I250000J0D01*
G01*
X191172000Y-115854000D01*
G75*
G02*
X191422000Y-116104000I0J-250000D01*
G01*
X191422000Y-116604000D01*
G75*
G02*
X191172000Y-116854000I-250000J0D01*
G01*
G37*
%TD.AperFunction*%
%TA.AperFunction,SMDPad,CuDef*%
G36*
G01*
X191172000Y-106904000D02*
X188972000Y-106904000D01*
G75*
G02*
X188722000Y-106654000I0J250000D01*
G01*
X188722000Y-106154000D01*
G75*
G02*
X188972000Y-105904000I250000J0D01*
G01*
X191172000Y-105904000D01*
G75*
G02*
X191422000Y-106154000I0J-250000D01*
G01*
X191422000Y-106654000D01*
G75*
G02*
X191172000Y-106904000I-250000J0D01*
G01*
G37*
%TD.AperFunction*%
%TD*%
%TO.P,D6,2*%
%TO.N,+5V*%
%TA.AperFunction,SMDPad,CuDef*%
G36*
G01*
X183385673Y-116979375D02*
X183629625Y-117223327D01*
G75*
G02*
X183629625Y-117431923I-104298J-104298D01*
G01*
X183421029Y-117640519D01*
G75*
G02*
X183212433Y-117640519I-104298J104298D01*
G01*
X182968481Y-117396567D01*
G75*
G02*
X182968481Y-117187971I104298J104298D01*
G01*
X183177077Y-116979375D01*
G75*
G02*
X183385673Y-116979375I104298J-104298D01*
G01*
G37*
%TD.AperFunction*%
%TO.P,D6,1*%
%TO.N,Net-(D6-Pad1)*%
%TA.AperFunction,SMDPad,CuDef*%
G36*
G01*
X184071567Y-116293481D02*
X184315519Y-116537433D01*
G75*
G02*
X184315519Y-116746029I-104298J-104298D01*
G01*
X184106923Y-116954625D01*
G75*
G02*
X183898327Y-116954625I-104298J104298D01*
G01*
X183654375Y-116710673D01*
G75*
G02*
X183654375Y-116502077I104298J104298D01*
G01*
X183862971Y-116293481D01*
G75*
G02*
X184071567Y-116293481I104298J-104298D01*
G01*
G37*
%TD.AperFunction*%
%TD*%
%TO.P,D5,1*%
%TO.N,Net-(D5-Pad1)*%
%TA.AperFunction,SMDPad,CuDef*%
G36*
G01*
X173179433Y-107607519D02*
X172935481Y-107363567D01*
G75*
G02*
X172935481Y-107154971I104298J104298D01*
G01*
X173144077Y-106946375D01*
G75*
G02*
X173352673Y-106946375I104298J-104298D01*
G01*
X173596625Y-107190327D01*
G75*
G02*
X173596625Y-107398923I-104298J-104298D01*
G01*
X173388029Y-107607519D01*
G75*
G02*
X173179433Y-107607519I-104298J104298D01*
G01*
G37*
%TD.AperFunction*%
%TO.P,D5,2*%
%TO.N,+3V3*%
%TA.AperFunction,SMDPad,CuDef*%
G36*
G01*
X173865327Y-106921625D02*
X173621375Y-106677673D01*
G75*
G02*
X173621375Y-106469077I104298J104298D01*
G01*
X173829971Y-106260481D01*
G75*
G02*
X174038567Y-106260481I104298J-104298D01*
G01*
X174282519Y-106504433D01*
G75*
G02*
X174282519Y-106713029I-104298J-104298D01*
G01*
X174073923Y-106921625D01*
G75*
G02*
X173865327Y-106921625I-104298J104298D01*
G01*
G37*
%TD.AperFunction*%
%TD*%
%TO.P,D4,1*%
%TO.N,GND*%
%TA.AperFunction,SMDPad,CuDef*%
G36*
G01*
X173276567Y-105498481D02*
X173520519Y-105742433D01*
G75*
G02*
X173520519Y-105951029I-104298J-104298D01*
G01*
X173311923Y-106159625D01*
G75*
G02*
X173103327Y-106159625I-104298J104298D01*
G01*
X172859375Y-105915673D01*
G75*
G02*
X172859375Y-105707077I104298J104298D01*
G01*
X173067971Y-105498481D01*
G75*
G02*
X173276567Y-105498481I104298J-104298D01*
G01*
G37*
%TD.AperFunction*%
%TO.P,D4,2*%
%TO.N,Net-(D4-Pad2)*%
%TA.AperFunction,SMDPad,CuDef*%
G36*
G01*
X172590673Y-106184375D02*
X172834625Y-106428327D01*
G75*
G02*
X172834625Y-106636923I-104298J-104298D01*
G01*
X172626029Y-106845519D01*
G75*
G02*
X172417433Y-106845519I-104298J104298D01*
G01*
X172173481Y-106601567D01*
G75*
G02*
X172173481Y-106392971I104298J104298D01*
G01*
X172382077Y-106184375D01*
G75*
G02*
X172590673Y-106184375I104298J-104298D01*
G01*
G37*
%TD.AperFunction*%
%TD*%
%TO.P,D3,1*%
%TO.N,Net-(D3-Pad1)*%
%TA.AperFunction,SMDPad,CuDef*%
G36*
G01*
X184676000Y-105872500D02*
X184676000Y-106217500D01*
G75*
G02*
X184528500Y-106365000I-147500J0D01*
G01*
X184233500Y-106365000D01*
G75*
G02*
X184086000Y-106217500I0J147500D01*
G01*
X184086000Y-105872500D01*
G75*
G02*
X184233500Y-105725000I147500J0D01*
G01*
X184528500Y-105725000D01*
G75*
G02*
X184676000Y-105872500I0J-147500D01*
G01*
G37*
%TD.AperFunction*%
%TO.P,D3,2*%
%TO.N,+3V3*%
%TA.AperFunction,SMDPad,CuDef*%
G36*
G01*
X183706000Y-105872500D02*
X183706000Y-106217500D01*
G75*
G02*
X183558500Y-106365000I-147500J0D01*
G01*
X183263500Y-106365000D01*
G75*
G02*
X183116000Y-106217500I0J147500D01*
G01*
X183116000Y-105872500D01*
G75*
G02*
X183263500Y-105725000I147500J0D01*
G01*
X183558500Y-105725000D01*
G75*
G02*
X183706000Y-105872500I0J-147500D01*
G01*
G37*
%TD.AperFunction*%
%TD*%
%TO.P,D2,1*%
%TO.N,Net-(D2-Pad1)*%
%TA.AperFunction,SMDPad,CuDef*%
G36*
G01*
X184676000Y-106888500D02*
X184676000Y-107233500D01*
G75*
G02*
X184528500Y-107381000I-147500J0D01*
G01*
X184233500Y-107381000D01*
G75*
G02*
X184086000Y-107233500I0J147500D01*
G01*
X184086000Y-106888500D01*
G75*
G02*
X184233500Y-106741000I147500J0D01*
G01*
X184528500Y-106741000D01*
G75*
G02*
X184676000Y-106888500I0J-147500D01*
G01*
G37*
%TD.AperFunction*%
%TO.P,D2,2*%
%TO.N,+3V3*%
%TA.AperFunction,SMDPad,CuDef*%
G36*
G01*
X183706000Y-106888500D02*
X183706000Y-107233500D01*
G75*
G02*
X183558500Y-107381000I-147500J0D01*
G01*
X183263500Y-107381000D01*
G75*
G02*
X183116000Y-107233500I0J147500D01*
G01*
X183116000Y-106888500D01*
G75*
G02*
X183263500Y-106741000I147500J0D01*
G01*
X183558500Y-106741000D01*
G75*
G02*
X183706000Y-106888500I0J-147500D01*
G01*
G37*
%TD.AperFunction*%
%TD*%
%TO.P,D1,1*%
%TO.N,Net-(D1-Pad1)*%
%TA.AperFunction,SMDPad,CuDef*%
G36*
G01*
X173210000Y-117139500D02*
X173210000Y-116794500D01*
G75*
G02*
X173357500Y-116647000I147500J0D01*
G01*
X173652500Y-116647000D01*
G75*
G02*
X173800000Y-116794500I0J-147500D01*
G01*
X173800000Y-117139500D01*
G75*
G02*
X173652500Y-117287000I-147500J0D01*
G01*
X173357500Y-117287000D01*
G75*
G02*
X173210000Y-117139500I0J147500D01*
G01*
G37*
%TD.AperFunction*%
%TO.P,D1,2*%
%TO.N,+3V3*%
%TA.AperFunction,SMDPad,CuDef*%
G36*
G01*
X174180000Y-117139500D02*
X174180000Y-116794500D01*
G75*
G02*
X174327500Y-116647000I147500J0D01*
G01*
X174622500Y-116647000D01*
G75*
G02*
X174770000Y-116794500I0J-147500D01*
G01*
X174770000Y-117139500D01*
G75*
G02*
X174622500Y-117287000I-147500J0D01*
G01*
X174327500Y-117287000D01*
G75*
G02*
X174180000Y-117139500I0J147500D01*
G01*
G37*
%TD.AperFunction*%
%TD*%
%TO.P,C9,1*%
%TO.N,+3V3*%
%TA.AperFunction,SMDPad,CuDef*%
G36*
G01*
X174722000Y-115400000D02*
X174722000Y-115740000D01*
G75*
G02*
X174582000Y-115880000I-140000J0D01*
G01*
X174302000Y-115880000D01*
G75*
G02*
X174162000Y-115740000I0J140000D01*
G01*
X174162000Y-115400000D01*
G75*
G02*
X174302000Y-115260000I140000J0D01*
G01*
X174582000Y-115260000D01*
G75*
G02*
X174722000Y-115400000I0J-140000D01*
G01*
G37*
%TD.AperFunction*%
%TO.P,C9,2*%
%TO.N,GND*%
%TA.AperFunction,SMDPad,CuDef*%
G36*
G01*
X173762000Y-115400000D02*
X173762000Y-115740000D01*
G75*
G02*
X173622000Y-115880000I-140000J0D01*
G01*
X173342000Y-115880000D01*
G75*
G02*
X173202000Y-115740000I0J140000D01*
G01*
X173202000Y-115400000D01*
G75*
G02*
X173342000Y-115260000I140000J0D01*
G01*
X173622000Y-115260000D01*
G75*
G02*
X173762000Y-115400000I0J-140000D01*
G01*
G37*
%TD.AperFunction*%
%TD*%
%TO.P,C8,1*%
%TO.N,+5V*%
%TA.AperFunction,SMDPad,CuDef*%
G36*
G01*
X171666000Y-113962000D02*
X171666000Y-113622000D01*
G75*
G02*
X171806000Y-113482000I140000J0D01*
G01*
X172086000Y-113482000D01*
G75*
G02*
X172226000Y-113622000I0J-140000D01*
G01*
X172226000Y-113962000D01*
G75*
G02*
X172086000Y-114102000I-140000J0D01*
G01*
X171806000Y-114102000D01*
G75*
G02*
X171666000Y-113962000I0J140000D01*
G01*
G37*
%TD.AperFunction*%
%TO.P,C8,2*%
%TO.N,GND*%
%TA.AperFunction,SMDPad,CuDef*%
G36*
G01*
X172626000Y-113962000D02*
X172626000Y-113622000D01*
G75*
G02*
X172766000Y-113482000I140000J0D01*
G01*
X173046000Y-113482000D01*
G75*
G02*
X173186000Y-113622000I0J-140000D01*
G01*
X173186000Y-113962000D01*
G75*
G02*
X173046000Y-114102000I-140000J0D01*
G01*
X172766000Y-114102000D01*
G75*
G02*
X172626000Y-113962000I0J140000D01*
G01*
G37*
%TD.AperFunction*%
%TD*%
D13*
%TO.N,GND*%
X180848000Y-116967000D03*
%TO.N,+3V3*%
X181864000Y-116967000D03*
%TO.N,Net-(R6-Pad1)*%
X179832000Y-116967000D03*
%TO.N,/NRST*%
X179324000Y-105791000D03*
X181229000Y-108458000D03*
%TO.N,GND*%
X179832000Y-114173000D03*
X180721000Y-109220000D03*
X173101000Y-114681000D03*
X188341000Y-108712000D03*
X188341000Y-109982000D03*
%TO.N,/TXD*%
X184912000Y-107823000D03*
%TO.N,Net-(R7-Pad1)*%
X178308000Y-108331000D03*
%TO.N,Net-(D2-Pad1)*%
X184404000Y-107061000D03*
%TO.N,Net-(D3-Pad1)*%
X184404000Y-106045000D03*
%TO.N,Net-(C2-Pad1)*%
X181356000Y-112903000D03*
%TO.N,Net-(C3-Pad1)*%
X181351402Y-110748604D03*
%TO.N,Net-(R13-Pad1)*%
X176149000Y-116967000D03*
%TO.N,Net-(R8-Pad1)*%
X177292000Y-116967000D03*
%TO.N,Net-(J2-PadA6)*%
X171958000Y-112268000D03*
%TO.N,Net-(D1-Pad1)*%
X173482000Y-116967000D03*
%TO.N,/SWDIO_IN*%
X176149000Y-108458000D03*
%TO.N,+3V3*%
X174498000Y-115570000D03*
X176149000Y-113538000D03*
X184912000Y-109982000D03*
X176276000Y-105791000D03*
X173977157Y-106520379D03*
%TO.N,+5V*%
X171958000Y-113792000D03*
X171216000Y-112883000D03*
X171196000Y-110744000D03*
%TO.N,/SWDIO*%
X176149000Y-109474000D03*
X186779884Y-113246884D03*
%TO.N,/SWCLK*%
X180848000Y-105918000D03*
X177292000Y-112522000D03*
X173609000Y-108585000D03*
X179578000Y-109093000D03*
X186817000Y-112014000D03*
%TO.N,/TXD*%
X186817000Y-110754000D03*
%TO.N,/RXD*%
X182245000Y-106045000D03*
X186817000Y-109474000D03*
%TO.N,Net-(R14-Pad1)*%
X184912000Y-108966000D03*
%TO.N,/ST_SWCLK*%
X177292000Y-113538000D03*
%TO.N,/ST_SWDIO*%
X176149000Y-111506000D03*
%TD*%
D14*
%TO.N,/NRST*%
X179320000Y-105922000D02*
X179324000Y-105918000D01*
X179320000Y-107089500D02*
X179320000Y-105922000D01*
X182426472Y-111002000D02*
X183232500Y-111002000D01*
X181483000Y-110058528D02*
X182426472Y-111002000D01*
X181483000Y-108712000D02*
X181483000Y-110058528D01*
X181229000Y-108458000D02*
X181483000Y-108712000D01*
%TO.N,Net-(C2-Pad1)*%
X181876000Y-112002000D02*
X181356000Y-112522000D01*
X181356000Y-112522000D02*
X181356000Y-112903000D01*
X183232500Y-112002000D02*
X181876000Y-112002000D01*
%TO.N,Net-(C3-Pad1)*%
X181860000Y-111502000D02*
X181351402Y-110993402D01*
X181351402Y-110993402D02*
X181351402Y-110748604D01*
X183232500Y-111502000D02*
X181860000Y-111502000D01*
%TO.N,+3V3*%
X174498000Y-117071000D02*
X174475000Y-117094000D01*
X174498000Y-115570000D02*
X174498000Y-117071000D01*
X176149000Y-113566528D02*
X176149000Y-113538000D01*
X175713528Y-114002000D02*
X176149000Y-113566528D01*
X174907500Y-114002000D02*
X175713528Y-114002000D01*
X181820000Y-116923000D02*
X181864000Y-116967000D01*
X181820000Y-115414500D02*
X181820000Y-116923000D01*
X181820000Y-115414500D02*
X181820000Y-114344000D01*
X182162000Y-114002000D02*
X183232500Y-114002000D01*
X181820000Y-114344000D02*
X182162000Y-114002000D01*
X183411000Y-106045000D02*
X183411000Y-106530000D01*
X183411000Y-106530000D02*
X183411000Y-107061000D01*
X182242010Y-109979010D02*
X183091010Y-109979010D01*
X181991000Y-108224528D02*
X181991000Y-109728000D01*
X182191764Y-108023764D02*
X181991000Y-108224528D01*
X182192990Y-108024990D02*
X182191764Y-108023764D01*
X183114000Y-110002000D02*
X183232500Y-110002000D01*
X183091010Y-109979010D02*
X183114000Y-110002000D01*
X182932010Y-108024990D02*
X182192990Y-108024990D01*
X181991000Y-109728000D02*
X182242010Y-109979010D01*
X183411000Y-107546000D02*
X182932010Y-108024990D01*
X183411000Y-107061000D02*
X183411000Y-107546000D01*
X176320000Y-105835000D02*
X176276000Y-105791000D01*
X176320000Y-107089500D02*
X176320000Y-105835000D01*
X184678000Y-110002000D02*
X184785000Y-110109000D01*
X183232500Y-110002000D02*
X184678000Y-110002000D01*
%TO.N,+5V*%
X170053000Y-112883000D02*
X171216000Y-112883000D01*
X171946000Y-113272000D02*
X171946000Y-113792000D01*
X171557000Y-112883000D02*
X171946000Y-113272000D01*
X171216000Y-112883000D02*
X171557000Y-112883000D01*
X171132002Y-110583002D02*
X171132002Y-110744000D01*
X170932000Y-110383000D02*
X171132002Y-110583002D01*
X170053000Y-110383000D02*
X170932000Y-110383000D01*
D15*
X182880000Y-117729000D02*
X183299053Y-117309947D01*
X174883666Y-117729000D02*
X182880000Y-117729000D01*
X174871656Y-117741010D02*
X174883666Y-117729000D01*
X174078344Y-117741010D02*
X174871656Y-117741010D01*
X173901656Y-117741010D02*
X173913666Y-117729000D01*
X173108344Y-117741010D02*
X173901656Y-117741010D01*
X172847000Y-117729000D02*
X173096334Y-117729000D01*
X174066334Y-117729000D02*
X174078344Y-117741010D01*
X173096334Y-117729000D02*
X173108344Y-117741010D01*
X171946000Y-116828000D02*
X172847000Y-117729000D01*
X173913666Y-117729000D02*
X174066334Y-117729000D01*
X171946000Y-113792000D02*
X171946000Y-116828000D01*
D14*
%TO.N,Net-(D4-Pad2)*%
X171958000Y-107061000D02*
X172504053Y-106514947D01*
X171958000Y-109216000D02*
X171958000Y-107061000D01*
%TO.N,Net-(D5-Pad1)*%
X172974000Y-107569000D02*
X173266053Y-107276947D01*
X172974000Y-109218000D02*
X172974000Y-107569000D01*
D15*
%TO.N,Net-(D6-Pad1)*%
X187656000Y-114504000D02*
X186745000Y-114504000D01*
X183984947Y-116624053D02*
X184785000Y-115824000D01*
X187960000Y-114808000D02*
X187656000Y-114504000D01*
X187960000Y-115316000D02*
X187960000Y-114808000D01*
X187452000Y-115824000D02*
X187960000Y-115316000D01*
X184785000Y-115824000D02*
X187452000Y-115824000D01*
D14*
%TO.N,/SWDIO*%
X176121000Y-109502000D02*
X176149000Y-109474000D01*
X174907500Y-109502000D02*
X176121000Y-109502000D01*
%TO.N,/SWCLK*%
X180848000Y-105918000D02*
X180820000Y-105946000D01*
X180820000Y-105946000D02*
X180820000Y-107089500D01*
X180820000Y-107089500D02*
X180820000Y-107895528D01*
X177292000Y-111423528D02*
X177292000Y-112522000D01*
X180820000Y-107895528D02*
X177292000Y-111423528D01*
X174026000Y-109002000D02*
X173609000Y-108585000D01*
X174907500Y-109002000D02*
X174026000Y-109002000D01*
%TO.N,/TXD*%
X186745000Y-110754000D02*
X186745064Y-110754000D01*
X183232500Y-108502000D02*
X184233000Y-108502000D01*
X184233000Y-108502000D02*
X184912000Y-107823000D01*
%TO.N,/RXD*%
X181820000Y-107089500D02*
X181820000Y-106255000D01*
X182030000Y-106045000D02*
X182245000Y-106045000D01*
X181820000Y-106255000D02*
X182030000Y-106045000D01*
X186745000Y-109504000D02*
X186745048Y-109504000D01*
%TO.N,Net-(J2-PadA6)*%
X171703500Y-112268000D02*
X171956000Y-112268000D01*
X171318500Y-111883000D02*
X171703500Y-112268000D01*
X170053000Y-111883000D02*
X171318500Y-111883000D01*
%TO.N,Net-(J2-PadA7)*%
X171577000Y-111252000D02*
X171958000Y-111252000D01*
X171446000Y-111383000D02*
X171577000Y-111252000D01*
X170053000Y-111383000D02*
X171446000Y-111383000D01*
%TO.N,/SWDIO_IN*%
X176105000Y-108502000D02*
X176149000Y-108458000D01*
X174907500Y-108502000D02*
X176105000Y-108502000D01*
%TO.N,Net-(R6-Pad1)*%
X179832000Y-115426500D02*
X179820000Y-115414500D01*
X179832000Y-116967000D02*
X179832000Y-115426500D01*
%TO.N,Net-(R7-Pad1)*%
X178308000Y-107101500D02*
X178320000Y-107089500D01*
X178308000Y-108331000D02*
X178308000Y-107101500D01*
%TO.N,Net-(R8-Pad1)*%
X177320000Y-116685000D02*
X177320000Y-115414500D01*
X177292000Y-116713000D02*
X177320000Y-116685000D01*
%TO.N,Net-(R9-Pad1)*%
X183232500Y-113502000D02*
X184114000Y-113502000D01*
X184402000Y-113790000D02*
X184785000Y-113790000D01*
X184114000Y-113502000D02*
X184402000Y-113790000D01*
%TO.N,Net-(R10-Pad1)*%
X183232500Y-113002000D02*
X184559000Y-113002000D01*
X184559000Y-113002000D02*
X184785000Y-112776000D01*
X184785000Y-112270000D02*
X184785000Y-112522000D01*
X184785000Y-112522000D02*
X184785000Y-112397000D01*
X184785000Y-112776000D02*
X184785000Y-112522000D01*
%TO.N,/LED_STLINK*%
X172972000Y-110236000D02*
X172974000Y-110238000D01*
X171958000Y-110236000D02*
X172972000Y-110236000D01*
X174078482Y-110979010D02*
X173337472Y-110238000D01*
X174098010Y-110979010D02*
X174078482Y-110979010D01*
X174121000Y-111002000D02*
X174098010Y-110979010D01*
X173337472Y-110238000D02*
X172974000Y-110238000D01*
X174907500Y-111002000D02*
X174121000Y-111002000D01*
%TO.N,Net-(R13-Pad1)*%
X176432118Y-116713000D02*
X176149000Y-116713000D01*
X176820000Y-116325118D02*
X176432118Y-116713000D01*
X176820000Y-115414500D02*
X176820000Y-116325118D01*
%TO.N,Net-(R14-Pad1)*%
X184720500Y-109028500D02*
X184785000Y-108964000D01*
X184576528Y-108964000D02*
X184912000Y-108964000D01*
X184038528Y-109502000D02*
X184576528Y-108964000D01*
X183232500Y-109502000D02*
X184038528Y-109502000D01*
%TO.N,/D-*%
X173351472Y-111252000D02*
X172978000Y-111252000D01*
X174101472Y-112002000D02*
X173351472Y-111252000D01*
X174907500Y-112002000D02*
X174101472Y-112002000D01*
%TO.N,/D+*%
X174907500Y-112502000D02*
X173716000Y-112502000D01*
X173482000Y-112268000D02*
X172976000Y-112268000D01*
X173716000Y-112502000D02*
X173482000Y-112268000D01*
%TO.N,/ST_SWCLK*%
X176320000Y-114510000D02*
X177292000Y-113538000D01*
X176320000Y-115414500D02*
X176320000Y-114510000D01*
%TO.N,/ST_SWDIO*%
X176149000Y-112566528D02*
X176149000Y-111506000D01*
X175713528Y-113002000D02*
X176149000Y-112566528D01*
X174907500Y-113002000D02*
X175713528Y-113002000D01*
%TD*%
%TO.N,GND*%
X171045595Y-113444750D02*
X171158461Y-113467200D01*
X171273539Y-113467200D01*
X171368005Y-113448410D01*
X171343268Y-113529957D01*
X171334203Y-113622000D01*
X171334203Y-113962000D01*
X171343268Y-114054043D01*
X171361800Y-114115135D01*
X171361801Y-116799306D01*
X171358975Y-116828000D01*
X171370254Y-116942523D01*
X171403659Y-117052644D01*
X171411326Y-117066987D01*
X171457907Y-117154134D01*
X171489345Y-117192442D01*
X171512620Y-117220803D01*
X171512623Y-117220806D01*
X171530911Y-117243090D01*
X171553195Y-117261378D01*
X172300617Y-118008800D01*
X169265200Y-118008800D01*
X169265200Y-114320391D01*
X169301027Y-114339540D01*
X169363270Y-114358422D01*
X169428000Y-114364797D01*
X170678000Y-114364797D01*
X170742730Y-114358422D01*
X170804973Y-114339540D01*
X170862337Y-114308879D01*
X170912616Y-114267616D01*
X170953879Y-114217337D01*
X170984540Y-114159973D01*
X171003422Y-114097730D01*
X171009797Y-114033000D01*
X171009797Y-113733000D01*
X171003422Y-113668270D01*
X170992723Y-113633000D01*
X171003422Y-113597730D01*
X171009797Y-113533000D01*
X171009797Y-113429922D01*
X171045595Y-113444750D01*
%TA.AperFunction,Conductor*%
D16*
G36*
X171045595Y-113444750D02*
G01*
X171158461Y-113467200D01*
X171273539Y-113467200D01*
X171368005Y-113448410D01*
X171343268Y-113529957D01*
X171334203Y-113622000D01*
X171334203Y-113962000D01*
X171343268Y-114054043D01*
X171361800Y-114115135D01*
X171361801Y-116799306D01*
X171358975Y-116828000D01*
X171370254Y-116942523D01*
X171403659Y-117052644D01*
X171411326Y-117066987D01*
X171457907Y-117154134D01*
X171489345Y-117192442D01*
X171512620Y-117220803D01*
X171512623Y-117220806D01*
X171530911Y-117243090D01*
X171553195Y-117261378D01*
X172300617Y-118008800D01*
X169265200Y-118008800D01*
X169265200Y-114320391D01*
X169301027Y-114339540D01*
X169363270Y-114358422D01*
X169428000Y-114364797D01*
X170678000Y-114364797D01*
X170742730Y-114358422D01*
X170804973Y-114339540D01*
X170862337Y-114308879D01*
X170912616Y-114267616D01*
X170953879Y-114217337D01*
X170984540Y-114159973D01*
X171003422Y-114097730D01*
X171009797Y-114033000D01*
X171009797Y-113733000D01*
X171003422Y-113668270D01*
X170992723Y-113633000D01*
X171003422Y-113597730D01*
X171009797Y-113533000D01*
X171009797Y-113429922D01*
X171045595Y-113444750D01*
G37*
%TD.AperFunction*%
D14*
X191668801Y-105855194D02*
X191655747Y-105830771D01*
X191583393Y-105742607D01*
X191495229Y-105670253D01*
X191394644Y-105616490D01*
X191285503Y-105583382D01*
X191172000Y-105572203D01*
X188972000Y-105572203D01*
X188858497Y-105583382D01*
X188749356Y-105616490D01*
X188648771Y-105670253D01*
X188560607Y-105742607D01*
X188488253Y-105830771D01*
X188434490Y-105931356D01*
X188401382Y-106040497D01*
X188390203Y-106154000D01*
X188390203Y-106654000D01*
X188401382Y-106767503D01*
X188434490Y-106876644D01*
X188488253Y-106977229D01*
X188560607Y-107065393D01*
X188648771Y-107137747D01*
X188749356Y-107191510D01*
X188858497Y-107224618D01*
X188972000Y-107235797D01*
X191172000Y-107235797D01*
X191285503Y-107224618D01*
X191394644Y-107191510D01*
X191495229Y-107137747D01*
X191583393Y-107065393D01*
X191655747Y-106977229D01*
X191668801Y-106952807D01*
X191668800Y-115805192D01*
X191655747Y-115780771D01*
X191583393Y-115692607D01*
X191495229Y-115620253D01*
X191394644Y-115566490D01*
X191285503Y-115533382D01*
X191172000Y-115522203D01*
X188972000Y-115522203D01*
X188858497Y-115533382D01*
X188749356Y-115566490D01*
X188648771Y-115620253D01*
X188560607Y-115692607D01*
X188488253Y-115780771D01*
X188434490Y-115881356D01*
X188401382Y-115990497D01*
X188390203Y-116104000D01*
X188390203Y-116604000D01*
X188401382Y-116717503D01*
X188434490Y-116826644D01*
X188488253Y-116927229D01*
X188560607Y-117015393D01*
X188648771Y-117087747D01*
X188749356Y-117141510D01*
X188858497Y-117174618D01*
X188972000Y-117185797D01*
X191172000Y-117185797D01*
X191285503Y-117174618D01*
X191394644Y-117141510D01*
X191495229Y-117087747D01*
X191583393Y-117015393D01*
X191655747Y-116927229D01*
X191668800Y-116902808D01*
X191668800Y-118008800D01*
X183426383Y-118008800D01*
X183436990Y-117998193D01*
X183500150Y-117979034D01*
X183583014Y-117934742D01*
X183655645Y-117875135D01*
X183864241Y-117666539D01*
X183923848Y-117593908D01*
X183968140Y-117511044D01*
X183995414Y-117421131D01*
X184004445Y-117329445D01*
X184096131Y-117320414D01*
X184186044Y-117293140D01*
X184268908Y-117248848D01*
X184341539Y-117189241D01*
X184550135Y-116980645D01*
X184609742Y-116908014D01*
X184654034Y-116825150D01*
X184673193Y-116761991D01*
X185026984Y-116408200D01*
X187423316Y-116408200D01*
X187452000Y-116411025D01*
X187480684Y-116408200D01*
X187480692Y-116408200D01*
X187566523Y-116399746D01*
X187676645Y-116366341D01*
X187778134Y-116312094D01*
X187867090Y-116239090D01*
X187885382Y-116216801D01*
X188352802Y-115749381D01*
X188375090Y-115731090D01*
X188448094Y-115642134D01*
X188502341Y-115540645D01*
X188535746Y-115430523D01*
X188544200Y-115344692D01*
X188544200Y-115344683D01*
X188547025Y-115316001D01*
X188544200Y-115287319D01*
X188544200Y-114836684D01*
X188547025Y-114808000D01*
X188544200Y-114779316D01*
X188544200Y-114779308D01*
X188535746Y-114693477D01*
X188502341Y-114583355D01*
X188448094Y-114481866D01*
X188375090Y-114392910D01*
X188352801Y-114374618D01*
X188089382Y-114111199D01*
X188071090Y-114088910D01*
X187982134Y-114015906D01*
X187880645Y-113961659D01*
X187821633Y-113943758D01*
X187756376Y-113908878D01*
X187665994Y-113881461D01*
X187641008Y-113879000D01*
X187665994Y-113876539D01*
X187756376Y-113849122D01*
X187839672Y-113804600D01*
X187912682Y-113744682D01*
X187972600Y-113671672D01*
X188017122Y-113588376D01*
X188044539Y-113497994D01*
X188053797Y-113404000D01*
X188053797Y-113104000D01*
X188044539Y-113010006D01*
X188017122Y-112919624D01*
X187972600Y-112836328D01*
X187912682Y-112763318D01*
X187839672Y-112703400D01*
X187756376Y-112658878D01*
X187665994Y-112631461D01*
X187641008Y-112629000D01*
X187665994Y-112626539D01*
X187756376Y-112599122D01*
X187839672Y-112554600D01*
X187912682Y-112494682D01*
X187972600Y-112421672D01*
X188017122Y-112338376D01*
X188044539Y-112247994D01*
X188053797Y-112154000D01*
X188053797Y-111854000D01*
X188044539Y-111760006D01*
X188017122Y-111669624D01*
X187972600Y-111586328D01*
X187912682Y-111513318D01*
X187839672Y-111453400D01*
X187756376Y-111408878D01*
X187665994Y-111381461D01*
X187641008Y-111379000D01*
X187665994Y-111376539D01*
X187756376Y-111349122D01*
X187839672Y-111304600D01*
X187912682Y-111244682D01*
X187972600Y-111171672D01*
X188017122Y-111088376D01*
X188044539Y-110997994D01*
X188053797Y-110904000D01*
X188053797Y-110604000D01*
X188044539Y-110510006D01*
X188017122Y-110419624D01*
X187972600Y-110336328D01*
X187912682Y-110263318D01*
X187839672Y-110203400D01*
X187756376Y-110158878D01*
X187665994Y-110131461D01*
X187641008Y-110129000D01*
X187665994Y-110126539D01*
X187756376Y-110099122D01*
X187839672Y-110054600D01*
X187912682Y-109994682D01*
X187972600Y-109921672D01*
X188017122Y-109838376D01*
X188044539Y-109747994D01*
X188053797Y-109654000D01*
X188053797Y-109354000D01*
X188044539Y-109260006D01*
X188017122Y-109169624D01*
X187972600Y-109086328D01*
X187912682Y-109013318D01*
X187839672Y-108953400D01*
X187756376Y-108908878D01*
X187665994Y-108881461D01*
X187572000Y-108872203D01*
X186172000Y-108872203D01*
X186078006Y-108881461D01*
X185987624Y-108908878D01*
X185904328Y-108953400D01*
X185831318Y-109013318D01*
X185771400Y-109086328D01*
X185726878Y-109169624D01*
X185699461Y-109260006D01*
X185690203Y-109354000D01*
X185690203Y-109654000D01*
X185699461Y-109747994D01*
X185726878Y-109838376D01*
X185771400Y-109921672D01*
X185831318Y-109994682D01*
X185904328Y-110054600D01*
X185987624Y-110099122D01*
X186078006Y-110126539D01*
X186102992Y-110129000D01*
X186078006Y-110131461D01*
X185987624Y-110158878D01*
X185904328Y-110203400D01*
X185831318Y-110263318D01*
X185771400Y-110336328D01*
X185726878Y-110419624D01*
X185699461Y-110510006D01*
X185690203Y-110604000D01*
X185690203Y-110904000D01*
X185699461Y-110997994D01*
X185726878Y-111088376D01*
X185771400Y-111171672D01*
X185831318Y-111244682D01*
X185904328Y-111304600D01*
X185987624Y-111349122D01*
X186078006Y-111376539D01*
X186102992Y-111379000D01*
X186078006Y-111381461D01*
X185987624Y-111408878D01*
X185904328Y-111453400D01*
X185831318Y-111513318D01*
X185771400Y-111586328D01*
X185726878Y-111669624D01*
X185699461Y-111760006D01*
X185690203Y-111854000D01*
X185690203Y-112154000D01*
X185699461Y-112247994D01*
X185726878Y-112338376D01*
X185771400Y-112421672D01*
X185831318Y-112494682D01*
X185904328Y-112554600D01*
X185987624Y-112599122D01*
X186078006Y-112626539D01*
X186102992Y-112629000D01*
X186078006Y-112631461D01*
X185987624Y-112658878D01*
X185904328Y-112703400D01*
X185831318Y-112763318D01*
X185771400Y-112836328D01*
X185726878Y-112919624D01*
X185699461Y-113010006D01*
X185690203Y-113104000D01*
X185690203Y-113404000D01*
X185699461Y-113497994D01*
X185726878Y-113588376D01*
X185771400Y-113671672D01*
X185831318Y-113744682D01*
X185904328Y-113804600D01*
X185987624Y-113849122D01*
X186078006Y-113876539D01*
X186102992Y-113879000D01*
X186078006Y-113881461D01*
X185987624Y-113908878D01*
X185904328Y-113953400D01*
X185831318Y-114013318D01*
X185771400Y-114086328D01*
X185726878Y-114169624D01*
X185699461Y-114260006D01*
X185690203Y-114354000D01*
X185690203Y-114654000D01*
X185699461Y-114747994D01*
X185726878Y-114838376D01*
X185771400Y-114921672D01*
X185831318Y-114994682D01*
X185904328Y-115054600D01*
X185987624Y-115099122D01*
X186078006Y-115126539D01*
X186172000Y-115135797D01*
X187314020Y-115135797D01*
X187210017Y-115239800D01*
X184813692Y-115239800D01*
X184785000Y-115236974D01*
X184756308Y-115239800D01*
X184670477Y-115248254D01*
X184560355Y-115281659D01*
X184458866Y-115335906D01*
X184392196Y-115390620D01*
X184392194Y-115390622D01*
X184369910Y-115408910D01*
X184351622Y-115431194D01*
X183847009Y-115935807D01*
X183783850Y-115954966D01*
X183700986Y-115999258D01*
X183628355Y-116058865D01*
X183419759Y-116267461D01*
X183360152Y-116340092D01*
X183315860Y-116422956D01*
X183288586Y-116512869D01*
X183279555Y-116604555D01*
X183187869Y-116613586D01*
X183097956Y-116640860D01*
X183015092Y-116685152D01*
X182942461Y-116744759D01*
X182733865Y-116953355D01*
X182674258Y-117025986D01*
X182629966Y-117108850D01*
X182619061Y-117144800D01*
X182422687Y-117144800D01*
X182425750Y-117137405D01*
X182448200Y-117024539D01*
X182448200Y-116909461D01*
X182425750Y-116796595D01*
X182381712Y-116690277D01*
X182317778Y-116594594D01*
X182277200Y-116554016D01*
X182277200Y-116211679D01*
X182293981Y-116156362D01*
X182301797Y-116077000D01*
X182301797Y-114752000D01*
X182293981Y-114672638D01*
X182277200Y-114617321D01*
X182277200Y-114533377D01*
X182351378Y-114459200D01*
X182435321Y-114459200D01*
X182490638Y-114475981D01*
X182570000Y-114483797D01*
X183895000Y-114483797D01*
X183974362Y-114475981D01*
X184050674Y-114452831D01*
X184121004Y-114415239D01*
X184182649Y-114364649D01*
X184233239Y-114303004D01*
X184270831Y-114232674D01*
X184272134Y-114228378D01*
X184284910Y-114232254D01*
X184312373Y-114240585D01*
X184379540Y-114247200D01*
X184379548Y-114247200D01*
X184391422Y-114248369D01*
X184396925Y-114255075D01*
X184467661Y-114313128D01*
X184548365Y-114356264D01*
X184635932Y-114382828D01*
X184727000Y-114391797D01*
X185097000Y-114391797D01*
X185188068Y-114382828D01*
X185275635Y-114356264D01*
X185356339Y-114313128D01*
X185427075Y-114255075D01*
X185485128Y-114184339D01*
X185528264Y-114103635D01*
X185554828Y-114016068D01*
X185563797Y-113925000D01*
X185563797Y-113655000D01*
X185554828Y-113563932D01*
X185528264Y-113476365D01*
X185485128Y-113395661D01*
X185427075Y-113324925D01*
X185356339Y-113266872D01*
X185275635Y-113223736D01*
X185188068Y-113197172D01*
X185097000Y-113188203D01*
X185019374Y-113188203D01*
X185092404Y-113115173D01*
X185109853Y-113100853D01*
X185166987Y-113031236D01*
X185209441Y-112951809D01*
X185235585Y-112865627D01*
X185237333Y-112847883D01*
X185275635Y-112836264D01*
X185356339Y-112793128D01*
X185427075Y-112735075D01*
X185485128Y-112664339D01*
X185528264Y-112583635D01*
X185554828Y-112496068D01*
X185563797Y-112405000D01*
X185563797Y-112135000D01*
X185554828Y-112043932D01*
X185528264Y-111956365D01*
X185485128Y-111875661D01*
X185427075Y-111804925D01*
X185356339Y-111746872D01*
X185275635Y-111703736D01*
X185188068Y-111677172D01*
X185097000Y-111668203D01*
X184727000Y-111668203D01*
X184635932Y-111677172D01*
X184548365Y-111703736D01*
X184467661Y-111746872D01*
X184396925Y-111804925D01*
X184338872Y-111875661D01*
X184301797Y-111945025D01*
X184301797Y-111927000D01*
X184293981Y-111847638D01*
X184270831Y-111771326D01*
X184260501Y-111752000D01*
X184270831Y-111732674D01*
X184293981Y-111656362D01*
X184301797Y-111577000D01*
X184301797Y-111427000D01*
X184293981Y-111347638D01*
X184270831Y-111271326D01*
X184260501Y-111252000D01*
X184270831Y-111232674D01*
X184293981Y-111156362D01*
X184301797Y-111077000D01*
X184301797Y-110927000D01*
X184293981Y-110847638D01*
X184270831Y-110771326D01*
X184233239Y-110700996D01*
X184182649Y-110639351D01*
X184121004Y-110588761D01*
X184050674Y-110551169D01*
X183974362Y-110528019D01*
X183895000Y-110520203D01*
X182591253Y-110520203D01*
X182553191Y-110482142D01*
X182570000Y-110483797D01*
X183895000Y-110483797D01*
X183974362Y-110475981D01*
X184029679Y-110459200D01*
X184409262Y-110459200D01*
X184467661Y-110507128D01*
X184548365Y-110550264D01*
X184635932Y-110576828D01*
X184727000Y-110585797D01*
X185097000Y-110585797D01*
X185188068Y-110576828D01*
X185275635Y-110550264D01*
X185356339Y-110507128D01*
X185427075Y-110449075D01*
X185485128Y-110378339D01*
X185528264Y-110297635D01*
X185554828Y-110210068D01*
X185563797Y-110119000D01*
X185563797Y-109849000D01*
X185554828Y-109757932D01*
X185528264Y-109670365D01*
X185485128Y-109589661D01*
X185427075Y-109518925D01*
X185372335Y-109474000D01*
X185427075Y-109429075D01*
X185485128Y-109358339D01*
X185528264Y-109277635D01*
X185554828Y-109190068D01*
X185563797Y-109099000D01*
X185563797Y-108829000D01*
X185554828Y-108737932D01*
X185528264Y-108650365D01*
X185485128Y-108569661D01*
X185427075Y-108498925D01*
X185356339Y-108440872D01*
X185275635Y-108397736D01*
X185188068Y-108371172D01*
X185129186Y-108365373D01*
X185188723Y-108340712D01*
X185284406Y-108276778D01*
X185365778Y-108195406D01*
X185429712Y-108099723D01*
X185473750Y-107993405D01*
X185496200Y-107880539D01*
X185496200Y-107765461D01*
X185473750Y-107652595D01*
X185429712Y-107546277D01*
X185365778Y-107450594D01*
X185284406Y-107369222D01*
X185188723Y-107305288D01*
X185082405Y-107261250D01*
X185006550Y-107246162D01*
X185007797Y-107233500D01*
X185007797Y-106888500D01*
X184998587Y-106794994D01*
X184971313Y-106705081D01*
X184927021Y-106622217D01*
X184870216Y-106553000D01*
X184927021Y-106483783D01*
X184971313Y-106400919D01*
X184998587Y-106311006D01*
X185007797Y-106217500D01*
X185007797Y-105872500D01*
X184998587Y-105778994D01*
X184971313Y-105689081D01*
X184927021Y-105606217D01*
X184867414Y-105533586D01*
X184794783Y-105473979D01*
X184711919Y-105429687D01*
X184622006Y-105402413D01*
X184528500Y-105393203D01*
X184233500Y-105393203D01*
X184139994Y-105402413D01*
X184050081Y-105429687D01*
X183967217Y-105473979D01*
X183896000Y-105532426D01*
X183824783Y-105473979D01*
X183741919Y-105429687D01*
X183652006Y-105402413D01*
X183558500Y-105393203D01*
X183263500Y-105393203D01*
X183169994Y-105402413D01*
X183080081Y-105429687D01*
X182997217Y-105473979D01*
X182924586Y-105533586D01*
X182864979Y-105606217D01*
X182820687Y-105689081D01*
X182793413Y-105778994D01*
X182788368Y-105830216D01*
X182762712Y-105768277D01*
X182698778Y-105672594D01*
X182617406Y-105591222D01*
X182521723Y-105527288D01*
X182415405Y-105483250D01*
X182302539Y-105460800D01*
X182187461Y-105460800D01*
X182074595Y-105483250D01*
X181968277Y-105527288D01*
X181872594Y-105591222D01*
X181830702Y-105633114D01*
X181774764Y-105663013D01*
X181705147Y-105720147D01*
X181690826Y-105737597D01*
X181512593Y-105915830D01*
X181495148Y-105930147D01*
X181480831Y-105947592D01*
X181480830Y-105947593D01*
X181438013Y-105999765D01*
X181425484Y-106023205D01*
X181422772Y-106022938D01*
X181432200Y-105975539D01*
X181432200Y-105860461D01*
X181409750Y-105747595D01*
X181365712Y-105641277D01*
X181301778Y-105545594D01*
X181220406Y-105464222D01*
X181124723Y-105400288D01*
X181018405Y-105356250D01*
X180905539Y-105333800D01*
X180790461Y-105333800D01*
X180677595Y-105356250D01*
X180571277Y-105400288D01*
X180475594Y-105464222D01*
X180394222Y-105545594D01*
X180330288Y-105641277D01*
X180286250Y-105747595D01*
X180263800Y-105860461D01*
X180263800Y-105975539D01*
X180272684Y-106020203D01*
X180245000Y-106020203D01*
X180165638Y-106028019D01*
X180089326Y-106051169D01*
X180070000Y-106061499D01*
X180050674Y-106051169D01*
X179974362Y-106028019D01*
X179895000Y-106020203D01*
X179861395Y-106020203D01*
X179885750Y-105961405D01*
X179908200Y-105848539D01*
X179908200Y-105733461D01*
X179885750Y-105620595D01*
X179841712Y-105514277D01*
X179777778Y-105418594D01*
X179696406Y-105337222D01*
X179600723Y-105273288D01*
X179494405Y-105229250D01*
X179381539Y-105206800D01*
X179266461Y-105206800D01*
X179153595Y-105229250D01*
X179047277Y-105273288D01*
X178951594Y-105337222D01*
X178870222Y-105418594D01*
X178806288Y-105514277D01*
X178762250Y-105620595D01*
X178739800Y-105733461D01*
X178739800Y-105848539D01*
X178762250Y-105961405D01*
X178786605Y-106020203D01*
X178745000Y-106020203D01*
X178665638Y-106028019D01*
X178589326Y-106051169D01*
X178570000Y-106061499D01*
X178550674Y-106051169D01*
X178474362Y-106028019D01*
X178395000Y-106020203D01*
X178245000Y-106020203D01*
X178165638Y-106028019D01*
X178089326Y-106051169D01*
X178070000Y-106061499D01*
X178050674Y-106051169D01*
X177974362Y-106028019D01*
X177895000Y-106020203D01*
X177745000Y-106020203D01*
X177665638Y-106028019D01*
X177589326Y-106051169D01*
X177570000Y-106061499D01*
X177550674Y-106051169D01*
X177474362Y-106028019D01*
X177395000Y-106020203D01*
X177245000Y-106020203D01*
X177165638Y-106028019D01*
X177089326Y-106051169D01*
X177018996Y-106088761D01*
X176957351Y-106139351D01*
X176906761Y-106200996D01*
X176869169Y-106271326D01*
X176846019Y-106347638D01*
X176838203Y-106427000D01*
X176838203Y-107752000D01*
X176846019Y-107831362D01*
X176869169Y-107907674D01*
X176906761Y-107978004D01*
X176957351Y-108039649D01*
X177018996Y-108090239D01*
X177089326Y-108127831D01*
X177165638Y-108150981D01*
X177245000Y-108158797D01*
X177395000Y-108158797D01*
X177474362Y-108150981D01*
X177550674Y-108127831D01*
X177570000Y-108117501D01*
X177589326Y-108127831D01*
X177665638Y-108150981D01*
X177745000Y-108158797D01*
X177746995Y-108158797D01*
X177746250Y-108160595D01*
X177723800Y-108273461D01*
X177723800Y-108388539D01*
X177746250Y-108501405D01*
X177790288Y-108607723D01*
X177854222Y-108703406D01*
X177935594Y-108784778D01*
X178031277Y-108848712D01*
X178137595Y-108892750D01*
X178250461Y-108915200D01*
X178365539Y-108915200D01*
X178478405Y-108892750D01*
X178584723Y-108848712D01*
X178680406Y-108784778D01*
X178761778Y-108703406D01*
X178825712Y-108607723D01*
X178869750Y-108501405D01*
X178892200Y-108388539D01*
X178892200Y-108273461D01*
X178869750Y-108160595D01*
X178869005Y-108158797D01*
X178895000Y-108158797D01*
X178974362Y-108150981D01*
X179050674Y-108127831D01*
X179070000Y-108117501D01*
X179089326Y-108127831D01*
X179165638Y-108150981D01*
X179245000Y-108158797D01*
X179395000Y-108158797D01*
X179474362Y-108150981D01*
X179550674Y-108127831D01*
X179570000Y-108117501D01*
X179589326Y-108127831D01*
X179665638Y-108150981D01*
X179745000Y-108158797D01*
X179895000Y-108158797D01*
X179911809Y-108157142D01*
X179560150Y-108508800D01*
X179520461Y-108508800D01*
X179407595Y-108531250D01*
X179301277Y-108575288D01*
X179205594Y-108639222D01*
X179124222Y-108720594D01*
X179060288Y-108816277D01*
X179016250Y-108922595D01*
X178993800Y-109035461D01*
X178993800Y-109075150D01*
X176984597Y-111084354D01*
X176967147Y-111098675D01*
X176910013Y-111168293D01*
X176867559Y-111247720D01*
X176841415Y-111333902D01*
X176834800Y-111401069D01*
X176834800Y-111401078D01*
X176832589Y-111423528D01*
X176834800Y-111445978D01*
X176834801Y-112154714D01*
X176774288Y-112245277D01*
X176730250Y-112351595D01*
X176707800Y-112464461D01*
X176707800Y-112579539D01*
X176730250Y-112692405D01*
X176774288Y-112798723D01*
X176838222Y-112894406D01*
X176919594Y-112975778D01*
X177000742Y-113030000D01*
X176919594Y-113084222D01*
X176838222Y-113165594D01*
X176774288Y-113261277D01*
X176730250Y-113367595D01*
X176720500Y-113416613D01*
X176710750Y-113367595D01*
X176666712Y-113261277D01*
X176602778Y-113165594D01*
X176521406Y-113084222D01*
X176425723Y-113020288D01*
X176366393Y-112995713D01*
X176456409Y-112905697D01*
X176473853Y-112891381D01*
X176500902Y-112858422D01*
X176530987Y-112821765D01*
X176559929Y-112767616D01*
X176573441Y-112742337D01*
X176599585Y-112656155D01*
X176606200Y-112588988D01*
X176606200Y-112588979D01*
X176608411Y-112566529D01*
X176606200Y-112544079D01*
X176606200Y-111873285D01*
X176666712Y-111782723D01*
X176710750Y-111676405D01*
X176733200Y-111563539D01*
X176733200Y-111448461D01*
X176710750Y-111335595D01*
X176666712Y-111229277D01*
X176602778Y-111133594D01*
X176521406Y-111052222D01*
X176425723Y-110988288D01*
X176319405Y-110944250D01*
X176206539Y-110921800D01*
X176091461Y-110921800D01*
X175978595Y-110944250D01*
X175976797Y-110944995D01*
X175976797Y-110927000D01*
X175968981Y-110847638D01*
X175945831Y-110771326D01*
X175935501Y-110752000D01*
X175945831Y-110732674D01*
X175968981Y-110656362D01*
X175976797Y-110577000D01*
X175976797Y-110427000D01*
X175968981Y-110347638D01*
X175945831Y-110271326D01*
X175935501Y-110252000D01*
X175945831Y-110232674D01*
X175968981Y-110156362D01*
X175976797Y-110077000D01*
X175976797Y-110035005D01*
X175978595Y-110035750D01*
X176091461Y-110058200D01*
X176206539Y-110058200D01*
X176319405Y-110035750D01*
X176425723Y-109991712D01*
X176521406Y-109927778D01*
X176602778Y-109846406D01*
X176666712Y-109750723D01*
X176710750Y-109644405D01*
X176733200Y-109531539D01*
X176733200Y-109416461D01*
X176710750Y-109303595D01*
X176666712Y-109197277D01*
X176602778Y-109101594D01*
X176521406Y-109020222D01*
X176440258Y-108966000D01*
X176521406Y-108911778D01*
X176602778Y-108830406D01*
X176666712Y-108734723D01*
X176710750Y-108628405D01*
X176733200Y-108515539D01*
X176733200Y-108400461D01*
X176710750Y-108287595D01*
X176666712Y-108181277D01*
X176609861Y-108096195D01*
X176621004Y-108090239D01*
X176682649Y-108039649D01*
X176733239Y-107978004D01*
X176770831Y-107907674D01*
X176793981Y-107831362D01*
X176801797Y-107752000D01*
X176801797Y-106427000D01*
X176793981Y-106347638D01*
X176777200Y-106292321D01*
X176777200Y-106092435D01*
X176793712Y-106067723D01*
X176837750Y-105961405D01*
X176860200Y-105848539D01*
X176860200Y-105733461D01*
X176837750Y-105620595D01*
X176793712Y-105514277D01*
X176729778Y-105418594D01*
X176648406Y-105337222D01*
X176552723Y-105273288D01*
X176446405Y-105229250D01*
X176333539Y-105206800D01*
X176218461Y-105206800D01*
X176105595Y-105229250D01*
X175999277Y-105273288D01*
X175903594Y-105337222D01*
X175822222Y-105418594D01*
X175758288Y-105514277D01*
X175714250Y-105620595D01*
X175691800Y-105733461D01*
X175691800Y-105848539D01*
X175714250Y-105961405D01*
X175758288Y-106067723D01*
X175822222Y-106163406D01*
X175862801Y-106203985D01*
X175862801Y-106292319D01*
X175846019Y-106347638D01*
X175838203Y-106427000D01*
X175838203Y-107752000D01*
X175846019Y-107831362D01*
X175869169Y-107907674D01*
X175884005Y-107935430D01*
X175872277Y-107940288D01*
X175776594Y-108004222D01*
X175736016Y-108044800D01*
X175704679Y-108044800D01*
X175649362Y-108028019D01*
X175570000Y-108020203D01*
X174245000Y-108020203D01*
X174165638Y-108028019D01*
X174089326Y-108051169D01*
X174018996Y-108088761D01*
X173973607Y-108126011D01*
X173885723Y-108067288D01*
X173779405Y-108023250D01*
X173666539Y-108000800D01*
X173551461Y-108000800D01*
X173438595Y-108023250D01*
X173431200Y-108026313D01*
X173431200Y-107956939D01*
X173467150Y-107946034D01*
X173550014Y-107901742D01*
X173622645Y-107842135D01*
X173831241Y-107633539D01*
X173890848Y-107560908D01*
X173935140Y-107478044D01*
X173962414Y-107388131D01*
X173971445Y-107296445D01*
X174063131Y-107287414D01*
X174153044Y-107260140D01*
X174235908Y-107215848D01*
X174308539Y-107156241D01*
X174517135Y-106947645D01*
X174576742Y-106875014D01*
X174621034Y-106792150D01*
X174648308Y-106702237D01*
X174657518Y-106608731D01*
X174648308Y-106515225D01*
X174621034Y-106425312D01*
X174576742Y-106342448D01*
X174517135Y-106269817D01*
X174497623Y-106250305D01*
X174494869Y-106243656D01*
X174430935Y-106147973D01*
X174349563Y-106066601D01*
X174253880Y-106002667D01*
X174235782Y-105995171D01*
X174200552Y-105966258D01*
X174117688Y-105921966D01*
X174027775Y-105894692D01*
X173934269Y-105885482D01*
X173840763Y-105894692D01*
X173750850Y-105921966D01*
X173667986Y-105966258D01*
X173595355Y-106025865D01*
X173386759Y-106234461D01*
X173327152Y-106307092D01*
X173282860Y-106389956D01*
X173255586Y-106479869D01*
X173246555Y-106571555D01*
X173205390Y-106575610D01*
X173209624Y-106532625D01*
X173200414Y-106439119D01*
X173173140Y-106349206D01*
X173128848Y-106266342D01*
X173069241Y-106193711D01*
X172825289Y-105949759D01*
X172752658Y-105890152D01*
X172669794Y-105845860D01*
X172579881Y-105818586D01*
X172486375Y-105809376D01*
X172392869Y-105818586D01*
X172302956Y-105845860D01*
X172220092Y-105890152D01*
X172147461Y-105949759D01*
X171938865Y-106158355D01*
X171879258Y-106230986D01*
X171834966Y-106313850D01*
X171807692Y-106403763D01*
X171798482Y-106497269D01*
X171805357Y-106567066D01*
X171650592Y-106721831D01*
X171633148Y-106736147D01*
X171618831Y-106753592D01*
X171618830Y-106753593D01*
X171576013Y-106805765D01*
X171554366Y-106846265D01*
X171533560Y-106885191D01*
X171512553Y-106954441D01*
X171507416Y-106971374D01*
X171498589Y-107061000D01*
X171500801Y-107083460D01*
X171500800Y-108703427D01*
X171442925Y-108750925D01*
X171384872Y-108821661D01*
X171341736Y-108902365D01*
X171315172Y-108989932D01*
X171306203Y-109081000D01*
X171306203Y-109351000D01*
X171315172Y-109442068D01*
X171341736Y-109529635D01*
X171384872Y-109610339D01*
X171442925Y-109681075D01*
X171497665Y-109726000D01*
X171442925Y-109770925D01*
X171384872Y-109841661D01*
X171341736Y-109922365D01*
X171315172Y-110009932D01*
X171306203Y-110101000D01*
X171306203Y-110110626D01*
X171271174Y-110075596D01*
X171256853Y-110058147D01*
X171187236Y-110001013D01*
X171107809Y-109958559D01*
X171021627Y-109932415D01*
X171009797Y-109931250D01*
X171009797Y-109733000D01*
X171003422Y-109668270D01*
X170992723Y-109633000D01*
X171003422Y-109597730D01*
X171009797Y-109533000D01*
X171009797Y-109233000D01*
X171003422Y-109168270D01*
X170984540Y-109106027D01*
X170953879Y-109048663D01*
X170912616Y-108998384D01*
X170862337Y-108957121D01*
X170804973Y-108926460D01*
X170742730Y-108907578D01*
X170678000Y-108901203D01*
X169428000Y-108901203D01*
X169363270Y-108907578D01*
X169301027Y-108926460D01*
X169265200Y-108945609D01*
X169265200Y-105130200D01*
X191668801Y-105130200D01*
X191668801Y-105855194D01*
%TA.AperFunction,Conductor*%
D16*
G36*
X191668801Y-105855194D02*
G01*
X191655747Y-105830771D01*
X191583393Y-105742607D01*
X191495229Y-105670253D01*
X191394644Y-105616490D01*
X191285503Y-105583382D01*
X191172000Y-105572203D01*
X188972000Y-105572203D01*
X188858497Y-105583382D01*
X188749356Y-105616490D01*
X188648771Y-105670253D01*
X188560607Y-105742607D01*
X188488253Y-105830771D01*
X188434490Y-105931356D01*
X188401382Y-106040497D01*
X188390203Y-106154000D01*
X188390203Y-106654000D01*
X188401382Y-106767503D01*
X188434490Y-106876644D01*
X188488253Y-106977229D01*
X188560607Y-107065393D01*
X188648771Y-107137747D01*
X188749356Y-107191510D01*
X188858497Y-107224618D01*
X188972000Y-107235797D01*
X191172000Y-107235797D01*
X191285503Y-107224618D01*
X191394644Y-107191510D01*
X191495229Y-107137747D01*
X191583393Y-107065393D01*
X191655747Y-106977229D01*
X191668801Y-106952807D01*
X191668800Y-115805192D01*
X191655747Y-115780771D01*
X191583393Y-115692607D01*
X191495229Y-115620253D01*
X191394644Y-115566490D01*
X191285503Y-115533382D01*
X191172000Y-115522203D01*
X188972000Y-115522203D01*
X188858497Y-115533382D01*
X188749356Y-115566490D01*
X188648771Y-115620253D01*
X188560607Y-115692607D01*
X188488253Y-115780771D01*
X188434490Y-115881356D01*
X188401382Y-115990497D01*
X188390203Y-116104000D01*
X188390203Y-116604000D01*
X188401382Y-116717503D01*
X188434490Y-116826644D01*
X188488253Y-116927229D01*
X188560607Y-117015393D01*
X188648771Y-117087747D01*
X188749356Y-117141510D01*
X188858497Y-117174618D01*
X188972000Y-117185797D01*
X191172000Y-117185797D01*
X191285503Y-117174618D01*
X191394644Y-117141510D01*
X191495229Y-117087747D01*
X191583393Y-117015393D01*
X191655747Y-116927229D01*
X191668800Y-116902808D01*
X191668800Y-118008800D01*
X183426383Y-118008800D01*
X183436990Y-117998193D01*
X183500150Y-117979034D01*
X183583014Y-117934742D01*
X183655645Y-117875135D01*
X183864241Y-117666539D01*
X183923848Y-117593908D01*
X183968140Y-117511044D01*
X183995414Y-117421131D01*
X184004445Y-117329445D01*
X184096131Y-117320414D01*
X184186044Y-117293140D01*
X184268908Y-117248848D01*
X184341539Y-117189241D01*
X184550135Y-116980645D01*
X184609742Y-116908014D01*
X184654034Y-116825150D01*
X184673193Y-116761991D01*
X185026984Y-116408200D01*
X187423316Y-116408200D01*
X187452000Y-116411025D01*
X187480684Y-116408200D01*
X187480692Y-116408200D01*
X187566523Y-116399746D01*
X187676645Y-116366341D01*
X187778134Y-116312094D01*
X187867090Y-116239090D01*
X187885382Y-116216801D01*
X188352802Y-115749381D01*
X188375090Y-115731090D01*
X188448094Y-115642134D01*
X188502341Y-115540645D01*
X188535746Y-115430523D01*
X188544200Y-115344692D01*
X188544200Y-115344683D01*
X188547025Y-115316001D01*
X188544200Y-115287319D01*
X188544200Y-114836684D01*
X188547025Y-114808000D01*
X188544200Y-114779316D01*
X188544200Y-114779308D01*
X188535746Y-114693477D01*
X188502341Y-114583355D01*
X188448094Y-114481866D01*
X188375090Y-114392910D01*
X188352801Y-114374618D01*
X188089382Y-114111199D01*
X188071090Y-114088910D01*
X187982134Y-114015906D01*
X187880645Y-113961659D01*
X187821633Y-113943758D01*
X187756376Y-113908878D01*
X187665994Y-113881461D01*
X187641008Y-113879000D01*
X187665994Y-113876539D01*
X187756376Y-113849122D01*
X187839672Y-113804600D01*
X187912682Y-113744682D01*
X187972600Y-113671672D01*
X188017122Y-113588376D01*
X188044539Y-113497994D01*
X188053797Y-113404000D01*
X188053797Y-113104000D01*
X188044539Y-113010006D01*
X188017122Y-112919624D01*
X187972600Y-112836328D01*
X187912682Y-112763318D01*
X187839672Y-112703400D01*
X187756376Y-112658878D01*
X187665994Y-112631461D01*
X187641008Y-112629000D01*
X187665994Y-112626539D01*
X187756376Y-112599122D01*
X187839672Y-112554600D01*
X187912682Y-112494682D01*
X187972600Y-112421672D01*
X188017122Y-112338376D01*
X188044539Y-112247994D01*
X188053797Y-112154000D01*
X188053797Y-111854000D01*
X188044539Y-111760006D01*
X188017122Y-111669624D01*
X187972600Y-111586328D01*
X187912682Y-111513318D01*
X187839672Y-111453400D01*
X187756376Y-111408878D01*
X187665994Y-111381461D01*
X187641008Y-111379000D01*
X187665994Y-111376539D01*
X187756376Y-111349122D01*
X187839672Y-111304600D01*
X187912682Y-111244682D01*
X187972600Y-111171672D01*
X188017122Y-111088376D01*
X188044539Y-110997994D01*
X188053797Y-110904000D01*
X188053797Y-110604000D01*
X188044539Y-110510006D01*
X188017122Y-110419624D01*
X187972600Y-110336328D01*
X187912682Y-110263318D01*
X187839672Y-110203400D01*
X187756376Y-110158878D01*
X187665994Y-110131461D01*
X187641008Y-110129000D01*
X187665994Y-110126539D01*
X187756376Y-110099122D01*
X187839672Y-110054600D01*
X187912682Y-109994682D01*
X187972600Y-109921672D01*
X188017122Y-109838376D01*
X188044539Y-109747994D01*
X188053797Y-109654000D01*
X188053797Y-109354000D01*
X188044539Y-109260006D01*
X188017122Y-109169624D01*
X187972600Y-109086328D01*
X187912682Y-109013318D01*
X187839672Y-108953400D01*
X187756376Y-108908878D01*
X187665994Y-108881461D01*
X187572000Y-108872203D01*
X186172000Y-108872203D01*
X186078006Y-108881461D01*
X185987624Y-108908878D01*
X185904328Y-108953400D01*
X185831318Y-109013318D01*
X185771400Y-109086328D01*
X185726878Y-109169624D01*
X185699461Y-109260006D01*
X185690203Y-109354000D01*
X185690203Y-109654000D01*
X185699461Y-109747994D01*
X185726878Y-109838376D01*
X185771400Y-109921672D01*
X185831318Y-109994682D01*
X185904328Y-110054600D01*
X185987624Y-110099122D01*
X186078006Y-110126539D01*
X186102992Y-110129000D01*
X186078006Y-110131461D01*
X185987624Y-110158878D01*
X185904328Y-110203400D01*
X185831318Y-110263318D01*
X185771400Y-110336328D01*
X185726878Y-110419624D01*
X185699461Y-110510006D01*
X185690203Y-110604000D01*
X185690203Y-110904000D01*
X185699461Y-110997994D01*
X185726878Y-111088376D01*
X185771400Y-111171672D01*
X185831318Y-111244682D01*
X185904328Y-111304600D01*
X185987624Y-111349122D01*
X186078006Y-111376539D01*
X186102992Y-111379000D01*
X186078006Y-111381461D01*
X185987624Y-111408878D01*
X185904328Y-111453400D01*
X185831318Y-111513318D01*
X185771400Y-111586328D01*
X185726878Y-111669624D01*
X185699461Y-111760006D01*
X185690203Y-111854000D01*
X185690203Y-112154000D01*
X185699461Y-112247994D01*
X185726878Y-112338376D01*
X185771400Y-112421672D01*
X185831318Y-112494682D01*
X185904328Y-112554600D01*
X185987624Y-112599122D01*
X186078006Y-112626539D01*
X186102992Y-112629000D01*
X186078006Y-112631461D01*
X185987624Y-112658878D01*
X185904328Y-112703400D01*
X185831318Y-112763318D01*
X185771400Y-112836328D01*
X185726878Y-112919624D01*
X185699461Y-113010006D01*
X185690203Y-113104000D01*
X185690203Y-113404000D01*
X185699461Y-113497994D01*
X185726878Y-113588376D01*
X185771400Y-113671672D01*
X185831318Y-113744682D01*
X185904328Y-113804600D01*
X185987624Y-113849122D01*
X186078006Y-113876539D01*
X186102992Y-113879000D01*
X186078006Y-113881461D01*
X185987624Y-113908878D01*
X185904328Y-113953400D01*
X185831318Y-114013318D01*
X185771400Y-114086328D01*
X185726878Y-114169624D01*
X185699461Y-114260006D01*
X185690203Y-114354000D01*
X185690203Y-114654000D01*
X185699461Y-114747994D01*
X185726878Y-114838376D01*
X185771400Y-114921672D01*
X185831318Y-114994682D01*
X185904328Y-115054600D01*
X185987624Y-115099122D01*
X186078006Y-115126539D01*
X186172000Y-115135797D01*
X187314020Y-115135797D01*
X187210017Y-115239800D01*
X184813692Y-115239800D01*
X184785000Y-115236974D01*
X184756308Y-115239800D01*
X184670477Y-115248254D01*
X184560355Y-115281659D01*
X184458866Y-115335906D01*
X184392196Y-115390620D01*
X184392194Y-115390622D01*
X184369910Y-115408910D01*
X184351622Y-115431194D01*
X183847009Y-115935807D01*
X183783850Y-115954966D01*
X183700986Y-115999258D01*
X183628355Y-116058865D01*
X183419759Y-116267461D01*
X183360152Y-116340092D01*
X183315860Y-116422956D01*
X183288586Y-116512869D01*
X183279555Y-116604555D01*
X183187869Y-116613586D01*
X183097956Y-116640860D01*
X183015092Y-116685152D01*
X182942461Y-116744759D01*
X182733865Y-116953355D01*
X182674258Y-117025986D01*
X182629966Y-117108850D01*
X182619061Y-117144800D01*
X182422687Y-117144800D01*
X182425750Y-117137405D01*
X182448200Y-117024539D01*
X182448200Y-116909461D01*
X182425750Y-116796595D01*
X182381712Y-116690277D01*
X182317778Y-116594594D01*
X182277200Y-116554016D01*
X182277200Y-116211679D01*
X182293981Y-116156362D01*
X182301797Y-116077000D01*
X182301797Y-114752000D01*
X182293981Y-114672638D01*
X182277200Y-114617321D01*
X182277200Y-114533377D01*
X182351378Y-114459200D01*
X182435321Y-114459200D01*
X182490638Y-114475981D01*
X182570000Y-114483797D01*
X183895000Y-114483797D01*
X183974362Y-114475981D01*
X184050674Y-114452831D01*
X184121004Y-114415239D01*
X184182649Y-114364649D01*
X184233239Y-114303004D01*
X184270831Y-114232674D01*
X184272134Y-114228378D01*
X184284910Y-114232254D01*
X184312373Y-114240585D01*
X184379540Y-114247200D01*
X184379548Y-114247200D01*
X184391422Y-114248369D01*
X184396925Y-114255075D01*
X184467661Y-114313128D01*
X184548365Y-114356264D01*
X184635932Y-114382828D01*
X184727000Y-114391797D01*
X185097000Y-114391797D01*
X185188068Y-114382828D01*
X185275635Y-114356264D01*
X185356339Y-114313128D01*
X185427075Y-114255075D01*
X185485128Y-114184339D01*
X185528264Y-114103635D01*
X185554828Y-114016068D01*
X185563797Y-113925000D01*
X185563797Y-113655000D01*
X185554828Y-113563932D01*
X185528264Y-113476365D01*
X185485128Y-113395661D01*
X185427075Y-113324925D01*
X185356339Y-113266872D01*
X185275635Y-113223736D01*
X185188068Y-113197172D01*
X185097000Y-113188203D01*
X185019374Y-113188203D01*
X185092404Y-113115173D01*
X185109853Y-113100853D01*
X185166987Y-113031236D01*
X185209441Y-112951809D01*
X185235585Y-112865627D01*
X185237333Y-112847883D01*
X185275635Y-112836264D01*
X185356339Y-112793128D01*
X185427075Y-112735075D01*
X185485128Y-112664339D01*
X185528264Y-112583635D01*
X185554828Y-112496068D01*
X185563797Y-112405000D01*
X185563797Y-112135000D01*
X185554828Y-112043932D01*
X185528264Y-111956365D01*
X185485128Y-111875661D01*
X185427075Y-111804925D01*
X185356339Y-111746872D01*
X185275635Y-111703736D01*
X185188068Y-111677172D01*
X185097000Y-111668203D01*
X184727000Y-111668203D01*
X184635932Y-111677172D01*
X184548365Y-111703736D01*
X184467661Y-111746872D01*
X184396925Y-111804925D01*
X184338872Y-111875661D01*
X184301797Y-111945025D01*
X184301797Y-111927000D01*
X184293981Y-111847638D01*
X184270831Y-111771326D01*
X184260501Y-111752000D01*
X184270831Y-111732674D01*
X184293981Y-111656362D01*
X184301797Y-111577000D01*
X184301797Y-111427000D01*
X184293981Y-111347638D01*
X184270831Y-111271326D01*
X184260501Y-111252000D01*
X184270831Y-111232674D01*
X184293981Y-111156362D01*
X184301797Y-111077000D01*
X184301797Y-110927000D01*
X184293981Y-110847638D01*
X184270831Y-110771326D01*
X184233239Y-110700996D01*
X184182649Y-110639351D01*
X184121004Y-110588761D01*
X184050674Y-110551169D01*
X183974362Y-110528019D01*
X183895000Y-110520203D01*
X182591253Y-110520203D01*
X182553191Y-110482142D01*
X182570000Y-110483797D01*
X183895000Y-110483797D01*
X183974362Y-110475981D01*
X184029679Y-110459200D01*
X184409262Y-110459200D01*
X184467661Y-110507128D01*
X184548365Y-110550264D01*
X184635932Y-110576828D01*
X184727000Y-110585797D01*
X185097000Y-110585797D01*
X185188068Y-110576828D01*
X185275635Y-110550264D01*
X185356339Y-110507128D01*
X185427075Y-110449075D01*
X185485128Y-110378339D01*
X185528264Y-110297635D01*
X185554828Y-110210068D01*
X185563797Y-110119000D01*
X185563797Y-109849000D01*
X185554828Y-109757932D01*
X185528264Y-109670365D01*
X185485128Y-109589661D01*
X185427075Y-109518925D01*
X185372335Y-109474000D01*
X185427075Y-109429075D01*
X185485128Y-109358339D01*
X185528264Y-109277635D01*
X185554828Y-109190068D01*
X185563797Y-109099000D01*
X185563797Y-108829000D01*
X185554828Y-108737932D01*
X185528264Y-108650365D01*
X185485128Y-108569661D01*
X185427075Y-108498925D01*
X185356339Y-108440872D01*
X185275635Y-108397736D01*
X185188068Y-108371172D01*
X185129186Y-108365373D01*
X185188723Y-108340712D01*
X185284406Y-108276778D01*
X185365778Y-108195406D01*
X185429712Y-108099723D01*
X185473750Y-107993405D01*
X185496200Y-107880539D01*
X185496200Y-107765461D01*
X185473750Y-107652595D01*
X185429712Y-107546277D01*
X185365778Y-107450594D01*
X185284406Y-107369222D01*
X185188723Y-107305288D01*
X185082405Y-107261250D01*
X185006550Y-107246162D01*
X185007797Y-107233500D01*
X185007797Y-106888500D01*
X184998587Y-106794994D01*
X184971313Y-106705081D01*
X184927021Y-106622217D01*
X184870216Y-106553000D01*
X184927021Y-106483783D01*
X184971313Y-106400919D01*
X184998587Y-106311006D01*
X185007797Y-106217500D01*
X185007797Y-105872500D01*
X184998587Y-105778994D01*
X184971313Y-105689081D01*
X184927021Y-105606217D01*
X184867414Y-105533586D01*
X184794783Y-105473979D01*
X184711919Y-105429687D01*
X184622006Y-105402413D01*
X184528500Y-105393203D01*
X184233500Y-105393203D01*
X184139994Y-105402413D01*
X184050081Y-105429687D01*
X183967217Y-105473979D01*
X183896000Y-105532426D01*
X183824783Y-105473979D01*
X183741919Y-105429687D01*
X183652006Y-105402413D01*
X183558500Y-105393203D01*
X183263500Y-105393203D01*
X183169994Y-105402413D01*
X183080081Y-105429687D01*
X182997217Y-105473979D01*
X182924586Y-105533586D01*
X182864979Y-105606217D01*
X182820687Y-105689081D01*
X182793413Y-105778994D01*
X182788368Y-105830216D01*
X182762712Y-105768277D01*
X182698778Y-105672594D01*
X182617406Y-105591222D01*
X182521723Y-105527288D01*
X182415405Y-105483250D01*
X182302539Y-105460800D01*
X182187461Y-105460800D01*
X182074595Y-105483250D01*
X181968277Y-105527288D01*
X181872594Y-105591222D01*
X181830702Y-105633114D01*
X181774764Y-105663013D01*
X181705147Y-105720147D01*
X181690826Y-105737597D01*
X181512593Y-105915830D01*
X181495148Y-105930147D01*
X181480831Y-105947592D01*
X181480830Y-105947593D01*
X181438013Y-105999765D01*
X181425484Y-106023205D01*
X181422772Y-106022938D01*
X181432200Y-105975539D01*
X181432200Y-105860461D01*
X181409750Y-105747595D01*
X181365712Y-105641277D01*
X181301778Y-105545594D01*
X181220406Y-105464222D01*
X181124723Y-105400288D01*
X181018405Y-105356250D01*
X180905539Y-105333800D01*
X180790461Y-105333800D01*
X180677595Y-105356250D01*
X180571277Y-105400288D01*
X180475594Y-105464222D01*
X180394222Y-105545594D01*
X180330288Y-105641277D01*
X180286250Y-105747595D01*
X180263800Y-105860461D01*
X180263800Y-105975539D01*
X180272684Y-106020203D01*
X180245000Y-106020203D01*
X180165638Y-106028019D01*
X180089326Y-106051169D01*
X180070000Y-106061499D01*
X180050674Y-106051169D01*
X179974362Y-106028019D01*
X179895000Y-106020203D01*
X179861395Y-106020203D01*
X179885750Y-105961405D01*
X179908200Y-105848539D01*
X179908200Y-105733461D01*
X179885750Y-105620595D01*
X179841712Y-105514277D01*
X179777778Y-105418594D01*
X179696406Y-105337222D01*
X179600723Y-105273288D01*
X179494405Y-105229250D01*
X179381539Y-105206800D01*
X179266461Y-105206800D01*
X179153595Y-105229250D01*
X179047277Y-105273288D01*
X178951594Y-105337222D01*
X178870222Y-105418594D01*
X178806288Y-105514277D01*
X178762250Y-105620595D01*
X178739800Y-105733461D01*
X178739800Y-105848539D01*
X178762250Y-105961405D01*
X178786605Y-106020203D01*
X178745000Y-106020203D01*
X178665638Y-106028019D01*
X178589326Y-106051169D01*
X178570000Y-106061499D01*
X178550674Y-106051169D01*
X178474362Y-106028019D01*
X178395000Y-106020203D01*
X178245000Y-106020203D01*
X178165638Y-106028019D01*
X178089326Y-106051169D01*
X178070000Y-106061499D01*
X178050674Y-106051169D01*
X177974362Y-106028019D01*
X177895000Y-106020203D01*
X177745000Y-106020203D01*
X177665638Y-106028019D01*
X177589326Y-106051169D01*
X177570000Y-106061499D01*
X177550674Y-106051169D01*
X177474362Y-106028019D01*
X177395000Y-106020203D01*
X177245000Y-106020203D01*
X177165638Y-106028019D01*
X177089326Y-106051169D01*
X177018996Y-106088761D01*
X176957351Y-106139351D01*
X176906761Y-106200996D01*
X176869169Y-106271326D01*
X176846019Y-106347638D01*
X176838203Y-106427000D01*
X176838203Y-107752000D01*
X176846019Y-107831362D01*
X176869169Y-107907674D01*
X176906761Y-107978004D01*
X176957351Y-108039649D01*
X177018996Y-108090239D01*
X177089326Y-108127831D01*
X177165638Y-108150981D01*
X177245000Y-108158797D01*
X177395000Y-108158797D01*
X177474362Y-108150981D01*
X177550674Y-108127831D01*
X177570000Y-108117501D01*
X177589326Y-108127831D01*
X177665638Y-108150981D01*
X177745000Y-108158797D01*
X177746995Y-108158797D01*
X177746250Y-108160595D01*
X177723800Y-108273461D01*
X177723800Y-108388539D01*
X177746250Y-108501405D01*
X177790288Y-108607723D01*
X177854222Y-108703406D01*
X177935594Y-108784778D01*
X178031277Y-108848712D01*
X178137595Y-108892750D01*
X178250461Y-108915200D01*
X178365539Y-108915200D01*
X178478405Y-108892750D01*
X178584723Y-108848712D01*
X178680406Y-108784778D01*
X178761778Y-108703406D01*
X178825712Y-108607723D01*
X178869750Y-108501405D01*
X178892200Y-108388539D01*
X178892200Y-108273461D01*
X178869750Y-108160595D01*
X178869005Y-108158797D01*
X178895000Y-108158797D01*
X178974362Y-108150981D01*
X179050674Y-108127831D01*
X179070000Y-108117501D01*
X179089326Y-108127831D01*
X179165638Y-108150981D01*
X179245000Y-108158797D01*
X179395000Y-108158797D01*
X179474362Y-108150981D01*
X179550674Y-108127831D01*
X179570000Y-108117501D01*
X179589326Y-108127831D01*
X179665638Y-108150981D01*
X179745000Y-108158797D01*
X179895000Y-108158797D01*
X179911809Y-108157142D01*
X179560150Y-108508800D01*
X179520461Y-108508800D01*
X179407595Y-108531250D01*
X179301277Y-108575288D01*
X179205594Y-108639222D01*
X179124222Y-108720594D01*
X179060288Y-108816277D01*
X179016250Y-108922595D01*
X178993800Y-109035461D01*
X178993800Y-109075150D01*
X176984597Y-111084354D01*
X176967147Y-111098675D01*
X176910013Y-111168293D01*
X176867559Y-111247720D01*
X176841415Y-111333902D01*
X176834800Y-111401069D01*
X176834800Y-111401078D01*
X176832589Y-111423528D01*
X176834800Y-111445978D01*
X176834801Y-112154714D01*
X176774288Y-112245277D01*
X176730250Y-112351595D01*
X176707800Y-112464461D01*
X176707800Y-112579539D01*
X176730250Y-112692405D01*
X176774288Y-112798723D01*
X176838222Y-112894406D01*
X176919594Y-112975778D01*
X177000742Y-113030000D01*
X176919594Y-113084222D01*
X176838222Y-113165594D01*
X176774288Y-113261277D01*
X176730250Y-113367595D01*
X176720500Y-113416613D01*
X176710750Y-113367595D01*
X176666712Y-113261277D01*
X176602778Y-113165594D01*
X176521406Y-113084222D01*
X176425723Y-113020288D01*
X176366393Y-112995713D01*
X176456409Y-112905697D01*
X176473853Y-112891381D01*
X176500902Y-112858422D01*
X176530987Y-112821765D01*
X176559929Y-112767616D01*
X176573441Y-112742337D01*
X176599585Y-112656155D01*
X176606200Y-112588988D01*
X176606200Y-112588979D01*
X176608411Y-112566529D01*
X176606200Y-112544079D01*
X176606200Y-111873285D01*
X176666712Y-111782723D01*
X176710750Y-111676405D01*
X176733200Y-111563539D01*
X176733200Y-111448461D01*
X176710750Y-111335595D01*
X176666712Y-111229277D01*
X176602778Y-111133594D01*
X176521406Y-111052222D01*
X176425723Y-110988288D01*
X176319405Y-110944250D01*
X176206539Y-110921800D01*
X176091461Y-110921800D01*
X175978595Y-110944250D01*
X175976797Y-110944995D01*
X175976797Y-110927000D01*
X175968981Y-110847638D01*
X175945831Y-110771326D01*
X175935501Y-110752000D01*
X175945831Y-110732674D01*
X175968981Y-110656362D01*
X175976797Y-110577000D01*
X175976797Y-110427000D01*
X175968981Y-110347638D01*
X175945831Y-110271326D01*
X175935501Y-110252000D01*
X175945831Y-110232674D01*
X175968981Y-110156362D01*
X175976797Y-110077000D01*
X175976797Y-110035005D01*
X175978595Y-110035750D01*
X176091461Y-110058200D01*
X176206539Y-110058200D01*
X176319405Y-110035750D01*
X176425723Y-109991712D01*
X176521406Y-109927778D01*
X176602778Y-109846406D01*
X176666712Y-109750723D01*
X176710750Y-109644405D01*
X176733200Y-109531539D01*
X176733200Y-109416461D01*
X176710750Y-109303595D01*
X176666712Y-109197277D01*
X176602778Y-109101594D01*
X176521406Y-109020222D01*
X176440258Y-108966000D01*
X176521406Y-108911778D01*
X176602778Y-108830406D01*
X176666712Y-108734723D01*
X176710750Y-108628405D01*
X176733200Y-108515539D01*
X176733200Y-108400461D01*
X176710750Y-108287595D01*
X176666712Y-108181277D01*
X176609861Y-108096195D01*
X176621004Y-108090239D01*
X176682649Y-108039649D01*
X176733239Y-107978004D01*
X176770831Y-107907674D01*
X176793981Y-107831362D01*
X176801797Y-107752000D01*
X176801797Y-106427000D01*
X176793981Y-106347638D01*
X176777200Y-106292321D01*
X176777200Y-106092435D01*
X176793712Y-106067723D01*
X176837750Y-105961405D01*
X176860200Y-105848539D01*
X176860200Y-105733461D01*
X176837750Y-105620595D01*
X176793712Y-105514277D01*
X176729778Y-105418594D01*
X176648406Y-105337222D01*
X176552723Y-105273288D01*
X176446405Y-105229250D01*
X176333539Y-105206800D01*
X176218461Y-105206800D01*
X176105595Y-105229250D01*
X175999277Y-105273288D01*
X175903594Y-105337222D01*
X175822222Y-105418594D01*
X175758288Y-105514277D01*
X175714250Y-105620595D01*
X175691800Y-105733461D01*
X175691800Y-105848539D01*
X175714250Y-105961405D01*
X175758288Y-106067723D01*
X175822222Y-106163406D01*
X175862801Y-106203985D01*
X175862801Y-106292319D01*
X175846019Y-106347638D01*
X175838203Y-106427000D01*
X175838203Y-107752000D01*
X175846019Y-107831362D01*
X175869169Y-107907674D01*
X175884005Y-107935430D01*
X175872277Y-107940288D01*
X175776594Y-108004222D01*
X175736016Y-108044800D01*
X175704679Y-108044800D01*
X175649362Y-108028019D01*
X175570000Y-108020203D01*
X174245000Y-108020203D01*
X174165638Y-108028019D01*
X174089326Y-108051169D01*
X174018996Y-108088761D01*
X173973607Y-108126011D01*
X173885723Y-108067288D01*
X173779405Y-108023250D01*
X173666539Y-108000800D01*
X173551461Y-108000800D01*
X173438595Y-108023250D01*
X173431200Y-108026313D01*
X173431200Y-107956939D01*
X173467150Y-107946034D01*
X173550014Y-107901742D01*
X173622645Y-107842135D01*
X173831241Y-107633539D01*
X173890848Y-107560908D01*
X173935140Y-107478044D01*
X173962414Y-107388131D01*
X173971445Y-107296445D01*
X174063131Y-107287414D01*
X174153044Y-107260140D01*
X174235908Y-107215848D01*
X174308539Y-107156241D01*
X174517135Y-106947645D01*
X174576742Y-106875014D01*
X174621034Y-106792150D01*
X174648308Y-106702237D01*
X174657518Y-106608731D01*
X174648308Y-106515225D01*
X174621034Y-106425312D01*
X174576742Y-106342448D01*
X174517135Y-106269817D01*
X174497623Y-106250305D01*
X174494869Y-106243656D01*
X174430935Y-106147973D01*
X174349563Y-106066601D01*
X174253880Y-106002667D01*
X174235782Y-105995171D01*
X174200552Y-105966258D01*
X174117688Y-105921966D01*
X174027775Y-105894692D01*
X173934269Y-105885482D01*
X173840763Y-105894692D01*
X173750850Y-105921966D01*
X173667986Y-105966258D01*
X173595355Y-106025865D01*
X173386759Y-106234461D01*
X173327152Y-106307092D01*
X173282860Y-106389956D01*
X173255586Y-106479869D01*
X173246555Y-106571555D01*
X173205390Y-106575610D01*
X173209624Y-106532625D01*
X173200414Y-106439119D01*
X173173140Y-106349206D01*
X173128848Y-106266342D01*
X173069241Y-106193711D01*
X172825289Y-105949759D01*
X172752658Y-105890152D01*
X172669794Y-105845860D01*
X172579881Y-105818586D01*
X172486375Y-105809376D01*
X172392869Y-105818586D01*
X172302956Y-105845860D01*
X172220092Y-105890152D01*
X172147461Y-105949759D01*
X171938865Y-106158355D01*
X171879258Y-106230986D01*
X171834966Y-106313850D01*
X171807692Y-106403763D01*
X171798482Y-106497269D01*
X171805357Y-106567066D01*
X171650592Y-106721831D01*
X171633148Y-106736147D01*
X171618831Y-106753592D01*
X171618830Y-106753593D01*
X171576013Y-106805765D01*
X171554366Y-106846265D01*
X171533560Y-106885191D01*
X171512553Y-106954441D01*
X171507416Y-106971374D01*
X171498589Y-107061000D01*
X171500801Y-107083460D01*
X171500800Y-108703427D01*
X171442925Y-108750925D01*
X171384872Y-108821661D01*
X171341736Y-108902365D01*
X171315172Y-108989932D01*
X171306203Y-109081000D01*
X171306203Y-109351000D01*
X171315172Y-109442068D01*
X171341736Y-109529635D01*
X171384872Y-109610339D01*
X171442925Y-109681075D01*
X171497665Y-109726000D01*
X171442925Y-109770925D01*
X171384872Y-109841661D01*
X171341736Y-109922365D01*
X171315172Y-110009932D01*
X171306203Y-110101000D01*
X171306203Y-110110626D01*
X171271174Y-110075596D01*
X171256853Y-110058147D01*
X171187236Y-110001013D01*
X171107809Y-109958559D01*
X171021627Y-109932415D01*
X171009797Y-109931250D01*
X171009797Y-109733000D01*
X171003422Y-109668270D01*
X170992723Y-109633000D01*
X171003422Y-109597730D01*
X171009797Y-109533000D01*
X171009797Y-109233000D01*
X171003422Y-109168270D01*
X170984540Y-109106027D01*
X170953879Y-109048663D01*
X170912616Y-108998384D01*
X170862337Y-108957121D01*
X170804973Y-108926460D01*
X170742730Y-108907578D01*
X170678000Y-108901203D01*
X169428000Y-108901203D01*
X169363270Y-108907578D01*
X169301027Y-108926460D01*
X169265200Y-108945609D01*
X169265200Y-105130200D01*
X191668801Y-105130200D01*
X191668801Y-105855194D01*
G37*
%TD.AperFunction*%
D14*
X172510925Y-112783075D02*
X172581661Y-112841128D01*
X172662365Y-112884264D01*
X172749932Y-112910828D01*
X172841000Y-112919797D01*
X173111000Y-112919797D01*
X173202068Y-112910828D01*
X173289635Y-112884264D01*
X173370339Y-112841128D01*
X173389773Y-112825179D01*
X173391147Y-112826853D01*
X173460764Y-112883987D01*
X173540191Y-112926441D01*
X173626373Y-112952585D01*
X173693540Y-112959200D01*
X173693550Y-112959200D01*
X173716000Y-112961411D01*
X173738450Y-112959200D01*
X173838203Y-112959200D01*
X173838203Y-113077000D01*
X173846019Y-113156362D01*
X173869169Y-113232674D01*
X173906761Y-113303004D01*
X173957351Y-113364649D01*
X174018996Y-113415239D01*
X174089326Y-113452831D01*
X174165638Y-113475981D01*
X174245000Y-113483797D01*
X175564800Y-113483797D01*
X175564800Y-113504151D01*
X175548748Y-113520203D01*
X174245000Y-113520203D01*
X174165638Y-113528019D01*
X174089326Y-113551169D01*
X174018996Y-113588761D01*
X173957351Y-113639351D01*
X173906761Y-113700996D01*
X173869169Y-113771326D01*
X173846019Y-113847638D01*
X173838203Y-113927000D01*
X173838203Y-114077000D01*
X173846019Y-114156362D01*
X173869169Y-114232674D01*
X173906761Y-114303004D01*
X173957351Y-114364649D01*
X174018996Y-114415239D01*
X174089326Y-114452831D01*
X174165638Y-114475981D01*
X174245000Y-114483797D01*
X175570000Y-114483797D01*
X175649362Y-114475981D01*
X175701346Y-114460211D01*
X175713528Y-114461411D01*
X175735978Y-114459200D01*
X175735988Y-114459200D01*
X175803155Y-114452585D01*
X175868187Y-114432857D01*
X175860589Y-114510000D01*
X175862801Y-114532459D01*
X175862801Y-114617318D01*
X175846019Y-114672638D01*
X175838203Y-114752000D01*
X175838203Y-116077000D01*
X175846019Y-116156362D01*
X175869169Y-116232674D01*
X175906761Y-116303004D01*
X175918776Y-116317644D01*
X175893764Y-116331013D01*
X175824147Y-116388147D01*
X175767013Y-116457764D01*
X175724559Y-116537191D01*
X175712337Y-116577479D01*
X175695222Y-116594594D01*
X175631288Y-116690277D01*
X175587250Y-116796595D01*
X175564800Y-116909461D01*
X175564800Y-117024539D01*
X175587250Y-117137405D01*
X175590313Y-117144800D01*
X175101275Y-117144800D01*
X175101797Y-117139500D01*
X175101797Y-116794500D01*
X175092587Y-116700994D01*
X175065313Y-116611081D01*
X175021021Y-116528217D01*
X174961414Y-116455586D01*
X174955200Y-116450486D01*
X174955200Y-116025371D01*
X174974285Y-116002116D01*
X175017884Y-115920549D01*
X175044732Y-115832043D01*
X175051888Y-115759386D01*
X175059750Y-115740405D01*
X175082200Y-115627539D01*
X175082200Y-115512461D01*
X175059750Y-115399595D01*
X175051888Y-115380614D01*
X175044732Y-115307957D01*
X175017884Y-115219451D01*
X174974285Y-115137884D01*
X174915611Y-115066389D01*
X174844116Y-115007715D01*
X174762549Y-114964116D01*
X174674043Y-114937268D01*
X174582000Y-114928203D01*
X174302000Y-114928203D01*
X174209957Y-114937268D01*
X174121451Y-114964116D01*
X174039884Y-115007715D01*
X173968389Y-115066389D01*
X173909715Y-115137884D01*
X173866116Y-115219451D01*
X173839268Y-115307957D01*
X173830203Y-115400000D01*
X173830203Y-115740000D01*
X173839268Y-115832043D01*
X173866116Y-115920549D01*
X173909715Y-116002116D01*
X173968389Y-116073611D01*
X174039884Y-116132285D01*
X174040800Y-116132775D01*
X174040801Y-116412734D01*
X173990000Y-116454426D01*
X173918783Y-116395979D01*
X173835919Y-116351687D01*
X173746006Y-116324413D01*
X173652500Y-116315203D01*
X173357500Y-116315203D01*
X173263994Y-116324413D01*
X173174081Y-116351687D01*
X173091217Y-116395979D01*
X173018586Y-116455586D01*
X172958979Y-116528217D01*
X172914687Y-116611081D01*
X172887413Y-116700994D01*
X172878203Y-116794500D01*
X172878203Y-116934020D01*
X172530200Y-116586017D01*
X172530200Y-114115135D01*
X172548732Y-114054043D01*
X172557797Y-113962000D01*
X172557797Y-113622000D01*
X172548732Y-113529957D01*
X172521884Y-113441451D01*
X172478285Y-113359884D01*
X172419611Y-113288389D01*
X172404979Y-113276381D01*
X172405411Y-113271999D01*
X172403200Y-113249549D01*
X172403200Y-113249540D01*
X172396585Y-113182373D01*
X172370441Y-113096191D01*
X172327987Y-113016764D01*
X172270853Y-112947147D01*
X172253409Y-112932831D01*
X172219922Y-112899345D01*
X172269635Y-112884264D01*
X172350339Y-112841128D01*
X172421075Y-112783075D01*
X172466000Y-112728335D01*
X172510925Y-112783075D01*
%TA.AperFunction,Conductor*%
D16*
G36*
X172510925Y-112783075D02*
G01*
X172581661Y-112841128D01*
X172662365Y-112884264D01*
X172749932Y-112910828D01*
X172841000Y-112919797D01*
X173111000Y-112919797D01*
X173202068Y-112910828D01*
X173289635Y-112884264D01*
X173370339Y-112841128D01*
X173389773Y-112825179D01*
X173391147Y-112826853D01*
X173460764Y-112883987D01*
X173540191Y-112926441D01*
X173626373Y-112952585D01*
X173693540Y-112959200D01*
X173693550Y-112959200D01*
X173716000Y-112961411D01*
X173738450Y-112959200D01*
X173838203Y-112959200D01*
X173838203Y-113077000D01*
X173846019Y-113156362D01*
X173869169Y-113232674D01*
X173906761Y-113303004D01*
X173957351Y-113364649D01*
X174018996Y-113415239D01*
X174089326Y-113452831D01*
X174165638Y-113475981D01*
X174245000Y-113483797D01*
X175564800Y-113483797D01*
X175564800Y-113504151D01*
X175548748Y-113520203D01*
X174245000Y-113520203D01*
X174165638Y-113528019D01*
X174089326Y-113551169D01*
X174018996Y-113588761D01*
X173957351Y-113639351D01*
X173906761Y-113700996D01*
X173869169Y-113771326D01*
X173846019Y-113847638D01*
X173838203Y-113927000D01*
X173838203Y-114077000D01*
X173846019Y-114156362D01*
X173869169Y-114232674D01*
X173906761Y-114303004D01*
X173957351Y-114364649D01*
X174018996Y-114415239D01*
X174089326Y-114452831D01*
X174165638Y-114475981D01*
X174245000Y-114483797D01*
X175570000Y-114483797D01*
X175649362Y-114475981D01*
X175701346Y-114460211D01*
X175713528Y-114461411D01*
X175735978Y-114459200D01*
X175735988Y-114459200D01*
X175803155Y-114452585D01*
X175868187Y-114432857D01*
X175860589Y-114510000D01*
X175862801Y-114532459D01*
X175862801Y-114617318D01*
X175846019Y-114672638D01*
X175838203Y-114752000D01*
X175838203Y-116077000D01*
X175846019Y-116156362D01*
X175869169Y-116232674D01*
X175906761Y-116303004D01*
X175918776Y-116317644D01*
X175893764Y-116331013D01*
X175824147Y-116388147D01*
X175767013Y-116457764D01*
X175724559Y-116537191D01*
X175712337Y-116577479D01*
X175695222Y-116594594D01*
X175631288Y-116690277D01*
X175587250Y-116796595D01*
X175564800Y-116909461D01*
X175564800Y-117024539D01*
X175587250Y-117137405D01*
X175590313Y-117144800D01*
X175101275Y-117144800D01*
X175101797Y-117139500D01*
X175101797Y-116794500D01*
X175092587Y-116700994D01*
X175065313Y-116611081D01*
X175021021Y-116528217D01*
X174961414Y-116455586D01*
X174955200Y-116450486D01*
X174955200Y-116025371D01*
X174974285Y-116002116D01*
X175017884Y-115920549D01*
X175044732Y-115832043D01*
X175051888Y-115759386D01*
X175059750Y-115740405D01*
X175082200Y-115627539D01*
X175082200Y-115512461D01*
X175059750Y-115399595D01*
X175051888Y-115380614D01*
X175044732Y-115307957D01*
X175017884Y-115219451D01*
X174974285Y-115137884D01*
X174915611Y-115066389D01*
X174844116Y-115007715D01*
X174762549Y-114964116D01*
X174674043Y-114937268D01*
X174582000Y-114928203D01*
X174302000Y-114928203D01*
X174209957Y-114937268D01*
X174121451Y-114964116D01*
X174039884Y-115007715D01*
X173968389Y-115066389D01*
X173909715Y-115137884D01*
X173866116Y-115219451D01*
X173839268Y-115307957D01*
X173830203Y-115400000D01*
X173830203Y-115740000D01*
X173839268Y-115832043D01*
X173866116Y-115920549D01*
X173909715Y-116002116D01*
X173968389Y-116073611D01*
X174039884Y-116132285D01*
X174040800Y-116132775D01*
X174040801Y-116412734D01*
X173990000Y-116454426D01*
X173918783Y-116395979D01*
X173835919Y-116351687D01*
X173746006Y-116324413D01*
X173652500Y-116315203D01*
X173357500Y-116315203D01*
X173263994Y-116324413D01*
X173174081Y-116351687D01*
X173091217Y-116395979D01*
X173018586Y-116455586D01*
X172958979Y-116528217D01*
X172914687Y-116611081D01*
X172887413Y-116700994D01*
X172878203Y-116794500D01*
X172878203Y-116934020D01*
X172530200Y-116586017D01*
X172530200Y-114115135D01*
X172548732Y-114054043D01*
X172557797Y-113962000D01*
X172557797Y-113622000D01*
X172548732Y-113529957D01*
X172521884Y-113441451D01*
X172478285Y-113359884D01*
X172419611Y-113288389D01*
X172404979Y-113276381D01*
X172405411Y-113271999D01*
X172403200Y-113249549D01*
X172403200Y-113249540D01*
X172396585Y-113182373D01*
X172370441Y-113096191D01*
X172327987Y-113016764D01*
X172270853Y-112947147D01*
X172253409Y-112932831D01*
X172219922Y-112899345D01*
X172269635Y-112884264D01*
X172350339Y-112841128D01*
X172421075Y-112783075D01*
X172466000Y-112728335D01*
X172510925Y-112783075D01*
G37*
%TD.AperFunction*%
D14*
X180711288Y-108734723D02*
X180775222Y-108830406D01*
X180856594Y-108911778D01*
X180952277Y-108975712D01*
X181025800Y-109006166D01*
X181025801Y-110036069D01*
X181023589Y-110058528D01*
X181025801Y-110080988D01*
X181032416Y-110148155D01*
X181038518Y-110168270D01*
X181058560Y-110234337D01*
X181061445Y-110239735D01*
X180978996Y-110294826D01*
X180897624Y-110376198D01*
X180833690Y-110471881D01*
X180789652Y-110578199D01*
X180767202Y-110691065D01*
X180767202Y-110806143D01*
X180789652Y-110919009D01*
X180833690Y-111025327D01*
X180897624Y-111121010D01*
X180918747Y-111142133D01*
X180926961Y-111169210D01*
X180969415Y-111248637D01*
X181026549Y-111318255D01*
X181043999Y-111332576D01*
X181471422Y-111760000D01*
X181048597Y-112182826D01*
X181031147Y-112197147D01*
X180974013Y-112266765D01*
X180931559Y-112346192D01*
X180905415Y-112432374D01*
X180898800Y-112499541D01*
X180898800Y-112499550D01*
X180896589Y-112522000D01*
X180898050Y-112536837D01*
X180838288Y-112626277D01*
X180794250Y-112732595D01*
X180771800Y-112845461D01*
X180771800Y-112960539D01*
X180794250Y-113073405D01*
X180838288Y-113179723D01*
X180902222Y-113275406D01*
X180983594Y-113356778D01*
X181079277Y-113420712D01*
X181185595Y-113464750D01*
X181298461Y-113487200D01*
X181413539Y-113487200D01*
X181526405Y-113464750D01*
X181632723Y-113420712D01*
X181728406Y-113356778D01*
X181809778Y-113275406D01*
X181873712Y-113179723D01*
X181917750Y-113073405D01*
X181940200Y-112960539D01*
X181940200Y-112845461D01*
X181917750Y-112732595D01*
X181880914Y-112643664D01*
X182065378Y-112459200D01*
X182163203Y-112459200D01*
X182163203Y-112577000D01*
X182171019Y-112656362D01*
X182194169Y-112732674D01*
X182204499Y-112752000D01*
X182194169Y-112771326D01*
X182171019Y-112847638D01*
X182163203Y-112927000D01*
X182163203Y-113077000D01*
X182171019Y-113156362D01*
X182194169Y-113232674D01*
X182204499Y-113252000D01*
X182194169Y-113271326D01*
X182171019Y-113347638D01*
X182163203Y-113427000D01*
X182163203Y-113542708D01*
X182161999Y-113542589D01*
X182139549Y-113544800D01*
X182139540Y-113544800D01*
X182072373Y-113551415D01*
X181986191Y-113577559D01*
X181906764Y-113620013D01*
X181837147Y-113677147D01*
X181822830Y-113694592D01*
X181512592Y-114004831D01*
X181495148Y-114019147D01*
X181480831Y-114036592D01*
X181480830Y-114036593D01*
X181438013Y-114088765D01*
X181432142Y-114099750D01*
X181395560Y-114168191D01*
X181369416Y-114254373D01*
X181368112Y-114267616D01*
X181360589Y-114344000D01*
X181362801Y-114366459D01*
X181362801Y-114617318D01*
X181346019Y-114672638D01*
X181338203Y-114752000D01*
X181338203Y-116077000D01*
X181346019Y-116156362D01*
X181362801Y-116211681D01*
X181362801Y-116665564D01*
X181346288Y-116690277D01*
X181302250Y-116796595D01*
X181279800Y-116909461D01*
X181279800Y-117024539D01*
X181302250Y-117137405D01*
X181305313Y-117144800D01*
X180390687Y-117144800D01*
X180393750Y-117137405D01*
X180416200Y-117024539D01*
X180416200Y-116909461D01*
X180393750Y-116796595D01*
X180349712Y-116690277D01*
X180289200Y-116599715D01*
X180289200Y-116483797D01*
X180395000Y-116483797D01*
X180474362Y-116475981D01*
X180550674Y-116452831D01*
X180570000Y-116442501D01*
X180589326Y-116452831D01*
X180665638Y-116475981D01*
X180745000Y-116483797D01*
X180895000Y-116483797D01*
X180974362Y-116475981D01*
X181050674Y-116452831D01*
X181121004Y-116415239D01*
X181182649Y-116364649D01*
X181233239Y-116303004D01*
X181270831Y-116232674D01*
X181293981Y-116156362D01*
X181301797Y-116077000D01*
X181301797Y-114752000D01*
X181293981Y-114672638D01*
X181270831Y-114596326D01*
X181233239Y-114525996D01*
X181182649Y-114464351D01*
X181121004Y-114413761D01*
X181050674Y-114376169D01*
X180974362Y-114353019D01*
X180895000Y-114345203D01*
X180745000Y-114345203D01*
X180665638Y-114353019D01*
X180589326Y-114376169D01*
X180570000Y-114386499D01*
X180550674Y-114376169D01*
X180474362Y-114353019D01*
X180395000Y-114345203D01*
X180245000Y-114345203D01*
X180165638Y-114353019D01*
X180089326Y-114376169D01*
X180070000Y-114386499D01*
X180050674Y-114376169D01*
X179974362Y-114353019D01*
X179895000Y-114345203D01*
X179745000Y-114345203D01*
X179665638Y-114353019D01*
X179589326Y-114376169D01*
X179570000Y-114386499D01*
X179550674Y-114376169D01*
X179474362Y-114353019D01*
X179395000Y-114345203D01*
X179245000Y-114345203D01*
X179165638Y-114353019D01*
X179089326Y-114376169D01*
X179070000Y-114386499D01*
X179050674Y-114376169D01*
X178974362Y-114353019D01*
X178895000Y-114345203D01*
X178745000Y-114345203D01*
X178665638Y-114353019D01*
X178589326Y-114376169D01*
X178570000Y-114386499D01*
X178550674Y-114376169D01*
X178474362Y-114353019D01*
X178395000Y-114345203D01*
X178245000Y-114345203D01*
X178165638Y-114353019D01*
X178089326Y-114376169D01*
X178070000Y-114386499D01*
X178050674Y-114376169D01*
X177974362Y-114353019D01*
X177895000Y-114345203D01*
X177745000Y-114345203D01*
X177665638Y-114353019D01*
X177589326Y-114376169D01*
X177570000Y-114386499D01*
X177550674Y-114376169D01*
X177474362Y-114353019D01*
X177395000Y-114345203D01*
X177245000Y-114345203D01*
X177165638Y-114353019D01*
X177105235Y-114371343D01*
X177355580Y-114120998D01*
X177462405Y-114099750D01*
X177568723Y-114055712D01*
X177664406Y-113991778D01*
X177745778Y-113910406D01*
X177809712Y-113814723D01*
X177853750Y-113708405D01*
X177876200Y-113595539D01*
X177876200Y-113480461D01*
X177853750Y-113367595D01*
X177809712Y-113261277D01*
X177745778Y-113165594D01*
X177664406Y-113084222D01*
X177583258Y-113030000D01*
X177664406Y-112975778D01*
X177745778Y-112894406D01*
X177809712Y-112798723D01*
X177853750Y-112692405D01*
X177876200Y-112579539D01*
X177876200Y-112464461D01*
X177853750Y-112351595D01*
X177809712Y-112245277D01*
X177749200Y-112154715D01*
X177749200Y-111612905D01*
X179697163Y-109664942D01*
X179748405Y-109654750D01*
X179854723Y-109610712D01*
X179950406Y-109546778D01*
X180031778Y-109465406D01*
X180095712Y-109369723D01*
X180139750Y-109263405D01*
X180149942Y-109212163D01*
X180686713Y-108675393D01*
X180711288Y-108734723D01*
%TA.AperFunction,Conductor*%
D16*
G36*
X180711288Y-108734723D02*
G01*
X180775222Y-108830406D01*
X180856594Y-108911778D01*
X180952277Y-108975712D01*
X181025800Y-109006166D01*
X181025801Y-110036069D01*
X181023589Y-110058528D01*
X181025801Y-110080988D01*
X181032416Y-110148155D01*
X181038518Y-110168270D01*
X181058560Y-110234337D01*
X181061445Y-110239735D01*
X180978996Y-110294826D01*
X180897624Y-110376198D01*
X180833690Y-110471881D01*
X180789652Y-110578199D01*
X180767202Y-110691065D01*
X180767202Y-110806143D01*
X180789652Y-110919009D01*
X180833690Y-111025327D01*
X180897624Y-111121010D01*
X180918747Y-111142133D01*
X180926961Y-111169210D01*
X180969415Y-111248637D01*
X181026549Y-111318255D01*
X181043999Y-111332576D01*
X181471422Y-111760000D01*
X181048597Y-112182826D01*
X181031147Y-112197147D01*
X180974013Y-112266765D01*
X180931559Y-112346192D01*
X180905415Y-112432374D01*
X180898800Y-112499541D01*
X180898800Y-112499550D01*
X180896589Y-112522000D01*
X180898050Y-112536837D01*
X180838288Y-112626277D01*
X180794250Y-112732595D01*
X180771800Y-112845461D01*
X180771800Y-112960539D01*
X180794250Y-113073405D01*
X180838288Y-113179723D01*
X180902222Y-113275406D01*
X180983594Y-113356778D01*
X181079277Y-113420712D01*
X181185595Y-113464750D01*
X181298461Y-113487200D01*
X181413539Y-113487200D01*
X181526405Y-113464750D01*
X181632723Y-113420712D01*
X181728406Y-113356778D01*
X181809778Y-113275406D01*
X181873712Y-113179723D01*
X181917750Y-113073405D01*
X181940200Y-112960539D01*
X181940200Y-112845461D01*
X181917750Y-112732595D01*
X181880914Y-112643664D01*
X182065378Y-112459200D01*
X182163203Y-112459200D01*
X182163203Y-112577000D01*
X182171019Y-112656362D01*
X182194169Y-112732674D01*
X182204499Y-112752000D01*
X182194169Y-112771326D01*
X182171019Y-112847638D01*
X182163203Y-112927000D01*
X182163203Y-113077000D01*
X182171019Y-113156362D01*
X182194169Y-113232674D01*
X182204499Y-113252000D01*
X182194169Y-113271326D01*
X182171019Y-113347638D01*
X182163203Y-113427000D01*
X182163203Y-113542708D01*
X182161999Y-113542589D01*
X182139549Y-113544800D01*
X182139540Y-113544800D01*
X182072373Y-113551415D01*
X181986191Y-113577559D01*
X181906764Y-113620013D01*
X181837147Y-113677147D01*
X181822830Y-113694592D01*
X181512592Y-114004831D01*
X181495148Y-114019147D01*
X181480831Y-114036592D01*
X181480830Y-114036593D01*
X181438013Y-114088765D01*
X181432142Y-114099750D01*
X181395560Y-114168191D01*
X181369416Y-114254373D01*
X181368112Y-114267616D01*
X181360589Y-114344000D01*
X181362801Y-114366459D01*
X181362801Y-114617318D01*
X181346019Y-114672638D01*
X181338203Y-114752000D01*
X181338203Y-116077000D01*
X181346019Y-116156362D01*
X181362801Y-116211681D01*
X181362801Y-116665564D01*
X181346288Y-116690277D01*
X181302250Y-116796595D01*
X181279800Y-116909461D01*
X181279800Y-117024539D01*
X181302250Y-117137405D01*
X181305313Y-117144800D01*
X180390687Y-117144800D01*
X180393750Y-117137405D01*
X180416200Y-117024539D01*
X180416200Y-116909461D01*
X180393750Y-116796595D01*
X180349712Y-116690277D01*
X180289200Y-116599715D01*
X180289200Y-116483797D01*
X180395000Y-116483797D01*
X180474362Y-116475981D01*
X180550674Y-116452831D01*
X180570000Y-116442501D01*
X180589326Y-116452831D01*
X180665638Y-116475981D01*
X180745000Y-116483797D01*
X180895000Y-116483797D01*
X180974362Y-116475981D01*
X181050674Y-116452831D01*
X181121004Y-116415239D01*
X181182649Y-116364649D01*
X181233239Y-116303004D01*
X181270831Y-116232674D01*
X181293981Y-116156362D01*
X181301797Y-116077000D01*
X181301797Y-114752000D01*
X181293981Y-114672638D01*
X181270831Y-114596326D01*
X181233239Y-114525996D01*
X181182649Y-114464351D01*
X181121004Y-114413761D01*
X181050674Y-114376169D01*
X180974362Y-114353019D01*
X180895000Y-114345203D01*
X180745000Y-114345203D01*
X180665638Y-114353019D01*
X180589326Y-114376169D01*
X180570000Y-114386499D01*
X180550674Y-114376169D01*
X180474362Y-114353019D01*
X180395000Y-114345203D01*
X180245000Y-114345203D01*
X180165638Y-114353019D01*
X180089326Y-114376169D01*
X180070000Y-114386499D01*
X180050674Y-114376169D01*
X179974362Y-114353019D01*
X179895000Y-114345203D01*
X179745000Y-114345203D01*
X179665638Y-114353019D01*
X179589326Y-114376169D01*
X179570000Y-114386499D01*
X179550674Y-114376169D01*
X179474362Y-114353019D01*
X179395000Y-114345203D01*
X179245000Y-114345203D01*
X179165638Y-114353019D01*
X179089326Y-114376169D01*
X179070000Y-114386499D01*
X179050674Y-114376169D01*
X178974362Y-114353019D01*
X178895000Y-114345203D01*
X178745000Y-114345203D01*
X178665638Y-114353019D01*
X178589326Y-114376169D01*
X178570000Y-114386499D01*
X178550674Y-114376169D01*
X178474362Y-114353019D01*
X178395000Y-114345203D01*
X178245000Y-114345203D01*
X178165638Y-114353019D01*
X178089326Y-114376169D01*
X178070000Y-114386499D01*
X178050674Y-114376169D01*
X177974362Y-114353019D01*
X177895000Y-114345203D01*
X177745000Y-114345203D01*
X177665638Y-114353019D01*
X177589326Y-114376169D01*
X177570000Y-114386499D01*
X177550674Y-114376169D01*
X177474362Y-114353019D01*
X177395000Y-114345203D01*
X177245000Y-114345203D01*
X177165638Y-114353019D01*
X177105235Y-114371343D01*
X177355580Y-114120998D01*
X177462405Y-114099750D01*
X177568723Y-114055712D01*
X177664406Y-113991778D01*
X177745778Y-113910406D01*
X177809712Y-113814723D01*
X177853750Y-113708405D01*
X177876200Y-113595539D01*
X177876200Y-113480461D01*
X177853750Y-113367595D01*
X177809712Y-113261277D01*
X177745778Y-113165594D01*
X177664406Y-113084222D01*
X177583258Y-113030000D01*
X177664406Y-112975778D01*
X177745778Y-112894406D01*
X177809712Y-112798723D01*
X177853750Y-112692405D01*
X177876200Y-112579539D01*
X177876200Y-112464461D01*
X177853750Y-112351595D01*
X177809712Y-112245277D01*
X177749200Y-112154715D01*
X177749200Y-111612905D01*
X179697163Y-109664942D01*
X179748405Y-109654750D01*
X179854723Y-109610712D01*
X179950406Y-109546778D01*
X180031778Y-109465406D01*
X180095712Y-109369723D01*
X180139750Y-109263405D01*
X180149942Y-109212163D01*
X180686713Y-108675393D01*
X180711288Y-108734723D01*
G37*
%TD.AperFunction*%
%TD*%
M02*
